<svg width="15" height="15" viewBox="0 0 15 15" fill="none" xmlns="http://www.w3.org/2000/svg">
<g clip-path="url(#clip0_86_446)">
<path d="M12.852 3.65647H11.072L9.659 0.852472C9.58007 0.710377 9.44927 0.60429 9.29394 0.556385C9.13861 0.50848 8.97078 0.522465 8.82552 0.595416C8.68027 0.668367 8.56883 0.794639 8.5145 0.947838C8.46017 1.10104 8.46716 1.26931 8.534 1.41747L9.649 3.65647H5.32L6.456 1.42747C6.53225 1.27816 6.54606 1.10466 6.49439 0.945164C6.44273 0.785665 6.32982 0.653222 6.1805 0.576972C6.03118 0.500723 5.85769 0.486912 5.69819 0.538578C5.53869 0.590244 5.40625 0.703155 5.33 0.852472L3.9 3.65647H2.148C1.70971 3.66095 1.29087 3.83807 0.982345 4.1494C0.67382 4.46073 0.500504 4.88116 0.5 5.31947L0.5 6.45947C0.500221 6.73662 0.570801 7.00917 0.705128 7.25159C0.839454 7.49401 1.03313 7.69835 1.268 7.84547L1.34 7.88647L1.79 12.0865C1.86077 12.7485 2.17361 13.361 2.66846 13.8063C3.1633 14.2517 3.80525 14.4986 4.471 14.4995H10.519C11.1844 14.4975 11.8258 14.2502 12.3204 13.8051C12.815 13.3599 13.1282 12.748 13.2 12.0865L13.65 7.89647L13.722 7.85547C13.9616 7.71019 14.1593 7.50512 14.2957 7.26038C14.432 7.01564 14.5025 6.73964 14.5 6.45947V5.31947C14.5013 4.88061 14.3286 4.45911 14.0197 4.14738C13.7108 3.83565 13.2909 3.65912 12.852 3.65647ZM11.931 12.0995C11.8645 12.4216 11.6889 12.7109 11.4338 12.9186C11.1788 13.1263 10.8599 13.2396 10.531 13.2395H4.491C4.13448 13.2389 3.7908 13.1064 3.5262 12.8674C3.2616 12.6285 3.09481 12.3001 3.058 11.9455L2.649 8.11547H12.381L11.931 12.0995ZM13.261 6.46247C13.2592 6.56424 13.2173 6.66119 13.1445 6.73231C13.0717 6.80344 12.9738 6.84302 12.872 6.84247H2.158C2.05622 6.84302 1.95832 6.80344 1.88551 6.73231C1.8127 6.66119 1.77084 6.56424 1.769 6.46247V5.31947C1.76887 5.2683 1.77883 5.21761 1.79832 5.1703C1.81781 5.12299 1.84645 5.07999 1.88258 5.04376C1.91872 5.00753 1.96164 4.97879 2.0089 4.95918C2.05617 4.93957 2.10683 4.92947 2.158 4.92947H12.873C12.9242 4.92947 12.9748 4.93957 13.0221 4.95918C13.0694 4.97879 13.1123 5.00753 13.1484 5.04376C13.1846 5.07999 13.2132 5.12299 13.2327 5.1703C13.2522 5.21761 13.2621 5.2683 13.262 5.31947L13.261 6.46247Z" fill="black"/>
</g>
<defs>
<clipPath id="clip0_86_446">
<rect width="14" height="14.001" fill="white" transform="translate(0.5 0.5)"/>
</clipPath>
</defs>
</svg>
