<svg width="24" height="22" viewBox="0 0 24 22" fill="none" xmlns="http://www.w3.org/2000/svg">
<g clip-path="url(#clip0_86_450)">
<path d="M8.37506 19.9546C8.37473 20.2537 8.2707 20.5435 8.0807 20.7745C7.89069 21.0055 7.62646 21.1635 7.33302 21.2216C7.03959 21.2796 6.7351 21.2342 6.47143 21.0929C6.20777 20.9516 6.00123 20.7233 5.88702 20.4468C5.77281 20.1704 5.75799 19.8629 5.84508 19.5767C5.93216 19.2905 6.11578 19.0434 6.36463 18.8775C6.61349 18.7115 6.91219 18.6369 7.20985 18.6665C7.50751 18.6961 7.78571 18.8279 7.99706 19.0396C8.23881 19.2828 8.37467 19.6117 8.37506 19.9546Z" fill="#FF0000"/>
<path d="M19.8594 19.9546C19.8591 20.2537 19.7551 20.5435 19.5651 20.7745C19.3751 21.0055 19.1108 21.1635 18.8174 21.2216C18.524 21.2796 18.2195 21.2342 17.9558 21.0929C17.6921 20.9516 17.4856 20.7233 17.3714 20.4468C17.2572 20.1704 17.2424 19.8629 17.3295 19.5767C17.4165 19.2905 17.6002 19.0434 17.849 18.8775C18.0979 18.7115 18.3966 18.6369 18.6942 18.6665C18.9919 18.6961 19.2701 18.8279 19.4814 19.0396C19.7232 19.2828 19.859 19.6117 19.8594 19.9546Z" fill="#FF0000"/>
<path d="M22.836 4.78518C22.819 4.72553 22.7838 4.67263 22.7355 4.63377C22.6871 4.59491 22.6279 4.57199 22.566 4.56818L5.65 2.94018C5.57092 2.93204 5.49475 2.90591 5.42732 2.86379C5.3599 2.82167 5.303 2.76467 5.261 2.69718C5.08578 2.35466 4.87351 2.0324 4.628 1.73618C4.228 1.25018 3.475 1.26618 2.094 1.25518C1.98982 1.24292 1.88424 1.25248 1.78396 1.28325C1.68368 1.31401 1.59089 1.36531 1.51151 1.43387C1.43213 1.50244 1.36789 1.58677 1.32286 1.68151C1.27784 1.77625 1.25303 1.87933 1.25 1.98418C1.25121 2.08656 1.27363 2.18758 1.31584 2.28087C1.35805 2.37416 1.41914 2.45768 1.49525 2.52618C1.57135 2.59468 1.66083 2.64666 1.75803 2.67884C1.85524 2.71103 1.95805 2.72272 2.06 2.71318C2.51218 2.70239 2.96434 2.73588 3.41 2.81318C3.654 2.88518 3.852 3.28318 3.924 3.62918C3.92371 3.63189 3.924 3.63463 3.92487 3.63722C3.92573 3.63981 3.92714 3.64218 3.929 3.64418C3.939 3.70618 4.029 4.17118 4.029 4.17618L6.109 15.1102C6.20008 15.7786 6.45839 16.4132 6.86 16.9552C7.05748 17.2215 7.31587 17.4366 7.61354 17.5826C7.91122 17.7286 8.23953 17.8011 8.571 17.7942H20.857C21.047 17.7973 21.2308 17.727 21.3702 17.5979C21.5096 17.4688 21.5937 17.2908 21.605 17.1012C21.6094 17.0033 21.5937 16.9056 21.5591 16.814C21.5244 16.7224 21.4714 16.6388 21.4034 16.5684C21.3354 16.4979 21.2537 16.442 21.1634 16.4042C21.073 16.3663 20.9759 16.3473 20.878 16.3482H8.561C8.40478 16.3573 8.25109 16.3057 8.132 16.2042C7.79173 15.833 7.58118 15.3613 7.532 14.8602L7.31 13.6332C7.30906 13.6263 7.31068 13.6194 7.31456 13.6137C7.31843 13.6079 7.32429 13.6038 7.331 13.6022L21.75 11.1742C21.8163 11.1642 21.8774 11.1323 21.9234 11.0835C21.9694 11.0347 21.9978 10.972 22.004 10.9052L22.835 4.92118C22.8457 4.87647 22.8457 4.82988 22.835 4.78518H22.836Z" stroke="#FF0000" stroke-width="1.5"/>
</g>
<defs>
<clipPath id="clip0_86_450">
<rect width="23.094" height="20.75" fill="white" transform="translate(0.5 0.5)"/>
</clipPath>
</defs>
</svg>
