<svg xmlns="http://www.w3.org/2000/svg" width="23.094" height="20.75" viewBox="0 0 23.094 20.75">
  <g id="appbarCart" transform="translate(-0.25 -0.25)">
    <path id="Path_15094" data-name="Path 15094" d="M8.125,19.705a1.293,1.293,0,1,1-.378-.915A1.3,1.3,0,0,1,8.125,19.705Z" fill="#6133bd"/>
    <path id="Path_15095" data-name="Path 15095" d="M19.61,19.705a1.293,1.293,0,1,1-.378-.915A1.3,1.3,0,0,1,19.61,19.705Z" fill="#6133bd"/>
    <path id="Path_15096" data-name="Path 15096" d="M22.586,4.535a.3.3,0,0,0-.27-.217L5.4,2.69a.521.521,0,0,1-.389-.243,5.26,5.26,0,0,0-.633-.961c-.4-.486-1.153-.47-2.534-.481A.756.756,0,0,0,1,1.734a.741.741,0,0,0,.81.729,6.932,6.932,0,0,1,1.35.1c.244.072.442.47.514.816a.019.019,0,0,0,.005.015c.01.062.1.527.1.532L5.859,14.86a4.008,4.008,0,0,0,.751,1.845,2.076,2.076,0,0,0,1.711.839H20.607a.737.737,0,0,0,.748-.693.721.721,0,0,0-.727-.753H8.311a.607.607,0,0,1-.429-.144,2.325,2.325,0,0,1-.6-1.344L7.06,13.383a.028.028,0,0,1,.021-.031L21.5,10.924a.3.3,0,0,0,.254-.269l.831-5.984a.293.293,0,0,0,0-.136Z" fill="none" stroke="#6133bd" stroke-width="1.5"/>
  </g>
</svg>
