<svg width="88" height="106" viewBox="0 0 88 106" fill="none" xmlns="http://www.w3.org/2000/svg">
<g clip-path="url(#clip0_86_455)">
<path d="M65.273 26.4776C56.114 26.4776 52.243 30.8926 45.865 30.8926C39.323 30.8926 34.335 26.5036 26.402 26.5036C18.633 26.5036 10.347 31.2936 5.08602 39.4556C-2.30098 50.9636 -1.04798 72.6396 10.92 91.1046C15.2 97.7146 20.92 105.127 28.42 105.205H28.552C35.067 105.205 37.002 100.897 45.97 100.843H46.106C54.938 100.843 56.706 105.178 63.197 105.178H63.333C70.833 105.098 76.853 96.8776 81.133 90.2986C83.732 86.3657 85.9424 82.1894 87.733 77.8286C70.424 71.1916 67.643 46.4116 84.762 36.9116C79.528 30.3016 72.196 26.4746 65.272 26.4746L65.273 26.4776Z" fill="black"/>
<path d="M63.7072 0.507C57.9292 0.907 51.1982 4.696 47.2412 9.636C43.6592 14.114 40.7122 20.758 41.8682 27.2H42.3302C48.4832 27.2 54.7812 23.387 58.4502 18.5C62.0032 13.849 64.6902 7.262 63.7082 0.5L63.7072 0.507Z" fill="black"/>
</g>
<defs>
<clipPath id="clip0_86_455">
<rect width="87.233" height="104.705" fill="white" transform="translate(0.5 0.5)"/>
</clipPath>
</defs>
</svg>
