<svg width="59" height="29" viewBox="0 0 59 29" fill="none" xmlns="http://www.w3.org/2000/svg">
<g clip-path="url(#clip0_86_459)">
<path d="M55.5 0.5H3.5C1.84315 0.5 0.5 1.84315 0.5 3.5V25.5C0.5 27.1569 1.84315 28.5 3.5 28.5H55.5C57.1569 28.5 58.5 27.1569 58.5 25.5V3.5C58.5 1.84315 57.1569 0.5 55.5 0.5Z" fill="white"/>
<path d="M55.5 1H3.5C2.11929 1 1 2.11929 1 3.5V25.5C1 26.8807 2.11929 28 3.5 28H55.5C56.8807 28 58 26.8807 58 25.5V3.5C58 2.11929 56.8807 1 55.5 1Z" stroke="black"/>
<path d="M19.6063 9.49781C20.012 9.01253 20.2134 8.38872 20.1683 7.75781C19.5479 7.81813 18.9748 8.11544 18.5683 8.58781C18.3662 8.81434 18.2112 9.07887 18.1125 9.36594C18.0138 9.65302 17.9732 9.9569 17.9933 10.2598C18.3034 10.2655 18.6106 10.1998 18.8912 10.0676C19.1718 9.93549 19.4182 9.74051 19.6113 9.49781" fill="black"/>
<path d="M20.1595 10.3766C19.2655 10.3236 18.5055 10.8836 18.0795 10.8836C17.6535 10.8836 16.9985 10.4036 16.2925 10.4166C15.8327 10.4281 15.3839 10.5598 14.9907 10.7986C14.5976 11.0373 14.2738 11.3749 14.0515 11.7776C13.0915 13.4326 13.7985 15.8876 14.7315 17.2356C15.1845 17.9026 15.7315 18.6356 16.4515 18.6106C17.1315 18.5836 17.3985 18.1696 18.2255 18.1696C19.0525 18.1696 19.2925 18.6106 20.0125 18.5966C20.7595 18.5836 21.2265 17.9296 21.6795 17.2616C22.0013 16.7887 22.2529 16.2716 22.4265 15.7266C21.9978 15.5392 21.6326 15.2318 21.3747 14.8414C21.1169 14.451 20.9776 13.9944 20.9735 13.5266C20.9792 13.1108 21.0898 12.7031 21.295 12.3414C21.5002 11.9798 21.7935 11.6757 22.1475 11.4576C21.9214 11.1368 21.6245 10.8725 21.2797 10.685C20.9349 10.4975 20.5516 10.392 20.1595 10.3766Z" fill="black"/>
<path d="M27.9444 8.51763C28.3823 8.49563 28.82 8.56555 29.2293 8.72291C29.6385 8.88027 30.0103 9.12157 30.3207 9.43129C30.6311 9.74101 30.8732 10.1123 31.0314 10.5212C31.1896 10.9301 31.2605 11.3677 31.2394 11.8056C31.2573 12.2475 31.1827 12.6883 31.0204 13.0997C30.8581 13.5112 30.6117 13.8842 30.2969 14.1948C29.9821 14.5055 29.6058 14.747 29.1923 14.9038C28.7788 15.0606 28.337 15.1294 27.8954 15.1056H25.7454V18.5256H24.1914V8.51763H27.9444ZM25.7444 13.8036H27.5274C27.7996 13.8224 28.0728 13.7851 28.33 13.694C28.5872 13.6028 28.8229 13.4598 29.0226 13.2738C29.2222 13.0878 29.3815 12.8628 29.4906 12.6127C29.5997 12.3626 29.6562 12.0927 29.6567 11.8199C29.6572 11.547 29.6016 11.277 29.4934 11.0265C29.3852 10.776 29.2267 10.5504 29.0277 10.3637C28.8287 10.177 28.5935 10.0331 28.3366 9.94111C28.0797 9.84907 27.8067 9.81079 27.5344 9.82863H25.7444V13.8036Z" fill="black"/>
<path d="M31.6445 16.4527C31.6445 15.1757 32.6225 14.3927 34.3575 14.2947L36.3575 14.1767V13.6147C36.3575 12.8027 35.8095 12.3147 34.8935 12.3147C34.5494 12.2705 34.201 12.3557 33.9161 12.5538C33.6312 12.7518 33.43 13.0486 33.3515 13.3867H31.9355C32.0185 12.0687 33.1425 11.0977 34.9465 11.0977C36.7155 11.0977 37.8465 12.0347 37.8465 13.4977V18.5277H36.4105V17.3277H36.3755C36.1459 17.7342 35.8113 18.0716 35.4067 18.3047C35.0021 18.5377 34.5424 18.6579 34.0755 18.6527C33.7682 18.6832 33.4579 18.6491 33.1645 18.5525C32.8712 18.4559 32.6013 18.2989 32.3723 18.0916C32.1433 17.8844 31.9602 17.6315 31.8349 17.3492C31.7095 17.0669 31.6447 16.7615 31.6445 16.4527ZM36.3545 15.7937V15.2177L34.5545 15.3287C33.6595 15.3907 33.1545 15.7867 33.1545 16.4107C33.1545 17.0347 33.6815 17.4647 34.4865 17.4647C34.7196 17.4808 34.9535 17.45 35.1745 17.3742C35.3955 17.2984 35.5991 17.1791 35.7732 17.0234C35.9473 16.8676 36.0884 16.6786 36.1883 16.4673C36.2881 16.2561 36.3447 16.0271 36.3545 15.7937Z" fill="black"/>
<path d="M39.2034 21.2115V19.9975C39.3639 20.021 39.5262 20.0304 39.6884 20.0255C39.9969 20.0502 40.3032 19.9562 40.5448 19.7628C40.7864 19.5693 40.945 19.291 40.9884 18.9845C40.9884 18.9705 41.1204 18.5405 41.1204 18.5335L38.4844 11.2285H40.1074L41.9534 17.1665H41.9814L43.8274 11.2285H45.4094L42.6764 18.9085C42.0524 20.6775 41.3304 21.2465 39.8184 21.2465C39.6129 21.2458 39.4076 21.2341 39.2034 21.2115Z" fill="black"/>
</g>
<defs>
<clipPath id="clip0_86_459">
<rect width="58" height="28" fill="white" transform="translate(0.5 0.5)"/>
</clipPath>
</defs>
</svg>
