<svg width="37" height="37" viewBox="0 0 37 37" fill="none" xmlns="http://www.w3.org/2000/svg">
<g clip-path="url(#clip0_86_469)">
<path d="M18.5 36.5C28.4411 36.5 36.5 28.4411 36.5 18.5C36.5 8.55887 28.4411 0.5 18.5 0.5C8.55887 0.5 0.5 8.55887 0.5 18.5C0.5 28.4411 8.55887 36.5 18.5 36.5Z" fill="#FF0000"/>
<path d="M25.2763 23.415L24.2343 13.615C24.2407 13.3258 24.132 13.0459 23.9321 12.8368C23.7322 12.6277 23.4575 12.5066 23.1683 12.5H14.6343C14.491 12.5031 14.3497 12.5344 14.2185 12.5922C14.0874 12.6499 13.9689 12.7329 13.8698 12.8364C13.7707 12.94 13.693 13.062 13.6411 13.1956C13.5892 13.3292 13.5641 13.4717 13.5673 13.615L12.5253 23.415C12.5091 23.4926 12.5007 23.5717 12.5003 23.651C12.4971 23.7943 12.5222 23.9368 12.5741 24.0704C12.626 24.204 12.7037 24.326 12.8028 24.4296C12.9019 24.5331 13.0204 24.6161 13.1515 24.6738C13.2827 24.7316 13.424 24.7629 13.5673 24.766H24.2343C24.5235 24.7597 24.7983 24.6388 24.9984 24.4299C25.1985 24.221 25.3074 23.9412 25.3013 23.652C25.3009 23.5724 25.2925 23.493 25.2763 23.415ZM21.5683 15.236V15.845C21.5839 16.2049 21.5264 16.5642 21.3995 16.9013C21.2725 17.2384 21.0786 17.5463 20.8294 17.8065C20.5803 18.0666 20.2811 18.2737 19.9498 18.4151C19.6185 18.5566 19.262 18.6295 18.9018 18.6295C18.5415 18.6295 18.1851 18.5566 17.8538 18.4151C17.5225 18.2737 17.2232 18.0666 16.9741 17.8065C16.725 17.5463 16.5311 17.2384 16.4041 16.9013C16.2771 16.5642 16.2197 16.2049 16.2353 15.845V15.236C16.077 15.1751 15.9412 15.0672 15.8459 14.9269C15.7506 14.7866 15.7005 14.6206 15.7023 14.451C15.7023 14.2388 15.7866 14.0353 15.9366 13.8853C16.0866 13.7353 16.2901 13.651 16.5023 13.651C16.7144 13.651 16.9179 13.7353 17.068 13.8853C17.218 14.0353 17.3023 14.2388 17.3023 14.451V15.845C17.3023 16.2693 17.4708 16.6763 17.7709 16.9764C18.071 17.2764 18.4779 17.445 18.9023 17.445C19.3266 17.445 19.7336 17.2764 20.0336 16.9764C20.3337 16.6763 20.5023 16.2693 20.5023 15.845V14.451C20.5023 14.2388 20.5866 14.0353 20.7366 13.8853C20.8866 13.7353 21.0901 13.651 21.3023 13.651C21.5144 13.651 21.7179 13.7353 21.868 13.8853C22.018 14.0353 22.1023 14.2388 22.1023 14.451C22.1041 14.6209 22.054 14.7872 21.9585 14.9277C21.8631 15.0682 21.7269 15.1762 21.5683 15.237V15.236Z" fill="#F9F9F9"/>
</g>
<defs>
<clipPath id="clip0_86_469">
<rect width="36" height="36" fill="white" transform="translate(0.5 0.5)"/>
</clipPath>
</defs>
</svg>
