<svg xmlns="http://www.w3.org/2000/svg" width="36" height="36" viewBox="0 0 36 36">
  <g id="bag" transform="translate(-4)">
    <circle id="Ellipse_492" data-name="Ellipse 492" cx="18" cy="18" r="18" transform="translate(4)" fill="#6133bd"/>
    <path id="Path_15097" data-name="Path 15097" d="M28.775,22.915l-1.042-9.8A1.091,1.091,0,0,0,26.667,12H18.133a1.091,1.091,0,0,0-1.067,1.115l-1.042,9.8a1.185,1.185,0,0,0-.025.236,1.091,1.091,0,0,0,1.067,1.115H27.733A1.091,1.091,0,0,0,28.8,23.152,1.185,1.185,0,0,0,28.775,22.915Zm-3.708-8.179v.609a2.669,2.669,0,1,1-5.333,0v-.609a.832.832,0,0,1-.533-.785.8.8,0,1,1,1.6,0v1.394a1.6,1.6,0,1,0,3.2,0V13.951a.8.8,0,1,1,1.6,0A.832.832,0,0,1,25.067,14.737Z" fill="#f9f9f9"/>
  </g>
</svg>
