<svg width="219" height="211" viewBox="0 0 219 211" fill="none" xmlns="http://www.w3.org/2000/svg">
<g clip-path="url(#clip0_86_473)">
<path d="M89.8686 66.6512L88.0156 66.5702C88.1256 64.0422 89.2356 41.7562 94.1156 37.6912C94.4255 37.4141 94.791 37.2065 95.1877 37.0823C95.5844 36.9582 96.0031 36.9203 96.4156 36.9712C99.3156 37.3712 102.491 41.9842 106.116 51.0592C108.693 57.5202 110.551 63.9592 110.569 64.0272L108.787 64.5392C108.769 64.4752 106.933 58.1112 104.387 51.7392C99.8946 40.4812 97.1386 38.9502 96.1626 38.8142C96.0059 38.7972 95.8474 38.8161 95.6991 38.8695C95.5508 38.9229 95.4166 39.0093 95.3066 39.1222C91.7006 42.1162 90.1596 60.0092 89.8686 66.6512Z" fill="black"/>
<path d="M73.4995 54.6258L71.6445 101.176L132.853 94.5758L125.287 49.6328L73.4995 54.6258Z" fill="#FFBA49"/>
<path d="M125.283 49.6348L120.783 50.0688L126.775 89.4788L71.8546 95.7998L71.6406 101.173L132.849 94.5728L125.283 49.6348Z" fill="#FFA113"/>
<path d="M158.349 129.68L155.8 129.4C155.822 129.2 157.936 109.286 151.081 101.839C150.276 100.934 149.275 100.222 148.156 99.7584C147.036 99.2944 145.826 99.0899 144.616 99.1602C129.685 99.5852 122.664 125.227 122.595 125.486L120.121 124.824C121.5 120.036 123.415 115.418 125.831 111.06C131.031 101.799 137.504 96.7982 144.543 96.5982C146.12 96.5164 147.695 96.7885 149.153 97.3944C150.612 98.0004 151.916 98.9249 152.97 100.1C160.613 108.408 158.445 128.816 158.349 129.68Z" fill="#FFBA49"/>
<path d="M112.927 111.418L166.957 117.83L166.119 203.564L93.9961 194.964L112.927 111.418Z" fill="#DB3022"/>
<path d="M166.958 117.829L161.607 117.193L159 196.521L95.011 190.484L94 194.967L166.123 203.567L166.958 117.829Z" fill="#D10505"/>
<path d="M180.5 145.078C182.961 145.593 185.305 143.625 185.736 140.678C186.195 141.462 186.654 142.247 187.113 143.033C186.683 145.98 184.337 147.949 181.879 147.433C181.42 146.646 180.96 145.861 180.5 145.078Z" fill="#FFBA49"/>
<path d="M107.832 208.13C110.293 208.646 112.637 206.677 113.068 203.73C113.527 204.514 113.986 205.299 114.445 206.084C114.015 209.031 111.669 211.001 109.211 210.484C108.752 209.699 108.292 208.914 107.832 208.13Z" fill="#9B9B9B"/>
<path d="M185.994 95.7363C187.026 98.4603 189.705 99.6703 191.981 98.4363C191.699 99.3337 191.417 100.231 191.134 101.128C188.858 102.362 186.179 101.153 185.148 98.4283C185.432 97.5317 185.714 96.6343 185.994 95.7363Z" fill="#FF5C00"/>
<path d="M170.07 76.3866C170.486 73.4356 168.826 70.6416 166.363 70.1446C167.015 69.5886 167.667 69.0326 168.319 68.4766C170.781 68.9766 172.441 71.7696 172.027 74.7186L170.07 76.3866Z" fill="#021193"/>
<path d="M22.208 64.4774C22.623 61.5264 20.964 58.7324 18.5 58.2344L20.456 56.5664C22.918 57.0664 24.578 59.8584 24.164 62.8084L22.208 64.4774Z" fill="#FF5C00"/>
<path d="M72.5947 169.042C73.0097 166.09 71.3507 163.296 68.8867 162.799L70.8427 161.131C73.3047 161.631 74.9647 164.424 74.5507 167.374L72.5947 169.042Z" fill="#FF5C00"/>
<path d="M201.832 58.4555C204.277 59.0725 206.674 57.1995 207.189 54.2695L208.5 56.6795C207.986 59.6055 205.587 61.4795 203.144 60.8655C202.706 60.0629 202.269 59.2595 201.832 58.4555Z" fill="#FFBA49"/>
<path d="M6.321 94.7073C5.445 91.9073 2.84 90.4833 0.5 91.5343L1.494 88.9163C3.831 87.8663 6.438 89.2863 7.315 92.0883L6.321 94.7073Z" fill="#FFBA49"/>
<path d="M67.033 128.848C67.206 131.832 69.366 134.084 71.857 133.876C71.332 134.601 70.805 135.322 70.281 136.047C67.789 136.253 65.63 134 65.457 131.015C65.9824 130.293 66.5077 129.571 67.033 128.848Z" fill="#DB3022"/>
<path d="M49.4297 74.6198C51.9037 74.2088 53.6297 71.4718 53.2857 68.5078L55.2007 70.2418C55.5437 73.2068 53.8187 75.9418 51.3437 76.3548C50.7064 75.7761 50.0684 75.1978 49.4297 74.6198Z" fill="#021193"/>
<path d="M150.313 38.2728C147.105 38.3788 149.413 44.0318 146.202 44.1408C145.589 43.5248 144.976 42.9085 144.363 42.2918C147.572 42.1848 145.263 36.5318 148.474 36.4238L150.313 38.2728Z" fill="#FF5C00"/>
<path d="M156.14 186.845C153.018 185.959 154.03 192.132 150.906 191.245L149.527 188.89C152.651 189.776 151.638 183.603 154.763 184.49C155.221 185.276 155.68 186.061 156.14 186.845Z" fill="#FFBA49"/>
<path d="M63.281 194.883C61.075 197.678 66.042 199.725 63.837 202.517C63.037 202.599 62.243 202.684 61.447 202.765C63.653 199.972 58.686 197.927 60.891 195.133C61.6877 195.051 62.4843 194.967 63.281 194.883Z" fill="#021193"/>
<path d="M134.725 1.92295C131.585 2.72295 134.701 7.78695 131.563 8.58495C130.869 8.10995 130.171 7.63695 129.477 7.16095C132.616 6.36095 129.497 1.30095 132.638 0.501953C133.334 0.977286 134.029 1.45095 134.725 1.92295Z" fill="#DB3022"/>
<path d="M33.9442 18.5703C35.4892 21.9423 38.6372 16.9063 40.1802 20.2763C40.0012 21.2093 39.8242 22.1463 39.6442 23.0763C38.1022 19.7043 34.9552 24.7423 33.4102 21.3703C33.5895 20.437 33.7675 19.5036 33.9442 18.5703Z" fill="#9B9B9B"/>
<path d="M7.31641 151.15C7.72944 151.073 8.10251 150.854 8.371 150.531C8.63948 150.208 8.78645 149.801 8.78645 149.381C8.78645 148.961 8.63948 148.554 8.371 148.231C8.10251 147.907 7.72944 147.688 7.31641 147.611" fill="black"/>
<path d="M174.947 14.4323C174.236 14.3615 173.581 14.0146 173.124 13.4661C172.666 12.9176 172.441 12.2114 172.499 11.4993C172.436 11.1414 172.452 10.7741 172.545 10.423C172.639 10.072 172.809 9.74575 173.043 9.46731C173.276 9.18888 173.568 8.96497 173.897 8.81135C174.227 8.65773 174.586 8.57812 174.949 8.57812C175.312 8.57812 175.671 8.65773 176.001 8.81135C176.33 8.96497 176.622 9.18888 176.855 9.46731C177.089 9.74575 177.258 10.072 177.352 10.423C177.446 10.7741 177.462 11.1414 177.399 11.4993C177.456 12.212 177.232 12.9188 176.773 13.4674C176.314 14.016 175.659 14.3625 174.947 14.4323ZM174.947 9.7323C174.518 9.77493 174.124 9.98385 173.848 10.3142C173.571 10.6446 173.436 11.0701 173.47 11.4993C173.432 11.7151 173.441 11.9366 173.498 12.1483C173.554 12.36 173.657 12.5568 173.797 12.7247C173.938 12.8926 174.114 13.0277 174.313 13.1203C174.511 13.213 174.728 13.261 174.947 13.261C175.166 13.261 175.383 13.213 175.581 13.1203C175.78 13.0277 175.956 12.8926 176.096 12.7247C176.237 12.5568 176.339 12.36 176.396 12.1483C176.453 11.9366 176.462 11.7151 176.424 11.4993C176.459 11.0697 176.323 10.6438 176.047 10.3129C175.771 9.98213 175.376 9.77293 174.947 9.7303V9.7323Z" fill="black"/>
<path d="M32.4461 125.551C31.7589 125.426 31.137 125.065 30.6892 124.529C30.2414 123.993 29.9961 123.316 29.9961 122.618C29.9961 121.92 30.2414 121.243 30.6892 120.707C31.137 120.171 31.7589 119.81 32.4461 119.686C33.1334 119.81 33.7553 120.171 34.2031 120.707C34.6509 121.243 34.8962 121.92 34.8962 122.618C34.8962 123.316 34.6509 123.993 34.2031 124.529C33.7553 125.065 33.1334 125.426 32.4461 125.551ZM32.4461 120.851C32.0331 120.928 31.66 121.147 31.3916 121.47C31.1231 121.793 30.9761 122.2 30.9761 122.62C30.9761 123.04 31.1231 123.447 31.3916 123.77C31.66 124.093 32.0331 124.313 32.4461 124.39C32.8592 124.313 33.2323 124.093 33.5007 123.77C33.7692 123.447 33.9162 123.04 33.9162 122.62C33.9162 122.2 33.7692 121.793 33.5007 121.47C33.2323 121.147 32.8592 120.928 32.4461 120.851Z" fill="black"/>
<path d="M217.321 154.7C216.445 151.9 213.839 150.476 211.5 151.527L212.494 148.909C214.832 147.859 217.438 149.279 218.315 152.081C217.984 152.956 217.652 153.829 217.321 154.7Z" fill="black"/>
</g>
<defs>
<clipPath id="clip0_86_473">
<rect width="217.815" height="210.067" fill="white" transform="translate(0.5 0.5)"/>
</clipPath>
</defs>
</svg>
