<svg width="59" height="29" viewBox="0 0 59 29" fill="none" xmlns="http://www.w3.org/2000/svg">
<g clip-path="url(#clip0_86_499)">
<path d="M55.5 0.5H3.5C1.84315 0.5 0.5 1.84315 0.5 3.5V25.5C0.5 27.1569 1.84315 28.5 3.5 28.5H55.5C57.1569 28.5 58.5 27.1569 58.5 25.5V3.5C58.5 1.84315 57.1569 0.5 55.5 0.5Z" fill="white"/>
<path d="M21.2544 13.501V20.98C21.2544 21.503 21.5734 21.927 21.9674 21.927H23.4294C23.8224 21.927 24.1424 21.504 24.1424 20.98V13.501C24.1438 13.4774 24.1438 13.4536 24.1424 13.43H35.5554V20.79C35.5554 21.313 35.8744 21.737 36.2684 21.737H37.7304C38.1234 21.737 38.4434 21.314 38.4434 20.79V13.425H39.8644V10.775L34.9044 7.702L29.9414 4.625L24.9824 7.702L20.0234 10.779V13.425H21.2584C21.2571 13.4503 21.2571 13.4757 21.2584 13.501H21.2544ZM37.9304 12.365H21.9514C21.8228 12.365 21.6994 12.3139 21.6085 12.2229C21.5175 12.132 21.4664 12.0086 21.4664 11.88C21.4664 11.7514 21.5175 11.628 21.6085 11.5371C21.6994 11.4461 21.8228 11.395 21.9514 11.395H37.9304C38.0591 11.395 38.1824 11.4461 38.2734 11.5371C38.3643 11.628 38.4154 11.7514 38.4154 11.88C38.4154 12.0086 38.3643 12.132 38.2734 12.2229C38.1824 12.3139 38.0591 12.365 37.9304 12.365Z" fill="#005093"/>
<path d="M39.436 22.2344H20.447C20.1955 22.2349 19.9545 22.3353 19.7769 22.5134C19.5993 22.6915 19.4997 22.9329 19.5 23.1844V23.4254C19.4997 23.6769 19.5993 23.9182 19.7769 24.0964C19.9545 24.2745 20.1955 24.3748 20.447 24.3754H39.436C39.5606 24.3752 39.6839 24.3506 39.7989 24.3027C39.914 24.2549 40.0184 24.1849 40.1064 24.0966C40.1943 24.0084 40.264 23.9037 40.3115 23.7885C40.359 23.6734 40.3833 23.55 40.383 23.4254V23.1844C40.3833 22.9329 40.2837 22.6915 40.1061 22.5134C39.9285 22.3353 39.6875 22.2349 39.436 22.2344Z" fill="#005093"/>
<path d="M27.7586 14.7949C27.5066 14.7949 27.265 14.895 27.0868 15.0732C26.9087 15.2513 26.8086 15.493 26.8086 15.7449V20.2549C26.8086 20.5069 26.9087 20.7485 27.0868 20.9267C27.265 21.1048 27.5066 21.2049 27.7586 21.2049H32.1246C32.3765 21.2049 32.6182 21.1048 32.7963 20.9267C32.9745 20.7485 33.0746 20.5069 33.0746 20.2549V15.7449C33.0746 15.493 32.9745 15.2513 32.7963 15.0732C32.6182 14.895 32.3765 14.7949 32.1246 14.7949H27.7586ZM30.2746 18.4819V19.3039C30.2593 19.3871 30.2152 19.4624 30.1502 19.5165C30.0852 19.5707 30.0032 19.6003 29.9186 19.6003C29.834 19.6003 29.752 19.5707 29.687 19.5165C29.6219 19.4624 29.5779 19.3871 29.5626 19.3039V18.4599C29.3673 18.3724 29.2083 18.2198 29.1127 18.0282C29.0172 17.8367 28.991 17.6179 29.0385 17.4092C29.0861 17.2005 29.2045 17.0147 29.3736 16.8834C29.5427 16.7522 29.7521 16.6836 29.9661 16.6893C30.1801 16.695 30.3855 16.7747 30.5474 16.9148C30.7092 17.0549 30.8176 17.2467 30.8539 17.4576C30.8903 17.6686 30.8525 17.8856 30.7468 18.0718C30.6412 18.258 30.4743 18.4019 30.2746 18.4789V18.4819Z" fill="#C52114"/>
</g>
<defs>
<clipPath id="clip0_86_499">
<rect width="58" height="28" fill="white" transform="translate(0.5 0.5)"/>
</clipPath>
</defs>
</svg>
