<svg width="15" height="15" viewBox="0 0 15 15" fill="none" xmlns="http://www.w3.org/2000/svg">
<g clip-path="url(#clip0_86_506)">
<path d="M1.136 1.77344H3.682C3.85068 1.77344 4.01245 1.84044 4.13172 1.95972C4.25099 2.07899 4.318 2.24076 4.318 2.40944C4.318 2.49296 4.30155 2.57566 4.26959 2.65282C4.23763 2.72999 4.19078 2.8001 4.13172 2.85916C4.07266 2.91822 4.00255 2.96506 3.92539 2.99702C3.84822 3.02899 3.76552 3.04544 3.682 3.04544H1.136C0.967404 3.04517 0.805788 2.97808 0.686572 2.85887C0.567356 2.73965 0.500264 2.57803 0.5 2.40944C0.5 2.32592 0.516451 2.24321 0.548413 2.16605C0.580375 2.08889 0.627222 2.01878 0.68628 1.95972C0.805553 1.84044 0.967322 1.77344 1.136 1.77344Z" fill="black"/>
<path d="M0.5 8.773C0.499719 8.26715 0.668703 7.77575 0.980041 7.37707C1.29138 6.97838 1.72717 6.69533 2.218 6.573L5.591 5.733V2.409C5.591 2.15831 5.64038 1.91007 5.73631 1.67846C5.83225 1.44685 5.97287 1.2364 6.15013 1.05913C6.3274 0.881866 6.53785 0.74125 6.76946 0.645314C7.00107 0.549378 7.24931 0.5 7.5 0.5C7.75069 0.5 7.99893 0.549378 8.23054 0.645314C8.46215 0.74125 8.6726 0.881866 8.84987 1.05913C9.02713 1.2364 9.16775 1.44685 9.26369 1.67846C9.35962 1.91007 9.409 2.15831 9.409 2.409V5.591C10.0988 5.63642 10.7455 5.9424 11.2181 6.44691C11.6906 6.95142 11.9537 7.61673 11.954 8.308V8.773C11.954 10.2919 11.3506 11.7486 10.2766 12.8226C9.20258 13.8966 7.7459 14.5 6.227 14.5C4.70811 14.5 3.25142 13.8966 2.1774 12.8226C1.10338 11.7486 0.5 10.2919 0.5 8.773ZM9.409 8.137C9.409 8.30581 9.34194 8.46771 9.22257 8.58707C9.10321 8.70644 8.94131 8.7735 8.7725 8.7735C8.60369 8.7735 8.44179 8.70644 8.32243 8.58707C8.20306 8.46771 8.136 8.30581 8.136 8.137V2.409C8.136 2.24019 8.06894 2.07829 7.94957 1.95893C7.83021 1.83956 7.66831 1.7725 7.4995 1.7725C7.33069 1.7725 7.16879 1.83956 7.04943 1.95893C6.93006 2.07829 6.863 2.24019 6.863 2.409V5.731C6.863 6.316 6.468 6.826 5.59 7.042L2.523 7.812C2.31406 7.85997 2.12696 7.97594 1.99104 8.14172C1.85512 8.3075 1.77808 8.51371 1.772 8.728C1.76748 9.90885 2.23197 11.0432 3.06339 11.8817C3.89482 12.7203 5.02515 13.1944 6.206 13.2C6.35759 13.2006 6.50911 13.1936 6.66 13.179C7.77466 13.0446 8.80081 12.5045 9.54265 11.6618C10.2845 10.8191 10.6901 9.7327 10.682 8.61V8.31C10.6847 7.95446 10.5563 7.61038 10.3213 7.3436C10.0862 7.07682 9.76106 6.90607 9.408 6.864V8.137H9.409Z" fill="black"/>
<path d="M12.5926 4.318C12.215 4.318 11.8459 4.20604 11.532 3.99628C11.2181 3.78651 10.9734 3.48837 10.8289 3.13954C10.6844 2.79072 10.6466 2.40688 10.7203 2.03657C10.7939 1.66626 10.9757 1.32611 11.2427 1.05913C11.5097 0.792156 11.8499 0.610341 12.2202 0.536682C12.5905 0.463023 12.9743 0.500827 13.3231 0.645315C13.672 0.789803 13.9701 1.03448 14.1799 1.34842C14.3896 1.66235 14.5016 2.03144 14.5016 2.409C14.5016 2.65969 14.4522 2.90793 14.3563 3.13954C14.2603 3.37115 14.1197 3.5816 13.9425 3.75887C13.7652 3.93613 13.5547 4.07675 13.3231 4.17269C13.0915 4.26862 12.8433 4.318 12.5926 4.318ZM12.5926 1.773C12.4668 1.773 12.3438 1.8103 12.2393 1.88019C12.1347 1.95007 12.0531 2.0494 12.005 2.16561C11.9569 2.28183 11.9443 2.40971 11.9688 2.53308C11.9934 2.65645 12.0539 2.76977 12.1429 2.85872C12.2318 2.94767 12.3451 3.00824 12.4685 3.03278C12.5919 3.05732 12.7198 3.04473 12.836 2.99659C12.9522 2.94845 13.0515 2.86693 13.1214 2.76234C13.1913 2.65775 13.2286 2.53479 13.2286 2.409C13.2286 2.24032 13.1616 2.07855 13.0423 1.95928C12.923 1.84001 12.7613 1.773 12.5926 1.773Z" fill="black"/>
</g>
<defs>
<clipPath id="clip0_86_506">
<rect width="14" height="14" fill="white" transform="translate(0.5 0.5)"/>
</clipPath>
</defs>
</svg>
