<svg width="52" height="51" viewBox="0 0 52 51" fill="none" xmlns="http://www.w3.org/2000/svg">
<g clip-path="url(#clip0_86_510)">
<path d="M43.6928 2.75411C43.7161 2.45084 43.6732 2.14612 43.5668 1.86117C43.4604 1.57621 43.2932 1.31783 43.0768 1.10409C42.8608 0.88961 42.6007 0.724801 42.3145 0.621175C42.0283 0.517549 41.723 0.477625 41.4198 0.50411H2.84877C2.54112 0.477256 2.23133 0.518068 1.94111 0.623617C1.6509 0.729166 1.38729 0.896858 1.16878 1.11507C0.950159 1.33321 0.781923 1.59651 0.675856 1.88656C0.569788 2.1766 0.528443 2.48644 0.554762 2.79415V4.1401C0.561762 4.8951 0.567771 5.67515 0.538771 6.44015C0.429621 7.03178 0.552972 7.64262 0.88307 8.14559C1.21317 8.64856 1.72459 9.00483 2.3108 9.1401L2.51979 9.20308V36.1951C2.46027 36.9479 2.68044 37.6961 3.1382 38.2967C3.59596 38.8973 4.25911 39.308 5.00075 39.4502C5.52732 39.5854 6.06907 39.6526 6.61275 39.6501C9.57175 39.6591 12.5128 39.6601 14.7528 39.6601H21.5648C21.9678 39.7009 22.3713 39.5872 22.6938 39.3421C22.7657 39.2633 22.8205 39.1704 22.8549 39.0694C22.8893 38.9684 22.9025 38.8614 22.8938 38.7551C22.8878 38.3551 22.7318 37.892 21.5768 37.892H6.80476C6.57176 37.892 6.30477 37.8921 6.04677 37.8701C4.75377 37.7581 4.29475 37.2611 4.29475 35.9701V9.19906H16.3848V23.939C16.3539 24.1382 16.3903 24.342 16.4881 24.5181C16.5858 24.6943 16.7395 24.8329 16.9248 24.9121C17.0358 24.9611 17.1554 24.9876 17.2767 24.9901C17.4155 24.9801 17.5509 24.9426 17.6749 24.8796C17.7989 24.8166 17.909 24.7294 17.9988 24.6231C18.9381 23.6991 19.8808 22.7781 20.8268 21.8601L21.4758 21.2301C21.5758 21.1301 21.6758 21.0411 21.7758 20.9441L21.9248 20.8081L22.1248 20.6211L22.4797 20.9511C22.5797 21.0451 22.6718 21.1291 22.7618 21.2161L24.3138 22.7301L26.3138 24.684C26.3957 24.7759 26.4951 24.8505 26.6062 24.9034C26.7173 24.9563 26.8378 24.9865 26.9608 24.9921C27.0792 24.9901 27.196 24.9648 27.3048 24.9181C27.4861 24.8537 27.6401 24.7296 27.7414 24.566C27.8427 24.4024 27.8851 24.2091 27.8618 24.0181C27.8618 23.9051 27.8618 23.791 27.8618 23.679V9.17904H39.9428V20.3651C39.9349 20.5976 39.955 20.8303 40.0028 21.0581C40.044 21.2438 40.1502 21.4087 40.3021 21.5233C40.4541 21.6378 40.6419 21.6945 40.8318 21.6831H40.8528C41.046 21.6866 41.2342 21.6216 41.3839 21.4995C41.5337 21.3774 41.6353 21.206 41.6708 21.0161C41.7089 20.8009 41.7253 20.5825 41.7198 20.3641V9.83114C41.6914 9.65478 41.7271 9.47401 41.8204 9.32174C41.9138 9.16946 42.0587 9.0557 42.2288 9.00106C42.6787 8.86599 43.0686 8.58033 43.333 8.19198C43.5973 7.80363 43.7201 7.33627 43.6808 6.86812V5.78109C43.6988 4.80409 43.7018 3.77411 43.6928 2.75411ZM16.3448 7.34505H2.37379V2.29513H16.3448V7.34505ZM26.0828 21.8261L25.6078 21.4621L25.4968 21.3791C25.4092 21.3187 25.3264 21.2518 25.2488 21.179C24.9435 20.8824 24.6391 20.5851 24.3358 20.2871C23.8608 19.8201 23.3688 19.3381 22.8808 18.8701C22.6872 18.6442 22.4146 18.501 22.1188 18.4701C21.9734 18.4845 21.8325 18.5281 21.7043 18.5982C21.5761 18.6683 21.4633 18.7635 21.3728 18.8781C20.7858 19.4841 20.2068 20.121 19.6458 20.736C19.3998 21.0074 19.1531 21.2771 18.9058 21.5451L18.7228 21.7451L18.1938 21.3451V2.27804H26.0818L26.0828 21.8261ZM41.8908 7.33907H27.9108V2.28914H41.8908V7.33907Z" fill="black"/>
<path d="M38.8358 24.6133H38.7828C35.3625 24.626 32.0861 25.9915 29.6692 28.4116C27.2522 30.8318 25.891 34.1099 25.8828 37.5303C25.8764 40.9573 27.2288 44.2471 29.6437 46.6788C32.0585 49.1105 35.3388 50.4858 38.7658 50.5033H38.8098C42.24 50.4999 45.5291 49.1378 47.9575 46.7151C50.3858 44.2924 51.7555 41.0064 51.7668 37.5763C51.7611 34.1456 50.3978 30.8566 47.975 28.4277C45.5521 25.9989 42.2665 24.6275 38.8358 24.6133ZM38.8088 48.7533H38.7708C35.8084 48.7374 32.9729 47.5485 30.8851 45.4468C28.7972 43.3451 27.6271 40.5017 27.6309 37.5392C27.6427 34.5819 28.8251 31.7497 30.9194 29.6617C33.0137 27.5738 35.8496 26.4001 38.8068 26.3972H38.8258C41.7846 26.4049 44.6197 27.5847 46.7104 29.6782C48.8012 31.7718 49.9771 34.6085 49.9808 37.5673C49.9771 40.5304 48.7994 43.3713 46.7054 45.4679C44.6115 47.5645 41.772 48.7459 38.8088 48.7533Z" fill="black"/>
<path d="M44.845 34.9886L37.778 42.0287C37.6481 42.1598 37.4795 42.2457 37.297 42.2737C37.2757 42.2789 37.2539 42.2819 37.232 42.2826C37.1989 42.2877 37.1655 42.2901 37.132 42.2897C36.8968 42.2896 36.6713 42.196 36.505 42.0297L33.092 38.6146C33.0096 38.5327 32.9443 38.4354 32.8997 38.3281C32.8551 38.2209 32.8321 38.1058 32.832 37.9896C32.8321 37.8735 32.8551 37.7585 32.8997 37.6512C32.9443 37.544 33.0096 37.4465 33.092 37.3646C33.174 37.2825 33.2715 37.2173 33.3787 37.1729C33.486 37.1284 33.6009 37.1056 33.717 37.1056C33.8331 37.1056 33.9481 37.1284 34.0553 37.1729C34.1626 37.2173 34.26 37.2825 34.342 37.3646L37.142 40.1647L43.597 33.7336C43.6791 33.6515 43.7765 33.5863 43.8837 33.5419C43.991 33.4974 44.1059 33.4746 44.222 33.4746C44.3381 33.4746 44.4531 33.4974 44.5603 33.5419C44.6675 33.5863 44.765 33.6515 44.847 33.7336C44.9296 33.816 44.9951 33.914 45.0397 34.0217C45.0843 34.1295 45.1072 34.245 45.107 34.3617C45.1068 34.4783 45.0836 34.5937 45.0386 34.7013C44.9936 34.8089 44.9279 34.9066 44.845 34.9886Z" fill="black"/>
</g>
<defs>
<clipPath id="clip0_86_510">
<rect width="51.268" height="50.004" fill="white" transform="translate(0.5 0.5)"/>
</clipPath>
</defs>
</svg>
