<svg id="cart01" xmlns="http://www.w3.org/2000/svg" width="21.593" height="20" viewBox="0 0 21.593 20">
  <path id="Path_15126" data-name="Path 15126" d="M7.125,18.705a1.293,1.293,0,1,1-.378-.915A1.3,1.3,0,0,1,7.125,18.705Z" fill="#6133bd"/>
  <path id="Path_15127" data-name="Path 15127" d="M18.61,18.705a1.293,1.293,0,1,1-.378-.915A1.3,1.3,0,0,1,18.61,18.705Z" fill="#6133bd"/>
  <path id="Path_15128" data-name="Path 15128" d="M21.586,3.535a.3.3,0,0,0-.27-.217L4.4,1.69a.521.521,0,0,1-.389-.243A5.26,5.26,0,0,0,3.381.486C2.981,0,2.228.016.847.006A.756.756,0,0,0,0,.734a.741.741,0,0,0,.81.729,6.932,6.932,0,0,1,1.35.1c.244.072.442.47.514.816a.019.019,0,0,0,.005.015c.01.062.1.527.1.532L4.859,13.86a4.008,4.008,0,0,0,.751,1.845,2.076,2.076,0,0,0,1.711.839H19.607a.737.737,0,0,0,.748-.693.721.721,0,0,0-.727-.753H7.311a.607.607,0,0,1-.429-.144,2.325,2.325,0,0,1-.6-1.344L6.06,12.383a.028.028,0,0,1,.021-.031L20.5,9.924a.3.3,0,0,0,.254-.269l.831-5.984A.293.293,0,0,0,21.586,3.535Z" fill="#6133bd"/>
</svg>
