<svg xmlns="http://www.w3.org/2000/svg" width="22.598" height="20.5" viewBox="0 0 22.598 20.5">
  <g id="cart" transform="translate(-0.5 -0.5)">
    <path id="Path_15123" data-name="Path 15123" d="M8.13,19.7a1.31,1.31,0,0,1-.8,1.2,1.287,1.287,0,0,1-1.76-.94,1.374,1.374,0,0,1,.07-.75,1.239,1.239,0,0,1,.48-.58,1.283,1.283,0,0,1,1.63.16A1.261,1.261,0,0,1,8.13,19.7Z" fill="#6133bd"/>
    <path id="Path_15124" data-name="Path 15124" d="M19.61,19.7a1.31,1.31,0,0,1-.8,1.2,1.287,1.287,0,0,1-1.76-.94,1.374,1.374,0,0,1,.07-.75,1.239,1.239,0,0,1,.48-.58,1.283,1.283,0,0,1,1.63.16A1.261,1.261,0,0,1,19.61,19.7Z" fill="#6133bd"/>
    <path id="Path_15125" data-name="Path 15125" d="M22.59,4.534a.307.307,0,0,0-.1-.15.363.363,0,0,0-.17-.07L5.4,2.684a.453.453,0,0,1-.22-.08.551.551,0,0,1-.17-.17,4.611,4.611,0,0,0-.63-.95c-.4-.49-1.15-.47-2.53-.48a.82.82,0,0,0-.31.03.72.72,0,0,0-.27.15.914.914,0,0,0-.2.24.678.678,0,0,0,0,.6.725.725,0,0,0,.18.25.614.614,0,0,0,.26.15.769.769,0,0,0,.3.03,6.822,6.822,0,0,1,1.35.1c.24.07.44.47.51.82v.02c.01.06.1.53.1.53l2.08,10.93a3.979,3.979,0,0,0,.75,1.84,2.163,2.163,0,0,0,.75.63,2.009,2.009,0,0,0,.96.21H20.6a.744.744,0,0,0,.51-.2.789.789,0,0,0,.24-.5.71.71,0,0,0-.05-.29.669.669,0,0,0-.16-.25.633.633,0,0,0-.24-.16.717.717,0,0,0-.29-.06H8.31a.6.6,0,0,1-.43-.14,2.32,2.32,0,0,1-.6-1.34l-.23-1.23v-.02c0-.01.01-.01.02-.01l14.43-2.42a.259.259,0,0,0,.17-.09.3.3,0,0,0,.08-.18l.83-5.98A.2.2,0,0,0,22.59,4.534Z" fill="none" stroke="#6133bd" stroke-miterlimit="10" stroke-width="1"/>
  </g>
</svg>
