<svg width="23" height="21" viewBox="0 0 23 21" fill="none" xmlns="http://www.w3.org/2000/svg">
<g clip-path="url(#clip0_86_522)">
<path d="M7.62506 19.2046C7.62473 19.5037 7.5207 19.7935 7.3307 20.0245C7.14069 20.2555 6.87646 20.4135 6.58302 20.4716C6.28959 20.5296 5.9851 20.4842 5.72143 20.3429C5.45777 20.2016 5.25123 19.9733 5.13702 19.6968C5.02281 19.4204 5.00799 19.1129 5.09508 18.8267C5.18216 18.5405 5.36578 18.2934 5.61463 18.1275C5.86349 17.9615 6.16219 17.8869 6.45985 17.9165C6.75751 17.9461 7.03571 18.0779 7.24706 18.2896C7.48881 18.5328 7.62467 18.8617 7.62506 19.2046Z" fill="#FF0000"/>
<path d="M19.1094 19.2046C19.1091 19.5037 19.0051 19.7935 18.8151 20.0245C18.6251 20.2555 18.3608 20.4135 18.0674 20.4716C17.774 20.5296 17.4695 20.4842 17.2058 20.3429C16.9421 20.2016 16.7356 19.9733 16.6214 19.6968C16.5072 19.4204 16.4924 19.1129 16.5795 18.8267C16.6665 18.5405 16.8502 18.2934 17.099 18.1275C17.3479 17.9615 17.6466 17.8869 17.9442 17.9165C18.2419 17.9461 18.5201 18.0779 18.7314 18.2896C18.9732 18.5328 19.109 18.8617 19.1094 19.2046Z" fill="#FF0000"/>
<path d="M22.086 4.03454C22.069 3.97489 22.0338 3.92199 21.9855 3.88313C21.9371 3.84427 21.8779 3.82135 21.816 3.81754L4.9 2.18954C4.82092 2.1814 4.74475 2.15527 4.67732 2.11315C4.6099 2.07103 4.553 2.01404 4.511 1.94654C4.33673 1.60416 4.12546 1.2819 3.881 0.985537C3.481 0.499537 2.728 0.515537 1.347 0.505537C1.24267 0.492841 1.13685 0.502035 1.03627 0.532534C0.935699 0.563034 0.84259 0.614167 0.762888 0.682672C0.683186 0.751176 0.618643 0.835545 0.573378 0.930394C0.528114 1.02524 0.503123 1.12849 0.5 1.23354C0.501213 1.33592 0.523631 1.43695 0.565842 1.53023C0.608052 1.62352 0.669138 1.70705 0.745245 1.77554C0.821353 1.84404 0.91083 1.89602 1.00803 1.9282C1.10524 1.96039 1.20805 1.97208 1.31 1.96254C1.76218 1.95175 2.21434 1.98524 2.66 2.06254C2.904 2.13454 3.102 2.53254 3.174 2.87854C3.17371 2.88125 3.174 2.88399 3.17487 2.88658C3.17573 2.88917 3.17714 2.89154 3.179 2.89354C3.189 2.95554 3.279 3.42054 3.279 3.42554L5.359 14.3595C5.45008 15.0279 5.70839 15.6625 6.11 16.2045C6.30748 16.4708 6.56587 16.686 6.86354 16.832C7.16122 16.9779 7.48953 17.0505 7.821 17.0435H20.107C20.297 17.0467 20.4808 16.9764 20.6202 16.8473C20.7596 16.7182 20.8437 16.5402 20.855 16.3505C20.8594 16.2527 20.8437 16.155 20.8091 16.0634C20.7744 15.9718 20.7214 15.8882 20.6534 15.8177C20.5854 15.7473 20.5037 15.6914 20.4134 15.6535C20.323 15.6157 20.2259 15.5966 20.128 15.5975H7.811C7.65478 15.6066 7.50109 15.555 7.382 15.4535C7.04173 15.0823 6.83118 14.6107 6.782 14.1095L6.56 12.8825C6.55906 12.8757 6.56068 12.8687 6.56456 12.863C6.56843 12.8573 6.57429 12.8532 6.581 12.8515L21 10.4235C21.0663 10.4135 21.1274 10.3816 21.1734 10.3329C21.2194 10.2841 21.2478 10.2213 21.254 10.1545L22.085 4.17054C22.096 4.12591 22.0963 4.07932 22.086 4.03454Z" fill="#FF0000"/>
</g>
<defs>
<clipPath id="clip0_86_522">
<rect width="21.593" height="20" fill="white" transform="translate(0.5 0.5)"/>
</clipPath>
</defs>
</svg>
