<svg width="21" height="21" viewBox="0 0 21 21" fill="none" xmlns="http://www.w3.org/2000/svg">
<g clip-path="url(#clip0_86_529)">
<path d="M1.611 9.389H8.278C8.57266 9.389 8.85524 9.27195 9.0636 9.0636C9.27195 8.85524 9.389 8.57266 9.389 8.278V1.611C9.389 1.31634 9.27195 1.03376 9.0636 0.825404C8.85524 0.617051 8.57266 0.5 8.278 0.5L1.611 0.5C1.31634 0.5 1.03376 0.617051 0.825404 0.825404C0.617051 1.03376 0.5 1.31634 0.5 1.611L0.5 8.278C0.5 8.57266 0.617051 8.85524 0.825404 9.0636C1.03376 9.27195 1.31634 9.389 1.611 9.389ZM12.722 9.389H19.389C19.6837 9.389 19.9662 9.27195 20.1746 9.0636C20.3829 8.85524 20.5 8.57266 20.5 8.278V1.611C20.5 1.31634 20.3829 1.03376 20.1746 0.825404C19.9662 0.617051 19.6837 0.5 19.389 0.5L12.722 0.5C12.4273 0.5 12.1448 0.617051 11.9364 0.825404C11.7281 1.03376 11.611 1.31634 11.611 1.611V8.278C11.611 8.57266 11.7281 8.85524 11.9364 9.0636C12.1448 9.27195 12.4273 9.389 12.722 9.389ZM1.611 20.5H8.278C8.57266 20.5 8.85524 20.3829 9.0636 20.1746C9.27195 19.9662 9.389 19.6837 9.389 19.389V12.722C9.389 12.4273 9.27195 12.1448 9.0636 11.9364C8.85524 11.7281 8.57266 11.611 8.278 11.611H1.611C1.31634 11.611 1.03376 11.7281 0.825404 11.9364C0.617051 12.1448 0.5 12.4273 0.5 12.722L0.5 19.389C0.5 19.6837 0.617051 19.9662 0.825404 20.1746C1.03376 20.3829 1.31634 20.5 1.611 20.5ZM16.055 20.5C16.9339 20.5 17.7931 20.2394 18.524 19.7511C19.2548 19.2627 19.8244 18.5687 20.1607 17.7566C20.4971 16.9446 20.5851 16.0511 20.4136 15.189C20.2421 14.327 19.8189 13.5351 19.1974 12.9136C18.5759 12.2921 17.784 11.8689 16.922 11.6974C16.0599 11.5259 15.1664 11.6139 14.3544 11.9503C13.5423 12.2866 12.8483 12.8562 12.3599 13.587C11.8716 14.3179 11.611 15.1771 11.611 16.056C11.6123 17.2344 12.0811 18.3641 12.9144 19.1973C13.7478 20.0304 14.8766 20.4989 16.055 20.5Z" fill="#FF0000"/>
</g>
<defs>
<clipPath id="clip0_86_529">
<rect width="20" height="20" fill="white" transform="translate(0.5 0.5)"/>
</clipPath>
</defs>
</svg>
