<svg xmlns="http://www.w3.org/2000/svg" width="20.028" height="20.028" viewBox="0 0 20.028 20.028">
  <g id="category" transform="translate(-1382.147 -219.147)">
    <path id="category-2" data-name="category" d="M8.21.679,8.563.325,8.21.679a.611.611,0,0,1,.179.432V7.778a.611.611,0,0,1-.611.611H1.111A.611.611,0,0,1,.679,8.21l-.354.354L.679,8.21A.611.611,0,0,1,.5,7.778V1.111A.611.611,0,0,1,1.111.5H7.778A.611.611,0,0,1,8.21.679Zm10.679,7.71H12.222a.611.611,0,0,1-.611-.611V1.111A.611.611,0,0,1,11.79.679L11.436.325l.354.354A.611.611,0,0,1,12.222.5h6.667a.611.611,0,0,1,.611.611V7.778a.611.611,0,0,1-.611.611ZM7.778,19.5H1.111A.611.611,0,0,1,.5,18.889V12.222a.611.611,0,0,1,.179-.432l-.354-.354.354.354a.611.611,0,0,1,.432-.179H7.778a.611.611,0,0,1,.611.611v6.667a.611.611,0,0,1-.611.611ZM19.5,15.556a3.944,3.944,0,1,1-3.944-3.944A3.949,3.949,0,0,1,19.5,15.556Z" transform="translate(1382.175 219.175)" fill="none" stroke="#6133bd" stroke-width="1"/>
  </g>
</svg>
