<svg xmlns="http://www.w3.org/2000/svg" width="20" height="20" viewBox="0 0 20 20">
  <g id="category01" transform="translate(-1413 -220)">
    <path id="category01-2" data-name="category01" d="M1.111,8.889H7.778A1.111,1.111,0,0,0,8.889,7.778V1.111A1.111,1.111,0,0,0,7.778,0H1.111A1.111,1.111,0,0,0,0,1.111V7.778A1.111,1.111,0,0,0,1.111,8.889Zm11.111,0h6.667A1.111,1.111,0,0,0,20,7.778V1.111A1.111,1.111,0,0,0,18.889,0H12.222a1.111,1.111,0,0,0-1.111,1.111V7.778a1.111,1.111,0,0,0,1.111,1.111ZM1.111,20H7.778a1.111,1.111,0,0,0,1.111-1.111V12.222a1.111,1.111,0,0,0-1.111-1.111H1.111A1.111,1.111,0,0,0,0,12.222v6.667A1.111,1.111,0,0,0,1.111,20Zm14.444,0a4.444,4.444,0,1,0-4.444-4.444A4.449,4.449,0,0,0,15.556,20Z" transform="translate(1413 220)" fill="#6133bd"/>
  </g>
</svg>
