<svg width="21" height="21" viewBox="0 0 21 21" fill="none" xmlns="http://www.w3.org/2000/svg">
<g clip-path="url(#clip0_86_526)">
<path d="M8.73656 1.20752L9.08956 0.853516M8.73656 1.20752C8.85115 1.32208 8.91554 1.47748 8.91556 1.63952V8.30652C8.91556 8.46856 8.85119 8.62397 8.7366 8.73856C8.62202 8.85314 8.46661 8.91752 8.30456 8.91752H1.63756C1.47552 8.91749 1.32013 8.85311 1.20556 8.73852M8.73656 1.20752C8.622 1.09293 8.4666 1.02854 8.30456 1.02852H1.63756C1.47552 1.02852 1.32011 1.09289 1.20552 1.20747C1.09094 1.32206 1.02656 1.47747 1.02656 1.63952V8.30652C1.02658 8.46855 1.09097 8.62395 1.20556 8.73852M1.20556 8.73852L0.851562 9.09252M12.3166 1.20752C12.202 1.32208 12.1376 1.47748 12.1376 1.63952V8.30652C12.1376 8.46856 12.2019 8.62397 12.3165 8.73856C12.4311 8.85314 12.5865 8.91752 12.7486 8.91752H19.4156C19.5776 8.91752 19.733 8.85314 19.8476 8.73856C19.9622 8.62397 20.0266 8.46856 20.0266 8.30652V1.63952C20.0266 1.47747 19.9622 1.32206 19.8476 1.20747C19.733 1.09289 19.5776 1.02852 19.4156 1.02852H12.7486C12.5865 1.02854 12.4311 1.09293 12.3166 1.20752ZM12.3166 1.20752L11.9626 0.853516M1.20556 12.3185C1.09097 12.4331 1.02658 12.5885 1.02656 12.7505V19.4175C1.02656 19.5796 1.09094 19.735 1.20552 19.8496C1.32011 19.9641 1.47552 20.0285 1.63756 20.0285H8.30456C8.46661 20.0285 8.62202 19.9641 8.7366 19.8496C8.85119 19.735 8.91556 19.5796 8.91556 19.4175V12.7505C8.91556 12.5885 8.85119 12.4331 8.7366 12.3185C8.62202 12.2039 8.46661 12.1395 8.30456 12.1395H1.63756C1.47552 12.1395 1.32013 12.2039 1.20556 12.3185ZM1.20556 12.3185L0.851562 11.9645M20.0266 16.0845C20.0266 16.8646 19.7952 17.6271 19.3619 18.2757C18.9285 18.9243 18.3125 19.4298 17.5919 19.7283C16.8712 20.0268 16.0782 20.1049 15.3131 19.9527C14.5481 19.8006 13.8453 19.4249 13.2937 18.8733C12.7422 18.3218 12.3665 17.619 12.2143 16.854C12.0622 16.0889 12.1403 15.2959 12.4388 14.5752C12.7373 13.8545 13.2428 13.2386 13.8914 12.8052C14.54 12.3718 15.3025 12.1405 16.0826 12.1405C17.1282 12.1418 18.1306 12.5578 18.8699 13.2971C19.6093 14.0365 20.0252 15.0389 20.0266 16.0845Z" stroke="#FF0000"/>
</g>
<defs>
<clipPath id="clip0_86_526">
<rect width="20.028" height="20.028" fill="white" transform="translate(0.5 0.5)"/>
</clipPath>
</defs>
</svg>
