<svg width="53" height="51" viewBox="0 0 53 51" fill="none" xmlns="http://www.w3.org/2000/svg">
<g clip-path="url(#clip0_86_532)">
<path d="M52.6395 11.4703C52.4711 12.0555 52.0915 12.5573 51.5742 12.8786C51.0569 13.1999 50.4387 13.3177 49.8395 13.2092C49.5175 13.1894 49.1945 13.1894 48.8725 13.2092C48.4222 13.2575 47.9677 13.1713 47.5663 12.9614C47.165 12.7516 46.8348 12.4276 46.6175 12.0302C46.4385 11.7222 45.5055 11.7063 45.2625 11.9933C45.1673 12.1125 45.0785 12.2366 44.9965 12.3653C44.3883 13.2596 43.5899 14.0083 42.6584 14.5577C41.7269 15.1071 40.6853 15.4437 39.6085 15.5432L38.5085 15.6893V21.9523C38.5085 22.7873 38.2554 23.0373 37.4084 23.0373H14.5085C13.7005 23.0373 13.4385 22.7732 13.4375 21.9742V9.65426C13.4375 8.85426 13.6915 8.59726 14.5065 8.59626C16.7295 8.59626 18.9515 8.58725 21.1745 8.60225C21.332 8.61175 21.4895 8.58443 21.6346 8.52247C21.7798 8.4605 21.9084 8.36559 22.0105 8.24526C23.2845 6.85826 24.5895 5.50026 25.8595 4.10926C26.5001 3.3817 27.2934 2.80444 28.1827 2.41863C29.072 2.03282 30.0355 1.84796 31.0045 1.87725C36.0045 1.90025 41.0145 1.87725 46.0195 1.89025C46.1659 1.91132 46.3154 1.88706 46.4476 1.82074C46.5799 1.75443 46.6887 1.64923 46.7595 1.51926C46.9331 1.22459 47.1806 0.980299 47.4775 0.810536C47.7744 0.640773 48.1104 0.551408 48.4525 0.551259C48.9435 0.534259 49.4385 0.571261 49.9275 0.534261C50.5211 0.43276 51.1311 0.558675 51.6359 0.886907C52.1408 1.21514 52.5034 1.72157 52.6515 2.30526L52.6395 11.4703ZM46.3174 3.53325C46.1884 3.52425 46.1055 3.51426 46.0225 3.51426H30.6485C30.0006 3.51147 29.3596 3.64664 28.768 3.91079C28.1764 4.17494 27.6479 4.56201 27.2175 5.04625C26.2068 6.12225 25.1984 7.20059 24.1924 8.28125C24.1149 8.38105 24.0448 8.48633 23.9825 8.59626H31.4315C31.9395 8.59626 32.5314 8.43826 32.8174 9.06626C33.1034 9.69426 32.6175 10.0903 32.2755 10.4883C31.4575 11.4413 30.5985 12.3572 29.7755 13.3082C29.4982 13.6287 29.263 13.9832 29.0755 14.3633C28.8365 14.8543 29.0255 15.1293 29.5605 15.2103C30.0331 15.2836 30.5167 15.2335 30.9642 15.0647C31.4117 14.896 31.808 14.6144 32.1145 14.2473C33.6775 12.5723 35.2434 10.9012 36.7704 9.19425C36.9361 8.96122 37.1703 8.78562 37.4404 8.69188C37.7105 8.59815 38.0031 8.59093 38.2775 8.67125C38.8706 8.81336 39.4797 8.87756 40.0895 8.86225C41.1158 8.76737 42.063 8.27061 42.7245 7.48026C42.7947 7.39408 42.8822 7.32369 42.9815 7.27372C43.0808 7.22374 43.1895 7.1953 43.3005 7.19025C43.4115 7.18525 43.5224 7.20379 43.6258 7.24463C43.7292 7.28548 43.8228 7.3477 43.9005 7.42725C43.9826 7.50259 44.0479 7.59448 44.092 7.69686C44.1362 7.79924 44.1581 7.90979 44.1565 8.02126C44.1549 8.13266 44.1297 8.24247 44.0826 8.34346C44.0356 8.44446 43.9677 8.53436 43.8835 8.60726C42.9708 9.68028 41.675 10.3542 40.2725 10.4852C39.7025 10.5222 39.1295 10.4913 38.5385 10.4913V13.9913C39.5067 14.0242 40.4685 13.8219 41.3414 13.4016C42.2143 12.9813 42.9724 12.3557 43.5505 11.5783C43.7403 11.3387 43.9124 11.0857 44.0655 10.8212C44.1728 10.5978 44.3489 10.4146 44.5679 10.2986C44.7869 10.1825 45.0373 10.1396 45.2825 10.1763C45.6155 10.2003 45.9515 10.1763 46.3155 10.1763L46.3174 3.53325ZM36.8405 11.5943C36.6325 11.8333 36.5095 11.9873 36.3735 12.1283C35.1985 13.3503 34.0435 14.5932 32.8335 15.7802C32.48 16.1385 32.0552 16.4187 31.5867 16.6027C31.1182 16.7866 30.6163 16.8703 30.1135 16.8483C29.9373 16.8164 29.7557 16.8513 29.6039 16.9462C29.4521 17.041 29.3411 17.189 29.2925 17.3613C28.9352 18.1488 28.31 18.784 27.5283 19.1539C26.7466 19.5238 25.859 19.6044 25.0235 19.3813C24.1795 19.1562 23.4424 18.6398 22.9426 17.9234C22.4427 17.2071 22.2125 16.3371 22.2925 15.4673C22.3712 14.634 22.7308 13.8523 23.3123 13.2504C23.8937 12.6484 24.6625 12.2619 25.4925 12.1543C26.3992 12.0481 27.3143 12.2644 28.0775 12.7652L30.2545 10.2873C30.1956 10.2605 30.1339 10.2407 30.0705 10.2283C26.5255 10.2283 22.9805 10.2202 19.4355 10.2352C19.3554 10.2503 19.2802 10.2846 19.2164 10.3353C19.1526 10.3861 19.1021 10.4516 19.0695 10.5262C18.8592 11.4332 18.3979 12.2627 17.7383 12.9197C17.0786 13.5767 16.2473 14.0347 15.3395 14.2413C15.2275 14.2713 15.0665 14.4203 15.0645 14.5163C15.0435 15.4443 15.0515 16.3733 15.0515 17.2833C17.4575 18.0293 17.9395 18.5113 19.1825 21.3743H32.5485C32.7434 20.3271 33.262 19.3675 34.0314 18.6308C34.8007 17.8942 35.7819 17.4176 36.8365 17.2683L36.8405 11.5943ZM47.9775 6.88825V10.8033C47.9775 11.2253 48.1055 11.5553 48.5895 11.5683C49.1995 11.5853 49.8095 11.5833 50.4195 11.5683C50.5012 11.573 50.5829 11.5598 50.6589 11.5295C50.7349 11.4993 50.8034 11.4528 50.8595 11.3933C50.9157 11.3337 50.9582 11.2626 50.9839 11.1848C51.0097 11.1071 51.0181 11.0246 51.0085 10.9433C51.0125 8.23126 51.0125 5.51926 51.0085 2.80726C51.0189 2.72192 51.0099 2.63534 50.9822 2.55396C50.9545 2.47258 50.9088 2.3985 50.8484 2.33725C50.7882 2.2761 50.7149 2.22931 50.634 2.2004C50.5532 2.17148 50.4669 2.16118 50.3815 2.17025C49.9235 2.16325 49.4665 2.17025 49.0085 2.17025C48.0825 2.17025 47.9775 2.27025 47.9775 3.17925C47.9775 4.41525 47.9775 5.65192 47.9775 6.88926V6.88825ZM23.9105 15.5883C23.8681 16.1042 24.0154 16.6179 24.3246 17.033C24.6339 17.4481 25.084 17.7362 25.5905 17.8433C26.0425 17.9281 26.5101 17.8569 26.9163 17.6412C27.3226 17.4256 27.6435 17.0783 27.8265 16.6563C27.8781 16.4774 27.8746 16.2871 27.8165 16.1102C27.6865 15.6102 27.5385 15.1213 27.3715 14.6363C27.3222 14.4229 27.2101 14.2292 27.0495 14.0803C26.7479 13.8721 26.3927 13.755 26.0264 13.743C25.6601 13.7309 25.2981 13.8244 24.9835 14.0123C24.6816 14.1571 24.4234 14.3792 24.235 14.6559C24.0466 14.9327 23.9346 15.2543 23.9105 15.5883ZM34.3185 21.3772H36.8335V18.9943C36.2216 19.0863 35.6525 19.3635 35.2029 19.7886C34.7532 20.2138 34.4446 20.7664 34.3185 21.3723V21.3772ZM15.0735 21.3603H17.4225C17.2917 20.7925 17.001 20.274 16.5847 19.8664C16.1683 19.4588 15.6439 19.179 15.0735 19.0603V21.3603ZM15.0565 10.2603V12.2813C15.0565 12.3813 15.0735 12.4813 15.0825 12.5743C15.6511 12.4557 16.1726 12.1734 16.5828 11.762C16.9929 11.3507 17.2737 10.8283 17.3905 10.2593L15.0565 10.2603Z" fill="black"/>
<path d="M28.5795 34.5385C29.3275 33.8385 29.9575 33.1955 30.6395 32.6155C31.4734 31.8319 32.519 31.3103 33.6466 31.1155C34.2952 31 34.9638 31.097 35.5528 31.3921C36.1418 31.6873 36.6198 32.1648 36.9155 32.7535C37.2479 33.3599 37.3828 34.0549 37.3014 34.7417C37.22 35.4284 36.9264 36.0726 36.4615 36.5845C33.6015 39.6512 30.7382 42.7128 27.8715 45.7695C27.4775 46.1905 27.0775 46.6075 26.6915 47.0365C26.0749 47.7411 25.3096 48.3002 24.4509 48.6735C23.5922 49.0469 22.6614 49.2251 21.7255 49.1955C18.3995 49.1775 15.0735 49.1955 11.7475 49.1955H6.91053C6.78716 49.1802 6.66205 49.2027 6.55183 49.2603C6.44161 49.3178 6.35149 49.4075 6.29353 49.5175C6.1136 49.8281 5.85364 50.0847 5.54072 50.2606C5.22781 50.4365 4.87342 50.5252 4.51454 50.5175C3.86954 50.5275 3.22452 50.5395 2.58052 50.5175C2.02988 50.507 1.50524 50.2814 1.11891 49.8889C0.732572 49.4964 0.51523 48.9683 0.5135 48.4175C0.4955 45.7189 0.4955 43.0189 0.5135 40.3175C0.51531 39.7576 0.73752 39.2209 1.13203 38.8236C1.52654 38.4263 2.06165 38.2003 2.62153 38.1945C3.24753 38.1595 3.87753 38.1675 4.50453 38.1945C4.87145 38.2019 5.23081 38.3003 5.55037 38.4807C5.86992 38.6612 6.13969 38.9181 6.33552 39.2285C6.47028 39.3783 6.65319 39.4763 6.85255 39.5055C7.16395 39.5926 7.49558 39.5723 7.79402 39.4479C8.09246 39.3234 8.34026 39.102 8.49751 38.8195C8.64596 38.6073 8.73852 38.361 8.76655 38.1035C8.78555 35.4555 8.77356 32.8035 8.78456 30.1595C8.80065 30.0282 8.77595 29.8951 8.71388 29.7783C8.65181 29.6615 8.55533 29.5666 8.43751 29.5065C8.22631 29.3756 8.0538 29.1908 7.93763 28.9711C7.82147 28.7514 7.76583 28.5048 7.7765 28.2565C7.7615 27.5565 7.7495 26.8635 7.7765 26.1695C7.77379 25.9598 7.81443 25.7519 7.89582 25.5586C7.97722 25.3654 8.09762 25.1911 8.24952 25.0465C8.40127 24.9021 8.58118 24.7905 8.77803 24.7187C8.97487 24.647 9.18439 24.6166 9.39351 24.6295C15.5875 24.6235 21.7815 24.6235 27.9755 24.6295C28.1848 24.6177 28.3943 24.6495 28.5907 24.7228C28.7871 24.7961 28.9662 24.9094 29.1165 25.0555C29.2669 25.2018 29.3852 25.3776 29.464 25.5719C29.5428 25.7663 29.5805 25.9749 29.5745 26.1845C29.5995 26.8625 29.5855 27.5425 29.5745 28.2215C29.5795 28.4948 29.5133 28.7646 29.3823 29.0045C29.2513 29.2443 29.0601 29.446 28.8275 29.5895C28.7667 29.6261 28.7138 29.6747 28.6723 29.7323C28.6307 29.7898 28.6012 29.8552 28.5855 29.9245C28.5705 31.4205 28.5795 32.9265 28.5795 34.5385ZM6.6645 47.5235C6.8345 47.5365 6.98253 47.5565 7.12953 47.5575C11.9975 47.5575 16.8665 47.5495 21.7355 47.5645C22.4487 47.5809 23.1568 47.4411 23.8103 47.1551C24.4637 46.869 25.0467 46.4436 25.5185 45.9085C28.7265 42.4515 31.9596 39.0175 35.1806 35.5725C35.4739 35.2853 35.6545 34.9025 35.6895 34.4935C35.7246 34.0844 35.6117 33.6764 35.3715 33.3435C35.1651 33.037 34.8539 32.8163 34.4963 32.7229C34.1388 32.6296 33.7594 32.67 33.4295 32.8365C33.0293 32.9743 32.6506 33.1679 32.3045 33.4115C31.7574 33.8115 31.2401 34.2506 30.7565 34.7255C29.1415 36.3255 27.5485 37.9475 25.9505 39.5645C25.1581 40.517 24.0337 41.1332 22.8045 41.2885C20.2045 41.4175 17.5866 41.3975 14.9776 41.4375C14.9607 41.4368 14.9439 41.4345 14.9275 41.4305C14.7479 41.4099 14.5819 41.325 14.4599 41.1916C14.3378 41.0582 14.2681 40.8852 14.2635 40.7045C14.2365 40.5163 14.2833 40.3249 14.3939 40.1703C14.5046 40.0156 14.6707 39.9097 14.8576 39.8745C15.0546 39.8324 15.2561 39.815 15.4575 39.8225C17.2895 39.8225 19.1215 39.8305 20.9575 39.8115C21.3096 39.8123 21.6497 39.6838 21.9133 39.4505C22.1769 39.2171 22.3456 38.8951 22.3875 38.5455C22.4264 38.1957 22.336 37.8437 22.1334 37.5558C21.9308 37.2679 21.63 37.0641 21.2875 36.9825C21.0377 36.9424 20.7845 36.9263 20.5315 36.9345C18.9435 36.8465 17.3485 36.8295 15.7705 36.6485C15.0509 36.5184 14.3107 36.5601 13.6102 36.7702C12.9098 36.9803 12.2688 37.3529 11.7395 37.8575C10.7935 38.7815 9.87852 39.7385 8.96852 40.6975C8.8439 40.8465 8.68607 40.9642 8.5077 41.0412C8.32934 41.1181 8.13544 41.1521 7.94154 41.1405C7.52454 41.1185 7.10451 41.1405 6.66151 41.1405L6.6645 47.5235ZM23.9585 39.1325C24.1945 38.9325 24.3585 38.8225 24.5005 38.6825C25.2245 37.9665 25.9565 37.2575 26.6535 36.5155C26.8255 36.3193 26.9254 36.0702 26.9365 35.8095C26.9595 33.9765 26.9495 32.1435 26.9495 30.3095V29.8215H21.3135V35.2695C21.7457 35.3392 22.1591 35.496 22.5288 35.7305C22.8984 35.965 23.2164 36.2722 23.4635 36.6335C23.7109 36.995 23.8821 37.4031 23.9667 37.8329C24.0513 38.2627 24.0475 38.7052 23.9555 39.1335L23.9585 39.1325ZM16.0455 29.8325H10.4335V36.8325C11.1459 36.0914 12.0334 35.5418 13.0142 35.2342C13.9951 34.9266 15.0376 34.871 16.0455 35.0725V29.8325ZM5.00654 44.3715C5.00654 43.0825 5.00054 41.7945 5.00654 40.5055C5.00654 40.0375 4.7935 39.8115 4.3365 39.8055C3.8115 39.8055 3.28551 39.7955 2.76051 39.8055C2.67496 39.7964 2.58849 39.8066 2.50746 39.8356C2.42643 39.8645 2.35298 39.9113 2.29255 39.9725C2.23225 40.0336 2.18645 40.1075 2.15858 40.1887C2.13071 40.2699 2.12147 40.3563 2.13154 40.4415V48.2745C2.12149 48.3551 2.12986 48.437 2.15602 48.5139C2.18217 48.5908 2.22543 48.6608 2.28254 48.7185C2.33974 48.7764 2.40935 48.8205 2.4861 48.8475C2.56284 48.8745 2.6447 48.8838 2.72554 48.8745C3.23454 48.8795 3.74254 48.8815 4.25154 48.8745C4.87254 48.8685 4.99854 48.7445 5.00154 48.1245C5.00754 46.8805 5.00154 45.6245 5.00154 44.3685L5.00654 44.3715ZM17.7335 26.2715V35.3055H19.6165V26.2715H17.7335ZM9.42054 28.1385H16.0445V26.2805H9.42054V28.1385ZM27.9115 28.1445V26.2805H21.3186V28.1415L27.9115 28.1445Z" fill="black"/>
</g>
<defs>
<clipPath id="clip0_86_532">
<rect width="52.151" height="50.031" fill="white" transform="translate(0.5 0.5)"/>
</clipPath>
</defs>
</svg>
