<svg width="59" height="29" viewBox="0 0 59 29" fill="none" xmlns="http://www.w3.org/2000/svg">
<g clip-path="url(#clip0_86_536)">
<path d="M55.5 0.5H3.5C1.84315 0.5 0.5 1.84315 0.5 3.5V25.5C0.5 27.1569 1.84315 28.5 3.5 28.5H55.5C57.1569 28.5 58.5 27.1569 58.5 25.5V3.5C58.5 1.84315 57.1569 0.5 55.5 0.5Z" fill="white"/>
<path d="M33.6735 14.5547C34.3625 17.4147 32.7735 20.7417 31.6445 22.6307C33.4025 22.1321 34.9499 21.0739 36.0522 19.6165C37.1544 18.1591 37.7514 16.382 37.7525 14.5547H33.6735Z" fill="#0170C2"/>
<path d="M24.2398 21.2337C24.0572 19.7489 24.4224 18.2485 25.2668 17.0137C25.7532 16.2815 26.0346 15.4324 26.0818 14.5547H20.9258C20.9249 15.8483 21.2236 17.1245 21.7986 18.2833C22.3736 19.442 23.2091 20.4519 24.2398 21.2337Z" fill="#0170C2"/>
<path d="M36.5458 6.04706H22.1258C22.1258 6.36532 21.9993 6.67056 21.7743 6.8956C21.5492 7.12064 21.244 7.24707 20.9258 7.24707V12.0471C21.244 12.0471 21.5492 12.1735 21.7743 12.3985C21.9993 12.6236 22.1258 12.9288 22.1258 13.2471H26.1338C26.1238 12.2551 26.0128 11.3071 25.9638 10.6271C25.9464 10.303 26.0356 9.98217 26.2178 9.71362C26.4 9.44508 26.6652 9.24363 26.9728 9.14008C27.0429 8.5537 27.3184 8.01108 27.7504 7.6084C28.1823 7.20571 28.7429 6.96895 29.3328 6.94006C29.9982 7.01261 30.6134 7.32833 31.0603 7.82663C31.5072 8.32493 31.7544 8.97072 31.7544 9.64008C31.7544 10.3094 31.5072 10.9552 31.0603 11.4535C30.6134 11.9518 29.9982 12.2675 29.3328 12.3401C29.2168 12.3392 29.1011 12.3291 28.9868 12.3101C28.9821 12.6434 28.9851 12.9531 28.9958 13.2391H36.5408C36.5408 12.9208 36.6672 12.6156 36.8922 12.3905C37.1173 12.1655 37.4225 12.0391 37.7408 12.0391V7.23907C37.4225 7.23907 37.1173 7.11265 36.8922 6.8876C36.6672 6.66256 36.5408 6.35732 36.5408 6.03906L36.5458 6.04706ZM23.9288 10.6921C23.7214 10.6917 23.5188 10.6298 23.3465 10.5143C23.1743 10.3988 23.0401 10.2348 22.961 10.0431C22.8819 9.85141 22.8615 9.64055 22.9022 9.43719C22.9429 9.23384 23.0429 9.04711 23.1897 8.9006C23.3365 8.7541 23.5234 8.65439 23.7268 8.61407C23.9303 8.57376 24.1411 8.59465 24.3327 8.6741C24.5242 8.75356 24.6879 8.88802 24.8031 9.06049C24.9183 9.23295 24.9798 9.43568 24.9798 9.64307C24.9798 9.78099 24.9526 9.91755 24.8997 10.045C24.8469 10.1724 24.7694 10.2881 24.6718 10.3855C24.5742 10.483 24.4583 10.5602 24.3308 10.6128C24.2033 10.6654 24.0667 10.6923 23.9288 10.6921ZM34.7438 10.6921C34.5364 10.6917 34.3338 10.6298 34.1615 10.5143C33.9893 10.3988 33.8551 10.2348 33.776 10.0431C33.6969 9.85141 33.6765 9.64055 33.7172 9.43719C33.7579 9.23384 33.8579 9.04711 34.0047 8.9006C34.1515 8.7541 34.3384 8.65439 34.5418 8.61407C34.7453 8.57376 34.9561 8.59465 35.1477 8.6741C35.3392 8.75356 35.5029 8.88802 35.6181 9.06049C35.7333 9.23295 35.7948 9.43568 35.7948 9.64307C35.7948 9.78099 35.7676 9.91755 35.7147 10.045C35.6619 10.1724 35.5844 10.2881 35.4868 10.3855C35.3892 10.483 35.2733 10.5602 35.1458 10.6128C35.0183 10.6654 34.8817 10.6923 34.7438 10.6921Z" fill="#86CCFF"/>
<path d="M34.7437 10.9443C34.9951 10.9443 35.2408 10.8698 35.4498 10.7301C35.6588 10.5905 35.8217 10.392 35.9179 10.1597C36.0141 9.92746 36.0393 9.67191 35.9902 9.42536C35.9412 9.17881 35.8201 8.95236 35.6424 8.77461C35.4646 8.59685 35.2382 8.47581 34.9916 8.42677C34.7451 8.37772 34.4895 8.40289 34.2573 8.49909C34.025 8.59529 33.8265 8.75819 33.6869 8.9672C33.5472 9.17622 33.4727 9.42194 33.4727 9.67332C33.4727 10.0104 33.6066 10.3337 33.8449 10.5721C34.0833 10.8104 34.4066 10.9443 34.7437 10.9443ZM34.7437 8.84434C34.9067 8.84434 35.0659 8.89265 35.2014 8.98319C35.337 9.07374 35.4426 9.20244 35.5049 9.35301C35.5673 9.50357 35.5836 9.66924 35.5518 9.82908C35.5201 9.98892 35.4416 10.1357 35.3263 10.251C35.2111 10.3662 35.0643 10.4447 34.9044 10.4765C34.7446 10.5083 34.5789 10.492 34.4283 10.4296C34.2778 10.3672 34.1491 10.2616 34.0585 10.1261C33.968 9.9906 33.9197 9.83132 33.9197 9.66834C33.9197 9.56013 33.941 9.45298 33.9824 9.35301C34.0238 9.25303 34.0845 9.16219 34.161 9.08567C34.2375 9.00916 34.3284 8.94846 34.4283 8.90705C34.5283 8.86564 34.6355 8.84434 34.7437 8.84434Z" fill="#1F1D21"/>
<path d="M23.9272 10.9443C24.1786 10.9443 24.4244 10.8698 24.6334 10.7301C24.8424 10.5905 25.0053 10.392 25.1015 10.1597C25.1977 9.92746 25.2229 9.67191 25.1738 9.42536C25.1248 9.17881 25.0037 8.95236 24.826 8.77461C24.6482 8.59685 24.4218 8.47581 24.1752 8.42677C23.9287 8.37772 23.6731 8.40289 23.4409 8.49909C23.2086 8.59529 23.0101 8.75819 22.8705 8.9672C22.7308 9.17622 22.6562 9.42194 22.6562 9.67332C22.6562 10.0104 22.7902 10.3337 23.0285 10.5721C23.2669 10.8104 23.5902 10.9443 23.9272 10.9443ZM23.9272 8.84434C24.0902 8.84434 24.2495 8.89265 24.385 8.98319C24.5205 9.07374 24.6262 9.20244 24.6885 9.35301C24.7509 9.50357 24.7672 9.66924 24.7354 9.82908C24.7036 9.98892 24.6252 10.1357 24.5099 10.251C24.3947 10.3662 24.2479 10.4447 24.088 10.4765C23.9282 10.5083 23.7625 10.492 23.6119 10.4296C23.4614 10.3672 23.3327 10.2616 23.2421 10.1261C23.1516 9.9906 23.1033 9.83132 23.1033 9.66834C23.1033 9.56013 23.1246 9.45298 23.166 9.35301C23.2074 9.25303 23.2681 9.16219 23.3446 9.08567C23.4211 9.00916 23.512 8.94846 23.6119 8.90705C23.7119 8.86564 23.819 8.84434 23.9272 8.84434Z" fill="#1F1D21"/>
<path d="M38.946 4.625H19.725C19.6654 4.62526 19.6083 4.64905 19.5662 4.69119C19.5241 4.73333 19.5003 4.79041 19.5 4.85001V14.497C19.5 14.5569 19.5236 14.6143 19.5658 14.6568C19.6079 14.6993 19.6651 14.7235 19.725 14.724H25.836C25.7712 15.4799 25.5148 16.2068 25.091 16.836C22.879 19.836 24.645 24.056 24.721 24.236C24.7383 24.2768 24.7673 24.3115 24.8043 24.3359C24.8413 24.3603 24.8847 24.3732 24.929 24.373C24.9592 24.3731 24.9892 24.367 25.017 24.355C25.0713 24.3313 25.1141 24.2871 25.1361 24.2321C25.1582 24.1772 25.1578 24.1157 25.135 24.061C25.117 24.019 23.397 19.901 25.453 17.106C26.037 16.2145 26.3474 15.1717 26.346 14.106C26.3795 13.1578 26.3461 12.2085 26.246 11.265C26.226 11.042 26.209 10.834 26.195 10.646C26.1824 10.4455 26.2198 10.245 26.3037 10.0624C26.3877 9.87986 26.5156 9.72099 26.676 9.60001C26.8502 9.46113 27.0558 9.36723 27.2749 9.3266C27.4939 9.28597 27.7196 9.29984 27.932 9.367C28.2229 9.47443 28.4699 9.67541 28.6342 9.93839C28.7986 10.2014 28.8709 10.5115 28.84 10.82C28.7474 11.9179 28.7424 13.0213 28.825 14.12C28.872 15.0819 29.1067 16.0253 29.516 16.897C29.5293 16.9245 29.5481 16.949 29.5711 16.9691C29.5942 16.9892 29.621 17.0044 29.6501 17.0138C29.6792 17.0232 29.7099 17.0267 29.7403 17.024C29.7708 17.0213 29.8004 17.0125 29.8273 16.998C29.8542 16.9836 29.878 16.9639 29.8972 16.9401C29.9163 16.9163 29.9304 16.8888 29.9387 16.8594C29.947 16.83 29.9492 16.7992 29.9453 16.7689C29.9414 16.7386 29.9315 16.7094 29.916 16.683C29.619 16.0707 29.4286 15.4123 29.353 14.736H33.48C34.328 18.85 30.489 23.967 30.448 24.019C30.4116 24.0669 30.3956 24.1273 30.4037 24.1869C30.4117 24.2465 30.4431 24.3005 30.491 24.337C30.5144 24.3551 30.5412 24.3683 30.5698 24.376C30.5984 24.3836 30.6282 24.3855 30.6575 24.3815C30.6868 24.3775 30.715 24.3677 30.7405 24.3527C30.766 24.3376 30.7883 24.3177 30.806 24.294C30.972 24.078 34.758 19.031 33.941 14.737H38.953C38.9827 14.7369 39.012 14.7309 39.0394 14.7194C39.0668 14.7079 39.0916 14.6912 39.1125 14.6701C39.1334 14.649 39.1499 14.624 39.1612 14.5966C39.1724 14.5691 39.1781 14.5397 39.178 14.51V4.862C39.1782 4.8322 39.1726 4.80265 39.1613 4.77505C39.1501 4.74746 39.1335 4.72238 39.1125 4.70126C39.0914 4.68014 39.0664 4.66341 39.0389 4.65204C39.0113 4.64067 38.9818 4.63488 38.952 4.63501L38.946 4.625ZM28.064 8.935C27.8109 8.85466 27.543 8.8321 27.28 8.86899C27.3966 8.40517 27.6598 7.99137 28.0304 7.68906C28.401 7.38675 28.8592 7.21209 29.337 7.19101C29.9384 7.27299 30.4897 7.57012 30.8889 8.02737C31.288 8.48463 31.508 9.07104 31.508 9.67801C31.508 10.285 31.288 10.8714 30.8889 11.3286C30.4897 11.7859 29.9384 12.083 29.337 12.165C29.2992 12.166 29.2614 12.164 29.224 12.159C29.234 11.74 29.252 11.307 29.287 10.85C29.3249 10.4403 29.2255 10.0296 29.0045 9.68262C28.7834 9.33559 28.4533 9.07189 28.066 8.93301L28.064 8.935ZM38.72 14.276H29.29C29.283 14.207 29.274 14.145 29.268 14.076C29.229 13.624 29.21 13.136 29.211 12.615C29.252 12.615 29.292 12.622 29.333 12.622C30.0555 12.5408 30.7228 12.1963 31.2073 11.6542C31.6919 11.1121 31.9597 10.4106 31.9597 9.6835C31.9597 8.95644 31.6919 8.25486 31.2073 7.7128C30.7228 7.17074 30.0555 6.8262 29.333 6.745C28.7109 6.77192 28.1171 7.0125 27.6517 7.42618C27.1863 7.83986 26.8777 8.40134 26.778 9.01599C26.6381 9.077 26.5064 9.15528 26.386 9.24899C26.1688 9.41708 25.996 9.63568 25.8825 9.88577C25.7691 10.1359 25.7184 10.4099 25.735 10.684C25.749 10.873 25.766 11.084 25.787 11.31C25.8858 12.2325 25.9192 13.1608 25.887 14.088C25.887 14.155 25.877 14.217 25.872 14.288H19.94V5.08801H38.715L38.72 14.276Z" fill="#1F1D21"/>
</g>
<defs>
<clipPath id="clip0_86_536">
<rect width="58" height="28" fill="white" transform="translate(0.5 0.5)"/>
</clipPath>
</defs>
</svg>
