<svg width="95" height="100" viewBox="0 0 95 100" fill="none" xmlns="http://www.w3.org/2000/svg">
<g clip-path="url(#clip0_86_553)">
<path d="M94.5 52.5L47.5 5.5L0.500026 52.5L47.5 99.4999L94.5 52.5Z" fill="#303E40"/>
<path d="M40.4897 8.554C41.2458 9.07828 41.8911 9.74646 42.3887 10.5203C42.8863 11.2942 43.2264 12.1586 43.3897 13.064C43.5883 14.6732 43.534 16.3036 43.2287 17.896C43.3287 17.766 43.4397 17.635 43.5477 17.496C46.3957 14.022 50.5547 10.665 55.1417 10.035C55.9713 9.91586 56.8165 9.96835 57.625 10.1892C58.4335 10.4101 59.1879 10.7946 59.8417 11.319C61.313 12.5437 62.2633 14.2823 62.4997 16.182C62.2197 20.323 58.6617 24.339 55.7997 27.074C60.5227 26.344 63.4787 23.643 66.2697 19.987C67.3571 18.5648 68.5412 17.2193 69.8137 15.96C69.9567 15.81 70.0987 15.66 70.2467 15.507C70.6187 15.154 70.6187 15.154 70.9407 15.154L71.1017 14.671C71.5017 14.416 71.8827 14.193 72.3017 13.977C72.4227 13.913 72.5447 13.85 72.6707 13.784C73.5299 13.3489 74.4192 12.9759 75.3317 12.668L75.6647 12.554C77.4201 12.0476 79.245 11.8242 81.0707 11.892C81.4007 11.892 81.7307 11.892 82.0617 11.892C83.687 11.8525 85.3103 12.0297 86.8887 12.419V12.9C86.1554 13.2333 85.4204 13.569 84.6837 13.907L84.3457 14.062C82.7331 14.7953 81.1077 15.4923 79.4697 16.153C75.1232 17.9393 71.0146 20.2569 67.2377 23.053L66.4457 23.63C64.8637 24.782 64.8637 24.782 63.3457 26.014C60.2157 28.543 55.5307 29.364 51.6177 29.496V29.174C51.823 28.9978 52.038 28.8332 52.2617 28.681C55.1705 26.2787 57.1152 22.9077 57.7387 19.187C57.9532 18.0894 57.7826 16.9514 57.2557 15.965C55.9291 15.0838 54.31 14.7578 52.7457 15.057C49.9287 15.577 47.7587 17.323 45.7197 19.227C40.7437 23.858 40.7437 23.858 39.0547 23.858C39.2821 22.7814 39.5828 21.7216 39.9547 20.686C40.6147 18.786 41.0967 16.935 40.2287 15.014C39.8236 14.4215 39.2163 13.997 38.5207 13.82C37.9252 13.6909 37.3093 13.6864 36.712 13.8069C36.1146 13.9274 35.5487 14.1702 35.0497 14.52C34.2389 15.3005 33.7552 16.3601 33.6967 17.484C33.6489 18.3217 33.7696 19.1604 34.0518 19.9506C34.3341 20.7407 34.772 21.4662 35.3397 22.084C36.2217 22.9375 37.2392 23.6387 38.3507 24.159L38.8407 24.409C42.0507 26.029 45.2987 27.476 48.9327 27.651C49.0667 27.659 49.1997 27.665 49.3327 27.672C49.6617 27.69 49.9887 27.706 50.3167 27.722V28.044C49.7267 28.203 49.1357 28.36 48.5447 28.518L48.0447 28.653C42.4377 30.135 36.9817 28.684 31.6337 26.917C31.5337 26.883 31.4337 26.849 31.3247 26.817C30.1101 26.417 28.8961 26.0107 27.6827 25.598C26.3096 25.1063 24.8106 25.0925 23.4287 25.559C22.5786 25.9577 21.8527 26.5799 21.3287 27.359C21.1342 27.8045 20.7763 28.1584 20.3287 28.348C19.8677 28.441 19.4137 28.501 18.9467 28.548L18.4137 28.619C17.8947 28.685 17.3777 28.748 16.8597 28.807C16.1537 28.891 15.4507 28.979 14.7447 29.068C13.1261 29.268 11.5067 29.464 9.88672 29.656C10.0477 29.173 10.0477 29.173 10.4867 28.93C10.6747 28.845 10.8637 28.758 11.0587 28.671C12.7327 27.8017 14.3084 26.755 15.7587 25.549C17.3913 24.1929 19.2123 23.0812 21.1647 22.249L21.5417 22.099C24.9997 20.891 28.7867 21.983 31.9597 23.499C33.4527 24.237 34.8797 25.092 36.3057 25.952C35.9287 25.572 35.5507 25.193 35.1557 24.831C32.8315 22.6535 31.4418 19.6598 31.2787 16.479C31.0728 13.9433 31.853 11.4259 33.4567 9.451C34.3349 8.496 35.5224 7.88218 36.8094 7.71803C38.0964 7.55389 39.4 7.84999 40.4897 8.554Z" fill="#FF0000"/>
<path d="M46.4553 38.6758C46.6739 38.7123 46.8892 38.7661 47.0993 38.8368C47.2412 39.0882 47.3495 39.3572 47.4213 39.6368L47.5843 40.1268L47.7433 40.6128C47.8433 40.8688 47.9433 41.1238 48.0433 41.3778C48.1223 41.5778 48.1223 41.5778 48.2043 41.7778L48.3843 42.2228C48.5323 42.5918 48.6793 42.9608 48.8273 43.3308C48.9113 43.5368 48.9933 43.7448 49.0773 43.9528C49.274 44.4441 49.47 44.9348 49.6653 45.4248C49.7203 45.5598 49.7753 45.6958 49.8293 45.8358C49.9406 46.1111 50.0506 46.3864 50.1593 46.6618C50.4153 47.3044 50.674 47.9454 50.9353 48.5848C50.9803 48.6958 51.0273 48.8068 51.0743 48.9218C51.1953 49.2218 51.3173 49.5158 51.4403 49.8138C51.577 50.1093 51.6343 50.4354 51.6063 50.7598L53.0063 49.7528C53.1363 49.6528 53.2693 49.5648 53.4063 49.4658C53.9423 49.0788 54.4723 48.6938 54.9853 48.2758C55.3143 48.0208 55.3143 48.0208 55.6363 48.0208V47.6958C56.3423 47.2128 56.3423 47.2128 56.7643 47.2128V46.8908L57.2783 46.6088C57.6531 46.3971 58.0097 46.1546 58.3443 45.8838C58.6973 45.6018 58.6973 45.6018 59.0193 45.6018V45.2758H59.5023C59.3803 46.2518 59.1803 47.2038 58.9693 48.1658C58.9323 48.3298 58.8973 48.4948 58.8593 48.6658C58.5183 50.2158 58.1333 51.7508 57.7363 53.2888C57.3743 54.7098 57.0503 56.1348 56.7523 57.5718C56.4783 58.8608 56.1383 60.1058 55.7973 61.3858H37.7573C37.5366 60.8723 37.3745 60.3356 37.2743 59.7858C37.2055 59.3648 37.1025 58.95 36.9663 58.5458C36.7395 57.7916 36.5529 57.0258 36.4073 56.2518C36.1233 54.9168 35.8163 53.5928 35.4763 52.2698C35.3283 51.6698 35.2043 51.0638 35.0973 50.4508C35.0624 50.2109 34.9856 49.979 34.8703 49.7658C34.64 49.0914 34.4677 48.3985 34.3553 47.6948C34.3103 47.4808 34.3103 47.4808 34.2653 47.2598C34.2383 47.1208 34.2103 46.9828 34.1813 46.8398C34.1573 46.7138 34.1313 46.5888 34.1073 46.4578C34.055 46.0661 34.0366 45.6706 34.0523 45.2758C34.6257 45.5566 35.1776 45.8795 35.7033 46.2418L36.2303 46.5828L36.6303 46.8828V47.2048L37.0133 47.3558C37.2676 47.4517 37.516 47.5626 37.7573 47.6878V48.0098L38.1403 48.1608C38.3946 48.2567 38.643 48.3676 38.8843 48.4928V48.8148L39.2673 48.9658C39.5216 49.0617 39.77 49.1726 40.0113 49.2978V49.6198C40.1273 49.6598 40.2433 49.7008 40.3643 49.7408C40.8224 49.9603 41.2462 50.2453 41.6223 50.5868C42.2783 49.2098 42.8643 47.8288 43.3943 46.3988C43.8873 45.0698 44.3813 43.7478 44.9363 42.4428C45.4583 41.1978 45.9543 39.9358 46.4553 38.6758Z" fill="#FFD700"/>
<path d="M34.2124 30.7456L35.1404 30.8846C35.7844 30.9812 36.4281 31.0786 37.0714 31.1766C37.8961 31.3019 38.7207 31.4259 39.5454 31.5486L41.4554 31.8356L42.3674 31.9726C42.7914 32.0356 43.2164 32.0996 43.6404 32.1656L44.0174 32.2206L44.3704 32.2756L44.6704 32.3226C45.1107 32.4302 45.5447 32.5621 45.9704 32.7176V36.2596C45.5934 36.3286 45.5934 36.3286 45.2104 36.4016C41.9227 36.8879 38.8384 38.2901 36.3104 40.4476L35.9804 40.7296C32.8524 43.6296 31.8344 47.6416 31.4804 51.7236H26.8044C26.5347 51.0407 26.3727 50.3201 26.3244 49.5876C26.2984 49.3266 26.2714 49.0656 26.2434 48.8046C26.2304 48.6726 26.2164 48.5406 26.2014 48.4046C26.1374 47.8236 26.0584 47.2436 25.9744 46.6636C25.9584 46.5526 25.9424 46.4416 25.9264 46.3266C25.8944 46.0996 25.8604 45.8706 25.8264 45.6416C25.7734 45.2756 25.7264 44.9106 25.6684 44.5416C25.5204 43.5042 25.3707 42.4662 25.2194 41.4276C25.1261 40.7862 25.0337 40.1446 24.9424 39.5026C24.9084 39.2606 24.8734 39.0196 24.8424 38.7776C24.5044 36.4776 24.2424 34.5056 25.6424 32.5006C27.9504 29.6766 30.9954 30.2546 34.2124 30.7456Z" fill="#FF0000"/>
<path d="M62.4806 53.6367H63.0086C63.1966 53.6367 63.3856 53.6367 63.5806 53.6367C63.7756 53.6367 63.9806 53.6367 64.1806 53.6367H64.7806L66.2606 53.6447C66.4095 54.0051 66.4379 54.4039 66.3416 54.7817C66.3206 54.9137 66.2986 55.0457 66.2756 55.1817C66.2526 55.3177 66.2256 55.4717 66.1996 55.6197C66.1736 55.7677 66.1476 55.9257 66.1206 56.0837C66.0353 56.5911 65.9489 57.0984 65.8616 57.6057C65.8016 57.9587 65.7406 58.3117 65.6816 58.6657C65.5563 59.4064 65.4289 60.1474 65.2996 60.8887C65.1369 61.8341 64.9759 62.7807 64.8166 63.7287C64.6926 64.4621 64.5679 65.1924 64.4426 65.9197C64.3816 66.2677 64.3236 66.6197 64.2636 66.9647C64.1816 67.4557 64.0956 67.9457 64.0106 68.4357C63.9866 68.5777 63.9636 68.7207 63.9396 68.8677C63.7434 70.5674 62.9066 72.1284 61.5996 73.2327C59.1206 74.8127 54.9226 73.5197 52.2776 73.0537L51.0436 72.8447C50.0436 72.6767 49.0526 72.5037 48.0586 72.3297V66.8627L49.2856 66.6727C53.2259 66.056 56.7666 63.9169 59.1456 60.7157C60.4571 58.7932 61.3603 56.6221 61.7996 54.3367C61.9526 53.6607 61.9526 53.6607 62.4806 53.6367Z" fill="#FF0000"/>
<path d="M48.0635 32.877C48.3535 32.903 48.6415 32.943 48.9305 32.988L49.5465 33.077L49.9095 33.136C50.5585 33.236 51.2095 33.331 51.8605 33.428L53.0015 33.597C53.9535 33.739 54.9015 33.879 55.8595 34.011C56.4055 34.0883 56.9515 34.1666 57.4975 34.246L58.7815 34.431C59.4809 34.531 60.1789 34.633 60.8755 34.737L61.7195 34.859C64.1275 35.2 66.1265 35.566 67.6855 37.61C69.3995 40.248 68.2995 43.475 67.7955 46.366C67.7215 46.799 67.6455 47.231 67.5715 47.666L67.4265 48.497C67.2685 49.409 67.1182 50.323 66.9755 51.239C66.9095 51.563 66.9095 51.563 66.7485 51.724C66.4025 51.738 66.0575 51.742 65.7115 51.74C65.5005 51.74 65.2915 51.74 65.0735 51.74H64.4035H63.7305C63.1799 51.74 62.6289 51.7373 62.0775 51.732C62.0615 51.539 62.0455 51.345 62.0295 51.147C61.6475 46.827 60.1355 42.872 56.7625 39.973C54.2132 37.9598 51.1365 36.7264 47.9025 36.421C47.8972 35.8583 47.8945 35.2976 47.8945 34.739C47.8945 34.58 47.8945 34.42 47.8945 34.254C47.8945 34.088 47.8945 33.954 47.8945 33.793C47.8945 33.653 47.8945 33.511 47.8945 33.366C47.9025 33.038 47.9025 33.038 48.0635 32.877Z" fill="#FF0000"/>
<path d="M27.6893 53.6367H28.2173H28.7893H29.3893H29.9893L31.4743 53.6547C31.5213 53.8167 31.5673 53.9777 31.6153 54.1437C31.6443 54.2437 31.6733 54.3497 31.7043 54.4557C31.7913 54.7557 31.8753 55.0617 31.9603 55.3637C32.6374 57.8188 33.8463 60.095 35.5013 62.0307C35.6013 62.1497 35.7013 62.2687 35.8013 62.3897C38.4286 65.0289 41.9283 66.6193 45.6443 66.8627C45.8053 67.0237 45.8053 67.0237 45.8233 67.4857C45.8233 67.7857 45.8233 67.7857 45.8233 68.0957C45.8233 68.2037 45.8233 68.3097 45.8233 68.4207C45.8233 68.7637 45.8233 69.1067 45.8233 69.4497C45.8233 69.6817 45.8233 69.9137 45.8233 70.1497C45.8233 70.7197 45.8206 71.2894 45.8153 71.8587C44.3753 71.7587 42.9613 71.5767 41.5353 71.3527L40.8753 71.2527L39.4983 71.0367C38.9153 70.9437 38.3323 70.8547 37.7493 70.7647C37.2953 70.6957 36.8413 70.6227 36.3863 70.5517C36.069 70.5017 35.751 70.4527 35.4323 70.4047C33.2463 70.0477 31.1753 69.4367 29.7483 67.6457C29.0195 66.567 28.5594 65.3295 28.4063 64.0367C28.3633 63.7277 28.3633 63.7277 28.3173 63.4097C28.2863 63.1857 28.2563 62.9617 28.2273 62.7377C28.1983 62.5137 28.1633 62.2757 28.1273 62.0437C28.0606 61.5604 27.994 61.0767 27.9273 60.5927C27.8433 59.9741 27.7583 59.3554 27.6723 58.7367C27.6056 58.2581 27.539 57.7807 27.4723 57.3047C27.4413 57.0757 27.4093 56.8477 27.3793 56.6197C27.3343 56.3007 27.2903 55.9807 27.2473 55.6617C27.2233 55.4817 27.1993 55.2997 27.1733 55.1127C27.1217 54.6824 27.1057 54.2486 27.1253 53.8157C27.2863 53.6547 27.2863 53.6547 27.6893 53.6367Z" fill="#FF0000"/>
<path d="M53.2188 48.9844L53.5407 49.1454L53.2188 49.3064V48.9844Z" fill="#FFD700"/>
</g>
<defs>
<clipPath id="clip0_86_553">
<rect width="94" height="99" fill="white" transform="translate(0.5 0.5)"/>
</clipPath>
</defs>
</svg>
