<svg width="18" height="21" viewBox="0 0 18 21" fill="none" xmlns="http://www.w3.org/2000/svg">
<g clip-path="url(#clip0_86_573)">
<path d="M15.8456 15.7523H2.51563C2.1841 15.7523 1.86616 15.6206 1.63174 15.3861C1.39732 15.1517 1.26562 14.8338 1.26562 14.5023C1.26562 14.1707 1.39732 13.8528 1.63174 13.6184C1.86616 13.384 2.1841 13.2523 2.51563 13.2523L3.27462 13.2613V7.12226C3.29485 5.56722 3.92678 4.08272 5.03357 2.99023C6.14037 1.89773 7.63295 1.28516 9.18813 1.28516C10.7433 1.28516 12.2359 1.89773 13.3427 2.99023C14.4495 4.08272 15.0814 5.56722 15.1016 7.12226V13.2513H15.8496C16.1811 13.2513 16.4991 13.383 16.7335 13.6174C16.9679 13.8518 17.0996 14.1697 17.0996 14.5013C17.0996 14.8328 16.9679 15.1507 16.7335 15.3851C16.4991 15.6196 16.1811 15.7513 15.8496 15.7513L15.8456 15.7523ZM7.60063 19.0913C7.36354 18.8543 7.18245 18.5673 7.07063 18.2513H11.3106C11.1839 18.6093 10.9685 18.9293 10.6846 19.1817C10.4008 19.434 10.0576 19.6103 9.68722 19.6941C9.3168 19.778 8.93119 19.7667 8.56632 19.6613C8.20146 19.5559 7.86923 19.3598 7.60063 19.0913Z" stroke="#FF0000" stroke-width="1.5"/>
</g>
<defs>
<clipPath id="clip0_86_573">
<rect width="17.347" height="20" fill="white" transform="translate(0.5 0.5)"/>
</clipPath>
</defs>
</svg>
