<svg width="20" height="20" viewBox="0 0 20 20" fill="none" xmlns="http://www.w3.org/2000/svg">
<g clip-path="url(#clip0_86_567)">
<path d="M9.82932 2.59733L4.38731 7.13233V15.6323C4.41907 16.0431 4.61144 16.4249 4.92273 16.6948C5.23402 16.9647 5.63915 17.1011 6.05031 17.0743H7.43131V12.5973C7.42916 12.3875 7.46895 12.1793 7.54831 11.985C7.62767 11.7907 7.745 11.6141 7.89346 11.4658C8.04192 11.3174 8.21852 11.2002 8.41287 11.1209C8.60723 11.0417 8.81544 11.0021 9.02532 11.0043H10.6333C10.8432 11.0021 11.0514 11.0417 11.2458 11.1209C11.4401 11.2002 11.6167 11.3174 11.7652 11.4658C11.9136 11.6141 12.031 11.7907 12.1103 11.985C12.1897 12.1793 12.2295 12.3875 12.2273 12.5973V17.0743H13.5883C13.9995 17.1011 14.4046 16.9647 14.7159 16.6948C15.0272 16.4249 15.2196 16.0431 15.2513 15.6323V7.11133L9.82932 2.59333M9.82932 1.48633C9.96857 1.48596 10.1036 1.53404 10.2113 1.62233L18.6533 8.65733C18.7163 8.70634 18.7682 8.76806 18.8058 8.83846C18.8433 8.90886 18.8657 8.98637 18.8713 9.06596C18.877 9.14555 18.8658 9.22545 18.8386 9.30046C18.8114 9.37546 18.7687 9.4439 18.7133 9.50133C18.6573 9.5701 18.5867 9.6256 18.5066 9.66381C18.4266 9.70203 18.339 9.72201 18.2503 9.72233C18.1099 9.72454 17.9736 9.67426 17.8683 9.58133L16.2403 8.23433V15.6343C16.2105 16.3085 15.9143 16.9432 15.4169 17.3991C14.9195 17.8551 14.2615 18.0951 13.5873 18.0663H6.04932C5.37515 18.0951 4.71712 17.8551 4.21971 17.3991C3.7223 16.9432 3.42617 16.3085 3.39632 15.6343V8.23433L1.76932 9.58333C1.66354 9.66868 1.53122 9.71433 1.39531 9.71234C1.30635 9.7137 1.21815 9.69572 1.13683 9.65963C1.0555 9.62354 0.982994 9.57021 0.924317 9.50333C0.8244 9.38022 0.776802 9.22282 0.791764 9.06497C0.806725 8.90713 0.883036 8.76147 1.0043 8.65933L9.44731 1.62433C9.55528 1.53676 9.6903 1.48939 9.82932 1.49033V1.48633ZM11.2363 16.8183V12.5973C11.2374 12.5182 11.2226 12.4397 11.1928 12.3664C11.1631 12.2932 11.1189 12.2266 11.063 12.1707C11.007 12.1147 10.9405 12.0706 10.8672 12.0408C10.7939 12.011 10.7154 11.9962 10.6363 11.9973H9.02831C8.94922 11.9962 8.87072 12.011 8.79744 12.0408C8.72416 12.0706 8.65759 12.1147 8.60165 12.1707C8.54572 12.2266 8.50156 12.2932 8.47179 12.3664C8.44202 12.4397 8.42724 12.5182 8.42831 12.5973V16.8183H11.2363Z" fill="#FF0000"/>
</g>
<defs>
<clipPath id="clip0_86_567">
<rect width="19" height="19" fill="white" transform="translate(0.5 0.5)"/>
</clipPath>
</defs>
</svg>
