<svg width="20" height="20" viewBox="0 0 20 20" fill="none" xmlns="http://www.w3.org/2000/svg">
<g clip-path="url(#clip0_86_576)">
<path d="M9.88112 4.91524C9.52966 4.87689 9.17407 4.9129 8.83743 5.02092C8.5008 5.12894 8.19064 5.30655 7.92712 5.54224C7.68868 5.83158 7.5699 6.20115 7.59512 6.57524C7.59512 6.60824 7.59512 6.64124 7.59512 6.67524V8.09024C7.5951 8.32689 7.51032 8.55571 7.35612 8.73524C7.33717 8.75614 7.3262 8.78305 7.32512 8.81124V9.89024C7.32515 9.90798 7.32922 9.92548 7.33702 9.94142C7.34481 9.95736 7.35613 9.97132 7.37012 9.98224C7.53353 10.116 7.64986 10.2986 7.70212 10.5032C7.85808 11.0758 8.11993 11.6141 8.47412 12.0902C8.60459 12.263 8.67485 12.4737 8.67412 12.6902V13.5712C8.67406 13.8711 8.59324 14.1653 8.44015 14.4231C8.28706 14.6809 8.06735 14.8927 7.80412 15.0362L5.91112 16.0782C5.98645 16.1262 6.06312 16.1732 6.14112 16.2192L6.24112 16.2762C6.41112 16.3762 6.57912 16.4612 6.74112 16.5372L6.78012 16.5552C7.34756 16.8187 7.94644 17.0082 8.56212 17.1192L8.61012 17.1282C8.81012 17.1632 9.01012 17.1892 9.19612 17.2062H9.27412C9.49412 17.2242 9.68912 17.2332 9.87412 17.2332C10.0591 17.2332 10.2471 17.2242 10.4741 17.2072H10.5541C10.7441 17.1902 10.9391 17.1642 11.1341 17.1312H11.1391L11.1731 17.1252H11.1811C11.788 17.0164 12.3787 16.8313 12.9391 16.5742L12.9771 16.5572L12.9981 16.5482C13.1591 16.4732 13.3221 16.3882 13.4841 16.2972L13.6021 16.2292L13.7751 16.1292L11.7291 15.1062C11.451 14.9673 11.2175 14.753 11.0552 14.4878C10.8929 14.2226 10.8083 13.9171 10.8111 13.6062V12.7062C10.8112 12.4794 10.8892 12.2594 11.0321 12.0832C11.0791 12.0252 11.1321 11.9582 11.1821 11.8832C11.4654 11.4806 11.6903 11.0399 11.8501 10.5742C11.8931 10.4499 11.9604 10.3353 12.0481 10.2373C12.1359 10.1393 12.2423 10.0597 12.3611 10.0032C12.3818 9.99407 12.3993 9.97906 12.4116 9.96005C12.4239 9.94104 12.4303 9.91886 12.4301 9.89624V8.81624C12.4293 8.78849 12.4186 8.76193 12.4001 8.74124C12.2453 8.56159 12.1602 8.33236 12.1601 8.09524V6.57424C12.1851 6.19971 12.066 5.82979 11.8271 5.54024C11.5644 5.30591 11.2555 5.12923 10.9203 5.02159C10.5852 4.91394 10.2311 4.87771 9.88112 4.91524ZM9.88112 1.49024C11.5705 1.48916 13.2206 1.99954 14.6143 2.95423C16.008 3.90892 17.0801 5.26319 17.6894 6.83883C18.2987 8.41448 18.4167 10.1377 18.0279 11.7817C17.6391 13.4257 16.7617 14.9134 15.5111 16.0492L15.5191 16.0562L15.2401 16.2892C15.2121 16.3122 15.1821 16.3322 15.1541 16.3552C15.0261 16.4552 14.8955 16.5552 14.7621 16.6552C14.7061 16.6952 14.6511 16.7362 14.5951 16.7742C14.4391 16.8812 14.2781 16.9822 14.1141 17.0742L13.9801 17.1512C13.8001 17.2526 13.6165 17.3476 13.4291 17.4362L13.3591 17.4682C12.7216 17.7603 12.0495 17.9703 11.3591 18.0932L11.3021 18.1032C11.0841 18.1402 10.8631 18.1702 10.6391 18.1902L10.5541 18.1962C10.3311 18.2142 10.1061 18.2262 9.87812 18.2262C9.65012 18.2262 9.42112 18.2142 9.19612 18.1962L9.11712 18.1902C8.89112 18.1702 8.66912 18.1392 8.44812 18.1012L8.39212 18.0912C7.69279 17.9651 7.01256 17.7497 6.36812 17.4502L6.32512 17.4312C6.12512 17.3392 5.93912 17.2392 5.75312 17.1312L5.64112 17.0662C5.47045 16.9656 5.30378 16.8592 5.14112 16.7472C5.09112 16.7122 5.04112 16.6772 4.99212 16.6412C4.84012 16.5312 4.69212 16.4182 4.54612 16.2982C4.52812 16.2832 4.50912 16.2712 4.49212 16.2562L4.22112 16.0272L4.22912 16.0202C2.98773 14.8811 2.11923 13.3936 1.73731 11.7526C1.35538 10.1116 1.47784 8.39357 2.08864 6.82334C2.69945 5.2531 3.77014 3.90388 5.16054 2.9523C6.55094 2.00072 8.19627 1.49113 9.88112 1.49024ZM15.0281 15.6632C16.2052 14.62 17.0376 13.2437 17.4149 11.7167C17.7921 10.1898 17.6966 8.58423 17.1408 7.1128C16.5851 5.64138 15.5953 4.37356 14.3028 3.47731C13.0102 2.58106 11.4759 2.09869 9.90298 2.09412C8.33011 2.08955 6.79297 2.563 5.49524 3.45172C4.1975 4.34045 3.20043 5.60251 2.63612 7.07068C2.07182 8.53884 1.96693 10.1438 2.33534 11.6729C2.70376 13.2021 3.52809 14.5832 4.69912 15.6332C4.77245 15.5809 4.84893 15.5332 4.92812 15.4902L7.33512 14.1772C7.44282 14.1185 7.5326 14.0317 7.59493 13.9261C7.65726 13.8205 7.68981 13.6999 7.68912 13.5772V12.6962C7.25474 12.1136 6.93537 11.4535 6.74812 10.7512C6.62011 10.6472 6.51696 10.516 6.4462 10.367C6.37544 10.218 6.33885 10.0552 6.33912 9.89024V8.81624C6.33949 8.54939 6.43606 8.29163 6.61112 8.09024V6.67424C6.55819 6.02748 6.76348 5.38607 7.18212 4.89024C7.53586 4.54413 7.96038 4.27874 8.42647 4.11233C8.89255 3.94592 9.38916 3.88243 9.88212 3.92624C10.3752 3.88249 10.8718 3.94611 11.3379 4.11269C11.804 4.27928 12.2285 4.54489 12.5821 4.89124C13.0017 5.38701 13.2078 6.02886 13.1551 6.67624V8.09024C13.3285 8.29052 13.4243 8.54634 13.4251 8.81124V9.89024C13.4257 10.1001 13.3662 10.3058 13.2537 10.483C13.1412 10.6602 12.9803 10.8015 12.7901 10.8902C12.5986 11.4452 12.3292 11.9701 11.9901 12.4492C11.9251 12.5412 11.8621 12.6242 11.8021 12.6982V13.5982C11.8017 13.7243 11.8366 13.848 11.9029 13.9553C11.9691 14.0626 12.0641 14.1492 12.1771 14.2052L14.7541 15.4902C14.8497 15.5403 14.9416 15.5971 15.0291 15.6602L15.0281 15.6632Z" fill="#FF0000"/>
</g>
<defs>
<clipPath id="clip0_86_576">
<rect width="19" height="19" fill="white" transform="translate(0.5 0.5)"/>
</clipPath>
</defs>
</svg>
