<svg width="23" height="21" viewBox="0 0 23 21" fill="none" xmlns="http://www.w3.org/2000/svg">
<g clip-path="url(#clip0_86_564)">
<path d="M10.7545 3.26411L11.3255 3.93612L11.8965 3.26411C12.4273 2.63944 13.0863 2.13628 13.8288 1.78878C14.5712 1.44128 15.3797 1.25757 16.1995 1.25011C16.8865 1.24553 17.5675 1.37804 18.2027 1.63987C18.8379 1.90171 19.4145 2.28762 19.8987 2.77501C20.3829 3.2624 20.7651 3.84148 21.0228 4.47837C21.2805 5.11525 21.4085 5.79713 21.3995 6.48412V6.49411C21.3995 8.30911 20.5995 10.0141 19.0305 11.9411C16.9691 14.2789 14.7499 16.4728 12.3885 18.5071L11.3235 19.4831L10.2615 18.5181C7.90066 16.4799 5.68152 14.2831 3.61946 11.9431C2.05446 10.0141 1.25046 8.31011 1.25046 6.49511V6.48512C1.24127 5.79822 1.36917 5.11639 1.62668 4.47953C1.88419 3.84266 2.26613 3.26355 2.75015 2.77608C3.23418 2.28861 3.81057 1.90257 4.44559 1.64055C5.08062 1.37853 5.76152 1.2458 6.44846 1.25011C7.26869 1.25714 8.0778 1.44064 8.8208 1.78816C9.56381 2.13568 10.2233 2.63906 10.7545 3.26411Z" stroke="#FF0000" stroke-width="1.5"/>
</g>
<defs>
<clipPath id="clip0_86_564">
<rect width="21.653" height="20" fill="white" transform="translate(0.5 0.5)"/>
</clipPath>
</defs>
</svg>
