<svg xmlns="http://www.w3.org/2000/svg" width="21.653" height="20" viewBox="0 0 21.653 20">
  <g id="desel_fav" transform="translate(-1032.617 -233.25)">
    <path id="desel_fav-2" data-name="desel_fav" d="M10.255,2.764l.571.672.571-.672A5.715,5.715,0,0,1,15.7.75a5.166,5.166,0,0,1,5.2,5.234h0v.01c0,1.815-.8,3.52-2.369,5.447a68.218,68.218,0,0,1-6.642,6.566h0l-1.065.976-1.062-.965h0A68.644,68.644,0,0,1,3.12,11.443C1.555,9.514.751,7.81.751,5.995h0v-.01A5.166,5.166,0,0,1,5.949.75a5.715,5.715,0,0,1,4.306,2.014Z" transform="translate(1032.617 233.25)" fill="none" stroke="#6133bd" stroke-width="1.5"/>
  </g>
</svg>
