<svg width="97" height="97" viewBox="0 0 97 97" fill="none" xmlns="http://www.w3.org/2000/svg">
<g clip-path="url(#clip0_86_582)">
<path d="M48.5 96.5C39.0065 96.5 29.7262 93.6849 21.8327 88.4106C13.9391 83.1363 7.78681 75.6397 4.1538 66.8688C0.520798 58.098 -0.429762 48.4468 1.42233 39.1357C3.27442 29.8246 7.84597 21.2718 14.5589 14.5589C21.2718 7.84598 29.8246 3.27442 39.1357 1.42233C48.4468 -0.429762 58.098 0.520798 66.8688 4.1538C75.6397 7.78681 83.1363 13.9391 88.4106 21.8326C93.6849 29.7262 96.5 39.0065 96.5 48.5C96.5 61.2304 91.4429 73.4394 82.4412 82.4411C73.4394 91.4429 61.2304 96.5 48.5 96.5Z" fill="#F35564"/>
<path d="M72.7542 27.3717C72.7542 27.3717 72.7592 25.0267 72.7542 23.8547C72.7707 23.4063 72.7211 22.9578 72.6072 22.5237C72.4114 21.9365 72.0354 21.4261 71.5327 21.065C71.03 20.7039 70.4261 20.5107 69.8072 20.5127C60.8092 20.5034 51.8138 20.4987 42.8211 20.4987C42.1355 20.461 41.4506 20.5864 40.8228 20.8645C40.1949 21.1426 39.6419 21.5656 39.2091 22.0987C36.4611 24.8447 33.7138 27.5917 30.9672 30.3397C30.4434 30.753 30.0201 31.2795 29.7292 31.8798C29.4382 32.4801 29.287 33.1386 29.2871 33.8057V47.8847C29.2869 47.9013 29.2801 47.917 29.2683 47.9286C29.2566 47.9402 29.2407 47.9467 29.2242 47.9467C26.1575 47.9527 23.0928 47.9527 20.0302 47.9467C19.3596 47.8844 18.6877 48.0516 18.1245 48.4209C17.5613 48.7902 17.1402 49.3398 16.9301 49.9797C16.7902 50.5279 16.7313 51.0935 16.7552 51.6587C16.7612 56.4587 16.7612 61.2621 16.7552 66.0687C16.7552 67.5837 17.2242 68.8907 18.7552 69.3947C19.5098 69.5612 20.2832 69.6267 21.0552 69.5897H29.2122C29.2313 69.5897 29.2496 69.5973 29.2631 69.6108C29.2766 69.6243 29.2842 69.6427 29.2842 69.6617V72.6617C29.2582 73.2627 29.3174 73.8644 29.4601 74.4487C29.6719 75.1031 30.1029 75.6643 30.6804 76.0378C31.2579 76.4112 31.9466 76.574 32.6302 76.4987C33.8052 76.4917 36.1552 76.4987 36.1552 76.4987H38.2982C38.2982 76.4987 59.0352 76.4927 69.3982 76.4987C69.8524 76.5548 70.3134 76.5066 70.7462 76.3577C71.179 76.2088 71.5721 75.9632 71.8957 75.6395C72.2192 75.3158 72.4647 74.9226 72.6135 74.4898C72.7623 74.057 72.8104 73.5959 72.7542 73.1417V27.3717ZM26.4912 64.2257C26.3476 64.2365 26.2034 64.2174 26.0676 64.1697C25.9318 64.1219 25.8074 64.0465 25.7022 63.9482C25.5971 63.8499 25.5135 63.7308 25.4566 63.5986C25.3998 63.4663 25.3711 63.3237 25.3722 63.1797C25.3222 59.5651 25.3265 56.5931 25.3852 54.2637C25.4022 53.5487 25.9402 53.3367 26.6002 53.3337C29.2262 53.3247 31.5861 53.0237 33.4471 55.0797C34.0803 55.7687 34.5246 56.6096 34.7371 57.5208C34.9496 58.4321 34.923 59.3827 34.6599 60.2807C34.3968 61.1786 33.9061 61.9933 33.2355 62.6458C32.5648 63.2983 31.737 63.7664 30.8322 64.0047C29.399 64.2503 27.9418 64.3245 26.4912 64.2257ZM70.7672 73.3147C70.7672 74.0657 70.4562 74.5047 69.6912 74.5047H32.2712C32.0226 74.5013 31.7845 74.4038 31.605 74.2317C31.4256 74.0597 31.318 73.826 31.3041 73.5777C31.2635 72.2777 31.2665 70.9704 31.3131 69.6557C31.3139 69.639 31.3211 69.6233 31.3332 69.6117C31.3453 69.6002 31.3614 69.5937 31.3781 69.5937H61.6872C62.4116 69.6265 63.1371 69.5592 63.8431 69.3937C64.4587 69.1818 64.9874 68.7733 65.3478 68.2311C65.7081 67.689 65.8801 67.0433 65.8372 66.3937C65.8725 58.4691 65.8768 53.3661 65.8502 51.0847C65.871 50.6482 65.7968 50.2123 65.6327 49.8072C65.4685 49.4021 65.2184 49.0375 64.8996 48.7385C64.5808 48.4396 64.2008 48.2134 63.786 48.0757C63.3713 47.9379 62.9315 47.8919 62.4972 47.9407C52.1118 47.9447 41.7265 47.9447 31.3412 47.9407C31.3333 47.9409 31.3255 47.9395 31.3181 47.9366C31.3108 47.9337 31.3041 47.9294 31.2984 47.9239C31.2928 47.9184 31.2882 47.9119 31.2851 47.9046C31.282 47.8974 31.2803 47.8896 31.2802 47.8817C31.2802 43.6024 31.2802 39.3161 31.2802 35.0227C31.2738 34.8332 31.3228 34.6459 31.4211 34.4837C31.9581 33.6437 32.6582 33.5397 33.6822 33.5457C35.5115 33.5551 37.3402 33.5507 39.1682 33.5327C39.8245 33.578 40.4772 33.4033 41.0232 33.0362C41.5692 32.6691 41.9773 32.1306 42.1831 31.5057C42.3156 31.0064 42.3725 30.49 42.3521 29.9737C42.3521 28.0857 42.3521 26.1987 42.3521 24.3127C42.3521 23.6457 42.9102 22.4787 43.7332 22.4787H69.4662C70.2792 22.4787 70.7661 22.7117 70.7661 23.5787L70.7672 73.3147ZM35.8512 58.7627C35.8512 57.689 36.1696 56.6393 36.7661 55.7466C37.3627 54.8538 38.2106 54.1579 39.2026 53.747C40.1946 53.3361 41.2862 53.2286 42.3393 53.4381C43.3924 53.6475 44.3598 54.1646 45.119 54.9239C45.8783 55.6831 46.3954 56.6505 46.6048 57.7036C46.8143 58.7567 46.7068 59.8483 46.2959 60.8403C45.885 61.8324 45.1892 62.6802 44.2964 63.2768C43.4036 63.8733 42.3539 64.1917 41.2802 64.1917C39.8403 64.1917 38.4594 63.6198 37.4413 62.6016C36.4231 61.5835 35.8512 60.2026 35.8512 58.7627ZM49.6751 59.0337C49.73 59.6743 49.9622 60.287 50.3459 60.8029C50.7295 61.3188 51.2494 61.7176 51.847 61.9545C52.4447 62.1914 53.0966 62.257 53.7296 62.144C54.3625 62.031 54.9514 61.7438 55.4301 61.3147C55.5791 61.17 55.7498 61.0495 55.9362 60.9577C56.1071 60.9058 56.2886 60.9 56.4625 60.9409C56.6364 60.9817 56.7964 61.0679 56.9263 61.1905C57.0561 61.3132 57.1512 61.468 57.202 61.6393C57.2527 61.8105 57.2573 61.9922 57.2152 62.1657C57.1272 62.5127 56.7152 62.8407 56.3672 63.1047C55.5476 63.7203 54.5706 64.0914 53.549 64.1749C52.5275 64.2585 51.5031 64.0511 50.5945 63.5769C49.6858 63.1026 48.93 62.3808 48.4144 61.495C47.8988 60.6092 47.6445 59.5954 47.6809 58.5711C47.7173 57.5468 48.043 56.5537 48.6202 55.7067C49.1974 54.8597 50.0026 54.1934 50.9426 53.7849C51.8826 53.3764 52.9191 53.2423 53.9322 53.3982C54.9452 53.554 55.8934 53.9935 56.6671 54.6657C56.8982 54.8384 57.0822 55.0664 57.2022 55.3287C57.2505 55.4961 57.2543 55.6731 57.2131 55.8423C57.172 56.0116 57.0874 56.1671 56.9677 56.2936C56.848 56.4201 56.6973 56.5131 56.5306 56.5635C56.3639 56.6139 56.1869 56.6198 56.0172 56.5807C55.8072 56.5053 55.6162 56.3852 55.4572 56.2287C54.9464 55.7622 54.3074 55.4596 53.6229 55.3599C52.9384 55.2602 52.2396 55.368 51.617 55.6695C50.9944 55.9709 50.4765 56.4522 50.1301 57.051C49.7838 57.6498 49.625 58.3387 49.6742 59.0287" fill="white"/>
<path d="M31.5991 56.0926C32.0829 56.4769 32.4535 56.9852 32.6714 57.5634C32.8893 58.1415 32.9463 58.768 32.8364 59.376C32.7265 59.984 32.4538 60.5509 32.0474 61.0162C31.6409 61.4815 31.1159 61.828 30.5281 62.0186C29.5096 62.2448 28.4622 62.3123 27.4231 62.2186C27.3781 62.2186 27.3421 62.1916 27.3421 62.1576L27.3281 55.3886C27.3281 55.3506 27.3671 55.3216 27.4161 55.3206C28.8551 55.3136 30.3581 55.0736 31.5971 56.0886" fill="white"/>
<path d="M41.2827 55.3242C41.9629 55.3242 42.6278 55.5259 43.1934 55.9038C43.7589 56.2817 44.1997 56.8188 44.46 57.4472C44.7203 58.0756 44.7884 58.767 44.6557 59.4341C44.523 60.1012 44.1954 60.714 43.7145 61.195C43.2335 61.6759 42.6208 62.0034 41.9537 62.1361C41.2866 62.2688 40.5951 62.2007 39.9667 61.9404C39.3383 61.6802 38.8012 61.2394 38.4233 60.6738C38.0454 60.1083 37.8438 59.4434 37.8438 58.7632C37.8438 57.8511 38.2061 56.9764 38.851 56.3315C39.496 55.6865 40.3707 55.3242 41.2827 55.3242Z" fill="white"/>
</g>
<defs>
<clipPath id="clip0_86_582">
<rect width="96" height="96" fill="white" transform="translate(0.5 0.5)"/>
</clipPath>
</defs>
</svg>
