<svg width="21" height="21" viewBox="0 0 21 21" fill="none" xmlns="http://www.w3.org/2000/svg">
<g clip-path="url(#clip0_86_588)">
<path d="M18.8433 4.39062H2.03131C1.77668 4.39142 1.53271 4.49291 1.35266 4.67297C1.17261 4.85302 1.0711 5.09699 1.07031 5.35162L1.07031 15.9196C1.0711 16.1743 1.17261 16.4182 1.35266 16.5983C1.53271 16.7783 1.77668 16.8798 2.03131 16.8806H18.8443C19.0989 16.8798 19.3429 16.7783 19.523 16.5983C19.703 16.4182 19.8045 16.1743 19.8053 15.9196V5.35162C19.8045 5.09682 19.7029 4.85269 19.5226 4.67262C19.3423 4.49254 19.0981 4.39115 18.8433 4.39062ZM18.4823 5.10963L10.9903 10.7296C10.8265 10.8382 10.6343 10.8961 10.4378 10.8961C10.2413 10.8961 10.0491 10.8382 9.88531 10.7296L2.39231 5.10963H18.4823ZM14.4823 11.1016L18.5703 16.1446C18.5703 16.1446 18.5793 16.1536 18.5843 16.1586H2.29731L2.31131 16.1446L6.39431 11.1016C6.42412 11.0649 6.4464 11.0226 6.45987 10.9772C6.47334 10.9318 6.47774 10.8842 6.47282 10.8372C6.46789 10.7901 6.45375 10.7444 6.43118 10.7028C6.40862 10.6612 6.37808 10.6244 6.34131 10.5946C6.30454 10.5648 6.26226 10.5425 6.21688 10.5291C6.1715 10.5156 6.12391 10.5112 6.07684 10.5161C6.02976 10.521 5.98411 10.5352 5.9425 10.5578C5.90088 10.5803 5.86412 10.6109 5.83431 10.6476L1.79131 15.6476V5.55762L9.45331 11.3026C9.74205 11.5042 10.0857 11.6123 10.4378 11.6123C10.7899 11.6123 11.1336 11.5042 11.4223 11.3026L19.0833 5.55762V15.6436L15.0403 10.6486C15.0105 10.6119 14.9737 10.5813 14.9321 10.5588C14.8905 10.5362 14.8449 10.522 14.7978 10.5171C14.7027 10.5072 14.6076 10.5354 14.5333 10.5956C14.4591 10.6558 14.4117 10.7431 14.4018 10.8382C14.3919 10.9332 14.4201 11.0284 14.4803 11.1026L14.4823 11.1016Z" fill="#FF0000"/>
</g>
<defs>
<clipPath id="clip0_86_588">
<rect width="20" height="20" fill="white" transform="translate(0.5 0.5)"/>
</clipPath>
</defs>
</svg>
