<svg width="283" height="178" viewBox="0 0 283 178" fill="none" xmlns="http://www.w3.org/2000/svg">
<g clip-path="url(#clip0_86_594)">
<path d="M242.77 148.758C246.922 145.879 247.88 140.509 247.736 135.678C247.814 134.877 247.709 134.069 247.428 133.314C247.258 132.951 246.96 132.663 246.591 132.505C246.223 132.347 245.809 132.33 245.428 132.457C244.828 132.738 244.565 133.431 244.228 133.999C243.777 134.766 243.119 135.39 242.328 135.799C242.084 135.955 241.806 136.049 241.518 136.074C241.23 136.1 240.94 136.055 240.672 135.944C239.978 135.559 239.898 134.597 239.908 133.786L239.951 129.304C240.002 128.508 239.925 127.708 239.723 126.936C239.618 126.551 239.422 126.196 239.151 125.903C238.88 125.609 238.542 125.385 238.166 125.25C237.785 125.137 237.374 125.179 237.024 125.367C236.673 125.556 236.412 125.875 236.295 126.255C236.263 126.588 236.254 126.922 236.267 127.255C236.271 127.422 236.226 127.586 236.137 127.727C236.048 127.868 235.919 127.979 235.767 128.047C235.602 128.065 235.434 128.041 235.28 127.976C235.127 127.911 234.992 127.808 234.889 127.677C234.1 126.822 233.458 125.842 232.989 124.777C232.519 123.714 231.923 122.711 231.213 121.79C230.86 121.332 230.419 120.95 229.915 120.665C229.412 120.38 228.857 120.198 228.282 120.131C227.704 120.085 227.128 120.234 226.644 120.553C226.16 120.873 225.797 121.345 225.612 121.894C225.539 122.474 225.599 123.063 225.785 123.617C225.971 124.171 226.281 124.676 226.689 125.094C227.745 126.455 228.991 127.656 230.389 128.661C230.66 128.814 230.876 129.05 231.005 129.333C231.178 129.869 230.669 130.397 230.142 130.566C229.527 130.697 228.9 130.764 228.271 130.766C227.956 130.772 227.648 130.86 227.377 131.023C227.107 131.185 226.884 131.416 226.73 131.691C226.4 132.508 227.081 133.371 227.754 133.935C229.102 135.067 230.634 135.959 232.283 136.571C232.89 136.742 233.46 137.022 233.966 137.398C234.274 137.554 234.506 137.826 234.613 138.154C234.72 138.482 234.692 138.839 234.536 139.146C234.38 139.454 234.108 139.686 233.78 139.793C233.453 139.9 233.096 139.872 232.788 139.716C232.185 139.539 231.597 139.312 231.031 139.038C230.498 138.785 229.898 138.707 229.317 138.815C228.737 138.923 228.205 139.211 227.797 139.638C227.581 139.965 227.443 140.338 227.394 140.728C227.346 141.117 227.389 141.512 227.519 141.882C227.783 142.618 228.191 143.293 228.719 143.868C230.459 145.972 232.726 147.577 235.288 148.517C237.667 149.496 240.321 149.574 242.754 148.739" fill="#BDBDBD"/>
<path d="M242.506 150.119C242.391 148.617 242.067 147.138 241.544 145.726C240.752 143.091 239.809 140.505 238.72 137.979L237.875 135.988C237.597 135.334 237.32 134.688 237.009 134.07C236.409 132.889 235.745 131.743 235.018 130.636C234.334 129.572 233.646 128.586 232.999 127.67C232.352 126.754 231.721 125.913 231.122 125.17C230.183 123.993 229.152 122.892 228.039 121.878C227.639 121.52 227.33 121.262 227.114 121.07L226.867 120.87C226.841 120.845 226.812 120.824 226.781 120.805C226.804 120.833 226.83 120.859 226.858 120.882L227.095 121.095C227.305 121.28 227.613 121.557 228.001 121.922C229.1 122.949 230.12 124.058 231.053 125.238C231.648 125.984 232.265 126.826 232.903 127.744C233.541 128.662 234.231 129.644 234.91 130.713C235.628 131.821 236.285 132.967 236.877 134.147C237.185 134.763 237.457 135.405 237.737 136.058L238.582 138.049C239.669 140.569 240.614 143.148 241.413 145.774C241.939 147.176 242.271 148.644 242.399 150.136" fill="#263238"/>
<path d="M236.957 134.064C236.996 133.953 237.023 133.838 237.037 133.722C237.08 133.5 237.137 133.179 237.187 132.779C237.304 131.979 237.427 130.879 237.557 129.653C237.687 128.427 237.825 127.329 237.957 126.533C238.019 126.133 238.074 125.815 238.114 125.608C238.142 125.494 238.157 125.377 238.16 125.26C238.114 125.368 238.081 125.48 238.06 125.596C238.001 125.815 237.935 126.132 237.86 126.521C237.706 127.313 237.552 128.421 237.419 129.641L237.093 132.77L236.993 133.716C236.972 133.831 236.964 133.947 236.968 134.064H236.957Z" fill="#263238"/>
<path d="M226.654 132.098C226.789 132.128 226.926 132.144 227.064 132.148C227.329 132.173 227.711 132.207 228.183 132.262C229.126 132.362 230.427 132.57 231.848 132.832C233.269 133.094 234.548 133.411 235.467 133.662C235.926 133.782 236.296 133.89 236.552 133.97C236.682 134.016 236.816 134.05 236.952 134.07C236.829 134.007 236.7 133.956 236.567 133.916C236.316 133.827 235.951 133.703 235.49 133.571C234.565 133.295 233.298 132.971 231.871 132.699C230.653 132.461 229.424 132.286 228.187 132.173C227.711 132.13 227.327 132.111 227.062 132.105C226.926 132.092 226.789 132.092 226.652 132.105L226.654 132.098Z" fill="#263238"/>
<path d="M241.407 145.537C241.437 145.498 241.46 145.456 241.478 145.412L241.657 145.039C241.811 144.715 242.018 144.239 242.273 143.652C242.773 142.471 243.417 140.821 244.098 138.991C244.779 137.161 245.408 135.504 245.883 134.318L246.45 132.912L246.6 132.53C246.621 132.485 246.635 132.439 246.643 132.391C246.614 132.429 246.59 132.471 246.572 132.516L246.393 132.889C246.239 133.213 246.032 133.689 245.777 134.276C245.277 135.457 244.633 137.107 243.948 138.937C243.263 140.767 242.638 142.424 242.163 143.61L241.596 145.016L241.446 145.398C241.427 145.442 241.413 145.489 241.406 145.537H241.407Z" fill="#263238"/>
<path d="M227.723 141.072C227.765 141.097 227.811 141.115 227.859 141.127L228.259 141.263L229.723 141.744C230.956 142.151 232.664 142.73 234.544 143.375C236.424 144.02 238.136 144.583 239.381 144.966C239.997 145.157 240.508 145.305 240.861 145.401L241.261 145.509C241.307 145.525 241.356 145.535 241.406 145.537C241.363 145.513 241.317 145.495 241.27 145.482L240.87 145.346L239.417 144.865C238.184 144.458 236.476 143.879 234.596 143.234C232.716 142.589 231.008 142.026 229.759 141.643C229.143 141.452 228.632 141.304 228.279 141.208L227.872 141.1C227.824 141.084 227.773 141.075 227.723 141.072Z" fill="#263238"/>
<path d="M244.024 158.489C237.806 154.178 236.371 146.137 236.588 138.904C236.472 137.704 236.63 136.494 237.05 135.364C237.305 134.821 237.75 134.391 238.302 134.155C238.853 133.918 239.472 133.892 240.041 134.081C240.941 134.501 241.334 135.54 241.841 136.389C242.514 137.539 243.498 138.475 244.68 139.089C245.045 139.322 245.462 139.464 245.893 139.501C246.325 139.539 246.76 139.472 247.16 139.306C248.199 138.73 248.319 137.289 248.305 136.075L248.24 129.364C248.164 128.172 248.279 126.975 248.582 125.819C248.739 125.242 249.033 124.711 249.439 124.271C249.844 123.832 250.35 123.497 250.913 123.294C251.483 123.125 252.097 123.188 252.621 123.468C253.145 123.749 253.538 124.226 253.713 124.794C253.761 125.293 253.775 125.794 253.755 126.294C253.748 126.543 253.815 126.788 253.947 126.999C254.08 127.21 254.271 127.377 254.498 127.48C254.746 127.507 254.997 127.471 255.228 127.374C255.458 127.277 255.66 127.123 255.814 126.926C256.998 125.648 257.963 124.181 258.667 122.587C259.37 120.995 260.263 119.493 261.326 118.114C261.855 117.429 262.516 116.856 263.27 116.429C264.024 116.003 264.856 115.732 265.716 115.631C266.581 115.563 267.445 115.786 268.169 116.264C268.894 116.742 269.438 117.449 269.716 118.271C270.159 119.959 269.176 121.682 268.105 123.058C266.525 125.095 264.659 126.894 262.566 128.398C262.16 128.627 261.836 128.98 261.643 129.404C261.384 130.204 262.143 130.996 262.936 131.25C263.856 131.446 264.795 131.547 265.736 131.55C266.208 131.558 266.67 131.69 267.076 131.933C267.481 132.176 267.815 132.522 268.044 132.935C268.538 134.158 267.518 135.451 266.511 136.295C264.494 137.99 262.2 139.325 259.73 140.242C258.822 140.497 257.967 140.917 257.21 141.479C256.798 141.739 256.498 142.143 256.369 142.613C256.239 143.082 256.29 143.583 256.51 144.018C256.731 144.452 257.106 144.788 257.561 144.961C258.017 145.133 258.52 145.129 258.973 144.95C259.876 144.684 260.756 144.344 261.603 143.934C263.251 143.306 265.383 143.412 266.445 144.834C266.769 145.324 266.975 145.882 267.047 146.465C267.119 147.048 267.055 147.64 266.86 148.194C266.462 149.296 265.846 150.307 265.051 151.167C262.446 154.318 259.051 156.721 255.213 158.129C251.391 159.468 247.827 159.842 244.033 158.461" fill="#BDBDBD"/>
<path d="M244.422 160.526C244.676 157.66 244.805 157.599 245.862 153.948C247.048 150.003 248.46 146.13 250.09 142.348L251.355 139.367C251.77 138.388 252.186 137.419 252.655 136.496C253.553 134.728 254.548 133.012 255.636 131.354C256.661 129.762 257.69 128.284 258.659 126.914C259.628 125.544 260.57 124.284 261.47 123.17C262.876 121.407 264.419 119.758 266.086 118.24C266.677 117.704 267.148 117.317 267.471 117.031L267.84 116.731C267.88 116.694 267.923 116.66 267.969 116.631C267.934 116.673 267.896 116.711 267.854 116.746L267.499 117.065C267.185 117.342 266.722 117.757 266.142 118.302C264.497 119.841 262.97 121.501 261.574 123.268C260.683 124.385 259.76 125.645 258.805 127.021C257.85 128.397 256.816 129.874 255.799 131.466C254.724 133.125 253.741 134.842 252.854 136.608C252.392 137.531 251.986 138.491 251.566 139.47L250.301 142.451C248.674 146.225 247.26 150.086 246.064 154.018C244.998 157.655 244.855 157.711 244.586 160.55" fill="#263238"/>
<path d="M252.729 136.485C252.67 136.319 252.63 136.147 252.609 135.973C252.544 135.641 252.466 135.161 252.384 134.561C252.209 133.361 252.024 131.708 251.83 129.881C251.636 128.054 251.43 126.401 251.23 125.21C251.138 124.61 251.055 124.134 250.995 123.825C250.953 123.654 250.93 123.479 250.926 123.303C250.994 123.463 251.045 123.631 251.078 123.803C251.166 124.131 251.267 124.603 251.378 125.188C251.609 126.374 251.84 128.031 252.038 129.859L252.527 134.543L252.684 135.96C252.715 136.132 252.728 136.307 252.721 136.482L252.729 136.485Z" fill="#263238"/>
<path d="M268.156 133.544C267.954 133.587 267.749 133.612 267.542 133.618C267.142 133.655 266.573 133.706 265.866 133.789C264.453 133.946 262.506 134.251 260.378 134.643C258.25 135.035 256.335 135.511 254.959 135.885C254.271 136.065 253.717 136.227 253.334 136.347C253.139 136.415 252.939 136.464 252.734 136.495C252.919 136.4 253.112 136.322 253.31 136.264C253.684 136.13 254.233 135.945 254.921 135.747C256.306 135.336 258.202 134.856 260.34 134.441C262.164 134.084 264.005 133.82 265.856 133.652C266.567 133.587 267.144 133.56 267.541 133.552C267.746 133.532 267.951 133.532 268.155 133.552L268.156 133.544Z" fill="#263238"/>
<path d="M246.065 153.664C246.021 153.607 245.985 153.543 245.959 153.475L245.691 152.916C245.46 152.431 245.151 151.716 244.768 150.839C244.017 149.071 243.055 146.602 242.035 143.86C241.015 141.118 240.073 138.639 239.362 136.86L238.513 134.76L238.288 134.188C238.257 134.122 238.235 134.052 238.223 133.98C238.266 134.038 238.302 134.102 238.329 134.169L238.597 134.728C238.828 135.213 239.137 135.928 239.52 136.805C240.271 138.573 241.233 141.042 242.257 143.784C243.281 146.526 244.219 149.005 244.93 150.784L245.779 152.884L246.004 153.456C246.033 153.523 246.054 153.593 246.065 153.664Z" fill="#263238"/>
<path d="M266.553 146.98C266.491 147.017 266.423 147.045 266.353 147.063L265.753 147.263L263.56 147.983C261.714 148.592 259.16 149.461 256.341 150.425C253.522 151.389 250.963 152.235 249.099 152.807C248.176 153.093 247.41 153.315 246.883 153.458L246.283 153.62C246.213 153.644 246.14 153.659 246.066 153.662C246.129 153.626 246.196 153.598 246.266 153.579L246.866 153.379L249.04 152.659C250.886 152.05 253.44 151.181 256.259 150.217C259.078 149.253 261.632 148.407 263.501 147.835C264.424 147.549 265.19 147.327 265.717 147.184L266.326 147.022C266.4 146.998 266.476 146.983 266.553 146.98Z" fill="#263238"/>
<path d="M139.852 138.158C216.814 138.158 282.5 177.133 282.5 177.133H0.5C0.5 177.133 62.89 138.158 139.852 138.158Z" fill="url(#paint0_linear_86_594)"/>
<path d="M176.698 60.4826C176.621 60.4918 176.543 60.4801 176.472 60.4487C176.401 60.4173 176.34 60.3674 176.295 60.3042C176.25 60.2411 176.223 60.167 176.217 60.0897C176.21 60.0125 176.225 59.935 176.259 59.8654C176.793 58.7812 177.298 57.6593 177.746 56.5323C177.767 56.4799 177.798 56.4322 177.838 56.3919C177.877 56.3515 177.924 56.3193 177.976 56.2972C178.028 56.2751 178.084 56.2634 178.141 56.2628C178.197 56.2622 178.253 56.2728 178.306 56.2939C178.358 56.3149 178.406 56.3461 178.446 56.3857C178.486 56.4252 178.519 56.4723 178.541 56.5243C178.563 56.5762 178.575 56.6321 178.575 56.6885C178.576 56.745 178.565 56.8011 178.544 56.8535C178.08 58.0005 177.574 59.1418 177.03 60.2453C177 60.3102 176.953 60.3664 176.895 60.4087C176.837 60.451 176.769 60.4781 176.698 60.4875L176.698 60.4826ZM179.795 52.4804C179.725 52.4897 179.652 52.4812 179.586 52.4556C179.519 52.4301 179.459 52.3883 179.413 52.334C179.366 52.2798 179.334 52.2148 179.318 52.1448C179.303 52.0749 179.305 52.0023 179.325 51.9336C179.663 50.7698 179.961 49.5776 180.21 48.3923C180.221 48.3363 180.243 48.2829 180.275 48.2355C180.307 48.188 180.347 48.1473 180.395 48.1158C180.443 48.0842 180.496 48.0625 180.552 48.0519C180.608 48.0412 180.666 48.0418 180.722 48.0537C180.778 48.0656 180.831 48.0885 180.878 48.121C180.925 48.1536 180.964 48.1952 180.995 48.2433C181.026 48.2915 181.047 48.3453 181.056 48.4016C181.066 48.4579 181.064 48.5155 181.051 48.5712C180.797 49.7782 180.493 50.9912 180.151 52.1748C180.128 52.2567 180.08 52.3298 180.015 52.3848C179.95 52.4397 179.87 52.4741 179.786 52.4836L179.795 52.4804ZM181.461 44.0566C181.397 44.0644 181.332 44.0575 181.27 44.0366C181.209 44.0156 181.153 43.981 181.107 43.9355C181.061 43.8899 181.025 43.8345 181.003 43.7734C180.982 43.7123 180.974 43.6471 180.981 43.5826C181.078 42.685 181.151 41.7744 181.197 40.8751C181.201 40.7738 181.206 40.6758 181.211 40.5812C180.675 40.7688 180.122 40.8992 179.559 40.9704L179.537 40.9731C179.424 40.987 179.31 40.9553 179.22 40.8851C179.13 40.8149 179.072 40.7119 179.058 40.5987C179.044 40.4855 179.076 40.3714 179.146 40.2815C179.216 40.1917 179.319 40.1334 179.432 40.1195L179.451 40.1172C180.607 39.9496 181.715 39.5474 182.709 38.9353C182.758 38.9058 182.812 38.8864 182.869 38.878C182.925 38.8696 182.982 38.8725 183.037 38.8864C183.093 38.9004 183.144 38.9252 183.19 38.9594C183.235 38.9935 183.274 39.0364 183.303 39.0855C183.331 39.1345 183.35 39.1889 183.358 39.2453C183.366 39.3017 183.362 39.359 183.347 39.414C183.333 39.469 183.307 39.5206 183.273 39.5657C183.238 39.6107 183.194 39.6485 183.145 39.6767C182.801 39.8793 182.446 40.0641 182.083 40.2303C182.077 40.4446 182.067 40.6725 182.054 40.9199C182.007 41.8324 181.934 42.7613 181.835 43.6752C181.824 43.7716 181.782 43.8617 181.714 43.9308C181.646 43.9999 181.556 44.0439 181.46 44.0557L181.461 44.0566ZM175.078 39.419C175.009 39.4274 174.939 39.419 174.874 39.3945C174.809 39.37 174.751 39.3302 174.705 39.2784C174.171 38.6929 173.803 37.9758 173.638 37.2008C173.619 37.1105 173.605 37.0166 173.593 36.9233C173.535 36.4387 173.566 35.9475 173.685 35.4742C173.72 35.3713 173.792 35.2851 173.887 35.2329C173.982 35.1808 174.093 35.1665 174.198 35.1929C174.304 35.2194 174.395 35.2847 174.454 35.3756C174.513 35.4666 174.536 35.5765 174.517 35.6834C174.424 36.0546 174.4 36.4397 174.447 36.8194C174.454 36.8915 174.466 36.9631 174.481 37.0339C174.615 37.6573 174.913 38.2338 175.343 38.7043C175.396 38.7626 175.431 38.8343 175.446 38.9114C175.461 38.9886 175.454 39.0683 175.426 39.1418C175.399 39.2153 175.351 39.2799 175.29 39.3284C175.228 39.377 175.154 39.4077 175.076 39.4171L175.078 39.419ZM186.735 36.6003C186.648 36.6114 186.56 36.5957 186.482 36.5553C186.404 36.5149 186.341 36.4518 186.3 36.3743C186.259 36.2968 186.243 36.2087 186.253 36.1218C186.264 36.0348 186.301 35.9532 186.359 35.8878C187.154 34.9914 187.849 34.0118 188.434 32.9662C188.489 32.8666 188.582 32.7933 188.692 32.7623C188.802 32.7313 188.92 32.7453 189.019 32.8011C189.119 32.8568 189.192 32.9499 189.223 33.0597C189.254 33.1696 189.24 33.2872 189.185 33.3868C188.57 34.4862 187.838 35.5161 187.003 36.4586C186.934 36.5364 186.84 36.5866 186.737 36.6001L186.735 36.6003ZM180.729 35.633C180.647 35.643 180.564 35.6293 180.49 35.5934C180.415 35.5576 180.353 35.5011 180.309 35.4306C180.022 34.9534 179.642 34.5387 179.191 34.2109C178.74 33.8831 178.229 33.6489 177.686 33.5221C177.629 33.5129 177.575 33.4923 177.526 33.4616C177.477 33.4309 177.435 33.3907 177.402 33.3434C177.369 33.296 177.346 33.2426 177.334 33.1861C177.322 33.1297 177.322 33.0714 177.333 33.0148C177.344 32.9583 177.366 32.9045 177.399 32.8567C177.431 32.8089 177.473 32.7681 177.521 32.7368C177.569 32.7054 177.624 32.6841 177.681 32.6741C177.737 32.6641 177.796 32.6657 177.852 32.6786C178.51 32.8299 179.132 33.1117 179.68 33.5073C180.228 33.9029 180.691 34.4044 181.042 34.982C181.08 35.0433 181.102 35.1131 181.106 35.185C181.109 35.257 181.095 35.3287 181.063 35.3935C181.032 35.4584 180.985 35.5143 180.927 35.5562C180.868 35.5981 180.801 35.6244 180.729 35.633Z" fill="#FF0000"/>
<path d="M221.132 25.2542C221.099 25.5469 220.989 25.8257 220.814 26.0625C220.639 26.2993 220.405 26.4857 220.135 26.6028L200.979 34.8891C200.587 35.0593 200.145 35.0728 199.743 34.927L190.374 31.5435C190.159 31.4658 189.961 31.3447 189.795 31.1879C189.628 31.0311 189.495 30.8418 189.404 30.6317C189.313 30.4216 189.266 30.1951 189.265 29.9661C189.265 29.7371 189.312 29.5105 189.402 29.3002L193.333 20.1611C193.501 19.769 193.813 19.4563 194.205 19.2873L213.36 11.0002C213.768 10.8244 214.229 10.8176 214.642 10.9812C215.056 11.1448 215.387 11.4654 215.564 11.873L221.004 24.4035C221.121 24.6724 221.166 24.9676 221.132 25.2592L221.132 25.2542Z" fill="black"/>
<path opacity="0.65" d="M221.132 25.2542C221.099 25.5469 220.989 25.8257 220.814 26.0625C220.639 26.2993 220.405 26.4857 220.135 26.6028L200.979 34.8891C200.587 35.0593 200.145 35.0728 199.743 34.927L190.374 31.5435C190.159 31.4658 189.961 31.3447 189.795 31.1879C189.628 31.0311 189.495 30.8418 189.404 30.6317C189.313 30.4216 189.266 30.1951 189.265 29.9661C189.265 29.7371 189.312 29.5105 189.402 29.3002L193.333 20.1611C193.501 19.769 193.813 19.4563 194.205 19.2873L213.36 11.0002C213.768 10.8244 214.229 10.8176 214.642 10.9812C215.056 11.1448 215.387 11.4654 215.564 11.873L221.004 24.4035C221.121 24.6724 221.166 24.9676 221.132 25.2592L221.132 25.2542Z" fill="#FF0000"/>
<path d="M190.752 17.9261L189.242 29.7786C189.217 30.0048 189.239 30.2336 189.307 30.4507C189.376 30.6677 189.488 30.8681 189.638 31.0392C189.788 31.2103 189.972 31.3484 190.178 31.4445C190.385 31.5407 190.609 31.5929 190.836 31.5978L202.79 31.6625C203.138 31.6667 203.474 31.5433 203.737 31.3155L220.783 16.395C221.077 16.119 221.25 15.7374 221.264 15.334C221.277 14.9306 221.13 14.5382 220.855 14.2431L210.409 2.32536C210.152 2.01407 209.783 1.81697 209.382 1.77714C208.98 1.73731 208.579 1.85799 208.267 2.11281L191.221 17.0344C190.961 17.2642 190.794 17.5815 190.752 17.9261ZM195.418 25.9806C195.656 26.2539 195.792 26.6013 195.803 26.9637C195.814 27.3261 195.699 27.6811 195.477 27.9682C195.256 28.2552 194.942 28.4565 194.588 28.5378C194.235 28.6191 193.864 28.5753 193.539 28.414C193.215 28.2526 192.956 27.9836 192.807 27.6529C192.659 27.3222 192.63 26.9501 192.725 26.6002C192.82 26.2503 193.033 25.9441 193.328 25.7339C193.624 25.5237 193.983 25.4224 194.345 25.4474C194.759 25.476 195.145 25.6678 195.418 25.9806Z" fill="#FF0000"/>
<path d="M202.11 18.2083C201.398 18.2081 200.711 17.9421 200.185 17.4626C199.658 16.983 199.329 16.3242 199.263 15.6151C199.196 14.906 199.396 14.1976 199.824 13.6282C200.252 13.0589 200.877 12.6697 201.577 12.5367C202.276 12.4037 203.001 12.5364 203.608 12.909C204.215 13.2815 204.661 13.8671 204.859 14.5512C205.057 15.2353 204.993 15.9687 204.679 16.6081C204.365 17.2474 203.824 17.7467 203.162 18.0083C202.827 18.1406 202.47 18.2085 202.11 18.2083ZM202.11 13.5653C201.667 13.5644 201.239 13.728 200.909 14.0243C200.58 14.3207 200.372 14.7288 200.326 15.1696C200.28 15.6105 200.399 16.0527 200.661 16.4107C200.922 16.7687 201.307 17.017 201.741 17.1076C202.174 17.1981 202.626 17.1245 203.009 16.9009C203.392 16.6774 203.678 16.3198 203.812 15.8974C203.946 15.4749 203.919 15.0178 203.736 14.6143C203.552 14.2109 203.226 13.8898 202.819 13.7133C202.595 13.6162 202.354 13.5658 202.11 13.5653Z" fill="white"/>
<path d="M203.409 22.8006C203.32 22.8006 203.233 22.7786 203.155 22.7365C203.077 22.6945 203.011 22.6338 202.963 22.5598C202.914 22.4858 202.885 22.4009 202.877 22.3127C202.869 22.2246 202.884 22.1359 202.919 22.0546L207.554 11.3386C207.579 11.2711 207.618 11.2095 207.669 11.1576C207.719 11.1056 207.779 11.0643 207.845 11.0362C207.912 11.0081 207.983 10.9938 208.055 10.9941C208.128 10.9945 208.199 11.0094 208.265 11.0381C208.332 11.0668 208.391 11.1086 208.441 11.161C208.491 11.2135 208.529 11.2754 208.554 11.3431C208.579 11.4109 208.59 11.483 208.586 11.5551C208.583 11.6272 208.564 11.6978 208.533 11.7626L203.898 22.4786C203.856 22.5741 203.788 22.6554 203.701 22.7126C203.615 22.7698 203.513 22.8004 203.409 22.8006Z" fill="white"/>
<path d="M209.301 21.3197C208.589 21.3194 207.903 21.0535 207.376 20.5739C206.85 20.0943 206.521 19.4356 206.454 18.7265C206.387 18.0174 206.588 17.3089 207.015 16.7396C207.443 16.1703 208.068 15.781 208.768 15.648C209.468 15.515 210.192 15.6477 210.799 16.0203C211.406 16.3928 211.852 16.9784 212.05 17.6625C212.249 18.3466 212.185 19.08 211.871 19.7194C211.557 20.3587 211.016 20.858 210.353 21.1197C210.018 21.2519 209.662 21.3198 209.301 21.3197ZM209.301 16.6777C208.859 16.677 208.432 16.8405 208.104 17.1364C207.775 17.4324 207.568 17.8398 207.522 18.2797C207.477 18.7196 207.596 19.1607 207.857 19.5177C208.118 19.8747 208.502 20.1222 208.935 20.2123C209.368 20.3023 209.819 20.2285 210.201 20.0051C210.582 19.7817 210.868 19.4246 211.001 19.003C211.135 18.5814 211.107 18.1253 210.924 17.7228C210.74 17.3204 210.414 17.0004 210.008 16.8247C209.785 16.728 209.545 16.678 209.301 16.6777Z" fill="white"/>
<path d="M220.742 45.9941L205.024 46.7463L204.891 46.7626C204.763 46.7878 204.641 46.8394 204.534 46.9142L204.511 46.9301L204.487 46.9502C204.414 47.0087 204.35 47.0781 204.297 47.1559C204.287 47.1703 204.277 47.1845 204.268 47.1997L204.256 47.2224C204.245 47.2419 204.234 47.2624 204.224 47.2828L192.64 72.1801L106.376 60.0304C106.233 60.0099 106.087 60.0229 105.949 60.0683C105.812 60.1137 105.686 60.1903 105.583 60.2922C105.48 60.394 105.402 60.5183 105.355 60.6553C105.308 60.7923 105.294 60.9383 105.312 61.0819L111.603 108.972C111.63 109.176 111.724 109.366 111.869 109.512C112.014 109.658 112.203 109.752 112.407 109.78L112.423 109.778L159.774 116.457L160.295 116.531L172.545 118.258L172.553 118.256L177.924 119.014C180.501 119.377 182.292 120.324 183.249 121.83C184.122 123.438 184.394 125.304 184.016 127.094C183.749 128.972 182.748 130.667 181.232 131.807C179.717 132.946 177.81 133.438 175.933 133.173L94.726 121.724C94.6038 121.707 94.4794 121.714 94.36 121.745C94.2406 121.776 94.1284 121.83 94.0299 121.904C93.9314 121.978 93.8484 122.071 93.7858 122.178C93.7232 122.284 93.6822 122.402 93.665 122.524C93.6479 122.646 93.655 122.77 93.6859 122.89C93.7168 123.009 93.7709 123.121 93.8452 123.22C93.9195 123.318 94.0124 123.401 94.1187 123.464C94.225 123.527 94.3426 123.568 94.4648 123.585L175.676 135.033C178.048 135.367 180.455 134.746 182.369 133.307C184.283 131.867 185.547 129.727 185.884 127.356C186.328 125.123 185.956 122.806 184.834 120.825C183.568 118.832 181.33 117.598 178.181 117.153L174.06 116.573L194.039 73.6183L194.044 73.6066L205.682 48.5888L220.835 47.8697C221.084 47.8571 221.318 47.7463 221.485 47.5616C221.652 47.3769 221.739 47.1334 221.727 46.8846C221.715 46.6359 221.604 46.4021 221.42 46.2347C221.235 46.0674 220.992 45.9801 220.743 45.992L220.742 45.9941ZM174.128 71.4788L170.968 81.2055L148.655 78.0583L150.05 68.0839L174.128 71.4788ZM146.025 90.5117L144.505 101.351L127.383 98.9363L126.988 87.8277L146.025 90.5117ZM126.956 86.938L126.561 75.8343L147.66 78.8051L146.146 89.6435L126.956 86.938ZM146.894 90.6357L166.989 93.4678L163.553 104.036L145.375 101.473L146.894 90.6357ZM147.016 89.7673L148.535 78.9295L170.693 82.0523L167.256 92.621L147.016 89.7673ZM149.184 67.9626L147.789 77.9369L126.531 74.9392L126.167 64.7155L149.184 67.9626ZM107.339 62.0632L125.282 64.5955L125.646 74.8192L108.7 72.4266L107.339 62.0632ZM108.823 73.3293L125.681 75.7067L126.075 86.8144L110.301 84.5902L108.823 73.3293ZM110.417 85.4927L126.104 87.7045L126.5 98.8131L111.895 96.7536L110.417 85.4927ZM113.376 108.02L112.015 97.6557L126.532 99.7017L126.898 109.925L113.376 108.02ZM127.78 110.05L127.415 99.8261L144.389 102.218L142.994 112.193L127.78 110.05ZM143.857 112.316L145.251 102.341L163.274 104.877L160.116 114.609L143.857 112.316ZM172.115 116.302L161.001 114.736L164.162 105.009L176.556 106.757L172.115 116.302ZM176.942 105.919L164.434 104.156L167.871 93.5872L181.766 95.5535L176.942 105.919ZM182.157 94.7197L168.144 92.7447L171.581 82.176L186.982 84.3474L182.157 94.7197ZM187.368 83.516L171.848 81.3302L175.012 71.5981L191.8 73.9698L187.368 83.516Z" fill="#FF0000"/>
<path d="M178.065 135.226C177.263 135.324 176.451 135.316 175.651 135.202L94.4406 123.756C94.296 123.736 94.1567 123.687 94.0308 123.613C93.9049 123.539 93.7948 123.441 93.7068 123.324C93.6188 123.208 93.5547 123.075 93.518 122.934C93.4813 122.792 93.4728 122.645 93.4931 122.501C93.5133 122.356 93.5618 122.217 93.6358 122.091C93.7098 121.965 93.8079 121.855 93.9245 121.767C94.0411 121.679 94.1738 121.615 94.3152 121.578C94.4566 121.541 94.6038 121.533 94.7484 121.553L175.959 133.001C177.791 133.259 179.652 132.78 181.131 131.667C182.61 130.555 183.586 128.901 183.847 127.069C184.215 125.319 183.95 123.494 183.098 121.922C182.17 120.461 180.419 119.54 177.895 119.184L172.529 118.433L172.508 118.435L112.388 109.951L112.379 109.952C112.138 109.918 111.914 109.805 111.743 109.632C111.571 109.459 111.461 109.235 111.428 108.994L105.138 61.1032C105.116 60.9334 105.133 60.7606 105.188 60.5986C105.244 60.4365 105.336 60.2895 105.458 60.1689C105.58 60.0484 105.728 59.9577 105.89 59.9039C106.053 59.8501 106.226 59.8346 106.396 59.8587L192.526 72.0015L204.055 47.2097C204.066 47.1862 204.079 47.1645 204.091 47.1418L204.102 47.1203L204.131 47.0764L204.138 47.0675C204.201 46.9755 204.276 46.8935 204.363 46.8243L204.369 46.8235L204.392 46.8056L204.414 46.7909L204.42 46.7902C204.546 46.7012 204.69 46.6399 204.842 46.6104L205.007 46.5901L220.722 45.8383C221.017 45.8237 221.305 45.9269 221.524 46.125C221.743 46.3231 221.874 46.5999 221.888 46.8946C221.903 47.1893 221.799 47.4776 221.601 47.6963C221.403 47.9149 221.126 48.046 220.832 48.0605L205.794 48.7623L174.315 116.436L178.203 116.984C181.405 117.436 183.683 118.697 184.978 120.735C186.122 122.749 186.504 125.109 186.052 127.381C185.766 129.385 184.829 131.238 183.385 132.656C181.941 134.074 180.071 134.977 178.063 135.226L178.065 135.226ZM94.5001 121.894C94.3151 121.916 94.1446 122.005 94.0203 122.144C93.896 122.282 93.8264 122.462 93.8246 122.648C93.8228 122.834 93.8889 123.015 94.0105 123.156C94.1321 123.297 94.3009 123.389 94.4854 123.415L175.697 134.864C178.023 135.193 180.385 134.584 182.263 133.172C184.141 131.761 185.381 129.661 185.712 127.335C186.15 125.144 185.787 122.868 184.688 120.921C183.45 118.974 181.253 117.765 178.156 117.329L173.806 116.716L173.904 116.503L205.57 48.4272L220.824 47.6977C221.028 47.6877 221.219 47.5974 221.355 47.4467C221.492 47.2959 221.563 47.0971 221.553 46.8939C221.543 46.6907 221.453 46.4998 221.302 46.3632C221.151 46.2266 220.952 46.1554 220.749 46.1654L205.036 46.919L204.921 46.9331C204.818 46.9537 204.72 46.9956 204.634 47.0561L204.619 47.0659L204.609 47.0732L204.594 47.0851C204.534 47.1327 204.481 47.1891 204.438 47.2524L204.431 47.2573L204.413 47.2847L204.405 47.2998L204.375 47.3538L204.376 47.3647L192.738 72.3805L192.611 72.3629L106.351 60.2068C106.234 60.1902 106.115 60.201 106.002 60.2381C105.89 60.2752 105.788 60.3378 105.704 60.4208C105.62 60.5039 105.556 60.6052 105.518 60.717C105.48 60.8287 105.468 60.9478 105.483 61.0649L111.773 108.955C111.795 109.121 111.871 109.274 111.988 109.393C112.105 109.512 112.257 109.59 112.422 109.615L112.448 109.612L177.943 118.848C180.573 119.218 182.405 120.193 183.39 121.743C184.288 123.383 184.571 125.29 184.19 127.121C184.056 128.074 183.736 128.991 183.247 129.82C182.758 130.649 182.111 131.373 181.342 131.951C180.573 132.529 179.698 132.95 178.766 133.19C177.834 133.429 176.864 133.482 175.912 133.347L94.7012 121.898C94.6343 121.888 94.5674 121.886 94.5001 121.894ZM172.215 116.489L160.77 114.872L164.037 104.809L176.808 106.616L172.215 116.489ZM161.227 114.591L172.013 116.111L176.302 106.892L164.279 105.198L161.227 114.591ZM160.235 114.8L143.657 112.465L145.103 102.148L163.501 104.742L160.235 114.8ZM144.049 112.17L159.996 114.418L163.046 105.024L145.397 102.537L144.049 112.17ZM143.131 112.383L127.61 110.202L127.234 99.6276L144.578 102.073L143.131 112.383ZM127.944 109.9L142.837 112L144.186 102.364L127.592 100.026L127.944 109.9ZM177.041 106.112L164.205 104.303L167.746 93.401L182.018 95.4136L177.041 106.112ZM164.661 104.018L176.837 105.735L181.509 95.6907L167.986 93.7846L164.661 104.018ZM127.073 110.125L113.218 108.172L111.811 97.453L126.698 99.5544L127.073 110.125ZM113.527 107.867L126.712 109.726L126.36 99.8527L112.212 97.8621L113.527 107.867ZM163.668 104.23L145.177 101.624L146.743 90.4436L146.914 90.4679L167.214 93.3283L163.668 104.23ZM145.566 101.326L163.428 103.844L166.753 93.6086L147.036 90.8297L145.566 101.326ZM144.647 101.54L144.476 101.515L127.211 99.0813L126.805 87.6274L146.216 90.3642L144.647 101.54ZM127.546 98.7862L144.354 101.155L145.825 90.659L127.165 88.0275L127.546 98.7862ZM182.252 94.9084L167.911 92.887L171.45 81.9855L187.226 84.2095L182.252 94.9084ZM168.367 92.6023L182.046 94.5307L186.719 84.4863L171.691 82.3669L168.367 92.6023ZM126.675 99.0111L111.737 96.9048L110.21 85.2894L126.265 87.5496L126.675 99.0111ZM112.045 96.601L126.316 98.6139L125.933 87.8563L110.614 85.6972L112.045 96.601ZM167.375 92.8128L167.232 92.7921L146.817 89.9126L148.382 78.7326L170.916 81.91L167.375 92.8128ZM147.206 89.621L167.136 92.4291L170.46 82.1937L148.677 79.1255L147.206 89.621ZM146.287 89.8346L146.116 89.8103L126.783 87.089L126.375 75.6293L147.856 78.6571L146.287 89.8346ZM127.119 86.7869L145.995 89.4463L147.465 78.9498L126.735 76.0275L127.119 86.7869ZM187.463 83.7038L171.619 81.4701L174.887 71.4098L192.055 73.8296L187.463 83.7038ZM172.074 81.1864L187.256 83.3272L191.545 74.1078L175.125 71.7916L172.074 81.1864ZM126.243 87.0153L110.139 84.741L108.612 73.1275L125.845 75.5555L126.243 87.0153ZM110.447 84.4361L125.887 86.6127L125.505 75.8551L109.015 73.5313L110.447 84.4361ZM171.083 81.3948L170.94 81.3741L148.456 78.2097L149.901 67.8926L174.35 71.3387L171.083 81.3948ZM148.846 77.9108L170.843 81.0122L173.893 71.6185L150.195 68.2817L148.846 77.9108ZM147.928 78.1243L126.355 75.0887L125.982 64.5144L126.187 64.5426L149.378 67.8117L147.928 78.1243ZM126.69 74.7877L147.635 77.7391L148.985 68.1028L126.34 64.9137L126.69 74.7877ZM125.819 75.0135L108.542 72.577L107.133 61.8588L125.443 64.4396L125.819 75.0135ZM108.85 72.2721L125.459 74.6134L125.103 64.7412L107.53 62.2643L108.85 72.2721Z" fill="#FF0000"/>
<path d="M114.966 128.558C113.718 128.388 112.449 128.655 111.376 129.315C110.302 129.974 109.491 130.986 109.079 132.176C108.667 133.367 108.681 134.664 109.117 135.846C109.554 137.027 110.387 138.021 111.474 138.658C112.561 139.295 113.835 139.536 115.079 139.339C116.324 139.143 117.462 138.521 118.299 137.58C119.137 136.638 119.622 135.436 119.673 134.177C119.724 132.918 119.337 131.681 118.578 130.675C118.145 130.102 117.603 129.62 116.983 129.256C116.364 128.893 115.678 128.656 114.966 128.558ZM117.755 134.463C117.639 135.281 117.243 136.033 116.634 136.593C116.026 137.152 115.242 137.482 114.417 137.529C113.592 137.575 112.776 137.334 112.109 136.846C111.442 136.359 110.964 135.655 110.758 134.855C110.551 134.055 110.628 133.208 110.976 132.458C111.323 131.709 111.92 131.103 112.664 130.743C113.408 130.384 114.254 130.294 115.057 130.489C115.861 130.683 116.572 131.15 117.069 131.809C117.352 132.185 117.558 132.612 117.676 133.068C117.794 133.523 117.82 133.997 117.755 134.463Z" fill="#FF0000"/>
<path d="M114.9 139.551C113.733 139.694 112.552 139.467 111.52 138.904C110.489 138.34 109.66 137.468 109.15 136.41C108.64 135.351 108.475 134.159 108.676 133.001C108.878 131.844 109.438 130.778 110.276 129.955C111.114 129.131 112.19 128.591 113.351 128.41C114.512 128.229 115.7 128.416 116.75 128.945C117.799 129.474 118.656 130.318 119.201 131.359C119.746 132.4 119.952 133.586 119.788 134.75C119.616 135.977 119.043 137.113 118.16 137.981C117.276 138.849 116.13 139.401 114.9 139.551ZM113.563 128.715C112.229 128.878 111.007 129.542 110.145 130.572C109.282 131.603 108.844 132.923 108.919 134.264C108.993 135.606 109.576 136.869 110.548 137.797C111.519 138.725 112.808 139.249 114.152 139.262C115.495 139.276 116.794 138.777 117.783 137.868C118.773 136.959 119.38 135.708 119.481 134.368C119.583 133.028 119.17 131.7 118.328 130.652C117.486 129.605 116.277 128.918 114.946 128.729C114.488 128.664 114.023 128.659 113.563 128.715ZM114.675 137.685C113.897 137.782 113.109 137.632 112.421 137.258C111.733 136.884 111.179 136.303 110.837 135.598C110.496 134.893 110.384 134.099 110.517 133.327C110.651 132.555 111.023 131.844 111.581 131.294C112.139 130.744 112.855 130.383 113.629 130.261C114.403 130.139 115.196 130.263 115.896 130.615C116.596 130.967 117.168 131.529 117.532 132.223C117.896 132.917 118.033 133.707 117.925 134.483C117.81 135.3 117.429 136.056 116.842 136.634C116.254 137.213 115.492 137.582 114.674 137.684L114.675 137.685ZM113.794 130.583C112.934 130.687 112.145 131.115 111.589 131.779C111.032 132.443 110.749 133.294 110.797 134.159C110.845 135.024 111.22 135.839 111.846 136.437C112.473 137.036 113.303 137.374 114.17 137.382C115.036 137.391 115.873 137.07 116.511 136.484C117.15 135.898 117.541 135.091 117.606 134.227C117.671 133.363 117.405 132.507 116.862 131.832C116.319 131.157 115.539 130.714 114.681 130.592C114.387 130.551 114.089 130.548 113.794 130.583Z" fill="#FF0000"/>
<path d="M162.58 135.256C161.331 135.085 160.062 135.352 158.989 136.012C157.916 136.672 157.104 137.683 156.692 138.874C156.28 140.064 156.294 141.361 156.731 142.543C157.167 143.725 158 144.719 159.087 145.356C160.174 145.993 161.448 146.233 162.693 146.037C163.937 145.84 165.075 145.218 165.913 144.277C166.75 143.336 167.236 142.133 167.287 140.874C167.337 139.616 166.95 138.378 166.192 137.372C165.758 136.799 165.216 136.317 164.597 135.954C163.977 135.591 163.291 135.353 162.58 135.256ZM165.367 141.16C165.251 141.978 164.855 142.73 164.246 143.288C163.638 143.846 162.854 144.177 162.03 144.222C161.205 144.268 160.39 144.027 159.724 143.54C159.057 143.052 158.58 142.349 158.374 141.549C158.168 140.749 158.245 139.903 158.592 139.154C158.94 138.405 159.537 137.799 160.28 137.44C161.024 137.082 161.869 136.992 162.672 137.186C163.475 137.381 164.185 137.847 164.683 138.507C164.965 138.882 165.171 139.31 165.289 139.765C165.406 140.22 165.433 140.694 165.367 141.16Z" fill="#FF0000"/>
<path d="M162.511 146.248C161.344 146.391 160.162 146.164 159.13 145.6C158.099 145.036 157.27 144.164 156.76 143.104C156.249 142.045 156.084 140.852 156.286 139.694C156.489 138.536 157.049 137.47 157.888 136.647C158.727 135.823 159.803 135.283 160.965 135.103C162.127 134.922 163.316 135.11 164.365 135.64C165.415 136.17 166.272 137.015 166.817 138.057C167.361 139.099 167.566 140.286 167.401 141.45C167.228 142.676 166.655 143.811 165.771 144.679C164.887 145.547 163.741 146.098 162.511 146.248ZM161.175 135.412C159.839 135.573 158.614 136.237 157.749 137.268C156.885 138.299 156.445 139.621 156.519 140.965C156.593 142.309 157.175 143.574 158.148 144.504C159.121 145.434 160.411 145.959 161.757 145.973C163.103 145.987 164.403 145.488 165.395 144.578C166.386 143.668 166.994 142.415 167.096 141.073C167.197 139.731 166.784 138.4 165.941 137.352C165.097 136.303 163.886 135.614 162.554 135.426C162.097 135.361 161.633 135.356 161.175 135.412ZM162.282 144.381C161.505 144.476 160.718 144.325 160.031 143.95C159.343 143.575 158.791 142.994 158.451 142.289C158.111 141.583 158 140.789 158.135 140.018C158.269 139.247 158.642 138.537 159.2 137.988C159.759 137.44 160.475 137.08 161.249 136.959C162.022 136.838 162.814 136.963 163.513 137.316C164.212 137.668 164.783 138.231 165.146 138.924C165.509 139.618 165.646 140.408 165.537 141.183C165.422 142 165.04 142.756 164.451 143.334C163.863 143.912 163.101 144.28 162.282 144.381ZM161.41 137.279C160.781 137.357 160.186 137.609 159.693 138.008C159.199 138.406 158.827 138.934 158.618 139.533C158.409 140.132 158.372 140.777 158.511 141.396C158.649 142.014 158.958 142.582 159.402 143.035C159.846 143.487 160.408 143.806 161.024 143.956C161.64 144.106 162.286 144.081 162.888 143.884C163.491 143.686 164.026 143.324 164.433 142.838C164.841 142.352 165.104 141.762 165.194 141.134C165.266 140.617 165.218 140.09 165.054 139.595C164.89 139.099 164.614 138.647 164.248 138.275C163.882 137.903 163.435 137.619 162.942 137.447C162.449 137.274 161.924 137.217 161.405 137.279L161.41 137.279Z" fill="#FF0000"/>
<path d="M162.099 138.667C161.639 138.604 161.171 138.702 160.775 138.945C160.379 139.188 160.079 139.56 159.927 139.999C159.774 140.438 159.779 140.916 159.94 141.352C160.1 141.788 160.407 142.155 160.808 142.39C161.208 142.625 161.678 142.714 162.137 142.642C162.596 142.57 163.016 142.341 163.325 141.994C163.634 141.647 163.813 141.204 163.832 140.739C163.851 140.275 163.709 139.819 163.429 139.448C163.269 139.237 163.07 139.059 162.842 138.925C162.613 138.791 162.361 138.703 162.099 138.667ZM162.945 140.818C162.908 141.078 162.782 141.316 162.589 141.493C162.396 141.67 162.148 141.775 161.886 141.789C161.624 141.804 161.366 141.727 161.154 141.572C160.943 141.417 160.792 141.194 160.726 140.94C160.661 140.686 160.686 140.418 160.796 140.18C160.907 139.942 161.097 139.75 161.333 139.637C161.569 139.523 161.837 139.495 162.092 139.557C162.346 139.619 162.572 139.768 162.729 139.977C162.91 140.218 162.988 140.52 162.945 140.818Z" fill="#FF0000"/>
<path d="M162.086 142.829C161.779 142.864 161.467 142.834 161.172 142.741C160.877 142.647 160.605 142.491 160.374 142.285C160.144 142.078 159.96 141.824 159.835 141.541C159.71 141.258 159.646 140.951 159.649 140.641C159.651 140.332 159.719 140.026 159.849 139.745C159.978 139.463 160.166 139.213 160.4 139.009C160.633 138.806 160.908 138.655 161.204 138.566C161.501 138.477 161.813 138.452 162.12 138.492C162.648 138.562 163.133 138.823 163.482 139.225C163.832 139.627 164.023 140.143 164.018 140.676C164.014 141.209 163.815 141.722 163.459 142.118C163.103 142.515 162.615 142.767 162.085 142.829L162.086 142.829ZM161.596 138.833C161.13 138.888 160.703 139.118 160.402 139.476C160.1 139.835 159.946 140.295 159.97 140.762C159.995 141.23 160.197 141.671 160.535 141.996C160.873 142.32 161.322 142.504 161.791 142.51C162.259 142.515 162.712 142.342 163.058 142.026C163.404 141.71 163.616 141.274 163.652 140.807C163.688 140.34 163.545 139.876 163.252 139.511C162.959 139.145 162.538 138.905 162.074 138.838C161.914 138.816 161.752 138.814 161.592 138.834L161.596 138.833ZM161.979 141.957C161.708 141.99 161.434 141.938 161.195 141.807C160.955 141.676 160.763 141.474 160.644 141.228C160.526 140.982 160.487 140.705 160.534 140.437C160.581 140.168 160.711 139.92 160.905 139.729C161.1 139.538 161.35 139.412 161.619 139.37C161.889 139.328 162.165 139.372 162.409 139.495C162.652 139.617 162.851 139.814 162.978 140.055C163.104 140.297 163.152 140.572 163.114 140.843C163.074 141.127 162.941 141.391 162.736 141.592C162.531 141.794 162.265 141.922 161.979 141.957ZM161.703 139.705C161.525 139.727 161.356 139.799 161.216 139.911C161.077 140.024 160.971 140.174 160.912 140.343C160.853 140.513 160.843 140.695 160.882 140.871C160.921 141.046 161.009 141.206 161.135 141.334C161.261 141.462 161.42 141.553 161.594 141.595C161.769 141.637 161.952 141.63 162.122 141.573C162.293 141.517 162.444 141.414 162.559 141.276C162.674 141.139 162.748 140.971 162.773 140.794C162.794 140.648 162.78 140.499 162.734 140.359C162.688 140.219 162.61 140.091 162.507 139.986C162.403 139.881 162.277 139.801 162.138 139.752C161.999 139.703 161.849 139.687 161.703 139.705Z" fill="#FF0000"/>
<path d="M114.486 131.948C114.025 131.885 113.557 131.983 113.161 132.226C112.765 132.469 112.466 132.841 112.313 133.28C112.161 133.719 112.166 134.197 112.326 134.633C112.487 135.069 112.794 135.436 113.195 135.671C113.595 135.906 114.065 135.995 114.524 135.923C114.983 135.851 115.403 135.622 115.712 135.275C116.021 134.928 116.2 134.485 116.219 134.021C116.238 133.557 116.095 133.1 115.816 132.729C115.656 132.518 115.457 132.34 115.228 132.206C115 132.072 114.748 131.985 114.486 131.948ZM115.332 134.099C115.295 134.359 115.169 134.597 114.976 134.774C114.783 134.952 114.534 135.056 114.273 135.071C114.011 135.085 113.752 135.008 113.541 134.853C113.329 134.698 113.178 134.475 113.113 134.221C113.048 133.967 113.073 133.699 113.183 133.461C113.294 133.224 113.483 133.032 113.719 132.918C113.956 132.805 114.224 132.776 114.479 132.838C114.733 132.901 114.958 133.049 115.116 133.258C115.297 133.499 115.374 133.801 115.332 134.099Z" fill="#FF0000"/>
<path d="M114.476 136.111C114.023 136.166 113.565 136.077 113.165 135.858C112.765 135.639 112.444 135.3 112.246 134.889C112.049 134.478 111.985 134.016 112.064 133.567C112.143 133.117 112.36 132.704 112.685 132.385C113.011 132.066 113.428 131.857 113.879 131.787C114.329 131.717 114.791 131.789 115.198 131.995C115.605 132.2 115.937 132.528 116.148 132.932C116.36 133.336 116.439 133.796 116.376 134.247C116.309 134.724 116.086 135.165 115.743 135.502C115.399 135.839 114.954 136.053 114.476 136.111ZM113.985 132.115C113.521 132.172 113.096 132.402 112.796 132.761C112.496 133.119 112.344 133.579 112.37 134.045C112.396 134.512 112.599 134.951 112.937 135.274C113.275 135.597 113.723 135.779 114.191 135.783C114.658 135.788 115.11 135.614 115.454 135.298C115.798 134.981 116.009 134.546 116.044 134.08C116.079 133.614 115.935 133.152 115.642 132.788C115.349 132.424 114.928 132.185 114.465 132.119C114.306 132.097 114.145 132.095 113.985 132.115ZM114.369 135.239C114.11 135.272 113.847 135.226 113.615 135.107C113.383 134.988 113.192 134.802 113.066 134.573C112.941 134.344 112.888 134.083 112.913 133.823C112.939 133.563 113.042 133.317 113.209 133.117C113.376 132.917 113.599 132.771 113.85 132.699C114.101 132.628 114.368 132.633 114.616 132.715C114.863 132.797 115.081 132.952 115.239 133.159C115.398 133.366 115.491 133.616 115.505 133.877C115.524 134.206 115.416 134.529 115.206 134.782C114.995 135.035 114.696 135.199 114.369 135.239ZM114.092 132.987C113.849 133.017 113.627 133.138 113.47 133.325C113.313 133.513 113.233 133.753 113.247 133.997C113.261 134.241 113.367 134.471 113.544 134.64C113.72 134.809 113.955 134.904 114.199 134.906C114.444 134.909 114.68 134.818 114.86 134.652C115.04 134.487 115.151 134.259 115.169 134.015C115.187 133.772 115.112 133.53 114.959 133.339C114.805 133.149 114.585 133.024 114.343 132.99C114.26 132.978 114.176 132.977 114.092 132.987Z" fill="#FF0000"/>
<path d="M105.739 106.43C105.806 106.439 105.874 106.432 105.937 106.409C106.001 106.387 106.058 106.351 106.105 106.302C106.152 106.254 106.188 106.196 106.21 106.132C106.231 106.068 106.238 106 106.229 105.933L103.637 86.2908C103.623 86.1757 103.564 86.0711 103.472 85.9998C103.381 85.9285 103.265 85.8963 103.15 85.9105C103.093 85.9182 103.038 85.9371 102.988 85.9661C102.939 85.995 102.896 86.0335 102.861 86.0792C102.826 86.1249 102.801 86.177 102.787 86.2325C102.772 86.288 102.769 86.3458 102.777 86.4026L105.368 106.051C105.38 106.146 105.423 106.234 105.49 106.303C105.557 106.371 105.645 106.416 105.739 106.43Z" fill="#FF0000"/>
<path d="M105.876 106.603C105.824 106.61 105.771 106.609 105.718 106.602C105.587 106.581 105.465 106.519 105.372 106.424C105.279 106.329 105.219 106.206 105.202 106.073L102.61 86.4249C102.599 86.3457 102.604 86.2651 102.625 86.1878C102.645 86.1105 102.68 86.0379 102.728 85.9742C102.777 85.9106 102.837 85.857 102.906 85.8167C102.975 85.7764 103.052 85.7501 103.131 85.7394C103.291 85.7197 103.452 85.7643 103.58 85.8635C103.707 85.9627 103.79 86.1083 103.81 86.2685L106.401 105.917C106.412 105.996 106.407 106.077 106.387 106.154C106.367 106.232 106.332 106.304 106.283 106.368C106.235 106.432 106.174 106.485 106.105 106.525C106.036 106.566 105.96 106.592 105.881 106.603L105.876 106.603ZM103.179 86.0821C103.144 86.0865 103.111 86.0977 103.08 86.1152C103.05 86.1326 103.023 86.156 103.002 86.1838C102.98 86.2116 102.965 86.2434 102.956 86.2773C102.947 86.3112 102.945 86.3465 102.95 86.3812L105.541 106.03C105.548 106.088 105.575 106.142 105.617 106.183C105.658 106.224 105.712 106.251 105.77 106.259C105.794 106.262 105.817 106.262 105.841 106.259C105.875 106.254 105.908 106.243 105.938 106.225C105.968 106.208 105.995 106.184 106.016 106.157C106.037 106.129 106.052 106.097 106.061 106.063C106.07 106.03 106.072 105.995 106.067 105.96L103.471 86.3132C103.462 86.2441 103.427 86.1813 103.372 86.1382C103.318 86.0952 103.248 86.0754 103.179 86.0831L103.179 86.0821Z" fill="#FF0000"/>
<path d="M98.0999 87.4044C98.1665 87.4139 98.2344 87.4078 98.2983 87.3865C98.3621 87.3652 98.4201 87.3293 98.4677 87.2816C98.5154 87.2339 98.5515 87.1757 98.5732 87.1117C98.5949 87.0477 98.6015 86.9796 98.5926 86.9127L97.1174 75.7351C97.1024 75.6205 97.0425 75.5165 96.9508 75.446C96.8591 75.3755 96.7432 75.3444 96.6285 75.3594C96.5139 75.3744 96.4099 75.4344 96.3394 75.5261C96.2689 75.6178 96.2378 75.7337 96.2528 75.8483L97.726 87.0261C97.7385 87.1213 97.7818 87.2098 97.8493 87.2781C97.9168 87.3464 98.0048 87.3908 98.0999 87.4044Z" fill="#FF0000"/>
<path d="M98.2341 87.5782C98.0738 87.5976 97.9124 87.5527 97.7852 87.4533C97.658 87.3539 97.5753 87.2082 97.5554 87.048L96.0822 75.8702C96.0684 75.7895 96.071 75.7068 96.0899 75.6271C96.1089 75.5475 96.1437 75.4725 96.1923 75.4066C96.2409 75.3407 96.3024 75.2853 96.3729 75.2438C96.4435 75.2022 96.5217 75.1753 96.6029 75.1648C96.6841 75.1542 96.7666 75.1601 96.8455 75.1822C96.9243 75.2043 96.9979 75.2421 97.0618 75.2933C97.1257 75.3445 97.1785 75.4081 97.2172 75.4802C97.256 75.5524 97.2797 75.6316 97.287 75.7132L98.7602 86.891C98.782 87.0509 98.7395 87.2128 98.6419 87.3414C98.5443 87.4699 98.3998 87.5545 98.2399 87.5765L98.2341 87.5782ZM96.6526 75.5271C96.6176 75.5313 96.5838 75.5426 96.5533 75.5602C96.5227 75.5778 96.496 75.6014 96.4748 75.6296C96.4324 75.6858 96.4139 75.7565 96.4234 75.8263L97.8966 87.0041C97.9045 87.0621 97.9312 87.1159 97.9727 87.1572C98.0142 87.1986 98.0681 87.2251 98.1262 87.2328C98.1665 87.2386 98.2075 87.2349 98.2462 87.2221C98.2848 87.2094 98.32 87.1878 98.3488 87.1591C98.3773 87.1299 98.3987 87.0946 98.4115 87.0558C98.4242 87.017 98.4278 86.9759 98.4221 86.9355L96.9469 75.758C96.9384 75.6884 96.9026 75.625 96.8475 75.5817C96.7923 75.5385 96.7222 75.5188 96.6526 75.5271Z" fill="#FF0000"/>
<path d="M98.4425 89.1678C98.3854 89.1752 98.3302 89.1939 98.2803 89.2227C98.2304 89.2515 98.1866 89.2899 98.1516 89.3357C98.1166 89.3815 98.091 89.4337 98.0762 89.4895C98.0615 89.5452 98.0579 89.6033 98.0657 89.6604L98.8336 95.4792C98.8389 95.5382 98.8562 95.5954 98.8842 95.6476C98.9123 95.6997 98.9507 95.7456 98.997 95.7824C99.0433 95.8193 99.0966 95.8464 99.1537 95.8621C99.2108 95.8778 99.2705 95.8818 99.3292 95.8737C99.3878 95.8657 99.4442 95.8459 99.495 95.8155C99.5458 95.785 99.5899 95.7446 99.6246 95.6966C99.6593 95.6487 99.684 95.5942 99.697 95.5364C99.7101 95.4787 99.7113 95.4189 99.7006 95.3606L98.9334 89.5468C98.9184 89.4315 98.8583 89.3269 98.7663 89.2558C98.6743 89.1848 98.5579 89.1531 98.4425 89.1678Z" fill="#FF0000"/>
<path d="M99.3422 96.0297C99.1822 96.0488 99.0211 96.0039 98.894 95.9048C98.7669 95.8057 98.6841 95.6603 98.6637 95.5004L97.8949 89.6828C97.8811 89.6018 97.8837 89.5189 97.9027 89.4389C97.9217 89.359 97.9567 89.2837 98.0054 89.2176C98.0542 89.1516 98.1159 89.096 98.1867 89.0543C98.2575 89.0126 98.3359 88.9857 98.4174 88.9751C98.4989 88.9644 98.5816 88.9704 98.6607 88.9925C98.7398 89.0147 98.8136 89.0526 98.8777 89.104C98.9418 89.1554 98.9949 89.2192 99.0337 89.2916C99.0726 89.364 99.0964 89.4435 99.1037 89.5253L99.8716 95.3441C99.8931 95.5039 99.8504 95.6658 99.7529 95.7942C99.6554 95.9227 99.511 96.0073 99.3513 96.0296L99.3422 96.0297ZM98.4644 89.3398C98.4298 89.3443 98.3964 89.3556 98.3662 89.3731C98.336 89.3905 98.3095 89.4137 98.2883 89.4414C98.2671 89.4691 98.2515 89.5007 98.2426 89.5344C98.2336 89.5681 98.2314 89.6033 98.236 89.6379L99.0068 95.4563C99.0147 95.5143 99.0415 95.5681 99.083 95.6095C99.1244 95.6508 99.1784 95.6773 99.2364 95.685C99.2602 95.6882 99.2842 95.6883 99.308 95.6853C99.3427 95.6808 99.3761 95.6694 99.4064 95.6519C99.4367 95.6344 99.4632 95.6111 99.4844 95.5833C99.5056 95.5555 99.5211 95.5238 99.53 95.49C99.5389 95.4561 99.541 95.4209 99.5362 95.3863L98.7626 89.5692C98.7548 89.4995 98.7198 89.4357 98.6652 89.3917C98.6372 89.3695 98.6049 89.3535 98.5703 89.3445C98.5357 89.3356 98.4996 89.334 98.4644 89.3398Z" fill="#FF0000"/>
<g opacity="0.22">
<path d="M75.3686 116.981L77.7446 117.926L75.6674 119.414L74.726 121.791L73.2327 119.713L70.8526 118.766L72.9317 117.278L73.8738 114.899L75.3686 116.981Z" fill="#455A64"/>
<path d="M69.5632 125.65L70.7518 126.123L69.7139 126.868L69.242 128.056L68.4958 127.016L67.3053 126.543L68.3433 125.798L68.8158 124.609L69.5632 125.65Z" fill="#455A64"/>
<path d="M233.639 37.0124L236.193 38.0287L233.963 39.6285L232.95 42.1789L231.346 39.9477L228.79 38.9316L231.023 37.3316L232.035 34.7782L233.639 37.0124Z" fill="#455A64"/>
</g>
<g opacity="0.22">
<path d="M100.619 48.3767L99.8782 42.344C99.8512 42.123 99.7375 41.9217 99.5622 41.7845C99.3868 41.6474 99.1641 41.5855 98.9431 41.6125C98.7221 41.6395 98.5209 41.7532 98.3837 41.9285C98.2465 42.1039 98.1846 42.3266 98.2116 42.5476L98.9583 48.5796C98.9922 48.7939 99.1079 48.9867 99.2812 49.1173C99.4545 49.2479 99.6717 49.3061 99.887 49.2797C100.102 49.2532 100.299 49.1442 100.436 48.9755C100.572 48.8069 100.638 48.5928 100.619 48.3767Z" fill="#455A64"/>
<path d="M93.9089 56.9658C93.8816 56.7456 93.768 56.5452 93.5932 56.4086C93.4183 56.272 93.1964 56.2103 92.9761 56.2371L86.9427 56.9718C86.7284 57.0057 86.5356 57.1215 86.405 57.2947C86.2743 57.468 86.2161 57.6852 86.2426 57.9006C86.269 58.1159 86.3781 58.3126 86.5467 58.4491C86.7153 58.5857 86.9304 58.6513 87.1466 58.6324L93.1793 57.8916C93.3986 57.8652 93.5986 57.753 93.7353 57.5795C93.8721 57.4059 93.9345 57.1853 93.9089 56.9658Z" fill="#455A64"/>
<path d="M95.3491 51.1742C95.3357 51.065 95.3009 50.9595 95.2466 50.8638C95.1923 50.7681 95.1197 50.6841 95.0328 50.6166L90.3766 46.9779C90.2906 46.9057 90.1908 46.8516 90.0834 46.8188C89.9759 46.7861 89.863 46.7752 89.7513 46.787C89.6396 46.7988 89.5314 46.8329 89.4331 46.8874C89.3349 46.9419 89.2486 47.0156 89.1795 47.1041C89.1103 47.1926 89.0597 47.2941 89.0306 47.4026C89.0015 47.5111 88.9945 47.6244 89.0101 47.7356C89.0257 47.8469 89.0636 47.9538 89.1214 48.0501C89.1792 48.1465 89.2558 48.2302 89.3466 48.2962L94.0038 51.9348C94.1341 52.0369 94.2917 52.098 94.4567 52.1104C94.6218 52.1228 94.7868 52.086 94.9309 52.0045C95.075 51.923 95.1916 51.8007 95.2661 51.6528C95.3405 51.505 95.3694 51.3384 95.3491 51.1742Z" fill="#455A64"/>
</g>
<path d="M52.3961 149.618C48.6831 153.896 50.3201 157.194 48.7391 157.347C48.6637 157.356 48.5875 157.356 48.5121 157.347C47.2851 157.178 47.7441 154.347 43.8301 150.609C41.3561 148.243 36.6551 143.996 37.9301 141.809C39.0211 139.934 42.2381 144.038 43.9421 141.509C45.1811 139.669 40.3011 139.001 41.0861 137.062C41.9571 134.915 44.9191 137.831 45.3531 135.728C45.7871 133.625 43.5531 130.685 45.4141 130.192C45.4431 130.184 45.4721 130.179 45.4981 130.173C47.2861 129.787 47.9061 132.573 48.2231 134.419C48.5451 136.294 48.5231 136.883 49.0861 136.737C49.6491 136.591 51.3121 134.257 52.4951 135.637C53.6781 137.017 50.1211 140.264 50.4641 142.672C50.8071 145.08 53.3481 141.072 54.2371 143.293C54.7491 144.557 54.2411 147.494 52.3961 149.618Z" fill="#BDBDBD"/>
</g>
<defs>
<linearGradient id="paint0_linear_86_594" x1="141.5" y1="129.311" x2="141.5" y2="165.753" gradientUnits="userSpaceOnUse">
<stop stop-color="#E5E5E5"/>
<stop offset="0.603" stop-color="#EEEEEF"/>
<stop offset="1" stop-color="#EEF2F9"/>
</linearGradient>
<clipPath id="clip0_86_594">
<rect width="282" height="176.634" fill="white" transform="translate(0.5 0.5)"/>
</clipPath>
</defs>
</svg>
