<svg width="15" height="15" viewBox="0 0 15 15" fill="none" xmlns="http://www.w3.org/2000/svg">
<g clip-path="url(#clip0_86_675)">
<path d="M8.14894 8.4503V1.2853C8.14304 1.15015 8.0852 1.0225 7.98748 0.92896C7.88977 0.835417 7.75971 0.783203 7.62444 0.783203C7.48917 0.783203 7.35912 0.835417 7.2614 0.92896C7.16368 1.0225 7.10584 1.15015 7.09994 1.2853V8.4503C6.66585 8.56098 6.28098 8.8131 6.00611 9.16684C5.73124 9.52059 5.58203 9.95581 5.58203 10.4038C5.58203 10.8518 5.73124 11.287 6.00611 11.6407C6.28098 11.9945 6.66585 12.2466 7.09994 12.3573V13.9643C7.10584 14.0994 7.16368 14.2271 7.2614 14.3206C7.35912 14.4142 7.48917 14.4664 7.62444 14.4664C7.75971 14.4664 7.88977 14.4142 7.98748 14.3206C8.0852 14.2271 8.14304 14.0994 8.14894 13.9643V12.3573C8.58304 12.2466 8.9679 11.9945 9.24277 11.6407C9.51764 11.287 9.66685 10.8518 9.66685 10.4038C9.66685 9.95581 9.51764 9.52059 9.24277 9.16684C8.9679 8.8131 8.58304 8.56098 8.14894 8.4503ZM7.62494 11.3913C7.42975 11.3901 7.23928 11.3311 7.07758 11.2218C6.91587 11.1125 6.79017 10.9577 6.71634 10.777C6.64251 10.5963 6.62386 10.3978 6.66274 10.2065C6.70162 10.0152 6.79628 9.83976 6.93479 9.70223C7.0733 9.56469 7.24945 9.47127 7.441 9.43374C7.63256 9.39622 7.83093 9.41627 8.0111 9.49138C8.19126 9.56648 8.34515 9.69327 8.45333 9.85575C8.56151 10.0182 8.61913 10.2091 8.61894 10.4043C8.61881 10.5345 8.59296 10.6633 8.54288 10.7835C8.49279 10.9036 8.41946 11.0127 8.32709 11.1044C8.23472 11.1961 8.12514 11.2687 8.00464 11.3179C7.88415 11.3671 7.75511 11.3921 7.62494 11.3913Z" fill="#FF0000" stroke="#FF0000" stroke-width="0.25"/>
<path d="M14.624 4.75892C14.6215 4.31123 14.471 3.87694 14.1962 3.52357C13.9213 3.1702 13.5373 2.91755 13.104 2.80492V1.42592C13.0981 1.29078 13.0403 1.16313 12.9426 1.06958C12.8449 0.976042 12.7148 0.923828 12.5795 0.923828C12.4443 0.923828 12.3142 0.976042 12.2165 1.06958C12.1188 1.16313 12.0609 1.29078 12.055 1.42592V2.80492C11.6205 2.91525 11.2351 3.16728 10.9599 3.52117C10.6846 3.87505 10.5352 4.31059 10.5352 4.75892C10.5352 5.20725 10.6846 5.64279 10.9599 5.99667C11.2351 6.35056 11.6205 6.60259 12.055 6.71292V14.1049C12.0609 14.2401 12.1188 14.3677 12.2165 14.4613C12.3142 14.5548 12.4443 14.607 12.5795 14.607C12.7148 14.607 12.8449 14.5548 12.9426 14.4613C13.0403 14.3677 13.0981 14.2401 13.104 14.1049V6.71292C13.5373 6.60029 13.9213 6.34764 14.1962 5.99427C14.471 5.6409 14.6215 5.20661 14.624 4.75892ZM12.579 5.74692C12.3491 5.74653 12.1265 5.66637 11.9491 5.52014C11.7717 5.37391 11.6506 5.17065 11.6063 4.94506C11.5621 4.71946 11.5975 4.4855 11.7065 4.28309C11.8155 4.08068 11.9913 3.92236 12.204 3.83515C12.4168 3.74793 12.6531 3.73723 12.8729 3.80486C13.0926 3.87249 13.282 4.01427 13.4089 4.206C13.5357 4.39773 13.5921 4.62753 13.5685 4.85621C13.5448 5.08488 13.4425 5.29825 13.279 5.45992C13.1869 5.5514 13.0777 5.62383 12.9576 5.67308C12.8375 5.72232 12.7088 5.74741 12.579 5.74692Z" fill="#FF0000" stroke="#FF0000" stroke-width="0.25"/>
<path d="M3.194 2.52601V1.14601C3.19397 1.07724 3.18035 1.00914 3.15392 0.945646C3.12749 0.882149 3.08878 0.8245 3.04 0.776014C2.99115 0.727657 2.93323 0.689425 2.86956 0.663512C2.80589 0.6376 2.73774 0.624516 2.669 0.625014C2.60036 0.62478 2.53235 0.638085 2.46886 0.664167C2.40537 0.690249 2.34765 0.728596 2.299 0.777014C2.25034 0.825382 2.21169 0.882868 2.18527 0.946184C2.15884 1.0095 2.14516 1.0774 2.145 1.14601V2.52601C1.71154 2.63834 1.3274 2.8909 1.05247 3.24434C0.777531 3.59778 0.627234 4.03224 0.625 4.48001C0.627404 4.92775 0.777764 5.36212 1.05267 5.71553C1.32758 6.06893 1.71162 6.32153 2.145 6.43401V13.826C2.14516 13.8946 2.15884 13.9625 2.18527 14.0258C2.21169 14.0892 2.25034 14.1466 2.299 14.195C2.34765 14.2434 2.40537 14.2818 2.46886 14.3079C2.53235 14.3339 2.60036 14.3472 2.669 14.347C2.73764 14.3472 2.80565 14.3339 2.86914 14.3079C2.93263 14.2818 2.99035 14.2434 3.039 14.195C3.08766 14.1466 3.12631 14.0892 3.15273 14.0258C3.17916 13.9625 3.19284 13.8946 3.193 13.826V6.43301C3.62638 6.32053 4.01042 6.06793 4.28533 5.71453C4.56024 5.36112 4.7106 4.92675 4.713 4.47901C4.7106 4.03154 4.56035 3.59741 4.28562 3.24419C4.0109 2.89098 3.62711 2.63848 3.194 2.52601ZM2.669 5.46801C2.40633 5.46828 2.15426 5.36447 1.96796 5.17929C1.78166 4.99412 1.67632 4.74268 1.675 4.48001C1.67606 4.21727 1.78131 3.96567 1.96767 3.78044C2.15402 3.59521 2.40625 3.49148 2.669 3.49201C2.93175 3.49148 3.18398 3.59521 3.37033 3.78044C3.55669 3.96567 3.66194 4.21727 3.663 4.48001C3.66168 4.74268 3.55634 4.99412 3.37004 5.17929C3.18374 5.36447 2.93167 5.46828 2.669 5.46801Z" fill="#FF0000" stroke="#FF0000" stroke-width="0.25"/>
</g>
<defs>
<clipPath id="clip0_86_675">
<rect width="14.25" height="14.231" fill="white" transform="translate(0.5 0.5)"/>
</clipPath>
</defs>
</svg>
