<svg xmlns="http://www.w3.org/2000/svg" width="14.25" height="14.231" viewBox="0 0 14.25 14.231">
  <g id="filter" transform="translate(0.125 0.125)">
    <path id="Path_80" data-name="Path 80" d="M7.467,7.676V.511a.525.525,0,0,0-1.049,0V7.676a2.016,2.016,0,0,0,0,3.907V13.19a.525.525,0,0,0,1.049,0V11.583a2.016,2.016,0,0,0,0-3.907Zm-.524,2.941a.988.988,0,1,1,.994-.987.988.988,0,0,1-.994.987Z" transform="translate(0.058 0.149)" fill="#6133bd" stroke="#6133bd" stroke-width="0.25"/>
    <path id="Path_81" data-name="Path 81" d="M16.511,4.069a2.031,2.031,0,0,0-1.52-1.954V.736a.525.525,0,0,0-1.049,0V2.115a2.016,2.016,0,0,0,0,3.908v7.392a.525.525,0,0,0,1.049,0V6.023A2.031,2.031,0,0,0,16.511,4.069Zm-2.045.988a.993.993,0,1,1,.7-.287.988.988,0,0,1-.7.287Z" transform="translate(-2.511 0.064)" fill="#6133bd" stroke="#6133bd" stroke-width="0.25"/>
    <path id="Path_82" data-name="Path 82" d="M-.057,1.666V.286a.522.522,0,0,0-.154-.37A.522.522,0,0,0-.582-.235a.522.522,0,0,0-.37.152.522.522,0,0,0-.154.369v1.38A2.029,2.029,0,0,0-2.626,3.62a2.03,2.03,0,0,0,1.52,1.954v7.392a.522.522,0,0,0,.154.369.522.522,0,0,0,.37.152.522.522,0,0,0,.37-.152.522.522,0,0,0,.154-.369V5.573a2.03,2.03,0,0,0,1.52-1.954A2.029,2.029,0,0,0-.057,1.666ZM-.582,4.608a.993.993,0,0,1-.994-.988.992.992,0,0,1,.994-.988.992.992,0,0,1,.994.988.993.993,0,0,1-.994.988Z" transform="translate(2.626 0.235)" fill="#6133bd" stroke="#6133bd" stroke-width="0.25"/>
  </g>
</svg>
