<svg width="59" height="29" viewBox="0 0 59 29" fill="none" xmlns="http://www.w3.org/2000/svg">
<g clip-path="url(#clip0_86_680)">
<path d="M55.5 0.5H3.5C1.84315 0.5 0.5 1.84315 0.5 3.5V25.5C0.5 27.1569 1.84315 28.5 3.5 28.5H55.5C57.1569 28.5 58.5 27.1569 58.5 25.5V3.5C58.5 1.84315 57.1569 0.5 55.5 0.5Z" fill="white"/>
<path d="M33.962 13.0285C36.493 10.9375 41.7 3.46253 33.562 4.77953C30.018 5.32153 24.811 8.76853 23.762 12.7185C23.2173 11.6659 22.614 10.6446 21.955 9.65953C20.976 8.30453 19.855 9.34953 20.942 10.7435C24.015 14.7325 26.149 19.5345 26.149 24.3745C26.3491 21.5926 25.9799 18.799 25.064 16.1645C25.5306 16.3168 26.0182 16.3951 26.509 16.3965C28.1392 19.1425 30.6126 21.2887 33.561 22.5155C36.161 23.5615 39.637 22.9425 38.226 18.7595C37.3482 16.4987 35.8739 14.5182 33.96 13.0285H33.962ZM34.324 5.74853C38.845 5.24853 33.998 10.8605 32.408 11.9075C30.9315 10.8003 29.1168 10.2391 27.273 10.3195C28.573 8.65553 31.721 6.05953 34.324 5.74853ZM27.236 11.5575C28.5377 11.5769 29.7964 12.0262 30.816 12.8355C29.8268 13.3453 28.7441 13.6481 27.634 13.7255C25.971 13.7255 25.645 11.7115 27.234 11.5565L27.236 11.5575ZM33.493 20.3105C31.287 19.5129 29.3546 18.1019 27.923 16.2435C29.1394 15.9984 30.3028 15.5397 31.359 14.8885C31.767 14.6797 32.1547 14.4333 32.517 14.1525C33.9164 15.34 34.9767 16.8767 35.59 18.6065C36.097 20.5065 34.723 20.6615 33.49 20.3065L33.493 20.3105Z" fill="#F5A623"/>
</g>
<defs>
<clipPath id="clip0_86_680">
<rect width="58" height="28" fill="white" transform="translate(0.5 0.5)"/>
</clipPath>
</defs>
</svg>
