<svg width="104" height="106" viewBox="0 0 104 106" fill="none" xmlns="http://www.w3.org/2000/svg">
<g clip-path="url(#clip0_86_687)">
<path fill-rule="evenodd" clip-rule="evenodd" d="M95.5694 82.6572C93.4394 86.3572 90.7097 89.6777 87.4916 92.4832C69.2656 78.2892 72.7195 81.0262 71.0475 79.5322C75.9817 76.027 79.5077 70.8803 80.9945 65.0132C81.3375 63.8692 81.2315 63.4232 79.8155 63.4352C71.3825 63.5072 62.9495 63.4712 54.5155 63.4702C52.7295 63.4702 52.7277 63.4702 52.7277 61.6222C52.7277 55.9062 52.7545 50.1902 52.7035 44.4752C52.6935 43.3752 52.8875 42.9492 54.1285 42.9532C69.6825 42.9985 85.2366 43.0032 100.791 42.9672C101.631 42.9672 102.159 43.0282 102.304 44.0492C104.24 57.6532 102.689 70.6522 95.5694 82.6572Z" fill="#6689C9"/>
<path fill-rule="evenodd" clip-rule="evenodd" d="M87.4897 92.4875C82.0001 97.7036 75.2442 101.397 67.8899 103.202C50.3899 107.624 34.2658 104.828 19.9458 93.5275C14.0578 88.9126 9.31479 83.0009 6.08594 76.2526L23.1799 62.9805C24.6343 66.9879 26.807 70.6966 29.5918 73.9246C41.3588 86.9196 58.3038 87.3245 71.0498 79.5355C72.6398 80.9575 69.2297 78.2675 87.4897 92.4875Z" fill="#4DB74B"/>
<path fill-rule="evenodd" clip-rule="evenodd" d="M23.1777 62.9771L6.08372 76.2491C-1.29028 62.5411 -1.44631 43.288 6.12669 29.373C25.0477 43.946 22.1749 41.7731 23.3069 42.5101C21.1005 49.1471 21.0552 56.3127 23.1777 62.9771Z" fill="#FFCD05"/>
<path fill-rule="evenodd" clip-rule="evenodd" d="M86.9792 15.0937C72.3392 29.4297 73.4621 29.3257 72.4011 28.3537C57.7011 14.8867 31.5073 19.9997 23.3013 42.5097C22.1783 41.7747 25.1261 44.0097 6.12109 29.3727C11.4101 17.7387 25.0972 4.28668 43.9902 1.27268C60.0522 -1.29332 74.4281 2.49469 86.8501 13.1917C87.6391 13.8627 87.8392 14.2577 86.9792 15.0937Z" fill="#E22F31"/>
</g>
<defs>
<clipPath id="clip0_86_687">
<rect width="102.568" height="104.697" fill="white" transform="translate(0.5 0.5)"/>
</clipPath>
</defs>
</svg>
