<svg width="59" height="29" viewBox="0 0 59 29" fill="none" xmlns="http://www.w3.org/2000/svg">
<g clip-path="url(#clip0_86_693)">
<path d="M55.5 0.5H3.5C1.84315 0.5 0.5 1.84315 0.5 3.5V25.5C0.5 27.1569 1.84315 28.5 3.5 28.5H55.5C57.1569 28.5 58.5 27.1569 58.5 25.5V3.5C58.5 1.84315 57.1569 0.5 55.5 0.5Z" fill="white"/>
<path d="M29.7328 16.5363L35.4628 6.61133L38.5828 8.41133C39.0621 8.68788 39.4823 9.05616 39.8193 9.49513C40.1562 9.9341 40.4034 10.4352 40.5467 10.9697C40.69 11.5042 40.7266 12.0617 40.6543 12.6104C40.5821 13.159 40.4025 13.6881 40.1258 14.1673L36.8998 19.7553C36.7268 20.0551 36.4964 20.3179 36.2219 20.5286C35.9473 20.7393 35.6339 20.8939 35.2995 20.9834C34.9652 21.073 34.6165 21.0957 34.2734 21.0504C33.9302 21.0051 33.5994 20.8926 33.2997 20.7193L30.3998 19.0473C30.1907 18.9267 30.0074 18.766 29.8604 18.5745C29.7134 18.383 29.6056 18.1644 29.5431 17.9312C29.4806 17.6981 29.4647 17.4549 29.4962 17.2155C29.5277 16.9762 29.606 16.7454 29.7268 16.5363H29.7328Z" fill="url(#paint0_linear_86_693)"/>
<path d="M29.1058 9.66424L21.9648 22.0082L25.0908 23.8082C26.0605 24.3671 27.2123 24.5185 28.2934 24.2293C29.3746 23.94 30.2968 23.2337 30.8578 22.2652L35.4898 14.2562C35.6636 13.9567 35.7765 13.6258 35.822 13.2825C35.8675 12.9392 35.8448 12.5903 35.7551 12.2558C35.6655 11.9213 35.5106 11.6078 35.2995 11.3333C35.0884 11.0588 34.8251 10.8287 34.5248 10.6562L31.6248 8.98423C31.2014 8.7404 30.6984 8.67465 30.2265 8.8014C29.7545 8.92815 29.3522 9.23705 29.1078 9.66024L29.1058 9.66424Z" fill="#FDBD00"/>
<path d="M35.4598 6.60552L33.2518 5.33052C32.6525 4.98402 31.9908 4.75902 31.3045 4.66839C30.6183 4.57776 29.9209 4.62328 29.2522 4.80233C28.5835 4.98139 27.9567 5.29048 27.4075 5.71192C26.8584 6.13337 26.3977 6.65892 26.0518 7.25852L21.9518 14.3585C21.7784 14.6581 21.6658 14.989 21.6204 15.3321C21.575 15.6753 21.5977 16.024 21.6873 16.3584C21.7768 16.6928 21.9314 17.0062 22.1422 17.2808C22.353 17.5554 22.6159 17.7856 22.9158 17.9585L25.1238 19.2335C25.4234 19.4069 25.7542 19.5195 26.0974 19.5649C26.4405 19.6103 26.7893 19.5875 27.1237 19.498C27.458 19.4085 27.7715 19.2539 28.046 19.0431C28.3206 18.8323 28.5509 18.5694 28.7238 18.2695L33.6138 9.79852C33.855 9.37941 34.1764 9.01198 34.5598 8.71725C34.9431 8.42252 35.3808 8.20627 35.8478 8.08088C36.3148 7.95549 36.802 7.92342 37.2814 7.98651C37.7608 8.04959 38.2231 8.20659 38.6418 8.44852" fill="#2DA94F"/>
<path d="M26.6666 9.3606L24.2286 7.96061C23.7072 7.66105 23.0884 7.58009 22.5075 7.73543C21.9266 7.89078 21.4308 8.26979 21.1286 8.7896L18.2046 13.8416C17.8628 14.4329 17.6411 15.0858 17.5521 15.763C17.4631 16.4401 17.5086 17.1282 17.6859 17.7877C17.8632 18.4472 18.1689 19.0653 18.5855 19.6065C19.0021 20.1477 19.5214 20.6014 20.1136 20.9416L21.9696 22.0116L24.2196 23.3116L25.1966 23.8736C24.3557 23.3083 23.7614 22.4444 23.5339 21.4571C23.3064 20.4697 23.4629 19.4328 23.9716 18.5566L24.7286 17.2496L27.5006 12.4586C27.6506 12.2008 27.7481 11.9159 27.7876 11.6202C27.827 11.3246 27.8076 11.024 27.7305 10.7359C27.6534 10.4478 27.52 10.1778 27.3381 9.9414C27.1562 9.70502 26.9293 9.50696 26.6706 9.3586L26.6666 9.3606Z" fill="url(#paint1_linear_86_693)"/>
</g>
<defs>
<linearGradient id="paint0_linear_86_693" x1="31.162" y1="12.5117" x2="39.9279" y2="14.4275" gradientUnits="userSpaceOnUse">
<stop offset="0.2" stop-color="#D93025"/>
<stop offset="0.6" stop-color="#EA4335"/>
</linearGradient>
<linearGradient id="paint1_linear_86_693" x1="18.2288" y1="13.5444" x2="27.9983" y2="14.9743" gradientUnits="userSpaceOnUse">
<stop offset="0.2" stop-color="#4285F4"/>
<stop offset="0.8" stop-color="#1B74E8"/>
</linearGradient>
<clipPath id="clip0_86_693">
<rect width="58" height="28" fill="white" transform="translate(0.5 0.5)"/>
</clipPath>
</defs>
</svg>
