<svg width="51" height="51" viewBox="0 0 51 51" fill="none" xmlns="http://www.w3.org/2000/svg">
<g clip-path="url(#clip0_86_700)">
<path d="M49.8568 23.8028C49.3774 23.1979 48.8376 22.6433 48.2458 22.1478L48.1768 22.0858C47.8459 21.853 47.6194 21.4999 47.5458 21.1021C47.4721 20.7044 47.5572 20.2936 47.7828 19.9579L47.7988 19.9248C48.1099 19.3737 48.3716 18.7961 48.5808 18.1988C48.7313 17.8403 48.809 17.4554 48.8095 17.0666C48.81 16.6778 48.7333 16.2928 48.5838 15.9339C48.4343 15.575 48.215 15.2493 47.9386 14.9758C47.6622 14.7023 47.3343 14.4865 46.9738 14.3408C46.4667 14.0974 45.9415 13.8938 45.4028 13.7318L45.0598 13.6187C44.6839 13.5275 44.3583 13.2935 44.152 12.9663C43.9457 12.639 43.875 12.2443 43.9548 11.8658C44.0379 11.1758 44.0493 10.4792 43.9888 9.78684C43.9365 9.04364 43.614 8.34531 43.0822 7.82358C42.5503 7.30185 41.8459 6.99279 41.1018 6.95481C40.8775 6.93273 40.6522 6.92207 40.4268 6.92282C39.9588 6.92282 39.4838 6.96275 39.1268 6.99875C39.0268 7.00875 38.9268 7.01279 38.8348 7.01279C38.0528 7.01279 37.5978 6.64082 37.3118 5.76682C37.0942 5.01699 36.7863 4.29638 36.3948 3.62082C36.1583 3.19107 35.8109 2.83253 35.3888 2.58261C34.9667 2.3327 34.4854 2.20052 33.9948 2.1998C33.6994 2.20151 33.4054 2.24045 33.1198 2.31577C32.3849 2.53308 31.6734 2.82283 30.9958 3.18076C30.7184 3.33011 30.4106 3.41434 30.0958 3.42685C29.8368 3.41226 29.5852 3.33483 29.3628 3.20139C29.1403 3.06794 28.9536 2.8825 28.8188 2.66086C28.4239 2.11775 27.9562 1.63146 27.4288 1.21579C26.8785 0.748398 26.1785 0.494403 25.4566 0.500094C24.7346 0.505784 24.0387 0.770787 23.4958 1.2468C23.0019 1.66097 22.5495 2.12209 22.1448 2.62375L22.0068 2.78476C21.8628 2.9751 21.6782 3.13109 21.4666 3.24143C21.2549 3.35176 21.0213 3.41374 20.7828 3.42282C20.4582 3.41384 20.1416 3.31962 19.8648 3.14975C19.3614 2.84594 18.8278 2.59504 18.2728 2.40085C17.8853 2.27339 17.4807 2.20587 17.0728 2.20078C16.4658 2.20717 15.8734 2.38757 15.3658 2.72043C14.8581 3.05329 14.4566 3.5247 14.2088 4.07883C13.946 4.62781 13.7334 5.19949 13.5738 5.78684C13.5161 6.14058 13.3297 6.46051 13.0505 6.68515C12.7712 6.9098 12.4187 7.02323 12.0608 7.00376C11.9748 7.00376 11.8798 6.99784 11.7838 6.98984C11.3328 6.94784 10.9378 6.92783 10.5778 6.92783C10.3238 6.92783 10.0778 6.93786 9.85182 6.95786C9.07035 6.97939 8.32692 7.29995 7.77487 7.85349C7.22282 8.40702 6.90423 9.15131 6.88481 9.93283C6.84622 10.5766 6.8653 11.2224 6.94181 11.8628C6.98093 12.0603 6.97988 12.2637 6.93873 12.4608C6.89758 12.6579 6.81717 12.8446 6.7023 13.01C6.58742 13.1753 6.44043 13.3158 6.27009 13.4232C6.09975 13.5305 5.90955 13.6026 5.71081 13.6349C5.03778 13.7936 4.38616 14.0323 3.76982 14.3458C3.13421 14.6475 2.62997 15.1701 2.35106 15.816C2.07214 16.462 2.03759 17.1872 2.25381 17.8568C2.44744 18.5577 2.72583 19.2323 3.08281 19.8658C3.21518 20.0551 3.305 20.2709 3.34607 20.4983C3.38713 20.7256 3.37848 20.959 3.32071 21.1827C3.26293 21.4064 3.15742 21.6149 3.01139 21.7939C2.86537 21.9729 2.68231 22.1183 2.4748 22.2198C1.78052 22.6 1.22231 23.1876 0.878094 23.9004C0.53388 24.6132 0.420857 25.4156 0.554806 26.1958C0.881589 27.3332 1.6283 28.3041 2.64381 28.9118C2.8225 29.0106 2.97839 29.1458 3.10133 29.3088C3.22427 29.4718 3.3115 29.6589 3.35734 29.8579C3.40319 30.0568 3.40663 30.2632 3.36743 30.4636C3.32822 30.664 3.24727 30.8538 3.12982 31.0208L3.07081 31.1388C2.77189 31.6828 2.52029 32.2517 2.31881 32.8388C2.02595 33.5839 2.0369 34.4139 2.34933 35.151C2.66176 35.888 3.25073 36.4733 3.9898 36.7809C4.53775 37.0378 5.11127 37.2361 5.70082 37.3728C5.90053 37.4011 6.09234 37.4699 6.26449 37.575C6.43664 37.6802 6.5855 37.8194 6.7019 37.9841C6.81831 38.1488 6.89982 38.3356 6.94142 38.5329C6.98302 38.7303 6.98383 38.9341 6.94381 39.1318C6.8612 39.8415 6.84915 40.5576 6.90782 41.2697C6.92888 41.876 7.15096 42.4581 7.5391 42.9243C7.92725 43.3905 8.45942 43.7143 9.05182 43.8448C9.65284 43.97 10.266 44.0274 10.8798 44.0158C11.2058 44.0158 11.5248 44.0058 11.7928 43.9958H11.9218C12.2868 43.9621 12.6519 44.0588 12.9523 44.2688C13.2528 44.4788 13.4691 44.7884 13.5628 45.1428L13.6548 45.4028C13.8723 46.1118 14.1717 46.7931 14.5468 47.4328C14.794 47.8522 15.1466 48.1995 15.5695 48.4405C15.9925 48.6815 16.471 48.8079 16.9578 48.8069C17.2114 48.8055 17.4642 48.7769 17.7118 48.7218C18.432 48.5472 19.1248 48.2747 19.7708 47.9118C20.0859 47.7194 20.4441 47.6087 20.8128 47.5898C21.0726 47.6076 21.3246 47.6857 21.5489 47.818C21.7732 47.9502 21.9636 48.133 22.1048 48.3518C22.4913 48.8434 22.9269 49.2945 23.4048 49.6978C23.9568 50.2029 24.6744 50.4885 25.4224 50.5011C26.1705 50.5136 26.8972 50.2521 27.4658 49.7658C27.9767 49.3585 28.4302 48.8838 28.8138 48.3548C28.9483 48.1312 29.1354 47.9439 29.3588 47.8092C29.5823 47.6744 29.8353 47.5963 30.0958 47.5818C30.4114 47.5932 30.7198 47.6793 30.9958 47.8329C31.578 48.1494 32.1866 48.4147 32.8148 48.6258C33.182 48.7409 33.564 48.8015 33.9488 48.8058C34.4974 48.7994 35.0333 48.6397 35.4958 48.3446C35.9583 48.0494 36.3289 47.6307 36.5658 47.1358C36.8654 46.5508 37.1053 45.937 37.2818 45.3038L37.3318 45.1447C37.4062 44.8129 37.5919 44.5165 37.858 44.3048C38.1242 44.093 38.4547 43.9787 38.7948 43.9808C38.8902 43.9811 38.9855 43.9884 39.0798 44.0028C39.3538 44.0398 39.6388 44.0698 39.9118 44.1028L40.2858 44.1418H40.3378C42.3668 44.1418 43.6138 43.2198 43.9478 41.4718C44.0531 40.7542 44.0632 40.0259 43.9778 39.3058C43.8778 38.1378 44.1688 37.6938 45.2668 37.3288C45.9818 37.1098 46.6724 36.8179 47.3278 36.4579C47.848 36.2013 48.2675 35.7781 48.5196 35.2557C48.7716 34.7333 48.8418 34.1417 48.7188 33.5748C48.5229 32.7308 48.2226 31.9145 47.8248 31.1447C47.6933 30.9648 47.6011 30.7592 47.5544 30.5412C47.5077 30.3233 47.5074 30.0979 47.5537 29.8799C47.5999 29.6618 47.6916 29.456 47.8227 29.2757C47.9539 29.0955 48.1215 28.9449 48.3148 28.8338C48.8826 28.376 49.3954 27.8538 49.8428 27.2778C50.2495 26.7911 50.4735 26.1776 50.4761 25.5433C50.4786 24.909 50.2596 24.2928 49.8568 23.8028ZM47.9258 26.8188C45.5918 28.4758 45.2088 30.1697 46.6008 32.6657C46.6328 32.7217 46.6658 32.7768 46.7008 32.8308C46.7528 32.9168 46.8008 33.0027 46.8488 33.0927C46.9539 33.2805 47.0185 33.4884 47.0381 33.7027C47.0577 33.917 47.0321 34.133 46.9628 34.3368C46.8864 34.5331 46.7696 34.7112 46.6201 34.8597C46.4706 35.0082 46.2917 35.1238 46.0948 35.1988C45.8571 35.2925 45.6148 35.374 45.3688 35.4428C45.2468 35.4788 45.1248 35.5159 45.0038 35.5569C44.5245 35.6546 44.0701 35.8485 43.6679 36.1268C43.2657 36.4051 42.924 36.7621 42.6636 37.1761C42.4033 37.5902 42.2295 38.0528 42.1529 38.5359C42.0762 39.0189 42.0983 39.5125 42.2178 39.9868L42.2418 40.1668C42.2608 40.3048 42.2788 40.4428 42.2918 40.5818C42.3462 40.815 42.3499 41.0571 42.3028 41.2918C42.2557 41.5266 42.1589 41.7487 42.0188 41.9428C41.8722 42.0817 41.6972 42.1871 41.506 42.252C41.3147 42.317 41.1117 42.3398 40.9108 42.3188C40.8167 42.3202 40.7226 42.3169 40.6288 42.3088C40.4078 42.3088 40.1858 42.3028 39.9638 42.2988C39.7418 42.2948 39.5208 42.2888 39.3018 42.2888C39.0018 42.2888 38.7518 42.2988 38.5198 42.3188C37.8927 42.3591 37.2912 42.5825 36.7897 42.9613C36.2883 43.3401 35.909 43.8576 35.6988 44.4498C35.5251 44.8902 35.3815 45.342 35.2688 45.8019L35.2428 45.8947C35.1935 46.2224 35.0312 46.5224 34.7839 46.7429C34.5366 46.9633 34.2199 47.0903 33.8888 47.1018C33.6385 47.0969 33.3916 47.0432 33.1618 46.9438C32.7928 46.7918 32.4258 46.6219 32.0708 46.4579C31.8608 46.3579 31.6528 46.2637 31.4418 46.1707C30.9884 45.9582 30.4955 45.8431 29.9948 45.8329C29.5556 45.8475 29.1245 45.9545 28.7295 46.1472C28.3345 46.3398 27.9847 46.6137 27.7028 46.9508C27.3768 47.2988 27.0748 47.6508 26.7138 48.0688C26.5716 48.2644 26.3858 48.4242 26.1712 48.5356C25.9566 48.6471 25.7191 48.707 25.4773 48.7109C25.2355 48.7148 24.9961 48.6625 24.7781 48.558C24.56 48.4535 24.3692 48.2997 24.2208 48.1089C24.0928 47.9699 23.9678 47.8288 23.8448 47.6878C23.5948 47.4058 23.3378 47.1158 23.0688 46.8528C22.7787 46.5463 22.4304 46.301 22.0442 46.131C21.658 45.961 21.2417 45.8697 20.8198 45.8628C20.3989 45.8677 19.9819 45.9446 19.5868 46.0898C19.031 46.2995 18.4915 46.5502 17.9728 46.8398C17.6948 46.9979 17.3825 47.0857 17.0628 47.0958C16.7584 47.0885 16.4642 46.9845 16.2229 46.7988C15.9816 46.6131 15.8057 46.3553 15.7208 46.0628C15.5838 45.7378 15.4568 45.3828 15.3288 44.9798C14.7868 43.2498 14.0388 42.2499 11.8168 42.2499C11.5202 42.2503 11.2239 42.2656 10.9288 42.2957C10.6488 42.3227 10.4128 42.3358 10.2088 42.3358C9.97568 42.3646 9.73905 42.3417 9.51576 42.2688C9.29246 42.1958 9.08798 42.0747 8.91681 41.9138C8.60781 41.5648 8.5318 41.0218 8.6538 40.0368C8.9618 37.5638 7.99281 36.0978 5.60481 35.4228C5.50548 35.3955 5.40547 35.3695 5.30481 35.3448C5.19581 35.3178 5.08682 35.2899 4.97682 35.2599C4.7586 35.2043 4.55555 35.1006 4.38253 34.9565C4.20952 34.8124 4.0709 34.6314 3.97682 34.4269C3.88767 34.2132 3.8475 33.9823 3.85926 33.7511C3.87103 33.5199 3.93443 33.2943 4.04481 33.0908C4.11481 32.9488 4.18881 32.8048 4.26281 32.6628C4.50419 32.2156 4.71727 31.7536 4.90081 31.2798C5.11247 30.7641 5.17323 30.199 5.07603 29.6501C4.97883 29.1013 4.72768 28.5914 4.35182 28.1798C3.9289 27.7142 3.47522 27.2776 2.99382 26.8728L2.82681 26.7258C2.63433 26.5767 2.47748 26.3867 2.36764 26.1694C2.2578 25.9521 2.19774 25.7132 2.19181 25.4698C2.2068 25.2315 2.27471 24.9995 2.39061 24.7907C2.5065 24.582 2.66747 24.4016 2.86181 24.2628C3.33201 23.8976 3.77517 23.4989 4.18782 23.0698C4.61932 22.6379 4.91488 22.0891 5.03804 21.4911C5.16119 20.8931 5.10653 20.2721 4.88081 19.7048C4.66494 19.132 4.40794 18.5755 4.11181 18.0398C3.97738 17.8199 3.89562 17.5719 3.87289 17.3152C3.85017 17.0584 3.8871 16.7999 3.98082 16.5598C4.09733 16.3326 4.26534 16.1358 4.47143 15.9851C4.67753 15.8344 4.916 15.7339 5.16781 15.6917C5.19353 15.6856 5.21957 15.681 5.24582 15.6778H5.27581C7.88781 15.0778 8.9578 13.5558 8.6408 10.8958L8.63382 10.8398C8.55621 10.5447 8.54182 10.2365 8.59163 9.9354C8.64143 9.63433 8.7543 9.34715 8.92282 9.09274C9.09723 8.92999 9.30512 8.80743 9.53193 8.73349C9.75874 8.65956 9.999 8.63606 10.2358 8.66477C10.3868 8.66477 10.5488 8.67079 10.7358 8.68479C11.0558 8.71079 11.3728 8.72385 11.6738 8.72385C12.0054 8.72412 12.3368 8.7077 12.6668 8.67478C13.1351 8.64517 13.5864 8.48795 13.9717 8.22019C14.357 7.95243 14.6618 7.58442 14.8528 7.15586C15.0991 6.61941 15.3177 6.07065 15.5078 5.51181L15.6078 5.23483C15.9258 4.35983 16.3898 3.93479 17.0248 3.93479C17.4165 3.95599 17.7976 4.0698 18.1368 4.26682C18.7509 4.59221 19.397 4.85319 20.0648 5.04575C20.33 5.12086 20.6042 5.15997 20.8798 5.16184C21.5821 5.15436 22.2565 4.88514 22.7708 4.40683C23.155 4.05541 23.5192 3.68274 23.8618 3.29074L24.2028 2.91879C24.3538 2.72459 24.548 2.56833 24.77 2.46237C24.992 2.35641 25.2356 2.30369 25.4816 2.30844C25.7275 2.3132 25.969 2.37525 26.1867 2.48972C26.4045 2.60418 26.5925 2.76784 26.7358 2.96775C27.1575 3.46595 27.6044 3.94224 28.0748 4.39475C28.572 4.89325 29.2448 5.17694 29.9488 5.18479C30.3206 5.1815 30.6891 5.11388 31.0378 4.98483C31.5518 4.79983 32.0648 4.56682 32.5608 4.33982L32.9398 4.16782C33.2423 4.01857 33.5728 3.93478 33.9098 3.92185C34.6008 3.92185 35.0638 4.39475 35.2868 5.32675C35.5928 6.61275 36.0668 7.87578 37.4498 8.39878C38.0111 8.57648 38.5943 8.67506 39.1828 8.69174L39.6338 8.72885C39.6926 8.73483 39.7517 8.73775 39.8108 8.73776C39.978 8.73451 40.1448 8.72291 40.3108 8.70285C40.4878 8.68485 40.6618 8.66884 40.8428 8.66684H40.8688C41.0737 8.64851 41.2801 8.6731 41.4749 8.73923C41.6697 8.80536 41.8484 8.91147 41.9998 9.05075C42.1333 9.21775 42.2306 9.41073 42.2857 9.61728C42.3408 9.82384 42.3524 10.0396 42.3198 10.2508L42.3008 10.5667C42.2405 11.2481 42.2318 11.9331 42.2748 12.6158C42.3196 13.1723 42.5222 13.7044 42.8587 14.1499C43.1952 14.5953 43.6518 14.9356 44.1748 15.1308C44.5943 15.3095 45.0233 15.465 45.4598 15.5968L45.7658 15.6967C46.0212 15.7557 46.26 15.871 46.4649 16.0344C46.6698 16.1978 46.8355 16.405 46.9498 16.6408C47.0286 16.8945 47.0496 17.1626 47.0114 17.4254C46.9731 17.6882 46.8766 17.9391 46.7288 18.1598C46.4483 18.6602 46.2121 19.1842 46.0228 19.7258C45.7976 20.3217 45.7549 20.9711 45.9 21.5914C46.0451 22.2117 46.3716 22.7747 46.8378 23.2088C47.0864 23.4572 47.3474 23.6928 47.6198 23.9148C47.7718 24.0428 47.9198 24.1708 48.0698 24.3028C48.277 24.4485 48.4438 24.6445 48.5544 24.8724C48.665 25.1003 48.7158 25.3526 48.702 25.6056C48.6882 25.8585 48.6102 26.1038 48.4755 26.3183C48.3408 26.5329 48.1537 26.7095 47.9318 26.8318L47.9258 26.8188Z" fill="black"/>
<path d="M49.8568 23.8028C49.3774 23.1979 48.8376 22.6433 48.2458 22.1478L48.1768 22.0858C47.8459 21.853 47.6194 21.4999 47.5458 21.1021C47.4721 20.7044 47.5572 20.2936 47.7828 19.9579L47.7988 19.9248C48.1099 19.3737 48.3716 18.7961 48.5808 18.1988C48.7313 17.8403 48.809 17.4554 48.8095 17.0666C48.81 16.6778 48.7333 16.2928 48.5838 15.9339C48.4343 15.575 48.215 15.2493 47.9386 14.9758C47.6622 14.7023 47.3343 14.4865 46.9738 14.3408C46.4667 14.0974 45.9415 13.8938 45.4028 13.7318L45.0598 13.6187C44.6839 13.5275 44.3583 13.2935 44.152 12.9663C43.9457 12.639 43.875 12.2443 43.9548 11.8658C44.0379 11.1758 44.0493 10.4792 43.9888 9.78684C43.9365 9.04364 43.614 8.34531 43.0822 7.82358C42.5503 7.30185 41.8459 6.99279 41.1018 6.95481C40.8775 6.93273 40.6522 6.92207 40.4268 6.92282C39.9588 6.92282 39.4838 6.96275 39.1268 6.99875C39.0268 7.00875 38.9268 7.01279 38.8348 7.01279C38.0528 7.01279 37.5978 6.64082 37.3118 5.76682C37.0942 5.01699 36.7863 4.29638 36.3948 3.62082C36.1583 3.19107 35.8109 2.83253 35.3888 2.58261C34.9667 2.3327 34.4854 2.20052 33.9948 2.1998C33.6994 2.20151 33.4054 2.24045 33.1198 2.31577C32.3849 2.53308 31.6734 2.82283 30.9958 3.18076C30.7184 3.33011 30.4106 3.41434 30.0958 3.42685C29.8368 3.41226 29.5852 3.33483 29.3628 3.20139C29.1403 3.06794 28.9536 2.8825 28.8188 2.66086C28.4239 2.11775 27.9562 1.63146 27.4288 1.21579C26.8785 0.748398 26.1785 0.494403 25.4566 0.500094C24.7346 0.505784 24.0387 0.770787 23.4958 1.2468C23.0019 1.66097 22.5495 2.12209 22.1448 2.62375L22.0068 2.78476C21.8628 2.9751 21.6782 3.13109 21.4666 3.24143C21.2549 3.35176 21.0213 3.41374 20.7828 3.42282C20.4582 3.41384 20.1416 3.31962 19.8648 3.14975C19.3614 2.84594 18.8278 2.59504 18.2728 2.40085C17.8853 2.27339 17.4807 2.20587 17.0728 2.20078C16.4658 2.20717 15.8734 2.38757 15.3658 2.72043C14.8581 3.05329 14.4566 3.5247 14.2088 4.07883C13.946 4.62781 13.7334 5.19949 13.5738 5.78684C13.5161 6.14058 13.3297 6.46051 13.0505 6.68515C12.7712 6.9098 12.4187 7.02323 12.0608 7.00376C11.9748 7.00376 11.8798 6.99784 11.7838 6.98984C11.3328 6.94784 10.9378 6.92783 10.5778 6.92783C10.3238 6.92783 10.0778 6.93786 9.85182 6.95786C9.07035 6.97939 8.32692 7.29995 7.77487 7.85349C7.22282 8.40702 6.90423 9.15131 6.88481 9.93283C6.84622 10.5766 6.8653 11.2224 6.94181 11.8628C6.98093 12.0603 6.97988 12.2637 6.93873 12.4608C6.89758 12.6579 6.81717 12.8446 6.7023 13.01C6.58742 13.1753 6.44043 13.3158 6.27009 13.4232C6.09975 13.5305 5.90955 13.6026 5.71081 13.6349C5.03778 13.7936 4.38616 14.0323 3.76982 14.3458C3.13421 14.6475 2.62997 15.1701 2.35106 15.816C2.07214 16.462 2.03759 17.1872 2.25381 17.8568C2.44744 18.5577 2.72583 19.2323 3.08281 19.8658C3.21518 20.0551 3.305 20.2709 3.34607 20.4983C3.38713 20.7256 3.37848 20.959 3.32071 21.1827C3.26293 21.4064 3.15742 21.6149 3.01139 21.7939C2.86537 21.9729 2.68231 22.1183 2.4748 22.2198C1.78052 22.6 1.22231 23.1876 0.878094 23.9004C0.53388 24.6132 0.420857 25.4156 0.554806 26.1958C0.881589 27.3332 1.6283 28.3041 2.64381 28.9118C2.8225 29.0106 2.97839 29.1458 3.10133 29.3088C3.22427 29.4718 3.3115 29.6589 3.35734 29.8579C3.40319 30.0568 3.40663 30.2632 3.36743 30.4636C3.32822 30.664 3.24727 30.8538 3.12982 31.0208L3.07081 31.1388C2.77189 31.6828 2.52029 32.2517 2.31881 32.8388C2.02595 33.5839 2.0369 34.4139 2.34933 35.151C2.66176 35.888 3.25073 36.4733 3.9898 36.7809C4.53775 37.0378 5.11127 37.2361 5.70082 37.3728C5.90053 37.4011 6.09234 37.4699 6.26449 37.575C6.43664 37.6802 6.5855 37.8194 6.7019 37.9841C6.81831 38.1488 6.89982 38.3356 6.94142 38.5329C6.98302 38.7303 6.98383 38.9341 6.94381 39.1318C6.8612 39.8415 6.84915 40.5576 6.90782 41.2697C6.92888 41.876 7.15096 42.4581 7.5391 42.9243C7.92725 43.3905 8.45942 43.7143 9.05182 43.8448C9.65284 43.97 10.266 44.0274 10.8798 44.0158C11.2058 44.0158 11.5248 44.0058 11.7928 43.9958H11.9218C12.2868 43.9621 12.6519 44.0588 12.9523 44.2688C13.2528 44.4788 13.4691 44.7884 13.5628 45.1428L13.6548 45.4028C13.8723 46.1118 14.1717 46.7931 14.5468 47.4328C14.794 47.8522 15.1466 48.1995 15.5695 48.4405C15.9925 48.6815 16.471 48.8079 16.9578 48.8069C17.2114 48.8055 17.4642 48.7769 17.7118 48.7218C18.432 48.5472 19.1248 48.2747 19.7708 47.9118C20.0859 47.7194 20.4441 47.6087 20.8128 47.5898C21.0726 47.6076 21.3246 47.6857 21.5489 47.818C21.7732 47.9502 21.9636 48.133 22.1048 48.3518C22.4913 48.8434 22.9269 49.2945 23.4048 49.6978C23.9568 50.2029 24.6744 50.4885 25.4224 50.5011C26.1705 50.5136 26.8972 50.2521 27.4658 49.7658C27.9767 49.3585 28.4302 48.8838 28.8138 48.3548C28.9483 48.1312 29.1354 47.9439 29.3588 47.8092C29.5823 47.6744 29.8353 47.5963 30.0958 47.5818C30.4114 47.5932 30.7198 47.6793 30.9958 47.8329C31.578 48.1494 32.1866 48.4147 32.8148 48.6258C33.182 48.7409 33.564 48.8015 33.9488 48.8058C34.4974 48.7994 35.0333 48.6397 35.4958 48.3446C35.9583 48.0494 36.3289 47.6307 36.5658 47.1358C36.8654 46.5508 37.1053 45.937 37.2818 45.3038L37.3318 45.1447C37.4062 44.8129 37.5919 44.5165 37.858 44.3048C38.1242 44.093 38.4547 43.9787 38.7948 43.9808C38.8902 43.9811 38.9855 43.9884 39.0798 44.0028C39.3538 44.0398 39.6388 44.0698 39.9118 44.1028L40.2858 44.1418H40.3378C42.3668 44.1418 43.6138 43.2198 43.9478 41.4718C44.0531 40.7542 44.0632 40.0259 43.9778 39.3058C43.8778 38.1378 44.1688 37.6938 45.2668 37.3288C45.9818 37.1098 46.6724 36.8179 47.3278 36.4579C47.848 36.2013 48.2675 35.7781 48.5196 35.2557C48.7716 34.7333 48.8418 34.1417 48.7188 33.5748C48.5229 32.7308 48.2226 31.9145 47.8248 31.1447C47.6933 30.9648 47.6011 30.7592 47.5544 30.5412C47.5077 30.3233 47.5074 30.0979 47.5537 29.8799C47.5999 29.6618 47.6916 29.456 47.8227 29.2757C47.9539 29.0955 48.1215 28.9449 48.3148 28.8338C48.8826 28.376 49.3954 27.8538 49.8428 27.2778C50.2495 26.7911 50.4735 26.1776 50.4761 25.5433C50.4786 24.909 50.2596 24.2928 49.8568 23.8028ZM47.9258 26.8188C45.5918 28.4758 45.2088 30.1697 46.6008 32.6657C46.6328 32.7217 46.6658 32.7768 46.7008 32.8308C46.7528 32.9168 46.8008 33.0027 46.8488 33.0927C46.9539 33.2805 47.0185 33.4884 47.0381 33.7027C47.0577 33.917 47.0321 34.133 46.9628 34.3368C46.8864 34.5331 46.7696 34.7112 46.6201 34.8597C46.4706 35.0082 46.2917 35.1238 46.0948 35.1988C45.8571 35.2925 45.6148 35.374 45.3688 35.4428C45.2468 35.4788 45.1248 35.5159 45.0038 35.5569C44.5245 35.6546 44.0701 35.8485 43.6679 36.1268C43.2657 36.4051 42.924 36.7621 42.6636 37.1761C42.4033 37.5902 42.2295 38.0528 42.1529 38.5359C42.0762 39.0189 42.0983 39.5125 42.2178 39.9868L42.2418 40.1668C42.2608 40.3048 42.2788 40.4428 42.2918 40.5818C42.3462 40.815 42.3499 41.0571 42.3028 41.2918C42.2557 41.5266 42.1589 41.7487 42.0188 41.9428C41.8722 42.0817 41.6972 42.1871 41.506 42.252C41.3147 42.317 41.1117 42.3398 40.9108 42.3188C40.8167 42.3202 40.7226 42.3169 40.6288 42.3088C40.4078 42.3088 40.1858 42.3028 39.9638 42.2988C39.7418 42.2948 39.5208 42.2888 39.3018 42.2888C39.0018 42.2888 38.7518 42.2988 38.5198 42.3188C37.8927 42.3591 37.2912 42.5825 36.7897 42.9613C36.2883 43.3401 35.909 43.8576 35.6988 44.4498C35.5251 44.8902 35.3815 45.342 35.2688 45.8019L35.2428 45.8947C35.1935 46.2224 35.0312 46.5224 34.7839 46.7429C34.5366 46.9633 34.2199 47.0903 33.8888 47.1018C33.6385 47.0969 33.3916 47.0432 33.1618 46.9438C32.7928 46.7918 32.4258 46.6219 32.0708 46.4579C31.8608 46.3579 31.6528 46.2637 31.4418 46.1707C30.9884 45.9582 30.4955 45.8431 29.9948 45.8329C29.5556 45.8475 29.1245 45.9545 28.7295 46.1472C28.3345 46.3398 27.9847 46.6137 27.7028 46.9508C27.3768 47.2988 27.0748 47.6508 26.7138 48.0688C26.5716 48.2644 26.3858 48.4242 26.1712 48.5356C25.9566 48.6471 25.7191 48.707 25.4773 48.7109C25.2355 48.7148 24.9961 48.6625 24.7781 48.558C24.56 48.4535 24.3692 48.2997 24.2208 48.1089C24.0928 47.9699 23.9678 47.8288 23.8448 47.6878C23.5948 47.4058 23.3378 47.1158 23.0688 46.8528C22.7787 46.5463 22.4304 46.301 22.0442 46.131C21.658 45.961 21.2417 45.8697 20.8198 45.8628C20.3989 45.8677 19.9819 45.9446 19.5868 46.0898C19.031 46.2995 18.4915 46.5502 17.9728 46.8398C17.6948 46.9979 17.3825 47.0857 17.0628 47.0958C16.7584 47.0885 16.4642 46.9845 16.2229 46.7988C15.9816 46.6131 15.8057 46.3553 15.7208 46.0628C15.5838 45.7378 15.4568 45.3828 15.3288 44.9798C14.7868 43.2498 14.0388 42.2499 11.8168 42.2499C11.5202 42.2503 11.2239 42.2656 10.9288 42.2957C10.6488 42.3227 10.4128 42.3358 10.2088 42.3358C9.97568 42.3646 9.73905 42.3417 9.51576 42.2688C9.29246 42.1958 9.08798 42.0747 8.91681 41.9138C8.60781 41.5648 8.5318 41.0218 8.6538 40.0368C8.9618 37.5638 7.99281 36.0978 5.60481 35.4228C5.50548 35.3955 5.40547 35.3695 5.30481 35.3448C5.19581 35.3178 5.08682 35.2899 4.97682 35.2599C4.7586 35.2043 4.55555 35.1006 4.38253 34.9565C4.20952 34.8124 4.0709 34.6314 3.97682 34.4269C3.88767 34.2132 3.8475 33.9823 3.85926 33.7511C3.87103 33.5199 3.93443 33.2943 4.04481 33.0908C4.11481 32.9488 4.18881 32.8048 4.26281 32.6628C4.50419 32.2156 4.71727 31.7536 4.90081 31.2798C5.11247 30.7641 5.17323 30.199 5.07603 29.6501C4.97883 29.1013 4.72768 28.5914 4.35182 28.1798C3.9289 27.7142 3.47522 27.2776 2.99382 26.8728L2.82681 26.7258C2.63433 26.5767 2.47748 26.3867 2.36764 26.1694C2.2578 25.9521 2.19774 25.7132 2.19181 25.4698C2.2068 25.2315 2.27471 24.9995 2.39061 24.7907C2.5065 24.582 2.66747 24.4016 2.86181 24.2628C3.33201 23.8976 3.77517 23.4989 4.18782 23.0698C4.61932 22.6379 4.91488 22.0891 5.03804 21.4911C5.16119 20.8931 5.10653 20.2721 4.88081 19.7048C4.66494 19.132 4.40794 18.5755 4.11181 18.0398C3.97738 17.8199 3.89562 17.5719 3.87289 17.3152C3.85017 17.0584 3.8871 16.7999 3.98082 16.5598C4.09733 16.3326 4.26534 16.1358 4.47143 15.9851C4.67753 15.8344 4.916 15.7339 5.16781 15.6917C5.19353 15.6856 5.21957 15.681 5.24582 15.6778H5.27581C7.88781 15.0778 8.9578 13.5558 8.6408 10.8958L8.63382 10.8398C8.55621 10.5447 8.54182 10.2365 8.59163 9.9354C8.64143 9.63433 8.7543 9.34715 8.92282 9.09274C9.09723 8.92999 9.30512 8.80743 9.53193 8.73349C9.75874 8.65956 9.999 8.63606 10.2358 8.66477C10.3868 8.66477 10.5488 8.67079 10.7358 8.68479C11.0558 8.71079 11.3728 8.72385 11.6738 8.72385C12.0054 8.72412 12.3368 8.7077 12.6668 8.67478C13.1351 8.64517 13.5864 8.48795 13.9717 8.22019C14.357 7.95243 14.6618 7.58442 14.8528 7.15586C15.0991 6.61941 15.3177 6.07065 15.5078 5.51181L15.6078 5.23483C15.9258 4.35983 16.3898 3.93479 17.0248 3.93479C17.4165 3.95599 17.7976 4.0698 18.1368 4.26682C18.7509 4.59221 19.397 4.85319 20.0648 5.04575C20.33 5.12086 20.6042 5.15997 20.8798 5.16184C21.5821 5.15436 22.2565 4.88514 22.7708 4.40683C23.155 4.05541 23.5192 3.68274 23.8618 3.29074L24.2028 2.91879C24.3538 2.72459 24.548 2.56833 24.77 2.46237C24.992 2.35641 25.2356 2.30369 25.4816 2.30844C25.7275 2.3132 25.969 2.37525 26.1867 2.48972C26.4045 2.60418 26.5925 2.76784 26.7358 2.96775C27.1575 3.46595 27.6044 3.94224 28.0748 4.39475C28.572 4.89325 29.2448 5.17694 29.9488 5.18479C30.3206 5.1815 30.6891 5.11388 31.0378 4.98483C31.5518 4.79983 32.0648 4.56682 32.5608 4.33982L32.9398 4.16782C33.2423 4.01857 33.5728 3.93478 33.9098 3.92185C34.6008 3.92185 35.0638 4.39475 35.2868 5.32675C35.5928 6.61275 36.0668 7.87578 37.4498 8.39878C38.0111 8.57648 38.5943 8.67506 39.1828 8.69174L39.6338 8.72885C39.6926 8.73483 39.7517 8.73775 39.8108 8.73776C39.978 8.73451 40.1448 8.72291 40.3108 8.70285C40.4878 8.68485 40.6618 8.66884 40.8428 8.66684H40.8688C41.0737 8.64851 41.2801 8.6731 41.4749 8.73923C41.6697 8.80536 41.8484 8.91147 41.9998 9.05075C42.1333 9.21775 42.2306 9.41073 42.2857 9.61728C42.3408 9.82384 42.3524 10.0396 42.3198 10.2508L42.3008 10.5667C42.2405 11.2481 42.2318 11.9331 42.2748 12.6158C42.3196 13.1723 42.5222 13.7044 42.8587 14.1499C43.1952 14.5953 43.6518 14.9356 44.1748 15.1308C44.5943 15.3095 45.0233 15.465 45.4598 15.5968L45.7658 15.6967C46.0212 15.7557 46.26 15.871 46.4649 16.0344C46.6698 16.1978 46.8355 16.405 46.9498 16.6408C47.0286 16.8945 47.0496 17.1626 47.0114 17.4254C46.9731 17.6882 46.8766 17.9391 46.7288 18.1598C46.4483 18.6602 46.2121 19.1842 46.0228 19.7258C45.7976 20.3217 45.7549 20.9711 45.9 21.5914C46.0451 22.2117 46.3716 22.7747 46.8378 23.2088C47.0864 23.4572 47.3474 23.6928 47.6198 23.9148C47.7718 24.0428 47.9198 24.1708 48.0698 24.3028C48.277 24.4485 48.4438 24.6445 48.5544 24.8724C48.665 25.1003 48.7158 25.3526 48.702 25.6056C48.6882 25.8585 48.6102 26.1038 48.4755 26.3183C48.3408 26.5329 48.1537 26.7095 47.9318 26.8318L47.9258 26.8188Z" fill="black"/>
<path d="M36.6575 14.4034C35.1949 12.9226 33.4528 11.747 31.5322 10.9448C29.6117 10.1426 27.5509 9.72989 25.4695 9.73047H25.4275C21.2416 9.73047 17.2272 11.3933 14.2673 14.3531C11.3074 17.313 9.64453 21.3275 9.64453 25.5134C9.64453 29.6993 11.3074 33.7138 14.2673 36.6737C17.2272 39.6336 21.2416 41.2964 25.4275 41.2964H25.4705C28.5849 41.2919 31.6284 40.3663 34.218 38.6361C36.8076 36.9059 38.8275 34.4484 40.0237 31.5729C41.2199 28.6973 41.5388 25.5323 40.9404 22.476C40.3419 19.4196 38.8529 16.6085 36.6605 14.3965L36.6575 14.4034ZM25.4475 39.5575C23.5933 39.574 21.7543 39.2232 20.0364 38.5253C18.3185 37.8274 16.7558 36.7963 15.4385 35.4913C14.1212 34.1864 13.0753 32.6335 12.3613 30.9222C11.6473 29.211 11.2792 27.3752 11.2782 25.521C11.2773 23.6668 11.6436 21.8307 12.3559 20.1188C13.0683 18.4068 14.1126 16.8529 15.4286 15.5466C16.7446 14.2404 18.3062 13.2075 20.0234 12.5079C21.7406 11.8083 23.5794 11.4558 25.4335 11.4705H25.4475C29.1722 11.4705 32.7444 12.9501 35.3781 15.5839C38.0119 18.2176 39.4915 21.7897 39.4915 25.5144C39.4915 29.2391 38.0119 32.8113 35.3781 35.4451C32.7444 38.0788 29.1722 39.5575 25.4475 39.5575Z" fill="black"/>
<path d="M36.6575 14.4034C35.1949 12.9226 33.4528 11.747 31.5322 10.9448C29.6117 10.1426 27.5509 9.72989 25.4695 9.73047H25.4275C21.2416 9.73047 17.2272 11.3933 14.2673 14.3531C11.3074 17.313 9.64453 21.3275 9.64453 25.5134C9.64453 29.6993 11.3074 33.7138 14.2673 36.6737C17.2272 39.6336 21.2416 41.2964 25.4275 41.2964H25.4705C28.5849 41.2919 31.6284 40.3663 34.218 38.6361C36.8076 36.9059 38.8275 34.4484 40.0237 31.5729C41.2199 28.6973 41.5388 25.5323 40.9404 22.476C40.3419 19.4196 38.8529 16.6085 36.6605 14.3965L36.6575 14.4034ZM25.4475 39.5575C23.5933 39.574 21.7543 39.2232 20.0364 38.5253C18.3185 37.8274 16.7558 36.7963 15.4385 35.4913C14.1212 34.1864 13.0753 32.6335 12.3613 30.9222C11.6473 29.211 11.2792 27.3752 11.2782 25.521C11.2773 23.6668 11.6436 21.8307 12.3559 20.1188C13.0683 18.4068 14.1126 16.8529 15.4286 15.5466C16.7446 14.2404 18.3062 13.2075 20.0234 12.5079C21.7406 11.8083 23.5794 11.4558 25.4335 11.4705H25.4475C29.1722 11.4705 32.7444 12.9501 35.3781 15.5839C38.0119 18.2176 39.4915 21.7897 39.4915 25.5144C39.4915 29.2391 38.0119 32.8113 35.3781 35.4451C32.7444 38.0788 29.1722 39.5575 25.4475 39.5575Z" fill="black"/>
<path d="M33.0352 21.4248C32.9459 21.5446 32.8454 21.6558 32.7352 21.7568L32.6702 21.8208C29.7949 24.6995 26.9182 27.5771 24.0402 30.4537C23.821 30.7383 23.5024 30.9297 23.1482 30.9897C22.8048 30.9338 22.4956 30.7494 22.2832 30.4738L22.2042 30.3958C20.8452 29.0398 19.4412 27.6368 18.0642 26.2518C17.5522 25.7388 17.6643 25.3578 17.7883 25.1168C17.8541 24.9778 17.958 24.8602 18.0879 24.7777C18.2178 24.6952 18.3684 24.6512 18.5222 24.6508C18.8011 24.6601 19.0653 24.7781 19.2582 24.9797C20.0972 25.7997 20.9392 26.6478 21.7582 27.4668L22.4942 28.2058C22.5802 28.2918 22.6622 28.3867 22.7582 28.4957C22.8072 28.5527 22.8582 28.6137 22.9182 28.6777C22.9427 28.705 22.9724 28.7272 23.0055 28.7428C23.0387 28.7584 23.0746 28.7673 23.1112 28.7688H23.1222C23.1924 28.7686 23.2597 28.7414 23.3102 28.6927L23.5102 28.5057C23.6242 28.3977 23.7172 28.3058 23.8102 28.2168L25.6982 26.3287C27.5982 24.4287 29.5592 22.4658 31.4982 20.5408C31.6714 20.3488 31.8843 20.197 32.1222 20.0958C32.2109 20.0675 32.3032 20.0523 32.3962 20.0508C32.5266 20.0536 32.6542 20.089 32.7674 20.1538C32.8806 20.2186 32.9758 20.3107 33.0442 20.4218C33.1547 20.5655 33.2138 20.7421 33.2122 20.9233C33.2106 21.1046 33.1483 21.2801 33.0352 21.4218V21.4248Z" fill="black"/>
<path d="M33.0352 21.4248C32.9459 21.5446 32.8454 21.6558 32.7352 21.7568L32.6702 21.8208C29.7949 24.6995 26.9182 27.5771 24.0402 30.4537C23.821 30.7383 23.5024 30.9297 23.1482 30.9897C22.8048 30.9338 22.4956 30.7494 22.2832 30.4738L22.2042 30.3958C20.8452 29.0398 19.4412 27.6368 18.0642 26.2518C17.5522 25.7388 17.6643 25.3578 17.7883 25.1168C17.8541 24.9778 17.958 24.8602 18.0879 24.7777C18.2178 24.6952 18.3684 24.6512 18.5222 24.6508C18.8011 24.6601 19.0653 24.7781 19.2582 24.9797C20.0972 25.7997 20.9392 26.6478 21.7582 27.4668L22.4942 28.2058C22.5802 28.2918 22.6622 28.3867 22.7582 28.4957C22.8072 28.5527 22.8582 28.6137 22.9182 28.6777C22.9427 28.705 22.9724 28.7272 23.0055 28.7428C23.0387 28.7584 23.0746 28.7673 23.1112 28.7688H23.1222C23.1924 28.7686 23.2597 28.7414 23.3102 28.6927L23.5102 28.5057C23.6242 28.3977 23.7172 28.3058 23.8102 28.2168L25.6982 26.3287C27.5982 24.4287 29.5592 22.4658 31.4982 20.5408C31.6714 20.3488 31.8843 20.197 32.1222 20.0958C32.2109 20.0675 32.3032 20.0523 32.3962 20.0508C32.5266 20.0536 32.6542 20.089 32.7674 20.1538C32.8806 20.2186 32.9758 20.3107 33.0442 20.4218C33.1547 20.5655 33.2138 20.7421 33.2122 20.9233C33.2106 21.1046 33.1483 21.2801 33.0352 21.4218V21.4248Z" fill="black"/>
</g>
<defs>
<clipPath id="clip0_86_700">
<rect width="49.976" height="50.001" fill="white" transform="translate(0.5 0.5)"/>
</clipPath>
</defs>
</svg>
