<svg xmlns="http://www.w3.org/2000/svg" width="133.008" height="106.731" viewBox="0 0 133.008 106.731">
  <g id="homelogo" transform="translate(-470.67 -408.005)">
    <g id="sublogo" transform="translate(470.67 457.715)">
      <path id="Path_5852" data-name="Path 5852" d="M13.932-108.216A4.5,4.5,0,0,0,15.8-105.4a6.626,6.626,0,0,0,3.524.826,16.7,16.7,0,0,0,3.159-.34,19.079,19.079,0,0,0,3.45-1.02,15.568,15.568,0,0,1,1.191,3.013,14.267,14.267,0,0,1,.558,3.644,25.25,25.25,0,0,1-8.844,1.6,16.584,16.584,0,0,1-6-.972,10.651,10.651,0,0,1-4.082-2.7,10.825,10.825,0,0,1-2.332-4.106,17.163,17.163,0,0,1-.753-5.2,16.964,16.964,0,0,1,.777-5.2,11.942,11.942,0,0,1,2.332-4.228,11,11,0,0,1,3.887-2.843,13.209,13.209,0,0,1,5.443-1.045,11.438,11.438,0,0,1,4.592.875,10,10,0,0,1,3.425,2.405A10.448,10.448,0,0,1,28.289-117a14.164,14.164,0,0,1,.754,4.689,20.568,20.568,0,0,1-.122,2.357q-.122,1.045-.219,1.726Zm3.887-9.573a3.937,3.937,0,0,0-2.673.972,4.365,4.365,0,0,0-1.312,3.013H21.61a4.746,4.746,0,0,0-1.045-2.843,3.366,3.366,0,0,0-2.746-1.142Zm29.01-1.8q2.041.826,3.669,1.677a11.006,11.006,0,0,1,2.794,2.041A8.14,8.14,0,0,1,55.09-113a11.541,11.541,0,0,1,.632,4.058,11.513,11.513,0,0,1-.9,4.641,9.639,9.639,0,0,1-2.649,3.546,12.239,12.239,0,0,1-4.3,2.284,19.536,19.536,0,0,1-5.853.8,26.018,26.018,0,0,1-5.321-.487,33.309,33.309,0,0,1-4.981-1.506,27.556,27.556,0,0,1,.68-3.62q.486-1.92,1.166-3.912a20.039,20.039,0,0,0,7.775,1.944A8.172,8.172,0,0,0,45.2-106a2.71,2.71,0,0,0,1.385-2.6,2.855,2.855,0,0,0-.292-1.336,2.942,2.942,0,0,0-.777-.947,4.9,4.9,0,0,0-1.093-.656q-.608-.267-1.239-.51l-2.721-1.02a17.51,17.51,0,0,1-3.183-1.506,10.193,10.193,0,0,1-2.454-2.065,8.692,8.692,0,0,1-1.579-2.746,10.773,10.773,0,0,1-.558-3.644,11.264,11.264,0,0,1,.875-4.567,9.514,9.514,0,0,1,2.454-3.377,10.479,10.479,0,0,1,3.815-2.09,16.609,16.609,0,0,1,5.005-.7,23.173,23.173,0,0,1,4.786.486,39.4,39.4,0,0,1,4.932,1.409,24.849,24.849,0,0,1-.7,3.425,21.609,21.609,0,0,1-1.288,3.523q-1.263-.535-2.964-1.118a13.177,13.177,0,0,0-4.228-.584,7.3,7.3,0,0,0-1.482.146,4.335,4.335,0,0,0-1.263.462,2.449,2.449,0,0,0-.9.875,2.62,2.62,0,0,0-.34,1.385,2.425,2.425,0,0,0,.923,2.09A9.287,9.287,0,0,0,44.5-120.5Zm29.01,12.051H68.647V-98.3q-1.263.194-2.284.292t-1.847.1q-.826,0-1.847-.1T60.436-98.3v-25.074a16.379,16.379,0,0,1,2.114-.34q1.045-.1,2.016-.1.923,0,1.992.1a14.79,14.79,0,0,1,2.09.34v8.553H75.84v-8.553a16.38,16.38,0,0,1,2.114-.34q1.045-.1,2.017-.1.923,0,1.992.1a14.792,14.792,0,0,1,2.09.34V-98.3q-1.263.194-2.284.292t-1.847.1q-.826,0-1.847-.1T75.838-98.3Zm12.44-3.16a17.371,17.371,0,0,1,.8-5.417,11.519,11.519,0,0,1,2.381-4.2,10.511,10.511,0,0,1,3.912-2.7,14.252,14.252,0,0,1,5.393-.947,14.394,14.394,0,0,1,5.443.948,10.511,10.511,0,0,1,3.912,2.7,11.519,11.519,0,0,1,2.382,4.2,17.371,17.371,0,0,1,.8,5.417,16.75,16.75,0,0,1-.8,5.322,11.338,11.338,0,0,1-2.381,4.13,10.4,10.4,0,0,1-3.912,2.648,14.732,14.732,0,0,1-5.444.924,14.586,14.586,0,0,1-5.394-.923,10.4,10.4,0,0,1-3.912-2.648,11.338,11.338,0,0,1-2.381-4.13,16.751,16.751,0,0,1-.8-5.322Zm16.716,0a8.952,8.952,0,0,0-1.045-4.762,3.5,3.5,0,0,0-3.184-1.65,3.453,3.453,0,0,0-3.16,1.652,9.11,9.11,0,0,0-1.02,4.762,9.013,9.013,0,0,0,1.02,4.714,3.452,3.452,0,0,0,3.16,1.652,3.507,3.507,0,0,0,3.183-1.652A8.853,8.853,0,0,0,105-110.694Zm20.555.292a4.81,4.81,0,0,0,.608.073q.365.024.608.024a4.417,4.417,0,0,0,2.794-.85,3.448,3.448,0,0,0,1.093-2.891,3.376,3.376,0,0,0-1.093-2.7,3.973,3.973,0,0,0-2.7-.947h-.56a6.074,6.074,0,0,0-.753.049Zm-8.019-12.879q2.235-.34,4.592-.51t4.544-.17a23.005,23.005,0,0,1,4.373.413,10.817,10.817,0,0,1,3.839,1.506,8.1,8.1,0,0,1,2.745,3.013,10.379,10.379,0,0,1,1.045,4.981,10.364,10.364,0,0,1-.947,4.665,8.5,8.5,0,0,1-2.5,3.061,9.982,9.982,0,0,1-3.523,1.677,15.91,15.91,0,0,1-4.01.51q-.826,0-1.409-.049a4.279,4.279,0,0,1-.729-.1V-98.3a19.742,19.742,0,0,1-2.259.316q-1,.073-1.774.073-.826,0-1.774-.073a20.067,20.067,0,0,1-2.211-.316Z" transform="translate(-5.67 133.77)" fill="#6133bd"/>
      <path id="Path_5853" data-name="Path 5853" d="M3.99-23.188a.145.145,0,0,1-.06-.012c-.06-.323-.106-1.78-.106-2.45a1.551,1.551,0,0,1,.012-.335,1.279,1.279,0,0,1,.3-.024c.824,0,2.091.275,2.091,1.255C6.225-23.881,5.006-23.188,3.99-23.188Zm1.685-5.234c0,.932-1.41,1.219-1.757,1.219-.048,0-.06,0-.072-.012,0-.036.06-1.984.072-2a.705.705,0,0,1,.239-.024C4.635-29.234,5.675-29.091,5.675-28.422Zm-3.238,6.56a5.263,5.263,0,0,0,.611.036c2.27,0,4.839-.836,4.839-3.059,0-1.446-1.7-1.852-1.924-1.948,0-.012.024-.036.024-.036.239-.108,1.458-.753,1.458-1.888,0-1.338-1.96-1.709-3.441-1.709a10.183,10.183,0,0,0-2.187.155.053.053,0,0,0-.012.036,3.452,3.452,0,0,0,.56,1.159,2.7,2.7,0,0,1,.024.5c0,.956-.06,3.083-.06,4.565a20.643,20.643,0,0,0,.108,2.187Zm9.942-.968c.06.741.311,1.052.358,1.052a2.074,2.074,0,0,0,1.328-.645,2.085,2.085,0,0,1-.323-.956,7.369,7.369,0,0,1-.048-1.052c0-1.314.1-3.25.1-3.334a.747.747,0,0,0-.3-.048,1.561,1.561,0,0,0-1.063.345c-.036.084-.072,1.506-.072,2.354v.406c.012.108-.345.908-.968.908-.682,0-.67-.967-.67-.967-.012-.215-.024-.466-.024-.729,0-.872.072-1.828.072-1.912-.06-.06-.335-.06-.335-.06a1.669,1.669,0,0,0-1,.251,17.7,17.7,0,0,0-.109,2.33c0,.347.012.645.024.8.085.884.36,1.948,1.437,1.948a2.03,2.03,0,0,0,1.577-.968s.012,0,.012.024Zm6.094-.024c0,2.6-1.291,2.82-2.055,2.928a1.3,1.3,0,0,1-.215.012,2.058,2.058,0,0,0,.442,1.231c.92,0,3.155-.55,3.155-3.848,0-.586-.012-1.948-.012-3.178a13.669,13.669,0,0,1,.1-1.936c0-.036-.084-.036-.179-.036a2.258,2.258,0,0,0-1.231.323,4.786,4.786,0,0,0-.06,1.1c0,.693.024,1.446.024,1.446s-.143.92-.932.92c-.645,0-.777-.908-.777-2.055a14.132,14.132,0,0,1,.131-1.828,1.165,1.165,0,0,0-.382-.06,1.6,1.6,0,0,0-.968.251,7.3,7.3,0,0,0-.131,1.386c0,2.045.036,3.776,1.529,3.776a1.793,1.793,0,0,0,1.482-.813q.018-.036.036-.036c.024,0,.036.048.036.072,0,.059.007.226.007.346ZM26.552-27.1s-.012-.215-.012-.5a6.412,6.412,0,0,1,.072-1.314,11,11,0,0,1,2.211-.179,1.832,1.832,0,0,1,.358.024,1.833,1.833,0,0,0,.514-1.2,4.461,4.461,0,0,0-1-.048c-1.028,0-4.1.036-4.194.131a3.8,3.8,0,0,0,.55,1.279,3.479,3.479,0,0,1,.024.562c0,.335-.012.789-.012,1.291a4.949,4.949,0,0,0-.633.036,2.215,2.215,0,0,0,.608,1.291c-.012.611-.024,1.231-.024,1.779a12.309,12.309,0,0,0,.072,1.686,10.909,10.909,0,0,0,1.876.1,13.25,13.25,0,0,0,2.366-.119,2.236,2.236,0,0,0,.6-1.279c0-.012-.012-.012-.024-.012a9.974,9.974,0,0,1-1.255.084,7.761,7.761,0,0,1-2.055-.191,16.123,16.123,0,0,1-.06-1.685,2.065,2.065,0,0,1,.012-.372,10.513,10.513,0,0,1,1.936-.179,2.317,2.317,0,0,0,.418-1.159,5.789,5.789,0,0,0-.98-.036C27.507-27.107,27.03-27.107,26.552-27.1Zm6.857,3.071c-.036.06-.048,0-.048,0-.372-.824-1.1-3.788-1.1-3.788a1.769,1.769,0,0,0-1.261.35c0,.872,1.518,4.708,1.518,5.282a1.625,1.625,0,0,0,.55.072,3.508,3.508,0,0,0,1.147-.191,53.142,53.142,0,0,0,1.816-5.951s-.072-.119-.729-.119c-.275,0-.729.084-.741.179a24.407,24.407,0,0,1-1.152,4.171ZM40.1-26.175c0,.8-1.052,1.518-1.553,1.529-.048,0-.048-.036-.048-.167,0-.944.586-1.709,1.231-1.709a.337.337,0,0,1,.264.089A.337.337,0,0,1,40.1-26.175ZM39.575-22.1a3.049,3.049,0,0,0,1.565-.275,1.936,1.936,0,0,0,.3-1.075c0-.072-.012-.227-.036-.227a.042.042,0,0,0-.024.012,2.888,2.888,0,0,1-1.434.323c-.621,0-.872-.251-.872-.323A3.153,3.153,0,0,0,41.5-26.3a1.339,1.339,0,0,0-.464-.985,1.339,1.339,0,0,0-1.042-.315,2.783,2.783,0,0,0-2.112.839,2.783,2.783,0,0,0-.782,2.134,2.32,2.32,0,0,0,.655,1.833A2.32,2.32,0,0,0,39.575-22.1Zm6.715-5.007a.924.924,0,0,0-.1-.454,2.375,2.375,0,0,0-1.78.956c-.024.024-.036.024-.048.024a1.8,1.8,0,0,1-.024-.275c0-.311.024-.765.036-.872,0-.036-.143-.06-.251-.06a1.832,1.832,0,0,0-1.089.335,2.665,2.665,0,0,0-.048.753c0,.693.024,1.757.024,2.712a13.158,13.158,0,0,1-.084,1.888c0,.036.048.036.1.036a2.29,2.29,0,0,0,1.314-.323,12.475,12.475,0,0,0,.036-1.47v-1.052a1.54,1.54,0,0,1,1.54-1.135,1.255,1.255,0,0,1,.155.024,1.925,1.925,0,0,0,.218-1.087Zm4.17,4.254c0,2.6-1.291,2.82-2.055,2.928a1.3,1.3,0,0,1-.215.012,2.058,2.058,0,0,0,.442,1.231c.92,0,3.155-.55,3.155-3.848,0-.586-.012-1.948-.012-3.178a13.669,13.669,0,0,1,.1-1.936c0-.036-.084-.036-.179-.036a2.258,2.258,0,0,0-1.231.323,4.786,4.786,0,0,0-.06,1.1c0,.693.024,1.446.024,1.446s-.143.92-.932.92c-.645,0-.777-.908-.777-2.055a14.131,14.131,0,0,1,.133-1.828,1.165,1.165,0,0,0-.382-.06,1.6,1.6,0,0,0-.968.251,7.3,7.3,0,0,0-.131,1.386c0,2.045.036,3.776,1.529,3.776a1.793,1.793,0,0,0,1.482-.813q.018-.036.036-.036c.024,0,.036.048.036.072C50.45-23.14,50.46-22.973,50.46-22.853Zm4.6-7.349c0-.024-.191-.048-.3-.048-.43,0-1.147.263-1.147.43a8.883,8.883,0,0,1,.072,1.135c-.37.012-.633.024-.633.024a1.352,1.352,0,0,0-.106.657.937.937,0,0,0,.06.418s.3-.012.669-.012c-.012.478-.036,2.284-.036,3.573,0,.6,0,1.089.024,1.279a1.558,1.558,0,0,0,.5,1.123,1.836,1.836,0,0,0,1.328-.633A1.61,1.61,0,0,1,55-23.272c-.024-.251-.036-.884-.036-1.685s.012-1.78.024-2.665h.562c.133,0,.347-.466.347-1.04A5.152,5.152,0,0,0,55-28.7c.021-.765.045-1.35.057-1.506Zm6.24,6.464c0-1.972-.024-3.812-1.47-3.812a2.244,2.244,0,0,0-1.54.753s-.024.024-.036.024c-.036,0-.036-.06-.036-.06v-.106c0-.657.072-3.358.084-3.479,0-.024-.191-.048-.287-.048a1.835,1.835,0,0,0-1.1.406,5.228,5.228,0,0,0-.06,1.219c0,1.089.036,2.736.036,4.146a21.16,21.16,0,0,1-.1,2.593c0,.036.048.036.1.036a2.264,2.264,0,0,0,1.314-.323,5.4,5.4,0,0,0,.06-1.183c0-.753-.024-1.577-.024-1.577s.335-.908.992-.908.729.884.729,2.045a18.652,18.652,0,0,1-.119,2.045,1.29,1.29,0,0,0,.394.06,1.855,1.855,0,0,0,1.016-.239c0,.022.047-.946.047-1.592Zm3.262-4.971a.726.726,0,0,0-.189-.568.726.726,0,0,0-.552-.233.878.878,0,0,0-.85.8c0,.526.287.813.729.813a.882.882,0,0,0,.862-.813Zm-.454,1.494A1.656,1.656,0,0,0,63.14-27c-.048.1-.084,1.912-.084,3.143,0,.49.012.884.024,1.04.072.741.311,1.052.358,1.052a2.07,2.07,0,0,0,1.326-.645,1.953,1.953,0,0,1-.323-.956c-.024-.2-.036-.681-.036-1.231,0-1.1.036-2.485.036-2.545-.06-.073-.335-.073-.335-.073Zm2.175,3.346A13.46,13.46,0,0,1,66.2-22.1c0,.036.084.036.179.036a2.185,2.185,0,0,0,1.231-.323,8.865,8.865,0,0,0,.048-1.326c0-.753-.012-1.529-.012-1.518s.215-.848.992-.848c.657,0,.705.908.705,2.067a18.66,18.66,0,0,1-.119,2.045,1.29,1.29,0,0,0,.394.06,1.912,1.912,0,0,0,1.028-.239s.036-.611.036-1.4c0-2.045-.036-4-1.529-4a2.032,2.032,0,0,0-1.47.753s-.024.024-.036.024-.036-.048-.036-.239c0-.227.024-.526.036-.621,0-.036-.143-.06-.251-.06a1.832,1.832,0,0,0-1.089.335,2.39,2.39,0,0,0-.06.8c0,.7.034,1.741.034,2.685Zm7.05,3.967H73.1a2.073,2.073,0,0,0,.442,1.243c.92,0,3.2-.562,3.2-3.848,0-.335-.024-1.721-.024-2.832v-1.518a1.372,1.372,0,0,0-.514-.072h-.131s.012-.119.012-.179a2.849,2.849,0,0,0-.036-.442c0-.06-.418-.06-.418-.06-2.4,0-3.561,1.494-3.561,3.3a1.92,1.92,0,0,0,1.757,2.055,1.781,1.781,0,0,0,1.567-.777s.024-.036.036-.036.012.012.012.048c0,2.868-1.507,3.119-2.116,3.119Zm2.091-6.441c-.036.287-.048,1.567-.048,1.745a1.112,1.112,0,0,1-1.026.872.856.856,0,0,1-.616-.28.856.856,0,0,1-.22-.64,1.618,1.618,0,0,1,.446-1.235,1.618,1.618,0,0,1,1.215-.5s.25,0,.25.036Zm3.656,1.577a1.689,1.689,0,0,0,.49-.084c.024-.454.2-3.226.2-3.656a12.574,12.574,0,0,1,.251-1.613c.012-.06-.335-.215-.932-.215,0,0-.777.024-.908.155a43.394,43.394,0,0,1,.406,5.353,1.6,1.6,0,0,0,.492.061Zm.823,1.637a.8.8,0,0,0-.8-.8.8.8,0,0,0-.8.8.8.8,0,0,0,.235.567.8.8,0,0,0,.567.234.8.8,0,0,0,.8-.8Z" transform="translate(25.32 75.68)" fill="#6133bd"/>
    </g>
    <g id="Group_5042" data-name="Group 5042" transform="translate(517.177 408.001)">
      <g id="Group_5041" data-name="Group 5041">
        <path id="Path_5826" data-name="Path 5826" d="M338.941,466a6.5,6.5,0,0,1-5.641-3.3l-18.439-32.746a3.744,3.744,0,0,0-2.86-1.882l-8.885-.947a1.3,1.3,0,0,1-1.154-1.43l.014-.13a1.3,1.3,0,0,1,1.43-1.154l8.884.947a6.477,6.477,0,0,1,4.948,3.257l18.438,32.747a3.749,3.749,0,0,0,3.529,1.893l23.443-1.715a1.3,1.3,0,0,1,1.391,1.2l.01.13a1.3,1.3,0,0,1-1.2,1.391l-23.443,1.716Q339.173,466,338.941,466Z" transform="translate(-301.96 -424.4)" fill="#6133bd"/>
      </g>
      <path id="Path_5827" data-name="Path 5827" d="M460.055,490.236c-.8.256-1.422.982-2.337.956-.007-.31.181-.423.372-.531-.191-.46.292-.553.531-.743.283-.777.945-1.177,1.328-1.859.13.024.116-.1.266-.051,1.1-1.1,2.432-1.958,3.611-2.974.413.123.6-.416,1.061-.426a13.761,13.761,0,0,1-4.832,5.628Z" transform="translate(-404.6 -464.07)" fill="#6133bd"/>
      <path id="Path_5828" data-name="Path 5828" d="M415.172,453H374.739a1.4,1.4,0,0,0-1.241,2.047l11.283,21.593a2.894,2.894,0,0,0,2.643,1.552l22.258-.573a3.5,3.5,0,0,0,3.22-2.353l5.941-17.1a3.886,3.886,0,0,0-3.67-5.16Zm-3.261,17.1a10.939,10.939,0,0,1-3.343,3.133,1.535,1.535,0,0,1-.9.795c.085.273-.529.184-.531.531-.447.116-.743.065-.9.478-.774.044-1.105.42-1.808.212-.051.126-.229.126-.317.215-.159-.089-.457-.041-.531-.215-.273.133-.989.123-1.061-.263-.379.159-.539-.252-.9-.266-.692-.743-1.433-1.177-1.7-2.39a1.719,1.719,0,0,1-.426-1.009c-.57-.682-1.6-.392-2.654-.478a16.674,16.674,0,0,0-2.087-.481h-.08l.133-.075a32.013,32.013,0,0,0,4.475-.024,8.994,8.994,0,0,1,.372-1.646,2.937,2.937,0,0,1,.212-1.167c.1-.157.31-.218.426-.372.324-.426.515-.931.85-1.381.525-.706,1.132-1.32,1.7-2.018a39.043,39.043,0,0,1,3.5-2.493c.273-.147.6-.191.8-.478.559-.085.863-.433,1.381-.372.713.082,1.2.86,1.8,1.061.2.037.229-.092.426-.051a1.875,1.875,0,0,1,.584,2.548c-.113.27-.4.549-.584.9a11.386,11.386,0,0,1-.956,1.753c-.1.126-.276.2-.372.32a8.855,8.855,0,0,1-1.221,1.272c-1.646.675-2.616,2.023-4.3,2.657a9.678,9.678,0,0,1-1.275.74c-.4-.109-.512.208-.743.109-.76,1.692,2.6,1.63,3.346,1.7.774-.2,1.337-.611,2.121-.8a40.6,40.6,0,0,0,6.269-4.246,10.031,10.031,0,0,1-1.706,1.8Z" transform="translate(-349 -443.25)" fill="#6133bd"/>
      <ellipse id="Ellipse_475" data-name="Ellipse 475" cx="3.283" cy="3.709" rx="3.283" ry="3.709" transform="translate(35.27 44.63)" fill="#6133bd"/>
      <ellipse id="Ellipse_476" data-name="Ellipse 476" cx="3.727" cy="3.106" rx="3.727" ry="3.106" transform="matrix(0.1, -0.995, 0.995, 0.1, 54.27, 49.59)" fill="#6133bd"/>
    </g>
  </g>
</svg>
