<svg width="121" height="113" viewBox="0 0 121 113" fill="none" xmlns="http://www.w3.org/2000/svg">
<g clip-path="url(#clip0_86_708)">
<path d="M49.713 12.7414C50.8624 13.5382 51.8433 14.5539 52.5995 15.7303C53.3557 16.9068 53.8724 18.2209 54.12 19.5974C54.4217 22.0435 54.3391 24.5218 53.875 26.9424C54.034 26.7424 54.196 26.5424 54.36 26.3424C58.693 21.0584 65.011 15.9564 71.984 14.9994C73.2443 14.8185 74.5283 14.8983 75.7565 15.2339C76.9847 15.5695 78.1308 16.1537 79.124 16.9504C81.224 18.9194 82.958 21.3724 83.164 24.3424C82.738 30.6374 77.329 36.7424 72.974 40.8984C80.153 39.7894 84.646 35.6834 88.889 30.1254C90.5419 27.9637 92.3418 25.9185 94.276 24.0044C94.494 23.7764 94.709 23.5494 94.935 23.3164C95.501 22.7804 95.501 22.7804 95.99 22.7804L96.235 22.0454C96.835 21.6584 97.423 21.3184 98.057 20.9904C98.241 20.8904 98.427 20.7974 98.618 20.6964C99.924 20.0337 101.276 19.4656 102.663 18.9964L103.17 18.8224C105.838 18.054 108.611 17.7155 111.385 17.8194C111.885 17.8194 112.385 17.8194 112.891 17.8194C115.362 17.7589 117.829 18.028 120.229 18.6194V19.3544C119.112 19.8664 117.995 20.3764 116.877 20.8844C116.708 20.9624 116.537 21.0384 116.363 21.1194C113.912 22.2307 111.442 23.29 108.952 24.2974C102.346 27.0106 96.1004 30.5314 90.359 34.7794L89.159 35.6564C86.759 37.4074 86.759 37.4074 84.441 39.2804C79.684 43.1244 72.561 44.3734 66.614 44.5744V44.0844C66.9261 43.8166 67.253 43.5666 67.593 43.3354C72.0144 39.6837 74.9703 34.5599 75.918 28.9044C76.055 27.0904 76.165 25.6044 75.183 24.0044C73.1665 22.6644 70.705 22.1686 68.327 22.6234C64.045 23.4144 60.747 26.0684 57.647 28.9624C50.084 36.0014 50.084 36.0014 47.515 36.0014C47.8584 34.3652 48.3132 32.7545 48.876 31.1804C49.876 28.2914 50.612 25.4804 49.292 22.5594C48.6817 21.6636 47.7677 21.0193 46.719 20.7454C45.8135 20.5497 44.8773 20.5436 43.9693 20.7274C43.0613 20.9112 42.2012 21.2809 41.443 21.8134C40.2105 22.9996 39.4752 24.6101 39.386 26.3184C39.3139 27.5915 39.4981 28.8661 39.9275 30.0668C40.3569 31.2674 41.0229 32.3697 41.886 33.3084C43.2264 34.6056 44.7727 35.6714 46.462 36.4624C46.829 36.6484 46.829 36.6484 47.206 36.8424C52.086 39.3054 57.022 41.5044 62.546 41.7714C62.746 41.7834 62.952 41.7934 63.161 41.8034C63.661 41.8304 64.161 41.8544 64.661 41.8794V42.3694C63.761 42.6114 62.866 42.8494 61.968 43.0894C61.716 43.1584 61.468 43.2244 61.204 43.2954C52.681 45.5484 44.388 43.3424 36.259 40.6564C36.105 40.6054 35.95 40.5564 35.789 40.5024C33.943 39.8904 32.0977 39.2727 30.253 38.6494C28.1658 37.902 25.8875 37.8812 23.787 38.5904C22.4961 39.1956 21.3935 40.1398 20.597 41.3224C20.3015 41.9981 19.7583 42.5349 19.079 42.8224C18.379 42.9644 17.688 43.0554 16.979 43.1314C16.712 43.1684 16.443 43.2024 16.169 43.2394C15.381 43.3394 14.595 43.4394 13.806 43.5254C12.734 43.6524 11.664 43.7874 10.591 43.9254C8.13035 44.2314 5.66903 44.5294 3.20703 44.8194C3.45203 44.0844 3.45202 44.0844 4.11302 43.7194C4.39902 43.5894 4.68603 43.4574 4.98203 43.3254C7.52744 42.0042 9.92353 40.4134 12.129 38.5804C14.6103 36.5179 17.3782 34.8272 20.346 33.5614L20.919 33.3334C26.176 31.4974 31.932 33.1574 36.755 35.4634C39.025 36.5844 41.194 37.8854 43.361 39.1924C42.788 38.6144 42.213 38.0394 41.613 37.4924C38.079 34.1813 35.9666 29.6288 35.72 24.7924C35.588 20.8284 36.42 17.1924 39.03 14.1094C40.3647 12.66 42.1679 11.7282 44.1221 11.4779C46.0764 11.2277 48.0563 11.6751 49.713 12.7414Z" fill="#FF0000"/>
<path d="M58.7724 58.5273C59.1047 58.5829 59.4321 58.6649 59.7514 58.7723C59.9668 59.1526 60.1316 59.5594 60.2414 59.9823C60.3634 60.3493 60.3634 60.3493 60.4884 60.7263C60.6134 61.1033 60.6084 61.0933 60.7304 61.4653C60.8794 61.8543 61.0304 62.2413 61.1904 62.6283C61.3104 62.9283 61.3104 62.9283 61.4354 63.2383L61.7094 63.9143C61.9344 64.4753 62.1574 65.0353 62.3824 65.5993C62.5094 65.9123 62.6344 66.2283 62.7624 66.5443C63.0611 67.291 63.3591 68.037 63.6564 68.7823C63.7394 68.9883 63.8224 69.1933 63.9064 69.4063C64.0751 69.825 64.2417 70.2437 64.4064 70.6623C64.7957 71.639 65.1891 72.6133 65.5864 73.5853C65.6554 73.7543 65.7264 73.9233 65.7974 74.0973C65.9814 74.5503 66.1674 74.9973 66.3534 75.4533C66.561 75.9023 66.6478 76.3976 66.6054 76.8903C67.3154 76.381 68.0247 75.871 68.7334 75.3603C68.9334 75.2163 69.1334 75.0743 69.3334 74.9243C70.1484 74.3363 70.9544 73.7513 71.7334 73.1153C72.2334 72.7283 72.2334 72.7283 72.7224 72.7283V72.2383C73.7944 71.5033 73.7944 71.5033 74.4364 71.5033V71.0133L75.2174 70.5853C75.7872 70.2642 76.3294 69.8963 76.8384 69.4853C77.3744 69.0573 77.3744 69.0573 77.8644 69.0573V68.5673H78.5994C78.4134 70.0513 78.1094 71.4983 77.7894 72.9593C77.7334 73.2093 77.6794 73.4593 77.6224 73.7163C77.1034 76.0713 76.5224 78.4053 75.9154 80.7433C75.3644 82.9033 74.8724 85.0693 74.4154 87.2533C73.9994 89.2123 73.4824 91.1043 72.9634 93.0533H45.5504C45.2145 92.2723 44.9679 91.4558 44.8154 90.6193C44.7109 89.9793 44.5544 89.3489 44.3474 88.7343C44.0025 87.5879 43.7188 86.4239 43.4974 85.2473C43.0664 83.2173 42.5974 81.2053 42.0824 79.1943C41.8574 78.2783 41.6684 77.3603 41.5074 76.4303C41.4543 76.0658 41.3376 75.7134 41.1624 75.3893C40.8119 74.3639 40.5496 73.3104 40.3784 72.2403C40.3094 71.9143 40.3094 71.9143 40.2414 71.5793C40.1994 71.3683 40.1584 71.1583 40.1144 70.9403C40.0774 70.7493 40.0384 70.5583 40.0014 70.3603C39.9224 69.7665 39.8946 69.167 39.9184 68.5683C40.7902 68.9953 41.6291 69.4864 42.4284 70.0373L43.2284 70.5563L43.8354 71.0163V71.5063L44.4184 71.7363C44.8049 71.8806 45.1825 72.0476 45.5494 72.2363V72.7263L46.1324 72.9563C46.5189 73.1006 46.8965 73.2676 47.2634 73.4563V73.9463L47.8464 74.1763C48.2329 74.3206 48.6105 74.4876 48.9774 74.6763V75.1663C49.1534 75.2273 49.3304 75.2883 49.5134 75.3503C50.2096 75.6837 50.8537 76.1166 51.4254 76.6353C52.4254 74.5423 53.3134 72.4433 54.1184 70.2693C54.8674 68.2493 55.6184 66.2393 56.4614 64.2563C57.2564 62.3613 58.0104 60.4423 58.7724 58.5273Z" fill="#FFD700"/>
<path d="M40.1625 46.4756L41.5725 46.6866C42.5518 46.8333 43.5305 46.9809 44.5085 47.1296C45.7618 47.3203 47.0155 47.5089 48.2695 47.6956C49.2368 47.8403 50.2035 47.9856 51.1695 48.1316L52.5555 48.3396C53.1995 48.4396 53.8455 48.5326 54.4895 48.6336C54.6785 48.6606 54.8695 48.6876 55.0625 48.7166C55.2555 48.7456 55.4175 48.7726 55.5985 48.7996C55.7505 48.8236 55.9045 48.8466 56.0585 48.8706C56.7277 49.0341 57.3874 49.2344 58.0345 49.4706V54.8566C57.4615 54.9616 57.4615 54.9616 56.8785 55.0716C51.5845 56.0946 47.4835 57.6546 43.3435 61.2216L42.8435 61.6496C38.0885 66.0496 36.5435 72.1556 36.0005 78.3606H28.9005C28.4903 77.3226 28.244 76.2272 28.1705 75.1136C28.1315 74.7136 28.0895 74.3206 28.0485 73.9236C28.0285 73.7236 28.0065 73.5236 27.9845 73.3166C27.8845 72.4326 27.7665 71.5516 27.6395 70.6696C27.6155 70.5006 27.5905 70.3316 27.5665 70.1576C27.5175 69.8126 27.4665 69.4646 27.4145 69.1166C27.3335 68.5606 27.2555 68.0046 27.1745 67.4466C26.9492 65.8699 26.7215 64.2923 26.4915 62.7136C26.3495 61.7389 26.2092 60.7636 26.0705 59.7876C26.0195 59.4206 25.9655 59.0526 25.9115 58.6876C25.3975 55.1936 25.0005 52.1946 27.1255 49.1456C30.6425 44.8496 35.2695 45.7286 40.1625 46.4756Z" fill="#FF0000"/>
<path d="M83.1367 81.2715H83.9367C84.2227 81.2715 84.5097 81.2715 84.8057 81.2715C85.1017 81.2715 85.4057 81.2715 85.7187 81.2715C86.1737 81.2715 86.1737 81.2715 86.6367 81.2715L88.8867 81.2835C89.1127 81.8316 89.1555 82.4381 89.0087 83.0125C88.9767 83.2125 88.9427 83.4125 88.9087 83.6225C88.8747 83.8325 88.8327 84.0635 88.7937 84.2885C88.7547 84.5135 88.7157 84.7535 88.6737 84.9935C88.5437 85.7648 88.4123 86.5362 88.2797 87.3075C88.1887 87.8435 88.0957 88.3795 88.0057 88.9185C87.815 90.0445 87.6217 91.1708 87.4257 92.2975C87.1783 93.7348 86.9333 95.1738 86.6907 96.6145C86.502 97.7258 86.3127 98.8358 86.1227 99.9445C86.0297 100.473 85.9417 101.004 85.8507 101.533C85.7257 102.28 85.5957 103.024 85.4667 103.768C85.4297 103.983 85.3957 104.201 85.3587 104.424C85.0641 107.012 83.7929 109.389 81.8047 111.071C78.0367 113.471 71.6557 111.507 67.6357 110.799C67.0087 110.694 66.3847 110.586 65.7597 110.481C64.2467 110.226 62.7337 109.962 61.2227 109.698V101.371L63.0887 101.082C69.0778 100.145 74.4595 96.8939 78.0757 92.0285C80.0647 89.1082 81.4345 85.8115 82.1007 82.3415C82.3327 81.3085 82.3327 81.3085 83.1367 81.2715Z" fill="#FF0000"/>
<path d="M61.2221 49.7148C61.6601 49.7538 62.1011 49.8148 62.5391 49.8838L63.4771 50.0258L64.0281 50.1088C65.0151 50.2608 66.0041 50.4088 66.9931 50.5518L68.7291 50.8088C70.1761 51.0238 71.6231 51.2368 73.0731 51.4378C73.9031 51.5552 74.7331 51.6742 75.5631 51.7948C76.2141 51.8948 76.8631 51.9838 77.5141 52.0768C78.5768 52.2288 79.6378 52.3838 80.6971 52.5418L81.9801 52.7278C85.6401 53.2468 88.6801 53.8028 91.0491 56.9098C93.6541 60.9208 91.9821 65.8248 91.2151 70.2198C91.1021 70.8788 90.9871 71.5348 90.8751 72.1928L90.6551 73.4558C90.4151 74.8418 90.1865 76.2308 89.9691 77.6228C89.8691 78.1148 89.8691 78.1148 89.6241 78.3598C89.0981 78.3818 88.5741 78.3868 88.0471 78.3838C87.7261 78.3838 87.4081 78.3838 87.0771 78.3838L86.0601 78.3758H85.0371C84.1998 78.3758 83.3625 78.3718 82.5251 78.3638C82.5011 78.0698 82.4761 77.7758 82.4521 77.4748C81.8721 70.9078 79.5731 64.8968 74.4461 60.4898C70.5694 57.4336 65.8922 55.5625 60.9771 55.1018C60.9698 54.2492 60.9641 53.3968 60.9601 52.5448C60.9601 52.3028 60.9601 52.0598 60.9531 51.8078C60.9531 51.5778 60.9531 51.3448 60.9531 51.1078C60.9531 50.8948 60.9531 50.6798 60.9531 50.4588C60.9771 49.9598 60.9771 49.9598 61.2221 49.7148Z" fill="#FF0000"/>
<path d="M30.2493 81.2715H31.0493C31.4803 81.2715 31.4803 81.2715 31.9183 81.2715H32.8313C33.2863 81.2715 33.2863 81.2715 33.7493 81.2715L35.9993 81.2835C36.0703 81.5305 36.1393 81.7755 36.2123 82.0275C36.2563 82.1845 36.3003 82.3405 36.3473 82.5025C36.4793 82.9625 36.6073 83.4235 36.7363 83.8835C37.7654 87.6204 39.605 91.0848 42.1243 94.0305C42.2763 94.2115 42.4243 94.3925 42.5873 94.5765C46.3673 98.6875 52.0943 100.898 57.5493 101.376C57.7943 101.621 57.7943 101.621 57.8213 102.324C57.8213 102.784 57.8213 102.784 57.8213 103.252C57.8213 103.416 57.8213 103.578 57.8213 103.747C57.8213 104.269 57.8213 104.79 57.8143 105.312C57.8143 105.665 57.8143 106.017 57.8143 106.37C57.8143 107.237 57.8103 108.104 57.8023 108.97C55.6133 108.823 53.4633 108.542 51.2963 108.201L50.2963 108.044L48.2033 107.716C47.3173 107.574 46.4303 107.439 45.5443 107.302C44.8543 107.197 44.1633 107.087 43.4733 106.979C42.9907 106.903 42.5077 106.829 42.0243 106.756C38.7093 106.22 35.5603 105.292 33.3913 102.569C32.2775 100.927 31.5738 99.0419 31.3393 97.0715C31.2733 96.6015 31.2733 96.6015 31.2043 96.1195C31.1573 95.7795 31.1113 95.4385 31.0673 95.0985C31.0233 94.7585 30.9673 94.3985 30.9203 94.0435C30.8177 93.3102 30.7177 92.5748 30.6203 91.8375C30.4937 90.8982 30.3637 89.9585 30.2303 89.0185C30.1297 88.2912 30.0297 87.5655 29.9303 86.8415C29.8833 86.4935 29.8303 86.1415 29.7883 85.8005C29.7193 85.3155 29.6533 84.8285 29.5883 84.3435C29.5513 84.0695 29.5153 83.7925 29.4753 83.5085C29.3939 82.8569 29.3662 82.1997 29.3923 81.5435C29.6373 81.2985 29.6373 81.2985 30.2493 81.2715Z" fill="#FF0000"/>
<path d="M69.0547 74.1973C69.2967 74.3193 69.2967 74.3193 69.5447 74.4423C69.3017 74.5643 69.3017 74.5643 69.0547 74.6873V74.1973Z" fill="#FFD700"/>
</g>
<defs>
<clipPath id="clip0_86_708">
<rect width="119.729" height="111.731" fill="white" transform="translate(0.5 0.5)"/>
</clipPath>
</defs>
</svg>
