<svg width="59" height="29" viewBox="0 0 59 29" fill="none" xmlns="http://www.w3.org/2000/svg">
<g clip-path="url(#clip0_86_716)">
<path d="M26.7871 12.8374C26.2491 12.1741 25.9623 11.3423 25.9771 10.4884V10.4664C25.9695 9.98343 26.0583 9.5038 26.2384 9.05562C26.4186 8.60744 26.6864 8.19973 27.0261 7.85639L27.0286 7.85694L27.0311 7.85639C27.1141 7.77339 27.1981 7.69539 27.2871 7.61939C27.8731 7.11649 28.609 6.82151 29.3801 6.78039C29.4018 6.77903 29.4235 6.77903 29.4451 6.78039C29.4881 6.78039 29.5311 6.77539 29.5741 6.77539C29.6361 6.77539 29.6951 6.78039 29.7571 6.78339C29.813 6.78592 29.8687 6.79126 29.9241 6.79939C30.5423 6.86134 31.132 7.09017 31.6301 7.46139C31.7054 7.51539 31.7781 7.57172 31.8481 7.63039C32.2589 7.98397 32.5879 8.4226 32.8123 8.91591C33.0368 9.40922 33.1514 9.94542 33.1481 10.4874V10.5034C33.1481 10.6324 33.1401 10.7564 33.1291 10.8824C33.0887 11.3682 32.9466 11.84 32.7121 12.2674C32.6851 12.3184 32.6561 12.3674 32.6261 12.4204C32.5961 12.4734 32.5641 12.5204 32.5321 12.5714C32.5001 12.6224 32.4491 12.6924 32.4061 12.7514C32.3631 12.8104 32.3061 12.8804 32.2551 12.9424L32.1931 13.0124C32.1631 13.0444 32.1341 13.0774 32.0991 13.1124C31.7623 13.4674 31.3547 13.7479 30.9027 13.9356C30.4507 14.1234 29.9644 14.2143 29.4751 14.2024C28.9859 14.1905 28.5045 14.0762 28.0622 13.8667C27.6198 13.6573 27.2263 13.3574 26.9071 12.9864C26.8671 12.9404 26.8261 12.8954 26.7891 12.8464" fill="white"/>
<path d="M33.278 25.5733C30.8739 26.3973 28.2664 26.4124 25.853 25.6163C25.8517 25.6168 25.8503 25.6171 25.849 25.6171C25.8476 25.6171 25.8462 25.6168 25.845 25.6163V19.5853C25.8385 19.488 25.8578 19.3907 25.901 19.3033C25.914 19.2763 25.928 19.2523 25.941 19.2283C25.9555 19.2039 25.9715 19.1806 25.989 19.1583C26.005 19.1363 26.027 19.1123 26.048 19.0883L26.113 19.0233C26.1375 18.9987 26.1647 18.9769 26.194 18.9583C26.229 18.9313 26.264 18.9073 26.294 18.8833C26.4123 18.8079 26.5375 18.744 26.668 18.6923C26.7429 18.6575 26.8201 18.6278 26.899 18.6033L26.969 18.5793L27.114 18.5333C27.195 18.5093 27.273 18.4873 27.351 18.4683C27.429 18.4493 27.477 18.4363 27.539 18.4253C27.66 18.3983 27.778 18.3773 27.881 18.3583L28.013 18.3363L28.094 18.3253C28.1144 18.3205 28.1351 18.3168 28.156 18.3143C29.549 18.104 30.9717 18.2155 32.315 18.6403C32.4599 18.6889 32.5988 18.754 32.729 18.8343C32.8621 18.9112 32.9865 19.0024 33.1 19.1063C33.1538 19.1664 33.195 19.2368 33.221 19.3133C33.2335 19.3502 33.2435 19.388 33.251 19.4263C33.26 19.4632 33.2637 19.5013 33.262 19.5393C33.266 19.5725 33.266 19.6061 33.262 19.6393L33.278 25.5733Z" fill="white"/>
<path d="M29.5458 14.1934C29.0452 14.1828 28.5522 14.0694 28.0974 13.8602C27.6425 13.651 27.2355 13.3505 26.9018 12.9774C27.221 13.3484 27.6145 13.6483 28.0568 13.8577C28.4991 14.0672 28.9805 14.1815 29.4698 14.1934C29.959 14.2053 30.4454 14.1144 30.8973 13.9266C31.3493 13.7389 31.7569 13.4584 32.0938 13.1034C31.4209 13.7878 30.5054 14.1794 29.5458 14.1934ZM29.9197 6.79339C30.5355 6.86518 31.1227 7.09305 31.6257 7.45539C31.1276 7.08417 30.5379 6.85534 29.9197 6.79339ZM29.1718 6.79339C29.1456 6.79555 29.1195 6.79922 29.0938 6.80439C29.0178 6.8129 28.9423 6.82559 28.8678 6.84239C28.7845 6.85792 28.702 6.87761 28.6207 6.90139C28.5407 6.92539 28.4838 6.94139 28.4208 6.96639C28.3957 6.97329 28.3713 6.98233 28.3477 6.99339C28.2997 7.00939 28.2537 7.02839 28.2047 7.04939C28.1496 7.07107 28.0958 7.09612 28.0438 7.12439C28.0214 7.13273 27.9996 7.14276 27.9788 7.15439C27.9168 7.18639 27.8547 7.22139 27.7957 7.25439C27.7717 7.26739 27.7497 7.28139 27.7257 7.29739C28.2276 6.99395 28.7947 6.81497 29.3798 6.77539C29.3128 6.77646 29.246 6.78181 29.1798 6.79139M27.5147 7.43939C27.5814 7.39139 27.6481 7.34639 27.7148 7.30439L27.7257 7.29639C27.7216 7.29682 27.7178 7.29857 27.7148 7.30139C27.6448 7.34439 27.5777 7.39139 27.5147 7.43939ZM26.2987 18.8794C26.4183 18.8061 26.5433 18.7423 26.6728 18.6884C26.5423 18.7401 26.4171 18.804 26.2987 18.8794ZM25.8438 19.5794V25.6104C25.845 25.6109 25.8464 25.6112 25.8477 25.6112C25.8491 25.6112 25.8505 25.6109 25.8517 25.6104V19.5814C25.8463 19.4847 25.8638 19.3881 25.9028 19.2994C25.8596 19.3868 25.8403 19.4841 25.8468 19.5814" fill="#2B2C7F"/>
<path d="M37.8395 6.33007C37.7025 6.19307 37.5655 6.05607 37.4195 5.92407C37.3255 5.83807 37.2285 5.75207 37.1315 5.66807C37.0345 5.58407 36.9375 5.50107 36.8385 5.42007C34.772 3.72755 32.1841 2.8009 29.5129 2.79689C26.8417 2.79288 24.2512 3.71176 22.1795 5.39807C22.1704 5.40372 22.162 5.41043 22.1545 5.41807C22.0735 5.48307 21.9955 5.54707 21.9175 5.61807C20.3498 6.96979 19.1678 8.71234 18.4914 10.6687C17.8151 12.6251 17.6685 14.7257 18.0667 16.757C18.4648 18.7883 19.3935 20.6781 20.7583 22.2345C22.1231 23.7908 23.8755 24.9582 25.8375 25.6181V19.5871C25.8311 19.4898 25.8504 19.3925 25.8935 19.3051C25.902 19.2778 25.9156 19.2523 25.9335 19.2301C25.9451 19.204 25.9614 19.1803 25.9815 19.1601C25.9981 19.1343 26.0179 19.1108 26.0405 19.0901L26.1055 19.0251C26.1301 19.0005 26.1572 18.9787 26.1865 18.9601C26.2215 18.9331 26.2565 18.9091 26.2865 18.8851C26.4049 18.8097 26.5301 18.7458 26.6605 18.6941C26.7355 18.6593 26.8126 18.6296 26.8915 18.6051L26.9615 18.5811L27.1065 18.5351C27.1875 18.5111 27.2655 18.4891 27.3435 18.4701C27.4215 18.4511 27.4695 18.4381 27.5315 18.4271C27.6525 18.4001 27.7705 18.3791 27.8735 18.3601C27.9215 18.3521 27.9645 18.3471 28.0055 18.3381C28.0322 18.3325 28.0593 18.3288 28.0865 18.3271C28.107 18.3223 28.1277 18.3186 28.1485 18.3161C29.5416 18.1058 30.9643 18.2173 32.3075 18.6421C32.4525 18.6907 32.5914 18.7558 32.7215 18.8361C32.8547 18.913 32.9791 19.0042 33.0925 19.1081C33.1464 19.1682 33.1875 19.2386 33.2135 19.3151C33.2273 19.3516 33.2373 19.3895 33.2435 19.4281C33.2512 19.4652 33.2549 19.5031 33.2545 19.5411C33.2569 19.5745 33.2552 19.6081 33.2495 19.6411L33.2605 25.5781C35.1228 24.9307 36.792 23.8246 38.114 22.3619C39.436 20.8991 40.3682 19.1269 40.8245 17.2088C41.2808 15.2908 41.2465 13.2886 40.7248 11.3873C40.2031 9.48595 39.2108 7.74668 37.8395 6.33007ZM33.1425 10.4981C33.1425 10.6271 33.1345 10.7511 33.1235 10.8771C33.0831 11.3629 32.9411 11.8347 32.7065 12.2621C32.6821 12.3153 32.6533 12.3665 32.6205 12.4151C32.5905 12.4661 32.5585 12.5151 32.5265 12.5661C32.4945 12.6171 32.4435 12.6871 32.4005 12.7461C32.3575 12.8051 32.3005 12.8751 32.2495 12.9371L32.1875 13.0071C32.1575 13.0391 32.1285 13.0721 32.0935 13.1071C31.7567 13.4621 31.3491 13.7426 30.8971 13.9303C30.4451 14.1181 29.9588 14.2089 29.4695 14.1971C28.9803 14.1852 28.4989 14.0708 28.0566 13.8614C27.6143 13.6519 27.2208 13.352 26.9015 12.9811C26.8615 12.9351 26.8205 12.8901 26.7835 12.8411C26.6923 12.7278 26.6078 12.6093 26.5305 12.4861C26.4235 12.3201 26.3312 12.1451 26.2545 11.9631L26.2065 11.8371C26.1875 11.7891 26.1685 11.7371 26.1555 11.6921C26.1425 11.6471 26.1235 11.5981 26.1095 11.5491C26.0955 11.5001 26.0855 11.4631 26.0745 11.4171L26.0345 11.2341L26.0185 11.1341C26.0075 11.0691 25.9995 11.0051 25.9915 10.9401C25.9865 10.8941 25.9835 10.8511 25.9805 10.8051C25.9752 10.7542 25.9725 10.7032 25.9725 10.6521V10.2791C25.9712 10.2333 25.9739 10.1874 25.9805 10.1421C25.9855 10.0721 25.9915 10.0021 25.9995 9.93507C26.0045 9.88907 26.0125 9.84107 26.0215 9.79507C26.0305 9.74907 26.0375 9.71407 26.0435 9.67407C26.0495 9.63407 26.0655 9.57407 26.0785 9.52607C26.1058 9.40973 26.1392 9.29491 26.1785 9.18207L26.2345 9.03407C26.2737 8.93689 26.3177 8.84176 26.3665 8.74907C26.3885 8.70907 26.4095 8.66807 26.4335 8.62807C26.4875 8.53407 26.5435 8.44007 26.6055 8.35107C26.6608 8.27102 26.7202 8.19391 26.7835 8.12007C26.7846 8.11495 26.7875 8.11037 26.7915 8.10707C26.8265 8.06707 26.8585 8.02607 26.8915 7.98907C26.9245 7.95207 26.9695 7.90007 27.0095 7.86007C27.0108 7.85987 27.0119 7.85928 27.0128 7.85838C27.0137 7.85749 27.0143 7.85632 27.0145 7.85507C27.0975 7.77207 27.1815 7.69407 27.2705 7.61807C27.3435 7.55607 27.4155 7.50007 27.4935 7.44307C27.5715 7.38607 27.6285 7.34907 27.6935 7.30607C27.6985 7.30607 27.7015 7.30107 27.7045 7.30107C27.7285 7.28507 27.7505 7.27107 27.7745 7.25807C27.8335 7.22307 27.8955 7.18807 27.9575 7.15807C27.9784 7.14644 28.0001 7.13641 28.0225 7.12807C28.0765 7.10107 28.1305 7.07407 28.1835 7.05307C28.2365 7.03207 28.2775 7.01307 28.3265 6.99707C28.35 6.986 28.3745 6.97697 28.3995 6.97007C28.4665 6.94607 28.5365 6.92407 28.5995 6.90507C28.6625 6.88607 28.7635 6.86207 28.8475 6.84607C28.9221 6.82926 28.9976 6.81658 29.0735 6.80807C29.1003 6.80332 29.1274 6.79998 29.1545 6.79807C29.2215 6.79007 29.2895 6.78507 29.3545 6.78207C29.3762 6.78071 29.3979 6.78071 29.4195 6.78207C29.4625 6.78207 29.5055 6.77707 29.5485 6.77707C29.6105 6.77707 29.6695 6.78207 29.7315 6.78507C29.7864 6.7867 29.8411 6.79104 29.8955 6.79807C30.5137 6.86002 31.1034 7.08885 31.6015 7.46007C31.6771 7.51255 31.7499 7.56896 31.8195 7.62907C31.9968 7.77957 32.1589 7.94703 32.3035 8.12907C32.3355 8.16907 32.3655 8.21007 32.3975 8.25007C32.4286 8.29039 32.4573 8.33246 32.4835 8.37607C32.5087 8.40807 32.5321 8.44146 32.5535 8.47607C32.5865 8.52545 32.6169 8.57652 32.6445 8.62907C32.6495 8.63707 32.6555 8.64207 32.6555 8.65107C32.678 8.68268 32.6977 8.71614 32.7145 8.75107C32.7385 8.79707 32.7625 8.84507 32.7845 8.89407C32.8065 8.94307 32.8225 8.97507 32.8385 9.01807C32.8852 9.12497 32.9256 9.23449 32.9595 9.34607C32.9865 9.43207 33.0105 9.52107 33.0295 9.61007C33.0323 9.61986 33.034 9.62992 33.0345 9.64007C33.0455 9.68307 33.0535 9.72607 33.0615 9.77207C33.0775 9.85807 33.0885 9.94107 33.0965 10.0281C33.1015 10.0761 33.1075 10.1221 33.1095 10.1711C33.1115 10.2201 33.1145 10.2711 33.1145 10.3161V10.4831L33.1425 10.4981Z" fill="#2B2C7F"/>
<path d="M33.1456 10.4803V10.5013C33.1456 10.6303 33.1376 10.7543 33.1266 10.8803C33.0773 11.3643 32.9357 11.8345 32.7096 12.2653C32.6826 12.3163 32.6536 12.3653 32.6236 12.4183C32.5936 12.4713 32.5616 12.5183 32.5296 12.5693C32.4976 12.6203 32.4466 12.6903 32.4036 12.7493C32.3606 12.8083 32.3036 12.8783 32.2526 12.9403L32.1906 13.0103C32.1606 13.0423 32.1316 13.0753 32.0966 13.1103C31.7597 13.4653 31.3521 13.7458 30.9002 13.9335C30.4482 14.1213 29.9619 14.2121 29.4726 14.2003C28.9833 14.1884 28.502 14.074 28.0596 13.8646C27.6173 13.6551 27.2238 13.3552 26.9046 12.9843C26.8646 12.9383 26.8236 12.8933 26.7866 12.8443C26.2595 12.175 25.9741 11.3472 25.9766 10.4953V10.4733C25.9776 9.50074 26.3533 8.56598 27.0256 7.86327L27.0289 7.86158L27.0306 7.85827C27.1136 7.77527 27.1976 7.69727 27.2866 7.62127C27.8726 7.11837 28.6085 6.82339 29.3796 6.78227C29.4012 6.78091 29.4229 6.78091 29.4446 6.78227H29.5736C29.6356 6.78227 29.6976 6.78227 29.7566 6.78727C29.8125 6.7898 29.8682 6.79514 29.9236 6.80327C30.5417 6.86522 31.1314 7.09405 31.6296 7.46527C31.7049 7.51927 31.7776 7.5756 31.8476 7.63427C32.0248 7.78477 32.1869 7.95224 32.3316 8.13427C32.8616 8.80419 33.1489 9.63402 33.1466 10.4883" fill="#F05A28"/>
<path d="M33.2709 19.5371C33.2749 19.5703 33.2749 19.6039 33.2709 19.6371H33.2489C33.2443 19.6369 33.2399 19.6381 33.236 19.6404C33.2321 19.6427 33.2289 19.6461 33.2269 19.6501C33.2185 19.6757 33.2085 19.7007 33.1969 19.7251C33.1841 19.7519 33.1698 19.778 33.1539 19.8031C33.1379 19.8271 33.1219 19.8491 33.1029 19.8731C33.0838 19.8968 33.0631 19.9192 33.0409 19.9401L32.9929 19.9861C32.9819 19.9971 32.9689 20.0051 32.9579 20.0161C32.9279 20.0401 32.8959 20.0641 32.8639 20.0861C32.8532 20.0925 32.8432 20.0998 32.8339 20.1081C32.8099 20.1211 32.7859 20.1381 32.7609 20.1541C32.7359 20.1701 32.6879 20.1941 32.6509 20.2131C32.6139 20.2321 32.5649 20.2561 32.5189 20.2751L32.4999 20.2831C32.4489 20.3051 32.3999 20.3261 32.3469 20.3451C32.2425 20.3853 32.1356 20.4187 32.0269 20.4451C31.9199 20.4721 31.8389 20.4961 31.7529 20.5181C31.6669 20.5401 31.5809 20.5581 31.5029 20.5741C31.4649 20.5851 31.4299 20.5901 31.3949 20.5981C30.3844 20.7859 29.3514 20.8196 28.3309 20.6981C28.2769 20.6931 28.2069 20.6821 28.1239 20.6681C27.9889 20.6491 27.8239 20.6171 27.6369 20.5771C27.5719 20.5641 27.5049 20.5471 27.4369 20.5311L27.2939 20.4961L27.1489 20.4701C27.0532 20.4461 26.959 20.4164 26.8669 20.3811L26.7669 20.3431L26.6029 20.2781L26.4789 20.2221C26.4389 20.2001 26.3979 20.1821 26.3609 20.1601L26.2799 20.1141C26.2303 20.0836 26.1825 20.0502 26.1369 20.0141C26.0969 19.9834 26.0592 19.95 26.0239 19.9141C26.0025 19.8894 25.9828 19.8633 25.9649 19.8361C25.9501 19.8139 25.9374 19.7905 25.9269 19.7661C25.9194 19.7505 25.913 19.7345 25.9079 19.7181C25.9079 19.7181 25.9079 19.7131 25.9079 19.7101V19.6991C25.9066 19.6911 25.9066 19.683 25.9079 19.6751C25.9024 19.6549 25.8997 19.634 25.8999 19.6131V19.6021C25.8998 19.5994 25.8992 19.5968 25.898 19.5945C25.8967 19.5921 25.895 19.5901 25.8929 19.5886C25.8907 19.587 25.8883 19.586 25.8857 19.5856C25.8831 19.5851 25.8804 19.5853 25.8779 19.5861H25.8489C25.8424 19.4888 25.8618 19.3915 25.9049 19.3041C25.9179 19.2771 25.9319 19.2531 25.9449 19.2291C25.9594 19.2047 25.9754 19.1814 25.9929 19.1591C26.0089 19.1371 26.0309 19.1131 26.0519 19.0891L26.1169 19.0241C26.1414 18.9995 26.1686 18.9777 26.1979 18.9591C26.2329 18.9321 26.2679 18.9081 26.2979 18.8841C26.4162 18.8087 26.5414 18.7448 26.6719 18.6931C26.7468 18.6583 26.824 18.6286 26.9029 18.6041L26.9729 18.5801L27.1179 18.5341C27.1989 18.5101 27.2769 18.4881 27.3549 18.4691C27.4329 18.4501 27.4809 18.4391 27.5429 18.4261C27.6639 18.3991 27.7819 18.3781 27.8849 18.3591C27.9329 18.3511 27.9759 18.3461 28.0169 18.3371C28.0436 18.3315 28.0706 18.3278 28.0979 18.3261L28.1569 18.3181C29.5489 18.108 30.9706 18.2195 32.3129 18.6441C32.4583 18.695 32.5989 18.7589 32.7329 18.8351C32.8641 18.9148 32.9876 19.0065 33.1019 19.1091C33.1548 19.1678 33.1968 19.2355 33.2259 19.3091C33.2384 19.346 33.2484 19.3838 33.2559 19.4221C33.2635 19.4592 33.2672 19.4971 33.2669 19.5351" fill="#FCB712"/>
<path d="M33.2768 25.5727C30.8727 26.3968 28.2651 26.4119 25.8518 25.6157C25.8505 25.6163 25.8491 25.6166 25.8478 25.6166C25.8464 25.6166 25.845 25.6163 25.8438 25.6157V19.5847H25.8628C25.8653 19.584 25.8679 19.5838 25.8705 19.5842C25.8732 19.5846 25.8756 19.5857 25.8778 19.5872C25.8799 19.5888 25.8816 19.5908 25.8828 19.5932C25.8841 19.5955 25.8847 19.5981 25.8848 19.6007V19.6117C25.8846 19.6327 25.8873 19.6535 25.8928 19.6737C25.8931 19.6819 25.8948 19.6901 25.8978 19.6977C25.8978 19.6977 25.8978 19.7057 25.8978 19.7087V19.7167C25.9029 19.7332 25.9093 19.7492 25.9167 19.7647C25.9273 19.7892 25.94 19.8126 25.9548 19.8347C25.9727 19.862 25.9924 19.8881 26.0138 19.9127C26.049 19.9487 26.0868 19.9821 26.1268 20.0127C26.1724 20.0489 26.2202 20.0822 26.2698 20.1127L26.3507 20.1587C26.3887 20.1807 26.4288 20.1987 26.4688 20.2207L26.5928 20.2767L26.7568 20.3417L26.8568 20.3797C26.9489 20.415 27.0431 20.4447 27.1388 20.4687L27.2818 20.5087L27.4248 20.5437L27.6248 20.5897C27.8078 20.6277 27.9768 20.6597 28.1118 20.6807C28.1948 20.6917 28.2648 20.7027 28.3188 20.7077C29.3393 20.8293 30.3723 20.7956 31.3828 20.6077C31.4178 20.6027 31.4527 20.5947 31.4907 20.5857C31.5687 20.5697 31.6521 20.5511 31.7407 20.5297C31.8267 20.5077 31.9208 20.4837 32.0148 20.4567C32.1088 20.4297 32.2298 20.3917 32.3348 20.3567C32.3858 20.3377 32.4348 20.3167 32.4878 20.2947L32.5068 20.2867C32.5528 20.2677 32.5958 20.2467 32.6388 20.2247C32.6818 20.2027 32.7138 20.1867 32.7488 20.1657C32.7838 20.1447 32.7968 20.1337 32.8218 20.1197C32.831 20.1115 32.8411 20.1041 32.8517 20.0977C32.8837 20.0757 32.9168 20.0517 32.9458 20.0277C32.9568 20.0167 32.9698 20.0087 32.9808 19.9977L33.0288 19.9517C33.0508 19.9297 33.0718 19.9057 33.0908 19.8847C33.1094 19.8627 33.1265 19.8393 33.1418 19.8147C33.1577 19.7896 33.172 19.7636 33.1847 19.7367C33.1964 19.7124 33.2064 19.6874 33.2148 19.6617C33.2161 19.6572 33.2192 19.6534 33.2232 19.651C33.2273 19.6486 33.2321 19.6478 33.2368 19.6487H33.2547L33.2768 25.5727Z" fill="white"/>
</g>
<defs>
<clipPath id="clip0_86_716">
<rect width="58" height="28" fill="white" transform="translate(0.5 0.5)"/>
</clipPath>
</defs>
</svg>
