<svg width="513" height="513" viewBox="0 0 513 513" fill="none" xmlns="http://www.w3.org/2000/svg">
<g clip-path="url(#clip0_86_2494)">
<path d="M177.842 297.001C177.842 297.001 166.629 289.177 161.482 290.601C156.335 292.025 149.719 299.258 149.719 299.258C149.719 299.258 162.788 295.496 166.73 296.28C170.41 296.803 174.125 297.044 177.842 297.001Z" fill="#FF0000"/>
<path d="M181.614 299.828C179.983 303.528 177.164 306.604 175.588 310.323C173.79 314.627 173.762 319.466 175.509 323.79C178.41 320.549 180.385 316.588 181.229 312.321C182.049 308.375 182.486 304.358 182.535 300.328L181.614 299.828Z" fill="#FF0000"/>
<path d="M179.897 298.86C180.413 297.35 167.714 298.008 163.668 302.906C159.622 307.804 155.577 313.126 158.984 325.475C158.984 325.475 166.649 312.089 166.649 312.288C166.649 312.487 178.88 301.841 179.897 298.86Z" fill="#FF0000"/>
<path d="M179.994 298.706C178.818 299.162 190.352 302.674 195.674 303.106C198.59 303.44 201.542 302.975 204.215 301.761C204.215 301.761 196.481 292.308 179.994 298.706Z" fill="#FF0000"/>
<path d="M238.27 347.304C238.27 347.304 243.823 345.048 245.385 346.61C246.947 348.172 253.368 356.676 259.442 357.196C259.442 357.196 253.889 345.396 248.856 343.487C245.547 342.231 238.27 347.304 238.27 347.304Z" fill="#344952"/>
<path d="M239.694 346.667C239.694 346.667 239.472 342.501 237.382 340.306C235.292 338.111 227.73 336.613 227.73 336.613C227.73 336.613 230.452 340.978 233.242 343.103C235.244 344.543 237.41 345.739 239.694 346.667Z" fill="#344952"/>
<path d="M239.689 346.428C239.689 346.428 235.822 346.369 233.089 351.204C231.261 354.496 229.917 358.034 229.098 361.71C229.326 361.31 236.398 358.21 238.251 354.301C239.375 351.836 239.869 349.131 239.689 346.428Z" fill="#344952"/>
<path d="M240.57 346.428C240.57 346.428 241.264 355.636 242.826 357.198C244.388 358.76 246.644 364.487 246.644 364.487C246.644 364.487 250.115 356.157 248.206 352.165C246.297 348.173 240.57 346.428 240.57 346.428Z" fill="#344952"/>
<path d="M206.838 364.207C206.393 364.875 197.483 371.78 196.147 375.121C194.811 378.462 195.924 383.585 196.147 385.144C196.37 386.703 204.165 383.144 205.502 377.126C206.35 372.871 206.797 368.546 206.838 364.207Z" fill="#FF0000"/>
<path d="M208.571 359.033C208.563 360.147 208.705 371.062 211.571 374.869C213.998 377.784 216.743 380.419 219.754 382.725C219.754 382.725 221.638 368.925 217.66 364.668C215.153 362.054 212.027 360.116 208.571 359.033Z" fill="#FF0000"/>
<path d="M207.261 360.909C206.611 360.755 198.551 359.995 194.721 364.582C192.295 367.564 190.284 370.861 188.742 374.382C188.742 374.382 200.928 368.337 203.162 365.661C205.396 362.985 207.261 360.909 207.261 360.909Z" fill="#FF0000"/>
<path d="M212.805 355.918C213.814 355.224 215.004 354.838 216.228 354.807C217.453 354.775 218.66 355.099 219.705 355.74C223.328 357.995 229.346 366.753 229.346 366.753C229.346 366.753 221.981 366.274 218.099 362.586C215.973 360.675 214.183 358.421 212.805 355.918Z" fill="#344952"/>
<path d="M207.566 357.266C207.566 357.266 202.888 353.292 199.325 352.409C195.762 351.526 185.293 354.135 185.293 354.135C188.86 356.541 193.146 357.647 197.432 357.266C204.67 356.648 207.566 357.266 207.566 357.266Z" fill="#FF0000"/>
<path d="M192.055 397.719C192.055 397.719 188.714 404.178 192.055 407.742C195.396 411.306 197.199 418.433 197.199 418.433C197.199 418.433 202.969 412.865 200.073 406.633C198.363 402.92 195.567 399.812 192.055 397.719Z" fill="#FF0000"/>
<path d="M186.696 397.855C185.806 398.3 180.014 406.096 179.569 411.664C179.124 417.232 178.678 426.81 179.569 426.142C180.46 425.474 186.919 419.46 188.701 413.669C190.483 407.878 186.696 397.855 186.696 397.855Z" fill="#FF0000"/>
<path d="M184.515 397.247C183.624 397.47 175.16 395.911 170.483 401.925C165.806 407.939 162.242 416.625 162.242 416.625C162.242 416.625 174.492 410.361 177.388 406.925C180.284 403.489 184.515 397.247 184.515 397.247Z" fill="#FF0000"/>
<path d="M232.319 386.555C232.319 386.555 229.773 394.128 232.319 400.81C233.772 404.688 235.593 408.417 237.759 411.947C237.759 411.947 241.528 398.583 239.087 395.019C236.646 391.455 232.319 386.555 232.319 386.555Z" fill="#FF0000"/>
<path d="M233.715 385.745C234.615 386.581 245.06 401.576 252.161 402.914C259.262 404.252 253.272 402.348 253.272 402.348C253.272 402.348 251.034 392.24 247.852 388.057C244.67 383.874 233.715 385.745 233.715 385.745Z" fill="#344952"/>
<path d="M232.122 385.486C232.122 385.486 239.832 380.139 242.845 378.775C245.928 377.375 255.824 379.207 255.824 379.207C255.824 379.207 243.724 385.507 240.809 384.839C237.894 384.171 232.121 386.749 232.121 386.749" fill="#344952"/>
<path d="M258.923 312.564C258.923 312.564 252.242 319.642 253.123 325.172C253.763 328.86 254.719 332.486 255.981 336.01L258.919 326.278L258.923 312.564Z" fill="#344952"/>
<path d="M259.828 311.15C259.828 311.15 258.28 321.988 261.376 326.412C264.472 330.836 268.676 339.241 269.118 338.578C269.56 337.915 275.975 332.163 271.329 323.978C268.424 318.953 264.508 314.585 259.829 311.15H259.828Z" fill="#344952"/>
<path d="M257.584 313.069C257.584 313.069 246.915 309.969 245.384 315.06C243.853 320.151 242.523 324.571 242.523 324.571C244.782 322.211 247.31 320.124 250.055 318.353C252.666 316.741 255.18 314.976 257.584 313.069Z" fill="#344952"/>
<path d="M209.73 315.938C209.73 315.938 210.048 315.649 210.597 315.18C213.115 313.032 220.48 307.116 224.197 308.024C227.875 309.064 231.471 310.371 234.957 311.935C234.957 311.935 218.833 320.313 209.73 315.938Z" fill="#FF0000"/>
<path d="M211.888 316.012C211.92 315.212 207.04 313.912 202.756 318.335C198.472 322.758 197.809 325.475 197.809 325.475C197.809 325.475 211.59 323.647 211.888 316.012Z" fill="#FF0000"/>
<path d="M211.13 316.904C211.13 316.904 206.23 322.545 209.99 328.074C213.75 333.603 217.007 338.912 217.007 338.912C218.162 335.337 218.162 331.488 217.007 327.912C215.643 323.955 213.66 320.239 211.13 316.904Z" fill="#FF0000"/>
<path d="M229.463 330.942C229.242 329.596 231.025 318.551 216.413 319.642H215.074C215.074 319.642 222.063 330.923 223.661 334.462C224.619 336.877 226.176 339.008 228.184 340.655C229.906 342.205 229.684 332.288 229.463 330.942Z" fill="#344952"/>
<path d="M232.29 386.093C232.384 384.368 232.125 382.642 231.529 381.02C230.933 379.399 230.012 377.916 228.823 376.662C228.598 376.428 228.276 376.183 227.98 376.317C227.888 376.375 227.809 376.45 227.748 376.54C227.687 376.63 227.645 376.731 227.625 376.837C227.09 378.89 227.382 381.071 228.44 382.91C229.497 384.725 230.832 386.364 232.395 387.766" fill="#344952"/>
<path d="M191.115 396.283C188.472 391.465 184.309 387.656 179.275 385.449C178.973 385.283 178.627 385.214 178.283 385.249C178.031 385.332 177.811 385.489 177.65 385.699C177.489 385.91 177.396 386.165 177.383 386.429C177.367 387.522 177.772 388.578 178.513 389.38C181.733 393.589 186.441 396.405 191.671 397.251" fill="#FF0000"/>
<path d="M249.661 379.974C249.661 380.023 248.909 380.02 247.568 380.186C245.679 380.433 243.827 380.91 242.053 381.606C239.428 382.652 236.955 384.046 234.7 385.75C231.955 387.871 229.358 390.177 226.925 392.65C221.616 397.812 216.938 402.607 213.696 406.212C212.07 408.012 210.784 409.492 209.896 410.52L208.869 411.698C208.759 411.844 208.629 411.975 208.484 412.087C208.565 411.923 208.666 411.77 208.784 411.631C208.997 411.344 209.311 410.92 209.734 410.389C210.572 409.32 211.817 407.798 213.41 405.964C216.587 402.287 221.236 397.436 226.549 392.271C228.998 389.781 231.624 387.471 234.405 385.358C236.706 383.649 239.233 382.269 241.915 381.258C243.728 380.581 245.623 380.151 247.55 379.981C248.072 379.934 248.595 379.917 249.118 379.93C249.301 379.922 249.483 379.937 249.661 379.974Z" fill="#354A53"/>
<path d="M208.204 408.882C208.119 408.939 207.25 407.43 205.351 405.409C202.887 402.767 199.862 400.711 196.499 399.391C193.137 398.07 189.521 397.52 185.918 397.779C183.151 397.968 181.488 398.479 181.465 398.379C181.83 398.198 182.217 398.066 182.617 397.985C183.689 397.701 184.783 397.506 185.887 397.401C189.556 397.033 193.26 397.545 196.693 398.892C200.126 400.24 203.188 402.386 205.627 405.152C206.365 405.98 207.033 406.868 207.627 407.805C207.865 408.137 208.059 408.499 208.204 408.882Z" fill="#354A53"/>
<path d="M211.074 315.859C211.083 315.965 211.08 316.072 211.065 316.177C211.044 316.415 211.018 316.722 210.985 317.107C210.9 317.959 210.785 319.154 210.632 320.675C210.319 323.775 209.867 328.256 209.37 333.8C208.384 344.884 207.226 360.235 207.249 377.216C207.304 394.203 208.493 409.551 209.356 420.648L210.427 433.79C210.545 435.314 210.637 436.511 210.703 437.365C210.728 437.75 210.747 438.057 210.762 438.296C210.802 438.303 210.837 438.325 210.861 438.356C210.886 438.388 210.897 438.428 210.894 438.468C210.891 438.508 210.872 438.545 210.843 438.572C210.813 438.599 210.775 438.614 210.735 438.614C210.695 438.614 210.656 438.599 210.626 438.572C210.597 438.545 210.579 438.508 210.575 438.468C210.572 438.428 210.583 438.388 210.608 438.356C210.632 438.325 210.668 438.303 210.707 438.296L210.596 437.37C210.507 436.519 210.381 435.325 210.221 433.804C209.908 430.704 209.472 426.222 208.982 420.675C208.023 409.584 206.773 394.227 206.719 377.214C206.696 360.206 207.919 344.843 208.997 333.762C209.542 328.22 210.051 323.742 210.428 320.651C210.62 319.134 210.772 317.942 210.879 317.093C210.934 316.71 210.979 316.406 211.011 316.169C211.02 316.064 211.041 315.96 211.074 315.859Z" fill="#354A53"/>
<path d="M244.385 345.758C243.875 345.882 243.355 345.961 242.831 345.994C241.831 346.102 240.38 346.294 238.602 346.581C229.313 348.059 220.364 351.193 212.181 355.834C210.613 356.721 209.36 357.472 208.509 358.014C208.08 358.315 207.624 358.577 207.148 358.799C207.535 358.443 207.953 358.123 208.396 357.842C209.214 357.242 210.441 356.442 211.996 355.51C220.132 350.656 229.164 347.493 238.55 346.21C240.35 345.971 241.805 345.833 242.816 345.788C243.338 345.731 243.863 345.721 244.385 345.758Z" fill="#354A53"/>
<path d="M208.323 340.825C208.253 340.631 208.206 340.43 208.183 340.225C208.104 339.776 208.006 339.208 207.883 338.51C207.755 337.601 207.576 336.699 207.347 335.81C207.078 334.773 206.874 333.566 206.424 332.293L205.788 330.276C205.572 329.576 205.248 328.876 204.968 328.136C204.431 326.644 203.657 325.136 202.888 323.536C201.081 320.121 198.952 316.887 196.53 313.878C192.029 308.47 186.789 303.724 180.964 299.778C179.875 298.978 178.815 298.367 177.922 297.772C177.029 297.177 176.23 296.712 175.579 296.327L174.09 295.427C173.91 295.331 173.743 295.214 173.59 295.08C173.784 295.143 173.97 295.227 174.144 295.333L175.684 296.152C176.352 296.51 177.168 296.952 178.084 297.523C179 298.094 180.072 298.689 181.184 299.471C187.111 303.352 192.426 308.096 196.952 313.546C199.398 316.583 201.535 319.856 203.333 323.316C204.097 324.836 204.783 326.393 205.388 327.983C205.661 328.733 205.978 329.439 206.188 330.151L206.796 332.195C207.141 333.367 207.426 334.555 207.649 335.756C207.856 336.654 208.006 337.565 208.099 338.482C208.181 339.188 208.247 339.762 208.299 340.216C208.331 340.417 208.339 340.622 208.323 340.825Z" fill="#354A53"/>
<path d="M260.591 312.057C260.415 312.161 260.227 312.245 260.032 312.306L258.396 312.922C256.969 313.437 254.917 314.222 252.402 315.228C239.276 320.479 226.844 327.321 215.385 335.601C213.185 337.187 211.428 338.501 210.229 339.431L208.829 340.483C208.866 340.55 208.877 340.628 208.86 340.703C208.842 340.778 208.797 340.843 208.734 340.886C208.67 340.93 208.593 340.948 208.517 340.937C208.441 340.926 208.372 340.887 208.323 340.827C208.275 340.768 208.25 340.692 208.254 340.616C208.259 340.539 208.291 340.467 208.346 340.413C208.401 340.36 208.474 340.328 208.551 340.326C208.628 340.323 208.702 340.35 208.761 340.4L210.095 339.269C211.255 338.289 212.982 336.927 215.158 335.299C226.531 326.826 239.014 319.955 252.258 314.88C254.798 313.914 256.872 313.18 258.322 312.728L259.991 312.206C260.184 312.133 260.386 312.083 260.591 312.057Z" fill="#354A53"/>
<path d="M229.741 488.446H187.785L183.398 437.188H234.657L229.741 488.446Z" fill="#344952"/>
<path d="M238.064 437.188H180.152V445.069H238.064V437.188Z" fill="#344952"/>
<path d="M237.688 445.089C237.688 445.236 224.738 445.355 208.767 445.355C192.796 445.355 179.844 445.236 179.844 445.089C179.844 444.942 192.791 444.824 208.767 444.824C224.743 444.824 237.688 444.943 237.688 445.089Z" fill="#F6F6F6"/>
<path d="M414.16 489.236L449.797 489.521L450.157 444.538L414.52 444.253L414.16 489.236Z" fill="#FF0000"/>
<path d="M436.213 445.855L435.579 489.41L429.949 489.366L431.155 445.816L436.213 445.855Z" fill="#F8FAFA"/>
<path d="M394.053 445.527L414.499 445.687L450.135 445.965L414.46 450.659L414.16 489.244L393.723 489.084L394.053 445.527Z" fill="#344952"/>
<path d="M405.184 445.613L404.372 489.167L398.305 489.12L399.297 445.568L405.184 445.613Z" fill="#F8FAFA"/>
<path d="M421.363 432.361C421.372 432.635 420.776 432.919 419.68 433.188C418.127 433.54 416.546 433.751 414.956 433.818C413.837 433.875 412.715 433.862 411.598 433.781C410.989 433.734 410.357 433.67 409.705 433.566C409 433.466 408.303 433.318 407.618 433.123C407.171 432.989 406.742 432.803 406.338 432.57C405.793 432.259 405.33 431.824 404.985 431.3C404.612 430.714 404.409 430.035 404.399 429.34C404.393 428.83 404.45 428.322 404.569 427.826C404.888 426.284 405.346 424.774 405.937 423.314C406.285 422.503 406.721 421.731 407.237 421.014C407.509 420.65 407.803 420.302 408.118 419.974C408.475 419.609 408.874 419.286 409.306 419.014C409.8 418.703 410.347 418.484 410.919 418.366C411.53 418.247 412.16 418.263 412.765 418.412C413.67 418.67 414.504 419.132 415.204 419.761C417.114 421.364 418.703 423.315 419.885 425.51C420.682 426.966 421.216 428.55 421.462 430.191C421.599 431.355 421.462 432.018 421.202 432.078C420.626 432.216 419.789 429.922 417.517 427.036C416.201 425.372 414.662 423.898 412.944 422.653C412.641 422.402 412.288 422.22 411.908 422.118C411.84 422.11 411.772 422.117 411.708 422.14C411.598 422.18 411.493 422.236 411.398 422.304C411.234 422.422 411.083 422.556 410.947 422.704C410.769 422.905 410.602 423.115 410.447 423.334C410.11 423.826 409.821 424.35 409.586 424.898C409.091 426.143 408.682 427.421 408.362 428.722C408.309 428.905 408.272 429.093 408.252 429.282V429.33C408.215 429.337 408.178 429.346 408.142 429.356C408.017 429.388 407.983 429.421 408.068 429.37C408.113 429.339 408.156 429.306 408.198 429.27C408.198 429.274 408.199 429.277 408.2 429.28C408.201 429.283 408.203 429.286 408.206 429.288C408.234 429.325 408.267 429.357 408.306 429.382C408.464 429.491 408.634 429.58 408.813 429.647C409.333 429.836 409.863 429.996 410.401 430.127C410.953 430.274 411.501 430.391 412.034 430.501C413.103 430.716 414.125 430.87 415.07 431.001C416.962 431.252 418.542 431.423 419.639 431.635C420.736 431.847 421.355 432.082 421.363 432.361Z" fill="#344952"/>
<path d="M420.626 432.685C420.526 432.12 423.192 431.285 427.352 430.064C429.742 429.376 432.085 428.536 434.366 427.549C434.907 427.333 435.417 427.048 435.884 426.702C436.049 426.57 436.123 426.449 436.102 426.46C436.081 426.471 436.059 426.62 436.053 426.542C435.987 426.326 435.902 426.118 435.798 425.918L435.287 424.857C434.967 424.189 434.605 423.541 434.203 422.919C433.845 422.363 433.419 421.853 432.934 421.403C432.709 421.195 432.469 421.004 432.216 420.83C432.014 420.689 431.795 420.571 431.566 420.479C431.237 420.33 430.867 420.295 430.515 420.379C430.05 420.533 429.621 420.782 429.256 421.11C427.409 422.654 425.772 424.433 424.386 426.402C421.997 429.802 421.367 432.455 420.773 432.368C420.513 432.333 420.318 431.607 420.409 430.298C420.594 428.452 421.116 426.655 421.948 424.998C423.169 422.511 424.825 420.262 426.836 418.358C427.553 417.65 428.414 417.104 429.36 416.758C430.509 416.379 431.75 416.397 432.887 416.808C433.409 416.991 433.908 417.235 434.372 417.536C434.797 417.811 435.201 418.118 435.579 418.454C436.325 419.121 436.979 419.883 437.525 420.722C438.025 421.493 438.469 422.298 438.854 423.133L439.377 424.279C439.626 424.797 439.803 425.347 439.904 425.913C440.038 426.724 439.897 427.556 439.504 428.279C439.177 428.855 438.726 429.353 438.183 429.735C437.432 430.252 436.612 430.661 435.747 430.951C433.222 431.859 430.604 432.486 427.94 432.821C423.467 433.364 420.715 433.202 420.626 432.685Z" fill="#FF0000"/>
<path d="M387.566 445.466L439.949 445.885L440.068 430.996L387.685 430.577L387.566 445.466Z" fill="#344952"/>
<path d="M406.827 445.618L454.176 445.996L454.295 431.108L406.946 430.729L406.827 445.618Z" fill="#FF0000"/>
<path d="M439.766 430.997L439.432 445.955L433.91 445.841L434.295 430.955L439.766 430.997Z" fill="#F8FAFA"/>
<path d="M400.531 430.758L399.997 445.581L393.926 445.533L394.252 430.633L400.531 430.758Z" fill="#F8FAFA"/>
<path d="M453.607 489.362L473.801 489.523L474.005 464.033L453.811 463.872L453.607 489.362Z" fill="#FF0000"/>
<path d="M466.104 464.779L465.745 489.459L462.555 489.434L463.239 464.756L466.104 464.779Z" fill="#F8FAFA"/>
<path d="M442.211 464.592L453.797 464.682L473.991 464.84L453.775 467.5L453.604 489.364L442.023 489.273L442.211 464.592Z" fill="#344952"/>
<path d="M448.519 464.641L448.059 489.321L444.621 489.294L445.183 464.615L448.519 464.641Z" fill="#F8FAFA"/>
<path d="M457.689 457.128C457.689 457.5 456.364 457.962 454.051 458.152C452.63 458.267 451.2 458.15 449.817 457.805C449.154 457.634 448.574 457.231 448.182 456.67C447.944 456.297 447.813 455.864 447.805 455.421C447.801 455.11 447.834 454.799 447.905 454.496C448.086 453.605 448.349 452.733 448.691 451.89C448.897 451.412 449.155 450.958 449.46 450.536C449.797 450.061 450.221 449.654 450.71 449.336C451.028 449.132 451.384 448.994 451.756 448.931C452.129 448.867 452.51 448.879 452.878 448.966C453.428 449.122 453.935 449.404 454.359 449.788C455.456 450.722 456.36 451.861 457.019 453.142C458.111 455.349 457.95 456.916 457.599 456.971C457.199 457.064 456.653 455.793 455.344 454.221C454.59 453.317 453.721 452.514 452.76 451.834C452.619 451.715 452.451 451.63 452.271 451.588H452.264V451.532L452.272 451.601C452.245 451.622 452.217 451.642 452.188 451.659C452.009 451.808 451.853 451.982 451.725 452.176C451.547 452.439 451.394 452.718 451.269 453.01C450.995 453.7 450.767 454.408 450.586 455.128L450.528 455.378C450.57 455.378 450.39 455.385 450.348 455.394C450.295 455.4 450.242 455.41 450.19 455.423C450.119 455.442 450.1 455.46 450.148 455.431C450.222 455.381 450.289 455.322 450.348 455.256L450.405 455.192C450.41 455.199 450.417 455.206 450.424 455.211C450.495 455.265 450.573 455.309 450.656 455.341C451.786 455.717 452.947 455.989 454.126 456.153C456.264 456.477 457.684 456.723 457.689 457.128Z" fill="#344952"/>
<path d="M457.274 457.314C457.199 456.884 458.7 456.308 461.025 455.548C462.35 455.124 463.65 454.627 464.919 454.057C465.193 453.944 465.451 453.796 465.686 453.615C465.751 453.559 465.751 453.522 465.696 453.601C465.645 453.693 465.62 453.796 465.623 453.901L465.217 453.057C465.042 452.695 464.845 452.345 464.628 452.007C464.443 451.721 464.225 451.459 463.978 451.225C463.791 451.041 463.574 450.889 463.338 450.775C463.232 450.721 463.113 450.7 462.996 450.715C462.779 450.779 462.579 450.891 462.411 451.041C461.379 451.88 460.453 452.84 459.653 453.902C458.265 455.735 457.804 457.202 457.353 457.139C456.965 457.126 456.642 455.345 457.77 452.816C458.443 451.355 459.383 450.033 460.541 448.916C460.982 448.476 461.514 448.137 462.1 447.923C462.832 447.679 463.624 447.688 464.351 447.946C464.676 448.06 464.988 448.211 465.278 448.398C465.536 448.564 465.781 448.75 466.012 448.953C466.461 449.353 466.855 449.81 467.184 450.314C467.477 450.766 467.737 451.239 467.962 451.729L468.262 452.386C468.416 452.713 468.526 453.059 468.589 453.415C468.676 453.961 468.581 454.52 468.317 455.006C468.104 455.382 467.81 455.707 467.456 455.955C467.002 456.267 466.505 456.512 465.982 456.682C464.526 457.19 463.016 457.523 461.482 457.675C458.912 457.912 457.343 457.718 457.274 457.314Z" fill="#344952"/>
<path d="M438.536 464.557L468.219 464.795L468.286 456.358L438.603 456.12L438.536 464.557Z" fill="#344952"/>
<path d="M449.45 464.645L476.281 464.859L476.349 456.422L449.518 456.208L449.45 464.645Z" fill="#FF0000"/>
<path d="M468.115 456.358L467.926 464.834L464.797 464.769L465.015 456.334L468.115 456.358Z" fill="#F8FAFA"/>
<path d="M445.881 456.225L445.581 464.625L442.141 464.598L442.326 456.156L445.881 456.225Z" fill="#F8FAFA"/>
<path d="M512.5 489.521C512.5 489.688 397.876 489.821 256.513 489.821C115.1 489.821 0.5 489.686 0.5 489.521C0.5 489.356 115.1 489.221 256.513 489.221C397.876 489.218 512.5 489.354 512.5 489.521Z" fill="#354A53"/>
<path d="M465.26 405.925L225.491 405.798C223.728 405.797 221.983 405.449 220.355 404.773C218.726 404.098 217.247 403.108 216.001 401.861C214.755 400.614 213.767 399.133 213.093 397.504C212.42 395.875 212.073 394.13 212.074 392.367L212.262 36.5947C212.264 33.0345 213.681 29.621 216.199 27.1049C218.718 24.5888 222.133 23.1761 225.693 23.1777L465.462 23.3037C467.225 23.3046 468.971 23.6528 470.599 24.3283C472.228 25.0038 473.707 25.9935 474.953 27.2408C476.199 28.488 477.187 29.9685 477.861 31.5977C478.535 33.2268 478.881 34.9727 478.88 36.7357L478.692 392.506C478.69 396.066 477.274 399.48 474.755 401.997C472.236 404.513 468.821 405.926 465.26 405.925Z" fill="#354A53"/>
<path d="M469.882 49.6855H220.078V369.22H469.882V49.6855Z" fill="#F6F6F6"/>
<path d="M355.616 386.64C355.615 388.664 355.014 390.641 353.889 392.323C352.764 394.004 351.165 395.315 349.296 396.088C347.426 396.861 345.369 397.062 343.385 396.667C341.4 396.271 339.578 395.295 338.148 393.864C336.718 392.432 335.745 390.609 335.352 388.624C334.958 386.639 335.162 384.583 335.937 382.714C336.713 380.845 338.025 379.248 339.708 378.125C341.391 377.002 343.369 376.403 345.392 376.404C346.736 376.405 348.066 376.67 349.307 377.185C350.547 377.7 351.675 378.454 352.624 379.405C353.574 380.355 354.326 381.484 354.84 382.725C355.353 383.966 355.617 385.297 355.616 386.64Z" fill="#1B2C30"/>
<path d="M384.509 34.2598H306.637C305.966 34.2598 305.422 34.8037 305.422 35.4748V37.2718C305.422 37.9428 305.966 38.4868 306.637 38.4868H384.509C385.18 38.4868 385.724 37.9428 385.724 37.2718V35.4748C385.724 34.8037 385.18 34.2598 384.509 34.2598Z" fill="#1B2C30"/>
<path d="M459.254 325.01C458.458 325.01 457.695 324.694 457.133 324.132C456.57 323.569 456.254 322.806 456.254 322.01L456.373 95.1562C456.373 94.3606 456.689 93.5976 457.252 93.0349C457.814 92.4723 458.577 92.1562 459.373 92.1562C460.169 92.1562 460.932 92.4723 461.494 93.0349C462.057 93.5976 462.373 94.3606 462.373 95.1562L462.253 322.01C462.253 322.806 461.937 323.569 461.374 324.132C460.812 324.694 460.049 325.01 459.253 325.01H459.254Z" fill="#344952"/>
<path d="M244.354 81.5845C244.465 81.568 244.577 81.5597 244.689 81.5595L245.616 81.5265L249.03 81.4395L248.923 81.5485C248.91 80.7885 248.896 79.9605 248.882 79.0695C248.882 78.6075 248.842 78.1765 248.887 77.6385C248.941 77.3597 249.083 77.1057 249.292 76.9135C249.501 76.7213 249.767 76.6011 250.049 76.5705C250.605 76.5595 251.083 76.5335 251.686 76.5625C252.004 76.6123 252.294 76.7749 252.503 77.0207C252.712 77.2665 252.825 77.5791 252.823 77.9015C252.836 79.0581 252.85 80.2631 252.864 81.5165L252.684 81.3395L256.996 81.2965L256.81 81.4855C256.795 79.7485 256.78 77.9525 256.764 76.1125C256.764 75.6538 256.76 75.1978 256.753 74.7445C256.733 74.5439 256.668 74.3503 256.565 74.1775C256.461 74.0047 256.32 73.8568 256.153 73.7445L254.272 71.8845L252.455 70.0845L251.574 69.2135C251.274 68.9195 251.036 68.6235 250.692 68.5525C250.526 68.5082 250.353 68.5018 250.185 68.5338C250.016 68.5658 249.858 68.6355 249.72 68.7375C249.464 68.9535 249.181 69.2685 248.92 69.5235L247.371 71.0825C246.398 72.0905 245.379 73.0175 244.646 73.8825C244.431 74.3865 244.356 74.9393 244.429 75.4825C244.429 76.0158 244.427 76.5218 244.422 77.0005C244.415 77.9258 244.408 78.7411 244.401 79.4465C244.392 80.0625 244.385 80.5785 244.379 81.0135C244.381 81.2031 244.373 81.3928 244.354 81.5815C244.33 81.4105 244.319 81.2381 244.321 81.0655C244.308 80.6385 244.293 80.1315 244.275 79.5265C244.258 78.8145 244.239 77.9918 244.216 77.0585C244.207 76.5691 244.197 76.0518 244.186 75.5065C244.181 75.2298 244.177 74.9468 244.172 74.6575C244.17 74.3379 244.252 74.0234 244.412 73.7465C245.212 72.7625 246.163 71.9015 247.145 70.8595L248.682 69.2845C248.96 69.0115 249.182 68.7445 249.517 68.4575C249.696 68.3232 249.903 68.2311 250.123 68.188C250.343 68.1449 250.569 68.1519 250.786 68.2085C251.197 68.3552 251.558 68.6135 251.83 68.9545L252.715 69.8215L254.539 71.6105L256.427 73.4655C256.629 73.6128 256.798 73.8019 256.921 74.02C257.044 74.238 257.119 74.48 257.141 74.7295C257.145 75.1855 257.149 75.6441 257.152 76.1055C257.165 77.9455 257.178 79.7415 257.19 81.4785V81.6675H257.002L252.69 81.6915H252.511V81.5135C252.506 80.2625 252.501 79.0545 252.496 77.8985C252.501 77.6529 252.418 77.4135 252.261 77.2245C252.104 77.0355 251.884 76.9094 251.642 76.8695C251.153 76.8425 250.561 76.8595 250.083 76.8625C249.863 76.8844 249.655 76.9761 249.491 77.1241C249.326 77.2721 249.213 77.4688 249.168 77.6855C249.127 78.1115 249.157 78.6225 249.148 79.0605V81.6495H249.04L245.561 81.6165L244.661 81.5975C244.561 81.6024 244.46 81.597 244.361 81.5815L244.354 81.5845Z" fill="#354A53"/>
<path d="M442.048 70.0405C442.032 70.0214 442.012 70.006 441.989 69.9953C441.967 69.9846 441.943 69.9789 441.918 69.9785L431.757 69.9235H428.775L427.897 69.9335L427.819 69.3515L427.666 68.2085C427.66 68.1675 427.64 68.1298 427.609 68.1026C427.577 68.0753 427.537 68.0604 427.496 68.0605H427.452L424.673 68.0745C424.452 68.0795 424.305 68.0835 424.305 68.2575C424.305 68.4315 424.45 68.4356 424.672 68.4446L427.258 68.4985L428.696 79.6375C428.701 79.6788 428.721 79.7167 428.753 79.7441C428.784 79.7716 428.824 79.7866 428.866 79.7865L437.166 79.8265L440.284 79.8135C440.548 79.8075 440.684 79.8045 440.684 79.6295C440.684 79.4545 440.552 79.4515 440.284 79.4415L429.153 79.2916L428.888 77.3185L440.588 77.4785C440.628 77.4783 440.666 77.4642 440.697 77.4387C440.727 77.4131 440.748 77.3777 440.756 77.3385L441.62 72.6816L442.082 70.1816C442.087 70.157 442.086 70.1316 442.08 70.1073C442.074 70.083 442.063 70.0602 442.048 70.0405ZM427.948 70.2955L441.529 70.4715L440.329 76.9865L431.992 76.9475H429.513L428.845 76.9575L427.948 70.2955Z" fill="#354A53"/>
<path d="M431.968 82.3822C431.908 82.0757 431.741 81.8003 431.498 81.6042C431.317 81.457 431.101 81.3584 430.872 81.3178C430.642 81.2772 430.406 81.2959 430.185 81.3722C429.914 81.4677 429.679 81.6444 429.511 81.8782C429.344 82.1121 429.253 82.3919 429.25 82.6794C429.247 82.9669 429.333 83.2483 429.496 83.4854C429.659 83.7224 429.891 83.9035 430.16 84.0042C430.31 84.0601 430.469 84.0889 430.629 84.0892C430.937 84.0895 431.236 83.9867 431.478 83.7972C431.726 83.6051 431.897 83.3316 431.963 83.0252C431.983 82.811 431.983 82.5954 431.963 82.3812L431.968 82.3822ZM430.327 83.5492C430.152 83.4825 430.002 83.3638 429.897 83.2092C429.791 83.0546 429.736 82.8714 429.737 82.6842C429.739 82.4971 429.798 82.3151 429.907 82.1625C430.015 82.01 430.168 81.8944 430.344 81.8312C430.445 81.794 430.552 81.775 430.659 81.7752C430.86 81.7753 431.056 81.8402 431.218 81.9602C431.39 82.0881 431.516 82.2685 431.576 82.4742C431.594 82.5399 431.608 82.6067 431.618 82.6742C431.617 82.6845 431.62 82.6948 431.624 82.7042C431.626 82.7092 431.627 82.7147 431.626 82.7201C431.625 82.7254 431.622 82.7303 431.618 82.7342C431.607 82.8017 431.591 82.8685 431.572 82.9342C431.508 83.14 431.379 83.3194 431.204 83.4452C431.077 83.5333 430.93 83.5885 430.777 83.606C430.623 83.6234 430.468 83.6025 430.324 83.5452L430.327 83.5492Z" fill="#354A53"/>
<path d="M439.415 82.4409C439.354 82.1347 439.188 81.8596 438.945 81.664C438.763 81.5173 438.548 81.419 438.318 81.3784C438.089 81.3378 437.852 81.3563 437.632 81.4319C437.36 81.5272 437.125 81.7039 436.957 81.9379C436.789 82.1719 436.698 82.4519 436.695 82.7397C436.693 83.0275 436.779 83.3091 436.942 83.5462C437.105 83.7834 437.337 83.9645 437.607 84.065C437.826 84.1451 438.062 84.1679 438.293 84.1313C438.523 84.0948 438.741 84 438.925 83.856C439.172 83.664 439.344 83.3905 439.41 83.0839C439.433 82.978 439.439 82.8688 439.427 82.761C439.44 82.6543 439.436 82.5463 439.415 82.4409ZM437.773 83.608C437.573 83.53 437.407 83.3848 437.303 83.1975C437.2 83.0102 437.164 82.7925 437.204 82.582C437.244 82.3715 437.355 82.1815 437.52 82.0447C437.685 81.9079 437.893 81.833 438.107 81.8329C438.308 81.8331 438.504 81.8983 438.665 82.0189C438.837 82.1464 438.963 82.327 439.023 82.5329C439.041 82.5987 439.055 82.6655 439.066 82.733C439.065 82.7433 439.067 82.7536 439.072 82.7629C439.074 82.7681 439.074 82.7738 439.073 82.7793C439.072 82.7848 439.07 82.7899 439.066 82.7939C439.054 82.8615 439.039 82.9283 439.02 82.994C438.956 83.2 438.826 83.3795 438.651 83.5049C438.524 83.5929 438.378 83.648 438.224 83.6655C438.071 83.6829 437.916 83.6621 437.773 83.6049V83.608Z" fill="#354A53"/>
<path d="M374.333 122.902L370.939 170.982C370.672 174.765 368.98 178.307 366.206 180.893C363.431 183.479 359.779 184.917 355.986 184.917C353.935 184.917 351.905 184.496 350.023 183.68C348.141 182.864 346.447 181.671 345.045 180.174C343.643 178.677 342.563 176.908 341.872 174.976C341.181 173.045 340.893 170.993 341.028 168.946C341.328 164.369 341.6 160.622 341.6 160.622C341.6 160.622 329.96 158.812 329.817 147.175C329.734 140.453 330.893 125.2 331.887 113.515C332.212 109.705 333.956 106.155 336.773 103.569C339.59 100.983 343.276 99.5492 347.1 99.5508H354.13C357.003 99.719 359.814 100.461 362.395 101.734C364.977 103.007 367.277 104.784 369.16 106.961C371.043 109.138 372.471 111.67 373.359 114.408C374.247 117.146 374.577 120.034 374.33 122.902H374.333Z" fill="#FFBE9D"/>
<path d="M341.602 160.623C346.977 160.609 352.236 159.054 356.755 156.143C356.755 156.143 353.007 164.609 341.395 163.562L341.602 160.623Z" fill="#E8845A"/>
<path d="M334.069 124.629C334.275 124.845 335.534 123.914 337.323 123.919C339.109 123.898 340.423 124.819 340.616 124.599C340.716 124.499 340.501 124.111 339.93 123.699C339.156 123.163 338.236 122.879 337.294 122.887C336.364 122.884 335.457 123.176 334.704 123.723C334.154 124.14 333.968 124.532 334.069 124.629Z" fill="#354A53"/>
<path d="M350.008 129.594C350.004 130.027 350.169 130.444 350.467 130.757C350.766 131.07 351.175 131.255 351.608 131.271C351.819 131.288 352.032 131.262 352.234 131.195C352.435 131.128 352.621 131.022 352.781 130.882C352.941 130.742 353.071 130.572 353.163 130.381C353.256 130.19 353.31 129.983 353.321 129.771C353.325 129.338 353.16 128.92 352.862 128.607C352.563 128.294 352.154 128.109 351.721 128.093C351.509 128.076 351.297 128.102 351.095 128.169C350.894 128.236 350.708 128.342 350.548 128.482C350.389 128.622 350.259 128.792 350.166 128.983C350.073 129.174 350.019 129.381 350.008 129.593V129.594Z" fill="#354A53"/>
<path d="M334.043 129.594C334.039 130.027 334.204 130.444 334.503 130.757C334.802 131.07 335.211 131.254 335.643 131.271C335.855 131.288 336.067 131.262 336.269 131.195C336.47 131.128 336.656 131.022 336.816 130.882C336.976 130.742 337.106 130.572 337.198 130.381C337.291 130.19 337.345 129.983 337.356 129.771C337.36 129.338 337.195 128.92 336.897 128.607C336.598 128.294 336.189 128.109 335.756 128.093C335.544 128.076 335.332 128.102 335.131 128.169C334.929 128.236 334.743 128.342 334.584 128.482C334.424 128.622 334.294 128.792 334.201 128.983C334.108 129.174 334.055 129.381 334.043 129.593V129.594Z" fill="#354A53"/>
<path d="M351.339 124.871C351.545 125.087 352.806 124.156 354.593 124.161C356.379 124.14 357.693 125.061 357.886 124.84C357.981 124.74 357.773 124.352 357.2 123.94C356.426 123.403 355.505 123.119 354.564 123.127C353.633 123.124 352.726 123.416 351.974 123.963C351.426 124.382 351.238 124.774 351.339 124.871Z" fill="#354A53"/>
<path d="M344.979 138.781C344.037 138.487 343.063 138.311 342.079 138.257C341.622 138.21 341.19 138.119 341.113 137.807C341.072 137.336 341.177 136.864 341.413 136.454L342.764 132.976C344.639 128.025 345.997 123.954 345.797 123.876C345.597 123.798 343.914 127.755 342.039 132.707L340.745 136.207C340.457 136.758 340.374 137.392 340.508 137.999C340.574 138.16 340.676 138.304 340.806 138.42C340.936 138.536 341.091 138.62 341.259 138.667C341.511 138.736 341.772 138.772 342.034 138.775C343.011 138.902 344.001 138.904 344.979 138.781Z" fill="#354A53"/>
<path d="M350.243 140.02C349.952 140.003 349.949 141.945 348.287 143.32C346.625 144.695 344.559 144.485 344.544 144.756C344.517 144.878 345.005 145.133 345.878 145.156C347.015 145.172 348.121 144.786 349.002 144.067C349.847 143.375 350.391 142.382 350.518 141.298C350.592 140.49 350.376 140.009 350.243 140.02Z" fill="#354A53"/>
<path d="M351.455 118.386C351.632 118.872 353.417 118.642 355.515 118.895C357.615 119.106 359.315 119.72 359.59 119.284C359.714 119.075 359.419 118.618 358.735 118.147C357.821 117.57 356.788 117.208 355.714 117.09C354.639 116.971 353.552 117.099 352.535 117.463C351.767 117.773 351.379 118.156 351.455 118.386Z" fill="#354A53"/>
<path d="M333.796 119.23C334.111 119.636 335.342 119.215 336.824 119.195C338.304 119.124 339.559 119.468 339.848 119.043C339.975 118.836 339.777 118.43 339.229 118.043C338.493 117.582 337.636 117.35 336.768 117.377C335.9 117.404 335.059 117.688 334.352 118.193C333.829 118.613 333.657 119.032 333.796 119.23Z" fill="#354A53"/>
<path d="M370.407 131.638C370.607 131.552 378.407 129.273 378.149 137.229C377.891 145.185 369.959 143.289 369.949 143.06C369.939 142.831 370.407 131.638 370.407 131.638Z" fill="#FBAD8B"/>
<path d="M372.48 140.123C372.516 140.099 372.616 140.223 372.846 140.339C373.171 140.49 373.542 140.51 373.881 140.394C374.732 140.113 375.481 138.8 375.566 137.368C375.609 136.685 375.498 136.002 375.241 135.368C375.175 135.116 375.049 134.885 374.873 134.693C374.698 134.501 374.478 134.356 374.233 134.268C374.075 134.221 373.906 134.23 373.755 134.295C373.603 134.359 373.479 134.474 373.403 134.621C373.29 134.841 373.335 135.001 373.292 135.013C373.269 135.032 373.125 134.875 373.2 134.548C373.251 134.352 373.367 134.18 373.529 134.059C373.754 133.901 374.031 133.837 374.302 133.881C374.627 133.956 374.927 134.113 375.173 134.337C375.42 134.561 375.605 134.845 375.71 135.161C376.027 135.861 376.168 136.627 376.12 137.394C376.02 138.994 375.149 140.47 373.988 140.765C373.773 140.82 373.548 140.826 373.329 140.783C373.111 140.739 372.905 140.647 372.727 140.514C372.489 140.316 372.453 140.137 372.48 140.123Z" fill="#E8845A"/>
<path d="M374.836 131.366C374.08 131.315 373.324 131.471 372.649 131.817C371.975 132.163 371.407 132.685 371.006 133.329C370.488 134.465 370.375 135.753 369.859 136.889C369.343 138.025 368.177 139.054 366.959 138.767C366.547 138.637 366.177 138.401 365.886 138.082C365.594 137.763 365.393 137.373 365.301 136.951C365.129 136.105 365.121 135.234 365.278 134.385C365.747 130.669 366.528 126.985 366.678 123.242C366.98 119.483 366.163 115.719 364.33 112.424C362.365 109.235 358.756 106.892 355.023 107.192C352.55 107.392 350.283 108.681 347.823 109.025C346.36 109.217 344.873 109.074 343.474 108.606C342.075 108.139 340.8 107.358 339.747 106.325C339.48 106.059 338.238 105.24 338.238 105.24C338.274 104.356 338.564 103.502 339.075 102.78C343.949 98.2728 352.73 97.0148 359.168 98.6348C365.606 100.255 371.64 104.8 374.41 110.835C377.18 116.87 376.358 125.258 374.832 131.363" fill="#354A53"/>
<path d="M330.617 111.414C331.66 113.831 334.317 115.237 336.939 115.504C339.576 115.618 342.21 115.234 344.705 114.373C348.622 113.388 352.628 112.797 356.662 112.609C357.056 112.621 357.529 112.609 357.738 112.28C358.015 111.838 357.572 111.304 357.161 110.98C353.693 108.263 345.307 106.596 340.905 106.411C336.503 106.226 331.88 108.118 329.496 111.824" fill="#354A53"/>
<path d="M331.754 111.718C334.139 109.502 337.183 108.126 340.422 107.802C350.485 106.942 366.989 110.037 375.656 127.37C375.656 127.37 377.467 121.699 377.467 118.156C377.467 115.789 376.051 101.695 361.549 97.2606C361.548 97.2586 339.7 88.9226 331.754 111.718Z" fill="#FF0000"/>
<g opacity="0.4">
<path d="M331.754 111.718C334.294 109.042 337.776 107.46 341.462 107.309C350.468 106.909 367.488 111.035 375.655 127.37C375.655 127.37 377.466 121.699 377.466 118.156C377.466 115.789 376.05 101.695 361.548 97.2606C361.548 97.2586 339.7 88.9226 331.754 111.718Z" fill="#030504"/>
</g>
<path d="M374.301 124.899C369.954 117.59 363.45 112.565 356.432 108.18C349.414 103.795 337.809 99.4592 329.811 97.3372C327.444 96.5559 324.936 96.2927 322.459 96.5652C320.011 96.9882 317.615 98.6182 317.007 101.027C316.247 104.042 321.598 108.695 324.113 110.527C326.578 112.168 329.13 113.674 331.757 115.04C331.757 115.04 331.686 109.425 340.639 108.294C352.845 106.751 374.671 125.212 374.301 124.899Z" fill="#FF0000"/>
<path d="M358.049 103.06C357.949 103.235 354.632 100.968 349.903 99.8471C345.184 98.6741 341.194 99.1651 341.188 98.9651C342.025 98.7078 342.898 98.5886 343.773 98.6121C348.013 98.4732 352.211 99.4923 355.914 101.56C356.703 101.941 357.424 102.447 358.049 103.06Z" fill="#F6F6F6"/>
<path d="M418.13 292.702C418.13 292.869 388.371 293.002 351.67 293.002C314.969 293.002 285.203 292.867 285.203 292.702C285.203 292.537 314.956 292.402 351.67 292.402C388.384 292.402 418.13 292.534 418.13 292.702Z" fill="#354A53"/>
<path d="M294.806 197.589L277.696 205.329L251.142 183.684L243.051 196.494C243.051 196.494 258.171 213.987 263.774 219.93C269.377 225.873 273.112 229.044 277.526 228.477C281.94 227.91 307.157 216.025 307.157 216.025C307.157 216.025 301.217 198.339 294.806 197.589Z" fill="#FFBE9D"/>
<path d="M222.055 172.768C222.055 172.768 225.391 175.268 227.571 175.115C229.751 174.962 238.015 174.915 238.632 174.959C239.249 175.003 247.307 179.386 247.307 179.386L253.207 185.065L243.942 197.946C243.942 197.946 242.413 196.187 241.37 196.321C240.327 196.455 227.599 195.359 225.682 194.708C223.765 194.057 221.313 193.68 220.672 192.499C220.031 191.318 219.884 190.482 221.643 188.952C221.643 188.952 219.291 187.135 220.998 184.88C220.998 184.88 218.345 182.939 219.298 181.147C219.298 181.147 217.792 180.525 217.548 179.579C217.436 178.583 217.472 177.576 217.654 176.591L221.454 175.411C221.454 175.411 220.314 174.092 222.055 172.768Z" fill="#FFBE9D"/>
<path d="M220.572 175.683C220.572 175.638 220.751 175.603 221.065 175.515C221.522 175.357 221.999 175.26 222.482 175.225C223.238 175.259 223.963 175.54 224.546 176.025C224.927 176.328 225.206 176.741 225.348 177.207C225.489 177.673 225.485 178.172 225.336 178.636C225.251 178.883 225.115 179.109 224.937 179.301C224.759 179.492 224.543 179.644 224.303 179.747C223.903 179.907 223.488 180.025 223.064 180.1L221.021 180.524C220.397 180.704 219.75 180.784 219.102 180.764C219.67 180.452 220.284 180.23 220.921 180.108L222.933 179.558C223.696 179.367 224.533 179.19 224.763 178.436C224.872 178.083 224.875 177.705 224.771 177.351C224.666 176.996 224.459 176.681 224.176 176.444C223.695 176.016 223.099 175.738 222.463 175.644C222.007 175.647 221.553 175.68 221.102 175.744C220.761 175.771 220.571 175.726 220.572 175.683Z" fill="#E8845A"/>
<path d="M225.331 179.025C225.61 178.89 225.912 178.805 226.221 178.775C227.046 178.606 227.885 178.511 228.727 178.494C230.018 178.439 231.297 178.77 232.401 179.443C233.091 179.873 233.588 180.554 233.786 181.343C233.895 181.786 233.862 182.252 233.692 182.676C233.521 183.099 233.222 183.458 232.837 183.702C232.077 184.035 231.256 184.203 230.427 184.195L228.247 184.367L224.554 184.622C223.419 184.751 222.276 184.778 221.137 184.703C222.246 184.433 223.377 184.263 224.517 184.195L228.2 183.81L230.377 183.604C231.116 183.605 231.847 183.46 232.531 183.179C232.809 182.999 233.023 182.736 233.144 182.428C233.265 182.12 233.287 181.781 233.206 181.46C233.043 180.818 232.643 180.262 232.086 179.904C231.078 179.269 229.912 178.929 228.721 178.924C226.65 178.887 225.342 179.142 225.331 179.025Z" fill="#E8845A"/>
<path d="M233.188 183.684C233.203 183.655 233.43 183.717 233.675 184.043C233.834 184.282 233.937 184.555 233.975 184.84C234.013 185.125 233.985 185.415 233.894 185.687C233.74 186.083 233.498 186.439 233.188 186.729C232.877 187.019 232.505 187.236 232.1 187.363C231.162 187.636 230.189 187.765 229.213 187.746C225.213 187.934 222.037 188.719 221.993 188.546C221.941 188.402 225.103 187.337 229.183 187.146C230.103 187.167 231.021 187.066 231.915 186.846C232.255 186.753 232.572 186.588 232.844 186.362C233.116 186.137 233.336 185.856 233.491 185.538C233.58 185.319 233.625 185.084 233.622 184.847C233.619 184.611 233.568 184.377 233.473 184.16C233.325 183.853 233.159 183.723 233.188 183.684Z" fill="#E8845A"/>
<path d="M246.379 185.921C245.877 186.263 245.303 186.485 244.701 186.57C241.829 187.222 238.819 186.819 236.22 185.434C235.242 184.895 234.73 184.425 234.772 184.366C234.864 184.199 237.157 185.752 240.439 186.166C243.712 186.63 246.334 185.735 246.379 185.921Z" fill="#E8845A"/>
<path d="M233.129 179.988C233.207 179.832 234.029 180.124 235.052 179.998C236.074 179.898 236.815 179.432 236.925 179.567C237.05 179.672 236.345 180.467 235.118 180.6C233.891 180.733 233.031 180.115 233.129 179.988Z" fill="#E8845A"/>
<path d="M232.217 192.682C232.061 192.666 232.426 190.917 233.979 189.482C235.517 188.032 237.287 187.789 237.292 187.946C235.156 188.969 233.385 190.622 232.217 192.682Z" fill="#E8845A"/>
<path d="M204.641 226.117H255.13L264.497 299.957H194.777L204.641 226.117Z" fill="#FF0000"/>
<path d="M255.129 226.117H260.97L278.196 299.957H264.496L255.129 226.117Z" fill="#FF0000"/>
<path opacity="0.3" d="M255.129 226.117H260.97L278.196 299.957H264.496L255.129 226.117Z" fill="#030504"/>
<path d="M226.934 187.725C226.934 187.69 227.08 187.641 227.342 187.704C227.713 187.813 228.028 188.059 228.223 188.391C228.378 188.638 228.474 188.918 228.502 189.208C228.53 189.498 228.49 189.79 228.385 190.062C228.128 190.712 227.641 191.244 227.015 191.555C226.211 191.921 225.333 192.092 224.45 192.055L224.672 191.906C224.011 193.177 223.22 193.737 223.161 193.665C223.07 193.583 223.691 192.907 224.205 191.69L224.261 191.556L224.427 191.541C225.223 191.517 226.006 191.338 226.733 191.015C227.231 190.769 227.629 190.361 227.863 189.857C227.952 189.658 227.997 189.442 227.994 189.224C227.992 189.007 227.941 188.792 227.847 188.595C227.515 187.877 226.915 187.814 226.934 187.725Z" fill="#E8845A"/>
<path d="M217.468 229.339C217.452 228.837 217.489 228.334 217.579 227.839C217.688 226.879 217.879 225.496 218.164 223.793C218.715 220.386 219.637 215.709 220.726 210.563C221.815 205.417 222.805 200.763 223.462 197.379C223.771 195.779 224.029 194.439 224.235 193.374C224.298 192.876 224.412 192.386 224.578 191.912C224.594 192.415 224.557 192.917 224.467 193.412C224.358 194.372 224.167 195.755 223.882 197.457C223.331 200.865 222.409 205.542 221.319 210.69C220.229 215.838 219.241 220.49 218.584 223.872L217.811 227.878C217.748 228.376 217.633 228.865 217.468 229.339Z" fill="#FF0000"/>
<path d="M244.121 230.081C243.885 229.532 243.698 228.963 243.563 228.381L242.258 223.695C241.181 219.731 239.734 214.244 238.173 208.175C236.612 202.106 235.229 196.6 234.258 192.608C233.805 190.691 233.429 189.099 233.139 187.874C232.977 187.3 232.867 186.713 232.809 186.119C233.044 186.668 233.231 187.237 233.368 187.819C233.705 189.032 234.144 190.608 234.673 192.506C235.75 196.47 237.196 201.957 238.758 208.027C240.32 214.097 241.701 219.598 242.672 223.589L243.791 228.323C243.952 228.898 244.063 229.487 244.121 230.081Z" fill="#FF0000"/>
<path d="M278.196 299.956C277.33 299.474 276.515 298.905 275.766 298.256C274.314 297.146 272.334 295.581 270.166 293.823L269.073 292.93L269.512 292.862C268.154 294.91 266.931 296.704 266.031 297.976C265.594 298.691 265.077 299.355 264.492 299.955C264.811 299.179 265.215 298.441 265.698 297.755C266.509 296.425 267.67 294.59 269.011 292.531L269.191 292.254L269.45 292.464L270.55 293.352C272.713 295.11 274.65 296.728 276.033 297.923C276.822 298.525 277.547 299.206 278.196 299.956Z" fill="#354A53"/>
<path d="M258.196 226.117C258.361 226.09 260.973 240.974 264.029 259.357C267.085 277.74 269.429 292.673 269.265 292.7C269.101 292.727 266.489 277.847 263.432 259.456C260.375 241.065 258.032 226.14 258.196 226.117Z" fill="#354A53"/>
<path d="M258.077 247.074C257.709 247.472 257.316 247.846 256.9 248.192C255.718 249.207 254.425 250.086 253.048 250.812C250.869 251.982 248.516 252.79 246.079 253.206C242.839 253.798 239.504 253.604 236.355 252.64C234.511 252.058 232.836 251.038 231.473 249.667C229.97 248.168 229.031 246.195 228.815 244.082C228.725 242.944 228.907 241.8 229.344 240.745C229.781 239.689 230.462 238.752 231.331 238.01C232.251 237.224 233.397 236.746 234.604 236.646C235.836 236.563 237.068 236.819 238.166 237.386C239.283 237.958 240.259 238.77 241.025 239.763C241.789 240.787 242.342 241.952 242.653 243.191C243.234 245.73 243.225 248.367 242.626 250.901C241.504 256.251 238.731 261.113 234.698 264.801C232.666 266.672 230.325 268.175 227.779 269.244C225.296 270.306 222.598 270.767 219.905 270.588C217.288 270.386 214.788 269.418 212.718 267.805C210.697 266.265 209.326 264.024 208.875 261.523C208.436 259.142 208.921 256.683 210.231 254.646C210.828 253.666 211.676 252.861 212.687 252.316C213.697 251.77 214.835 251.503 215.983 251.54C216.535 251.596 217.07 251.76 217.559 252.023C218.047 252.286 218.479 252.643 218.829 253.073C219.487 253.891 219.931 254.859 220.12 255.891C220.451 257.808 220.22 259.779 219.455 261.566C218.143 264.614 215.869 267.148 212.981 268.78C210.823 269.989 208.481 270.835 206.05 271.286C204.525 271.584 202.982 271.78 201.431 271.874C200.9 271.905 200.495 271.924 200.222 271.927C200.084 271.939 199.946 271.936 199.809 271.92C199.943 271.889 200.08 271.87 200.219 271.865L201.419 271.752C202.958 271.607 204.487 271.373 206 271.052C208.391 270.566 210.689 269.699 212.807 268.485C215.602 266.866 217.795 264.381 219.055 261.405C219.773 259.694 219.981 257.811 219.655 255.983C219.477 255.03 219.065 254.137 218.455 253.383C218.144 253.003 217.761 252.688 217.327 252.457C216.894 252.226 216.419 252.083 215.93 252.036C214.875 252.013 213.833 252.27 212.91 252.779C211.986 253.288 211.214 254.033 210.671 254.936C209.447 256.862 209 259.18 209.422 261.422C209.856 263.784 211.159 265.897 213.074 267.346C215.057 268.883 217.447 269.802 219.949 269.991C225.073 270.391 230.294 267.991 234.285 264.349C238.224 260.746 240.936 256 242.04 250.777C242.624 248.332 242.641 245.786 242.089 243.333C241.8 242.167 241.283 241.07 240.569 240.104C239.857 239.176 238.949 238.416 237.91 237.879C236.905 237.352 235.775 237.11 234.643 237.179C233.546 237.267 232.505 237.697 231.667 238.409C230.859 239.095 230.224 239.962 229.815 240.94C229.405 241.917 229.232 242.977 229.31 244.034C229.508 246.035 230.388 247.907 231.804 249.334C233.109 250.661 234.716 251.653 236.487 252.225C239.568 253.19 242.836 253.409 246.019 252.863C248.429 252.478 250.763 251.712 252.934 250.594C254.311 249.895 255.612 249.055 256.817 248.088C257.241 247.769 257.534 247.488 257.746 247.318C257.846 247.225 257.955 247.142 258.072 247.069L258.077 247.074Z" fill="#F6F6F6"/>
<path d="M329.535 174.977H320.435C317.499 176.005 293.867 196.114 293.867 196.114L307.224 217.098L324.544 206.97L329.535 174.977Z" fill="#344952"/>
<path d="M320.432 174.976L340.541 167.343C340.541 167.343 343.477 173.508 352.43 172.187C361.383 170.866 371.952 164.555 371.952 164.555C371.952 164.555 387.364 173.362 391.914 177.031C396.464 180.7 388.245 257.613 388.245 257.613L386.19 280.658C386.19 280.658 387.804 281.832 387.804 285.795C387.804 289.758 387.951 292.395 387.951 292.395H308.288C308.288 292.395 306.342 283.148 307.809 279.478C308.89 276.923 310.192 274.467 311.699 272.139L312.946 236.618L313.387 204.918L320.432 174.976Z" fill="#344952"/>
<path d="M391.913 177.031C391.913 177.031 398.342 178.845 400.242 188.383C402.142 197.921 401.802 234.32 401.802 234.32L365.902 226.547C365.902 226.547 370.77 211.266 370.77 210.225C370.77 209.184 380.651 184.569 380.997 184.05C381.343 183.531 391.913 177.031 391.913 177.031Z" fill="#344952"/>
<path d="M312.783 189.949C312.95 189.949 313.183 196.31 313.296 204.161C313.409 212.012 313.371 218.381 313.203 218.383C313.035 218.385 312.803 212.023 312.69 204.17C312.577 196.317 312.615 189.951 312.783 189.949Z" fill="#354A53"/>
<path d="M375.274 193.363C375.281 193.789 375.236 194.213 375.139 194.627C375.015 195.434 374.806 196.596 374.525 198.027C373.963 200.89 373.087 204.827 371.956 209.133C370.825 213.439 369.647 217.299 368.728 220.068C368.269 221.452 367.879 222.568 367.59 223.33C367.472 223.738 367.304 224.13 367.09 224.497C367.132 224.074 367.226 223.658 367.37 223.258C367.631 222.348 367.949 221.242 368.324 219.941C369.137 217.141 370.244 213.276 371.375 208.979C372.506 204.682 373.444 200.772 374.112 197.936L374.912 194.58C374.982 194.161 375.103 193.752 375.274 193.363Z" fill="#354A53"/>
<path d="M371.899 192.588C372.066 192.597 372.028 195.877 371.816 199.914C371.604 203.951 371.295 207.214 371.128 207.214C370.961 207.214 370.998 203.926 371.211 199.887C371.424 195.848 371.733 192.579 371.899 192.588Z" fill="#354A53"/>
<path d="M362.953 204.612C362.953 204.779 359.503 204.912 355.253 204.912C352.68 205.01 350.104 204.91 347.547 204.612C350.104 204.314 352.68 204.213 355.253 204.312C359.51 204.312 362.953 204.445 362.953 204.612Z" fill="#F6F6F6"/>
<path d="M321.813 256.871L361.53 252.096L367.793 226.949L390.015 231.761C390.015 231.761 381.226 266.669 372.169 270.043C363.112 273.417 318.301 267.715 318.301 267.715L321.813 256.871Z" fill="#FFBE9D"/>
<path d="M320.194 256.587C318.047 255.678 315.836 254.93 313.579 254.348C311.736 254.075 309.565 254.478 309.018 255.366L298.298 261.579C298.298 261.579 290.378 260.828 289.627 262.603C289.627 262.603 284.574 261.169 283.755 262.193C283.755 262.193 281.229 263.013 281.639 264.173C282.049 265.333 291.198 268.543 291.198 268.543L303.761 269.843C303.761 269.843 308.54 267.248 310.521 267.043C312.427 267.028 314.331 267.178 316.211 267.492C316.05 267.44 323.534 268.334 323.534 268.334C323.534 268.334 325.064 266.701 325.678 262.195C326.292 257.689 325.678 256.733 325.678 256.733L320.194 256.587Z" fill="#FFBE9D"/>
<path d="M314.889 262.318C314.889 262.349 314.549 262.367 314.109 262.018C313.658 261.701 313.279 260.955 312.586 260.48C312.157 260.26 311.692 260.119 311.213 260.065C310.579 259.992 309.981 259.729 309.498 259.312C308.98 258.811 308.654 258.145 308.576 257.429C308.522 257.042 308.554 256.648 308.67 256.275C308.785 255.901 308.981 255.558 309.244 255.268C309.766 254.768 310.404 254.405 311.101 254.213C311.798 254.021 312.532 254.006 313.237 254.169C314.346 254.431 315.376 254.957 316.237 255.703C316.807 256.185 317.337 256.713 317.82 257.281C318.161 257.681 318.331 257.917 318.301 257.946C318.225 258.027 317.427 257.161 315.972 256.041C315.136 255.392 314.165 254.939 313.13 254.716C312.521 254.588 311.89 254.609 311.291 254.777C310.692 254.945 310.142 255.254 309.688 255.679C309.315 256.147 309.128 256.736 309.165 257.333C309.202 257.929 309.46 258.491 309.888 258.908C310.651 259.701 311.964 259.487 312.827 260.122C313.359 260.652 313.843 261.228 314.272 261.843C314.61 262.205 314.904 262.267 314.889 262.318Z" fill="#E8845A"/>
<path d="M308.266 260.241C308.259 260.341 307.666 260.306 306.814 260.69C305.717 261.327 304.569 261.869 303.382 262.312C302.099 262.466 300.799 262.364 299.557 262.012C299.043 261.968 298.533 261.893 298.028 261.787C298.009 261.714 298.618 261.515 299.607 261.587C300.807 261.8 302.031 261.844 303.244 261.72C304.569 261.378 305.692 260.547 306.666 260.285C307.637 259.978 308.286 260.178 308.266 260.241Z" fill="#E8845A"/>
<path d="M308.528 265.24C308.546 265.273 308.296 265.454 307.804 265.714C307.101 266.07 306.364 266.351 305.604 266.554C303.079 267.17 300.464 267.321 297.886 267.001C296.386 266.812 294.975 266.587 293.686 266.394C292.515 266.293 291.363 266.036 290.26 265.63C289.816 265.427 289.454 265.078 289.236 264.641C289.076 264.312 289.022 263.941 289.083 263.579C289.213 262.969 289.598 262.831 289.593 262.861C289.638 262.899 289.35 263.095 289.317 263.609C289.309 263.965 289.413 264.315 289.615 264.609C289.817 264.902 290.107 265.124 290.443 265.243C291.524 265.568 292.638 265.77 293.765 265.843L297.944 266.4C300.461 266.705 303.011 266.617 305.502 266.14C307.4 265.726 308.481 265.144 308.528 265.24Z" fill="#E8845A"/>
<path d="M368.124 262.257C367.944 262.31 367.29 259.84 365.544 257.293C363.826 254.725 361.776 253.202 361.891 253.055C363.548 254.029 364.966 255.361 366.044 256.952C367.122 258.543 367.833 260.355 368.123 262.255L368.124 262.257Z" fill="#E8845A"/>
<path d="M71.9253 399.521L70.4062 477.121L89.1992 479.135L102.115 400.127L91.9703 387.367L71.9253 399.521Z" fill="#FFBE9D"/>
<path d="M91.5033 475.302L91.4933 476.57C91.4933 476.57 112.874 485.444 113.056 489.523L70.4062 488.813V474.602C73.6845 476.168 77.2516 477.039 80.883 477.16C84.5144 477.28 88.1314 476.648 91.5063 475.302H91.5033Z" fill="#FF0000"/>
<path d="M70.4062 488.811L70.6063 485.4L111.412 487.33C111.412 487.33 113.297 488.188 113.06 489.522L70.4062 488.811Z" fill="#354A53"/>
<path d="M64.1535 162.442C63.8475 158.868 61.7025 155.251 58.2825 154.166L54.3485 156.423C52.3025 157.446 50.6953 159.175 49.8235 161.289C48.9516 163.404 48.8739 165.763 49.6045 167.931C47.0961 169.503 45.3109 172.003 44.6378 174.886C43.9648 177.769 44.4586 180.801 46.0115 183.321C43.4595 184.504 42.3665 187.621 42.4115 190.436C42.4565 193.251 43.3585 195.979 43.6115 198.781C43.8115 200.945 43.6115 203.145 44.0115 205.281C44.4115 207.417 45.5685 209.591 47.5835 210.402C48.6741 210.751 49.8438 210.77 50.9448 210.455C52.0458 210.14 53.0288 209.505 53.7695 208.632C55.2207 206.851 56.1276 204.689 56.3815 202.406C57.4415 195.912 56.0635 189.128 57.6985 182.754C58.5895 179.28 60.3375 176.098 61.7985 172.822C63.2595 169.546 64.4615 166.016 64.1535 162.442Z" fill="#354A53"/>
<path d="M62.267 161.98C60.0253 161.965 57.8286 161.35 55.9057 160.197C53.9827 159.045 52.4039 157.398 51.3337 155.428C50.2634 153.459 49.7408 151.238 49.8204 148.998C49.9 146.757 50.5787 144.579 51.786 142.69C52.1078 142.093 52.6076 141.611 53.216 141.311C54.539 140.787 55.916 141.861 56.931 142.853L64.285 150.019" fill="#354A53"/>
<path d="M62.4703 152.794C56.9463 150.183 52.6064 143.994 50.9954 138.094C49.3844 132.194 51.2393 120.261 52.8303 114.363C54.7673 107.183 57.7514 116.421 60.1934 117.179C60.9063 117.452 61.5429 117.893 62.0494 118.464C62.5559 119.036 62.9174 119.721 63.1034 120.461C63.4609 121.944 63.574 123.476 63.4383 124.996C63.1157 134.263 62.7927 143.529 62.4694 152.796" fill="#354A53"/>
<path d="M76.5932 94.2302C85.8302 89.2672 93.2402 92.1992 96.8432 95.0172C100.446 97.8352 102.62 102.127 103.943 106.507C105.266 110.887 105.843 115.453 106.917 119.9C107.577 122.457 108.052 125.058 108.339 127.683C108.869 131.491 108.693 138.283 106.745 141.599C104.873 144.785 102.855 147.623 99.7652 149.65C98.6532 150.379 97.3382 151.141 96.0652 150.738C95.176 150.344 94.439 149.671 93.9652 148.821C83.934 134.491 76.067 118.763 70.6172 102.141" fill="#354A53"/>
<path d="M66.3077 104.902L82.3077 98.4551L86.4967 98.9221C95.9177 98.9111 102.465 109.27 102.563 116.9C102.672 125.376 102.47 135.73 101.154 141.985C98.5047 154.562 88.7067 155.685 88.7067 155.685C88.7067 155.666 88.8217 159.119 88.9217 163.338C88.9644 165.135 88.6428 166.923 87.9761 168.592C87.3094 170.262 86.3115 171.779 85.0425 173.053C83.7735 174.326 82.2598 175.33 80.5926 176.003C78.9253 176.675 77.1391 177.003 75.3417 176.967C71.8666 176.897 68.5568 175.47 66.1195 172.992C63.6821 170.514 62.3105 167.181 62.2977 163.705L62.0977 109.225C62.1316 108.109 62.5828 107.045 63.3621 106.245C64.1415 105.445 65.1924 104.966 66.3077 104.902Z" fill="#FFBE9D"/>
<path d="M98.4805 125.292C98.4633 125.716 98.2812 126.116 97.973 126.408C97.6648 126.7 97.2548 126.86 96.8305 126.854C96.623 126.859 96.4166 126.824 96.2232 126.748C96.0298 126.673 95.8534 126.56 95.7044 126.415C95.5554 126.271 95.4367 126.098 95.3553 125.907C95.2739 125.717 95.2315 125.511 95.2305 125.304C95.2476 124.88 95.4294 124.48 95.7371 124.188C96.0449 123.896 96.4543 123.736 96.8785 123.741C97.086 123.735 97.2925 123.771 97.486 123.846C97.6794 123.922 97.8558 124.035 98.0049 124.18C98.154 124.324 98.2726 124.497 98.3539 124.688C98.4353 124.879 98.4776 125.084 98.4785 125.292H98.4805Z" fill="#354A53"/>
<path d="M99.2187 121.227C99.0067 121.427 97.8187 120.456 96.0707 120.372C94.3237 120.264 92.9947 121.1 92.8157 120.872C92.7267 120.772 92.9517 120.4 93.5307 120.021C94.314 119.534 95.2289 119.302 96.1497 119.355C97.0599 119.398 97.9331 119.729 98.6427 120.3C99.1587 120.744 99.3217 121.137 99.2187 121.227Z" fill="#354A53"/>
<path d="M88.5342 134.921C89.4708 134.68 90.4338 134.555 91.4012 134.551C91.8502 134.528 92.2772 134.46 92.3682 134.159C92.4292 133.7 92.3483 133.233 92.1362 132.82L90.9852 129.352C89.3932 124.417 88.2652 120.367 88.4642 120.305C88.6632 120.243 90.1162 124.193 91.7082 129.128L92.8022 132.614C93.0561 133.168 93.1071 133.792 92.9462 134.379C92.8733 134.534 92.7663 134.669 92.6332 134.776C92.5002 134.883 92.3446 134.959 92.1782 134.996C91.9274 135.051 91.6706 135.073 91.4142 135.063C90.452 135.139 89.4842 135.091 88.5342 134.921Z" fill="#354A53"/>
<path d="M88.7041 155.685C82.7301 155.476 76.9312 153.614 71.9531 150.305C71.9531 150.305 76.0351 159.319 88.7841 158.769L88.7041 155.685Z" fill="#E8845A"/>
<path d="M87.4166 138.705C87.1179 138.232 86.7005 137.845 86.2059 137.584C85.7112 137.322 85.1567 137.195 84.5976 137.215C84.2018 137.207 83.8096 137.292 83.4526 137.463C83.0956 137.634 82.7835 137.887 82.5416 138.2C82.2985 138.543 82.1578 138.948 82.1358 139.368C82.1139 139.788 82.2116 140.205 82.4176 140.572C82.6754 140.95 83.0413 141.242 83.4675 141.409C83.8937 141.576 84.3603 141.611 84.8066 141.509C85.664 141.272 86.4552 140.84 87.1186 140.247C87.3254 140.107 87.5005 139.925 87.6326 139.713C87.6948 139.362 87.6172 139 87.4166 138.705Z" fill="#E8845A"/>
<path d="M83.3239 135.874C83.6089 135.874 83.5179 137.774 85.0759 139.2C86.6339 140.626 88.6659 140.522 88.6669 140.788C88.6879 140.909 88.1979 141.135 87.3429 141.115C86.2307 141.073 85.1686 140.642 84.3429 139.896C83.5496 139.178 83.0666 138.18 82.9959 137.113C82.9599 136.311 83.1949 135.856 83.3239 135.874Z" fill="#354A53"/>
<path d="M98.969 116.335C98.641 116.717 97.457 116.244 96.008 116.152C94.563 116.009 93.318 116.285 93.057 115.852C92.943 115.644 93.157 115.252 93.711 114.907C94.4543 114.493 95.3037 114.309 96.1517 114.377C96.9997 114.446 97.8083 114.765 98.475 115.294C98.967 115.73 99.115 116.149 98.969 116.335Z" fill="#354A53"/>
<path d="M79.1488 125.189C79.1395 125.613 79.2962 126.025 79.5855 126.335C79.8748 126.645 80.274 126.831 80.6978 126.851C80.905 126.871 81.1141 126.848 81.3125 126.786C81.511 126.723 81.695 126.622 81.8535 126.487C82.0119 126.352 82.1418 126.186 82.2353 126C82.3288 125.815 82.3841 125.612 82.3978 125.404C82.4072 124.98 82.2508 124.569 81.962 124.259C81.6731 123.948 81.2744 123.762 80.8508 123.741C80.6436 123.722 80.4346 123.744 80.2362 123.807C80.0377 123.87 79.8539 123.972 79.6954 124.107C79.537 124.241 79.4072 124.407 79.3137 124.593C79.2201 124.779 79.1648 124.981 79.1508 125.189H79.1488Z" fill="#354A53"/>
<path d="M75.8733 121.021C76.0733 121.236 77.3172 120.339 79.0732 120.366C80.8232 120.366 82.0973 121.285 82.2903 121.073C82.3903 120.979 82.1843 120.594 81.6303 120.179C80.8789 119.644 79.9806 119.355 79.0582 119.35C78.1472 119.335 77.255 119.611 76.5113 120.137C75.9623 120.542 75.7733 120.924 75.8733 121.021Z" fill="#354A53"/>
<path d="M76.6327 115.468C76.9327 115.868 78.1477 115.468 79.5997 115.468C81.0507 115.416 82.2757 115.768 82.5637 115.357C82.6897 115.157 82.5017 114.757 81.9697 114.372C81.254 113.912 80.418 113.675 79.5675 113.69C78.717 113.706 77.8902 113.973 77.1917 114.459C76.6737 114.864 76.4997 115.272 76.6327 115.468Z" fill="#354A53"/>
<path d="M80.4585 97.1035C76.4075 95.4715 70.2115 96.0225 66.7335 98.6645C63.2967 101.435 61.0026 105.376 60.2905 109.733C59.4975 114.033 60.5615 120.39 61.6905 124.608C68.2485 116.163 74.9965 106.42 81.3245 97.8015L80.4585 97.1035Z" fill="#354A53"/>
<path d="M83.5653 93.2665C105.786 90.1355 103.733 123.742 103.733 123.742C101.513 111.36 84.2773 98.4045 84.2773 98.4045L80.7773 97.8125L83.5653 93.2665Z" fill="#354A53"/>
<path d="M63.4715 130.643C63.5165 129.699 62.5365 127.418 61.6115 127.225C59.1415 126.712 54.6435 126.687 54.2855 133.008C53.7945 141.649 62.5715 140.359 62.6005 140.108C62.6225 139.92 63.3145 133.903 63.4715 130.643Z" fill="#FBAD8B"/>
<path d="M61.294 136.689C61.257 136.66 61.137 136.789 60.877 136.889C60.5103 137.022 60.1064 137.007 59.75 136.849C58.856 136.462 58.17 134.969 58.216 133.409C58.2362 132.667 58.4221 131.939 58.76 131.278C58.8564 131.012 59.0161 130.774 59.2251 130.584C59.4342 130.394 59.6864 130.258 59.96 130.187C60.1354 130.151 60.3178 130.178 60.4757 130.262C60.6336 130.346 60.7572 130.483 60.825 130.649C60.925 130.898 60.862 131.067 60.907 131.084C60.929 131.107 61.101 130.95 61.051 130.589C61.0153 130.372 60.9062 130.174 60.742 130.028C60.5143 129.835 60.2198 129.739 59.922 129.761C59.5632 129.811 59.2233 129.952 58.9348 130.171C58.6462 130.39 58.4187 130.68 58.274 131.012C57.8634 131.739 57.6371 132.556 57.615 133.391C57.571 135.135 58.37 136.815 59.599 137.247C59.8271 137.328 60.0705 137.356 60.3111 137.33C60.5517 137.304 60.7834 137.224 60.989 137.097C61.267 136.898 61.323 136.709 61.294 136.689Z" fill="#E8845A"/>
<path d="M53.3108 109.978C55.5198 104.053 59.9878 99.1587 65.1988 95.5777C67.9295 93.539 71.112 92.1898 74.4758 91.6447C76.1571 91.3893 77.8751 91.5386 79.4871 92.0802C81.0992 92.6218 82.5588 93.54 83.7448 94.7587L84.3698 95.3957C80.5468 103.867 77.8558 111.033 72.9368 118.918C71.1298 121.818 70.3508 131.68 69.9148 135.067C68.4278 146.633 62.0978 151.582 62.0978 151.582C48.4018 151.587 51.1018 115.898 53.3108 109.978Z" fill="#354A53"/>
<path d="M60.0056 150.218C59.4043 150.174 58.8219 149.988 58.3056 149.676C55.6811 148.379 53.6417 146.141 52.5936 143.407C52.3314 142.864 52.2006 142.267 52.2116 141.663C52.3906 141.597 53.0766 144.263 55.3066 146.673C57.4926 149.115 60.0876 150.046 60.0056 150.218Z" fill="#344952"/>
<path d="M58.3657 161.469C58.3657 161.624 56.5317 161.48 54.7867 160.156C53.0277 158.848 52.3787 157.127 52.5287 157.084C52.6877 156.995 53.5217 158.468 55.1507 159.672C56.7587 160.9 58.4067 161.291 58.3657 161.469Z" fill="#344952"/>
<path d="M52.5992 172.082C52.4632 172.182 51.6722 171.307 50.8312 170.134C49.9902 168.961 49.4192 167.934 49.5552 167.834C49.6912 167.734 50.4822 168.609 51.3232 169.783C52.1642 170.957 52.7352 171.985 52.5992 172.082Z" fill="#344952"/>
<path d="M48.1445 185.167C48.0185 185.277 47.4075 184.785 46.7795 184.067C46.1515 183.349 45.7445 182.679 45.8705 182.567C45.9965 182.455 46.6075 182.949 47.2355 183.667C47.8635 184.385 48.2705 185.057 48.1445 185.167Z" fill="#344952"/>
<path d="M50.7812 129.539C51.2991 129.176 51.8463 128.856 52.4173 128.582C52.9553 128.299 53.6082 127.944 54.3412 127.482C55.0742 127.02 55.9412 126.559 56.8282 125.934C58.9533 124.541 60.9875 123.015 62.9183 121.363C67.653 117.314 71.7172 112.54 74.9603 107.22C76.2826 105.051 77.4654 102.799 78.5013 100.478C78.9763 99.5005 79.3013 98.5785 79.6333 97.7785C79.9653 96.9785 80.2153 96.2785 80.4093 95.7045C80.5874 95.0974 80.8162 94.5063 81.0932 93.9375C80.9912 94.5626 80.837 95.1781 80.6322 95.7775C80.4722 96.3685 80.2573 97.0835 79.9503 97.8965C79.6433 98.7095 79.3502 99.6545 78.8932 100.65C77.9044 103.016 76.7495 105.308 75.4373 107.51C72.215 112.918 68.1056 117.745 63.2812 121.788C61.3166 123.435 59.2378 124.941 57.0603 126.293C56.1493 126.899 55.2663 127.35 54.5103 127.776C53.7543 128.202 53.0843 128.535 52.5273 128.787C51.9674 129.087 51.3833 129.338 50.7812 129.539Z" fill="#344952"/>
<path d="M72.1598 119.181C72.1908 119.209 71.9598 119.501 71.5248 120.003C71.0898 120.505 70.4248 121.203 69.5538 122.026C64.9937 126.299 59.5484 129.516 53.6048 131.447C52.4678 131.809 51.5358 132.062 50.8818 132.197C50.5498 132.301 50.2039 132.355 49.8558 132.356C49.8308 132.256 51.2468 131.863 53.4648 131.043C59.2537 128.915 64.6074 125.752 69.2648 121.709C71.0518 120.162 72.0878 119.114 72.1598 119.181Z" fill="#344952"/>
<path d="M104.417 130.219C104.495 129.581 104.614 128.949 104.772 128.326C105.103 126.615 105.295 124.881 105.345 123.139C105.568 117.375 104.134 111.669 101.212 106.695C98.29 101.722 94.0031 97.6914 88.8596 95.081C87.3139 94.2771 85.7053 93.6006 84.0497 93.058C83.4285 92.8923 82.8183 92.6879 82.2227 92.446C82.3917 92.441 82.5605 92.4629 82.7227 92.511C83.0417 92.582 83.5227 92.655 84.1227 92.832C85.8242 93.2932 87.4769 93.9185 89.0576 94.699C94.3491 97.2541 98.7629 101.323 101.74 106.389C104.716 111.455 106.122 117.291 105.779 123.157C105.691 124.918 105.433 126.666 105.009 128.377C104.873 128.985 104.703 129.441 104.609 129.754C104.57 129.918 104.505 130.075 104.417 130.219Z" fill="#344952"/>
<path d="M207.422 208.797C207.132 209.176 206.944 209.624 206.876 210.096C206.808 210.569 206.862 211.051 207.033 211.497C207.431 212.235 208.03 212.845 208.76 213.257C209.928 212.058 210.893 210.676 211.618 209.167" fill="#E8845A"/>
<path d="M202.373 207.328C201.998 207.624 201.705 208.01 201.522 208.451C201.339 208.892 201.272 209.372 201.327 209.846C201.529 210.66 201.958 211.4 202.563 211.98C203.992 211.108 205.27 210.009 206.346 208.727" fill="#E8845A"/>
<path d="M87.7422 168.996C87.7422 168.996 125.976 199.084 132.865 200.068C139.754 201.052 172.009 197.147 185.24 196.731L187.117 207.831C187.117 207.831 150.578 220.237 137.293 220.731C124.008 221.225 116.378 217.631 116.378 217.631L91.5362 192.189L87.7422 168.996Z" fill="#FFBE9D"/>
<path d="M184.398 196.848C184.398 196.848 201.468 194.415 204.121 195.742C206.774 197.069 214.4 203.509 214.4 203.509C214.4 203.509 216.938 210.66 215.339 210.997C213.74 211.334 212.082 208.68 212.082 208.68L209.926 204.699L200.391 202.378L184.565 203.778L184.398 196.848Z" fill="#FFBE9D"/>
<path d="M187.115 207.835C187.362 208.135 193.457 211.081 196.56 210.996C199.663 210.911 203.213 208.496 205.885 208.862C208.557 209.228 214.096 209.662 214.769 208.702C215.144 208.303 215.349 207.774 215.34 207.226C215.331 206.679 215.11 206.156 214.722 205.769C213.811 204.907 209.335 204.058 206.103 203.192C204.374 202.795 202.744 202.046 201.316 200.992L182.516 203.063L181.449 208.928L187.115 207.835Z" fill="#FFBE9D"/>
<path d="M195.246 200.796C195.568 200.719 195.9 200.694 196.23 200.722C197.127 200.75 198.019 200.858 198.896 201.044C201.741 201.767 204.54 202.656 207.281 203.705C208.796 204.212 210.353 204.58 211.934 204.805C212.69 204.866 213.412 205.145 214.011 205.61C214.263 205.844 214.457 206.134 214.577 206.456C214.698 206.778 214.742 207.124 214.705 207.466C214.682 207.745 214.601 208.016 214.467 208.262C214.333 208.508 214.148 208.722 213.926 208.892C213.598 209.142 213.206 209.291 212.795 209.323C212.12 209.362 211.802 209.113 211.821 209.094C212.135 209.125 212.451 209.125 212.765 209.094C213.1 209.043 213.413 208.897 213.668 208.674C213.923 208.45 214.11 208.159 214.206 207.834C214.302 207.509 214.303 207.164 214.21 206.838C214.116 206.512 213.932 206.219 213.679 205.994C213.142 205.616 212.509 205.397 211.852 205.363C210.234 205.166 208.64 204.806 207.094 204.29C203.82 203.19 200.974 201.979 198.8 201.471C196.643 200.892 195.242 200.909 195.246 200.796Z" fill="#E8845A"/>
<path d="M207.548 204.334C206.511 204.152 205.55 203.668 204.787 202.942C203.424 201.874 202.659 200.678 202.787 200.583C202.915 200.488 203.861 201.449 205.16 202.466C206.459 203.483 207.624 204.175 207.548 204.334Z" fill="#E8845A"/>
<path d="M54.8053 396.977L20.1562 412.407L24.3203 430.907C24.3203 430.907 67.8953 417.921 82.1853 415.034C96.4373 412.155 119.534 408.473 126.059 394.65L54.8053 396.977Z" fill="#FFBE9D"/>
<path d="M27.6455 431.242L26.4365 431.569C26.4365 431.569 23.6545 454.282 19.8185 455.536L9.1875 414.736L22.7185 410.965C22.0955 414.502 22.2116 418.129 23.0596 421.619C23.9076 425.109 25.469 428.385 27.6455 431.242Z" fill="#FF0000"/>
<path d="M9.1875 414.734L12.4875 414.016L21.4735 453.384C21.4735 453.384 21.1565 455.406 19.8235 455.534L9.1875 414.734Z" fill="#354A53"/>
<path d="M125.886 395.178C125.797 395.514 125.674 395.839 125.517 396.15C125.077 397.046 124.519 397.88 123.856 398.628C121.346 401.295 118.467 403.59 115.308 405.445C113.129 406.732 110.832 407.808 108.447 408.658C105.709 409.596 102.919 410.376 100.091 410.995C94.1824 412.487 87.7004 414.187 80.8994 415.982L46.0564 425.182L35.4724 427.882L32.5834 428.572C32.2501 428.665 31.9101 428.732 31.5664 428.772C31.8865 428.64 32.2166 428.534 32.5534 428.454L35.4134 427.654L45.9464 424.773C54.8464 422.353 67.1364 419 80.7464 415.401C87.5464 413.601 94.0374 411.921 99.9574 410.458C102.771 409.858 105.548 409.101 108.277 408.191C114.083 406.166 119.35 402.844 123.677 398.477C124.575 397.494 125.319 396.382 125.886 395.178Z" fill="#E8845A"/>
<path d="M70.8438 246.576L71.6258 253.401C71.6258 253.401 59.6258 276.08 59.6258 288.25C59.6258 300.42 54.0898 397.293 54.0898 397.293C54.0898 397.293 119.177 400.993 126.056 394.647L132.935 388.297L156.216 381.944L119.897 249.401V242.301L70.8438 246.576Z" fill="#354A53"/>
<path d="M115.372 279.408C115.407 279.494 115.428 279.584 115.436 279.676C115.471 279.891 115.513 280.151 115.565 280.47L116.001 283.529C116.38 286.24 116.917 290.07 117.576 294.779C118.933 304.279 120.955 317.371 123.562 331.77C126.169 346.169 128.882 359.147 130.944 368.515L133.418 379.602L134.083 382.619C134.146 382.935 134.199 383.194 134.241 383.407C134.266 383.496 134.277 383.588 134.275 383.68C134.231 383.599 134.199 383.512 134.181 383.421C134.122 383.212 134.051 382.957 133.964 382.647L133.189 379.656C132.523 377.056 131.609 373.283 130.526 368.608C128.356 359.26 125.583 346.291 122.966 331.878C120.349 317.465 118.401 304.352 117.152 294.838C116.526 290.08 116.052 286.226 115.767 283.558C115.634 282.264 115.526 281.239 115.444 280.485C115.416 280.163 115.394 279.901 115.375 279.685C115.36 279.593 115.359 279.5 115.372 279.408Z" fill="#F6F6F6"/>
<path d="M68.6289 291.543C68.7442 291.789 68.8346 292.046 68.8989 292.31L69.5599 294.539C70.1469 296.539 70.9599 299.329 71.9599 302.739C74.0129 309.656 76.9859 319.172 80.6189 329.563C84.2519 339.954 87.8699 349.249 90.5789 355.937L93.8169 363.846L94.6889 366.001C94.8032 366.247 94.8927 366.505 94.9559 366.769C94.8062 366.543 94.6796 366.302 94.5779 366.05L93.6009 363.94C92.7599 362.104 91.5889 359.427 90.1839 356.101C87.3709 349.45 83.6929 340.169 80.0469 329.764C76.4009 319.359 73.4969 309.812 71.5469 302.859C70.5709 299.383 69.8159 296.559 69.3299 294.599L68.7779 292.34C68.7022 292.08 68.6522 291.813 68.6289 291.543Z" fill="#F6F6F6"/>
<path d="M122.114 252.609C121.471 252.741 120.818 252.821 120.162 252.848C118.902 252.965 117.077 253.098 114.819 253.233C110.304 253.507 104.057 253.75 97.1527 253.78C90.2487 253.81 83.9967 253.613 79.4797 253.38C77.2207 253.263 75.3947 253.144 74.1337 253.038C73.4774 253.016 72.824 252.942 72.1797 252.816C72.8336 252.758 73.4911 252.754 74.1457 252.803L79.4957 252.952C84.0127 253.079 90.2537 253.204 97.1487 253.178C104.044 253.152 110.281 252.972 114.797 252.809L120.146 252.615C120.8 252.56 121.459 252.558 122.114 252.609Z" fill="#F6F6F6"/>
<path d="M88.7873 164.12C88.4733 163.38 111.875 182.043 114.816 191.132C117.757 200.221 118.256 226.443 118.256 226.443L119.9 243.277L73.1772 246.577L71.9242 243.277L68.4722 233.897L63.6603 219.727C63.6603 219.727 52.1452 201.842 49.8602 194.136C47.0202 184.57 51.7273 174.771 51.7273 174.771L62.2983 162.844L88.7873 164.12Z" fill="#FF0000"/>
<path d="M62.2979 163.704C62.2979 163.704 59.7079 158.894 61.3059 156.804C62.5759 155.139 85.0709 157.226 89.6619 158.198C92.3619 158.769 89.6119 164.781 89.6119 164.781L62.2979 163.704Z" fill="#FF0000"/>
<g opacity="0.3">
<path d="M75.7716 186.367C77.7326 191.44 74.9626 207.191 74.5356 210.94C74.0058 214.679 73.1417 218.363 71.9536 221.947C71.4466 223.627 70.9646 225.562 71.9156 227.036C73.4486 229.411 77.3996 228.736 79.3156 230.821C75.722 232.49 71.6867 232.958 67.8066 232.155C67.118 232.075 66.4765 231.765 65.9856 231.275C65.6813 230.837 65.4884 230.332 65.4236 229.802C64.1645 224.304 63.9811 218.613 64.8836 213.045C65.9416 207.522 71.2146 194.258 75.6506 190.802" fill="#030504"/>
</g>
<path d="M76.5933 193.323C75.6255 197.141 73.555 200.589 70.6403 203.237C70.5063 203.116 72.1973 201.137 73.8283 198.407C75.4753 195.683 76.4273 193.261 76.5933 193.323Z" fill="#354A53"/>
<path d="M89.66 164.205C89.3196 164.355 88.9597 164.456 88.591 164.505C87.891 164.661 86.879 164.836 85.617 165.005C79.0103 165.859 72.304 165.52 65.817 164.005C64.578 163.705 63.584 163.434 62.909 163.205C62.5471 163.121 62.1989 162.987 61.875 162.805C61.902 162.712 63.423 163.105 65.906 163.585C72.3782 164.854 78.9991 165.187 85.566 164.574C88.09 164.346 89.644 164.109 89.66 164.205Z" fill="#354A53"/>
<path d="M106.121 209.381C106.021 209.348 106.427 208.095 106.741 206.014C107.558 200.559 106.57 194.986 103.926 190.145C102.915 188.299 102.101 187.263 102.186 187.197C102.219 187.171 102.447 187.409 102.834 187.865C103.375 188.514 103.864 189.205 104.297 189.931C107.216 194.777 108.237 200.533 107.162 206.087C107.006 206.918 106.784 207.736 106.498 208.531C106.421 208.834 106.294 209.121 106.121 209.381Z" fill="#354A53"/>
<g opacity="0.3">
<path d="M75.1547 165C71.2533 164.732 67.3765 164.182 63.5547 163.354C69.0167 166.326 75.2509 167.576 81.4367 166.938C83.6857 166.653 86.0537 166.02 87.5437 164.311C84.1017 165.656 78.8357 165.322 75.1547 165Z" fill="#030504"/>
</g>
<g opacity="0.3">
<path d="M101.531 214.729C103.619 212.521 105.191 209.877 106.135 206.988C107.078 204.099 107.369 201.037 106.986 198.021C107.541 199.997 107.832 202.038 107.85 204.09C108.1 206.451 107.524 208.825 106.219 210.808C104.786 212.771 103.956 213.959 101.531 214.729Z" fill="#030504"/>
</g>
<path d="M68.9607 176.144C67.7772 175.137 66.4039 174.377 64.9218 173.909C63.4398 173.441 61.879 173.275 60.3316 173.42C58.7843 173.565 57.2817 174.019 55.9127 174.755C54.5436 175.491 53.3359 176.493 52.3607 177.703C52.192 177.921 52.032 178.144 51.8807 178.371C49.4557 182.008 42.7627 238.679 45.4297 245.471C48.0967 252.263 51.9767 251.771 51.9767 251.771C51.9767 251.771 69.5047 251.571 82.1127 248.664C94.7207 245.757 108.782 240.978 108.782 240.978L106.451 227.253C106.451 227.253 75.5777 231.342 67.0917 230.372L70.3307 202.784C70.3307 202.784 77.7077 193.793 75.5907 185.549C74.5897 181.629 71.7107 178.429 68.9607 176.144Z" fill="#FFBE9D"/>
<path d="M116.184 218.817L123.113 214.158L128.101 209.951C128.258 210.715 128.256 211.503 128.094 212.266C127.933 213.028 127.616 213.75 127.163 214.384C125.611 216.732 123.011 220.243 123.011 220.243L116.184 218.817Z" fill="#FBAD8B"/>
<path d="M126.528 216.009C126.469 215.961 126.918 215.476 127.403 214.473C128.054 213.086 128.213 211.518 127.854 210.027L128.268 210.151L123.308 214.391L123.297 214.401L123.282 214.411L122.911 214.66L118.538 217.572C117.361 218.385 116.144 219.138 114.891 219.827C113.768 220.524 112.592 221.132 111.375 221.645C112.414 220.834 113.515 220.104 114.667 219.462C115.72 218.849 116.913 218.023 118.237 217.102L122.574 214.157L122.944 213.908L122.918 213.928L127.935 209.756L128.262 209.484L128.349 209.884C128.712 211.492 128.47 213.176 127.67 214.616C127.454 215.01 127.19 215.374 126.884 215.702C126.671 215.916 126.546 216.028 126.528 216.009Z" fill="#E8845A"/>
<path d="M113.684 230.513C113.92 230.045 132.146 209.731 136.637 204.728C136.922 204.411 137.304 204.196 137.723 204.117C138.142 204.039 138.576 204.1 138.957 204.292C139.224 204.427 139.456 204.621 139.635 204.86C139.815 205.099 139.937 205.376 139.993 205.67C140.048 205.963 140.035 206.266 139.954 206.554C139.873 206.841 139.727 207.107 139.528 207.329L116.187 233.284L113.684 230.513Z" fill="#354A53"/>
<path d="M133.084 221.641C133.831 220.627 132.713 218.641 131.684 218.099C130.655 217.557 126.529 219.831 126.529 219.831L125.034 219.966C125.034 219.966 117.034 218.346 116.763 218.477C114.692 219.38 112.748 220.552 110.981 221.961C110.16 222.676 109.449 223.51 108.873 224.435C108.261 225.371 106.763 226.912 103.273 227.744L106.673 241.544C106.673 241.544 114.116 239.792 114.679 239.787C115.242 239.782 121.479 239.279 122.304 239.142C124.824 238.517 127.203 237.426 129.319 235.923C131.987 233.939 130.742 232.252 130.742 232.252C133.503 230.378 131.352 228.515 131.352 228.515L132.124 227.196C133.267 225.089 130.956 223.929 130.956 223.929C131.723 223.222 132.435 222.457 133.084 221.641Z" fill="#FFBE9D"/>
<path d="M127.549 225.923C127.501 225.77 128.375 225.374 129.363 224.761C130.351 224.148 131.104 223.553 131.218 223.661C131.332 223.769 130.718 224.583 129.655 225.232C128.592 225.881 127.589 226.066 127.549 225.923Z" fill="#E8845A"/>
<path d="M129.887 229.673C129.787 229.554 130.073 229.159 130.521 228.79C130.969 228.421 131.411 228.22 131.509 228.339C131.607 228.458 131.323 228.853 130.875 229.222C130.427 229.591 129.984 229.792 129.887 229.673Z" fill="#E8845A"/>
<path d="M129.063 232.729C129.048 232.572 129.512 232.405 130.054 232.195C130.596 231.985 131.054 231.808 131.154 231.935C131.254 232.062 130.882 232.481 130.254 232.717C129.626 232.953 129.073 232.88 129.063 232.729Z" fill="#E8845A"/>
<path d="M126.528 219.83C126.542 220.006 124.645 220.25 122.313 220.43C120.908 220.612 119.491 220.688 118.075 220.658C118.028 220.474 119.914 219.986 122.265 219.826C123.679 219.623 125.114 219.623 126.528 219.826V219.83Z" fill="#E8845A"/>
<path d="M67.5026 230.119C67.6286 230.23 66.2416 232.011 64.4026 234.098C63.3641 235.427 62.1722 236.629 60.8516 237.678C62.7593 234.902 64.9921 232.365 67.5026 230.119Z" fill="#E8845A"/>
<path d="M75.3258 192.647C75.2678 192.634 75.4098 192.029 75.5158 190.921C75.6849 189.366 75.6093 187.794 75.2918 186.261C74.6731 183.766 73.4997 181.442 71.8587 179.462C70.2177 177.483 68.1515 175.899 65.8138 174.828C63.2548 173.612 60.327 173.421 57.6318 174.295C55.4092 174.931 53.5089 176.383 52.3118 178.36C51.5387 179.72 50.9778 181.189 50.6488 182.717C50.5493 183.289 50.4137 183.853 50.2428 184.407C50.2187 184.257 50.2214 184.104 50.2508 183.954C50.2847 183.524 50.3404 183.095 50.4178 182.67C50.6651 181.086 51.1808 179.555 51.9428 178.143C52.4876 177.162 53.2126 176.292 54.0798 175.578C55.0868 174.775 56.2309 174.162 57.4568 173.766C60.2812 172.817 63.3638 172.999 66.0568 174.274C68.749 175.455 71.073 177.34 72.7838 179.73C74.2268 181.635 75.2277 183.838 75.7138 186.177C76.0034 187.755 76.0162 189.371 75.7518 190.953C75.6868 191.381 75.5952 191.805 75.4778 192.221C75.4493 192.37 75.3981 192.514 75.3258 192.647Z" fill="#354A53"/>
<path d="M161.548 137.713H113.887C113.421 137.713 112.961 137.805 112.531 137.983C112.101 138.161 111.71 138.422 111.381 138.751C111.052 139.08 110.792 139.47 110.613 139.9C110.435 140.33 110.344 140.791 110.344 141.256V187.445C110.344 187.91 110.435 188.371 110.613 188.801C110.791 189.231 111.052 189.622 111.381 189.951C111.71 190.28 112.101 190.541 112.531 190.719C112.961 190.897 113.421 190.989 113.887 190.989H131.435L138.289 200.703L144.238 190.989H161.548C162.488 190.989 163.389 190.615 164.053 189.951C164.718 189.286 165.091 188.385 165.091 187.445V141.256C165.091 140.791 164.999 140.33 164.821 139.9C164.643 139.47 164.382 139.08 164.053 138.751C163.724 138.422 163.333 138.161 162.904 137.983C162.474 137.805 162.013 137.713 161.548 137.713Z" fill="#F8FAFA"/>
<path d="M161.547 137.711C162.026 137.669 162.508 137.75 162.947 137.947C163.599 138.213 164.159 138.666 164.556 139.248C164.954 139.83 165.172 140.516 165.183 141.22C165.203 144.839 165.231 150.075 165.267 156.659C165.286 163.272 165.307 171.235 165.332 180.268C165.337 182.528 165.341 184.854 165.345 187.245C165.396 188.235 165.059 189.206 164.406 189.951C163.752 190.697 162.833 191.158 161.845 191.237C161.184 191.268 160.59 191.247 159.953 191.254L144.232 191.272L144.476 191.135L138.535 200.854L138.301 201.237L138.042 200.871L131.183 191.16L131.428 191.286H119.128C117.21 191.272 115.369 191.316 113.42 191.255C112.914 191.194 112.426 191.032 111.983 190.78C111.541 190.528 111.153 190.19 110.842 189.786C110.242 188.979 109.957 187.98 110.042 186.978C110.042 183.272 110.042 179.624 110.042 176.033C110.048 168.858 110.054 161.932 110.059 155.341C110.064 152.045 110.068 148.833 110.072 145.707C110.077 144.141 110.082 142.599 110.087 141.079C110.126 140.275 110.418 139.504 110.923 138.877C111.428 138.251 112.12 137.8 112.897 137.591C113.634 137.457 114.384 137.414 115.131 137.462H117.272L121.436 137.471L129.263 137.492L152.882 137.591L159.304 137.648L160.974 137.678C161.35 137.688 161.543 137.71 161.543 137.71C161.543 137.71 161.35 137.731 160.974 137.741L159.304 137.772L152.882 137.828L129.263 137.928L121.436 137.948L117.272 137.957H115.131C114.429 137.914 113.724 137.954 113.031 138.078C112.359 138.26 111.762 138.651 111.326 139.195C110.891 139.739 110.64 140.408 110.609 141.104V145.703C110.613 148.827 110.617 152.039 110.622 155.338C110.628 161.932 110.633 168.854 110.639 176.03V186.974C110.553 187.844 110.795 188.714 111.316 189.414C111.578 189.755 111.905 190.039 112.278 190.252C112.651 190.464 113.063 190.601 113.489 190.652C115.289 190.704 117.239 190.666 119.125 190.678H131.581L131.67 190.806L138.52 200.523L138.028 200.539L143.984 190.831L144.068 190.694H144.228L159.949 190.712C160.567 190.712 161.222 190.728 161.8 190.702C162.373 190.658 162.925 190.464 163.4 190.141C163.865 189.819 164.241 189.383 164.491 188.876C164.741 188.368 164.858 187.806 164.83 187.241C164.835 184.851 164.839 182.526 164.843 180.264C164.868 171.231 164.89 163.265 164.908 156.655C164.942 150.072 164.97 144.837 164.989 141.219C164.986 140.437 164.722 139.679 164.239 139.065C163.882 138.621 163.425 138.267 162.906 138.031C162.472 137.856 162.014 137.748 161.547 137.711Z" fill="#354A53"/>
<path d="M145.699 171.403C145.592 171.419 145.483 171.426 145.374 171.424L144.438 171.444L140.972 171.483L129.337 171.535H129.244L129.23 171.441C129.143 170.825 129.051 170.174 128.957 169.514C128.177 163.871 127.48 158.835 127.026 155.544L127.095 155.603L123.995 155.576L123.171 155.559C123.166 155.595 123.148 155.628 123.12 155.65C123.092 155.673 123.056 155.685 123.02 155.682C122.984 155.68 122.95 155.664 122.925 155.637C122.901 155.611 122.887 155.576 122.887 155.539C122.887 155.503 122.901 155.468 122.925 155.442C122.95 155.415 122.984 155.399 123.02 155.397C123.056 155.394 123.092 155.406 123.12 155.429C123.148 155.451 123.166 155.484 123.171 155.52L123.995 155.501L127.095 155.464H127.156L127.165 155.525C127.639 158.813 128.365 163.846 129.176 169.484C129.269 170.144 129.361 170.796 129.448 171.411L129.34 171.317L140.975 171.336L144.441 171.364L145.377 171.382C145.485 171.38 145.593 171.387 145.699 171.403Z" fill="#354A53"/>
<path d="M129.213 171.746C129.167 171.739 129.125 171.718 129.093 171.686C129.061 171.653 129.04 171.611 129.034 171.566L126.849 155.814L123.166 155.772C122.836 155.761 122.685 155.756 122.676 155.551C122.676 155.328 122.841 155.323 123.164 155.311L123.99 155.291L127.151 155.254C127.202 155.253 127.252 155.271 127.291 155.304C127.33 155.337 127.355 155.383 127.363 155.434L129.616 171.107L145.379 171.172C145.76 171.183 145.904 171.187 145.911 171.396C145.911 171.4 145.911 171.404 145.911 171.408C145.911 171.618 145.763 171.622 145.382 171.635L144.443 171.656L140.975 171.695L129.243 171.747L129.213 171.746Z" fill="#354A53"/>
<path d="M128.86 168.036C128.887 168.03 128.914 168.027 128.942 168.027L129.183 168.018L130.119 167.999L133.619 167.963L145.694 167.907L145.594 167.994C145.949 165.961 146.333 163.762 146.73 161.487C146.936 160.317 147.138 159.168 147.33 158.071L147.437 158.199L133.205 158.183L128.991 158.156L127.855 158.139L127.561 158.129C127.527 158.13 127.494 158.127 127.461 158.119C127.494 158.112 127.527 158.108 127.561 158.109L127.855 158.099L128.99 158.078L133.204 158.039L147.436 157.982H147.565L147.543 158.11C147.352 159.21 147.15 160.356 146.943 161.526L145.799 168.031L145.784 168.118H145.696L133.621 168.096L130.121 168.07L129.185 168.054L128.943 168.045C128.915 168.047 128.887 168.044 128.86 168.036Z" fill="#354A53"/>
<path d="M128.867 168.251C128.775 168.238 128.648 168.195 128.649 168.035C128.649 167.835 128.861 167.821 128.93 167.817L130.115 167.789L133.615 167.753L145.425 167.698L147.05 158.41L127.55 158.34C127.45 158.34 127.241 158.325 127.25 158.114C127.259 157.903 127.45 157.903 127.55 157.898L128.987 157.867L136.173 157.816L147.565 157.771C147.596 157.771 147.627 157.778 147.655 157.791C147.683 157.804 147.707 157.823 147.727 157.846C147.747 157.87 147.761 157.897 147.769 157.927C147.777 157.957 147.779 157.988 147.773 158.018L145.993 168.155C145.985 168.204 145.959 168.248 145.921 168.28C145.883 168.312 145.835 168.33 145.785 168.329L128.934 168.256C128.912 168.256 128.889 168.255 128.867 168.251Z" fill="#354A53"/>
<path d="M133.436 175.861C133.416 175.861 133.415 175.715 133.343 175.472C133.24 175.131 133.03 174.833 132.743 174.623C132.513 174.453 132.241 174.35 131.956 174.325C131.672 174.301 131.386 174.356 131.131 174.484C130.876 174.613 130.662 174.81 130.512 175.053C130.362 175.296 130.283 175.576 130.283 175.862C130.283 176.147 130.362 176.427 130.512 176.67C130.662 176.914 130.876 177.11 131.131 177.239C131.386 177.367 131.672 177.422 131.956 177.398C132.241 177.374 132.513 177.271 132.743 177.101C133.03 176.89 133.241 176.591 133.343 176.25C133.414 176.006 133.415 175.86 133.435 175.861C133.466 175.996 133.463 176.137 133.426 176.271C133.349 176.648 133.14 176.986 132.838 177.225C132.611 177.404 132.343 177.523 132.058 177.57C131.773 177.618 131.481 177.592 131.209 177.496C130.871 177.376 130.579 177.155 130.372 176.863C130.166 176.571 130.055 176.222 130.055 175.864C130.055 175.506 130.166 175.157 130.372 174.864C130.579 174.572 130.871 174.351 131.209 174.232C131.481 174.135 131.773 174.109 132.058 174.155C132.342 174.202 132.611 174.32 132.838 174.499C133.141 174.736 133.35 175.074 133.429 175.451C133.465 175.585 133.468 175.726 133.436 175.861Z" fill="#354A53"/>
<path d="M131.51 177.787C131.215 177.747 130.934 177.638 130.688 177.471C130.441 177.304 130.237 177.083 130.089 176.824C129.942 176.565 129.857 176.276 129.839 175.979C129.822 175.682 129.873 175.384 129.989 175.11C130.104 174.836 130.282 174.592 130.507 174.397C130.732 174.202 130.999 174.062 131.287 173.987C131.575 173.912 131.876 173.904 132.168 173.964C132.459 174.024 132.733 174.15 132.968 174.332C133.309 174.601 133.544 174.982 133.632 175.407C133.66 175.707 133.66 176.008 133.632 176.307C133.545 176.734 133.31 177.116 132.968 177.386C132.765 177.549 132.531 177.668 132.28 177.737C132.029 177.805 131.767 177.822 131.509 177.786L131.51 177.787ZM132.01 174.547C131.686 174.5 131.355 174.574 131.081 174.755C130.808 174.937 130.611 175.214 130.53 175.531C130.448 175.849 130.487 176.186 130.639 176.477C130.791 176.768 131.045 176.993 131.352 177.107C131.562 177.185 131.787 177.21 132.008 177.18C132.229 177.15 132.44 177.065 132.62 176.933C132.872 176.75 133.056 176.489 133.145 176.19C133.172 176.098 133.193 176.005 133.208 175.91C133.207 175.894 133.21 175.877 133.217 175.861C133.226 175.842 133.21 175.826 133.208 175.813C133.193 175.719 133.171 175.625 133.144 175.532C133.054 175.236 132.87 174.977 132.62 174.794C132.439 174.662 132.228 174.577 132.006 174.547H132.01Z" fill="#354A53"/>
<path d="M143.963 175.847C143.943 175.847 143.942 175.701 143.87 175.458C143.768 175.117 143.557 174.819 143.27 174.609C143.041 174.439 142.768 174.336 142.484 174.312C142.199 174.287 141.913 174.343 141.658 174.471C141.403 174.6 141.189 174.796 141.039 175.039C140.889 175.283 140.81 175.563 140.81 175.848C140.81 176.134 140.889 176.414 141.039 176.657C141.189 176.9 141.403 177.097 141.658 177.225C141.913 177.354 142.199 177.409 142.484 177.385C142.768 177.36 143.041 177.257 143.27 177.087C143.558 176.877 143.768 176.578 143.87 176.236C143.941 175.993 143.942 175.846 143.962 175.847C143.993 175.983 143.99 176.124 143.953 176.257C143.876 176.634 143.667 176.972 143.365 177.21C143.139 177.39 142.87 177.509 142.586 177.556C142.301 177.604 142.008 177.578 141.736 177.482C141.399 177.363 141.106 177.142 140.9 176.85C140.693 176.557 140.582 176.208 140.582 175.85C140.582 175.492 140.693 175.143 140.9 174.851C141.106 174.559 141.399 174.338 141.736 174.218C142.008 174.121 142.3 174.095 142.585 174.142C142.87 174.188 143.138 174.307 143.365 174.485C143.668 174.722 143.877 175.059 143.955 175.436C143.992 175.57 143.995 175.712 143.963 175.847Z" fill="#354A53"/>
<path d="M142.04 177.773C141.913 177.755 141.788 177.724 141.667 177.681C141.288 177.548 140.96 177.3 140.728 176.972C140.496 176.644 140.371 176.252 140.371 175.85C140.371 175.448 140.496 175.056 140.728 174.728C140.96 174.4 141.288 174.152 141.667 174.018C141.973 173.909 142.301 173.879 142.621 173.931C142.941 173.984 143.243 174.117 143.497 174.318C143.839 174.587 144.074 174.968 144.161 175.393C144.189 175.693 144.189 175.994 144.161 176.293C144.074 176.72 143.839 177.103 143.497 177.373C143.294 177.535 143.06 177.654 142.81 177.723C142.559 177.791 142.298 177.809 142.04 177.773ZM142.535 174.533C142.21 174.484 141.878 174.557 141.604 174.739C141.33 174.92 141.133 175.197 141.051 175.516C140.969 175.834 141.008 176.172 141.161 176.463C141.314 176.754 141.569 176.978 141.877 177.092C142.086 177.171 142.312 177.196 142.533 177.166C142.755 177.136 142.965 177.051 143.145 176.919C143.396 176.735 143.58 176.474 143.669 176.176C143.696 176.084 143.717 175.991 143.732 175.896C143.734 175.879 143.737 175.862 143.742 175.846C143.747 175.827 143.735 175.811 143.732 175.798C143.717 175.703 143.696 175.609 143.669 175.517C143.579 175.221 143.395 174.962 143.144 174.779C142.965 174.648 142.756 174.564 142.535 174.533Z" fill="#354A53"/>
<path d="M153.431 159.778C153.431 160.863 153.109 161.924 152.506 162.826C151.903 163.729 151.046 164.432 150.044 164.847C149.041 165.263 147.938 165.371 146.874 165.16C145.809 164.948 144.831 164.425 144.064 163.658C143.297 162.891 142.774 161.913 142.562 160.848C142.351 159.784 142.459 158.681 142.875 157.678C143.29 156.676 143.993 155.819 144.896 155.216C145.798 154.613 146.859 154.291 147.944 154.291C149.399 154.291 150.795 154.869 151.824 155.898C152.853 156.927 153.431 158.323 153.431 159.778Z" fill="#FF0000"/>
<path d="M144.805 159.894L145.626 159.073L147.209 160.481L150.317 157.49L151.079 158.311L147.091 162.065L144.805 159.894Z" fill="#F6F6F6"/>
</g>
<defs>
<clipPath id="clip0_86_2494">
<rect width="512" height="512" fill="white" transform="translate(0.5 0.5)"/>
</clipPath>
</defs>
</svg>
