<svg width="513" height="513" viewBox="0 0 513 513" fill="none" xmlns="http://www.w3.org/2000/svg">
<g clip-path="url(#clip0_86_727)">
<path d="M90.2305 194.197L22.6525 184.282C21.8544 184.164 21.0873 183.891 20.3948 183.478C19.7023 183.064 19.0981 182.518 18.6166 181.871C18.1351 181.224 17.7858 180.488 17.5887 179.706C17.3915 178.924 17.3503 178.111 17.4675 177.313L27.3835 109.735C27.5006 108.936 27.7738 108.169 28.1874 107.477C28.601 106.784 29.147 106.18 29.7941 105.699C30.4412 105.217 31.1769 104.868 31.959 104.671C32.7411 104.474 33.5544 104.432 34.3525 104.55L101.929 114.461C103.541 114.698 104.993 115.565 105.965 116.872C106.937 118.178 107.351 119.818 107.114 121.429L97.1985 189.012C96.9619 190.624 96.0949 192.076 94.7882 193.048C93.4815 194.02 91.842 194.434 90.2305 194.197Z" fill="#D6D5D5"/>
<g opacity="0.6">
<path d="M288.212 71.2796C288.2 71.4246 288.188 71.5576 288.188 71.7026C288.17 72.1566 288.172 72.6216 288.164 73.0826C288.172 72.6206 288.17 72.1566 288.188 71.7026C288.188 71.5586 288.2 71.4256 288.212 71.2796Z" fill="#354A53"/>
</g>
<path d="M298.124 94.5712C297.881 92.3802 298.608 90.1882 298.644 87.9712C298.668 86.4462 298.56 84.8362 298.535 83.2982C297.225 83.2378 295.924 83.0553 294.649 82.7532C294.376 82.7201 294.123 82.5915 293.935 82.3902C293.803 82.1414 293.748 81.8592 293.777 81.5792C293.677 79.8602 292.021 78.7222 290.533 77.8632C289.788 77.3964 288.996 77.0071 288.172 76.7012C288.172 76.8822 288.172 77.0522 288.184 77.2342C288.473 85.5359 290.116 93.7347 293.05 101.506C294.353 104.96 295.915 108.311 297.723 111.53C298.473 112.922 299.297 114.29 300.156 115.63C301.221 117.289 302.335 118.911 303.533 120.473C304.647 121.973 305.833 123.439 307.08 124.843C308.787 126.791 310.593 128.649 312.491 130.412C314.174 131.986 315.929 133.479 317.758 134.891C313.581 123.681 309.647 112.241 302.505 102.701C300.63 100.212 298.475 97.6702 298.124 94.5712Z" fill="#FF0000"/>
<path d="M298.669 80.3353C298.512 80.3113 298.37 80.2863 298.21 80.2623C296.866 80.1163 295.293 80.0443 294.554 78.9303C293.694 77.6303 294.541 75.7103 293.653 74.4393C293.102 73.8578 292.455 73.3746 291.741 73.0103C291.088 72.5503 290.53 71.6783 290.929 70.9763C291.255 70.3833 292.103 70.2623 292.529 69.7173C292.694 69.498 292.781 69.2302 292.776 68.9562C292.772 68.6821 292.677 68.4172 292.505 68.2033C291.125 66.5693 289.587 69.8983 288.825 70.6853C288.632 70.892 288.426 71.086 288.208 71.2663V71.2783C288.196 71.4233 288.184 71.5563 288.184 71.7013C288.166 72.1553 288.167 72.6203 288.159 73.0813C288.151 73.5423 288.135 74.0013 288.135 74.4613C288.135 74.8363 288.129 74.8173 288.135 75.1903C288.141 75.5633 288.159 76.3313 288.171 76.7003C288.996 77.0061 289.787 77.3955 290.533 77.8623C292.022 78.7213 293.68 79.8623 293.776 81.5783C293.748 81.8582 293.802 82.1404 293.934 82.3893C294.122 82.5908 294.375 82.7194 294.648 82.7523C295.924 83.0544 297.225 83.2369 298.534 83.2973" fill="#FF0000"/>
<path d="M298.535 83.2997C298.559 84.8367 298.668 86.4467 298.644 87.9727C298.608 90.1887 297.881 92.3797 298.124 94.5727C298.475 97.6727 300.63 100.214 302.507 102.708C309.649 112.247 313.583 123.687 317.76 134.897H317.772C318.547 135.515 319.334 136.097 320.133 136.665C320.762 137.118 321.398 137.562 322.041 137.998C322.683 138.433 323.335 138.856 323.995 139.268C324.455 139.558 324.915 139.837 325.387 140.115C325.326 139.982 325.266 139.861 325.205 139.728C323.522 136.036 323.426 130.709 327.045 128.881C327.774 128.619 328.463 128.257 329.091 127.804C330.701 126.279 329.382 123.131 330.991 121.604C331.899 120.757 333.315 120.817 334.441 120.304C336.462 119.372 337.116 116.782 336.959 114.554C336.802 112.326 336.059 110.136 336.318 107.921C336.718 104.568 339.332 101.166 337.831 98.1387C336.149 94.7607 331.246 95.3057 327.795 93.7927C322.977 91.6737 321.488 85.6927 318.34 81.4687C315.519 77.6917 308.933 73.5397 303.922 74.6777C300.29 75.5007 299.044 77.6677 298.668 80.3317" fill="#FF0000"/>
<path d="M494.056 494.165C494.056 494.328 383.561 494.465 247.29 494.465C110.972 494.465 0.5 494.332 0.5 494.165C0.5 493.998 110.971 493.865 247.29 493.865C383.562 493.869 494.056 494.002 494.056 494.165Z" fill="#354A53"/>
<path d="M508.36 260.19L407.23 295.048C405.69 295.579 404.003 295.477 402.539 294.764C401.074 294.052 399.953 292.787 399.422 291.248L364.555 190.114C364.024 188.574 364.125 186.887 364.838 185.423C365.551 183.958 366.815 182.837 368.355 182.305L469.493 147.448C471.032 146.916 472.72 147.018 474.184 147.73C475.648 148.443 476.77 149.708 477.302 151.248L512.165 252.381C512.696 253.92 512.594 255.607 511.881 257.072C511.168 258.536 509.904 259.658 508.365 260.19H508.36Z" fill="#FF0000"/>
<path d="M404.304 169.92L398.946 289.871L393.285 273.448L393.8 173.541L404.304 169.92Z" fill="#354A53"/>
<path d="M368.279 369.373L384.973 312.821C385.394 311.391 386.093 310.059 387.03 308.9C387.967 307.741 389.122 306.778 390.431 306.066C391.74 305.354 393.177 304.906 394.659 304.749C396.14 304.592 397.639 304.728 399.068 305.15L455.62 321.844C457.05 322.266 458.382 322.965 459.541 323.902C460.7 324.838 461.663 325.994 462.375 327.303C463.088 328.612 463.535 330.049 463.692 331.531C463.849 333.013 463.712 334.511 463.29 335.94L446.597 392.492C446.175 393.921 445.476 395.253 444.539 396.412C443.603 397.571 442.447 398.534 441.138 399.246C439.829 399.958 438.393 400.406 436.911 400.563C435.429 400.72 433.931 400.584 432.502 400.162L375.949 383.468C373.063 382.616 370.633 380.653 369.195 378.009C367.756 375.366 367.427 372.259 368.279 369.373Z" fill="#FF0000"/>
<g opacity="0.3">
<path d="M368.279 369.373L384.973 312.821C385.394 311.391 386.093 310.059 387.03 308.9C387.967 307.741 389.122 306.778 390.431 306.066C391.74 305.354 393.177 304.906 394.659 304.749C396.14 304.592 397.639 304.728 399.068 305.15L455.62 321.844C457.05 322.266 458.382 322.965 459.541 323.902C460.7 324.838 461.663 325.994 462.375 327.303C463.088 328.612 463.535 330.049 463.692 331.531C463.849 333.013 463.712 334.511 463.29 335.94L446.597 392.492C446.175 393.921 445.476 395.253 444.539 396.412C443.603 397.571 442.447 398.534 441.138 399.246C439.829 399.958 438.393 400.406 436.911 400.563C435.429 400.72 433.931 400.584 432.502 400.162L375.949 383.468C373.063 382.616 370.633 380.653 369.195 378.009C367.756 375.366 367.427 372.259 368.279 369.373Z" fill="#354A53"/>
</g>
<mask id="mask0_86_727" style="mask-type:luminance" maskUnits="userSpaceOnUse" x="385" y="321" width="61" height="62">
<path d="M399.298 321.773L385.668 368.377L432.272 382.007L445.901 335.403L399.298 321.773Z" fill="white"/>
</mask>
<g mask="url(#mask0_86_727)">
<path d="M422.914 328.68L399.299 321.773L395.582 334.481L419.197 341.388L422.914 328.68ZM403.714 332.33L400.983 331.53L402.249 327.2L404.98 328L403.714 332.33Z" fill="#F6F6F6"/>
<path d="M421.213 372.83L416.129 371.343L415.329 374.087L412.598 373.287L413.398 370.543L400.738 366.843L407.044 345.281L417.19 348.249L418.398 344.119L394.783 337.213L385.668 368.379L424.43 379.715L425.23 376.985L420.411 375.575L421.213 372.83ZM397.923 352.13L395.192 351.33L397.744 342.605L400.475 343.405L397.923 352.13Z" fill="#F6F6F6"/>
<path d="M408.975 348.809L439.381 357.702L434.672 373.802L404.266 364.909L408.975 348.809Z" fill="#F6F6F6"/>
</g>
<path d="M125.32 33.9633L188.248 20.722C191.194 20.1024 194.265 20.6783 196.787 22.3231C199.308 23.9678 201.073 26.5467 201.693 29.4925L214.934 92.4216C215.554 95.3674 214.978 98.4386 213.334 100.96C211.689 103.481 209.11 105.246 206.165 105.866L143.235 119.108C140.289 119.728 137.217 119.152 134.696 117.507C132.174 115.863 130.41 113.284 129.79 110.338L116.548 47.4095C115.928 44.4633 116.504 41.3915 118.149 38.8698C119.794 36.3482 122.373 34.5832 125.32 33.9633Z" fill="#FF0000"/>
<path d="M179.746 494.163L55.5804 494.102C53.9515 494.101 52.3898 493.453 51.2385 492.301C50.0873 491.149 49.4409 489.586 49.4414 487.957L49.5024 363.791C49.5027 362.985 49.6618 362.186 49.9708 361.441C50.2798 360.696 50.7326 360.019 51.3032 359.449C51.8738 358.879 52.5512 358.427 53.2966 358.118C54.042 357.81 54.8408 357.652 55.6474 357.652L179.813 357.713C180.62 357.714 181.419 357.873 182.164 358.182C182.909 358.491 183.586 358.944 184.156 359.514C184.726 360.085 185.178 360.762 185.486 361.508C185.794 362.253 185.953 363.052 185.952 363.858L185.891 488.024C185.891 488.831 185.732 489.63 185.423 490.375C185.114 491.12 184.661 491.796 184.09 492.367C183.52 492.937 182.842 493.389 182.097 493.697C181.352 494.005 180.553 494.164 179.746 494.163Z" fill="#FF0000"/>
<g opacity="0.3">
<path d="M49.1055 441.789C55.2055 434.823 58.9365 426.006 60.8235 416.94C63.0475 406.257 62.8235 395.185 62.0685 384.34C61.8319 381.53 62.1757 378.702 63.0785 376.031C66.9185 365.199 77.2455 366.377 85.9235 367.309C110.454 369.917 135.253 366.597 158.234 357.629H55.3905C53.8167 357.629 52.3072 358.253 51.1919 359.363C50.0767 360.473 49.4466 361.98 49.4395 363.554L49.1055 441.789Z" fill="#354A53"/>
</g>
<path d="M121.142 191.741C118.89 197.141 112.115 200.002 110.914 205.724C109.922 210.452 113.135 215.835 110.629 219.966C108.308 223.791 102.623 223.866 99.4002 226.966C97.3572 228.935 96.5782 231.874 96.2632 234.694C95.8862 238.066 96.1212 241.723 98.1262 244.459C99.1168 245.69 100.358 246.696 101.766 247.411C103.175 248.126 104.72 248.534 106.298 248.607C109.457 248.731 112.609 248.217 115.565 247.095C123.873 244.295 131.593 239.321 136.783 232.254C141.973 225.187 144.418 215.931 142.427 207.393C140.436 198.855 133.691 191.359 125.152 189.369" fill="#354A53"/>
<path d="M102.057 244.605C101.994 244.462 101.956 244.308 101.944 244.151C101.858 243.713 101.801 243.269 101.774 242.822C101.645 241.175 101.759 239.518 102.113 237.904C102.62 235.496 103.589 233.208 104.965 231.166C105.778 229.96 106.733 228.857 107.81 227.878C108.975 226.852 110.236 225.937 111.574 225.148C112.879 224.392 114.06 223.438 115.074 222.321C116.004 221.302 116.525 219.975 116.536 218.595C116.423 217.324 116.182 216.068 115.815 214.845C115.506 213.722 115.457 212.543 115.674 211.397C116.022 209.743 116.949 208.267 118.289 207.235C118.645 206.959 119.034 206.726 119.446 206.542C119.586 206.469 119.737 206.42 119.893 206.396C119.388 206.708 118.901 207.048 118.434 207.414C117.213 208.463 116.385 209.896 116.085 211.477C115.909 212.564 115.979 213.677 116.292 214.732C116.691 215.985 116.956 217.277 117.081 218.586C117.087 220.102 116.531 221.565 115.52 222.693C114.472 223.863 113.247 224.859 111.89 225.647C109.323 227.082 107.11 229.073 105.413 231.474C104.052 233.45 103.071 235.661 102.519 237.995C102.137 239.571 101.963 241.19 102.001 242.811C102.05 243.408 102.069 244.007 102.057 244.605Z" fill="#344952"/>
<path d="M122.897 175.012C121.561 174.076 120.559 172.737 120.037 171.192C119.514 169.646 119.498 167.974 119.992 166.419C120.486 164.864 121.463 163.507 122.781 162.546C124.099 161.584 125.69 161.069 127.321 161.074C130.9 161.085 133.986 163.537 137.458 164.404C140.179 165.083 143.035 164.765 145.839 164.837C148.643 164.909 151.648 165.489 153.583 167.519C155.997 170.053 156.083 174.119 158.302 176.819C159.89 178.748 162.34 179.711 164.338 181.212C165.867 182.36 167.13 183.824 168.04 185.505C168.95 187.186 169.487 189.044 169.612 190.952C169.738 192.859 169.45 194.771 168.768 196.557C168.086 198.343 167.026 199.96 165.66 201.298C164.326 202.606 162.67 203.693 161.889 205.39C160.702 207.972 161.825 211.39 160.02 213.59C158.23 215.767 154.385 215.59 153.02 218.06C152.472 219.05 152.332 220.439 151.288 220.875C150.858 220.975 150.41 220.975 149.98 220.875C149.549 220.776 149.147 220.579 148.803 220.301L138.379 214.12" fill="#354A53"/>
<path d="M136.171 225.155L125.456 226.586C121.412 227.911 117.755 230.21 114.807 233.28L85.164 264.155L77.652 218.381L62.293 220.355L66.906 274.968C67.644 283.703 74.684 290.846 83.447 291.068C83.853 291.078 84.263 291.074 84.674 291.057C89.2775 290.787 93.6075 288.781 96.791 285.445L116.224 268.504" fill="#FF0000"/>
<path d="M65.2491 224.42C64.7191 222.923 64.5189 221.328 64.6621 219.746C65.1921 221.244 65.3924 222.838 65.2491 224.42Z" fill="#354A53"/>
<path d="M69.7633 224.377C69.2755 222.771 69.1203 221.082 69.3073 219.414C69.7951 221.02 69.9503 222.709 69.7633 224.377Z" fill="#354A53"/>
<path d="M74.2368 223.907C73.7226 222.113 73.5409 220.24 73.7008 218.381C74.2157 220.175 74.3974 222.048 74.2368 223.907Z" fill="#354A53"/>
<path d="M85.9348 183.158C86.2348 183.698 95.1048 221.075 95.1048 221.075L77.8558 222.588L69.8398 190.462L85.9348 183.158Z" fill="#344952"/>
<path d="M95.1062 221.076L97.0512 220.158L88.0512 183.325L85.6992 183.264L95.1062 221.076Z" fill="#354A53"/>
<path d="M79.3226 191.678C79.3523 191.854 79.329 192.035 79.2558 192.197C79.1826 192.36 79.0628 192.497 78.9115 192.591C78.7602 192.686 78.5843 192.733 78.4061 192.727C78.2279 192.722 78.0554 192.663 77.9105 192.559C77.7656 192.455 77.6549 192.31 77.5923 192.143C77.5298 191.976 77.5183 191.795 77.5592 191.621C77.6001 191.448 77.6917 191.29 77.8223 191.169C77.9529 191.047 78.1166 190.967 78.2926 190.939C78.5271 190.901 78.7669 190.958 78.9598 191.097C79.1527 191.235 79.2831 191.444 79.3226 191.678Z" fill="#354A53"/>
<path d="M76.8737 218.643L76.3817 213.349L83.6387 210.006L80.4807 203.286C80.1183 202.546 79.6063 201.889 78.9771 201.356C78.3478 200.824 77.615 200.428 76.8249 200.193C76.0347 199.958 75.2045 199.889 74.3865 199.991C73.5686 200.094 72.7807 200.364 72.0726 200.786L69.1727 202.515C68.1513 203.123 67.2693 203.939 66.584 204.909C65.8986 205.88 65.4253 206.985 65.1947 208.15C64.5614 212.164 64.1535 216.211 63.9727 220.27" fill="#FFBE9D"/>
<path d="M132.407 224.648C118.696 226.185 114.242 236.423 107.847 245.597L98.6055 262.658L116.224 268.496L115.013 299.269L106.913 324.231L170.076 320.501L164.961 296.801L168.561 269.744L171.922 247.179C172.524 243.442 171.847 239.612 170 236.309C168.153 233.006 165.246 230.423 161.747 228.979C153.247 225.656 153.017 225.035 146.247 224.736C144.103 224.636 134.139 224.23 132.402 224.656" fill="#FF0000"/>
<path d="M115.026 298.549C115.135 297.935 115.192 297.314 115.198 296.69C115.261 295.39 115.345 293.679 115.446 291.615C115.63 287.329 115.846 281.407 116.04 274.865C116.234 268.323 116.384 262.397 116.461 258.107C116.485 256.04 116.505 254.328 116.521 253.026C116.554 252.403 116.534 251.778 116.463 251.158C116.355 251.771 116.297 252.392 116.291 253.015C116.228 254.315 116.144 256.025 116.043 258.089C115.86 262.375 115.643 268.299 115.449 274.844C115.255 281.389 115.105 287.313 115.028 291.603C115.004 293.67 114.984 295.381 114.968 296.684C114.936 297.306 114.955 297.93 115.026 298.549Z" fill="#354A53"/>
<path d="M16.8445 451.525L16.6145 440.275L38.1925 432.611L39.0845 448.274L37.8715 448.86C32.4535 451.42 10.1425 461.497 5.98049 461.879C1.33849 462.306 16.8445 451.525 16.8445 451.525Z" fill="#FF0000"/>
<g opacity="0.4">
<path d="M9.38687 457.091C9.38687 457.091 4.10588 461.248 5.25288 461.93C6.39988 462.612 29.3289 453.278 39.0829 448.276L38.8689 447.84L12.2149 458.955C12.2149 458.955 10.5759 456.665 9.38687 457.091Z" fill="#F6F6F6"/>
</g>
<path d="M39.1784 447.701C39.0742 447.771 38.9637 447.83 38.8484 447.879L37.8814 448.343L34.2954 449.986C31.2574 451.352 27.0354 453.186 22.3304 455.104C17.6254 457.022 13.3244 458.669 10.1974 459.817L6.48537 461.151L5.46937 461.496C5.35278 461.541 5.23225 461.574 5.10938 461.596C5.21851 461.535 5.33298 461.484 5.45137 461.443L6.45137 461.052L10.1324 459.644C13.2404 458.451 17.5264 456.78 22.2324 454.862C26.9384 452.944 31.1664 451.139 34.2224 449.817L37.8414 448.251L38.8294 447.833C38.9413 447.778 39.0581 447.734 39.1784 447.701Z" fill="#354A53"/>
<path d="M12.3485 459.266C11.9421 458.727 11.4754 458.235 10.9575 457.801C10.389 457.436 9.78076 457.137 9.14453 456.91C9.85389 456.932 10.5398 457.169 11.1113 457.59C11.6828 458.011 12.1129 458.595 12.3445 459.266H12.3485Z" fill="#354A53"/>
<path d="M17.0499 453.847C17.0079 453.906 16.5839 453.676 16.1029 453.334C15.6219 452.992 15.2669 452.666 15.3079 452.607C15.3489 452.548 15.7739 452.778 16.2549 453.12C16.7359 453.462 17.0919 453.791 17.0499 453.847Z" fill="#354A53"/>
<path d="M18.3255 452.326C18.3005 452.394 17.8975 452.312 17.4255 452.142C16.9535 451.972 16.5895 451.778 16.6145 451.711C16.6395 451.644 17.0425 451.725 17.5145 451.895C17.9865 452.065 18.3495 452.258 18.3255 452.326Z" fill="#354A53"/>
<path d="M18.5825 450.012C18.6105 450.079 18.1665 450.33 17.5895 450.572C17.2517 450.76 16.8755 450.868 16.4895 450.889C16.4615 450.822 16.9065 450.572 17.4825 450.329C17.8207 450.142 18.1967 450.033 18.5825 450.012Z" fill="#354A53"/>
<path d="M18.3899 448.531C18.4369 448.582 18.0199 449.02 17.3589 449.347C16.9782 449.584 16.534 449.7 16.0859 449.677C16.4533 449.454 16.8402 449.265 17.2419 449.112C17.6057 448.883 17.99 448.689 18.3899 448.531Z" fill="#354A53"/>
<path d="M15.6547 452.372C15.2568 452.619 14.8189 452.794 14.3607 452.89C13.8697 453.022 13.3676 453.108 12.8607 453.146C12.5557 453.181 12.2477 453.181 11.9427 453.146C11.7531 453.121 11.5805 453.024 11.4597 452.875C11.3994 452.788 11.3659 452.684 11.3634 452.578C11.3609 452.471 11.3895 452.366 11.4457 452.275C11.8396 451.833 12.3749 451.542 12.96 451.45C13.5452 451.359 14.1439 451.474 14.6537 451.775C14.9562 451.949 15.2189 452.184 15.4247 452.465C15.5657 452.665 15.6137 452.793 15.5997 452.801C15.3062 452.456 14.9558 452.165 14.5637 451.939C14.1343 451.718 13.6503 451.626 13.1697 451.672C12.8837 451.689 12.6038 451.762 12.3462 451.887C12.0887 452.013 11.8587 452.188 11.6697 452.403C11.5267 452.638 11.7047 452.846 11.9877 452.89C12.2704 452.925 12.5559 452.93 12.8397 452.905C13.3341 452.877 13.8256 452.81 14.3097 452.705C15.1457 452.531 15.6387 452.332 15.6547 452.372Z" fill="#354A53"/>
<path d="M15.3497 452.573C15.0813 452.368 14.8983 452.07 14.8357 451.737C14.7384 451.383 14.7277 451.011 14.8047 450.651C14.8342 450.414 14.9239 450.189 15.0651 449.996C15.2064 449.804 15.3945 449.651 15.6117 449.551C15.7539 449.526 15.9002 449.558 16.0197 449.639C16.1392 449.72 16.2224 449.844 16.2517 449.985C16.3062 450.204 16.3116 450.431 16.2677 450.651C16.2145 451.005 16.1163 451.351 15.9757 451.68C15.8707 451.994 15.69 452.277 15.4497 452.503C15.4147 452.481 15.6127 452.167 15.8017 451.614C15.9116 451.292 15.987 450.959 16.0267 450.62C16.0937 450.275 16.0147 449.736 15.6677 449.809C15.3317 449.909 15.1327 450.365 15.0407 450.703C14.9617 451.027 14.9538 451.364 15.0177 451.69C15.1008 451.994 15.212 452.29 15.3497 452.573Z" fill="#354A53"/>
<path d="M36.5321 442.371C36.5461 442.418 35.9321 442.55 35.0701 443.027C33.9391 443.638 33.0047 444.558 32.3756 445.679C31.7465 446.801 31.4485 448.077 31.5161 449.361C31.5601 450.347 31.7661 450.937 31.7161 450.95C31.6379 450.827 31.5818 450.692 31.5501 450.55C31.4354 450.168 31.3609 449.775 31.3281 449.378C31.2069 448.051 31.4911 446.718 32.1431 445.556C32.7951 444.394 33.7843 443.456 34.9801 442.868C35.3363 442.689 35.7103 442.547 36.0961 442.446C36.2358 442.395 36.3834 442.37 36.5321 442.371Z" fill="#354A53"/>
<path d="M31.043 434.863C32.3577 437.53 33.5143 440.271 34.507 443.073C33.1919 440.407 32.0352 437.666 31.043 434.863Z" fill="#354A53"/>
<path d="M28.4127 450.15C26.626 451.307 24.6459 452.135 22.5667 452.594C22.5447 452.521 23.8887 452.067 25.4987 451.394C27.1087 450.721 28.3767 450.082 28.4127 450.15Z" fill="#354A53"/>
<path d="M32.3424 448.539C32.4114 448.568 32.3424 448.861 32.3424 449.216C32.3424 449.571 32.3664 449.868 32.2944 449.892C32.2224 449.916 32.0624 449.616 32.0794 449.206C32.0964 448.796 32.2804 448.508 32.3424 448.539Z" fill="#354A53"/>
<path d="M33.0787 446.09C33.1457 446.118 33.1007 446.38 32.9787 446.675C32.8567 446.97 32.7037 447.187 32.6367 447.159C32.5697 447.131 32.6137 446.869 32.7367 446.574C32.8597 446.279 33.0117 446.062 33.0787 446.09Z" fill="#354A53"/>
<path d="M34.856 444.386C34.87 444.46 34.602 444.566 34.349 444.786C34.096 445.006 33.949 445.254 33.876 445.229C33.803 445.204 33.86 444.859 34.176 444.587C34.492 444.315 34.851 444.314 34.856 444.386Z" fill="#354A53"/>
<path d="M36.2034 443.37C36.2534 443.423 36.1794 443.57 36.0394 443.705C35.8994 443.84 35.7454 443.905 35.6954 443.85C35.6454 443.795 35.7184 443.65 35.8594 443.514C36.0004 443.378 36.1534 443.318 36.2034 443.37Z" fill="#354A53"/>
<path d="M103.449 325.219L40.0938 326.404C35.1947 326.495 30.4934 328.352 26.8537 331.632C23.2139 334.913 20.8803 339.397 20.2817 344.26L7.71875 446.36H42.1277L52.6338 358.175H102.591L103.449 325.219Z" fill="#354A53"/>
<path d="M8.14453 439.869C8.14453 440.032 15.6815 440.212 24.9785 440.269C34.2755 440.326 41.6545 440.094 41.8175 440.078C42.8855 439.978 34.2825 439.735 24.9825 439.678C15.6825 439.621 8.14953 439.705 8.14453 439.869Z" fill="#344952"/>
<path d="M162.918 358.175C188.207 349.803 170.077 320.502 170.077 320.502L73.6391 326.124C71.53 326.109 69.4389 326.512 67.4862 327.309C65.5335 328.106 63.7577 329.282 62.2612 330.768C60.7648 332.255 59.5771 334.022 58.7667 335.969C57.9562 337.916 57.539 340.005 57.5391 342.114L57.8911 344.687C57.8911 353.519 64.6981 358.104 73.5291 358.104L162.915 358.171" fill="#354A53"/>
<path d="M147.973 321.998C147.868 321.98 147.762 321.976 147.656 321.985L146.728 322.007L143.166 322.146L130.066 322.761L86.8658 325.004C84.7578 325.104 82.6658 325.272 80.6208 325.304C78.5758 325.336 76.5288 325.416 74.5378 325.529C72.5468 325.642 70.5908 325.784 68.6788 325.98C66.7842 326.098 64.9129 326.462 63.1118 327.062C61.3946 327.676 59.8196 328.631 58.4818 329.871C57.2411 331.068 56.282 332.526 55.6738 334.139C55.1148 335.627 54.7312 337.176 54.5308 338.753C54.3248 340.197 54.2225 341.655 54.2248 343.114C54.1853 345.639 54.6866 348.143 55.6948 350.458C56.4816 352.199 57.6677 353.729 59.1568 354.926C60.0914 355.682 61.161 356.254 62.3088 356.612C63.0958 356.847 63.1088 356.77 62.3448 356.503C61.2327 356.106 60.2005 355.513 59.2968 354.753C57.8661 353.553 56.7325 352.038 55.9848 350.327C55.0286 348.045 54.5661 345.586 54.6278 343.113C54.6386 341.673 54.7515 340.236 54.9658 338.813C55.1739 337.274 55.5591 335.764 56.1138 334.313C56.7054 332.77 57.632 331.377 58.8268 330.235C60.12 329.05 61.639 328.139 63.2928 327.555C65.0544 326.977 66.8832 326.63 68.7338 326.522C70.6338 326.333 72.5838 326.198 74.5688 326.087C76.5538 325.976 78.5768 325.9 80.6288 325.872C82.6808 325.844 84.7708 325.672 86.8828 325.579L130.083 323.168L143.173 322.368L146.731 322.122L147.655 322.044C147.762 322.042 147.869 322.026 147.973 321.998Z" fill="#344952"/>
<path d="M149.983 174.328C150.905 174.425 151.757 174.865 152.37 175.56C152.984 176.256 153.313 177.156 153.295 178.083L151.195 228.083C151.116 233.983 140.402 240.97 134.081 240.836C127.697 240.701 129.046 233.91 129.481 228.309C129.76 224.027 129.708 219.73 129.327 215.455C129.327 215.455 121.26 214.116 119.589 203.591C118.758 198.357 119.021 189.775 119.463 182.76C119.556 181.264 119.951 179.801 120.624 178.461C121.298 177.121 122.235 175.932 123.38 174.964C124.526 173.996 125.855 173.269 127.288 172.829C128.722 172.388 130.229 172.242 131.721 172.399L149.983 174.328Z" fill="#FFBE9D"/>
<path d="M122.195 189.572C122.192 189.923 122.326 190.262 122.569 190.517C122.812 190.771 123.144 190.921 123.495 190.934C123.667 190.947 123.84 190.926 124.003 190.872C124.167 190.818 124.318 190.732 124.447 190.618C124.577 190.505 124.683 190.367 124.758 190.212C124.833 190.057 124.877 189.889 124.886 189.717C124.89 189.365 124.756 189.025 124.513 188.771C124.271 188.516 123.938 188.367 123.586 188.354C123.415 188.34 123.242 188.361 123.078 188.415C122.915 188.47 122.764 188.556 122.634 188.67C122.505 188.783 122.399 188.921 122.324 189.076C122.248 189.231 122.205 189.4 122.195 189.572Z" fill="#354A53"/>
<path d="M121.326 187.224C121.493 187.4 122.516 186.643 123.968 186.647C125.419 186.63 126.485 187.377 126.643 187.2C126.72 187.121 126.55 186.8 126.086 186.465C125.458 186.029 124.71 185.798 123.945 185.805C123.191 185.803 122.455 186.04 121.845 186.484C121.395 186.826 121.244 187.145 121.326 187.224Z" fill="#354A53"/>
<path d="M136.398 189.57C136.395 189.921 136.529 190.26 136.772 190.515C137.015 190.769 137.347 190.919 137.699 190.932C137.87 190.945 138.043 190.925 138.207 190.871C138.37 190.816 138.521 190.73 138.651 190.617C138.781 190.503 138.887 190.365 138.962 190.21C139.037 190.055 139.081 189.887 139.091 189.715C139.094 189.363 138.96 189.024 138.717 188.769C138.474 188.515 138.142 188.365 137.791 188.352C137.619 188.338 137.446 188.359 137.282 188.413C137.119 188.467 136.968 188.554 136.838 188.667C136.708 188.781 136.602 188.919 136.527 189.074C136.452 189.229 136.408 189.398 136.398 189.57Z" fill="#354A53"/>
<path d="M135.603 187.493C135.771 187.669 136.795 186.912 138.246 186.916C139.697 186.899 140.763 187.646 140.92 187.468C140.997 187.39 140.829 187.068 140.363 186.734C139.735 186.298 138.987 186.068 138.222 186.074C137.468 186.073 136.733 186.31 136.122 186.753C135.673 187.096 135.521 187.414 135.603 187.493Z" fill="#354A53"/>
<path d="M130.331 198.267C129.566 198.027 128.773 197.884 127.972 197.841C127.601 197.803 127.25 197.729 127.188 197.476C127.156 197.093 127.242 196.709 127.435 196.376C127.784 195.479 128.15 194.537 128.535 193.552C130.058 189.531 131.161 186.224 130.999 186.165C130.837 186.106 129.47 189.315 127.947 193.336L126.896 196.177C126.662 196.624 126.594 197.14 126.703 197.633C126.757 197.764 126.84 197.88 126.946 197.974C127.051 198.068 127.177 198.137 127.313 198.175C127.519 198.231 127.73 198.26 127.943 198.262C128.736 198.363 129.538 198.363 130.331 198.262V198.267Z" fill="#354A53"/>
<path d="M129.328 215.453C134.286 215.53 139.167 214.228 143.428 211.693C143.428 211.693 140.009 218.923 129.475 217.938L129.328 215.453Z" fill="#E8845A"/>
<path d="M130.946 201.77C131.222 201.422 131.583 201.15 131.993 200.98C132.404 200.81 132.851 200.748 133.293 200.798C133.613 200.827 133.925 200.92 134.208 201.072C134.492 201.224 134.741 201.432 134.943 201.683C135.137 201.925 135.253 202.221 135.273 202.531C135.294 202.841 135.218 203.15 135.058 203.415C134.825 203.675 134.519 203.86 134.181 203.945C133.843 204.031 133.486 204.014 133.158 203.896C132.472 203.654 131.841 203.277 131.302 202.788C131.138 202.673 130.997 202.527 130.887 202.359C130.833 202.279 130.805 202.185 130.805 202.089C130.805 201.992 130.833 201.898 130.887 201.818" fill="#E8845A"/>
<path d="M134.609 199.27C134.373 199.256 134.37 200.833 133.02 201.952C131.67 203.071 129.992 202.898 129.981 203.118C129.959 203.218 130.355 203.424 131.064 203.443C131.988 203.456 132.887 203.143 133.602 202.559C134.289 201.997 134.73 201.191 134.833 200.31C134.893 199.648 134.717 199.261 134.609 199.27Z" fill="#354A53"/>
<path d="M134.953 184.95C135.096 185.345 136.546 185.157 138.253 185.363C139.961 185.534 141.336 186.033 141.562 185.679C141.662 185.51 141.423 185.138 140.862 184.756C140.12 184.288 139.282 183.994 138.409 183.898C137.537 183.802 136.655 183.906 135.829 184.201C135.21 184.452 134.891 184.762 134.953 184.95Z" fill="#354A53"/>
<path d="M121.861 183.018C122.117 183.348 123.117 183.006 124.321 182.99C125.521 182.932 126.543 183.211 126.777 182.866C126.877 182.699 126.719 182.366 126.277 182.056C125.679 181.682 124.983 181.494 124.278 181.515C123.573 181.537 122.89 181.768 122.316 182.178C121.888 182.518 121.749 182.857 121.861 183.018Z" fill="#354A53"/>
<path d="M119.465 182.759C120.984 177.688 122.198 176.142 127.395 174.408C129.978 185.808 140.157 181.978 145.908 182.916C146.503 182.96 147.08 183.145 147.591 183.455C148.478 184.113 148.548 185.39 148.544 186.494C148.433 189.613 148.691 192.735 149.311 195.794C149.943 198.871 151.516 201.676 153.811 203.821C157.282 196.506 157.628 187.994 156.075 180.047C155.441 176.801 154.365 173.4 151.775 171.338C149.822 169.98 147.566 169.121 145.204 168.838C139.452 167.783 130.504 160.217 124.892 161.862C123.224 162.244 121.688 163.063 120.44 164.234C119.193 165.405 118.279 166.886 117.792 168.526C116.555 172.528 116.826 176.845 118.554 180.661L119.465 182.759Z" fill="#354A53"/>
<path d="M162.627 335.716C162.365 335.915 162.068 336.062 161.751 336.151C160.909 336.457 160.027 336.636 159.133 336.684C157.641 336.799 156.143 336.585 154.743 336.057C153.343 335.529 152.076 334.7 151.032 333.629C149.987 332.558 149.191 331.27 148.699 329.858C148.206 328.445 148.03 326.942 148.182 325.453C148.253 324.562 148.455 323.686 148.782 322.853C148.879 322.539 149.034 322.246 149.239 321.988C148.915 323.132 148.701 324.304 148.601 325.488C148.509 326.905 148.716 328.325 149.209 329.657C149.701 330.988 150.468 332.202 151.459 333.218C152.451 334.234 153.645 335.03 154.964 335.556C156.283 336.081 157.697 336.323 159.116 336.266C160.301 336.196 161.477 336.011 162.627 335.716Z" fill="#344952"/>
<path d="M126.711 227.029V220.641C126.711 219.905 126.998 219.197 127.51 218.668C128.022 218.139 128.72 217.83 129.456 217.806L151.639 217.099C152.012 217.087 152.383 217.149 152.731 217.281C153.08 217.412 153.399 217.612 153.671 217.867C153.943 218.122 154.161 218.428 154.315 218.768C154.468 219.108 154.553 219.475 154.564 219.847L154.88 230.208L141.922 242.099L129.322 243.408L127.172 236.428L126.711 227.029Z" fill="#FF0000"/>
<path d="M155.522 227.734C152.256 230.464 149.712 233.954 148.112 237.898L132.99 274.343L122.196 239.388L108.317 242.159C107.522 242.318 106.769 242.641 106.106 243.106C105.443 243.572 104.884 244.171 104.465 244.864C104.046 245.558 103.776 246.331 103.673 247.135C103.569 247.939 103.634 248.755 103.864 249.532L117.406 295.395C121.337 303.252 132.218 306.244 140.448 303.168C140.812 303.035 141.174 302.886 141.534 302.721C145.709 300.765 148.988 297.299 150.709 293.021L162.481 270.084L170.331 252.143C170.495 251.767 170.646 251.389 170.783 251.008C174.51 240.645 167.336 229.514 156.446 227.876L155.523 227.737" fill="#FF0000"/>
<path d="M134.503 282.033C133.731 279.417 133.29 276.715 133.188 273.99Z" fill="#354A53"/>
<path d="M107.724 242.311C107.303 242.448 106.889 242.607 106.484 242.787C105.925 243.077 105.43 243.476 105.027 243.96C104.624 244.444 104.321 245.003 104.137 245.606C103.841 246.466 103.731 247.379 103.813 248.286C103.969 249.364 104.235 250.424 104.605 251.449C105.289 253.722 106.067 256.301 106.924 259.149L112.912 279.204L116.441 291.043C117.77 295.233 120.457 298.862 124.078 301.357C127.699 303.858 132.125 304.911 136.484 304.308C140.532 303.679 144.186 301.526 146.697 298.29C147.798 296.737 148.756 295.088 149.559 293.363L152.069 288.548L156.582 279.91L163.153 267.421L164.966 264.039L165.451 263.167C165.417 263.14 165.394 263.103 165.387 263.061C165.38 263.019 165.388 262.975 165.411 262.939C165.434 262.903 165.47 262.877 165.511 262.866C165.552 262.855 165.596 262.86 165.634 262.879C165.672 262.899 165.701 262.932 165.716 262.972C165.731 263.012 165.73 263.056 165.714 263.096C165.698 263.136 165.667 263.168 165.629 263.186C165.59 263.204 165.546 263.207 165.505 263.195L165.072 264.095L163.357 267.528L156.957 280.103L152.508 288.774C151.708 290.332 150.88 291.941 150.025 293.603C149.216 295.361 148.248 297.042 147.132 298.624C144.544 301.984 140.766 304.224 136.576 304.882C132.071 305.516 127.492 304.433 123.748 301.848C120.018 299.279 117.253 295.539 115.891 291.22L112.391 279.36L106.525 259.268L104.29 251.544C103.927 250.494 103.674 249.411 103.534 248.31C103.464 247.366 103.596 246.419 103.922 245.531C104.125 244.909 104.452 244.335 104.885 243.844C105.317 243.353 105.845 242.956 106.437 242.677C106.845 242.485 107.281 242.361 107.729 242.311H107.724Z" fill="#354A53"/>
<path d="M122.195 239.389C122.311 239.6 122.403 239.823 122.469 240.054L123.142 241.991C123.726 243.751 124.529 246.175 125.511 249.141L133.111 272.784C133.233 273.167 133.353 273.548 133.466 273.901L132.911 273.878L142.185 251.678L145.04 245.014L145.84 243.214C145.922 242.999 146.028 242.794 146.156 242.603C146.112 242.828 146.042 243.048 145.949 243.258L145.249 245.097L142.566 251.832L133.458 274.103L133.149 274.857L132.902 274.08L132.546 272.962L125.107 249.253C124.199 246.266 123.457 243.824 122.918 242.053L122.352 240.087C122.274 239.86 122.222 239.625 122.195 239.387V239.389Z" fill="#354A53"/>
<path d="M161.102 231.006C161.092 231.106 160.158 231.006 158.681 231.162C156.759 231.355 154.904 231.973 153.25 232.971C151.596 233.969 150.185 235.322 149.119 236.932C148.289 238.165 147.943 239.038 147.852 239.001C147.984 238.18 148.296 237.398 148.764 236.709C149.779 234.966 151.217 233.506 152.944 232.463C154.672 231.421 156.634 230.83 158.65 230.744C159.476 230.652 160.313 230.741 161.102 231.006Z" fill="#354A53"/>
<path d="M131.072 227.157C130.817 224.016 130.959 220.856 131.493 217.75C131.748 220.891 131.606 224.051 131.072 227.157Z" fill="#354A53"/>
<path d="M136.952 226.585C136.309 223.655 136.268 220.624 136.831 217.678C137.058 220.641 137.099 223.616 136.952 226.585Z" fill="#354A53"/>
<path d="M142.892 226.465C142.337 223.476 142.36 220.41 142.959 217.43C143.15 220.439 143.127 223.458 142.892 226.465Z" fill="#354A53"/>
<path d="M149.14 226.205C148.735 223.253 148.724 220.26 149.108 217.305C149.513 220.257 149.524 223.25 149.14 226.205Z" fill="#354A53"/>
<path d="M84.1072 275.583C83.413 273.585 83.1582 271.461 83.3601 269.355C83.562 267.25 84.2159 265.212 85.2772 263.383C85.4492 263.454 84.2562 266.013 83.9492 269.414C83.6032 272.806 84.2892 275.545 84.1072 275.583Z" fill="#354A53"/>
<path d="M120.464 239.991C120.464 239.991 119.683 231.282 119.105 226.791C118.527 222.3 115.777 222.827 115.524 220.391C115.271 217.955 114.16 218.076 114.16 218.076C112.832 217.593 113.135 221.213 113.135 221.213C113.135 221.213 102.415 218.622 101.609 218.284C101.366 218.215 101.109 218.215 100.866 218.285C100.624 218.355 100.405 218.491 100.236 218.678C100.067 218.865 99.9532 219.096 99.9083 219.345C99.8634 219.593 99.8889 219.849 99.9818 220.084C100.149 220.512 106.13 223.015 106.13 223.015C106.13 223.015 101.22 227.744 101.113 229.74C101.006 231.736 107.585 236.386 107.585 236.386L107.725 242.32L120.464 239.991Z" fill="#FFBE9D"/>
<path d="M110.966 225.632C110.883 225.652 110.751 225.385 110.317 225.193C109.883 225.001 109.185 224.768 108.476 224.442C107.558 224.14 106.71 223.656 105.984 223.018C106.945 223.124 107.875 223.424 108.716 223.901C109.35 224.159 109.961 224.473 110.54 224.838C111.022 225.187 111.052 225.634 110.966 225.632Z" fill="#E8845A"/>
<path d="M108.45 228.069C108.333 228.191 107.412 227.469 106.211 226.712C105.01 225.955 103.973 225.412 104.034 225.256C104.944 225.311 105.815 225.645 106.528 226.213C107.788 227.012 108.562 227.959 108.45 228.069Z" fill="#E8845A"/>
<path d="M106.817 229.971C105.935 229.856 105.089 229.549 104.339 229.071C103.039 228.426 102.052 227.783 102.125 227.637C103.007 227.751 103.853 228.059 104.603 228.537C105.9 229.183 106.891 229.825 106.817 229.971Z" fill="#E8845A"/>
<path d="M120.464 239.735C120.215 238.681 120.057 237.609 119.993 236.529C119.752 234.548 119.482 231.799 118.956 228.815C118.745 227.42 118.38 226.053 117.867 224.74C117.655 224.194 117.294 223.719 116.825 223.371C116.395 223.054 115.943 222.77 115.471 222.522C113.712 221.633 112.52 221.241 112.56 221.141C112.854 221.15 113.144 221.211 113.417 221.322C114.183 221.541 114.932 221.817 115.658 222.147C116.164 222.38 116.65 222.655 117.111 222.969C117.664 223.353 118.098 223.886 118.361 224.507C118.924 225.853 119.319 227.264 119.537 228.707C119.968 231.283 120.259 233.881 120.409 236.49C120.533 237.567 120.552 238.654 120.464 239.735Z" fill="#E8845A"/>
<path d="M160.386 205.241C160.427 204.988 160.494 204.739 160.586 204.499L161.251 202.406C162.102 199.861 162.71 197.242 163.068 194.582C163.296 192.754 163.269 190.903 162.988 189.082C162.653 187.004 161.887 185.018 160.738 183.253C159.502 181.293 157.659 179.792 155.489 178.977C153.224 178.169 150.662 178.237 148.057 178.094C145.452 177.951 142.757 177.43 140.778 175.735C139.835 174.895 139.148 173.806 138.795 172.593C138.417 171.449 138.195 170.314 137.788 169.293C137.402 168.337 136.784 167.492 135.99 166.833C135.197 166.174 134.252 165.722 133.241 165.517C131.465 165.082 129.604 165.138 127.856 165.678C126.404 166.079 125.121 166.943 124.203 168.138C123.546 169.065 123.214 170.185 123.261 171.32C123.284 172.04 123.488 172.743 123.854 173.363C124.113 173.786 124.312 173.963 124.287 173.989C124.079 173.835 123.899 173.645 123.755 173.429C123.328 172.808 123.077 172.082 123.031 171.329C122.939 170.131 123.256 168.937 123.931 167.943C124.87 166.659 126.205 165.721 127.731 165.274C129.551 164.682 131.498 164.599 133.361 165.036C134.409 165.277 135.396 165.731 136.261 166.368C137.178 167.068 137.883 168.008 138.298 169.084C138.734 170.163 138.964 171.309 139.334 172.404C139.66 173.519 140.294 174.519 141.163 175.288C142.969 176.835 145.551 177.365 148.095 177.488C150.661 177.633 153.287 177.556 155.688 178.415C157.972 179.278 159.908 180.867 161.198 182.938C162.376 184.772 163.152 186.833 163.477 188.987C163.746 190.852 163.749 192.746 163.488 194.612C163.092 197.291 162.417 199.92 161.474 202.458C161.153 203.358 160.888 204.051 160.703 204.518C160.623 204.768 160.517 205.009 160.386 205.236V205.241Z" fill="#344952"/>
<path d="M153.46 216.109C154.592 214.734 155.539 213.216 156.276 211.594C157.011 209.816 157.413 207.917 157.463 205.994C157.531 203.644 157.02 201.314 155.974 199.209C155.421 198.084 154.785 197.009 154.285 195.899C153.8 194.827 153.467 193.692 153.297 192.527C152.96 190.342 152.797 188.356 152.046 186.914C151.513 185.742 150.581 184.798 149.417 184.248C148.971 184.089 148.509 183.979 148.039 183.921C148.039 183.901 148.166 183.88 148.416 183.86C148.784 183.853 149.15 183.912 149.497 184.032C150.773 184.531 151.815 185.49 152.417 186.72C153.272 188.244 153.471 190.297 153.834 192.435C154.011 193.55 154.341 194.635 154.813 195.66C155.301 196.731 155.936 197.794 156.505 198.949C157.592 201.139 158.108 203.569 158.005 206.012C157.929 207.996 157.471 209.947 156.657 211.758C156.113 212.973 155.39 214.1 154.511 215.101C154.278 215.376 154.026 215.633 153.756 215.872C153.577 216.044 153.475 216.124 153.46 216.109Z" fill="#344952"/>
<path d="M144.699 244.371C143.787 244.894 142.823 245.321 141.823 245.643C139.458 246.584 136.99 247.241 134.47 247.6C131.92 247.957 129.322 247.707 126.887 246.871C126.156 246.609 125.457 246.266 124.802 245.849C124.344 245.549 124.118 245.349 124.138 245.315C124.193 245.224 125.194 245.915 127.021 246.475C129.415 247.168 131.928 247.351 134.398 247.014C136.876 246.651 139.315 246.06 141.685 245.249C142.663 244.871 143.671 244.577 144.699 244.371Z" fill="#F8FAFA"/>
<path d="M169.573 252.357C169.196 251.045 168.634 249.792 167.903 248.637C165.958 245.964 163.142 244.052 159.94 243.227C156.712 242.482 153.384 242.267 150.087 242.591C148.712 242.748 147.329 242.828 145.945 242.83C146.296 242.698 146.664 242.615 147.037 242.584C147.745 242.465 148.772 242.313 150.051 242.174C153.401 241.721 156.805 241.884 160.095 242.656C163.429 243.506 166.333 245.553 168.253 248.407C168.81 249.277 169.214 250.235 169.446 251.24C169.553 251.603 169.596 251.981 169.573 252.357Z" fill="#F8FAFA"/>
<path d="M156.823 278.412C156.714 278.444 156.337 277.028 155.287 274.945C152.499 269.48 147.696 265.311 141.893 263.319C139.683 262.571 138.229 262.397 138.246 262.284C138.59 262.25 138.937 262.269 139.275 262.338C139.677 262.376 140.075 262.443 140.466 262.538C140.991 262.637 141.511 262.766 142.021 262.924C143.359 263.318 144.654 263.845 145.887 264.497C148.922 266.101 151.548 268.381 153.561 271.161C154.379 272.29 155.083 273.498 155.661 274.767C155.889 275.25 156.09 275.746 156.261 276.252C156.409 276.627 156.53 277.012 156.622 277.404C156.739 277.728 156.807 278.068 156.822 278.412H156.823Z" fill="#F8FAFA"/>
<path d="M138.766 303.503C138.658 303.474 139.154 301.763 139.519 298.934C139.729 297.279 139.829 295.612 139.819 293.944C139.793 289.854 139.093 285.796 137.748 281.933C137.199 280.359 136.547 278.822 135.795 277.333C134.503 274.789 133.464 273.344 133.556 273.281C133.859 273.571 134.125 273.897 134.347 274.251C135.018 275.171 135.626 276.136 136.165 277.138C136.982 278.621 137.684 280.164 138.265 281.753C139.691 285.659 140.402 289.789 140.365 293.946C140.351 295.638 140.207 297.326 139.935 298.996C139.763 300.122 139.513 301.234 139.189 302.326C139.097 302.734 138.955 303.13 138.766 303.503Z" fill="#F8FAFA"/>
<path d="M113.086 277.344C113.078 277.237 114.307 277.162 116.211 276.684C121.202 275.419 125.577 272.413 128.548 268.208C129.676 266.608 130.188 265.483 130.285 265.529C130.242 265.817 130.148 266.096 130.007 266.352C129.698 267.079 129.326 267.778 128.896 268.441C127.478 270.648 125.634 272.551 123.472 274.036C121.31 275.522 118.872 276.561 116.303 277.092C115.53 277.256 114.744 277.352 113.954 277.381C113.665 277.42 113.371 277.407 113.086 277.344Z" fill="#F8FAFA"/>
<path d="M125.914 251.718C125.939 251.744 125.755 251.984 125.364 252.364C124.803 252.893 124.187 253.363 123.527 253.764C121.325 255.067 118.861 255.866 116.313 256.106C113.791 256.338 111.25 256.288 108.738 255.956C107.694 255.888 106.66 255.711 105.652 255.428C106.695 255.375 107.74 255.412 108.776 255.539C111.263 255.744 113.763 255.736 116.248 255.517C118.72 255.277 121.121 254.559 123.317 253.402C124.987 252.489 125.843 251.64 125.914 251.718Z" fill="#F8FAFA"/>
<path d="M153.547 228.78C153.202 229.019 152.828 229.213 152.434 229.359C151.702 229.695 150.634 230.159 149.292 230.687C145.804 232.146 142.103 233.031 138.332 233.306C134.507 233.538 130.707 232.543 127.486 230.465C126.531 229.822 125.674 229.043 124.942 228.153C124.657 227.843 124.42 227.49 124.242 227.107C125.279 228.242 126.445 229.252 127.716 230.115C130.904 232.027 134.594 232.933 138.305 232.715C142.016 232.434 145.668 231.619 149.146 230.295L152.346 229.146C152.73 228.976 153.133 228.853 153.546 228.78H153.547Z" fill="#F8FAFA"/>
<path d="M105.371 278.059C105.271 278.081 104.952 276.686 104.171 274.529C102.132 268.888 98.691 263.86 94.1714 259.918C92.4434 258.408 91.2584 257.606 91.3144 257.518C91.6336 257.63 91.9337 257.791 92.2044 257.995C92.9822 258.481 93.7286 259.015 94.4394 259.595C99.1922 263.43 102.715 268.576 104.569 274.395C104.853 275.267 105.081 276.156 105.252 277.057C105.343 277.383 105.383 277.72 105.371 278.059Z" fill="#F8FAFA"/>
<path d="M87.4242 291.068C87.4014 289.746 87.4535 288.425 87.5802 287.109C87.7062 284.67 87.8002 281.298 87.6802 277.577C87.5602 273.856 87.2382 270.496 86.9522 268.071C86.739 266.766 86.5998 265.451 86.5352 264.131C86.684 264.457 86.7851 264.804 86.8352 265.159C86.9902 265.827 87.1762 266.802 87.3722 268.013C88.3677 274.338 88.5796 280.761 88.0032 287.138C87.8872 288.359 87.7672 289.344 87.6562 290.022C87.6295 290.38 87.5514 290.732 87.4242 291.068Z" fill="#F8FAFA"/>
<path d="M84.3441 259.876C83.7644 260.692 83.0687 261.419 82.2791 262.034C78.6032 265.205 74.1401 267.326 69.3601 268.172C68.3847 268.397 67.3817 268.477 66.3831 268.41C66.3431 268.21 70.9491 267.864 75.9831 265.439C81.0361 263.07 84.2161 259.72 84.3441 259.876Z" fill="#F8FAFA"/>
<path d="M81.8244 245.684C81.1617 246.277 80.4033 246.753 79.5815 247.092C75.6853 248.962 71.2894 249.524 67.0484 248.692C66.1677 248.57 65.314 248.3 64.5234 247.892C64.5554 247.692 68.4714 248.976 73.3704 248.317C78.2774 247.729 81.7444 245.501 81.8244 245.684Z" fill="#F8FAFA"/>
<path d="M78.0057 227.123C77.3899 227.609 76.6933 227.983 75.9477 228.228C72.4231 229.647 68.568 230.036 64.8307 229.351C64.0516 229.26 63.2944 229.033 62.5938 228.68C62.6288 228.49 66.0937 229.451 70.4107 228.99C74.7307 228.579 77.9337 226.945 78.0057 227.123Z" fill="#F8FAFA"/>
<path d="M165.477 297.578C165.477 297.632 164.72 297.578 163.369 297.671C161.464 297.821 159.584 298.199 157.769 298.797C155.08 299.711 152.468 300.835 149.956 302.16C146.87 303.825 143.666 305.262 140.37 306.46C137.006 307.557 133.462 307.998 129.932 307.76C127.056 307.571 124.224 306.951 121.532 305.921C119.723 305.231 117.998 304.337 116.39 303.258C115.951 302.97 115.527 302.661 115.119 302.331C114.837 302.108 114.695 301.983 114.708 301.967C116.903 303.39 119.239 304.584 121.679 305.529C124.344 306.486 127.133 307.054 129.96 307.216C133.42 307.417 136.886 306.969 140.181 305.894C143.449 304.705 146.633 303.294 149.709 301.671C152.258 300.356 154.913 299.261 157.648 298.397C159.501 297.826 161.423 297.504 163.361 297.442C163.886 297.425 164.412 297.442 164.936 297.493C165.119 297.495 165.302 297.523 165.477 297.578Z" fill="#F8FAFA"/>
<path d="M166.296 281.503C162.52 283.16 158.427 283.969 154.305 283.873C154.294 283.7 157.016 283.423 160.316 282.764C163.616 282.105 166.246 281.339 166.296 281.503Z" fill="#F8FAFA"/>
<path d="M168.247 310.881C168.074 310.983 167.889 311.062 167.695 311.116L166.075 311.681C164.668 312.169 162.604 312.799 160.034 313.505C146.606 317.157 132.701 318.751 118.795 318.233C116.133 318.127 113.981 317.981 112.495 317.824L110.795 317.64C110.774 317.711 110.728 317.772 110.664 317.811C110.601 317.85 110.525 317.864 110.452 317.851C110.379 317.837 110.314 317.797 110.268 317.738C110.223 317.679 110.202 317.605 110.208 317.531C110.214 317.457 110.248 317.387 110.302 317.337C110.357 317.286 110.428 317.257 110.502 317.256C110.576 317.255 110.649 317.281 110.705 317.33C110.761 317.379 110.796 317.447 110.805 317.521L112.517 317.594C114.001 317.68 116.152 317.762 118.808 317.814C132.665 318.099 146.496 316.513 159.929 313.099C162.505 312.447 164.581 311.88 166.007 311.46L167.659 311.001C167.851 310.935 168.05 310.895 168.252 310.881H168.247Z" fill="#F8FAFA"/>
<g opacity="0.3">
<path d="M136.188 304.601C139.276 305.866 142.572 306.549 145.909 306.614C149.271 306.666 152.541 305.518 155.133 303.378C158.182 300.69 159.544 296.609 160.633 292.693C162.756 284.013 163.861 275.116 163.925 266.182C163.925 266.182 157.325 279.841 154.948 284.018C152.848 287.718 150.693 291.488 148.148 296.873C146.096 301.218 141.196 304.205 136.188 304.601Z" fill="#354A53"/>
</g>
<g opacity="0.3">
<path d="M103.289 247.264C101.045 252.378 99.9102 257.909 99.9585 263.494C100.007 269.078 101.237 274.589 103.569 279.664L110.876 273.154L103.289 247.264Z" fill="#354A53"/>
</g>
<path d="M448.022 472.428C448.792 469.373 446.774 466.321 444.522 464.12C442.27 461.919 439.574 459.951 438.391 457.031C436.474 452.3 438.98 446.146 435.733 442.207C433.822 439.891 430.415 439.131 428.717 436.655C427.933 435.285 427.41 433.781 427.176 432.22C425.338 424.351 421.421 417.12 415.834 411.281C415.497 418.303 417.056 425.287 420.348 431.498C421.668 433.978 423.286 436.398 423.735 439.167C424.464 443.667 421.974 448.329 423.106 452.749C424.406 457.804 430.106 461.159 430.406 466.369C430.659 470.769 426.841 474.662 427.152 479.062C427.392 480.933 428.075 482.72 429.142 484.275C432.58 489.918 437.606 493.79 445.19 493.62L454.482 493.892L448.022 472.428Z" fill="#FF0000"/>
<g opacity="0.3">
<path d="M448.022 472.428C448.792 469.373 446.774 466.321 444.522 464.12C442.27 461.919 439.574 459.951 438.391 457.031C436.474 452.3 438.98 446.146 435.733 442.207C433.822 439.891 430.415 439.131 428.717 436.655C427.933 435.285 427.41 433.781 427.176 432.22C425.338 424.351 421.421 417.12 415.834 411.281C415.497 418.303 417.056 425.287 420.348 431.498C421.668 433.978 423.286 436.398 423.735 439.167C424.464 443.667 421.974 448.329 423.106 452.749C424.406 457.804 430.106 461.159 430.406 466.369C430.659 470.769 426.841 474.662 427.152 479.062C427.392 480.933 428.075 482.72 429.142 484.275C432.58 489.918 437.606 493.79 445.19 493.62L454.482 493.892L448.022 472.428Z" fill="#354A53"/>
</g>
<path d="M456.362 494.127C456.362 494.127 456.584 494.119 457.012 494.127C457.646 494.113 458.278 494.048 458.901 493.934C459.916 493.755 460.911 493.479 461.873 493.11C463.188 492.623 464.413 491.922 465.5 491.037C466.132 490.511 466.623 489.836 466.93 489.074C467.187 488.197 467.316 487.288 467.312 486.374C467.314 485.357 467.373 484.342 467.49 483.332C467.663 482.23 468.049 481.173 468.625 480.219C469.731 478.234 471.488 476.419 472.01 473.919C472.595 471.445 472.129 468.725 471.665 465.931C471.206 463.156 470.734 460.022 471.813 456.988C472.82 453.988 474.831 451.337 475.777 448.17C476.729 444.988 476.243 441.486 476.425 437.9C476.48 436.053 476.893 434.235 477.64 432.545C478.404 430.845 479.44 429.281 480.211 427.595C481.78 424.207 482.049 420.303 482.471 416.395L483.096 410.451C483.223 408.406 483.561 406.38 484.107 404.406C484.727 402.423 485.464 400.477 486.313 398.581C486.734 397.644 487.077 396.674 487.339 395.681C487.482 394.653 487.571 393.618 487.607 392.581C487.694 390.466 487.6 388.348 487.325 386.25C487.064 384.132 486.664 382.005 486.418 379.832L486.374 379.458L486.801 379.691C484.919 380.664 483.287 382.058 482.032 383.766C480.788 385.46 479.791 387.322 479.071 389.297C477.571 393.216 477.033 397.357 476.271 401.378C475.509 405.399 474.522 409.398 472.43 412.821C471.392 414.521 470.162 416.042 469.11 417.632C468.01 419.141 467.258 420.875 466.91 422.71C466.372 426.367 468.541 429.828 468.11 433.537C467.895 435.318 467.3 437.033 466.366 438.565C465.507 440.086 464.512 441.472 463.579 442.852C462.639 444.18 461.822 445.59 461.138 447.066C460.509 448.492 460.138 450.018 460.044 451.574C459.825 454.635 460.273 457.615 460.044 460.481C459.786 463.202 458.995 465.847 457.716 468.263C456.581 470.569 455.33 472.635 454.286 474.627C453.771 475.579 453.303 476.557 452.886 477.556C452.52 478.483 452.252 479.446 452.086 480.429C451.809 482.158 451.779 483.917 451.998 485.655C452.229 488.079 453.114 490.395 454.558 492.355C455.095 493.008 455.702 493.601 456.367 494.123C456.367 494.123 456.181 494.007 455.834 493.753C455.612 493.604 455.406 493.432 455.221 493.239C454.946 492.991 454.693 492.72 454.465 492.429C452.959 490.473 452.025 488.138 451.765 485.683C451.524 483.923 451.537 482.138 451.804 480.383C451.967 479.377 452.235 478.391 452.604 477.442C453.015 476.431 453.477 475.442 453.987 474.478C455.023 472.468 456.261 470.394 457.372 468.102C458.615 465.724 459.379 463.126 459.622 460.454C459.835 457.647 459.374 454.677 459.583 451.543C459.677 449.934 460.056 448.354 460.703 446.878C461.394 445.372 462.22 443.933 463.172 442.578C464.105 441.189 465.088 439.807 465.924 438.318C466.819 436.845 467.387 435.198 467.591 433.487C468.022 430.004 465.838 426.565 466.365 422.632C466.72 420.716 467.497 418.903 468.64 417.325C469.709 415.705 470.932 414.187 471.94 412.525C473.968 409.195 474.952 405.263 475.694 401.267C476.453 397.267 476.989 393.086 478.518 389.086C479.257 387.058 480.28 385.145 481.558 383.406C482.867 381.625 484.57 380.172 486.534 379.158L486.91 378.967L486.96 379.391C486.974 379.507 486.989 379.634 487.004 379.761C487.247 381.908 487.645 384.031 487.91 386.173C488.188 388.304 488.283 390.455 488.194 392.602C488.157 393.673 488.063 394.741 487.912 395.802C487.643 396.832 487.289 397.838 486.852 398.81C486.009 400.686 485.278 402.61 484.662 404.572C484.123 406.514 483.788 408.507 483.662 410.519C483.449 412.519 483.238 414.499 483.029 416.459C482.6 420.349 482.329 424.316 480.703 427.825C479.903 429.56 478.865 431.117 478.123 432.766C477.398 434.395 476.997 436.149 476.941 437.932C476.747 441.442 477.241 444.997 476.241 448.311C475.241 451.591 473.219 454.226 472.241 457.137C471.191 460.047 471.627 463.083 472.074 465.866C472.521 468.649 472.994 471.434 472.374 474.007C471.801 476.623 469.994 478.454 468.909 480.384C468.344 481.299 467.963 482.316 467.787 483.378C467.664 484.375 467.598 485.379 467.587 486.384C467.584 487.325 467.442 488.261 467.166 489.161C466.837 489.961 466.314 490.666 465.644 491.213C464.529 492.103 463.273 492.8 461.928 493.276C460.952 493.635 459.942 493.895 458.914 494.053C458.074 494.225 457.211 494.25 456.362 494.127Z" fill="#354A53"/>
<path d="M485.094 384.521C485.098 384.62 485.088 384.718 485.065 384.814C485.027 385.039 484.981 385.314 484.923 385.663C484.781 386.409 484.61 387.504 484.296 388.919C483.962 390.343 483.155 391.919 482.483 393.84C481.778 395.75 481.063 397.957 480.407 400.435C479.751 402.913 479.156 405.658 478.537 408.616C478.003 411.814 477.022 414.92 475.624 417.844C474.87 419.374 474.035 420.898 473.388 422.53C472.752 424.208 472.329 425.958 472.129 427.74C471.688 431.539 471.042 435.311 470.194 439.04L465.014 460.54L460.588 478.04L457.55 489.826L456.696 493.025L456.459 493.853C456.439 493.95 456.405 494.043 456.359 494.13C456.36 494.032 456.374 493.934 456.401 493.839L456.58 492.996L457.326 489.772L460.177 477.94C461.406 472.94 462.863 466.998 464.477 460.408C466.055 453.797 467.788 446.536 469.608 438.908C470.453 435.195 471.1 431.44 471.547 427.658C471.757 425.832 472.196 424.039 472.854 422.321C473.525 420.646 474.374 419.115 475.126 417.602C476.518 414.722 477.501 411.663 478.048 408.511C478.688 405.56 479.3 402.805 479.995 400.324C480.69 397.843 481.427 395.63 482.165 393.724C482.875 391.801 483.708 390.239 484.065 388.861C484.422 387.483 484.619 386.374 484.797 385.641L484.997 384.803C485.017 384.705 485.049 384.611 485.094 384.521Z" fill="#354A53"/>
<path d="M458.003 494.146C464.051 490.505 465.73 479.546 463.161 472.972C460.592 466.398 456.128 460.401 455.405 453.379C454.849 447.979 456.586 442.429 455.298 437.157C453.56 430.043 446.574 424.564 446.612 417.241C446.634 413.132 448.949 409.253 448.74 405.149C448.483 400.116 444.596 396.144 442.177 391.722C438.477 384.954 438.189 376.929 436.893 369.322C435.597 361.715 432.65 353.582 425.883 349.879C424.923 356.347 423.248 360.779 423.832 369.534C424.042 372.677 427.732 378.675 428.264 385.563C428.584 389.68 428.814 393.803 429.089 397.923C429.356 401.933 429.64 406.015 431.098 409.759C432.216 412.628 433.998 415.23 434.836 418.194C436.407 423.77 434.419 429.831 435.694 435.482C436.774 440.27 440.116 444.382 440.821 449.234C441.812 456.059 437.432 463.181 439.732 469.682C440.873 472.908 443.547 475.489 444.321 478.823C444.921 481.41 444.298 484.155 444.843 486.754C445.721 490.941 453.735 494.154 458.003 493.868" fill="#FF0000"/>
<path d="M427.594 356.287C427.636 356.402 427.666 356.521 427.682 356.642C427.733 356.91 427.8 357.257 427.882 357.694C428.063 358.614 428.268 359.994 428.624 361.735C428.998 363.47 429.955 365.453 430.74 367.876C431.561 370.283 432.379 373.066 433.107 376.183C433.835 379.3 434.471 382.751 435.121 386.449C435.797 390.139 436.461 394.109 438.312 397.902C439.174 399.82 440.154 401.764 440.904 403.872C441.636 406.033 442.093 408.277 442.265 410.552C442.637 415.275 443.26 419.974 444.13 424.631C446.03 434.193 447.83 443.301 449.474 451.59C451.174 459.859 452.702 467.308 453.99 473.58L456.985 488.415L457.77 492.454C457.848 492.891 457.911 493.239 457.959 493.508C457.987 493.627 458.002 493.749 458.003 493.871C457.957 493.758 457.924 493.64 457.903 493.52C457.84 493.254 457.758 492.911 457.656 492.478L456.762 488.461L453.583 473.661L448.943 451.697L443.55 424.73C442.677 420.059 442.056 415.344 441.69 410.606C441.527 408.376 441.084 406.175 440.373 404.055C439.644 401.991 438.679 400.055 437.816 398.12C435.955 394.27 435.289 390.206 434.64 386.529C434.011 382.824 433.412 379.381 432.702 376.272C431.992 373.163 431.217 370.382 430.429 367.972C429.681 365.557 428.752 363.556 428.402 361.772C428.077 360.002 427.912 358.632 427.768 357.7C427.708 357.26 427.661 356.91 427.625 356.639C427.602 356.523 427.592 356.405 427.594 356.287Z" fill="#354A53"/>
<path d="M190.448 53.4768C189.904 53.6188 189.439 53.971 189.155 54.4559C188.87 54.9409 188.79 55.5189 188.932 56.0628L192.452 70.2088C192.522 70.4781 192.539 70.7586 192.501 71.0343C192.463 71.31 192.371 71.5755 192.23 71.8156C192.09 72.0558 191.903 72.2658 191.681 72.4339C191.459 72.6019 191.206 72.7245 190.937 72.7948L145.617 84.0718C145.346 84.136 145.065 84.1463 144.791 84.1019C144.516 84.0576 144.252 83.9595 144.016 83.8133C143.779 83.6672 143.573 83.4758 143.41 83.25C143.247 83.0243 143.13 82.7687 143.066 82.4978L139.546 68.3508C139.482 68.0799 139.365 67.8243 139.202 67.5986C139.039 67.3729 138.834 67.1815 138.597 67.0353C138.36 66.8891 138.096 66.7911 137.822 66.7467C137.547 66.7024 137.266 66.7126 136.995 66.7768L132.617 67.8658C131.955 68.0388 131.388 68.4678 131.042 69.0586C130.696 69.6493 130.598 70.3533 130.771 71.0158L136.109 92.4538C136.239 93.0008 136.58 93.4738 137.059 93.769C137.537 94.0641 138.113 94.1573 138.66 94.0278L145.285 92.3798L145.885 94.8008C146.004 95.3237 146.318 95.7813 146.763 96.0799C147.209 96.3785 147.751 96.4955 148.28 96.4068C148.812 96.2938 149.276 95.9743 149.572 95.5186C149.868 95.0629 149.971 94.5083 149.858 93.9768C149.851 93.9458 149.844 93.9148 149.836 93.8848L149.218 91.4008L191.195 80.9558L191.795 83.3768C191.914 83.8997 192.228 84.3573 192.673 84.6559C193.119 84.9545 193.661 85.0715 194.19 84.9828C194.453 84.9268 194.703 84.8194 194.925 84.6668C195.146 84.5142 195.336 84.3193 195.482 84.0935C195.629 83.8676 195.729 83.6151 195.778 83.3504C195.826 83.0857 195.823 82.814 195.766 82.5508C195.76 82.5208 195.752 82.4898 195.744 82.4598L195.126 79.9758L201.752 78.3268C202.022 78.2566 202.274 78.1341 202.496 77.9661C202.718 77.7981 202.905 77.5881 203.046 77.3479C203.187 77.1078 203.279 76.8422 203.317 76.5665C203.355 76.2907 203.338 76.0102 203.268 75.7408L197.934 54.3028C197.776 53.6367 197.36 53.0605 196.778 52.701C196.195 52.3415 195.493 52.2282 194.827 52.3858L190.448 53.4768Z" fill="#F6F6F6"/>
<path d="M143.581 67.7699L144.481 71.4039L163.271 66.7289L158.822 48.8499C157.391 48.038 155.703 47.8064 154.106 48.2029L140.887 51.4929C139.23 51.9102 137.806 52.9663 136.925 54.4304C136.044 55.8946 135.779 57.6477 136.187 59.3069L137.047 62.7619C138.541 62.7371 140 63.2187 141.186 64.1284C142.371 65.038 143.214 66.3222 143.577 67.7719L143.581 67.7699Z" fill="#F6F6F6"/>
<path d="M164.255 70.6641L145.465 75.3391L146.44 79.2561L165.24 74.5791C165.226 74.5361 165.211 74.4901 165.199 74.4441L164.255 70.6641Z" fill="#F6F6F6"/>
<path d="M185.094 57.4352C184.735 55.9842 184.878 54.4544 185.499 53.0949C186.12 51.7354 187.184 50.6263 188.516 49.9482L187.656 46.4942C187.239 44.8375 186.183 43.4134 184.719 42.5327C183.255 41.6521 181.502 41.3866 179.843 41.7942L166.622 45.0842C165.025 45.4818 163.642 46.4773 162.758 47.8652L167.207 65.7442L185.995 61.0692L185.094 57.4352Z" fill="#F6F6F6"/>
<path d="M187.221 65.9838L186.979 65.0098L168.191 69.6848L169.131 73.4658C169.143 73.5118 169.15 73.5578 169.158 73.6048L187.958 68.9278L187.221 65.9838Z" fill="#F6F6F6"/>
<path d="M357.152 494.617L207.61 494.528C198.973 494.523 190.691 491.088 184.586 484.978C178.481 478.869 175.053 470.585 175.055 461.948L175.128 87.0476C175.128 82.7686 175.971 78.5315 177.609 74.5785C179.247 70.6254 181.648 67.0338 184.675 64.0089C187.701 60.9841 191.294 58.5851 195.248 56.9492C199.202 55.3132 203.44 54.4724 207.719 54.4746L357.263 54.5626C365.9 54.5676 374.181 58.0027 380.286 64.1124C386.392 70.2222 389.82 78.5064 389.819 87.1436L389.745 462.049C389.744 466.327 388.901 470.563 387.262 474.515C385.624 478.468 383.224 482.059 380.198 485.083C377.171 488.107 373.579 490.506 369.626 492.142C365.673 493.777 361.436 494.618 357.158 494.617H357.152Z" fill="#354A53"/>
<path d="M357.105 67.8234L328.111 67.8064C327.166 67.827 326.234 68.0337 325.368 68.4146C324.503 68.7954 323.721 69.343 323.067 70.0261C322.413 70.7092 321.9 71.5143 321.558 72.3956C321.215 73.2769 321.049 74.2171 321.07 75.1624V80.4214C321.091 81.3667 320.925 82.3069 320.582 83.1881C320.24 84.0694 319.727 84.8746 319.073 85.5577C318.419 86.2408 317.637 86.7884 316.772 87.1692C315.906 87.5501 314.974 87.7567 314.029 87.7774L257.514 87.7434C255.604 87.6988 253.791 86.8983 252.471 85.5176C251.151 84.1369 250.433 82.2889 250.475 80.3794V75.1204C250.516 73.2108 249.798 71.3628 248.478 69.9821C247.158 68.6015 245.344 67.801 243.435 67.7564L233.235 67.7494L207.859 67.7344C204.862 67.7328 201.895 68.3216 199.126 69.4672C196.357 70.6127 193.84 72.2926 191.721 74.4108C189.601 76.529 187.919 79.0441 186.772 81.8123C185.624 84.5805 185.033 87.5477 185.033 90.5444L184.961 456.477C184.959 462.527 187.36 468.329 191.636 472.608C195.912 476.888 201.712 479.294 207.761 479.297L357.004 479.384C360 479.386 362.968 478.797 365.737 477.652C368.506 476.506 371.022 474.827 373.141 472.709C375.261 470.591 376.943 468.076 378.09 465.308C379.238 462.54 379.829 459.573 379.83 456.576L379.902 90.6404C379.902 84.5917 377.501 78.7904 373.226 74.5118C368.95 70.2331 363.151 67.8274 357.102 67.8234H357.105Z" fill="#F6F6F6"/>
<path d="M361.516 104.772C361.516 104.872 357.746 104.981 353.096 105.019C348.446 105.057 344.673 105.009 344.672 104.911C344.671 104.813 348.441 104.703 353.093 104.664C357.745 104.625 361.516 104.675 361.516 104.772Z" fill="#354A53"/>
<path d="M361.551 109.082C361.551 109.182 357.781 109.29 353.131 109.329C348.481 109.368 344.708 109.319 344.707 109.221C344.706 109.123 348.476 109.012 353.128 108.974C357.78 108.936 361.55 108.984 361.551 109.082Z" fill="#354A53"/>
<path d="M361.586 113.391C361.586 113.491 357.816 113.6 353.166 113.638C348.516 113.676 344.743 113.628 344.742 113.53C344.741 113.432 348.511 113.322 353.163 113.283C357.815 113.244 361.585 113.293 361.586 113.391Z" fill="#354A53"/>
<path d="M208.313 118.311C208.429 118.296 208.546 118.288 208.663 118.288L209.637 118.256L213.237 118.17L213.137 118.27C213.123 117.47 213.109 116.601 213.095 115.662C213.095 115.177 213.053 114.72 213.1 114.162C213.156 113.873 213.304 113.609 213.521 113.409C213.738 113.21 214.013 113.085 214.307 113.053C214.887 113.042 215.397 113.015 216.025 113.044C216.355 113.097 216.655 113.265 216.872 113.52C217.088 113.775 217.206 114.099 217.205 114.433C217.219 115.649 217.233 116.919 217.248 118.233L217.081 118.068L221.618 118.022L221.445 118.197C221.429 116.37 221.412 114.48 221.395 112.544C221.39 112.061 221.386 111.582 221.383 111.105C221.362 110.89 221.294 110.683 221.183 110.498C221.073 110.313 220.923 110.154 220.745 110.033L218.762 108.078L216.848 106.192L215.921 105.276C215.602 104.969 215.352 104.651 214.983 104.576C214.805 104.529 214.62 104.523 214.439 104.557C214.259 104.592 214.089 104.667 213.942 104.776C213.667 105.008 213.374 105.337 213.098 105.606L211.47 107.248C210.446 108.312 209.379 109.283 208.604 110.202C208.376 110.735 208.298 111.32 208.376 111.895V113.495C208.37 114.475 208.364 115.333 208.36 116.07C208.352 116.728 208.346 117.27 208.342 117.717C208.345 117.915 208.337 118.114 208.32 118.311C208.298 118.13 208.287 117.948 208.289 117.765C208.277 117.327 208.261 116.792 208.244 116.144C208.227 115.403 208.207 114.536 208.185 113.544C208.175 113.031 208.165 112.487 208.155 111.914C208.155 111.624 208.146 111.327 208.141 111.022C208.139 110.689 208.225 110.361 208.392 110.072C209.231 109.044 210.233 108.134 211.265 107.039L212.88 105.384C213.171 105.099 213.409 104.815 213.756 104.516C213.941 104.377 214.156 104.281 214.384 104.236C214.611 104.191 214.846 104.198 215.071 104.257C215.499 104.41 215.876 104.68 216.16 105.036L217.092 105.948L219.012 107.83L220.999 109.781C221.185 109.947 221.355 110.131 221.506 110.33C221.654 110.558 221.736 110.823 221.744 111.095C221.748 111.574 221.752 112.057 221.757 112.542C221.772 114.478 221.786 116.368 221.8 118.195V118.369H221.626L217.089 118.398H216.923V118.233C216.916 116.915 216.909 115.645 216.903 114.433C216.908 114.17 216.818 113.914 216.649 113.712C216.481 113.51 216.245 113.376 215.986 113.333C215.464 113.305 214.849 113.323 214.341 113.333C214.105 113.357 213.883 113.455 213.707 113.614C213.53 113.772 213.41 113.983 213.362 114.215C213.319 114.671 213.352 115.203 213.342 115.665V118.373H213.242L209.585 118.347L208.633 118.331C208.526 118.335 208.419 118.329 208.313 118.313V118.311Z" fill="#354A53"/>
<path d="M346.162 141.088H216.012C208.021 141.088 201.543 147.566 201.543 155.557C201.543 163.548 208.021 170.026 216.012 170.026H346.162C354.153 170.026 360.631 163.548 360.631 155.557C360.631 147.566 354.153 141.088 346.162 141.088Z" fill="#D6D5D5"/>
<path d="M348.427 170.026C348.427 170.026 348.737 169.99 349.341 169.95C350.231 169.87 351.111 169.699 351.966 169.44C353.349 168.995 354.643 168.314 355.793 167.427C357.365 166.218 358.612 164.638 359.421 162.827C359.909 161.758 360.232 160.621 360.378 159.455C360.497 158.159 360.534 156.856 360.488 155.555C360.54 154.139 360.477 152.721 360.3 151.315C359.891 148.894 358.751 146.656 357.034 144.901C355.317 143.146 353.105 141.957 350.693 141.495C348.859 141.272 347.009 141.202 345.162 141.286L339.283 141.296L213.753 141.383C210.769 141.388 207.895 142.511 205.698 144.531C203.501 146.551 202.141 149.322 201.887 152.295C201.787 153.737 201.859 155.26 201.836 156.73C201.761 158.178 201.913 159.629 202.287 161.03C203.07 163.795 204.819 166.187 207.216 167.772C208.389 168.552 209.696 169.108 211.07 169.415C212.448 169.687 213.853 169.793 215.256 169.73H223.682L239.995 169.74L296.43 169.804L334.477 169.898L344.821 169.954L347.511 169.983C348.117 169.993 348.428 170.013 348.428 170.013C348.428 170.013 348.118 170.034 347.511 170.043L344.821 170.072L334.477 170.128L296.43 170.222L239.995 170.285L223.682 170.295H215.256C213.81 170.359 212.361 170.25 210.941 169.969C209.499 169.648 208.129 169.065 206.898 168.248C204.387 166.591 202.552 164.089 201.727 161.195C201.338 159.741 201.178 158.236 201.252 156.733C201.275 155.242 201.199 153.788 201.303 152.249C201.568 149.127 202.994 146.217 205.299 144.095C207.605 141.973 210.623 140.794 213.756 140.789L339.286 140.876L345.165 140.886C347.035 140.809 348.908 140.888 350.765 141.124C353.245 141.607 355.516 142.838 357.275 144.651C359.034 146.463 360.196 148.771 360.604 151.264C360.776 152.687 360.832 154.122 360.771 155.554C360.809 156.866 360.763 158.18 360.633 159.486C360.476 160.674 360.139 161.832 359.633 162.919C358.797 164.754 357.514 166.351 355.902 167.563C354.729 168.449 353.409 169.122 352.002 169.551C351.136 169.8 350.246 169.953 349.346 170.008C348.738 170.031 348.427 170.026 348.427 170.026Z" fill="#354A53"/>
<path d="M350.884 154.868C350.827 154.868 350.833 154.401 350.608 153.616C350.287 152.514 349.612 151.548 348.687 150.868C347.946 150.316 347.065 149.981 346.144 149.9C345.223 149.819 344.297 149.996 343.471 150.411C342.645 150.826 341.95 151.463 341.464 152.25C340.979 153.037 340.722 153.943 340.722 154.868C340.722 155.793 340.979 156.699 341.464 157.486C341.95 158.273 342.645 158.91 343.471 159.325C344.297 159.74 345.223 159.917 346.144 159.836C347.065 159.755 347.946 159.42 348.687 158.868C349.612 158.188 350.287 157.222 350.608 156.12C350.833 155.335 350.827 154.866 350.884 154.868C350.904 154.868 350.919 154.983 350.926 155.206C350.935 155.532 350.903 155.858 350.831 156.176C350.576 157.375 349.906 158.446 348.94 159.201C348.219 159.768 347.366 160.143 346.461 160.291C345.555 160.439 344.627 160.355 343.763 160.048C342.695 159.666 341.771 158.964 341.117 158.037C340.464 157.109 340.113 156.003 340.113 154.869C340.113 153.734 340.464 152.628 341.117 151.7C341.771 150.773 342.695 150.071 343.763 149.689C344.627 149.382 345.555 149.298 346.461 149.446C347.366 149.594 348.219 149.969 348.94 150.536C349.907 151.291 350.576 152.362 350.831 153.561C350.903 153.879 350.935 154.205 350.926 154.531C350.919 154.753 350.904 154.868 350.884 154.868Z" fill="#354A53"/>
<path d="M353.77 163.906C351.925 162.493 350.335 160.774 349.07 158.824C350.916 160.238 352.505 161.956 353.77 163.906Z" fill="#354A53"/>
<path d="M243.076 193.838H208.254V228.66H243.076V193.838Z" fill="#FF0000"/>
<path d="M310.062 197.585C310.062 197.748 298.418 197.885 284.062 197.885C269.706 197.885 258.055 197.752 258.055 197.585C258.055 197.418 269.697 197.285 284.062 197.285C298.427 197.285 310.062 197.426 310.062 197.585Z" fill="#FF0000"/>
<path d="M351.533 208.259C351.533 208.422 330.605 208.559 304.794 208.559C278.983 208.559 258.051 208.426 258.051 208.259C258.051 208.092 278.975 207.959 304.794 207.959C330.613 207.959 351.533 208.096 351.533 208.259Z" fill="#354A53"/>
<path d="M350.433 215.884C350.433 216.048 329.751 216.184 304.244 216.184C278.737 216.184 258.051 216.052 258.051 215.884C258.051 215.716 278.729 215.584 304.244 215.584C329.759 215.584 350.433 215.723 350.433 215.884Z" fill="#354A53"/>
<path d="M312.596 223.154C312.596 223.317 300.385 223.454 285.325 223.454C270.265 223.454 258.051 223.321 258.051 223.154C258.051 222.987 270.259 222.854 285.325 222.854C300.391 222.854 312.596 222.991 312.596 223.154Z" fill="#354A53"/>
<path d="M243.076 251.854H208.254V286.676H243.076V251.854Z" fill="#FF0000"/>
<path d="M310.062 255.599C310.062 255.762 298.418 255.899 284.062 255.899C269.706 255.899 258.055 255.766 258.055 255.599C258.055 255.432 269.697 255.299 284.062 255.299C298.427 255.299 310.062 255.436 310.062 255.599Z" fill="#FF0000"/>
<path d="M351.533 266.273C351.533 266.437 330.605 266.573 304.794 266.573C278.983 266.573 258.051 266.44 258.051 266.273C258.051 266.106 278.975 265.973 304.794 265.973C330.613 265.973 351.533 266.11 351.533 266.273Z" fill="#354A53"/>
<path d="M350.433 273.898C350.433 274.062 329.751 274.198 304.244 274.198C278.737 274.198 258.051 274.065 258.051 273.898C258.051 273.731 278.729 273.598 304.244 273.598C329.759 273.598 350.433 273.735 350.433 273.898Z" fill="#354A53"/>
<path d="M312.596 281.167C312.596 281.33 300.385 281.467 285.325 281.467C270.265 281.467 258.051 281.334 258.051 281.167C258.051 281 270.259 280.867 285.325 280.867C300.391 280.867 312.596 281 312.596 281.167Z" fill="#354A53"/>
<path d="M243.076 309.867H208.254V344.689H243.076V309.867Z" fill="#FF0000"/>
<path d="M310.062 313.614C310.062 313.778 298.418 313.914 284.062 313.914C269.706 313.914 258.055 313.782 258.055 313.614C258.055 313.446 269.697 313.314 284.062 313.314C298.427 313.314 310.062 313.451 310.062 313.614Z" fill="#FF0000"/>
<path d="M351.533 324.288C351.533 324.452 330.605 324.588 304.794 324.588C278.983 324.588 258.051 324.456 258.051 324.288C258.051 324.12 278.975 323.988 304.794 323.988C330.613 323.988 351.533 324.124 351.533 324.288Z" fill="#354A53"/>
<path d="M350.433 331.911C350.433 332.074 329.751 332.211 304.244 332.211C278.737 332.211 258.051 332.078 258.051 331.911C258.051 331.744 278.729 331.611 304.244 331.611C329.759 331.611 350.433 331.748 350.433 331.911Z" fill="#354A53"/>
<path d="M312.596 339.183C312.596 339.346 300.385 339.483 285.325 339.483C270.265 339.483 258.051 339.35 258.051 339.183C258.051 339.016 270.259 338.883 285.325 338.883C300.391 338.883 312.596 339.02 312.596 339.183Z" fill="#354A53"/>
<path d="M243.076 367.883H208.254V402.705H243.076V367.883Z" fill="#FF0000"/>
<path d="M310.062 371.63C310.062 371.793 298.418 371.93 284.062 371.93C269.706 371.93 258.055 371.797 258.055 371.63C258.055 371.463 269.697 371.33 284.062 371.33C298.427 371.33 310.062 371.467 310.062 371.63Z" fill="#344952"/>
<path d="M351.533 382.306C351.533 382.47 330.605 382.606 304.794 382.606C278.983 382.606 258.051 382.473 258.051 382.306C258.051 382.139 278.975 382.006 304.794 382.006C330.613 382.006 351.533 382.141 351.533 382.306Z" fill="#354A53"/>
<path d="M350.433 389.929C350.433 390.093 329.751 390.229 304.244 390.229C278.737 390.229 258.051 390.097 258.051 389.929C258.051 389.761 278.729 389.629 304.244 389.629C329.759 389.629 350.433 389.766 350.433 389.929Z" fill="#354A53"/>
<path d="M312.596 397.198C312.596 397.362 300.385 397.498 285.325 397.498C270.265 397.498 258.051 397.365 258.051 397.198C258.051 397.031 270.259 396.898 285.325 396.898C300.391 396.898 312.596 397.035 312.596 397.198Z" fill="#354A53"/>
<path d="M243.076 425.898H208.254V460.72H243.076V425.898Z" fill="#354A53"/>
<path d="M310.062 429.644C310.062 429.808 298.418 429.944 284.062 429.944C269.706 429.944 258.055 429.811 258.055 429.644C258.055 429.477 269.697 429.344 284.062 429.344C298.427 429.344 310.062 429.481 310.062 429.644Z" fill="#354A53"/>
<path d="M351.533 440.318C351.533 440.482 330.605 440.618 304.794 440.618C278.983 440.618 258.051 440.485 258.051 440.318C258.051 440.151 278.975 440.018 304.794 440.018C330.613 440.018 351.533 440.155 351.533 440.318Z" fill="#FF0000"/>
<path d="M350.433 447.943C350.433 448.107 329.751 448.243 304.244 448.243C278.737 448.243 258.051 448.11 258.051 447.943C258.051 447.776 278.729 447.643 304.244 447.643C329.759 447.643 350.433 447.78 350.433 447.943Z" fill="#FF0000"/>
<path d="M312.596 455.212C312.596 455.376 300.385 455.512 285.325 455.512C270.265 455.512 258.051 455.379 258.051 455.212C258.051 455.045 270.259 454.912 285.325 454.912C300.391 454.912 312.596 455.049 312.596 455.212Z" fill="#FF0000"/>
<g opacity="0.3">
<path d="M243.076 367.883H208.254V402.705H243.076V367.883Z" fill="#354A53"/>
</g>
<path d="M243.076 251.854H208.254V286.676H243.076V251.854Z" fill="#354A53"/>
<path d="M68.2696 132.475L64.4126 133.116C61.7498 133.553 59.2922 134.818 57.3876 136.73L57.2656 136.851L72.2656 151.851L72.3866 151.73C74.298 149.824 75.562 147.367 75.9996 144.704L76.6406 140.847L68.2696 132.475Z" fill="#F6F6F6"/>
<path d="M79.631 134.506L74.611 129.486C74.1749 129.051 73.584 128.807 72.968 128.807C72.3519 128.807 71.761 129.051 71.325 129.486L70.043 130.767L78.351 139.074L79.632 137.792C80.0671 137.356 80.3115 136.765 80.3115 136.149C80.3115 135.533 80.0661 134.942 79.631 134.506Z" fill="#F6F6F6"/>
<path d="M44.3059 149.863C44.1172 150.019 43.9365 150.183 43.7639 150.355L40.4079 153.709C39.6189 154.499 39.1758 155.569 39.1758 156.685C39.1758 157.801 39.6189 158.871 40.4079 159.66L49.4549 168.707C50.2444 169.496 51.3146 169.939 52.4304 169.939C53.5461 169.939 54.6163 169.496 55.4059 168.707L58.7619 165.351C58.9339 165.178 59.0979 164.997 59.2539 164.809L44.3059 149.863Z" fill="#F6F6F6"/>
<path d="M55.7652 138.689C55.2558 139.543 54.9162 140.487 54.7652 141.469C54.5963 142.581 54.0751 143.609 53.2782 144.402L51.2702 146.411C50.7007 146.979 50.0097 147.411 49.2492 147.672L46.6682 148.559C46.5956 148.584 46.5226 148.611 46.4492 148.64L60.4802 162.66L60.5612 162.442L61.4472 159.861C61.7095 159.101 62.141 158.41 62.7092 157.84L64.7172 155.831C65.5106 155.035 66.5387 154.514 67.6502 154.345C68.6331 154.195 69.5775 153.855 70.4312 153.345L55.7652 138.689Z" fill="#F6F6F6"/>
<path d="M444.962 185.435L442.399 177.156L437.965 178.529L440.914 188.052C438.406 190.222 436.573 193.065 435.631 196.244L435.1 198.044L433.646 196.862C431.073 194.771 427.954 193.462 424.659 193.089L421.71 183.565L417.273 184.935L419.836 193.214C419.071 193.342 418.315 193.521 417.573 193.75L420.592 203.501C420.952 204.666 421.538 205.748 422.317 206.686C423.095 207.625 424.051 208.4 425.129 208.969C426.207 209.538 427.387 209.889 428.601 210.002C429.815 210.115 431.039 209.987 432.203 209.627L444.026 205.966C446.378 205.238 448.344 203.606 449.493 201.428C450.641 199.251 450.877 196.706 450.149 194.354L447.129 184.603C446.389 184.832 445.665 185.11 444.962 185.435Z" fill="#F6F6F6"/>
<path d="M449.84 209.025L429.15 215.432L416.25 262.182L416.297 262.333C441.482 262.14 466.053 254.532 486.94 240.458L486.893 240.308L449.84 209.025Z" fill="#F6F6F6"/>
<path d="M103.129 473.206C108.342 473.206 112.567 468.981 112.567 463.768C112.567 458.556 108.342 454.33 103.129 454.33C97.9169 454.33 93.6914 458.556 93.6914 463.768C93.6914 468.981 97.9169 473.206 103.129 473.206Z" fill="#F6F6F6"/>
<path d="M142.868 473.206C148.08 473.206 152.306 468.981 152.306 463.768C152.306 458.556 148.08 454.33 142.868 454.33C137.655 454.33 133.43 458.556 133.43 463.768C133.43 468.981 137.655 473.206 142.868 473.206Z" fill="#F6F6F6"/>
<path d="M95.6898 401.911L92.4448 392.078C91.8141 390.182 90.6088 388.528 88.9962 387.348C87.3835 386.167 85.4434 385.517 83.4448 385.488H76.4318C76.1571 385.488 75.8851 385.542 75.6313 385.648C75.3775 385.753 75.1468 385.907 74.9526 386.101C74.7583 386.295 74.6042 386.526 74.4991 386.78C74.394 387.034 74.3398 387.306 74.3398 387.58C74.3398 387.855 74.394 388.127 74.4991 388.381C74.6042 388.635 74.7583 388.865 74.9526 389.06C75.1468 389.254 75.3775 389.408 75.6313 389.513C75.8851 389.618 76.1571 389.672 76.4318 389.672H83.4448C84.5562 389.696 85.6336 390.059 86.532 390.714C87.4304 391.369 88.1067 392.283 88.4698 393.333L101.655 433.396L100.713 435.802C100.146 437.282 99.9274 438.872 100.073 440.45C100.218 442.027 100.723 443.551 101.55 444.902C102.409 446.212 103.57 447.295 104.937 448.06C106.304 448.825 107.835 449.248 109.4 449.295H150.225C150.5 449.295 150.772 449.241 151.025 449.136C151.279 449.031 151.51 448.877 151.704 448.683C151.898 448.488 152.052 448.258 152.158 448.004C152.263 447.75 152.317 447.478 152.317 447.203C152.317 446.929 152.263 446.657 152.158 446.403C152.052 446.149 151.898 445.918 151.704 445.724C151.51 445.53 151.279 445.376 151.025 445.271C150.772 445.165 150.5 445.111 150.225 445.111H109.402C108.533 445.083 107.685 444.838 106.934 444.4C106.183 443.962 105.554 443.343 105.102 442.6C104.615 441.868 104.314 441.029 104.223 440.154C104.132 439.28 104.254 438.396 104.579 437.579L105.839 434.439C106.026 433.938 106.061 433.392 105.939 432.87L105.311 431.302L147.911 426.908C149.424 426.774 150.855 426.165 152.002 425.17C153.149 424.175 153.953 422.843 154.3 421.364L158.7 402.85L95.6898 401.911Z" fill="#F6F6F6"/>
<path d="M213.09 158.187C212.81 158.187 212.558 158.139 212.334 158.043C212.11 157.943 211.934 157.803 211.806 157.623C211.678 157.443 211.614 157.233 211.614 156.993H212.346C212.362 157.173 212.432 157.321 212.556 157.437C212.684 157.553 212.862 157.611 213.09 157.611C213.326 157.611 213.51 157.555 213.642 157.443C213.774 157.327 213.84 157.179 213.84 156.999C213.84 156.859 213.798 156.745 213.714 156.657C213.634 156.569 213.532 156.501 213.408 156.453C213.288 156.405 213.12 156.353 212.904 156.297C212.632 156.225 212.41 156.153 212.238 156.081C212.07 156.005 211.926 155.889 211.806 155.733C211.686 155.577 211.626 155.369 211.626 155.109C211.626 154.869 211.686 154.659 211.806 154.479C211.926 154.299 212.094 154.161 212.31 154.065C212.526 153.969 212.776 153.921 213.06 153.921C213.464 153.921 213.794 154.023 214.05 154.227C214.31 154.427 214.454 154.703 214.482 155.055H213.726C213.714 154.903 213.642 154.773 213.51 154.665C213.378 154.557 213.204 154.503 212.988 154.503C212.792 154.503 212.632 154.553 212.508 154.653C212.384 154.753 212.322 154.897 212.322 155.085C212.322 155.213 212.36 155.319 212.436 155.403C212.516 155.483 212.616 155.547 212.736 155.595C212.856 155.643 213.02 155.695 213.228 155.751C213.504 155.827 213.728 155.903 213.9 155.979C214.076 156.055 214.224 156.173 214.344 156.333C214.468 156.489 214.53 156.699 214.53 156.963C214.53 157.175 214.472 157.375 214.356 157.563C214.244 157.751 214.078 157.903 213.858 158.019C213.642 158.131 213.386 158.187 213.09 158.187ZM218.367 156.411C218.367 156.535 218.359 156.647 218.343 156.747H215.817C215.837 157.011 215.935 157.223 216.111 157.383C216.287 157.543 216.503 157.623 216.759 157.623C217.127 157.623 217.387 157.469 217.539 157.161H218.277C218.177 157.465 217.995 157.715 217.731 157.911C217.471 158.103 217.147 158.199 216.759 158.199C216.443 158.199 216.159 158.129 215.907 157.989C215.659 157.845 215.463 157.645 215.319 157.389C215.179 157.129 215.109 156.829 215.109 156.489C215.109 156.149 215.177 155.851 215.313 155.595C215.453 155.335 215.647 155.135 215.895 154.995C216.147 154.855 216.435 154.785 216.759 154.785C217.071 154.785 217.349 154.853 217.593 154.989C217.837 155.125 218.027 155.317 218.163 155.565C218.299 155.809 218.367 156.091 218.367 156.411ZM217.653 156.195C217.649 155.943 217.559 155.741 217.383 155.589C217.207 155.437 216.989 155.361 216.729 155.361C216.493 155.361 216.291 155.437 216.123 155.589C215.955 155.737 215.855 155.939 215.823 156.195H217.653ZM218.812 156.477C218.812 156.145 218.88 155.851 219.016 155.595C219.156 155.339 219.344 155.141 219.58 155.001C219.82 154.857 220.084 154.785 220.372 154.785C220.632 154.785 220.858 154.837 221.05 154.941C221.246 155.041 221.402 155.167 221.518 155.319V154.839H222.208V158.145H221.518V157.653C221.402 157.809 221.244 157.939 221.044 158.043C220.844 158.147 220.616 158.199 220.36 158.199C220.076 158.199 219.816 158.127 219.58 157.983C219.344 157.835 219.156 157.631 219.016 157.371C218.88 157.107 218.812 156.809 218.812 156.477ZM221.518 156.489C221.518 156.261 221.47 156.063 221.374 155.895C221.282 155.727 221.16 155.599 221.008 155.511C220.856 155.423 220.692 155.379 220.516 155.379C220.34 155.379 220.176 155.423 220.024 155.511C219.872 155.595 219.748 155.721 219.652 155.889C219.56 156.053 219.514 156.249 219.514 156.477C219.514 156.705 219.56 156.905 219.652 157.077C219.748 157.249 219.872 157.381 220.024 157.473C220.18 157.561 220.344 157.605 220.516 157.605C220.692 157.605 220.856 157.561 221.008 157.473C221.16 157.385 221.282 157.257 221.374 157.089C221.47 156.917 221.518 156.717 221.518 156.489ZM223.79 155.319C223.89 155.151 224.022 155.021 224.186 154.929C224.354 154.833 224.552 154.785 224.78 154.785V155.493H224.606C224.338 155.493 224.134 155.561 223.994 155.697C223.858 155.833 223.79 156.069 223.79 156.405V158.145H223.106V154.839H223.79V155.319ZM225.181 156.489C225.181 156.149 225.249 155.851 225.385 155.595C225.525 155.335 225.717 155.135 225.961 154.995C226.205 154.855 226.485 154.785 226.801 154.785C227.201 154.785 227.531 154.881 227.791 155.073C228.055 155.261 228.233 155.531 228.325 155.883H227.587C227.527 155.719 227.431 155.591 227.299 155.499C227.167 155.407 227.001 155.361 226.801 155.361C226.521 155.361 226.297 155.461 226.129 155.661C225.965 155.857 225.883 156.133 225.883 156.489C225.883 156.845 225.965 157.123 226.129 157.323C226.297 157.523 226.521 157.623 226.801 157.623C227.197 157.623 227.459 157.449 227.587 157.101H228.325C228.229 157.437 228.049 157.705 227.785 157.905C227.521 158.101 227.193 158.199 226.801 158.199C226.485 158.199 226.205 158.129 225.961 157.989C225.717 157.845 225.525 157.645 225.385 157.389C225.249 157.129 225.181 156.829 225.181 156.489ZM230.717 154.785C230.969 154.785 231.193 154.839 231.389 154.947C231.589 155.055 231.745 155.215 231.857 155.427C231.973 155.639 232.031 155.895 232.031 156.195V158.145H231.353V156.297C231.353 156.001 231.279 155.775 231.131 155.619C230.983 155.459 230.781 155.379 230.525 155.379C230.269 155.379 230.065 155.459 229.913 155.619C229.765 155.775 229.691 156.001 229.691 156.297V158.145H229.007V153.705H229.691V155.223C229.807 155.083 229.953 154.975 230.129 154.899C230.309 154.823 230.505 154.785 230.717 154.785ZM237.378 155.217C237.378 155.429 237.328 155.629 237.228 155.817C237.128 156.005 236.968 156.159 236.748 156.279C236.528 156.395 236.246 156.453 235.902 156.453H235.146V158.145H234.462V153.975H235.902C236.222 153.975 236.492 154.031 236.712 154.143C236.936 154.251 237.102 154.399 237.21 154.587C237.322 154.775 237.378 154.985 237.378 155.217ZM235.902 155.895C236.162 155.895 236.356 155.837 236.484 155.721C236.612 155.601 236.676 155.433 236.676 155.217C236.676 154.761 236.418 154.533 235.902 154.533H235.146V155.895H235.902ZM238.714 155.319C238.814 155.151 238.946 155.021 239.11 154.929C239.278 154.833 239.476 154.785 239.704 154.785V155.493H239.53C239.262 155.493 239.058 155.561 238.918 155.697C238.782 155.833 238.714 156.069 238.714 156.405V158.145H238.03V154.839H238.714V155.319ZM241.767 158.199C241.455 158.199 241.173 158.129 240.921 157.989C240.669 157.845 240.471 157.645 240.327 157.389C240.183 157.129 240.111 156.829 240.111 156.489C240.111 156.153 240.185 155.855 240.333 155.595C240.481 155.335 240.683 155.135 240.939 154.995C241.195 154.855 241.481 154.785 241.797 154.785C242.113 154.785 242.399 154.855 242.655 154.995C242.911 155.135 243.113 155.335 243.261 155.595C243.409 155.855 243.483 156.153 243.483 156.489C243.483 156.825 243.407 157.123 243.255 157.383C243.103 157.643 242.895 157.845 242.631 157.989C242.371 158.129 242.083 158.199 241.767 158.199ZM241.767 157.605C241.943 157.605 242.107 157.563 242.259 157.479C242.415 157.395 242.541 157.269 242.637 157.101C242.733 156.933 242.781 156.729 242.781 156.489C242.781 156.249 242.735 156.047 242.643 155.883C242.551 155.715 242.429 155.589 242.277 155.505C242.125 155.421 241.961 155.379 241.785 155.379C241.609 155.379 241.445 155.421 241.293 155.505C241.145 155.589 241.027 155.715 240.939 155.883C240.851 156.047 240.807 156.249 240.807 156.489C240.807 156.845 240.897 157.121 241.077 157.317C241.261 157.509 241.491 157.605 241.767 157.605ZM243.931 156.477C243.931 156.145 243.999 155.851 244.135 155.595C244.275 155.339 244.463 155.141 244.699 155.001C244.939 154.857 245.205 154.785 245.497 154.785C245.713 154.785 245.925 154.833 246.133 154.929C246.345 155.021 246.513 155.145 246.637 155.301V153.705H247.327V158.145H246.637V157.647C246.525 157.807 246.369 157.939 246.169 158.043C245.973 158.147 245.747 158.199 245.491 158.199C245.203 158.199 244.939 158.127 244.699 157.983C244.463 157.835 244.275 157.631 244.135 157.371C243.999 157.107 243.931 156.809 243.931 156.477ZM246.637 156.489C246.637 156.261 246.589 156.063 246.493 155.895C246.401 155.727 246.279 155.599 246.127 155.511C245.975 155.423 245.811 155.379 245.635 155.379C245.459 155.379 245.295 155.423 245.143 155.511C244.991 155.595 244.867 155.721 244.771 155.889C244.679 156.053 244.633 156.249 244.633 156.477C244.633 156.705 244.679 156.905 244.771 157.077C244.867 157.249 244.991 157.381 245.143 157.473C245.299 157.561 245.463 157.605 245.635 157.605C245.811 157.605 245.975 157.561 246.127 157.473C246.279 157.385 246.401 157.257 246.493 157.089C246.589 156.917 246.637 156.717 246.637 156.489ZM251.219 154.839V158.145H250.535V157.755C250.427 157.891 250.285 157.999 250.109 158.079C249.937 158.155 249.753 158.193 249.557 158.193C249.297 158.193 249.063 158.139 248.855 158.031C248.651 157.923 248.489 157.763 248.369 157.551C248.253 157.339 248.195 157.083 248.195 156.783V154.839H248.873V156.681C248.873 156.977 248.947 157.205 249.095 157.365C249.243 157.521 249.445 157.599 249.701 157.599C249.957 157.599 250.159 157.521 250.307 157.365C250.459 157.205 250.535 156.977 250.535 156.681V154.839H251.219ZM251.894 156.489C251.894 156.149 251.962 155.851 252.098 155.595C252.238 155.335 252.43 155.135 252.674 154.995C252.918 154.855 253.198 154.785 253.514 154.785C253.914 154.785 254.244 154.881 254.504 155.073C254.768 155.261 254.946 155.531 255.038 155.883H254.3C254.24 155.719 254.144 155.591 254.012 155.499C253.88 155.407 253.714 155.361 253.514 155.361C253.234 155.361 253.01 155.461 252.842 155.661C252.678 155.857 252.596 156.133 252.596 156.489C252.596 156.845 252.678 157.123 252.842 157.323C253.01 157.523 253.234 157.623 253.514 157.623C253.91 157.623 254.172 157.449 254.3 157.101H255.038C254.942 157.437 254.762 157.705 254.498 157.905C254.234 158.101 253.906 158.199 253.514 158.199C253.198 158.199 252.918 158.129 252.674 157.989C252.43 157.845 252.238 157.645 252.098 157.389C251.962 157.129 251.894 156.829 251.894 156.489ZM256.518 155.397V157.227C256.518 157.351 256.546 157.441 256.602 157.497C256.662 157.549 256.762 157.575 256.902 157.575H257.322V158.145H256.782C256.474 158.145 256.238 158.073 256.074 157.929C255.91 157.785 255.828 157.551 255.828 157.227V155.397H255.438V154.839H255.828V154.017H256.518V154.839H257.322V155.397H256.518ZM259.152 158.199C258.892 158.199 258.658 158.153 258.45 158.061C258.246 157.965 258.084 157.837 257.964 157.677C257.844 157.513 257.78 157.331 257.772 157.131H258.48C258.492 157.271 258.558 157.389 258.678 157.485C258.802 157.577 258.956 157.623 259.14 157.623C259.332 157.623 259.48 157.587 259.584 157.515C259.692 157.439 259.746 157.343 259.746 157.227C259.746 157.103 259.686 157.011 259.566 156.951C259.45 156.891 259.264 156.825 259.008 156.753C258.76 156.685 258.558 156.619 258.402 156.555C258.246 156.491 258.11 156.393 257.994 156.261C257.882 156.129 257.826 155.955 257.826 155.739C257.826 155.563 257.878 155.403 257.982 155.259C258.086 155.111 258.234 154.995 258.426 154.911C258.622 154.827 258.846 154.785 259.098 154.785C259.474 154.785 259.776 154.881 260.004 155.073C260.236 155.261 260.36 155.519 260.376 155.847H259.692C259.68 155.699 259.62 155.581 259.512 155.493C259.404 155.405 259.258 155.361 259.074 155.361C258.894 155.361 258.756 155.395 258.66 155.463C258.564 155.531 258.516 155.621 258.516 155.733C258.516 155.821 258.548 155.895 258.612 155.955C258.676 156.015 258.754 156.063 258.846 156.099C258.938 156.131 259.074 156.173 259.254 156.225C259.494 156.289 259.69 156.355 259.842 156.423C259.998 156.487 260.132 156.583 260.244 156.711C260.356 156.839 260.414 157.009 260.418 157.221C260.418 157.409 260.366 157.577 260.262 157.725C260.158 157.873 260.01 157.989 259.818 158.073C259.63 158.157 259.408 158.199 259.152 158.199Z" fill="#181818"/>
</g>
<defs>
<clipPath id="clip0_86_727">
<rect width="512.001" height="512" fill="white" transform="translate(0.5 0.5)"/>
</clipPath>
</defs>
</svg>
