<svg width="21" height="21" viewBox="0 0 21 21" fill="none" xmlns="http://www.w3.org/2000/svg">
<g clip-path="url(#clip0_86_3244)">
<path d="M10.568 1.625C9.75454 1.62434 8.94893 1.78408 8.19727 2.09508C7.4456 2.40607 6.76263 2.86222 6.18742 3.43742C5.61222 4.01263 5.15607 4.6956 4.84508 5.44727C4.53408 6.19893 4.37434 7.00454 4.375 7.818C4.375 12.463 10.568 19.318 10.568 19.318C10.568 19.318 16.761 12.462 16.761 7.818C16.7615 7.00458 16.6017 6.19903 16.2907 5.44742C15.9796 4.69581 15.5235 4.01289 14.9483 3.43772C14.3731 2.86254 13.6902 2.40639 12.9386 2.09534C12.187 1.7843 11.3814 1.62448 10.568 1.625ZM10.568 10.025C10.1301 10.026 9.70173 9.89697 9.3372 9.6543C8.97268 9.41162 8.68838 9.0662 8.52034 8.66181C8.3523 8.25742 8.30808 7.81224 8.39327 7.38269C8.47846 6.95314 8.68923 6.55854 8.99889 6.24889C9.30854 5.93923 9.70314 5.72846 10.1327 5.64327C10.5622 5.55808 11.0074 5.6023 11.4118 5.77034C11.8162 5.93838 12.1616 6.22268 12.4043 6.5872C12.647 6.95173 12.776 7.38009 12.775 7.818C12.7737 8.40293 12.5407 8.96352 12.1271 9.37713C11.7135 9.79073 11.1529 10.0237 10.568 10.025Z" stroke="#FF0000" stroke-width="0.95" stroke-linecap="round" stroke-linejoin="round"/>
</g>
<defs>
<clipPath id="clip0_86_3244">
<rect width="20" height="20" fill="white" transform="translate(0.5 0.5)"/>
</clipPath>
</defs>
</svg>
