<svg width="95" height="100" viewBox="0 0 95 100" fill="none" xmlns="http://www.w3.org/2000/svg">
<g clip-path="url(#clip0_86_3247)">
<path d="M94.5 52.5L47.5 5.5L0.500026 52.5L47.5 99.4999L94.5 52.5Z" fill="white"/>
<path d="M40.4858 8.554C41.2419 9.07828 41.8872 9.74646 42.3848 10.5203C42.8824 11.2942 43.2225 12.1586 43.3858 13.064C43.5844 14.6732 43.53 16.3036 43.2248 17.896C43.3248 17.766 43.4358 17.635 43.5438 17.496C46.3918 14.022 50.5508 10.665 55.1378 10.035C55.9674 9.91586 56.8126 9.96835 57.6211 10.1892C58.4295 10.4101 59.184 10.7946 59.8378 11.319C61.3091 12.5437 62.2594 14.2823 62.4958 16.182C62.2158 20.323 58.6578 24.339 55.7958 27.074C60.5188 26.344 63.4748 23.643 66.2658 19.987C67.3532 18.5648 68.5373 17.2193 69.8098 15.96C69.9528 15.81 70.0948 15.66 70.2428 15.507C70.6148 15.154 70.6148 15.154 70.9368 15.154L71.0978 14.671C71.4978 14.416 71.8788 14.193 72.2978 13.977C72.4188 13.913 72.5408 13.85 72.6668 13.784C73.526 13.3489 74.4153 12.9759 75.3278 12.668L75.6608 12.554C77.4162 12.0476 79.2411 11.8242 81.0668 11.892C81.3968 11.892 81.7268 11.892 82.0578 11.892C83.6831 11.8525 85.3064 12.0297 86.8848 12.419V12.9C86.1515 13.2333 85.4165 13.569 84.6798 13.907L84.3418 14.062C82.7292 14.7953 81.1038 15.4923 79.4658 16.153C75.1193 17.9393 71.0107 20.2569 67.2338 23.053L66.4418 23.63C64.8598 24.782 64.8598 24.782 63.3418 26.014C60.2118 28.543 55.5268 29.364 51.6138 29.496V29.174C51.8191 28.9978 52.0341 28.8332 52.2578 28.681C55.1666 26.2787 57.1113 22.9077 57.7348 19.187C57.9493 18.0894 57.7787 16.9514 57.2518 15.965C55.9252 15.0838 54.3061 14.7578 52.7418 15.057C49.9248 15.577 47.7548 17.323 45.7158 19.227C40.7398 23.858 40.7398 23.858 39.0508 23.858C39.2782 22.7814 39.5789 21.7216 39.9508 20.686C40.6108 18.786 41.0928 16.935 40.2248 15.014C39.8196 14.4215 39.2124 13.997 38.5168 13.82C37.9213 13.6909 37.3054 13.6864 36.7081 13.8069C36.1107 13.9274 35.5448 14.1702 35.0458 14.52C34.235 15.3005 33.7513 16.3601 33.6928 17.484C33.645 18.3217 33.7657 19.1604 34.0479 19.9506C34.3302 20.7407 34.7681 21.4662 35.3358 22.084C36.2178 22.9375 37.2353 23.6387 38.3468 24.159L38.8368 24.409C42.0468 26.029 45.2948 27.476 48.9288 27.651C49.0628 27.659 49.1958 27.665 49.3288 27.672C49.6578 27.69 49.9848 27.706 50.3128 27.722V28.044C49.7228 28.203 49.1318 28.36 48.5408 28.518L48.0408 28.653C42.4338 30.135 36.9778 28.684 31.6298 26.917C31.5298 26.883 31.4298 26.849 31.3208 26.817C30.1061 26.417 28.8922 26.0107 27.6788 25.598C26.3057 25.1063 24.8067 25.0925 23.4248 25.559C22.5747 25.9577 21.8488 26.5799 21.3248 27.359C21.1303 27.8045 20.7724 28.1584 20.3248 28.348C19.8638 28.441 19.4098 28.501 18.9428 28.548L18.4098 28.619C17.8908 28.685 17.3738 28.748 16.8558 28.807C16.1498 28.891 15.4468 28.979 14.7408 29.068C13.1221 29.268 11.5028 29.464 9.88281 29.656C10.0438 29.173 10.0438 29.173 10.4828 28.93C10.6708 28.845 10.8598 28.758 11.0548 28.671C12.7288 27.8017 14.3045 26.755 15.7548 25.549C17.3874 24.1929 19.2084 23.0812 21.1608 22.249L21.5378 22.099C24.9958 20.891 28.7828 21.983 31.9558 23.499C33.4488 24.237 34.8758 25.092 36.3018 25.952C35.9248 25.572 35.5468 25.193 35.1518 24.831C32.8275 22.6535 31.4379 19.6598 31.2748 16.479C31.0689 13.9433 31.8491 11.4259 33.4528 9.451C34.331 8.496 35.5185 7.88218 36.8055 7.71803C38.0925 7.55389 39.396 7.84999 40.4858 8.554Z" fill="#FF0000"/>
<path d="M46.4514 38.6758C46.67 38.7123 46.8853 38.7661 47.0954 38.8368C47.2373 39.0882 47.3456 39.3572 47.4174 39.6368L47.5804 40.1268L47.7394 40.6128C47.8394 40.8688 47.9394 41.1238 48.0394 41.3778C48.1184 41.5778 48.1184 41.5778 48.2004 41.7778L48.3804 42.2228C48.5284 42.5918 48.6754 42.9608 48.8234 43.3308C48.9074 43.5368 48.9894 43.7448 49.0734 43.9528C49.2701 44.4441 49.4661 44.9348 49.6614 45.4248C49.7164 45.5598 49.7714 45.6958 49.8254 45.8358C49.9367 46.1111 50.0467 46.3864 50.1554 46.6618C50.4114 47.3044 50.67 47.9454 50.9314 48.5848C50.9764 48.6958 51.0234 48.8068 51.0704 48.9218C51.1914 49.2218 51.3134 49.5158 51.4364 49.8138C51.5731 50.1093 51.6304 50.4354 51.6024 50.7598L53.0024 49.7528C53.1324 49.6528 53.2654 49.5648 53.4024 49.4658C53.9384 49.0788 54.4684 48.6938 54.9814 48.2758C55.3104 48.0208 55.3104 48.0208 55.6324 48.0208V47.6958C56.3384 47.2128 56.3384 47.2128 56.7604 47.2128V46.8908L57.2744 46.6088C57.6492 46.3971 58.0057 46.1546 58.3404 45.8838C58.6934 45.6018 58.6934 45.6018 59.0154 45.6018V45.2758H59.4984C59.3764 46.2518 59.1764 47.2038 58.9654 48.1658C58.9284 48.3298 58.8934 48.4948 58.8554 48.6658C58.5144 50.2158 58.1294 51.7508 57.7324 53.2888C57.3704 54.7098 57.0464 56.1348 56.7484 57.5718C56.4744 58.8608 56.1344 60.1058 55.7934 61.3858H37.7534C37.5327 60.8723 37.3706 60.3356 37.2704 59.7858C37.2016 59.3648 37.0986 58.95 36.9624 58.5458C36.7356 57.7916 36.549 57.0258 36.4034 56.2518C36.1194 54.9168 35.8124 53.5928 35.4724 52.2698C35.3244 51.6698 35.2004 51.0638 35.0934 50.4508C35.0585 50.2109 34.9817 49.979 34.8664 49.7658C34.6361 49.0914 34.4638 48.3985 34.3514 47.6948C34.3064 47.4808 34.3064 47.4808 34.2614 47.2598C34.2344 47.1208 34.2064 46.9828 34.1774 46.8398C34.1534 46.7138 34.1274 46.5888 34.1034 46.4578C34.0511 46.0661 34.0327 45.6706 34.0484 45.2758C34.6218 45.5566 35.1737 45.8795 35.6994 46.2418L36.2264 46.5828L36.6264 46.8828V47.2048L37.0094 47.3558C37.2637 47.4517 37.5121 47.5626 37.7534 47.6878V48.0098L38.1364 48.1608C38.3907 48.2567 38.6391 48.3676 38.8804 48.4928V48.8148L39.2634 48.9658C39.5177 49.0617 39.7661 49.1726 40.0074 49.2978V49.6198C40.1234 49.6598 40.2394 49.7008 40.3604 49.7408C40.8185 49.9603 41.2423 50.2453 41.6184 50.5868C42.2744 49.2098 42.8604 47.8288 43.3904 46.3988C43.8834 45.0698 44.3774 43.7478 44.9324 42.4428C45.4544 41.1978 45.9504 39.9358 46.4514 38.6758Z" fill="#FFD700"/>
<path d="M34.2085 30.7456L35.1365 30.8846C35.7805 30.9812 36.4242 31.0786 37.0675 31.1766C37.8922 31.3019 38.7168 31.4259 39.5415 31.5486L41.4515 31.8356L42.3635 31.9726C42.7875 32.0356 43.2125 32.0996 43.6365 32.1656L44.0135 32.2206L44.3665 32.2756L44.6665 32.3226C45.1068 32.4302 45.5408 32.5621 45.9665 32.7176V36.2596C45.5895 36.3286 45.5895 36.3286 45.2065 36.4016C41.9188 36.8879 38.8345 38.2901 36.3065 40.4476L35.9765 40.7296C32.8485 43.6296 31.8305 47.6416 31.4765 51.7236H26.8005C26.5308 51.0407 26.3688 50.3201 26.3205 49.5876C26.2945 49.3266 26.2675 49.0656 26.2395 48.8046C26.2265 48.6726 26.2125 48.5406 26.1975 48.4046C26.1335 47.8236 26.0545 47.2436 25.9705 46.6636C25.9545 46.5526 25.9385 46.4416 25.9225 46.3266C25.8905 46.0996 25.8565 45.8706 25.8225 45.6416C25.7695 45.2756 25.7225 44.9106 25.6645 44.5416C25.5165 43.5042 25.3668 42.4662 25.2155 41.4276C25.1222 40.7862 25.0298 40.1446 24.9385 39.5026C24.9045 39.2606 24.8695 39.0196 24.8385 38.7776C24.5005 36.4776 24.2385 34.5056 25.6385 32.5006C27.9465 29.6766 30.9915 30.2546 34.2085 30.7456Z" fill="#FF0000"/>
<path d="M62.4767 53.6367H63.0047C63.1927 53.6367 63.3817 53.6367 63.5767 53.6367C63.7717 53.6367 63.9767 53.6367 64.1767 53.6367H64.7767L66.2567 53.6447C66.4056 54.0051 66.434 54.4039 66.3377 54.7817C66.3167 54.9137 66.2947 55.0457 66.2717 55.1817C66.2487 55.3177 66.2217 55.4717 66.1957 55.6197C66.1697 55.7677 66.1437 55.9257 66.1167 56.0837C66.0314 56.5911 65.945 57.0984 65.8577 57.6057C65.7977 57.9587 65.7367 58.3117 65.6777 58.6657C65.5523 59.4064 65.425 60.1474 65.2957 60.8887C65.133 61.8341 64.972 62.7807 64.8127 63.7287C64.6887 64.4621 64.564 65.1924 64.4387 65.9197C64.3777 66.2677 64.3197 66.6197 64.2597 66.9647C64.1777 67.4557 64.0917 67.9457 64.0067 68.4357C63.9827 68.5777 63.9597 68.7207 63.9357 68.8677C63.7395 70.5674 62.9026 72.1284 61.5957 73.2327C59.1167 74.8127 54.9187 73.5197 52.2737 73.0537L51.0397 72.8447C50.0397 72.6767 49.0487 72.5037 48.0547 72.3297V66.8627L49.2817 66.6727C53.222 66.056 56.7627 63.9169 59.1417 60.7157C60.4532 58.7932 61.3564 56.6221 61.7957 54.3367C61.9487 53.6607 61.9487 53.6607 62.4767 53.6367Z" fill="#FF0000"/>
<path d="M48.0596 32.877C48.3496 32.903 48.6376 32.943 48.9266 32.988L49.5426 33.077L49.9056 33.136C50.5546 33.236 51.2056 33.331 51.8566 33.428L52.9976 33.597C53.9496 33.739 54.8976 33.879 55.8556 34.011C56.4016 34.0883 56.9476 34.1666 57.4936 34.246L58.7776 34.431C59.477 34.531 60.175 34.633 60.8716 34.737L61.7156 34.859C64.1236 35.2 66.1226 35.566 67.6816 37.61C69.3956 40.248 68.2956 43.475 67.7916 46.366C67.7176 46.799 67.6416 47.231 67.5676 47.666L67.4226 48.497C67.2646 49.409 67.1143 50.323 66.9716 51.239C66.9056 51.563 66.9056 51.563 66.7446 51.724C66.3986 51.738 66.0536 51.742 65.7076 51.74C65.4966 51.74 65.2876 51.74 65.0696 51.74H64.3996H63.7266C63.176 51.74 62.625 51.7373 62.0736 51.732C62.0576 51.539 62.0416 51.345 62.0256 51.147C61.6436 46.827 60.1316 42.872 56.7586 39.973C54.2093 37.9598 51.1326 36.7264 47.8986 36.421C47.8933 35.8583 47.8906 35.2976 47.8906 34.739C47.8906 34.58 47.8906 34.42 47.8906 34.254C47.8906 34.088 47.8906 33.954 47.8906 33.793C47.8906 33.653 47.8906 33.511 47.8906 33.366C47.8986 33.038 47.8986 33.038 48.0596 32.877Z" fill="#FF0000"/>
<path d="M27.6854 53.6367H28.2134H28.7854H29.3854H29.9854L31.4704 53.6547C31.5174 53.8167 31.5634 53.9777 31.6114 54.1437C31.6404 54.2437 31.6694 54.3497 31.7004 54.4557C31.7874 54.7557 31.8714 55.0617 31.9564 55.3637C32.6335 57.8188 33.8424 60.095 35.4974 62.0307C35.5974 62.1497 35.6974 62.2687 35.7974 62.3897C38.4247 65.0289 41.9244 66.6193 45.6404 66.8627C45.8014 67.0237 45.8014 67.0237 45.8194 67.4857C45.8194 67.7857 45.8194 67.7857 45.8194 68.0957C45.8194 68.2037 45.8194 68.3097 45.8194 68.4207C45.8194 68.7637 45.8194 69.1067 45.8194 69.4497C45.8194 69.6817 45.8194 69.9137 45.8194 70.1497C45.8194 70.7197 45.8167 71.2894 45.8114 71.8587C44.3714 71.7587 42.9574 71.5767 41.5314 71.3527L40.8714 71.2527L39.4944 71.0367C38.9114 70.9437 38.3284 70.8547 37.7454 70.7647C37.2914 70.6957 36.8374 70.6227 36.3824 70.5517C36.065 70.5017 35.747 70.4527 35.4284 70.4047C33.2424 70.0477 31.1714 69.4367 29.7444 67.6457C29.0156 66.567 28.5555 65.3295 28.4024 64.0367C28.3594 63.7277 28.3594 63.7277 28.3134 63.4097C28.2824 63.1857 28.2524 62.9617 28.2234 62.7377C28.1944 62.5137 28.1594 62.2757 28.1234 62.0437C28.0567 61.5604 27.99 61.0767 27.9234 60.5927C27.8394 59.9741 27.7544 59.3554 27.6684 58.7367C27.6017 58.2581 27.535 57.7807 27.4684 57.3047C27.4374 57.0757 27.4054 56.8477 27.3754 56.6197C27.3304 56.3007 27.2864 55.9807 27.2434 55.6617C27.2194 55.4817 27.1954 55.2997 27.1694 55.1127C27.1178 54.6824 27.1018 54.2486 27.1214 53.8157C27.2824 53.6547 27.2824 53.6547 27.6854 53.6367Z" fill="#FF0000"/>
<path d="M53.2148 48.9844L53.5368 49.1454L53.2148 49.3064V48.9844Z" fill="#FFD700"/>
</g>
<defs>
<clipPath id="clip0_86_3247">
<rect width="94" height="99" fill="white" transform="translate(0.5 0.5)"/>
</clipPath>
</defs>
</svg>
