<svg width="59" height="29" viewBox="0 0 59 29" fill="none" xmlns="http://www.w3.org/2000/svg">
<g clip-path="url(#clip0_86_3258)">
<path d="M21.5545 20.6365C21.2033 20.6365 20.8666 20.497 20.6183 20.2487C20.37 20.0004 20.2305 19.6636 20.2305 19.3125V9.67947C20.2305 9.32832 20.37 8.99156 20.6183 8.74326C20.8666 8.49496 21.2033 8.35547 21.5545 8.35547C21.9056 8.35547 22.2424 8.49496 22.4907 8.74326C22.739 8.99156 22.8785 9.32832 22.8785 9.67947V19.3125C22.8785 19.4863 22.8442 19.6585 22.7777 19.8191C22.7111 19.9798 22.6136 20.1257 22.4907 20.2487C22.3677 20.3716 22.2218 20.4691 22.0611 20.5357C21.9005 20.6022 21.7283 20.6365 21.5545 20.6365Z" fill="#89C8E9"/>
<path d="M37.4451 20.6353C37.0939 20.6353 36.7572 20.4958 36.5089 20.2475C36.2606 19.9992 36.1211 19.6625 36.1211 19.3113V9.68533C36.1211 9.33418 36.2606 8.99742 36.5089 8.74912C36.7572 8.50082 37.0939 8.36133 37.4451 8.36133C37.7962 8.36133 38.133 8.50082 38.3813 8.74912C38.6296 8.99742 38.7691 9.33418 38.7691 9.68533V19.3113C38.7691 19.4852 38.7348 19.6574 38.6683 19.818C38.6018 19.9786 38.5042 20.1246 38.3813 20.2475C38.2584 20.3705 38.1124 20.468 37.9518 20.5345C37.7911 20.6011 37.619 20.6353 37.4451 20.6353Z" fill="#0EAEDD"/>
<path d="M29.4998 24.5C29.1492 24.5 28.8128 24.3609 28.5646 24.1133C28.3164 23.8656 28.1766 23.5296 28.1758 23.179V5.824C28.1758 5.47285 28.3153 5.13609 28.5636 4.88779C28.8119 4.63949 29.1486 4.5 29.4998 4.5C29.8509 4.5 30.1877 4.63949 30.436 4.88779C30.6843 5.13609 30.8238 5.47285 30.8238 5.824V23.179C30.8238 23.3529 30.7895 23.525 30.723 23.6857C30.6565 23.8463 30.5589 23.9923 30.436 24.1152C30.313 24.2382 30.1671 24.3357 30.0065 24.4022C29.8458 24.4688 29.6737 24.503 29.4998 24.503" fill="#2E80C3"/>
</g>
<defs>
<clipPath id="clip0_86_3258">
<rect width="58" height="28" fill="white" transform="translate(0.5 0.5)"/>
</clipPath>
</defs>
</svg>
