<svg width="21" height="21" viewBox="0 0 21 21" fill="none" xmlns="http://www.w3.org/2000/svg">
<g clip-path="url(#clip0_86_3266)">
<path d="M19.0302 15.4405L15.4382 13.0405C15.2187 12.8961 14.953 12.8394 14.6938 12.8816C14.4345 12.9238 14.2005 13.0619 14.0382 13.2685L12.9922 14.6135C12.9272 14.6994 12.8333 14.7591 12.7278 14.7813C12.6223 14.8035 12.5124 14.7869 12.4182 14.7345L12.2182 14.6245C11.0441 13.9835 9.98493 13.1514 9.0842 12.1625C8.09391 11.2635 7.26047 10.2056 6.6182 9.03246L6.5082 8.83246C6.45538 8.73846 6.43824 8.62856 6.45991 8.52294C6.48159 8.41732 6.54063 8.32306 6.6262 8.25746L7.9712 7.21146C8.17737 7.04886 8.31513 6.81493 8.35734 6.55578C8.39954 6.29662 8.34312 6.03106 8.1992 5.81146L5.7992 2.21946C5.65126 1.99693 5.42355 1.83967 5.16305 1.78013C4.90255 1.72059 4.62913 1.7633 4.3992 1.89946L2.8992 2.79946C2.4273 3.07698 2.08112 3.52637 1.9332 4.05346C1.3892 6.02646 1.7962 9.43246 6.8062 14.4395C10.7922 18.4245 13.7592 19.4965 15.7982 19.4965C16.2675 19.4986 16.7351 19.4378 17.1882 19.3155C17.7154 19.1677 18.1648 18.8215 18.4422 18.3495L19.3422 16.8495C19.4819 16.6197 19.5274 16.3448 19.4692 16.0823C19.4111 15.8197 19.2538 15.5898 19.0302 15.4405ZM18.8362 16.5405L17.9362 18.0405C17.7377 18.3811 17.4152 18.6319 17.0362 18.7405C15.2172 19.2405 12.0362 18.8265 7.2282 14.0155C2.4202 9.20446 2.0002 6.03246 2.5002 4.21246C2.60896 3.83352 2.85969 3.51114 3.2002 3.31246L4.7002 2.41246C4.80001 2.35254 4.91904 2.33335 5.03262 2.35886C5.1462 2.38437 5.2456 2.45262 5.3102 2.54946L6.6102 4.50346L7.7102 6.13846C7.77312 6.23396 7.79777 6.34965 7.77923 6.4625C7.7607 6.57536 7.70035 6.67709 7.6102 6.74746L6.2602 7.79346C6.06197 7.9447 5.92499 8.16242 5.87447 8.40659C5.82395 8.65076 5.86327 8.90496 5.9852 9.12246L6.0922 9.31646C6.76213 10.5403 7.62945 11.6451 8.6592 12.5865C9.59974 13.6164 10.7052 14.4826 11.9302 15.1495L12.1242 15.2565C12.3416 15.3781 12.5956 15.4173 12.8395 15.3668C13.0835 15.3162 13.301 15.1794 13.4522 14.9815L14.4982 13.6325C14.5686 13.5423 14.6703 13.482 14.7832 13.4634C14.896 13.4449 15.0117 13.4695 15.1072 13.5325L18.6982 15.9325C18.7954 15.9967 18.864 16.0961 18.8897 16.2097C18.9154 16.3234 18.8963 16.4426 18.8362 16.5425V16.5405Z" fill="#FF0000" stroke="#FF0000" stroke-width="0.25"/>
<path d="M11.8049 4.70878C13.1378 4.71037 14.4157 5.24065 15.3581 6.18326C16.3006 7.12588 16.8306 8.40385 16.8319 9.73678C16.8435 9.80694 16.8796 9.8707 16.9338 9.9167C16.988 9.9627 17.0568 9.98796 17.1279 9.98796C17.199 9.98796 17.2678 9.9627 17.322 9.9167C17.3762 9.8707 17.4123 9.80694 17.4239 9.73678C17.4223 8.24702 16.8298 6.81872 15.7764 5.7653C14.7229 4.71188 13.2947 4.11937 11.8049 4.11778C11.7618 4.11023 11.7175 4.1122 11.6752 4.12357C11.633 4.13494 11.5937 4.15542 11.5602 4.18358C11.5266 4.21174 11.4997 4.24689 11.4812 4.28657C11.4627 4.32626 11.4531 4.3695 11.4531 4.41328C11.4531 4.45706 11.4627 4.50031 11.4812 4.53999C11.4997 4.57967 11.5266 4.61483 11.5602 4.64299C11.5937 4.67115 11.633 4.69163 11.6752 4.70299C11.7175 4.71436 11.7618 4.71634 11.8049 4.70878Z" fill="#FF0000" stroke="#FF0000" stroke-width="0.25"/>
<path d="M11.802 6.48262C12.6644 6.48368 13.4912 6.82674 14.101 7.43657C14.7108 8.0464 15.0539 8.87319 15.055 9.73562C15.0474 9.77874 15.0494 9.82299 15.0608 9.86527C15.0721 9.90755 15.0926 9.94683 15.1208 9.98035C15.1489 10.0139 15.1841 10.0408 15.2238 10.0593C15.2634 10.0778 15.3067 10.0874 15.3505 10.0874C15.3942 10.0874 15.4375 10.0778 15.4772 10.0593C15.5169 10.0408 15.552 10.0139 15.5802 9.98035C15.6083 9.94683 15.6288 9.90755 15.6402 9.86527C15.6515 9.82299 15.6535 9.77874 15.646 9.73562C15.6446 8.71644 15.2393 7.73937 14.5187 7.01861C13.7981 6.29785 12.8211 5.89221 11.802 5.89062C11.7318 5.9022 11.668 5.9383 11.622 5.99252C11.576 6.04673 11.5508 6.11552 11.5508 6.18662C11.5508 6.25772 11.576 6.32651 11.622 6.38072C11.668 6.43493 11.7318 6.47105 11.802 6.48262Z" fill="#FF0000" stroke="#FF0000" stroke-width="0.25"/>
<path d="M11.8059 8.25902C12.1977 8.25928 12.5734 8.41491 12.8507 8.69179C13.1279 8.96866 13.2841 9.3442 13.2849 9.73602C13.2773 9.77915 13.2793 9.8234 13.2906 9.86568C13.302 9.90795 13.3225 9.94724 13.3506 9.98076C13.3788 10.0143 13.414 10.0412 13.4536 10.0597C13.4933 10.0782 13.5366 10.0878 13.5804 10.0878C13.6241 10.0878 13.6674 10.0782 13.7071 10.0597C13.7467 10.0412 13.7819 10.0143 13.8101 9.98076C13.8382 9.94724 13.8587 9.90795 13.8701 9.86568C13.8815 9.8234 13.8834 9.77915 13.8759 9.73602C13.8753 9.18719 13.6571 8.66097 13.269 8.27289C12.8809 7.8848 12.3547 7.66655 11.8059 7.66602C11.7357 7.67759 11.6719 7.7137 11.6259 7.76791C11.5799 7.82213 11.5547 7.89092 11.5547 7.96202C11.5547 8.03312 11.5799 8.10192 11.6259 8.15613C11.6719 8.21034 11.7357 8.24745 11.8059 8.25902Z" fill="#FF0000" stroke="#FF0000" stroke-width="0.25"/>
</g>
<defs>
<clipPath id="clip0_86_3266">
<rect width="20" height="20" fill="white" transform="translate(0.5 0.5)"/>
</clipPath>
</defs>
</svg>
