<svg width="311" height="180" viewBox="0 0 311 180" fill="none" xmlns="http://www.w3.org/2000/svg">
<g clip-path="url(#clip0_86_3287)">
<path opacity="0.22" d="M185.26 52.6915C184.542 52.6923 183.831 52.5443 183.173 52.2567C182.515 51.9691 181.923 51.5482 181.435 51.0205C174.58 43.5896 166.445 37.4511 157.418 32.8975C156.183 32.2764 155.245 31.1899 154.81 29.877C154.376 28.5642 154.481 27.1325 155.102 25.897C155.723 24.6615 156.81 23.7233 158.122 23.2889C159.435 22.8545 160.867 22.9594 162.102 23.5805C172.244 28.6918 181.384 35.586 189.085 43.9335C189.774 44.6774 190.232 45.6063 190.401 46.6063C190.571 47.6064 190.445 48.6341 190.039 49.5637C189.633 50.4932 188.965 51.2842 188.116 51.8396C187.267 52.395 186.275 52.6907 185.26 52.6905V52.6915ZM58.0055 51.0115C65.8672 42.4837 75.4076 35.674 86.0274 31.0103C96.6472 26.3466 108.117 23.9297 119.715 23.9115C126.345 23.8841 132.952 24.688 139.381 26.3045C140.05 26.4895 140.748 26.5393 141.435 26.4512C142.123 26.3631 142.786 26.1388 143.386 25.7913C143.986 25.4439 144.51 24.9804 144.929 24.4278C145.347 23.8752 145.652 23.2448 145.824 22.5732C145.996 21.9017 146.032 21.2026 145.931 20.5169C145.829 19.8312 145.592 19.1725 145.233 18.5795C144.874 17.9865 144.401 17.471 143.84 17.0632C143.279 16.6554 142.643 16.3635 141.968 16.2045C134.693 14.3741 127.217 13.4613 119.715 13.4875C106.675 13.5075 93.7798 16.2243 81.8404 21.4673C69.9009 26.7103 59.175 34.366 50.3364 43.9535C49.8681 44.4561 49.5036 45.0465 49.2642 45.6904C49.0247 46.3344 48.9151 47.0194 48.9413 47.7059C48.9676 48.3925 49.1292 49.067 49.4171 49.6909C49.705 50.3147 50.1135 50.8754 50.6189 51.3408C51.1243 51.8062 51.7168 52.1671 52.3622 52.4027C53.0076 52.6383 53.6932 52.744 54.3795 52.7137C55.0659 52.6834 55.7396 52.5176 56.3617 52.226C56.9838 51.9344 57.542 51.5227 58.0044 51.0145L58.0055 51.0115ZM75.4874 69.6495C80.7614 63.5158 87.2554 58.5481 94.5556 55.0631C101.856 51.5782 109.802 49.6524 117.887 49.4085C119.27 49.368 120.58 48.7805 121.531 47.7751C122.481 46.7697 122.993 45.4284 122.955 44.0455C122.897 42.6692 122.303 41.3701 121.302 40.4243C120.3 39.4785 118.969 38.9605 117.591 38.9805C108.057 39.2717 98.6883 41.5441 90.0802 45.6531C81.4721 49.7621 73.8134 55.6177 67.5915 62.8475C67.1211 63.3627 66.7589 63.9669 66.5263 64.6246C66.2937 65.2822 66.1955 65.9798 66.2373 66.6761C66.2792 67.3724 66.4603 68.0533 66.77 68.6783C67.0798 69.3033 67.5117 69.8598 68.0404 70.3149C68.5691 70.7699 69.1838 71.1143 69.8479 71.3276C70.5121 71.5408 71.2122 71.6186 71.907 71.5564C72.6018 71.4942 73.277 71.2932 73.8927 70.9653C74.5084 70.6374 75.0521 70.1893 75.4915 69.6475L75.4874 69.6495ZM171.309 70.1925C172.355 69.287 172.998 68.0037 173.098 66.6245C173.198 65.2452 172.747 63.8825 171.843 62.8355C163.876 53.5899 153.586 46.6378 142.034 42.6965C141.384 42.4703 140.695 42.375 140.008 42.4164C139.32 42.4577 138.648 42.6349 138.029 42.9375C137.411 43.2401 136.858 43.6623 136.404 44.1796C135.949 44.6969 135.601 45.2991 135.381 45.9514C135.16 46.6038 135.071 47.2934 135.118 47.9804C135.166 48.6674 135.349 49.3383 135.657 49.9543C135.965 50.5702 136.392 51.1191 136.913 51.5692C137.434 52.0192 138.039 52.3616 138.694 52.5765C148.484 55.9191 157.204 61.8163 163.951 69.6585C164.856 70.7049 166.14 71.349 167.519 71.4492C168.899 71.5493 170.263 71.0973 171.309 70.1925ZM153.558 89.3925C154.674 88.5768 155.422 87.3509 155.635 85.9844C155.848 84.6179 155.51 83.2227 154.694 82.1055C150.667 76.6064 145.402 72.1316 139.326 69.0425C133.25 65.9534 126.533 64.3365 119.716 64.3225C119.07 64.3148 118.423 64.3455 117.78 64.4145C116.42 64.5818 115.181 65.2819 114.335 66.3613C113.49 67.4406 113.107 68.8112 113.27 70.1725C113.44 71.5408 114.139 72.7883 115.218 73.6471C116.297 74.5059 117.669 74.9078 119.04 74.7665C119.265 74.7456 119.492 74.7407 119.717 74.7515C124.892 74.7614 129.993 75.9885 134.606 78.3336C139.219 80.6788 143.216 84.0763 146.273 88.2515C147.089 89.3679 148.314 90.1146 149.68 90.3275C151.046 90.5403 152.441 90.2019 153.558 89.3865V89.3925ZM137.645 107.713C137.645 104.166 136.594 100.7 134.624 97.7512C132.654 94.8026 129.853 92.5044 126.577 91.1473C123.301 89.7903 119.696 89.4352 116.217 90.127C112.739 90.8188 109.545 92.5265 107.037 95.0341C104.529 97.5416 102.822 100.736 102.13 104.215C101.438 107.693 101.793 111.298 103.15 114.574C104.507 117.85 106.805 120.651 109.754 122.621C112.703 124.591 116.169 125.643 119.715 125.643C122.07 125.643 124.402 125.179 126.577 124.278C128.752 123.377 130.729 122.056 132.394 120.391C134.059 118.726 135.38 116.749 136.281 114.574C137.182 112.399 137.645 110.067 137.645 107.713ZM127.216 107.713C127.216 109.196 126.777 110.646 125.953 111.879C125.128 113.113 123.957 114.074 122.587 114.642C121.216 115.209 119.708 115.358 118.253 115.068C116.798 114.779 115.462 114.065 114.413 113.016C113.364 111.967 112.65 110.631 112.361 109.176C112.071 107.721 112.22 106.213 112.787 104.842C113.355 103.472 114.316 102.301 115.55 101.477C116.783 100.652 118.233 100.213 119.716 100.213C121.706 100.213 123.613 101.003 125.02 102.409C126.426 103.816 127.216 105.723 127.216 107.713ZM71.9385 98.6575L159.928 9.37549C160.419 8.89017 160.808 8.31237 161.074 7.67548C161.339 7.03859 161.476 6.35531 161.475 5.66529C161.475 4.97526 161.337 4.2922 161.071 3.6557C160.804 3.0192 160.414 2.44194 159.923 1.95734C159.432 1.47274 158.849 1.09044 158.209 0.832644C157.569 0.574848 156.884 0.446653 156.194 0.455507C155.504 0.464362 154.823 0.610083 154.19 0.884218C153.557 1.15835 152.984 1.55545 152.506 2.05249L64.5154 91.3375C64.0244 91.8227 63.6348 92.4005 63.3689 93.0375C63.103 93.6745 62.9663 94.358 62.9667 95.0482C62.9671 95.7385 63.1045 96.4218 63.371 97.0585C63.6375 97.6952 64.0278 98.2726 64.5193 98.7573C65.0108 99.2419 65.5937 99.6242 66.234 99.8818C66.8744 100.139 67.5596 100.267 68.2498 100.258C68.94 100.249 69.6214 100.102 70.2547 99.8277C70.8879 99.553 71.4602 99.1552 71.9385 98.6575Z" fill="#455A64"/>
<path d="M232.417 117.481C232.348 117.041 232.107 116.645 231.746 116.382C231.386 116.119 230.936 116.01 230.495 116.079C230.054 116.148 229.659 116.39 229.396 116.75C229.133 117.111 229.024 117.561 229.093 118.001C229.334 119.568 229.642 124.476 227.948 126.452C227.602 126.869 227.117 127.148 226.582 127.237L226.736 117.889C226.744 117.564 226.687 117.241 226.567 116.938C226.448 116.636 226.269 116.36 226.042 116.128C225.814 115.896 225.542 115.712 225.242 115.586C224.942 115.461 224.62 115.397 224.295 115.398C223.97 115.4 223.648 115.466 223.349 115.594C223.05 115.722 222.78 115.908 222.554 116.143C222.328 116.377 222.152 116.654 222.035 116.957C221.918 117.261 221.864 117.584 221.874 117.909L222.313 135.65C221.757 135.571 221.25 135.289 220.89 134.857C219.196 132.882 219.504 127.974 219.745 126.406C219.779 126.188 219.77 125.965 219.718 125.751C219.666 125.536 219.572 125.334 219.442 125.155C219.312 124.977 219.148 124.826 218.959 124.71C218.771 124.595 218.561 124.519 218.343 124.484C218.125 124.45 217.902 124.46 217.687 124.511C217.473 124.563 217.27 124.657 217.092 124.787C216.913 124.918 216.762 125.082 216.647 125.27C216.532 125.459 216.455 125.668 216.421 125.886C216.3 126.658 215.328 133.531 218.332 137.041C218.837 137.635 219.458 138.119 220.157 138.463C220.857 138.807 221.619 139.004 222.397 139.041L222.588 146.763H226.259L226.525 130.63C227.288 130.583 228.034 130.382 228.718 130.04C229.401 129.698 230.009 129.221 230.504 128.638C233.507 125.127 232.537 118.255 232.417 117.481Z" fill="#BDBDBD"/>
<path d="M75.6844 132.517C75.6627 132.378 75.6137 132.244 75.5404 132.124C75.4671 132.004 75.3708 131.899 75.2571 131.816C75.1433 131.733 75.0143 131.673 74.8774 131.64C74.7406 131.607 74.5986 131.601 74.4595 131.623C74.3203 131.645 74.1867 131.694 74.0665 131.767C73.9463 131.84 73.8417 131.936 73.7586 132.05C73.6756 132.164 73.6159 132.293 73.5827 132.43C73.5496 132.567 73.5437 132.709 73.5654 132.848C73.7194 133.848 73.9154 136.976 72.8354 138.235C72.6146 138.5 72.3059 138.678 71.9654 138.735L72.0654 132.776C72.0646 132.572 72.0236 132.371 71.9449 132.183C71.8662 131.996 71.7513 131.825 71.6068 131.682C71.4623 131.539 71.2909 131.425 71.1025 131.348C70.9141 131.271 70.7124 131.232 70.5089 131.232C70.3053 131.233 70.104 131.274 69.9162 131.353C69.7285 131.432 69.5581 131.546 69.4148 131.691C69.2714 131.836 69.158 132.007 69.0809 132.195C69.0038 132.384 68.9646 132.585 68.9654 132.789L69.2453 144.098C68.8909 144.048 68.5677 143.868 68.3384 143.593C67.2584 142.334 67.4544 139.205 67.6084 138.206C67.6523 137.925 67.5828 137.638 67.4151 137.408C67.2475 137.179 66.9953 137.025 66.7143 136.981C66.4333 136.937 66.1465 137.007 65.9167 137.174C65.687 137.342 65.5333 137.594 65.4894 137.875C65.4124 138.367 64.7894 142.749 66.7074 144.986C67.0291 145.364 67.4252 145.672 67.8708 145.892C68.3165 146.111 68.8024 146.236 69.2984 146.26L69.4204 151.183H71.7604L71.9304 140.898C72.4169 140.868 72.8924 140.74 73.3283 140.521C73.7643 140.303 74.1516 139.999 74.4674 139.628C76.3744 137.393 75.7644 133.017 75.6844 132.517Z" fill="#BDBDBD"/>
<path d="M153.826 136.684C238.506 136.684 310.78 179.54 310.78 179.54H0.5C0.5 179.54 69.146 136.684 153.826 136.684Z" fill="url(#paint0_linear_86_3287)"/>
<path d="M173.534 127.595C173.534 127.595 173.464 131.719 173.534 132.132C173.604 132.545 171.92 134.962 171.234 134.855C170.455 134.785 169.691 134.594 168.97 134.289C168.77 134.06 168.859 133.519 168.929 133.024C168.999 132.529 169.515 128.039 169.515 127.808C169.515 127.577 172.764 126.968 173.534 127.595Z" fill="#FFBE9D"/>
<path d="M170.867 131.897C170.006 132.362 169.522 133.778 169.4 133.797C169.278 133.816 169.049 133.78 169.049 133.64C169.049 133.5 169.084 133.028 168.927 133.028C168.77 133.028 168.594 133.798 168.56 134.917C168.526 136.036 168.127 138.706 168.56 139.046C168.832 139.259 171.324 140.568 171.394 140.746C171.464 140.924 171.341 142.146 171.551 142.338C171.761 142.53 172.251 143.003 172.635 143.021C173.85 143.154 175.076 143.154 176.292 143.021C177.139 142.855 177.954 142.553 178.706 142.129C178.668 140.946 178.468 139.775 178.111 138.648C177.779 138.281 175.382 134.992 175.189 134.694C174.974 134.245 174.86 133.755 174.856 133.259C174.832 132.925 174.718 132.604 174.527 132.33C174.336 132.056 174.073 131.839 173.769 131.703C172.804 131.475 171.794 131.542 170.869 131.897H170.867Z" fill="#FF0000"/>
<path d="M148.395 129.982C148.395 129.982 148.395 132.382 148.326 132.797C148.257 133.212 149.941 135.627 150.626 135.52C151.406 135.45 152.169 135.259 152.89 134.954C153.09 134.725 153.002 134.183 152.93 133.689C152.858 133.195 152.415 130.426 152.415 130.196C152.415 129.966 149.155 129.355 148.395 129.982Z" fill="#FFBE9D"/>
<path d="M150.614 76.9847C149.043 84.0814 148.1 91.3026 147.797 98.5648C147.797 104.465 147.207 119.504 147.207 121.79C147.207 124.076 146.961 129.747 147.551 130.042C148.691 130.768 150.047 131.081 151.39 130.928C152.046 130.898 152.664 130.614 153.115 130.136C153.565 129.658 153.811 129.024 153.802 128.368C153.851 127.285 154.294 119.508 154.737 116.505C155.18 113.502 156.755 107.711 157.789 103.986C158.823 100.261 161.235 92.7697 161.875 92.7987C162.515 92.8277 166.501 109.238 166.833 110.168C167.165 111.098 167.798 124.311 167.839 125.421C167.88 126.531 167.839 127.598 168.539 128.05C169.747 128.824 171.081 129.38 172.481 129.693C173.59 129.776 174.329 128.009 174.534 127.475C174.739 126.941 175.103 109.267 174.972 104.418C174.841 99.5687 175.224 90.5277 175 87.5797C174.758 84.0203 174.29 80.4799 173.6 76.9797C173.134 75.6557 150.614 76.9847 150.614 76.9847Z" fill="#263238"/>
<path d="M143.728 35.8009C144.658 34.7679 148.998 29.8759 149.86 29.7009C150.722 29.5259 152.817 29.1489 153.285 28.6679C153.753 28.1869 155.729 21.9789 154.947 20.8499C154.165 19.7209 151.147 20.0419 150.229 21.9629C149.311 23.8839 149.36 24.8909 147.85 26.2179C146.34 27.5449 139.762 32.9239 139.15 33.4669C138.538 34.0099 139.75 36.6499 140.713 37.1079C141.676 37.5659 143.728 35.8009 143.728 35.8009Z" fill="#FFBE9D"/>
<path d="M155.721 37.2949C153.503 37.7599 149.821 38.1539 148.603 38.5469C147.385 38.9399 142.594 40.6218 142.63 39.9058C142.666 39.1898 144.848 36.0438 144.454 35.7208C144.06 35.3978 141.7 35.0058 141.307 34.5048C140.914 34.0038 140.377 32.8249 139.84 32.9669C139.303 33.1089 133.083 38.9038 133.509 41.1218C134.509 46.3508 149.209 50.1619 149.549 52.4429C149.889 54.7239 148.409 76.5919 149.214 77.3969C150.019 78.2019 158.538 81.2878 162.831 81.5558C167.124 81.8238 174.655 80.3289 175.066 79.1989C175.477 78.0689 172.971 56.3408 173.266 56.3408C173.561 56.3408 173.639 63.1808 176.909 64.9498C177.835 65.3468 178.85 65.493 179.85 65.3736C180.851 65.2542 181.802 64.8735 182.609 64.2698C183.177 63.6258 180.58 54.5328 179.409 51.4698C178.238 48.4068 177.109 42.0699 174.452 39.8179C171.795 37.5659 168.043 37.9518 166.752 37.4178C165.461 36.8838 161.127 37.2679 160.035 37.1539C158.596 37.1232 157.156 37.1703 155.721 37.2949Z" fill="#FF0000"/>
<path d="M183.42 60.1538C183.42 60.1538 179.597 61.3097 179.299 61.7067C179.001 62.1037 178.471 63.6947 179.299 64.3577C180.127 65.0207 181.036 65.5167 182.019 64.7517C183.002 63.9867 183.898 62.9578 184.466 62.8278C185.034 62.6978 186.733 62.9418 187.446 62.6618C188.159 62.3818 189.512 56.9737 188.966 56.6467C188.42 56.3197 183.42 60.1538 183.42 60.1538Z" fill="#FFBE9D"/>
<path d="M155.741 36.5603C154.507 36.3043 152.125 33.9752 151.907 31.6082C151.694 29.3012 149.998 22.8213 155.902 20.3903C161.441 18.1083 167.141 20.4552 167.96 23.2692C168.725 25.8962 162.223 26.0142 159.839 27.7252C157.455 29.4362 157.293 30.5723 156.698 30.3013C156.103 30.0303 155.741 36.5603 155.741 36.5603Z" fill="#263238"/>
<path d="M155.643 31.9424C155.565 32.9984 155.298 38.1074 155.742 38.8594C156.031 39.6641 156.573 40.3534 157.287 40.824C158.001 41.2945 158.848 41.521 159.701 41.4694C162.532 41.3804 164.369 38.5494 164.524 38.2184C164.679 37.8874 164.347 33.7944 164.347 33.1094C164.347 32.4244 160.546 30.8094 159.016 30.8524C157.486 30.8954 155.713 30.9484 155.643 31.9424Z" fill="#F7B796"/>
<path d="M155.905 31.9565C156.224 31.9475 155.847 33.8944 156.426 34.5304C157.005 35.1664 159.526 38.4855 162.186 38.1605C164.486 37.8805 164.159 35.8954 164.491 34.2604C164.791 32.7764 165.75 32.6485 166.091 28.7745C166.221 27.2745 166.93 24.9275 165.628 24.4935C164.326 24.0595 159.438 22.9025 158.228 24.4935C157.018 26.0845 156.897 29.9025 156.261 29.4105C155.625 28.9185 154.294 26.5185 153.513 27.8195C152.732 29.1205 154.195 32.0065 155.905 31.9565Z" fill="#FFBE9D"/>
<path d="M184.548 53.6946L181.466 61.5744C181.306 61.9837 181.435 62.592 181.685 62.5873L187.136 62.4799C187.227 62.4814 187.313 62.3829 187.369 62.2328L190.286 54.3613C190.425 53.9936 190.302 53.4614 190.087 53.4578L184.78 53.4625C184.691 53.466 184.606 53.5476 184.548 53.6946Z" fill="#FF0000"/>
<path d="M188.729 55.7187C187.975 55.7937 186.879 56.2187 186.879 56.6187C186.879 57.0187 187.759 57.1187 188.001 57.1587C188.243 57.1987 188.562 57.2717 188.471 57.3927C188.38 57.5137 188.198 58.1197 187.713 58.0147C186.71 57.9182 185.702 57.8724 184.695 57.8777C184.285 57.8777 183.795 58.1657 183.77 58.4697C183.745 58.7737 183.649 58.8337 183.406 58.8487C183.163 58.8637 182.723 59.0917 182.723 59.4857C182.723 59.8797 183.697 60.2347 183.697 60.3747C184.417 60.942 185.182 61.4516 185.983 61.8987C186.358 62.1157 187.058 62.6677 187.452 62.6677C187.71 62.6545 187.956 62.558 188.155 62.3926C188.353 62.2273 188.492 62.002 188.552 61.7507C188.601 61.2087 189.379 60.8147 189.39 60.5507C189.401 60.2867 189.143 60.0877 189.173 59.9197C189.203 59.7517 189.883 59.5197 189.883 59.0917C189.831 58.6895 189.728 58.2953 189.578 57.9187C189.539 57.7417 189.378 57.3567 189.539 57.3077C189.7 57.2587 190.248 56.7457 190.15 56.2727C190.052 55.7997 189.069 55.6837 188.729 55.7187Z" fill="#FFBE9D"/>
<path d="M150.99 132.559C151.851 133.024 152.334 134.44 152.457 134.459C152.58 134.478 152.808 134.441 152.808 134.302C152.808 134.163 152.773 133.69 152.931 133.69C153.089 133.69 153.263 134.46 153.298 135.58C153.333 136.7 153.731 139.369 153.298 139.709C153.026 139.922 150.534 141.231 150.464 141.409C150.394 141.587 150.516 142.809 150.307 143.001C150.098 143.193 149.607 143.666 149.222 143.683C148.007 143.817 146.781 143.817 145.566 143.683C144.719 143.517 143.904 143.216 143.152 142.791C143.191 141.609 143.393 140.437 143.752 139.31C144.085 138.943 146.481 135.653 146.674 135.356C146.889 134.908 147.002 134.419 147.006 133.922C147.03 133.588 147.143 133.268 147.335 132.993C147.526 132.719 147.788 132.502 148.093 132.365C149.057 132.137 150.068 132.204 150.993 132.559H150.99Z" fill="#FF0000"/>
</g>
<defs>
<linearGradient id="paint0_linear_86_3287" x1="155.64" y1="126.955" x2="155.64" y2="167.026" gradientUnits="userSpaceOnUse">
<stop stop-color="#E5E5E5"/>
<stop offset="0.603" stop-color="#EEEEEF"/>
<stop offset="1" stop-color="#EEF2F9"/>
</linearGradient>
<clipPath id="clip0_86_3287">
<rect width="310.28" height="179.04" fill="white" transform="translate(0.5 0.5)"/>
</clipPath>
</defs>
</svg>
