<svg width="52" height="51" viewBox="0 0 52 51" fill="none" xmlns="http://www.w3.org/2000/svg">
<g clip-path="url(#clip0_86_3314)">
<path d="M43.6928 2.75313C43.716 2.45003 43.6729 2.14551 43.5665 1.86074C43.4602 1.57596 43.2931 1.31778 43.0768 1.10415C42.8608 0.889671 42.6007 0.724862 42.3145 0.621236C42.0283 0.51761 41.723 0.477625 41.4198 0.50411H2.84877C2.54112 0.477256 2.23133 0.518068 1.94111 0.623617C1.6509 0.729166 1.38729 0.896919 1.16878 1.11513C0.950159 1.33327 0.781923 1.59657 0.675856 1.88662C0.569788 2.17666 0.528443 2.48638 0.554762 2.79409V4.1401C0.561762 4.8951 0.567771 5.67515 0.538771 6.44015C0.429621 7.03178 0.552972 7.64268 0.88307 8.14565C1.21317 8.64862 1.72459 9.00483 2.3108 9.1401L2.51979 9.20315V36.2031C2.46027 36.9559 2.68044 37.7042 3.1382 38.3048C3.59596 38.9053 4.25911 39.316 5.00075 39.4581C5.52699 39.5933 6.06843 39.6606 6.61177 39.6581C9.57077 39.6671 12.5118 39.6681 14.7518 39.6681H21.5638C21.9668 39.7088 22.3703 39.5952 22.6928 39.3501C22.7646 39.2712 22.8194 39.1784 22.8538 39.0774C22.8882 38.9764 22.9015 38.8695 22.8928 38.7631C22.8868 38.3631 22.7308 37.9001 21.5758 37.9001H6.80379C6.57079 37.9001 6.30379 37.9001 6.04579 37.8781C4.75279 37.7661 4.29378 37.2691 4.29378 35.9781V9.20614H16.3838V23.9461C16.3529 24.1453 16.3892 24.349 16.487 24.5252C16.5848 24.7014 16.7385 24.8399 16.9238 24.9191C17.0348 24.968 17.1544 24.9946 17.2758 24.9971C17.4145 24.9872 17.5498 24.9496 17.6738 24.8866C17.7978 24.8235 17.908 24.7363 17.9978 24.6301C18.9371 23.7054 19.8798 22.7845 20.8258 21.8671L21.4747 21.2371C21.5747 21.1371 21.6748 21.0481 21.7748 20.9511L21.9238 20.8151L22.1238 20.6281L22.4788 20.9581C22.5788 21.0521 22.6708 21.1361 22.7608 21.2231L24.3128 22.7371L26.3128 24.6911C26.3947 24.783 26.4941 24.8575 26.6052 24.9104C26.7163 24.9633 26.8369 24.9934 26.9598 24.9991C27.0782 24.997 27.195 24.9719 27.3038 24.9251C27.4852 24.861 27.6393 24.7368 27.7406 24.5731C27.8419 24.4095 27.8843 24.2161 27.8608 24.0251V9.19411H39.9418V20.3801C39.9339 20.6127 39.954 20.8454 40.0018 21.0731C40.0431 21.2589 40.1492 21.4238 40.3011 21.5384C40.453 21.6529 40.6408 21.7096 40.8308 21.6981H40.8518C41.0448 21.7017 41.2329 21.6367 41.3826 21.5148C41.5324 21.3929 41.6341 21.2219 41.6698 21.0321C41.7078 20.817 41.7242 20.5985 41.7188 20.3801V9.84713C41.6904 9.67077 41.7261 9.49006 41.8195 9.33779C41.9129 9.18552 42.0577 9.07175 42.2278 9.01711C42.6789 8.88362 43.0702 8.59891 43.3361 8.21084C43.602 7.82276 43.7262 7.35498 43.6878 6.88613V5.79909C43.6988 4.80209 43.7018 3.76913 43.6928 2.75313ZM16.3448 7.34414H2.37379V2.29409H16.3448V7.34414ZM26.0828 21.8251L25.6078 21.4611L25.4968 21.3781C25.4092 21.3177 25.3264 21.2509 25.2488 21.1781C24.9435 20.8821 24.6391 20.5848 24.3358 20.2861C23.8608 19.8191 23.3688 19.3371 22.8808 18.8691C22.6872 18.6432 22.4146 18.5001 22.1188 18.4691C21.9734 18.4836 21.8325 18.5272 21.7043 18.5972C21.5761 18.6673 21.4633 18.7625 21.3728 18.8771C20.7858 19.4831 20.2068 20.1201 19.6458 20.7351C19.3998 21.0065 19.1531 21.2761 18.9058 21.5441L18.7228 21.7441L18.1938 21.3441V2.28011H26.0818L26.0828 21.8251ZM41.8908 7.33809H27.9108V2.28609H41.8908V7.33809Z" fill="black"/>
<path d="M38.8515 24.6152H38.7985C35.3781 24.6279 32.1017 25.9934 29.6848 28.4136C27.2678 30.8337 25.9066 34.1119 25.8985 37.5323C25.8921 40.9593 27.2445 44.2491 29.6593 46.6808C32.0741 49.1126 35.3545 50.4878 38.7815 50.5052H38.8255C42.2556 50.5018 45.5448 49.1397 47.9731 46.717C50.4014 44.2944 51.7711 41.0084 51.7825 37.5782C51.7767 34.1476 50.4135 30.8586 47.9906 28.4297C45.5678 26.0009 42.2821 24.6295 38.8515 24.6152ZM38.8245 48.7552H38.7865C35.824 48.7394 32.9885 47.5504 30.9007 45.4487C28.8128 43.347 27.6427 40.5037 27.6465 37.5413C27.6584 34.584 28.8407 31.7518 30.9351 29.6638C33.0294 27.5759 35.8652 26.4021 38.8225 26.3992H38.8415C41.7995 26.4069 44.634 27.5861 46.7247 29.6788C48.8153 31.7715 49.9917 34.6072 49.9965 37.5652C49.9938 40.5291 48.8165 43.3711 46.7224 45.4685C44.6284 47.5659 41.7883 48.7478 38.8245 48.7552Z" fill="black"/>
<path d="M43.8603 41.6019C43.9056 41.7807 43.8877 41.9696 43.8097 42.1367C43.7317 42.3038 43.5984 42.4388 43.4323 42.5189C43.3007 42.5948 43.1522 42.6365 43.0003 42.64C42.8802 42.6345 42.7623 42.6051 42.6536 42.5536C42.5449 42.5021 42.4476 42.4295 42.3673 42.34C41.5223 41.514 40.6763 40.662 39.8583 39.84L39.5223 39.5009C39.4324 39.4054 39.3477 39.3053 39.2683 39.2009C39.2153 39.1329 39.1563 39.0609 39.0903 38.9799L38.8823 38.731L37.6823 39.9399C36.8823 40.7519 36.1103 41.5289 35.3383 42.3029C35.2553 42.3997 35.1534 42.4786 35.0389 42.5346C34.9244 42.5907 34.7996 42.6228 34.6723 42.629C34.5753 42.6279 34.4791 42.6113 34.3873 42.58C34.2323 42.5357 34.0933 42.4477 33.9869 42.3266C33.8805 42.2055 33.8112 42.0564 33.7873 41.897C33.7605 41.7264 33.7809 41.5518 33.8461 41.392C33.9113 41.2321 34.0189 41.0931 34.1573 40.9899C34.9183 40.2349 35.6773 39.4769 36.4573 38.7029L37.5723 37.5909L37.3723 37.382C37.3233 37.33 37.2723 37.2819 37.2323 37.2299C37.1323 37.1299 37.0453 37.0299 36.9503 36.9299L35.9893 35.97C35.3583 35.339 34.7053 34.6889 34.0713 34.0419C33.9198 33.917 33.8168 33.743 33.7803 33.5501C33.7438 33.3572 33.776 33.1576 33.8713 32.986C33.9342 32.8512 34.0326 32.736 34.1559 32.6526C34.2792 32.5693 34.4227 32.5211 34.5713 32.5129C34.6301 32.5136 34.6887 32.52 34.7463 32.5319C35.008 32.6041 35.2458 32.7446 35.4353 32.939C36.2163 33.697 36.9703 34.4549 37.7673 35.2579L38.6153 36.1119L38.8243 36.3209L39.0323 36.1119C39.3173 35.8269 39.5983 35.5429 39.8783 35.2609C40.6783 34.4609 41.4353 33.697 42.2193 32.934C42.4012 32.7489 42.6248 32.61 42.8713 32.5289C42.9364 32.5109 43.0037 32.5019 43.0713 32.502C43.2194 32.5067 43.3633 32.5525 43.4869 32.6343C43.6105 32.716 43.7089 32.8305 43.7713 32.965C43.8712 33.1377 43.9077 33.3398 43.8747 33.5365C43.8417 33.7332 43.7411 33.9123 43.5903 34.043C42.8073 34.843 41.9803 35.669 41.0603 36.577C40.9013 36.735 40.7243 36.884 40.5373 37.043C40.4433 37.123 40.3453 37.2049 40.2453 37.2939L40.0083 37.502L40.2323 37.7249C40.5323 38.0249 40.8223 38.313 41.1113 38.601C41.9203 39.401 42.6843 40.165 43.4423 40.944C43.63 41.1276 43.7715 41.353 43.8553 41.6019H43.8603Z" fill="black"/>
</g>
<defs>
<clipPath id="clip0_86_3314">
<rect width="51.284" height="50.006" fill="white" transform="translate(0.5 0.5)"/>
</clipPath>
</defs>
</svg>
