<svg width="19" height="19" viewBox="0 0 19 19" fill="none" xmlns="http://www.w3.org/2000/svg">
<g clip-path="url(#clip0_86_3319)">
<path d="M5.99531 16.8453C5.99531 17.0233 5.94253 17.1973 5.84364 17.3453C5.74474 17.4933 5.60418 17.6087 5.43973 17.6768C5.27527 17.7449 5.09431 17.7627 4.91973 17.728C4.74515 17.6933 4.58478 17.6076 4.45892 17.4817C4.33305 17.3558 4.24733 17.1955 4.21261 17.0209C4.17788 16.8463 4.1957 16.6654 4.26382 16.5009C4.33194 16.3364 4.4473 16.1959 4.5953 16.097C4.7433 15.9981 4.91731 15.9453 5.09531 15.9453C5.33401 15.9453 5.56293 16.0401 5.73171 16.2089C5.90049 16.3777 5.99531 16.6066 5.99531 16.8453Z" fill="#FF0000"/>
<path d="M14.0422 16.8453C14.0422 17.0233 13.9894 17.1973 13.8905 17.3453C13.7916 17.4933 13.6511 17.6087 13.4866 17.6768C13.3222 17.7449 13.1412 17.7627 12.9666 17.728C12.792 17.6933 12.6317 17.6076 12.5058 17.4817C12.3799 17.3558 12.2942 17.1955 12.2595 17.0209C12.2248 16.8463 12.2426 16.6654 12.3107 16.5009C12.3788 16.3364 12.4942 16.1959 12.6422 16.097C12.7902 15.9981 12.9642 15.9453 13.1422 15.9453C13.3809 15.9453 13.6098 16.0401 13.7786 16.2089C13.9474 16.3777 14.0422 16.6066 14.0422 16.8453Z" fill="#FF0000"/>
<path d="M16.126 6.24045C16.1136 6.19896 16.0889 6.16223 16.0551 6.13509C16.0214 6.10795 15.9802 6.09169 15.937 6.08845L4.086 4.95145C4.03053 4.94584 3.97709 4.9276 3.92977 4.89813C3.88244 4.86867 3.8425 4.82875 3.813 4.78145C3.69006 4.54186 3.54117 4.31651 3.369 4.10945C3.089 3.77045 2.561 3.78045 1.593 3.77345C1.52001 3.76452 1.44595 3.7709 1.37557 3.7922C1.30518 3.81349 1.24001 3.84923 1.18421 3.89712C1.12841 3.94502 1.08321 4.00402 1.05149 4.07037C1.01977 4.13671 1.00224 4.20894 1 4.28245C1.00091 4.35426 1.01672 4.42511 1.04642 4.4905C1.07612 4.55589 1.11907 4.61441 1.17255 4.66234C1.22604 4.71028 1.28889 4.74659 1.35713 4.76899C1.42537 4.79138 1.49751 4.79937 1.569 4.79245C1.88583 4.7846 2.20266 4.80771 2.515 4.86145C2.686 4.91145 2.824 5.19045 2.875 5.43245L2.87378 5.43795L2.875 5.44345C2.882 5.48645 2.948 5.81245 2.948 5.81545L4.402 13.4584C4.46631 13.9256 4.64758 14.369 4.929 14.7474C5.06776 14.9338 5.24909 15.0842 5.45785 15.1861C5.66661 15.2881 5.89674 15.3386 6.129 15.3334H14.738C14.8709 15.3358 14.9995 15.2867 15.0971 15.1966C15.1947 15.1064 15.2538 14.9821 15.262 14.8494C15.2657 14.7808 15.2552 14.7121 15.2312 14.6477C15.2072 14.5832 15.1701 14.5245 15.1224 14.475C15.0746 14.4255 15.0171 14.3865 14.9536 14.3602C14.89 14.334 14.8217 14.3211 14.753 14.3224H6.124C6.01487 14.3288 5.90747 14.293 5.824 14.2224C5.58662 13.963 5.43993 13.6335 5.406 13.2834L5.248 12.4254C5.24736 12.4206 5.24854 12.4156 5.25131 12.4116C5.25407 12.4075 5.25824 12.4046 5.263 12.4034L15.363 10.7034C15.4093 10.6962 15.4518 10.6738 15.484 10.6398C15.5162 10.6058 15.5363 10.562 15.541 10.5154L16.119 6.33245C16.1261 6.3022 16.1261 6.2707 16.119 6.24045H16.126Z" fill="#FF0000"/>
</g>
<defs>
<clipPath id="clip0_86_3319">
<rect width="18" height="18" fill="white" transform="translate(0.5 0.5)"/>
</clipPath>
</defs>
</svg>
