<svg width="52" height="51" viewBox="0 0 52 51" fill="none" xmlns="http://www.w3.org/2000/svg">
<g clip-path="url(#clip0_86_3327)">
<path d="M43.6928 2.75298C43.716 2.44988 43.673 2.14542 43.5666 1.86065C43.4602 1.57588 43.2931 1.31769 43.0768 1.10406C42.8608 0.889583 42.6007 0.724774 42.3145 0.621149C42.0283 0.517523 41.723 0.477598 41.4198 0.504083H2.84877C2.54113 0.477298 2.23139 0.518045 1.94118 0.62359C1.65097 0.729135 1.38734 0.896887 1.16878 1.11505C0.950164 1.33318 0.781928 1.59648 0.67586 1.88653C0.569792 2.17657 0.528478 2.48629 0.554797 2.794C0.554797 3.241 0.554797 3.69407 0.554797 4.14007C0.561797 4.89507 0.567775 5.675 0.538775 6.44C0.429625 7.03163 0.552946 7.64259 0.883044 8.14556C1.21314 8.64853 1.72457 9.0048 2.31078 9.14007L2.51979 9.20306V36.2031C2.46031 36.956 2.68064 37.7044 3.1386 38.305C3.59656 38.9056 4.25997 39.3161 5.00179 39.4581C5.52801 39.5934 6.06943 39.6606 6.61278 39.658C9.57178 39.667 12.5128 39.668 14.7528 39.668H21.5648C21.9678 39.7088 22.3713 39.5951 22.6938 39.35C22.7656 39.2711 22.8204 39.1783 22.8548 39.0773C22.8892 38.9763 22.9025 38.8693 22.8938 38.763C22.8878 38.363 22.7318 37.9001 21.5768 37.9001H6.80577C6.57277 37.9001 6.30578 37.9 6.04778 37.878C4.75478 37.766 4.29579 37.2691 4.29579 35.9781V9.20306H16.3858V23.943C16.3549 24.1422 16.3913 24.3458 16.489 24.522C16.5868 24.6982 16.7405 24.8369 16.9258 24.9161C17.0368 24.9651 17.1565 24.9916 17.2778 24.9941C17.4167 24.9843 17.5522 24.9468 17.6764 24.8837C17.8006 24.8207 17.9109 24.7333 18.0008 24.627C18.9401 23.7023 19.8828 22.7814 20.8288 21.8641L21.4778 21.2341C21.5778 21.1341 21.6778 21.0451 21.7778 20.9481L21.9268 20.8121L22.1268 20.6251L22.4818 20.955C22.5818 21.049 22.6738 21.133 22.7638 21.22L24.3158 22.7341L26.3158 24.6871C26.3976 24.7789 26.4971 24.8535 26.6082 24.9064C26.7193 24.9593 26.8399 24.9894 26.9628 24.9951C27.0812 24.9931 27.198 24.968 27.3068 24.9211C27.4881 24.8568 27.6422 24.7325 27.7434 24.5689C27.8447 24.4053 27.8871 24.212 27.8638 24.0211V9.18206H39.9448V20.368C39.937 20.6005 39.9571 20.8333 40.0048 21.0611C40.0461 21.2468 40.1522 21.4118 40.3041 21.5263C40.4561 21.6408 40.6439 21.6975 40.8338 21.6861H40.8548C41.0478 21.6896 41.2359 21.6247 41.3857 21.5027C41.5354 21.3808 41.6371 21.2098 41.6728 21.0201C41.7109 20.8049 41.7273 20.5864 41.7218 20.368V9.83502C41.6934 9.65866 41.7291 9.47801 41.8225 9.32574C41.9159 9.17347 42.0607 9.0597 42.2308 9.00506C42.6808 8.87016 43.0708 8.58449 43.3352 8.1961C43.5996 7.80771 43.7223 7.34018 43.6828 6.872C43.6828 6.511 43.6828 6.14809 43.6828 5.78509C43.7008 4.80309 43.7038 3.76298 43.6928 2.75298ZM16.3448 7.34405H2.3738V2.294H16.3448V7.34405ZM26.0828 21.825L25.6078 21.461L25.4968 21.378C25.4092 21.3176 25.3263 21.2508 25.2488 21.178C24.9435 20.8814 24.6391 20.5841 24.3358 20.2861C23.8608 19.8191 23.3688 19.3371 22.8808 18.8691C22.6873 18.6432 22.4146 18.5 22.1188 18.469C21.9734 18.4835 21.8324 18.527 21.7043 18.5971C21.5761 18.6672 21.4634 18.7624 21.3728 18.877C20.7858 19.483 20.2068 20.12 19.6468 20.735C19.4008 21.0064 19.1541 21.276 18.9068 21.544L18.7238 21.7441L18.1948 21.344V2.27801H26.0828V21.825ZM41.8908 7.33807H27.9108V2.28802H41.8908V7.33807Z" fill="black"/>
<path d="M38.8554 24.6133H38.8024C35.382 24.626 32.1057 25.9915 29.6887 28.4116C27.2717 30.8318 25.9105 34.1099 25.9024 37.5303C25.896 40.9573 27.2484 44.2471 29.6632 46.6788C32.0781 49.1105 35.3584 50.4858 38.7854 50.5033H38.8294C42.2595 50.4999 45.5487 49.1378 47.977 46.7151C50.4053 44.2924 51.775 41.0064 51.7864 37.5763C51.7806 34.1456 50.4174 30.8566 47.9945 28.4277C45.5716 25.9989 42.286 24.6275 38.8554 24.6133ZM38.8284 48.7533H38.7904C35.8279 48.7374 32.9924 47.5485 30.9046 45.4468C28.8167 43.3451 27.6466 40.5018 27.6504 37.5393C27.6623 34.582 28.8446 31.7498 30.9389 29.6619C33.0332 27.5739 35.8691 26.4002 38.8264 26.3973H38.8454C41.8041 26.405 44.6392 27.5848 46.73 29.6783C48.8207 31.7719 49.9967 34.6085 50.0004 37.5673C49.9967 40.5304 48.8189 43.3714 46.7249 45.468C44.631 47.5646 41.7915 48.7459 38.8284 48.7533Z" fill="black"/>
<path d="M33.2715 35.967C33.1923 35.8955 33.1293 35.808 33.0865 35.7102C33.0438 35.6125 33.0223 35.5068 33.0235 35.4001C33.0246 35.2936 33.0484 35.1884 33.0932 35.0917C33.1381 34.995 33.2029 34.9089 33.2835 34.8391C34.2185 33.8841 35.1705 32.9301 36.1145 32.0051C36.1857 31.9279 36.2715 31.8654 36.3669 31.8213C36.4623 31.7772 36.5655 31.7523 36.6705 31.748C36.7753 31.752 36.8782 31.7768 36.9733 31.8209C37.0684 31.865 37.1538 31.9277 37.2245 32.0051C37.3061 32.0734 37.3718 32.1585 37.4172 32.2546C37.4626 32.3508 37.4866 32.4558 37.4875 32.5621C37.4884 32.6684 37.4663 32.7735 37.4226 32.8704C37.3789 32.9672 37.3147 33.0534 37.2345 33.123C37.0964 33.2662 36.9512 33.4025 36.7995 33.5311C36.7095 33.6091 36.6135 33.6931 36.5125 33.7881C36.4499 33.8455 36.4052 33.9196 36.3835 34.0017C36.3619 34.0838 36.3643 34.1703 36.3905 34.2511C36.4172 34.3315 36.4665 34.4025 36.5324 34.4557C36.5984 34.5089 36.6782 34.5421 36.7625 34.5511C36.8345 34.5581 36.8935 34.5671 36.9435 34.5731C37.0332 34.5872 37.1237 34.5951 37.2145 34.597H39.4705L38.6845 36.1971H36.9385C36.8604 36.1972 36.7836 36.2177 36.716 36.2568C36.6484 36.296 36.5924 36.3523 36.5535 36.42L36.4955 36.5201C36.4461 36.6072 36.4278 36.7083 36.4434 36.8071C36.459 36.9059 36.5077 36.9965 36.5815 37.0641C36.6565 37.1331 36.7335 37.201 36.8105 37.264C36.9657 37.3948 37.1139 37.5337 37.2545 37.6801C37.3316 37.749 37.3931 37.8338 37.4348 37.9285C37.4766 38.0232 37.4976 38.1257 37.4965 38.2291C37.4953 38.3327 37.4719 38.4349 37.4279 38.5287C37.3839 38.6225 37.3204 38.7058 37.2415 38.7731C37.1699 38.8546 37.0826 38.9207 36.9849 38.9677C36.8871 39.0146 36.7808 39.0413 36.6725 39.0461C36.4677 39.0377 36.2747 38.9485 36.1355 38.7981C35.1415 37.8571 34.1785 36.897 33.2715 35.967Z" fill="black"/>
<path d="M35.1479 41.8058H35.9399L35.1569 43.4059H34.6479C34.3731 43.4191 34.1039 43.3243 33.8979 43.1418C33.829 43.0701 33.7753 42.9853 33.7399 42.8923C33.7045 42.7994 33.6882 42.7002 33.6919 42.6008C33.6919 42.0158 34.1919 41.8008 34.6619 41.8008L35.1479 41.8058Z" fill="black"/>
<path d="M41.2391 43.2917C40.9082 43.3656 40.5701 43.4021 40.2311 43.4008C39.3644 43.4074 38.4944 43.4103 37.6211 43.4097L38.4051 41.8097C39.0198 41.8097 39.6344 41.8077 40.2491 41.8037C40.7867 41.8241 41.3178 41.68 41.7715 41.3907C42.2251 41.1015 42.5798 40.6808 42.7881 40.1847C43.0185 39.7038 43.1048 39.1666 43.0365 38.6378C42.9682 38.109 42.7482 37.6112 42.4031 37.2047C42.081 36.7694 41.6239 36.453 41.1031 36.3047L41.8031 34.8848C42.5752 35.1724 43.2507 35.6714 43.7526 36.3248C44.2544 36.9782 44.5623 37.7596 44.6411 38.5797C44.7473 39.6448 44.4602 40.712 43.8339 41.58C43.2075 42.4479 42.2853 43.0568 41.2411 43.2917H41.2391Z" fill="black"/>
<path d="M34.9354 46.3755C34.7779 46.2974 34.6578 46.1601 34.6014 45.9935C34.5734 45.9109 34.5621 45.8236 34.5679 45.7366C34.5737 45.6496 34.5967 45.5646 34.6354 45.4865L41.3744 31.8195C41.4524 31.6622 41.5896 31.5423 41.7559 31.4861C41.9222 31.4298 42.104 31.4419 42.2614 31.5195C42.419 31.5978 42.5391 31.7353 42.5953 31.902C42.6515 32.0687 42.6393 32.2508 42.5614 32.4085L35.8224 46.0765C35.7444 46.2338 35.6072 46.3536 35.4409 46.4098C35.2746 46.466 35.0928 46.4531 34.9354 46.3755Z" fill="black"/>
</g>
<defs>
<clipPath id="clip0_86_3327">
<rect width="51.287" height="50.003" fill="white" transform="translate(0.5 0.5)"/>
</clipPath>
</defs>
</svg>
