<svg xmlns="http://www.w3.org/2000/svg" width="133" height="133" viewBox="0 0 133 133">
  <g id="orderplaced" transform="translate(-460 -1265)">
    <rect id="Rectangle_2641" data-name="Rectangle 2641" width="133" height="133" transform="translate(460 1265)" fill="none"/>
    <g id="orderplaced-2" data-name="orderplaced" transform="translate(469.519 1267.305)">
      <g id="Group_5122" data-name="Group 5122">
        <path id="Path_5878" data-name="Path 5878" d="M142.577,253.866,133.6,236.243a2.505,2.505,0,0,0-2.232-1.368H40.849a2.505,2.505,0,0,0-2.233,1.369l-8.973,17.624a2.505,2.505,0,0,0,2.232,3.642H35v44.218a2.5,2.5,0,0,0,2.505,2.505h97.2a2.505,2.505,0,0,0,2.505-2.505v-44.22h3.134a2.5,2.5,0,0,0,2.233-3.642Zm-12.741-13.982,6.422,12.614H96.619L90.2,239.884Zm-87.451,0H82.024L75.6,252.5H35.963ZM132.2,299.221H88.616V285.337a2.5,2.5,0,1,0-5.01,0v13.884H40.014V257.508H77.138a2.505,2.505,0,0,0,2.233-1.369l4.235-8.319v15.022a2.505,2.505,0,0,0,5.01,0V247.821l4.235,8.319a2.505,2.505,0,0,0,2.232,1.368H132.2Z" transform="translate(-29.37 -176.09)" fill="#6133bd"/>
        <path id="Path_5879" data-name="Path 5879" d="M120.187,436.98H105.923a2.505,2.505,0,0,0,0,5.01h14.264a2.505,2.505,0,1,0,0-5.01Z" transform="translate(-84.87 -327.57)" fill="#6133bd"/>
        <path id="Path_5880" data-name="Path 5880" d="M178.939,51.62a25.71,25.71,0,1,0-25.714-25.7,25.709,25.709,0,0,0,25.714,25.7Zm0-46.46a20.725,20.725,0,1,1-20.7,20.714,20.725,20.725,0,0,1,20.7-20.714Z" transform="translate(-122.2 -0.2)" fill="#6133bd"/>
        <path id="Path_5881" data-name="Path 5881" d="M208.39,76.544l6.668,5.652a2.5,2.5,0,0,0,1.62.594q.107,0,.214-.009a2.5,2.5,0,0,0,1.707-.889l12.548-15A2.506,2.506,0,1,0,227.3,63.68L216.37,76.743l-4.744-4.022a2.505,2.505,0,0,0-3.24,3.822Z" transform="translate(-162.88 -47.11)" fill="#6133bd"/>
        <path id="Path_5882" data-name="Path 5882" d="M51.925,97.73H62.763a2.505,2.505,0,0,0,0-5.01H51.925a2.505,2.505,0,0,0,0,5.01Z" transform="translate(-44.4 -69.54)" fill="#6133bd"/>
        <path id="Path_5883" data-name="Path 5883" d="M50.755,29.011l10.838,5.716A2.505,2.505,0,1,0,63.931,30.3L53.092,24.58a2.5,2.5,0,1,0-2.337,4.431Z" transform="translate(-44.4 -18.26)" fill="#6133bd"/>
        <path id="Path_5884" data-name="Path 5884" d="M49.707,147.734a2.5,2.5,0,0,0,3.384,1.049l10.838-5.709a2.506,2.506,0,1,0-2.335-4.434l-10.838,5.71A2.505,2.505,0,0,0,49.707,147.734Z" transform="translate(-44.4 -103.74)" fill="#6133bd"/>
        <path id="Path_5885" data-name="Path 5885" d="M401.536,97.73h10.839a2.505,2.505,0,0,0,0-5.01H401.536a2.505,2.505,0,0,0,0,5.01Z" transform="translate(-306.43 -69.54)" fill="#6133bd"/>
        <path id="Path_5886" data-name="Path 5886" d="M401.535,35.017a2.494,2.494,0,0,0,1.166-.29l10.839-5.716a2.505,2.505,0,1,0-2.34-4.431L400.364,30.3a2.5,2.5,0,0,0,1.171,4.721Z" transform="translate(-306.43 -18.26)" fill="#6133bd"/>
        <path id="Path_5887" data-name="Path 5887" d="M400.365,143.069l10.838,5.709a2.506,2.506,0,1,0,2.335-4.434L402.7,138.635a2.506,2.506,0,1,0-2.335,4.434Z" transform="translate(-306.43 -103.74)" fill="#6133bd"/>
        <path id="Path_5888" data-name="Path 5888" d="M248.378,381.423a2.505,2.505,0,0,0-2.505,2.505v.014a2.5,2.5,0,1,0,2.505-2.519Z" transform="translate(-191.64 -285.93)" fill="#6133bd"/>
      </g>
    </g>
  </g>
</svg>
