<svg width="134" height="134" viewBox="0 0 134 134" fill="none" xmlns="http://www.w3.org/2000/svg">
<g clip-path="url(#clip0_86_3337)">
<path d="M123.226 80.5808L114.249 62.9578C114.04 62.5462 113.72 62.2005 113.326 61.9591C112.932 61.7176 112.479 61.5899 112.017 61.5898H21.4984C21.0362 61.5898 20.5829 61.7176 20.1888 61.9592C19.7946 62.2009 19.4751 62.5468 19.2654 62.9588L10.2924 80.5828C10.0979 80.9647 10.0046 81.3901 10.0215 81.8184C10.0383 82.2466 10.1648 82.6634 10.3887 83.0288C10.6127 83.3942 10.9266 83.696 11.3005 83.9055C11.6745 84.1149 12.0959 84.2248 12.5244 84.2249H15.6494V128.443C15.6488 128.772 15.7131 129.098 15.8388 129.402C15.9644 129.706 16.1489 129.983 16.3817 130.216C16.6144 130.448 16.8908 130.633 17.195 130.759C17.4992 130.884 17.8253 130.949 18.1544 130.948H115.354C116.019 130.948 116.656 130.684 117.126 130.214C117.596 129.744 117.859 129.107 117.859 128.443V84.2228H120.993C121.423 84.2244 121.845 84.1154 122.22 83.9065C122.595 83.6975 122.909 83.3955 123.134 83.0296C123.358 82.6637 123.485 82.2462 123.501 81.8174C123.517 81.3885 123.422 80.9626 123.226 80.5808ZM110.485 66.5988L116.907 79.2128H77.2684L70.8494 66.5988H110.485ZM23.0344 66.5988H62.6734L56.2494 79.2148H16.6124L23.0344 66.5988ZM112.849 125.936H69.2654V112.052C69.2654 111.387 69.0015 110.75 68.5317 110.281C68.062 109.811 67.4248 109.547 66.7604 109.547C66.0961 109.547 65.4589 109.811 64.9891 110.281C64.5194 110.75 64.2554 111.387 64.2554 112.052V125.936H20.6634V84.2228H57.7874C58.2497 84.2229 58.703 84.0951 59.0971 83.8535C59.4912 83.6118 59.8108 83.2659 60.0204 82.8539L64.2554 74.5349V89.5569C64.2554 90.2212 64.5194 90.8584 64.9891 91.3282C65.4589 91.7979 66.0961 92.0618 66.7604 92.0618C67.4248 92.0618 68.062 91.7979 68.5317 91.3282C69.0015 90.8584 69.2654 90.2212 69.2654 89.5569V74.5358L73.5004 82.8549C73.7101 83.2665 74.0296 83.6122 74.4235 83.8536C74.8174 84.095 75.2704 84.2228 75.7324 84.2228H112.849V125.936Z" fill="#FF0000"/>
<path d="M45.3354 112.215H31.0714C30.407 112.215 29.7699 112.479 29.3001 112.949C28.8303 113.418 28.5664 114.055 28.5664 114.72C28.5664 115.384 28.8303 116.021 29.3001 116.491C29.7699 116.961 30.407 117.225 31.0714 117.225H45.3354C45.9998 117.225 46.6369 116.961 47.1067 116.491C47.5765 116.021 47.8404 115.384 47.8404 114.72C47.8404 114.055 47.5765 113.418 47.1067 112.949C46.6369 112.479 45.9998 112.215 45.3354 112.215Z" fill="#FF0000"/>
<path d="M66.757 54.2247C71.8422 54.2239 76.8129 52.7151 81.0406 49.8891C85.2683 47.0632 88.563 43.0469 90.508 38.3484C92.453 33.6499 92.961 28.4801 91.9677 23.4928C90.9744 18.5055 88.5245 13.9248 84.9277 10.33C81.331 6.73522 76.7489 4.28777 71.7611 3.2972C66.7733 2.30663 61.6038 2.81743 56.9063 4.76501C52.2088 6.71259 48.1944 10.0095 45.3707 14.2387C42.5471 18.4679 41.041 23.4395 41.043 28.5247C41.0454 35.3425 43.7557 41.8801 48.5779 46.6997C53.4001 51.5192 59.9392 54.226 66.757 54.2247ZM66.757 7.7647C70.8575 7.75975 74.8674 8.97133 78.2791 11.2461C81.6908 13.5209 84.3511 16.7566 85.9232 20.5438C87.4954 24.331 87.9087 28.4994 87.111 32.5216C86.3132 36.5438 84.3402 40.239 81.4417 43.1395C78.5432 46.04 74.8493 48.0155 70.8277 48.816C66.806 49.6164 62.6373 49.2059 58.849 47.6363C55.0608 46.0667 51.8232 43.4087 49.5461 39.9985C47.2691 36.5883 46.0548 32.5792 46.057 28.4787C46.0599 22.9883 48.2413 17.7234 52.1222 13.8399C56.0032 9.95626 61.2666 7.77132 66.757 7.7647Z" fill="#FF0000"/>
<path d="M55.5299 32.2388L62.1979 37.8908C62.6503 38.2748 63.2245 38.4853 63.8179 38.4848C63.8892 38.4848 63.9606 38.4818 64.0319 38.4758C64.361 38.4478 64.6814 38.3547 64.9744 38.2022C65.2674 38.0496 65.5272 37.8404 65.7389 37.5868L78.2869 22.5868C78.5026 22.3348 78.6661 22.0425 78.768 21.7269C78.8699 21.4112 78.9081 21.0785 78.8804 20.748C78.8527 20.4175 78.7597 20.0957 78.6067 19.8014C78.4537 19.5071 78.2438 19.2461 77.9892 19.0335C77.7346 18.8209 77.4404 18.661 77.1235 18.563C76.8066 18.465 76.4734 18.4309 76.1433 18.4627C75.8131 18.4944 75.4925 18.5914 75.2001 18.748C74.9077 18.9045 74.6493 19.1176 74.4399 19.3748L63.5099 32.4378L58.7659 28.4158C58.2591 27.9862 57.6023 27.7754 56.9401 27.83C56.2779 27.8846 55.6645 28.2 55.2349 28.7068C54.8052 29.2136 54.5945 29.8704 54.6491 30.5326C54.7037 31.1948 55.0191 31.8082 55.5259 32.2378L55.5299 32.2388Z" fill="#FF0000"/>
<path d="M17.5441 30.9944H28.3821C29.0464 30.9944 29.6836 30.7305 30.1534 30.2607C30.6231 29.7909 30.8871 29.1537 30.8871 28.4894C30.8871 27.825 30.6231 27.1878 30.1534 26.7181C29.6836 26.2483 29.0464 25.9844 28.3821 25.9844H17.5441C16.8797 25.9844 16.2425 26.2483 15.7728 26.7181C15.303 27.1878 15.0391 27.825 15.0391 28.4894C15.0391 29.1537 15.303 29.7909 15.7728 30.2607C16.2425 30.7305 16.8797 30.9944 17.5441 30.9944Z" fill="#FF0000"/>
<path d="M16.3753 13.5562L27.2133 19.2722C27.5051 19.4406 27.8278 19.5485 28.1623 19.5893C28.4967 19.6301 28.8359 19.603 29.1596 19.5097C29.4833 19.4164 29.7849 19.2587 30.0462 19.0461C30.3076 18.8335 30.5234 18.5704 30.6807 18.2725C30.8381 17.9746 30.9337 17.6481 30.9619 17.3124C30.9901 16.9766 30.9503 16.6387 30.8448 16.3187C30.7394 15.9987 30.5705 15.7033 30.3482 15.4501C30.126 15.197 29.8549 14.9912 29.5513 14.8452L18.7123 9.1252C18.1247 8.8153 17.4381 8.7515 16.8035 8.94785C16.1689 9.1442 15.6382 9.58462 15.3283 10.1722C15.0184 10.7598 14.9546 11.4464 15.151 12.081C15.3473 12.7157 15.7877 13.2463 16.3753 13.5562Z" fill="#FF0000"/>
<path d="M15.3278 46.7978C15.4806 47.0894 15.6895 47.3479 15.9425 47.5585C16.1954 47.7691 16.4875 47.9277 16.8019 48.0252C17.1163 48.1227 17.4469 48.1571 17.7747 48.1265C18.1024 48.0958 18.4209 48.0008 18.7118 47.8468L29.5498 42.1378C29.8469 41.9879 30.1111 41.7803 30.3271 41.5272C30.5431 41.274 30.7065 40.9805 30.8078 40.6635C30.9091 40.3465 30.9463 40.0126 30.9172 39.6811C30.888 39.3496 30.7932 39.0273 30.6381 38.7329C30.4831 38.4384 30.2709 38.1778 30.0141 37.9663C29.7573 37.7547 29.4609 37.5964 29.1422 37.5006C28.8235 37.4048 28.489 37.3735 28.1581 37.4083C27.8271 37.4432 27.5065 37.5437 27.2148 37.7038L16.3768 43.4138C16.0857 43.5671 15.8277 43.7762 15.6174 44.0293C15.4072 44.2823 15.2488 44.5743 15.1514 44.8885C15.054 45.2028 15.0194 45.5331 15.0497 45.8607C15.08 46.1883 15.1745 46.5067 15.3278 46.7978Z" fill="#FF0000"/>
<path d="M105.126 30.9944H115.965C116.629 30.9944 117.267 30.7305 117.736 30.2607C118.206 29.7909 118.47 29.1537 118.47 28.4894C118.47 27.825 118.206 27.1878 117.736 26.7181C117.267 26.2483 116.629 25.9844 115.965 25.9844H105.126C104.462 25.9844 103.825 26.2483 103.355 26.7181C102.885 27.1878 102.621 27.825 102.621 28.4894C102.621 29.1537 102.885 29.7909 103.355 30.2607C103.825 30.7305 104.462 30.9944 105.126 30.9944Z" fill="#FF0000"/>
<path d="M105.125 19.5609C105.532 19.5607 105.932 19.4612 106.291 19.271L117.13 13.5549C117.718 13.2446 118.158 12.7136 118.354 12.0787C118.55 11.4438 118.486 10.757 118.176 10.1694C118.022 9.87851 117.813 9.62067 117.559 9.41068C117.306 9.20068 117.014 9.04262 116.699 8.94554C116.064 8.74947 115.378 8.81365 114.79 9.12395L103.954 14.8439C103.454 15.1021 103.056 15.5211 102.824 16.0333C102.592 16.5456 102.54 17.1211 102.675 17.6669C102.81 18.2127 103.126 18.697 103.571 19.0414C104.015 19.3858 104.563 19.5702 105.125 19.5649V19.5609Z" fill="#FF0000"/>
<path d="M103.955 42.1339L114.793 47.8429C115.085 48.003 115.405 48.1035 115.736 48.1383C116.067 48.1732 116.402 48.1418 116.721 48.0461C117.039 47.9503 117.336 47.792 117.592 47.5804C117.849 47.3688 118.061 47.1082 118.216 46.8138C118.371 46.5194 118.466 46.197 118.495 45.8656C118.525 45.5341 118.487 45.2001 118.386 44.8832C118.285 44.5662 118.121 44.2726 117.905 44.0195C117.689 43.7664 117.425 43.5588 117.128 43.4089L106.29 37.6999C105.998 37.5397 105.678 37.4393 105.347 37.4044C105.016 37.3696 104.681 37.4009 104.363 37.4967C104.044 37.5925 103.748 37.7508 103.491 37.9624C103.234 38.1739 103.022 38.4345 102.867 38.7289C102.712 39.0234 102.617 39.3457 102.588 39.6772C102.559 40.0087 102.596 40.3426 102.697 40.6596C102.798 40.9765 102.962 41.2701 103.178 41.5233C103.394 41.7764 103.658 41.984 103.955 42.1339Z" fill="#FF0000"/>
<path d="M66.7589 98.2969C66.0945 98.2969 65.4574 98.5608 64.9876 99.0306C64.5178 99.5004 64.2539 100.138 64.2539 100.802V100.816C64.2577 101.309 64.4073 101.791 64.6841 102.199C64.9608 102.608 65.3523 102.925 65.8091 103.112C66.266 103.298 66.7678 103.345 67.2513 103.247C67.7349 103.149 68.1786 102.91 68.5265 102.56C68.8745 102.21 69.1111 101.765 69.2066 101.281C69.3021 100.797 69.2522 100.295 69.0632 99.8393C68.8742 99.3835 68.5545 98.9938 68.1445 98.7193C67.7344 98.4449 67.2523 98.2979 66.7589 98.2969Z" fill="#FF0000"/>
</g>
<defs>
<clipPath id="clip0_86_3337">
<rect width="133" height="133" fill="white" transform="translate(0.5 0.5)"/>
</clipPath>
</defs>
</svg>
