<svg width="19" height="24" viewBox="0 0 19 24" fill="none" xmlns="http://www.w3.org/2000/svg">
<g clip-path="url(#clip0_86_3353)">
<path d="M9.5 0.499666C7.8759 0.462451 6.30282 1.06809 5.12299 2.18481C3.94315 3.30153 3.25204 4.83898 3.2 6.46267V8.91167C2.3517 9.69194 1.67121 10.6368 1.2 11.6887C0.738751 12.7249 0.500271 13.8464 0.5 14.9807C0.569333 17.302 1.55509 19.5013 3.24167 21.0978C4.92825 22.6942 7.1784 23.5578 9.5 23.4997C11.8216 23.5578 14.0717 22.6942 15.7583 21.0978C17.4449 19.5013 18.4307 17.302 18.5 14.9807C18.4999 13.8461 18.2614 12.7242 17.8 11.6877C17.3288 10.6358 16.6483 9.69096 15.8 8.91067V6.46267C15.748 4.83898 15.0568 3.30153 13.877 2.18481C12.6972 1.06809 11.1241 0.462451 9.5 0.499666ZM9.5 2.19967C10.6607 2.17059 11.7857 2.60232 12.629 3.40043C13.4723 4.19855 13.9652 5.29811 14 6.45867V7.63367C12.6245 6.8656 11.0754 6.46238 9.5 6.46238C7.92462 6.46238 6.37546 6.8656 5 7.63367V6.46267C5.03376 5.30141 5.52624 4.20082 6.36963 3.40185C7.21302 2.60288 8.33861 2.17061 9.5 2.19967ZM9.5 8.16667C10.4206 8.14004 11.3374 8.29534 12.1978 8.62365C13.0583 8.95197 13.8455 9.44685 14.5143 10.0799C15.1832 10.713 15.7205 11.4719 16.0956 12.313C16.4707 13.1541 16.676 14.061 16.7 14.9817C16.6764 15.9026 16.4713 16.8098 16.0964 17.6512C15.7216 18.4927 15.1843 19.2519 14.5154 19.8853C13.8465 20.5187 13.0591 21.0139 12.1985 21.3424C11.3378 21.6709 10.4208 21.8263 9.5 21.7997C8.57942 21.8263 7.66264 21.671 6.80219 21.3427C5.94174 21.0144 5.15453 20.5195 4.48567 19.8864C3.81682 19.2533 3.27946 18.4945 2.90441 17.6533C2.52935 16.8122 2.32395 15.9053 2.3 14.9847C2.32357 14.0638 2.52867 13.1566 2.90356 12.3151C3.27845 11.4736 3.81574 10.7144 4.48463 10.081C5.15353 9.44759 5.94087 8.95244 6.80151 8.62394C7.66216 8.29544 8.57918 8.14004 9.5 8.16667ZM9.5 13.2777C9.02743 13.2759 8.57205 13.4548 8.227 13.7777C8.06227 13.9314 7.93058 14.1171 7.83998 14.3234C7.74937 14.5297 7.70174 14.7523 7.7 14.9777C7.70372 15.2804 7.78936 15.5764 7.94782 15.8344C8.10629 16.0923 8.33166 16.3025 8.6 16.4427V19.2367H10.4V16.4467C10.6683 16.3065 10.8937 16.0963 11.0522 15.8384C11.2106 15.5804 11.2963 15.2844 11.3 14.9817C11.2983 14.7563 11.2506 14.5337 11.16 14.3274C11.0694 14.1211 10.9377 13.9354 10.773 13.7817C10.4286 13.4573 9.97311 13.277 9.5 13.2777Z" fill="#C4C4C4"/>
</g>
<defs>
<clipPath id="clip0_86_3353">
<rect width="18" height="23" fill="white" transform="translate(0.5 0.5)"/>
</clipPath>
</defs>
</svg>
