<svg width="59" height="29" viewBox="0 0 59 29" fill="none" xmlns="http://www.w3.org/2000/svg">
<g clip-path="url(#clip0_86_3356)">
<path d="M55.5 0.5H3.5C1.84315 0.5 0.5 1.84315 0.5 3.5V25.5C0.5 27.1569 1.84315 28.5 3.5 28.5H55.5C57.1569 28.5 58.5 27.1569 58.5 25.5V3.5C58.5 1.84315 57.1569 0.5 55.5 0.5Z" fill="white"/>
<path d="M36.849 19.2609C36.0671 19.7339 35.2384 20.1246 34.376 20.4269C33.4354 20.794 32.4512 21.0377 31.448 21.1519C31.021 21.1519 30.581 21.2799 30.14 21.3229C26.04 21.6809 22.534 20.7959 20.53 18.9049V19.1319C20.5401 19.9718 20.8533 20.7797 21.412 21.4069C23.034 23.2699 26.16 24.2499 29.8 24.3499C31.9407 24.3784 34.0616 23.9367 36.013 23.0559C36.813 22.6884 37.5327 22.1667 38.131 21.5209C38.7016 20.9037 39.0298 20.101 39.055 19.2609C39.0564 18.7316 38.9298 18.2097 38.686 17.7399C38.151 18.3325 37.5333 18.8447 36.852 19.2609H36.849ZM29.74 16.6849C25.901 16.9849 22.631 16.2579 20.54 14.6239C20.6018 15.3858 20.9056 16.108 21.407 16.6849C23.029 18.5479 26.155 19.5279 29.795 19.6279C31.9706 19.6886 34.1322 19.2611 36.121 18.3769C36.9226 18.012 37.6428 17.4901 38.239 16.8419C38.7905 16.1965 39.0887 15.3727 39.078 14.5239C39.0772 13.8715 38.8846 13.2337 38.524 12.6899C37.998 13.4149 35.738 16.2199 29.65 16.6709L29.74 16.6849ZM29.74 14.9499C31.9158 15.012 34.0777 14.5845 36.066 13.6989C36.8982 13.3392 37.6472 12.8115 38.266 12.1489C38.8378 11.5325 39.1661 10.7293 39.19 9.8889C39.1731 9.03886 38.8459 8.22436 38.27 7.5989C36.635 5.7219 33.522 4.7559 29.882 4.6559C27.7051 4.59604 25.5424 5.02489 23.553 5.9109C22.7448 6.26637 22.015 6.77858 21.406 7.4179C20.8367 8.0503 20.5149 8.86709 20.5 9.7179C20.509 10.5625 20.8221 11.3755 21.382 12.0079C23 13.8699 26.13 14.8789 29.742 14.9499H29.74ZM22.632 7.8499C23.514 6.7699 26.258 5.7169 29.471 5.7749C31.3247 5.74823 33.1609 6.13672 34.845 6.9119C35.3848 7.16262 35.8685 7.51976 36.267 7.9619C36.5055 8.20723 36.6475 8.53032 36.667 8.8719C36.6442 9.21507 36.4979 9.53837 36.255 9.7819C35.373 10.8619 32.629 11.9149 29.416 11.8569C27.5715 11.8982 25.7408 11.5297 24.056 10.7779C23.5183 10.5236 23.0353 10.1669 22.634 9.7279C22.4133 9.47335 22.2919 9.14777 22.2919 8.8109C22.2919 8.47402 22.4133 8.14845 22.634 7.8939L22.632 7.8499Z" fill="url(#paint0_linear_86_3356)"/>
</g>
<defs>
<linearGradient id="paint0_linear_86_3356" x1="27.8265" y1="33.0589" x2="24.2387" y2="63.9086" gradientUnits="userSpaceOnUse">
<stop offset="0.02" stop-color="#ED1C24"/>
<stop offset="1" stop-color="#BE1E2D"/>
</linearGradient>
<clipPath id="clip0_86_3356">
<rect width="58" height="28" fill="white" transform="translate(0.5 0.5)"/>
</clipPath>
</defs>
</svg>
