<svg width="59" height="29" viewBox="0 0 59 29" fill="none" xmlns="http://www.w3.org/2000/svg">
<g clip-path="url(#clip0_86_3360)">
<path d="M55.5 0.5H3.5C1.84315 0.5 0.5 1.84315 0.5 3.5V25.5C0.5 27.1569 1.84315 28.5 3.5 28.5H55.5C57.1569 28.5 58.5 27.1569 58.5 25.5V3.5C58.5 1.84315 57.1569 0.5 55.5 0.5Z" fill="white"/>
<path d="M26.3054 23.8275L26.6344 21.6615H22.2344L24.7284 5.50455C24.793 5.37521 24.8577 5.31055 24.9224 5.31055H31.0924C33.1274 5.31055 34.5714 5.77055 35.2924 6.62355C35.6234 6.97007 35.8506 7.40242 35.9484 7.87155C36.0807 8.43286 36.0807 9.01723 35.9484 9.57855V10.1035L36.2774 10.2975C36.5661 10.3939 36.8182 10.5769 36.9994 10.8215C37.2993 11.1807 37.503 11.6101 37.5914 12.0695C37.6653 12.6829 37.643 13.304 37.5254 13.9105C37.4131 14.6581 37.1446 15.3737 36.7374 16.0105C36.4324 16.5209 36.0309 16.9668 35.5554 17.3235C35.0672 17.6804 34.5073 17.9268 33.9144 18.0455C33.2483 18.211 32.5656 18.2999 31.8794 18.3105H31.4194C31.0858 18.3196 30.7639 18.4349 30.5004 18.6395C30.365 18.7384 30.2535 18.8663 30.1741 19.014C30.0947 19.1616 30.0493 19.3251 30.0414 19.4925L29.9754 19.6865L29.3854 23.5645V23.6955C29.3854 23.7615 29.3854 23.7615 29.3194 23.7615H29.2574C29.2574 23.8275 26.3054 23.8275 26.3054 23.8275Z" fill="#253B80"/>
<path d="M36.6 9.625V9.955C35.807 14.182 32.968 15.568 29.4 15.568H27.553C27.3464 15.5655 27.1459 15.6375 26.9881 15.7709C26.8304 15.9042 26.7259 16.0899 26.694 16.294L25.768 22.172L25.505 23.825C25.439 24.089 25.637 24.287 25.905 24.353H29.205C29.3949 24.358 29.5801 24.2936 29.726 24.172C29.872 24.0503 29.9686 23.8797 29.998 23.692V23.561L30.592 19.731L30.658 19.531C30.6873 19.3433 30.784 19.1727 30.9299 19.051C31.0758 18.9294 31.2611 18.865 31.451 18.87H31.911C35.011 18.87 37.459 17.614 38.185 13.916C38.3818 13.2917 38.4245 12.6291 38.3094 11.9847C38.1943 11.3404 37.9248 10.7335 37.524 10.216C37.2521 9.96805 36.9399 9.76819 36.601 9.625H36.6Z" fill="#179BD7"/>
<path d="M35.8093 9.36442C35.5644 9.23638 35.2927 9.16786 35.0163 9.16442C34.4912 9.08868 33.9618 9.0456 33.4313 9.03542H28.5443C28.3544 9.03047 28.1692 9.09483 28.0232 9.21647C27.8773 9.33811 27.7806 9.50872 27.7513 9.69642L26.6953 16.2354V16.4354C26.7255 16.2305 26.8294 16.0437 26.9876 15.91C27.1457 15.7764 27.3473 15.705 27.5543 15.7094H29.4023C32.9693 15.7094 35.7423 14.2574 36.6023 10.0964V9.69642C36.3946 9.58034 36.1728 9.49161 35.9423 9.43242C35.9084 9.39343 35.8608 9.36906 35.8093 9.36442Z" fill="#222D65"/>
<path d="M27.8116 9.70439C27.8409 9.51837 27.9369 9.3494 28.0818 9.22904C28.2266 9.10868 28.4103 9.04518 28.5985 9.05039H33.4565C33.9841 9.05619 34.5104 9.1003 35.0316 9.18239C35.3658 9.24112 35.6939 9.33084 36.0115 9.45039C36.2346 9.52664 36.4536 9.61443 36.6676 9.71339C36.8259 9.09803 36.8308 8.45322 36.6819 7.83551C36.533 7.21779 36.2348 6.64604 35.8135 6.17039C34.8965 5.10939 33.2556 4.65039 31.0906 4.65039H24.9196C24.717 4.65818 24.523 4.73348 24.3682 4.86432C24.2135 4.99516 24.1069 5.174 24.0656 5.37239L21.5116 21.6504C21.4961 21.7201 21.4962 21.7924 21.5118 21.862C21.5275 21.9317 21.5584 21.9971 21.6022 22.0534C21.646 22.1098 21.7018 22.1558 21.7655 22.1881C21.8291 22.2204 21.8992 22.2383 21.9706 22.2404H25.8475L26.7666 16.2024L27.8116 9.70439Z" fill="#253B80"/>
</g>
<defs>
<clipPath id="clip0_86_3360">
<rect width="58" height="28" fill="white" transform="translate(0.5 0.5)"/>
</clipPath>
</defs>
</svg>
