<svg width="59" height="29" viewBox="0 0 59 29" fill="none" xmlns="http://www.w3.org/2000/svg">
<g clip-path="url(#clip0_86_3368)">
<path d="M55.5 0.5H3.5C1.84315 0.5 0.5 1.84315 0.5 3.5V25.5C0.5 27.1569 1.84315 28.5 3.5 28.5H55.5C57.1569 28.5 58.5 27.1569 58.5 25.5V3.5C58.5 1.84315 57.1569 0.5 55.5 0.5Z" fill="white"/>
<path d="M37.4492 4.625H20.5022C20.2238 4.62761 19.9574 4.73939 19.7605 4.9363C19.5636 5.13321 19.4518 5.39953 19.4492 5.678V7.566C19.4492 7.84527 19.5602 8.11311 19.7576 8.31058C19.9551 8.50806 20.223 8.619 20.5022 8.619H37.4492C37.7297 8.61775 37.9986 8.50694 38.1985 8.31021C38.3984 8.11348 38.5135 7.84641 38.5192 7.566V5.695C38.5192 5.41122 38.4065 5.13906 38.2058 4.9384C38.0052 4.73773 37.733 4.625 37.4492 4.625ZM37.4492 15.137H20.5022C20.223 15.137 19.9551 15.2479 19.7576 15.4454C19.5602 15.6429 19.4492 15.9107 19.4492 16.19V18.078C19.4491 18.2164 19.4762 18.3534 19.5291 18.4813C19.582 18.6091 19.6595 18.7253 19.7573 18.8232C19.8551 18.9211 19.9712 18.9988 20.099 19.0518C20.2269 19.1047 20.3639 19.132 20.5022 19.132H37.4492C37.7301 19.132 37.9997 19.0216 38.1999 18.8246C38.4001 18.6276 38.5148 18.3598 38.5192 18.079V16.19C38.5187 16.0504 38.4906 15.9123 38.4364 15.7837C38.3822 15.6551 38.3031 15.5384 38.2036 15.4405C38.1042 15.3426 37.9863 15.2654 37.8568 15.2133C37.7273 15.1612 37.5888 15.1353 37.4492 15.137ZM30.0432 20.377H20.5022C20.3636 20.377 20.2264 20.4044 20.0983 20.4575C19.9703 20.5107 19.8541 20.5886 19.7562 20.6868C19.6584 20.785 19.5809 20.9016 19.5282 21.0298C19.4756 21.158 19.4487 21.2954 19.4492 21.434V23.325C19.45 23.6038 19.5613 23.8708 19.7587 24.0676C19.9561 24.2645 20.2235 24.375 20.5022 24.375H30.0312C30.31 24.375 30.5774 24.2645 30.7748 24.0676C30.9721 23.8708 31.0834 23.6038 31.0842 23.325V21.434C31.0868 21.2961 31.0617 21.1591 31.0105 21.0311C30.9593 20.903 30.883 20.7865 30.7861 20.6884C30.6892 20.5903 30.5736 20.5125 30.4462 20.4597C30.3188 20.4069 30.1821 20.3802 30.0442 20.381L30.0432 20.377ZM38.5152 9.877H20.5022C20.3635 9.877 20.2262 9.9044 20.0981 9.95763C19.97 10.0109 19.8537 10.0889 19.7559 10.1872C19.658 10.2855 19.5806 10.4022 19.5279 10.5305C19.4753 10.6588 19.4486 10.7963 19.4492 10.935V12.825C19.4492 13.1043 19.5602 13.3721 19.7576 13.5696C19.9551 13.7671 20.223 13.878 20.5022 13.878H38.5022C38.7815 13.878 39.0493 13.7671 39.2468 13.5696C39.4443 13.3721 39.5552 13.1043 39.5552 12.825V10.935C39.5567 10.7974 39.5309 10.6609 39.4793 10.5333C39.4277 10.4058 39.3513 10.2897 39.2547 10.1918C39.158 10.0939 39.0428 10.0161 38.9159 9.96293C38.789 9.90976 38.6528 9.88226 38.5152 9.882V9.877Z" fill="#00C3F7"/>
</g>
<defs>
<clipPath id="clip0_86_3368">
<rect width="58" height="28" fill="white" transform="translate(0.5 0.5)"/>
</clipPath>
</defs>
</svg>
