<svg width="59" height="29" viewBox="0 0 59 29" fill="none" xmlns="http://www.w3.org/2000/svg">
<g clip-path="url(#clip0_86_3373)">
<path d="M55.5 0.5H3.5C1.84315 0.5 0.5 1.84315 0.5 3.5V25.5C0.5 27.1569 1.84315 28.5 3.5 28.5H55.5C57.1569 28.5 58.5 27.1569 58.5 25.5V3.5C58.5 1.84315 57.1569 0.5 55.5 0.5Z" fill="white"/>
<path d="M50.586 11.7729C50.3923 11.2201 50.0318 10.7411 49.5543 10.4019C49.0768 10.0626 48.5057 9.8799 47.92 9.87892H47.893C47.511 9.87761 47.1328 9.95397 46.7812 10.1034C46.4297 10.2527 46.1122 10.472 45.848 10.7479C45.585 10.4735 45.2693 10.255 44.9197 10.1057C44.5702 9.95635 44.1941 9.87922 43.814 9.87892H43.79C43.1129 9.8778 42.4581 10.121 41.946 10.5639V10.3459C41.9382 10.2412 41.891 10.1434 41.8141 10.0719C41.7371 10.0005 41.636 9.96088 41.531 9.96092H39.631C39.5755 9.96002 39.5204 9.97016 39.4689 9.99076C39.4174 10.0114 39.3705 10.042 39.331 10.0809C39.2921 10.1205 39.2614 10.1674 39.2408 10.2189C39.2202 10.2704 39.2101 10.3255 39.211 10.3809V20.6549C39.2101 20.7104 39.2203 20.7655 39.2409 20.817C39.2615 20.8685 39.2921 20.9153 39.331 20.9549C39.3705 20.9938 39.4174 21.0245 39.4689 21.0451C39.5204 21.0657 39.5755 21.0758 39.631 21.0749H41.523C41.6237 21.0746 41.7209 21.0379 41.7966 20.9716C41.8723 20.9052 41.9215 20.8137 41.935 20.7139V13.3359C41.9337 13.3119 41.9337 13.2879 41.935 13.2639C41.9481 13.0959 42.0222 12.9385 42.1435 12.8215C42.2647 12.7045 42.4246 12.636 42.593 12.6289H42.948C43.0938 12.6397 43.233 12.6937 43.348 12.7839C43.4291 12.8507 43.4942 12.935 43.5383 13.0303C43.5825 13.1257 43.6046 13.2298 43.603 13.3349L43.61 20.6709C43.6093 20.7266 43.6197 20.7818 43.6406 20.8334C43.6615 20.885 43.6924 20.932 43.7316 20.9715C43.7708 21.011 43.8174 21.0424 43.8688 21.0638C43.9202 21.0851 43.9753 21.0961 44.031 21.0959H45.92C46.0275 21.0955 46.1306 21.0537 46.2081 20.9792C46.2856 20.9047 46.3314 20.8033 46.336 20.6959V13.3289C46.3334 13.2123 46.3603 13.0969 46.4142 12.9935C46.468 12.89 46.547 12.8018 46.644 12.7369C46.7486 12.6694 46.868 12.6282 46.992 12.6169H47.341C47.5209 12.6262 47.6901 12.7055 47.8125 12.8377C47.9348 12.97 48.0007 13.1448 47.996 13.3249L48.004 20.6609C48.0037 20.716 48.0143 20.7706 48.0352 20.8215C48.0561 20.8724 48.0869 20.9188 48.1257 20.9578C48.1646 20.9968 48.2107 21.0278 48.2616 21.0489C48.3124 21.07 48.3669 21.0809 48.422 21.0809H50.313C50.3681 21.0809 50.4226 21.07 50.4734 21.0489C50.5243 21.0278 50.5704 20.9968 50.6093 20.9578C50.6481 20.9188 50.6789 20.8724 50.6997 20.8215C50.7206 20.7706 50.7313 20.716 50.731 20.6609V12.7719C50.748 12.4324 50.6991 12.0928 50.587 11.7719" fill="#54C1F0"/>
<path d="M37.7789 9.98695H36.6959V8.23295C36.6974 8.17582 36.6858 8.11911 36.6621 8.06713C36.6383 8.01514 36.6031 7.96926 36.5589 7.93295C36.5153 7.89713 36.4641 7.87161 36.4092 7.85828C36.3543 7.84495 36.2972 7.84415 36.2419 7.85595C35.0419 8.18595 35.2839 9.84695 33.0939 9.98795H32.8819C32.8513 9.98842 32.8208 9.99211 32.7909 9.99895C32.6974 10.0189 32.6135 10.0705 32.5534 10.1449C32.4933 10.2194 32.4607 10.3123 32.4609 10.4079V12.2949C32.4615 12.406 32.506 12.5123 32.5847 12.5906C32.6634 12.669 32.7699 12.713 32.8809 12.7129H34.0229V20.7369C34.0235 20.8464 34.0673 20.9512 34.1449 21.0284C34.2225 21.1056 34.3275 21.149 34.4369 21.1489H36.3059C36.3603 21.149 36.4141 21.1382 36.4643 21.1173C36.5145 21.0964 36.56 21.0658 36.5983 21.0272C36.6366 20.9886 36.6669 20.9429 36.6874 20.8925C36.708 20.8422 36.7183 20.7883 36.7179 20.7339V12.7149H37.7789C37.8342 12.7152 37.8889 12.7045 37.94 12.6835C37.9911 12.6625 38.0375 12.6316 38.0765 12.5925C38.1156 12.5535 38.1465 12.5071 38.1675 12.456C38.1885 12.4049 38.1992 12.3502 38.1989 12.2949V10.4059C38.1989 10.2951 38.1549 10.1888 38.0765 10.1104C37.9981 10.032 37.8918 9.98795 37.7809 9.98795" fill="#54C1F0"/>
<path d="M30.9683 9.98642H29.0763C28.9658 9.98695 28.86 10.0312 28.782 10.1096C28.7041 10.1879 28.6603 10.2939 28.6603 10.4044V14.3154C28.6587 14.432 28.6112 14.5433 28.5281 14.6252C28.445 14.707 28.3329 14.7527 28.2163 14.7524H27.4233C27.3064 14.753 27.194 14.7074 27.1105 14.6256C27.027 14.5438 26.9792 14.4323 26.9773 14.3154V10.4044C26.9776 10.3487 26.9668 10.2934 26.9455 10.2419C26.9242 10.1904 26.8929 10.1437 26.8533 10.1044C26.8136 10.0659 26.7666 10.0356 26.7151 10.0153C26.6636 9.99508 26.6086 9.98525 26.5533 9.98642H24.6623C24.5514 9.98642 24.4451 10.0305 24.3667 10.1089C24.2883 10.1872 24.2443 10.2936 24.2443 10.4044V14.6934C24.2296 15.0639 24.2917 15.4334 24.4268 15.7786C24.5619 16.1238 24.7671 16.4374 25.0293 16.6994C25.2912 16.962 25.6046 17.1675 25.9499 17.303C26.2951 17.4384 26.6647 17.5009 27.0353 17.4864C27.0353 17.4864 28.2583 17.4864 28.2963 17.4934C28.4034 17.506 28.5021 17.5574 28.5738 17.638C28.6454 17.7185 28.685 17.8226 28.685 17.9304C28.685 18.0382 28.6454 18.1423 28.5738 18.2229C28.5021 18.3034 28.4034 18.3549 28.2963 18.3674L28.2643 18.3734L25.4983 18.3814C25.4428 18.3805 25.3878 18.3907 25.3362 18.4113C25.2847 18.4319 25.2378 18.4625 25.1983 18.5014C25.1594 18.541 25.1288 18.5879 25.1082 18.6394C25.0875 18.6909 25.0774 18.746 25.0783 18.8014V20.6864C25.0773 20.7419 25.0875 20.797 25.1081 20.8485C25.1287 20.9 25.1594 20.9469 25.1983 20.9864C25.2378 21.0254 25.2847 21.0561 25.3362 21.0767C25.3877 21.0973 25.4428 21.1074 25.4983 21.1064H28.5983C28.9683 21.1213 29.3375 21.0595 29.6824 20.9248C30.0274 20.7901 30.3408 20.5855 30.6028 20.3238C30.8649 20.0622 31.07 19.7491 31.2051 19.4043C31.3403 19.0595 31.4027 18.6905 31.3883 18.3204V10.4044C31.3883 10.3494 31.3774 10.2948 31.3563 10.244C31.3352 10.1932 31.3042 10.147 31.2652 10.1081C31.2261 10.0693 31.1798 10.0386 31.1289 10.0177C31.0779 9.99678 31.0234 9.98616 30.9683 9.98642Z" fill="#233266"/>
<path d="M12.6557 13.4541V14.6221C12.6551 14.7397 12.608 14.8523 12.5246 14.9351C12.4411 15.018 12.3283 15.0644 12.2107 15.0641H11.0107V12.7261H12.2107C12.269 12.726 12.3268 12.7374 12.3807 12.7596C12.4347 12.7819 12.4837 12.8146 12.5249 12.8559C12.5662 12.8971 12.5989 12.9461 12.6211 13C12.6434 13.054 12.6548 13.1118 12.6547 13.1701L12.6557 13.4541ZM12.8217 9.98711H8.67967C8.57094 9.98711 8.46665 10.0303 8.38976 10.1072C8.31287 10.1841 8.26967 10.2884 8.26967 10.3971V20.6791C8.26687 20.7847 8.30511 20.8872 8.37635 20.9652C8.44759 21.0431 8.54628 21.0904 8.65167 21.0971H10.5767C10.6875 21.0971 10.7939 21.0531 10.8722 20.9747C10.9506 20.8963 10.9947 20.79 10.9947 20.6791L11.0107 17.8031H12.8107C13.1535 17.821 13.4963 17.7668 13.8169 17.644C14.1375 17.5213 14.4289 17.3327 14.6721 17.0905C14.9154 16.8483 15.1052 16.5577 15.2293 16.2377C15.3534 15.9176 15.4091 15.575 15.3927 15.2321V12.5641C15.4095 12.2217 15.3545 11.8795 15.2313 11.5595C15.1081 11.2396 14.9193 10.949 14.6771 10.7063C14.4349 10.4636 14.1446 10.2743 13.8249 10.1504C13.5052 10.0266 13.1632 9.97094 12.8207 9.98711" fill="#233266"/>
<path d="M20.5066 17.8962V18.1962C20.5055 18.2531 20.493 18.3091 20.4698 18.3611C20.4466 18.413 20.4132 18.4597 20.3716 18.4985C20.33 18.5373 20.2811 18.5674 20.2276 18.5869C20.1742 18.6064 20.1174 18.615 20.0606 18.6122H19.2726C19.1584 18.6157 19.0475 18.574 18.964 18.4961C18.8804 18.4181 18.8311 18.3104 18.8266 18.1962V16.5722C18.8308 16.4582 18.88 16.3506 18.9634 16.2728C19.0468 16.195 19.1576 16.1534 19.2716 16.1572H20.0596C20.1739 16.1534 20.285 16.1951 20.3686 16.2731C20.4522 16.351 20.5015 16.459 20.5056 16.5732L20.5066 17.8962ZM20.2066 9.99622H17.5776C17.5239 9.9949 17.4705 10.0042 17.4204 10.0236C17.3702 10.043 17.3245 10.0721 17.2856 10.1092C17.2469 10.1463 17.2158 10.1906 17.1942 10.2397C17.1725 10.2887 17.1608 10.3416 17.1596 10.3952V12.1632C17.1638 12.2773 17.2129 12.3851 17.2963 12.463C17.3797 12.5409 17.4905 12.5827 17.6046 12.5792H20.1046C20.2037 12.5925 20.2952 12.6396 20.3637 12.7124C20.4322 12.7853 20.4735 12.8795 20.4806 12.9792V13.2202C20.4748 13.3167 20.4358 13.4081 20.3702 13.4791C20.3045 13.55 20.2164 13.596 20.1206 13.6092H18.8786C18.5171 13.5824 18.154 13.6308 17.8121 13.7512C17.4702 13.8716 17.157 14.0615 16.8921 14.309C16.6272 14.5564 16.4164 14.856 16.2729 15.1889C16.1295 15.5218 16.0565 15.8807 16.0586 16.2432V18.4432C16.0388 18.7943 16.0939 19.1457 16.2202 19.4739C16.3466 19.8021 16.5413 20.0997 16.7914 20.3469C17.0416 20.5941 17.3414 20.7853 17.6711 20.9078C18.0008 21.0302 18.3528 21.0812 18.7036 21.0572H22.1326C22.4185 21.0664 22.6963 20.9621 22.9054 20.767C23.1145 20.5719 23.2379 20.302 23.2486 20.0162V12.8362C23.2486 11.0952 22.3486 9.99622 20.2066 9.99622Z" fill="#233266"/>
</g>
<defs>
<clipPath id="clip0_86_3373">
<rect width="58" height="28" fill="white" transform="translate(0.5 0.5)"/>
</clipPath>
</defs>
</svg>
