<svg width="59" height="29" viewBox="0 0 59 29" fill="none" xmlns="http://www.w3.org/2000/svg">
<g clip-path="url(#clip0_86_3387)">
<path d="M55.5 0.5H3.5C1.84315 0.5 0.5 1.84315 0.5 3.5V25.5C0.5 27.1569 1.84315 28.5 3.5 28.5H55.5C57.1569 28.5 58.5 27.1569 58.5 25.5V3.5C58.5 1.84315 57.1569 0.5 55.5 0.5Z" fill="#84B211"/>
<path fill-rule="evenodd" clip-rule="evenodd" d="M48.0018 8.9962H46.3348C46.2472 8.99567 46.1633 8.96043 46.1017 8.8982C46.04 8.83596 46.0055 8.75182 46.0058 8.6642V6.9692C46.0057 6.9257 46.0141 6.8826 46.0307 6.84238C46.0473 6.80216 46.0717 6.76562 46.1024 6.73486C46.1332 6.70409 46.1697 6.67972 46.21 6.66313C46.2502 6.64654 46.2933 6.63807 46.3368 6.6382H48.0018C48.0453 6.63833 48.0884 6.64706 48.1286 6.66388C48.1688 6.68069 48.2052 6.70528 48.2359 6.73621C48.2666 6.76715 48.2908 6.80383 48.3073 6.84415C48.3237 6.88448 48.332 6.92765 48.3318 6.9712V8.6712C48.3318 8.75872 48.297 8.84266 48.2351 8.90455C48.1732 8.96644 48.0893 9.0012 48.0018 9.0012M45.7798 6.6332H44.6488C44.6194 6.63307 44.5903 6.62715 44.5631 6.61577C44.536 6.60439 44.5114 6.58778 44.4907 6.56689C44.47 6.546 44.4536 6.52123 44.4425 6.494C44.4313 6.46677 44.4257 6.43762 44.4258 6.4082V5.2582C44.4257 5.2287 44.4313 5.19947 44.4425 5.17217C44.4537 5.14488 44.4702 5.12007 44.491 5.09916C44.5119 5.07826 44.5366 5.06167 44.5638 5.05035C44.5911 5.03903 44.6203 5.0332 44.6498 5.0332H45.7818C45.8407 5.03425 45.8968 5.05845 45.9379 5.10057C45.9791 5.14268 46.0021 5.19931 46.0018 5.2582V6.4132C46.0019 6.4427 45.9962 6.47194 45.985 6.49923C45.9738 6.52652 45.9573 6.55134 45.9365 6.57224C45.9157 6.59315 45.891 6.60974 45.8637 6.62106C45.8365 6.63238 45.8073 6.6382 45.7778 6.6382" fill="white"/>
<path opacity="0.963" fill-rule="evenodd" clip-rule="evenodd" d="M44.4211 10.8578V16.6138C44.4464 17.4359 44.2353 18.248 43.8131 18.9538C43.0401 20.1778 41.5431 20.8308 39.4131 20.8308H39.3981C37.2691 20.8308 35.7711 20.1778 34.9981 18.9538C34.5761 18.2479 34.3655 17.4358 34.3911 16.6138V10.8578C34.3911 9.92581 34.7671 9.75781 35.7821 9.75781H36.1011C37.1141 9.75781 37.4901 9.92581 37.4901 10.8578V16.6138C37.4743 16.9286 37.55 17.2412 37.7081 17.5138C37.9841 17.9428 38.5301 18.1388 39.4081 18.1388C40.2861 18.1388 40.8301 17.9388 41.1081 17.5138C41.2661 17.2412 41.3418 16.9286 41.3261 16.6138V10.8578C41.3261 9.92581 41.7021 9.75781 42.7151 9.75781H43.0341C44.0471 9.75781 44.4231 9.92581 44.4231 10.8578H44.4211ZM33.3481 13.0678L31.4641 20.6678C30.9131 22.8928 29.9641 23.8478 28.2091 23.9678C28.1664 23.9678 28.1234 23.9698 28.0801 23.9738C27.7001 23.9738 27.5801 23.7628 27.5101 23.4228L27.4771 23.2758C27.4524 23.2022 27.4429 23.1244 27.4493 23.047C27.4556 22.9696 27.4777 22.8944 27.5141 22.8258C27.6001 22.7088 27.7561 22.6758 27.9951 22.6528C29.1751 22.5358 29.5731 21.9818 29.9671 20.7378C29.7552 20.8064 29.5337 20.8401 29.3111 20.8378C28.0111 20.8378 27.6691 19.9278 27.3761 18.8298L25.8271 13.0898C25.7916 13.0069 25.7745 12.9174 25.7769 12.8273C25.7794 12.7372 25.8012 12.6487 25.8411 12.5678C25.9078 12.5069 25.9874 12.4619 26.074 12.4361C26.1606 12.4103 26.2519 12.4044 26.3411 12.4188H26.4641C26.5579 12.403 26.654 12.4068 26.7464 12.43C26.8387 12.4533 26.9251 12.4954 27.0003 12.5538C27.0755 12.6121 27.1378 12.6855 27.1832 12.7691C27.2286 12.8528 27.2561 12.945 27.2641 13.0398L28.8041 18.7288C29.0041 19.4388 29.2041 19.5588 29.7041 19.5588C30.1121 19.5588 30.3501 19.4308 30.5201 18.7308L31.8781 13.0478C31.8824 12.9527 31.907 12.8596 31.9503 12.7747C31.9935 12.6898 32.0544 12.6152 32.1288 12.5557C32.2032 12.4963 32.2894 12.4534 32.3817 12.4299C32.4741 12.4065 32.5703 12.4031 32.6641 12.4198H32.8111C32.9002 12.4063 32.9913 12.4126 33.0777 12.4384C33.1642 12.4641 33.2438 12.5087 33.3111 12.5688C33.3536 12.6484 33.3785 12.7362 33.3842 12.8262C33.3899 12.9163 33.3762 13.0065 33.3441 13.0908L33.3481 13.0678ZM23.8431 16.9188H22.0331C20.5761 16.9188 20.0101 17.2918 20.0101 18.2488C20.0101 19.1218 20.5751 19.5488 21.7401 19.5488C23.5021 19.5488 23.8461 19.0068 23.8461 18.0698L23.8431 16.9188ZM21.7371 12.1598C24.1211 12.1598 25.2791 13.0408 25.2791 14.8548V18.1188C25.2791 19.9938 24.1931 20.8298 21.7531 20.8298C19.7001 20.8298 18.5711 19.9138 18.5711 18.2508C18.5711 16.5358 19.6641 15.7378 22.0151 15.7378H23.8431V14.8548C23.8431 13.8628 23.2521 13.4548 21.8021 13.4548C21.2059 13.4532 20.6111 13.5128 20.0271 13.6328C19.9452 13.6549 19.8609 13.667 19.7761 13.6688C19.7141 13.6736 19.6519 13.6617 19.596 13.6344C19.5401 13.6072 19.4925 13.5656 19.4581 13.5138C19.392 13.3914 19.3628 13.2525 19.3741 13.1138V12.9938C19.3741 12.5278 19.5431 12.4188 19.9471 12.3308C20.5361 12.2144 21.1357 12.1597 21.7361 12.1678L21.7371 12.1598ZM17.1321 13.2678C17.1321 14.6278 16.7861 15.3678 14.9591 15.3678H12.1491V11.8418C12.1491 11.3538 12.3281 11.1718 12.8151 11.1718H14.9641C16.3341 11.1718 17.1331 11.5178 17.1331 13.2718L17.1321 13.2678ZM14.9641 9.75781H12.5371C11.2471 9.75781 10.6641 10.3408 10.6641 11.6448V20.0258C10.6641 20.5258 10.8251 20.6918 11.3251 20.6918H11.4881C11.9881 20.6918 12.1491 20.5298 12.1491 20.0258V16.7678H14.9641C17.4641 16.7678 18.6201 15.6548 18.6201 13.2678C18.6201 10.8808 17.4551 9.75781 14.9641 9.75781Z" fill="white"/>
<path opacity="0.921" fill-rule="evenodd" clip-rule="evenodd" d="M45.562 12.181H43.318C43.2596 12.1809 43.2018 12.1692 43.1479 12.1467C43.0941 12.1242 43.0451 12.0913 43.004 12.0499C42.9628 12.0085 42.9303 11.9593 42.9081 11.9053C42.886 11.8513 42.8747 11.7934 42.875 11.735V9.446C42.8747 9.38761 42.886 9.32974 42.9081 9.27571C42.9303 9.22167 42.9628 9.17253 43.004 9.1311C43.0451 9.08968 43.0941 9.05677 43.1479 9.03428C43.2018 9.01178 43.2596 9.00013 43.318 9H45.562C45.6204 9.00013 45.6782 9.01178 45.7321 9.03428C45.786 9.05677 45.8349 9.08968 45.876 9.1311C45.9172 9.17253 45.9497 9.22167 45.9719 9.27571C45.994 9.32974 46.0053 9.38761 46.005 9.446V11.734C46.0051 11.7923 45.9938 11.8501 45.9716 11.904C45.9494 11.9579 45.9168 12.0069 45.8757 12.0482C45.8345 12.0896 45.7857 12.1224 45.7318 12.1448C45.678 12.1673 45.6203 12.1789 45.562 12.179" fill="white"/>
</g>
<defs>
<clipPath id="clip0_86_3387">
<rect width="58" height="28" fill="white" transform="translate(0.5 0.5)"/>
</clipPath>
</defs>
</svg>
