<svg width="43" height="31" viewBox="0 0 43 31" fill="none" xmlns="http://www.w3.org/2000/svg">
<g clip-path="url(#clip0_86_3395)">
<path d="M39.5 0.5H3.5C1.84315 0.5 0.5 1.84315 0.5 3.5V27.5C0.5 29.1569 1.84315 30.5 3.5 30.5H39.5C41.1569 30.5 42.5 29.1569 42.5 27.5V3.5C42.5 1.84315 41.1569 0.5 39.5 0.5Z" fill="white"/>
<path d="M21.4997 3.13672C23.9449 3.13672 26.3351 3.8618 28.3682 5.22026C30.4013 6.57872 31.9859 8.50956 32.9216 10.7686C33.8574 13.0276 34.1022 15.5134 33.6252 17.9116C33.1481 20.3098 31.9707 22.5127 30.2417 24.2417C28.5127 25.9707 26.3098 27.1481 23.9116 27.6252C21.5134 28.1022 19.0276 27.8574 16.7686 26.9216C14.5096 25.9859 12.5787 24.4013 11.2203 22.3682C9.8618 20.3351 9.13672 17.9449 9.13672 15.4997C9.13672 12.2208 10.4392 9.07627 12.7578 6.75776C15.0763 4.43925 18.2208 3.13672 21.4997 3.13672Z" fill="#5F259F"/>
<path d="M27.1098 12.2736C27.1062 12.0361 27.0102 11.8092 26.8422 11.6412C26.6742 11.4732 26.4473 11.3772 26.2098 11.3736H24.5528L20.7528 7.02264C20.5762 6.82247 20.3461 6.67696 20.0895 6.60326C19.833 6.52955 19.5607 6.53072 19.3048 6.60664L17.9928 7.02064C17.9459 7.03642 17.9036 7.06335 17.8695 7.0991C17.8354 7.13485 17.8105 7.17836 17.7969 7.22589C17.7833 7.27341 17.7815 7.32352 17.7916 7.3719C17.8016 7.42029 17.8233 7.4655 17.8548 7.50364L21.9988 11.4406H15.7128C15.6667 11.4379 15.6207 11.4449 15.5775 11.4613C15.5344 11.4776 15.4953 11.5029 15.4627 11.5355C15.4301 11.5681 15.4047 11.6073 15.3884 11.6504C15.372 11.6935 15.365 11.7396 15.3678 11.7856V12.4766C15.3714 12.7142 15.4674 12.941 15.6354 13.109C15.8034 13.277 16.0302 13.373 16.2678 13.3766H17.2348V16.6916C17.2348 19.1776 18.5468 20.6286 20.7578 20.6286C21.4194 20.6487 22.0779 20.5312 22.6918 20.2836V22.4936C22.6899 22.6388 22.717 22.783 22.7716 22.9175C22.8262 23.0521 22.907 23.1745 23.0095 23.2774C23.1119 23.3803 23.2339 23.4617 23.3682 23.5169C23.5026 23.5721 23.6466 23.5998 23.7918 23.5986H24.7588C24.8661 23.5912 24.9671 23.5452 25.0432 23.4691C25.1193 23.393 25.1653 23.292 25.1728 23.1846V13.3066H26.7618C26.8078 13.3094 26.8539 13.3024 26.897 13.286C26.9401 13.2697 26.9793 13.2443 27.0119 13.2117C27.0445 13.1791 27.0698 13.14 27.0862 13.0969C27.1025 13.0538 27.1095 13.0077 27.1068 12.9616L27.1098 12.2736ZM22.6898 18.2136C22.2547 18.4042 21.7836 18.4983 21.3088 18.4896C20.2088 18.4896 19.6508 17.9376 19.6508 16.6896V13.3746H22.6898V18.2136Z" fill="white"/>
</g>
<defs>
<clipPath id="clip0_86_3395">
<rect width="42" height="30" fill="white" transform="translate(0.5 0.5)"/>
</clipPath>
</defs>
</svg>
