<svg width="16" height="21" viewBox="0 0 16 21" fill="none" xmlns="http://www.w3.org/2000/svg">
<g clip-path="url(#clip0_86_3400)">
<path d="M3.63307 2.38012C4.45807 2.62512 4.83307 2.17212 5.19107 1.50112C5.91607 0.142124 5.85207 0.359124 6.91307 1.02112C7.17986 1.22296 7.50615 1.33043 7.84067 1.32663C8.17518 1.32282 8.49895 1.20797 8.76108 1.00012C9.93907 0.260124 9.84908 0.359124 10.4201 1.45612C10.5431 1.77661 10.7718 2.04553 11.0683 2.21845C11.3649 2.39136 11.7116 2.45792 12.0511 2.40712C13.3831 2.34412 13.2831 2.22612 13.2291 3.55812C13.1801 3.90803 13.2511 4.26421 13.4305 4.56859C13.6099 4.87296 13.8872 5.10756 14.2171 5.23412C15.4311 5.85912 15.3041 5.82312 14.6521 6.82012C14.4211 7.10573 14.2973 7.46319 14.3022 7.8305C14.3071 8.19782 14.4405 8.55182 14.6791 8.83112C15.3131 9.76412 15.2951 9.86412 14.2981 10.3311C13.9379 10.4602 13.6337 10.7101 13.4371 11.0383C13.2406 11.3665 13.1639 11.7527 13.2201 12.1311C13.2651 13.3721 13.3381 13.3181 12.0781 13.2551C11.7306 13.1952 11.3732 13.2572 11.0662 13.4305C10.7591 13.6037 10.5214 13.8777 10.3931 14.2061C9.83108 15.3211 9.86708 15.3571 8.77108 14.6321C8.50895 14.4121 8.17851 14.29 7.8363 14.2867C7.49409 14.2834 7.16137 14.3992 6.89507 14.6141C5.76207 15.3571 5.82607 15.3211 5.21907 14.1521C5.09798 13.8469 4.87701 13.5918 4.59224 13.4283C4.30746 13.2649 3.97569 13.2027 3.65108 13.2521C2.28308 13.3151 2.38207 13.3971 2.42807 12.0831C2.4766 11.7276 2.4025 11.3661 2.21798 11.0583C2.03346 10.7505 1.74955 10.5149 1.41308 10.3901C0.353075 9.87312 0.335075 9.77412 0.987075 8.80012C1.21334 8.52249 1.3369 8.17529 1.3369 7.81712C1.3369 7.45896 1.21334 7.11176 0.987075 6.83412C0.335075 5.82812 0.208075 5.88312 1.42208 5.25712C1.76136 5.12715 2.04606 4.88518 2.22902 4.57128C2.41197 4.25738 2.4822 3.89039 2.42807 3.53112C2.35607 2.27212 2.28308 2.38912 3.54208 2.38912C3.57186 2.38204 3.60247 2.37901 3.63307 2.38012ZM14.1161 6.14012C13.6991 5.88612 13.3101 5.63312 12.9021 5.41512C12.751 5.34771 12.6255 5.23364 12.5439 5.08967C12.4624 4.94569 12.4292 4.77938 12.4491 4.61512C12.4671 4.15312 12.4581 3.69112 12.4581 3.20212C11.9331 3.20212 11.4791 3.19312 11.0261 3.20212C10.8602 3.21763 10.6936 3.18047 10.5499 3.09592C10.4063 3.01138 10.293 2.88373 10.2261 2.73112C10.0091 2.32312 9.75508 1.93112 9.50108 1.52612C9.03008 1.78912 8.60107 2.01512 8.18707 2.25112C8.06895 2.33308 7.92788 2.37549 7.78415 2.37226C7.64041 2.36902 7.5014 2.32031 7.38707 2.23312C6.99707 1.98812 6.58707 1.77112 6.14607 1.51712C5.88307 1.95212 5.63008 2.34212 5.41208 2.74912C5.34466 2.89309 5.23466 3.01288 5.09694 3.09229C4.95923 3.1717 4.80045 3.2069 4.64208 3.19312C4.18008 3.18412 3.71808 3.19312 3.19208 3.19312C3.21574 3.7103 3.21174 4.22837 3.18008 4.74512C3.1382 4.9851 3.00931 5.20122 2.81808 5.35212C2.41808 5.64212 1.97508 5.86812 1.53108 6.14012C1.78508 6.59312 2.00208 7.01912 2.25608 7.42712C2.33781 7.5445 2.38162 7.6841 2.38162 7.82712C2.38162 7.97015 2.33781 8.10975 2.25608 8.22712C2.01108 8.63512 1.78507 9.06112 1.54007 9.50512C1.98407 9.76812 2.37407 10.0311 2.78108 10.2481C2.91894 10.306 3.03421 10.4071 3.10945 10.5363C3.18469 10.6655 3.2158 10.8157 3.19808 10.9641C3.17108 11.4351 3.18907 11.9151 3.18907 12.4501C3.64193 12.4702 4.09552 12.4672 4.54807 12.4411C4.74116 12.4117 4.9385 12.4497 5.10682 12.5488C5.27514 12.6479 5.40414 12.802 5.47207 12.9851C5.66207 13.3571 5.89808 13.7101 6.14208 14.1081C6.58608 13.8631 7.01207 13.6371 7.42007 13.4011C7.53653 13.3181 7.67563 13.2727 7.81866 13.2711C7.96169 13.2695 8.10178 13.3117 8.22007 13.3921C8.62807 13.6371 9.05408 13.8631 9.50708 14.1171C9.75208 13.7001 10.0071 13.3111 10.2231 12.9031C10.2878 12.75 10.4014 12.6225 10.546 12.5406C10.6907 12.4587 10.8584 12.4269 11.0231 12.4501C11.4851 12.4771 11.9471 12.4591 12.4551 12.4591C12.4551 11.9061 12.4731 11.4441 12.4461 10.9821C12.429 10.8404 12.4564 10.697 12.5245 10.5715C12.5926 10.4461 12.698 10.345 12.8261 10.2821C13.2431 10.0461 13.6511 9.78212 14.1041 9.51212C13.8681 9.08612 13.6601 8.66912 13.4151 8.27112C13.3244 8.14249 13.2758 7.98898 13.2758 7.83162C13.2758 7.67426 13.3244 7.52075 13.4151 7.39212C13.6541 6.98312 13.8721 6.57512 14.1161 6.14012Z" fill="#7D7D7D"/>
<path d="M10.6287 19.2145C10.9445 18.8143 11.2803 18.4301 11.6347 18.0635C11.8156 17.9004 12.0521 17.8127 12.2957 17.8185C12.7667 17.8455 13.2377 17.9725 13.7907 18.0635C13.7367 17.8635 13.6997 17.7105 13.6457 17.5635C13.2927 16.5575 12.9297 15.5525 12.5677 14.5465C12.4677 14.2655 12.3777 13.9575 12.7677 13.8395C13.1117 13.7395 13.2297 14.0115 13.3297 14.2835C13.8097 15.6425 14.3087 17.0015 14.7797 18.3695C14.9607 18.8955 14.7977 19.0765 14.2357 18.9945C13.6843 18.9225 13.1369 18.8224 12.5957 18.6945C12.4824 18.6587 12.3604 18.6616 12.2489 18.7027C12.1374 18.7438 12.0427 18.8208 11.9797 18.9215C11.6267 19.3565 11.2727 19.7825 10.9017 20.2085C10.5307 20.6345 10.2307 20.5895 10.0317 20.0275C9.56969 18.7595 9.11669 17.4815 8.65469 16.2035C8.56369 15.9405 8.44669 15.6595 8.81769 15.5235C9.18869 15.3875 9.29769 15.6775 9.39769 15.9405C9.80069 16.9995 10.2007 18.0725 10.6287 19.2145Z" fill="#7D7D7D"/>
<path d="M1.89357 18.0637C2.41957 17.9637 2.84457 17.8917 3.27057 17.8007C3.429 17.752 3.59903 17.7567 3.75457 17.8139C3.91011 17.8712 4.04255 17.9779 4.13157 18.1177C4.40357 18.4797 4.71157 18.8177 5.04657 19.2177C5.30057 18.5287 5.53557 17.9037 5.77157 17.2787C5.95257 16.7897 6.14357 16.2907 6.33357 15.8017C6.42457 15.5567 6.58757 15.4207 6.85957 15.5297C7.13157 15.6387 7.15957 15.8197 7.06757 16.0737C6.57857 17.4147 6.10757 18.7647 5.60857 20.1057C5.43657 20.5587 5.15557 20.6127 4.82957 20.2597C4.42157 19.8157 4.05957 19.3267 3.64257 18.8917C3.49789 18.7645 3.30889 18.6995 3.11657 18.7107C2.53657 18.7827 1.95657 18.9107 1.37657 19.0007C0.905574 19.0727 0.715574 18.8557 0.876574 18.4007C1.36557 17.0237 1.86457 15.6557 2.36257 14.2777C2.38257 14.2393 2.4006 14.2 2.41657 14.1597C2.51657 13.9057 2.69757 13.7067 2.96057 13.8697C3.03223 13.9411 3.08598 14.0284 3.11744 14.1245C3.14889 14.2206 3.15717 14.3228 3.14157 14.4227C2.85157 15.3377 2.51657 16.2437 2.19957 17.1497C2.10057 17.4297 2.01157 17.7107 1.89357 18.0637Z" fill="#7D7D7D"/>
<path d="M7.81725 3.54883C8.38643 3.55209 8.94935 3.6678 9.47367 3.8893C9.998 4.11081 10.4734 4.43374 10.8725 4.83955C11.2716 5.24536 11.5866 5.72604 11.7994 6.25397C12.0121 6.7819 12.1185 7.34667 12.1123 7.91583C12.0667 9.02535 11.5999 10.0758 10.8069 10.8531C10.0139 11.6305 8.95445 12.0763 7.84425 12.0998C6.7025 12.0941 5.60913 11.6381 4.80159 10.8309C3.99405 10.0237 3.53756 8.93058 3.53125 7.78883C3.55081 6.66247 4.01008 5.58842 4.81094 4.79615C5.6118 4.00389 6.69075 3.55623 7.81725 3.54883ZM7.82625 11.2688C8.2841 11.2785 8.73917 11.1954 9.16399 11.0244C9.58882 10.8534 9.9746 10.5981 10.298 10.2739C10.6215 9.94972 10.8759 9.56336 11.0459 9.13813C11.2159 8.71291 11.298 8.25765 11.2872 7.79983C11.2981 7.32946 11.2103 6.86203 11.0295 6.42767C10.8487 5.99331 10.5789 5.60164 10.2374 5.27793C9.89602 4.95421 9.49055 4.70562 9.04718 4.54818C8.60381 4.39074 8.13237 4.32794 7.66325 4.36383C6.77864 4.39081 5.93915 4.76056 5.32209 5.39497C4.70502 6.02939 4.35869 6.87881 4.35625 7.76383C4.34059 8.22537 4.41937 8.68524 4.58776 9.11525C4.75615 9.54527 5.0106 9.93635 5.3355 10.2645C5.6604 10.5927 6.04892 10.8511 6.47722 11.0238C6.90552 11.1965 7.36458 11.2799 7.82625 11.2688Z" fill="#7D7D7D"/>
</g>
<defs>
<clipPath id="clip0_86_3400">
<rect width="14.638" height="20" fill="white" transform="translate(0.5 0.5)"/>
</clipPath>
</defs>
</svg>
