<svg width="86" height="86" viewBox="0 0 86 86" fill="none" xmlns="http://www.w3.org/2000/svg">
<g clip-path="url(#clip0_86_3568)">
<path d="M40.6172 33.2039V48.1649C40.6172 48.8261 40.8798 49.4602 41.3474 49.9277C41.8149 50.3953 42.449 50.6579 43.1102 50.6579H73.0312C73.6924 50.6579 74.3265 50.3953 74.794 49.9277C75.2615 49.4602 75.5242 48.8261 75.5242 48.1649V33.2039C75.5239 32.543 75.2613 31.9092 74.7941 31.4418C74.3268 30.9743 73.6931 30.7115 73.0322 30.7109H43.1102C42.4491 30.7112 41.8151 30.9739 41.3477 31.4414C40.8802 31.9089 40.6175 32.5428 40.6172 33.2039Z" fill="#FF0000"/>
<path d="M63.0881 70.4316H53.1141C52.453 70.4319 51.819 70.6946 51.3516 71.1621C50.8841 71.6296 50.6214 72.2635 50.6211 72.9247V82.8987C50.6214 83.5598 50.8841 84.1937 51.3516 84.6612C51.819 85.1286 52.453 85.3914 53.1141 85.3916H63.0881C63.7492 85.3914 64.3831 85.1286 64.8506 84.6612C65.3181 84.1937 65.5808 83.5598 65.5811 82.8987V72.9247C65.5808 72.2635 65.3181 71.6296 64.8506 71.1621C64.3831 70.6946 63.7492 70.4319 63.0881 70.4316Z" fill="#FF0000"/>
<path d="M51.5834 3.10042C51.5831 2.43915 51.3202 1.80504 50.8525 1.33754C50.3848 0.870044 49.7506 0.607422 49.0894 0.607422L41.6094 0.607422V10.5814H51.5834V3.10042Z" fill="#FF0000"/>
<path d="M36.683 0.607422H2.993C2.3319 0.607687 1.69795 0.870427 1.23048 1.3379C0.763005 1.80537 0.500265 2.43932 0.5 3.10042L0.5 10.5804H36.683V0.607422Z" fill="#FF0000"/>
<path d="M51.644 58.1683V55.6753H43.221C41.2379 55.6729 39.3367 54.8841 37.9345 53.4818C36.5322 52.0795 35.7434 50.1784 35.741 48.1953V33.2343C35.7434 31.2512 36.5322 29.35 37.9345 27.9477C39.3367 26.5455 41.2379 25.7566 43.221 25.7543H51.643V15.4473H0.5V58.1683C0.500265 58.8294 0.763005 59.4633 1.23048 59.9308C1.69795 60.3983 2.3319 60.661 2.993 60.6613H49.15C49.8113 60.6613 50.4455 60.3986 50.9132 59.9311C51.3809 59.4636 51.6437 58.8295 51.644 58.1683ZM25.762 50.5213H10.474C9.81268 50.5213 9.17845 50.2586 8.71083 49.7909C8.24321 49.3233 7.9805 48.6891 7.9805 48.0278C7.9805 47.3664 8.24321 46.7322 8.71083 46.2646C9.17845 45.797 9.81268 45.5343 10.474 45.5343H25.762C26.4233 45.5343 27.0575 45.797 27.5252 46.2646C27.9928 46.7322 28.2555 47.3664 28.2555 48.0278C28.2555 48.6891 27.9928 49.3233 27.5252 49.7909C27.0575 50.2586 26.4233 50.5213 25.762 50.5213ZM25.762 40.5473H10.474C9.81268 40.5473 9.17845 40.2846 8.71083 39.8169C8.24321 39.3493 7.9805 38.7151 7.9805 38.0538C7.9805 37.3924 8.24321 36.7582 8.71083 36.2906C9.17845 35.823 9.81268 35.5603 10.474 35.5603H25.762C26.4233 35.5603 27.0575 35.823 27.5252 36.2906C27.9928 36.7582 28.2555 37.3924 28.2555 38.0538C28.2555 38.7151 27.9928 39.3493 27.5252 39.8169C27.0575 40.2846 26.4233 40.5473 25.762 40.5473ZM25.762 30.5733H10.474C9.82133 30.5602 9.1998 30.2917 8.74285 29.8255C8.28589 29.3593 8.02994 28.7326 8.02994 28.0798C8.02994 27.427 8.28589 26.8002 8.74285 26.334C9.1998 25.8678 9.82133 25.5993 10.474 25.5863H25.762C26.4233 25.5863 27.0575 25.849 27.5252 26.3166C27.9928 26.7842 28.2555 27.4184 28.2555 28.0798C28.2555 28.7411 27.9928 29.3753 27.5252 29.8429C27.0575 30.3106 26.4233 30.5733 25.762 30.5733Z" fill="#FF0000"/>
<path d="M80.5131 38.5566V53.0886C80.5113 53.7493 80.248 54.3823 79.7809 54.8494C79.3138 55.3165 78.6807 55.5798 78.0201 55.5816H63.0581C61.075 55.584 59.1739 56.3729 57.7716 57.7751C56.3694 59.1774 55.5805 61.0786 55.5781 63.0616V65.5546H60.5651V63.0616C60.567 62.401 60.8302 61.768 61.2974 61.3009C61.7645 60.8337 62.3975 60.5705 63.0581 60.5686H78.0191C80.0022 60.5663 81.9034 59.7774 83.3057 58.3752C84.7079 56.9729 85.4967 55.0717 85.4991 53.0886V45.6086C85.4974 44.0624 85.0172 42.5545 84.1245 41.2919C83.2319 40.0293 81.9703 39.0739 80.5131 38.5566Z" fill="#FF0000"/>
</g>
<defs>
<clipPath id="clip0_86_3568">
<rect width="85" height="85" fill="white" transform="translate(0.5 0.5)"/>
</clipPath>
</defs>
</svg>
