<svg width="86" height="86" viewBox="0 0 86 86" fill="none" xmlns="http://www.w3.org/2000/svg">
<g clip-path="url(#clip0_86_3474)">
<path d="M54.537 46.5452C53.5901 46.5375 52.6789 46.9062 52.0037 47.5703C51.3286 48.2343 50.9449 49.1393 50.937 50.0862V64.2532C50.9278 65.1997 50.5436 66.104 49.8688 66.7677C49.194 67.4315 48.2835 67.8006 47.337 67.7942H36.525V14.6702C36.5136 13.176 36.0343 11.7228 35.1543 10.5151C34.2743 9.30743 33.0379 8.40588 31.619 7.93723L30.552 7.58623H47.332C48.2787 7.57984 49.1893 7.94911 49.8642 8.61309C50.539 9.27706 50.923 10.1816 50.932 11.1282V21.7542C50.932 22.709 51.3113 23.6247 51.9864 24.2998C52.6615 24.9749 53.5772 25.3542 54.532 25.3542C55.4868 25.3542 56.4025 24.9749 57.0776 24.2998C57.7527 23.6247 58.132 22.709 58.132 21.7542V11.1292C58.1053 8.28883 56.9535 5.57491 54.9289 3.58244C52.9044 1.58998 50.1725 0.481576 47.332 0.500232H8.606C8.47561 0.518683 8.34663 0.546081 8.22 0.582232C8.047 0.567232 7.881 0.500232 7.7 0.500232C5.80608 0.487443 3.98442 1.2264 2.63463 2.555C1.28485 3.8836 0.51717 5.69335 0.5 7.58723L0.5 71.3362C0.511364 72.8305 0.99074 74.2836 1.87073 75.4913C2.75073 76.699 3.98709 77.6006 5.406 78.0692L27.086 85.1692C27.81 85.3905 28.563 85.5021 29.32 85.5002C31.2134 85.513 33.0346 84.7745 34.3843 83.4465C35.734 82.1186 36.502 80.3096 36.52 78.4162V74.8782H47.332C50.1732 74.899 52.9066 73.7921 54.9327 71.8003C56.9588 69.8084 58.1123 67.0943 58.14 64.2532V50.0862C58.1321 49.1393 57.7484 48.2343 57.0733 47.5703C56.3981 46.9062 55.4869 46.5375 54.54 46.5452H54.537Z" fill="#FF0000"/>
<path d="M84.4401 33.46L70.0301 19.05C69.5267 18.5453 68.8848 18.2014 68.1858 18.0618C67.4867 17.9223 66.762 17.9934 66.1034 18.2662C65.4448 18.539 64.8821 19.0012 64.4865 19.5941C64.0908 20.1871 63.8801 20.8842 63.8811 21.597V32.404H49.4711C48.5163 32.404 47.6006 32.7833 46.9255 33.4584C46.2504 34.1336 45.8711 35.0492 45.8711 36.004C45.8711 36.9588 46.2504 37.8745 46.9255 38.5496C47.6006 39.2247 48.5163 39.604 49.4711 39.604H63.8811V50.411C63.8799 51.1239 64.0905 51.8212 64.4861 52.4143C64.8816 53.0074 65.4443 53.4697 66.103 53.7426C66.7616 54.0156 67.4864 54.0868 68.1855 53.9473C68.8847 53.8078 69.5267 53.4638 70.0301 52.959L84.4401 38.549C85.1146 37.874 85.4934 36.9588 85.4934 36.0045C85.4934 35.0503 85.1146 34.1351 84.4401 33.46Z" fill="#FF0000"/>
</g>
<defs>
<clipPath id="clip0_86_3474">
<rect width="85" height="85.004" fill="white" transform="translate(0.5 0.5)"/>
</clipPath>
</defs>
</svg>
