<svg width="86" height="86" viewBox="0 0 86 86" fill="none" xmlns="http://www.w3.org/2000/svg">
<g clip-path="url(#clip0_86_3417)">
<path d="M35.5292 26.2324C16.3052 26.2324 0.500166 39.4514 0.500166 55.7004C0.561907 62.4427 3.10352 68.9263 7.64017 73.9144L1.11517 81.3704C0.800435 81.7306 0.596071 82.1738 0.526494 82.6471C0.456917 83.1203 0.52507 83.6036 0.722809 84.0392C0.920547 84.4747 1.23951 84.8441 1.64158 85.1033C2.04365 85.3624 2.51183 85.5003 2.99017 85.5004H38.0192C52.2122 85.5004 70.5572 73.2784 70.5572 55.7004C70.5572 39.4514 54.7522 26.2324 35.5292 26.2324ZM20.4222 60.2654C19.4372 60.2654 18.4744 59.9733 17.6554 59.4261C16.8365 58.8789 16.1982 58.1012 15.8212 57.1912C15.4443 56.2812 15.3457 55.2799 15.5379 54.3139C15.73 53.3478 16.2043 52.4605 16.9008 51.764C17.5972 51.0676 18.4846 50.5933 19.4506 50.4011C20.4166 50.209 21.418 50.3076 22.3279 50.6845C23.2379 51.0614 24.0157 51.6997 24.5629 52.5187C25.1101 53.3376 25.4022 54.3005 25.4022 55.2854C25.4022 56.6062 24.8775 57.8729 23.9436 58.8068C23.0096 59.7407 21.7429 60.2654 20.4222 60.2654ZM35.5292 60.2654C34.5442 60.2654 33.5814 59.9733 32.7624 59.4261C31.9435 58.8789 31.3052 58.1012 30.9282 57.1912C30.5513 56.2812 30.4527 55.2799 30.6449 54.3139C30.837 53.3478 31.3113 52.4605 32.0078 51.764C32.7042 51.0676 33.5916 50.5933 34.5576 50.4011C35.5236 50.209 36.525 50.3076 37.4349 50.6845C38.3449 51.0614 39.1227 51.6997 39.6699 52.5187C40.2171 53.3376 40.5092 54.3005 40.5092 55.2854C40.5092 56.6062 39.9845 57.8729 39.0506 58.8068C38.1166 59.7407 36.8499 60.2654 35.5292 60.2654ZM50.6362 60.2654C49.6512 60.2654 48.6884 59.9733 47.8694 59.4261C47.0505 58.8789 46.4122 58.1012 46.0352 57.1912C45.6583 56.2812 45.5597 55.2799 45.7519 54.3139C45.944 53.3478 46.4183 52.4605 47.1148 51.764C47.8112 51.0676 48.6986 50.5933 49.6646 50.4011C50.6306 50.209 51.632 50.3076 52.5419 50.6845C53.4519 51.0614 54.2297 51.6997 54.7769 52.5187C55.3241 53.3376 55.6162 54.3005 55.6162 55.2854C55.6162 56.6062 55.0915 57.8729 54.1576 58.8068C53.2236 59.7407 51.9569 60.2654 50.6362 60.2654Z" fill="#FF0000"/>
<path d="M84.9006 51.173L79.0376 44.332C83.1417 39.8345 85.4428 33.9813 85.5006 27.893C85.5006 12.789 70.9756 0.5 53.1266 0.5C36.9856 0.5 23.2726 10.56 20.8516 23.652C25.582 22.0624 30.5392 21.2519 35.5296 21.252C57.3366 21.252 75.2526 36.483 75.5136 55.285H83.0136C83.4892 55.2833 83.9545 55.1456 84.3544 54.8881C84.7543 54.6306 85.0723 54.2641 85.2706 53.8318C85.469 53.3995 85.5396 52.9195 85.474 52.4483C85.4084 51.9772 85.2095 51.5347 84.9006 51.173Z" fill="#FF0000"/>
</g>
<defs>
<clipPath id="clip0_86_3417">
<rect width="85" height="85" fill="white" transform="translate(0.5 0.5)"/>
</clipPath>
</defs>
</svg>
