<svg width="86" height="86" viewBox="0 0 86 86" fill="none" xmlns="http://www.w3.org/2000/svg">
<g clip-path="url(#clip0_86_3554)">
<path d="M63.0363 39.295H63.4953C64.2886 39.309 65.0749 39.359 65.8543 39.445V10.529C65.8511 7.87029 64.7936 5.32137 62.9137 3.44129C61.0338 1.5612 58.485 0.50344 55.8262 0.5L12.3112 0.5C9.65219 0.502911 7.10287 1.56044 5.22254 3.44058C3.34221 5.32072 2.28443 7.86995 2.28125 10.529L2.28125 68.215C2.28416 70.8741 3.34169 73.4234 5.22183 75.3037C7.10197 77.184 9.6512 78.2418 12.3103 78.245H41.3633C38.9712 74.3817 37.6541 69.9496 37.5482 65.4069C37.4422 60.8642 38.5512 56.3756 40.7606 52.4049C42.97 48.4343 46.1996 45.1256 50.1157 42.8209C54.0318 40.5161 58.4923 39.2989 63.0363 39.295ZM38.2492 16.875H53.1123C53.7726 16.875 54.406 17.1373 54.8729 17.6043C55.3399 18.0713 55.6022 18.7046 55.6022 19.365C55.6022 20.0254 55.3399 20.6587 54.8729 21.1257C54.406 21.5927 53.7726 21.855 53.1123 21.855H38.2492C37.5889 21.855 36.9555 21.5927 36.4886 21.1257C36.0216 20.6587 35.7593 20.0254 35.7593 19.365C35.7593 18.7046 36.0216 18.0713 36.4886 17.6043C36.9555 17.1373 37.5889 16.875 38.2492 16.875ZM38.2492 26.837H53.1123C53.7726 26.837 54.406 27.0993 54.8729 27.5663C55.3399 28.0333 55.6022 28.6666 55.6022 29.327C55.6022 29.9874 55.3399 30.6207 54.8729 31.0877C54.406 31.5547 53.7726 31.817 53.1123 31.817H38.2492C37.5889 31.817 36.9555 31.5547 36.4886 31.0877C36.0216 30.6207 35.7593 29.9874 35.7593 29.327C35.7593 28.6666 36.0216 28.0333 36.4886 27.5663C36.9555 27.0993 37.5889 26.837 38.2492 26.837ZM29.8813 61.869H15.0243C14.3639 61.869 13.7305 61.6067 13.2636 61.1397C12.7966 60.6727 12.5343 60.0394 12.5343 59.379C12.5343 58.7186 12.7966 58.0853 13.2636 57.6183C13.7305 57.1513 14.3639 56.889 15.0243 56.889H29.8813C30.5416 56.889 31.175 57.1513 31.6419 57.6183C32.1089 58.0853 32.3713 58.7186 32.3713 59.379C32.3713 60.0394 32.1089 60.6727 31.6419 61.1397C31.175 61.6067 30.5416 61.869 29.8813 61.869ZM29.8813 51.741H15.0243C14.3639 51.741 13.7305 51.4787 13.2636 51.0117C12.7966 50.5447 12.5343 49.9114 12.5343 49.251C12.5343 48.5906 12.7966 47.9573 13.2636 47.4903C13.7305 47.0233 14.3639 46.761 15.0243 46.761H29.8813C30.5416 46.761 31.175 47.0233 31.6419 47.4903C32.1089 47.9573 32.3713 48.5906 32.3713 49.251C32.3713 49.9114 32.1089 50.5447 31.6419 51.0117C31.175 51.4787 30.5416 51.741 29.8813 51.741ZM29.8813 41.779H15.0243C14.3639 41.779 13.7305 41.5167 13.2636 41.0497C12.7966 40.5827 12.5343 39.9494 12.5343 39.289C12.5343 38.6286 12.7966 37.9953 13.2636 37.5283C13.7305 37.0613 14.3639 36.799 15.0243 36.799H29.8813C30.5416 36.799 31.175 37.0613 31.6419 37.5283C32.1089 37.9953 32.3713 38.6286 32.3713 39.289C32.3713 39.9494 32.1089 40.5827 31.6419 41.0497C31.175 41.5167 30.5416 41.779 29.8813 41.779ZM29.8813 31.817H15.0243C14.3639 31.817 13.7305 31.5547 13.2636 31.0877C12.7966 30.6207 12.5343 29.9874 12.5343 29.327C12.5343 28.6666 12.7966 28.0333 13.2636 27.5663C13.7305 27.0993 14.3639 26.837 15.0243 26.837H29.8813C30.5416 26.837 31.175 27.0993 31.6419 27.5663C32.1089 28.0333 32.3713 28.6666 32.3713 29.327C32.3713 29.9874 32.1089 30.6207 31.6419 31.0877C31.175 31.5547 30.5416 31.817 29.8813 31.817ZM29.8813 21.855H15.0243C14.3639 21.855 13.7305 21.5927 13.2636 21.1257C12.7966 20.6587 12.5343 20.0254 12.5343 19.365C12.5343 18.7046 12.7966 18.0713 13.2636 17.6043C13.7305 17.1373 14.3639 16.875 15.0243 16.875H29.8813C30.5416 16.875 31.175 17.1373 31.6419 17.6043C32.1089 18.0713 32.3713 18.7046 32.3713 19.365C32.3713 20.0254 32.1089 20.6587 31.6419 21.1257C31.175 21.5927 30.5416 21.855 29.8813 21.855ZM35.7542 39.288C35.7542 38.6276 36.0166 37.9943 36.4836 37.5273C36.9505 37.0603 37.5839 36.798 38.2443 36.798H45.4022C45.7292 36.798 46.053 36.8624 46.3551 36.9875C46.6572 37.1127 46.9317 37.2961 47.1629 37.5273C47.3942 37.7585 47.5776 38.033 47.7027 38.3351C47.8278 38.6372 47.8923 38.961 47.8923 39.288C47.8923 39.615 47.8278 39.9388 47.7027 40.2409C47.5776 40.543 47.3942 40.8175 47.1629 41.0487C46.9317 41.2799 46.6572 41.4633 46.3551 41.5885C46.053 41.7136 45.7292 41.778 45.4022 41.778H38.2492C37.5889 41.778 36.9555 41.5157 36.4886 41.0487C36.0216 40.5817 35.7593 39.9484 35.7593 39.288H35.7542Z" fill="#FF0000"/>
<path d="M77.7821 50.2943C73.9933 46.419 68.827 44.1974 63.4081 44.1133H63.031C58.2515 44.1112 53.6187 45.7639 49.9197 48.7907C46.2207 51.8174 43.6837 56.0314 42.7397 60.7167C41.7956 65.4021 42.5029 70.2698 44.7412 74.4928C46.9795 78.7158 50.6109 82.0336 55.0183 83.8825C59.4257 85.7314 64.3373 85.9974 68.9186 84.6353C73.4999 83.2731 77.4683 80.3669 80.1496 76.4103C82.8309 72.4538 84.0597 67.691 83.6272 62.9311C83.1947 58.1712 81.1276 53.7078 77.7771 50.2993L77.7821 50.2943ZM71.8681 61.4393L63.9681 71.2843C63.5683 71.7822 62.9924 72.1074 62.3596 72.1926C61.7267 72.2779 61.0854 72.1166 60.5681 71.7423L54.6781 67.4743C54.1433 67.0868 53.7843 66.5027 53.6801 65.8506C53.5759 65.1984 53.7351 64.5316 54.1226 63.9968C54.51 63.462 55.0941 63.103 55.7463 62.9988C56.3984 62.8947 57.0652 63.0538 57.6 63.4413L61.5711 66.3183L67.9851 58.3183C68.1897 58.0633 68.4426 57.8511 68.7293 57.6938C69.016 57.5365 69.3308 57.4372 69.6559 57.4016C69.9809 57.3659 70.3098 57.3947 70.6238 57.4862C70.9377 57.5777 71.2305 57.7301 71.4855 57.9348C71.7406 58.1395 71.9528 58.3923 72.1101 58.679C72.2674 58.9657 72.3667 59.2806 72.4023 59.6056C72.4379 59.9307 72.4091 60.2596 72.3176 60.5735C72.2261 60.8874 72.0737 61.1803 71.8691 61.4353L71.8681 61.4393Z" fill="#FF0000"/>
</g>
<defs>
<clipPath id="clip0_86_3554">
<rect width="85" height="85" fill="white" transform="translate(0.5 0.5)"/>
</clipPath>
</defs>
</svg>
