<svg width="87" height="86" viewBox="0 0 87 86" fill="none" xmlns="http://www.w3.org/2000/svg">
<g clip-path="url(#clip0_86_3511)">
<path d="M14.8894 52.1835C15.2525 52.4266 15.6599 52.5957 16.0883 52.6813C16.5168 52.7668 16.9579 52.7671 17.3865 52.6822C17.8151 52.5972 18.2227 52.4286 18.5861 52.1861C18.9495 51.9435 19.2615 51.6317 19.5044 51.2685C22.1467 47.326 25.7182 44.094 29.9041 41.8572C34.0901 39.6205 38.762 38.4478 43.508 38.4425C48.2541 38.4372 52.9286 39.5994 57.1196 41.8266C61.3105 44.0539 64.8893 47.278 67.5404 51.2145C67.7836 51.5786 68.0963 51.8911 68.4605 52.1341C68.8247 52.3771 69.2332 52.5459 69.6628 52.6306C70.0923 52.7154 70.5344 52.7146 70.9636 52.6282C71.3928 52.5418 71.8008 52.3715 72.164 52.1271C72.5273 51.8827 72.8388 51.5691 73.0806 51.2041C73.3224 50.8391 73.4898 50.4299 73.5732 50.0001C73.6565 49.5703 73.6542 49.1282 73.5664 48.6993C73.4786 48.2704 73.307 47.863 73.0614 47.5005C68.8324 41.2071 62.6998 36.4328 55.5614 33.8765C58.5671 31.4283 60.7425 28.1109 61.7897 24.3784C62.8368 20.6459 62.7046 16.681 61.411 13.0267C60.1174 9.37228 57.7258 6.20714 54.5637 3.96468C51.4015 1.72223 47.6235 0.512126 43.7469 0.500091C39.8704 0.488056 36.0849 1.67468 32.9089 3.89745C29.7329 6.12023 27.3216 9.27047 26.0054 12.9167C24.6892 16.563 24.5323 20.527 25.5563 24.2659C26.5802 28.0048 28.735 31.3357 31.7254 33.8025C24.4743 36.3488 18.2454 41.1794 13.9744 47.5685C13.4838 48.3019 13.3046 49.2 13.4762 50.0655C13.6478 50.931 14.1561 51.6928 14.8894 52.1835ZM43.6894 7.16853C46.0908 7.16912 48.4381 7.88172 50.4346 9.21624C52.431 10.5508 53.987 12.4473 54.9057 14.666C55.8244 16.8847 56.0646 19.326 55.596 21.6812C55.1273 24.0365 53.9709 26.1999 52.2728 27.8979C50.5748 29.596 48.4114 30.7524 46.0561 31.2211C43.7009 31.6897 41.2596 31.4495 39.0409 30.5308C36.8222 29.6121 34.9257 28.0561 33.5911 26.0597C32.2566 24.0632 31.544 21.7159 31.5434 19.3145C31.543 17.7194 31.8569 16.1398 32.4672 14.666C33.0774 13.1922 33.9721 11.8531 35.1 10.7251C36.228 9.59719 37.5671 8.70254 39.0409 8.09228C40.5147 7.48203 42.0943 7.16813 43.6894 7.16853ZM56.9534 59.4205L51.9934 62.9985C51.6343 63.2564 51.3666 63.6219 51.229 64.042C51.0915 64.4622 51.0913 64.9152 51.2284 65.3355L53.2284 71.1245C53.3089 71.366 53.3448 71.6202 53.3344 71.8745C53.2986 72.2575 53.1628 72.6243 52.9404 72.9382C52.718 73.2521 52.417 73.5019 52.0676 73.6627C51.7182 73.8235 51.3326 73.8896 50.9496 73.8542C50.5666 73.8189 50.1996 73.6835 49.8854 73.4615L44.9264 69.8825C44.566 69.623 44.1331 69.4834 43.6889 69.4834C43.2448 69.4834 42.8119 69.623 42.4514 69.8825L37.4924 73.4615C37.1784 73.6838 36.8113 73.8195 36.4282 73.855C36.0451 73.8905 35.6593 73.8245 35.3098 73.6636C34.9603 73.5028 34.6592 73.2528 34.4369 72.9387C34.2146 72.6247 34.0789 72.2577 34.0434 71.8745C34.0344 71.6201 34.0709 71.3661 34.1514 71.1245L36.1514 65.3355C36.2886 64.9152 36.2883 64.4622 36.1508 64.042C36.0133 63.6219 35.7455 63.2564 35.3864 62.9985L30.4264 59.4205C30.0656 59.1411 29.7986 58.7582 29.6609 58.3231C29.5233 57.8879 29.5216 57.4212 29.6561 56.985C29.7907 56.5489 30.0549 56.1642 30.4138 55.8821C30.7726 55.6001 31.2089 55.4342 31.6644 55.4065H37.7944C38.2148 55.4536 38.639 55.3603 39.0008 55.141C39.3626 54.9218 39.6416 54.589 39.7944 54.1945L41.6884 48.3685C41.8292 47.9496 42.098 47.5855 42.4569 47.3276C42.8157 47.0697 43.2465 46.9309 43.6884 46.9309C44.1303 46.9309 44.5611 47.0697 44.92 47.3276C45.2788 47.5855 45.5476 47.9496 45.6884 48.3685L47.5834 54.1945C47.7362 54.589 48.0153 54.9218 48.3771 55.141C48.7388 55.3603 49.163 55.4536 49.5834 55.4065H55.7134C56.1691 55.4338 56.6057 55.5995 56.9648 55.8814C57.3239 56.1633 57.5885 56.548 57.7233 56.9842C57.858 57.4204 57.8565 57.8873 57.719 58.3226C57.5814 58.7579 57.3143 59.1409 56.9534 59.4205ZM85.3974 71.0645L80.4374 74.6425C80.0783 74.9004 79.8106 75.2659 79.673 75.686C79.5355 76.1062 79.5353 76.5592 79.6724 76.9795L81.6724 82.7685C81.7529 83.01 81.7888 83.2642 81.7784 83.5185C81.7426 83.9015 81.6068 84.2683 81.3844 84.5822C81.162 84.8961 80.8611 85.1459 80.5116 85.3067C80.1622 85.4675 79.7766 85.5336 79.3936 85.4983C79.0106 85.4629 78.6436 85.3275 78.3294 85.1055L73.3704 81.5265C73.01 81.267 72.5771 81.1274 72.1329 81.1274C71.6888 81.1274 71.2559 81.267 70.8954 81.5265L65.9364 85.1055C65.6221 85.3287 65.2544 85.465 64.8705 85.5007C64.4867 85.5364 64.1002 85.4702 63.7501 85.3088C63.4 85.1474 63.0986 84.8966 62.8764 84.5816C62.6542 84.2665 62.519 83.8985 62.4844 83.5145C62.4754 83.2601 62.5119 83.0061 62.5924 82.7645L64.5924 76.9755C64.7296 76.5552 64.7293 76.1022 64.5918 75.682C64.4543 75.2619 64.1865 74.8964 63.8274 74.6385L58.8674 71.0605C58.5082 70.7808 58.2425 70.3984 58.1057 69.9641C57.9689 69.5298 57.9675 69.0641 58.1016 68.629C58.2358 68.1939 58.4991 67.8098 58.8566 67.5279C59.2142 67.246 59.649 67.0795 60.1034 67.0505H66.2334C66.6538 67.0976 67.078 67.0043 67.4398 66.785C67.8016 66.5658 68.0806 66.233 68.2334 65.8385L70.1284 60.0145C70.2693 59.5956 70.538 59.2315 70.8969 58.9736C71.2557 58.7157 71.6865 58.5769 72.1284 58.5769C72.5704 58.5769 73.0011 58.7157 73.36 58.9736C73.7188 59.2315 73.9876 59.5956 74.1284 60.0145L76.0224 65.8405C76.1752 66.235 76.4543 66.5678 76.8161 66.787C77.1779 67.0063 77.602 67.0996 78.0224 67.0525H84.1524C84.6081 67.0794 85.0447 67.2445 85.404 67.5259C85.7634 67.8073 86.0284 68.1916 86.1637 68.6276C86.2989 69.0635 86.2981 69.5303 86.1612 69.9657C86.0243 70.4011 85.7578 70.7845 85.3974 71.0645ZM28.5094 71.0645L23.5494 74.6425C23.1903 74.9004 22.9226 75.2659 22.785 75.686C22.6475 76.1062 22.6473 76.5592 22.7844 76.9795L24.7844 82.7685C24.8649 83.01 24.9008 83.2642 24.8904 83.5185C24.8546 83.9015 24.7188 84.2683 24.4964 84.5822C24.274 84.8961 23.9731 85.1459 23.6236 85.3067C23.2742 85.4675 22.8886 85.5336 22.5056 85.4983C22.1226 85.4629 21.7556 85.3275 21.4414 85.1055L16.4814 81.5265C16.121 81.267 15.6881 81.1274 15.2439 81.1274C14.7998 81.1274 14.3669 81.267 14.0064 81.5265L9.04542 85.1055C8.73108 85.3279 8.36371 85.4636 7.98028 85.4989C7.59685 85.5341 7.21089 85.4678 6.86125 85.3065C6.5116 85.1452 6.21062 84.8947 5.98858 84.5801C5.76654 84.2655 5.63128 83.898 5.59642 83.5145C5.58735 83.2601 5.62393 83.0061 5.70442 82.7645L7.70442 76.9755C7.84155 76.5552 7.84133 76.1022 7.7038 75.682C7.56626 75.2619 7.29854 74.8964 6.93942 74.6385L1.97542 71.0645C1.61459 70.7851 1.34755 70.4022 1.20993 69.9671C1.0723 69.5319 1.07063 69.0652 1.20514 68.629C1.33965 68.1929 1.60394 67.8082 1.96276 67.5261C2.32158 67.2441 2.75787 67.0782 3.21342 67.0505H9.34342C9.76382 67.0976 10.188 67.0043 10.5498 66.785C10.9116 66.5658 11.1906 66.233 11.3434 65.8385L13.2404 60.0145C13.3812 59.5956 13.65 59.2315 14.0089 58.9736C14.3677 58.7157 14.7985 58.5769 15.2404 58.5769C15.6823 58.5769 16.1131 58.7157 16.472 58.9736C16.8308 59.2315 17.0996 59.5956 17.2404 60.0145L19.1344 65.8405C19.2872 66.235 19.5663 66.5678 19.9281 66.787C20.2899 67.0063 20.714 67.0996 21.1344 67.0525H27.2644C27.7201 67.0794 28.1567 67.2445 28.516 67.5259C28.8754 67.8073 29.1404 68.1916 29.2757 68.6276C29.4109 69.0635 29.4101 69.5303 29.2732 69.9657C29.1363 70.4011 28.8698 70.7845 28.5094 71.0645Z" fill="#FF0000"/>
</g>
<defs>
<clipPath id="clip0_86_3511">
<rect width="85.765" height="85.015" fill="white" transform="translate(0.5 0.5)"/>
</clipPath>
</defs>
</svg>
