<svg width="86" height="87" viewBox="0 0 86 87" fill="none" xmlns="http://www.w3.org/2000/svg">
<g clip-path="url(#clip0_86_3480)">
<path d="M57.7945 45.9238C53.7598 45.9238 49.8157 47.1203 46.4609 49.3619C43.1061 51.6034 40.4914 54.7895 38.9474 58.5171C37.4034 62.2447 36.9994 66.3465 37.7865 70.3037C38.5737 74.2609 40.5166 77.8958 43.3696 80.7488C46.2225 83.6018 49.8575 85.5447 53.8147 86.3318C57.7719 87.119 61.8737 86.715 65.6013 85.171C69.3289 83.6269 72.5149 81.0122 74.7565 77.6575C76.9981 74.3027 78.1945 70.3586 78.1945 66.3238C78.1945 60.9134 76.0453 55.7246 72.2195 51.8988C68.3938 48.0731 63.205 45.9238 57.7945 45.9238ZM56.7945 62.7078L61.4015 65.0788C62.7327 65.7507 63.8126 66.8327 64.4819 68.1651C65.1511 69.4976 65.3744 71.0099 65.1185 72.4788C64.9487 73.6122 64.4939 74.6838 63.7967 75.5933C63.0996 76.5028 62.1828 77.2204 61.1325 77.6788V78.2928C61.1325 79.0442 60.8341 79.7648 60.3028 80.2961C59.7715 80.8274 59.0509 81.1258 58.2995 81.1258C57.5482 81.1258 56.8276 80.8274 56.2963 80.2961C55.765 79.7648 55.4665 79.0442 55.4665 78.2928V77.8648C54.3479 77.4945 53.32 76.8923 52.4499 76.0976C51.5799 75.3028 50.8874 74.3335 50.4175 73.2528C50.1182 72.5633 50.1051 71.783 50.3811 71.0838C50.6571 70.3846 51.1995 69.8236 51.889 69.5243C52.5786 69.225 53.3588 69.2119 54.0581 69.4879C54.7573 69.7638 55.3182 70.3063 55.6175 70.9958C55.8467 71.5191 56.2341 71.9574 56.7252 72.2492C57.2163 72.541 57.7864 72.6717 58.3555 72.6228C58.6434 72.6186 58.9202 72.511 59.1353 72.3198C59.3505 72.1285 59.4897 71.8662 59.5275 71.5808C59.5838 71.2921 59.5446 70.9929 59.4158 70.7284C59.287 70.4639 59.0755 70.2486 58.8135 70.1148L54.2065 67.7438C52.857 67.0548 51.7681 65.9456 51.1041 64.5835C50.4401 63.2215 50.237 61.6804 50.5255 60.1928C50.7433 58.9097 51.3251 57.7161 52.2018 56.7542C53.0785 55.7922 54.2131 55.1024 55.4705 54.7668V54.3448C55.4705 53.5935 55.769 52.8729 56.3003 52.3416C56.8316 51.8103 57.5522 51.5118 58.3035 51.5118C59.0549 51.5118 59.7755 51.8103 60.3068 52.3416C60.8381 52.8729 61.1366 53.5935 61.1366 54.3448V55.3918C62.9397 56.2486 64.3737 57.7266 65.1756 59.5548C65.4755 60.2444 65.4893 61.0249 65.2138 61.7246C64.9383 62.4243 64.3961 62.9859 63.7065 63.2858C63.017 63.5858 62.2365 63.5995 61.5368 63.3241C60.8371 63.0486 60.2755 62.5064 59.9755 61.8168C59.7476 61.2925 59.3606 60.853 58.8693 60.5605C58.3779 60.268 57.8072 60.1373 57.2375 60.1868C56.9544 60.1996 56.6846 60.311 56.4751 60.5019C56.2656 60.6928 56.1295 60.9511 56.0905 61.2318C56.0217 61.5218 56.054 61.8266 56.1823 62.0956C56.3105 62.3647 56.5269 62.5817 56.7956 62.7108L56.7945 62.7078Z" fill="#FF0000"/>
<path d="M63.5862 1.99616L58.5663 4.70616C58.2328 4.88507 57.8602 4.97871 57.4818 4.97871C57.1033 4.97871 56.7307 4.88507 56.3972 4.70616L49.1112 0.774162C48.7777 0.594212 48.4047 0.5 48.0258 0.5C47.6468 0.5 47.2738 0.594212 46.9402 0.774162L39.6703 4.70416C39.3367 4.88411 38.9637 4.97832 38.5847 4.97832C38.2058 4.97832 37.8328 4.88411 37.4992 4.70416L30.2312 0.777161C29.8981 0.596163 29.5249 0.50135 29.1458 0.50135C28.7666 0.50135 28.3934 0.596163 28.0602 0.777161L20.7943 4.70416C20.4605 4.88464 20.0871 4.97914 19.7077 4.97914C19.3283 4.97914 18.955 4.88464 18.6212 4.70416L13.6353 2.00417C13.2917 1.8161 12.9053 1.72029 12.5137 1.72607C12.1221 1.73186 11.7387 1.83904 11.4008 2.03717C11.063 2.2353 10.7823 2.51761 10.5861 2.85656C10.3898 3.19551 10.2848 3.57953 10.2812 3.97116V75.8502C10.2847 76.2417 10.3894 76.6256 10.5854 76.9646C10.7814 77.3035 11.0618 77.5859 11.3994 77.7842C11.737 77.9826 12.1203 78.09 12.5117 78.0961C12.9032 78.1022 13.2896 78.0068 13.6332 77.8192L18.6532 75.1122C18.9864 74.9322 19.3591 74.838 19.7377 74.838C20.1164 74.838 20.4891 74.9322 20.8222 75.1122L28.1082 79.0422C28.4418 79.2221 28.8148 79.3163 29.1938 79.3163C29.5727 79.3163 29.9457 79.2221 30.2792 79.0422L34.5493 76.7342C33.1177 73.4978 32.3782 69.998 32.3782 66.4592C32.416 62.3281 33.4364 58.2654 35.3551 54.6068C37.2738 50.9482 40.0358 47.7988 43.4127 45.419C46.7895 43.0392 50.6843 41.4972 54.7751 40.9206C58.8659 40.3441 63.0351 40.7494 66.9382 42.1032V3.96616C66.9347 3.57468 66.8299 3.19077 66.6339 2.85184C66.4379 2.51292 66.1575 2.23052 65.82 2.03215C65.4824 1.83378 65.0993 1.72621 64.7079 1.7199C64.3164 1.7136 63.93 1.80877 63.5862 1.99616ZM25.0112 56.4702H21.6112C20.8676 56.4702 20.1544 56.1747 19.6285 55.6489C19.1027 55.123 18.8073 54.4098 18.8073 53.6662C18.8073 52.9225 19.1027 52.2093 19.6285 51.6834C20.1544 51.1576 20.8676 50.8622 21.6112 50.8622H25.0112C25.7549 50.8622 26.4681 51.1576 26.994 51.6834C27.5198 52.2093 27.8152 52.9225 27.8152 53.6662C27.8152 54.4098 27.5198 55.123 26.994 55.6489C26.4681 56.1747 25.7549 56.4702 25.0112 56.4702ZM31.6472 45.2552H21.6122C20.8687 45.2552 20.1556 44.9598 19.6299 44.434C19.1041 43.9083 18.8087 43.1952 18.8087 42.4517C18.8087 41.7081 19.1041 40.995 19.6299 40.4693C20.1556 39.9435 20.8687 39.6482 21.6122 39.6482H31.6472C32.3908 39.6482 33.1038 39.9435 33.6296 40.4693C34.1554 40.995 34.4507 41.7081 34.4507 42.4517C34.4507 43.1952 34.1554 43.9083 33.6296 44.434C33.1038 44.9598 32.3908 45.2552 31.6472 45.2552ZM55.0472 34.0402H21.6053C20.8616 34.0402 20.1484 33.7447 19.6225 33.2189C19.0967 32.693 18.8012 31.9798 18.8012 31.2362C18.8012 30.4925 19.0967 29.7793 19.6225 29.2534C20.1484 28.7276 20.8616 28.4322 21.6053 28.4322H55.0453C55.7889 28.4322 56.5021 28.7276 57.028 29.2534C57.5538 29.7793 57.8492 30.4925 57.8492 31.2362C57.8492 31.9798 57.5538 32.693 57.028 33.2189C56.5021 33.7447 55.7889 34.0402 55.0453 34.0402H55.0472ZM55.0472 22.8252H21.6053C20.8617 22.8252 20.1486 22.5298 19.6229 22.004C19.0971 21.4783 18.8018 20.7652 18.8018 20.0217C18.8018 19.2781 19.0971 18.565 19.6229 18.0393C20.1486 17.5135 20.8617 17.2182 21.6053 17.2182H55.0453C55.7888 17.2182 56.5019 17.5135 57.0276 18.0393C57.5534 18.565 57.8488 19.2781 57.8488 20.0217C57.8488 20.7652 57.5534 21.4783 57.0276 22.004C56.5019 22.5298 55.7888 22.8252 55.0453 22.8252H55.0472Z" fill="#FF0000"/>
</g>
<defs>
<clipPath id="clip0_86_3480">
<rect width="85" height="86.223" fill="white" transform="translate(0.5 0.5)"/>
</clipPath>
</defs>
</svg>
