<svg width="86" height="86" viewBox="0 0 86 86" fill="none" xmlns="http://www.w3.org/2000/svg">
<g clip-path="url(#clip0_86_3493)">
<path d="M25.4227 65.8552C25.2545 65.5702 24.9807 65.363 24.6607 65.2788C24.3407 65.1945 24.0004 65.2399 23.7137 65.4052L20.5827 67.2222V63.6052C20.5735 63.282 20.4387 62.9752 20.2068 62.7498C19.975 62.5245 19.6645 62.3984 19.3412 62.3984C19.0179 62.3984 18.7073 62.5245 18.4755 62.7498C18.2437 62.9752 18.1088 63.282 18.0997 63.6052V67.2222L14.9687 65.4052C14.8268 65.3198 14.6694 65.2635 14.5056 65.2395C14.3418 65.2155 14.1748 65.2242 14.0144 65.2653C13.854 65.3063 13.7034 65.3788 13.5712 65.4785C13.4391 65.5782 13.3281 65.7032 13.2446 65.8462C13.1612 65.9892 13.107 66.1473 13.0851 66.3115C13.0633 66.4756 13.0743 66.6424 13.1175 66.8022C13.1606 66.962 13.2351 67.1117 13.3366 67.2425C13.4381 67.3733 13.5646 67.4827 13.7087 67.5642L16.8577 69.3992L13.7087 71.2342C13.5646 71.3157 13.4381 71.4251 13.3366 71.5559C13.2351 71.6867 13.1606 71.8364 13.1175 71.9962C13.0743 72.156 13.0633 72.3228 13.0851 72.4869C13.107 72.6511 13.1612 72.8092 13.2446 72.9522C13.3281 73.0952 13.4391 73.2202 13.5712 73.3199C13.7034 73.4196 13.854 73.4921 14.0144 73.5331C14.1748 73.5742 14.3418 73.5829 14.5056 73.5589C14.6694 73.5349 14.8268 73.4785 14.9687 73.3932L18.0997 71.5762V75.1932C18.095 75.3592 18.1236 75.5245 18.1839 75.6792C18.2441 75.8339 18.3348 75.975 18.4506 76.0941C18.5663 76.2132 18.7048 76.3079 18.8577 76.3725C19.0107 76.4371 19.1751 76.4704 19.3412 76.4704C19.5072 76.4704 19.6716 76.4371 19.8246 76.3725C19.9776 76.3079 20.116 76.2132 20.2318 76.0941C20.3475 75.975 20.4382 75.8339 20.4985 75.6792C20.5587 75.5245 20.5874 75.3592 20.5827 75.1932V71.5762L23.7137 73.3932C23.8555 73.4785 24.0129 73.5349 24.1767 73.5589C24.3405 73.5829 24.5075 73.5742 24.6679 73.5331C24.8283 73.4921 24.9789 73.4196 25.1111 73.3199C25.2432 73.2202 25.3543 73.0952 25.4377 72.9522C25.5212 72.8092 25.5754 72.6511 25.5972 72.4869C25.619 72.3228 25.608 72.156 25.5649 71.9962C25.5217 71.8364 25.4472 71.6867 25.3457 71.5559C25.2442 71.4251 25.1178 71.3157 24.9737 71.2342L21.8227 69.3962L24.9717 67.5612C25.1136 67.479 25.2378 67.3697 25.3374 67.2394C25.4369 67.1091 25.5097 66.9604 25.5516 66.8019C25.5935 66.6434 25.6037 66.4781 25.5816 66.3157C25.5594 66.1532 25.5054 65.9967 25.4227 65.8552Z" fill="#FF0000"/>
<path d="M36.9183 72.9238C37.0864 73.2088 37.3602 73.416 37.6802 73.5002C38.0002 73.5845 38.3406 73.5391 38.6272 73.3738L41.7582 71.5568V75.1738C41.7535 75.3398 41.7822 75.5051 41.8424 75.6599C41.9027 75.8146 41.9934 75.9557 42.1092 76.0747C42.2249 76.1938 42.3634 76.2885 42.5163 76.3531C42.6693 76.4178 42.8337 76.4511 42.9997 76.4511C43.1658 76.4511 43.3302 76.4178 43.4832 76.3531C43.6361 76.2885 43.7746 76.1938 43.8903 76.0747C44.0061 75.9557 44.0968 75.8146 44.1571 75.6599C44.2173 75.5051 44.246 75.3398 44.2412 75.1738V71.5568L47.3722 73.3738C47.5141 73.4592 47.6715 73.5155 47.8353 73.5396C47.9991 73.5636 48.1661 73.5548 48.3265 73.5138C48.4869 73.4727 48.6375 73.4003 48.7697 73.3005C48.9018 73.2008 49.0128 73.0758 49.0963 72.9328C49.1797 72.7898 49.234 72.6317 49.2558 72.4676C49.2776 72.3034 49.2666 72.1366 49.2234 71.9768C49.1803 71.817 49.1058 71.6673 49.0043 71.5365C48.9028 71.4057 48.7763 71.2964 48.6323 71.2148L45.4833 69.3798L48.6323 67.5448C48.7763 67.4633 48.9028 67.354 49.0043 67.2232C49.1058 67.0924 49.1803 66.9427 49.2234 66.7829C49.2666 66.623 49.2776 66.4562 49.2558 66.2921C49.234 66.128 49.1797 65.9698 49.0963 65.8268C49.0128 65.6839 48.9018 65.5589 48.7697 65.4591C48.6375 65.3594 48.4869 65.2869 48.3265 65.2459C48.1661 65.2049 47.9991 65.1961 47.8353 65.2201C47.6715 65.2441 47.5141 65.3005 47.3722 65.3858L44.2412 67.2029V63.5858C44.246 63.4198 44.2173 63.2546 44.1571 63.0998C44.0968 62.9451 44.0061 62.804 43.8903 62.6849C43.7746 62.5658 43.6361 62.4712 43.4832 62.4065C43.3302 62.3419 43.1658 62.3086 42.9997 62.3086C42.8337 62.3086 42.6693 62.3419 42.5163 62.4065C42.3634 62.4712 42.2249 62.5658 42.1092 62.6849C41.9934 62.804 41.9027 62.9451 41.8424 63.0998C41.7822 63.2546 41.7535 63.4198 41.7582 63.5858V67.2029L38.6272 65.4028C38.3415 65.2453 38.0055 65.2058 37.691 65.2927C37.3764 65.3796 37.1084 65.586 36.944 65.8679C36.7796 66.1497 36.732 66.4847 36.8113 66.8012C36.8905 67.1177 37.0904 67.3907 37.3682 67.5618L40.5172 69.3969L37.3682 71.2138C37.083 71.382 36.8756 71.656 36.7914 71.9762C36.7071 72.2965 36.7527 72.637 36.9183 72.9238Z" fill="#FF0000"/>
<path d="M34.6875 82.3525V84.5524C34.6891 84.805 34.7901 85.0467 34.9687 85.2253C35.1472 85.4039 35.389 85.5049 35.6415 85.5065H50.3775C50.6301 85.5049 50.8718 85.4039 51.0504 85.2253C51.2289 85.0467 51.3299 84.805 51.3315 84.5524V82.3525C51.3299 82.0999 51.2289 81.8582 51.0504 81.6796C50.8718 81.501 50.6301 81.4 50.3775 81.3985H35.6415C35.516 81.3977 35.3916 81.4218 35.2755 81.4694C35.1594 81.5171 35.0539 81.5874 34.9652 81.6761C34.8764 81.7649 34.8062 81.8703 34.7585 81.9864C34.7109 82.1025 34.6867 82.227 34.6875 82.3525Z" fill="#FF0000"/>
<path d="M58.4568 20.996H58.3508V16.106C58.3508 7.59502 51.3878 0.36202 42.8948 0.50602C38.9095 0.580555 35.112 2.2136 32.3166 5.05502C29.5212 7.89644 27.9503 11.72 27.9408 15.706V16.174C27.9418 16.5125 28.0767 16.8368 28.3159 17.0762C28.5551 17.3156 28.8793 17.4507 29.2178 17.452H33.3018C33.6402 17.4507 33.9644 17.3156 34.2036 17.0762C34.4429 16.8368 34.5777 16.5125 34.5788 16.174V16.03C34.546 13.8134 35.3535 11.6665 36.8389 10.0209C38.3242 8.37526 40.3774 7.3528 42.5858 7.15902C43.7518 7.08575 44.9204 7.25186 46.0198 7.64712C47.1192 8.04238 48.1261 8.65843 48.9786 9.45737C49.831 10.2563 50.5109 11.2212 50.9765 12.2927C51.442 13.3643 51.6834 14.5197 51.6858 15.688V20.978H39.0858V20.996H27.4508C26.4095 21.0256 25.4206 21.4588 24.6928 22.2041C23.9651 22.9494 23.5556 23.9484 23.5508 24.99V47.122C23.5518 48.1857 23.9749 49.2056 24.727 49.9578C25.4792 50.7099 26.4991 51.133 27.5628 51.134H58.4388C59.5025 51.133 60.5224 50.7099 61.2745 49.9578C62.0267 49.2056 62.4497 48.1857 62.4508 47.122V25.006C62.4535 24.48 62.3522 23.9586 62.1527 23.4719C61.9532 22.9852 61.6593 22.5427 61.2881 22.17C60.9169 21.7973 60.4756 21.5017 59.9897 21.3002C59.5038 21.0987 58.9828 20.9954 58.4568 20.996ZM45.3938 37.064C45.2588 37.149 45.1501 37.2696 45.0795 37.4126C45.0089 37.5555 44.9792 37.7152 44.9938 37.874C45.0118 39.493 45.0118 41.113 44.9938 42.75C45.0174 43.0827 44.9431 43.4151 44.7799 43.706C44.6168 43.9969 44.372 44.2337 44.0758 44.387C43.7877 44.5517 43.4616 44.6381 43.1298 44.6376C42.798 44.6371 42.4722 44.5497 42.1846 44.3841C41.8971 44.2186 41.658 43.9806 41.491 43.6939C41.324 43.4072 41.2349 43.0818 41.2328 42.75V37.856C41.2465 37.7067 41.2204 37.5564 41.1571 37.4205C41.0939 37.2845 40.9958 37.1678 40.8728 37.082C40.1674 36.583 39.6589 35.8527 39.4355 35.018C39.2121 34.1833 39.2879 33.2967 39.6498 32.512C40.0026 31.7271 40.6125 31.0859 41.3789 30.6943C42.1452 30.3027 43.0221 30.1841 43.865 30.3581C44.7078 30.5321 45.4661 30.9882 46.0148 31.6512C46.5634 32.3143 46.8696 33.1445 46.8828 34.005C46.9225 34.6004 46.806 35.1959 46.5448 35.7324C46.2836 36.2689 45.8869 36.728 45.3938 37.064Z" fill="#FF0000"/>
<path d="M58.332 82.3524V84.5524C58.3336 84.805 58.4346 85.0467 58.6132 85.2253C58.7918 85.4039 59.0335 85.5049 59.286 85.5064H74.022C74.2746 85.5049 74.5163 85.4039 74.6949 85.2253C74.8735 85.0467 74.9745 84.805 74.976 84.5524V82.3524C74.9745 82.0999 74.8735 81.8582 74.6949 81.6796C74.5163 81.501 74.2746 81.4 74.022 81.3984H59.286C59.0335 81.4 58.7918 81.501 58.6132 81.6796C58.4346 81.8582 58.3336 82.0999 58.332 82.3524Z" fill="#FF0000"/>
<path d="M60.5623 72.9238C60.7305 73.2088 61.0043 73.416 61.3243 73.5002C61.6443 73.5845 61.9847 73.5391 62.2714 73.3738L65.4023 71.5568V75.1738C65.4115 75.497 65.5463 75.8039 65.7782 76.0292C66.01 76.2545 66.3206 76.3806 66.6439 76.3806C66.9672 76.3806 67.2777 76.2545 67.5095 76.0292C67.7413 75.8039 67.8762 75.497 67.8853 75.1738V71.5568L71.0164 73.3738C71.3021 73.5314 71.6381 73.5709 71.9526 73.484C72.2671 73.3971 72.5352 73.1907 72.6996 72.9088C72.864 72.6269 72.9116 72.292 72.8323 71.9755C72.7531 71.6589 72.5532 71.386 72.2754 71.2148L69.1263 69.3798L72.2754 67.5448C72.5532 67.3737 72.7531 67.1007 72.8323 66.7842C72.9116 66.4677 72.864 66.1327 72.6996 65.8508C72.5352 65.569 72.2671 65.3626 71.9526 65.2757C71.6381 65.1888 71.3021 65.2283 71.0164 65.3858L67.8853 67.2029V63.5858C67.8901 63.4198 67.8614 63.2546 67.8012 63.0998C67.7409 62.9451 67.6502 62.804 67.5344 62.6849C67.4187 62.5658 67.2803 62.4712 67.1273 62.4065C66.9743 62.3419 66.8099 62.3086 66.6439 62.3086C66.4778 62.3086 66.3134 62.3419 66.1604 62.4065C66.0075 62.4712 65.869 62.5658 65.7533 62.6849C65.6375 62.804 65.5468 62.9451 65.4865 63.0998C65.4263 63.2546 65.3976 63.4198 65.4023 63.5858V67.2029L62.2714 65.3858C61.9856 65.2283 61.6496 65.1888 61.335 65.2757C61.0205 65.3626 60.7525 65.569 60.5881 65.8508C60.4237 66.1327 60.3761 66.4677 60.4553 66.7842C60.5346 67.1007 60.7345 67.3737 61.0124 67.5448L64.1613 69.3798L61.0124 71.2148C60.7273 71.383 60.5202 71.6568 60.4359 71.9768C60.3517 72.2968 60.3971 72.6371 60.5623 72.9238Z" fill="#FF0000"/>
<path d="M11.9813 85.5006H26.7173C26.9699 85.499 27.2116 85.398 27.3902 85.2194C27.5688 85.0409 27.6698 84.7991 27.6713 84.5466V82.3466C27.6698 82.0941 27.5688 81.8523 27.3902 81.6737C27.2116 81.4952 26.9699 81.3942 26.7173 81.3926H11.9813C11.7278 81.3942 11.4851 81.496 11.3064 81.6759C11.1277 81.8557 11.0273 82.099 11.0273 82.3526V84.5526C11.0305 84.8041 11.1322 85.0443 11.3106 85.2216C11.489 85.3988 11.7298 85.499 11.9813 85.5006Z" fill="#FF0000"/>
</g>
<defs>
<clipPath id="clip0_86_3493">
<rect width="85" height="85.006" fill="white" transform="translate(0.5 0.5)"/>
</clipPath>
</defs>
</svg>
