<svg width="86" height="86" viewBox="0 0 86 86" fill="none" xmlns="http://www.w3.org/2000/svg">
<g clip-path="url(#clip0_86_3560)">
<path d="M10.6206 6.23438C10.1732 6.23517 9.74446 6.4133 9.42823 6.72972C9.112 7.04614 8.93412 7.47502 8.93359 7.92237V74.7714C9.63259 74.4163 10.4259 74.2914 11.2002 74.4144C11.9745 74.5374 12.6901 74.9021 13.2446 75.4564L16.4896 78.7014L22.0536 74.9924C22.6633 74.5856 23.3797 74.3686 24.1126 74.3686C24.8455 74.3686 25.5619 74.5856 26.1716 74.9924L32.2076 79.0164L38.2436 74.9904C38.8536 74.585 39.5697 74.3687 40.3021 74.3687C41.0345 74.3687 41.7506 74.585 42.3606 74.9904L47.9256 78.7024L51.1706 75.4554C51.7255 74.9017 52.4412 74.5376 53.2154 74.4149C53.9896 74.2923 54.7827 74.4174 55.4816 74.7724V7.92138C55.4799 7.35555 55.5308 6.79079 55.6336 6.23438H10.6206ZM15.3426 64.5874C15.3426 65.1242 15.1294 65.639 14.7498 66.0186C14.3702 66.3981 13.8554 66.6114 13.3186 66.6114C12.7818 66.6114 12.267 66.3981 11.8874 66.0186C11.5078 65.639 11.2946 65.1242 11.2946 64.5874V53.7934C11.2946 53.2566 11.5078 52.7418 11.8874 52.3622C12.267 51.9826 12.7818 51.7694 13.3186 51.7694C13.8554 51.7694 14.3702 51.9826 14.7498 52.3622C15.1294 52.7418 15.3426 53.2566 15.3426 53.7934V64.5874ZM20.7426 64.5874C20.7426 65.1242 20.5294 65.639 20.1498 66.0186C19.7702 66.3981 19.2554 66.6114 18.7186 66.6114C18.1818 66.6114 17.667 66.3981 17.2874 66.0186C16.9078 65.639 16.6946 65.1242 16.6946 64.5874V53.7934C16.6946 53.2566 16.9078 52.7418 17.2874 52.3622C17.667 51.9826 18.1818 51.7694 18.7186 51.7694C19.2554 51.7694 19.7702 51.9826 20.1498 52.3622C20.5294 52.7418 20.7426 53.2566 20.7426 53.7934V64.5874ZM28.8426 64.5874C28.8426 65.1242 28.6294 65.639 28.2498 66.0186C27.8702 66.3981 27.3554 66.6114 26.8186 66.6114C26.2818 66.6114 25.767 66.3981 25.3874 66.0186C25.0078 65.639 24.7946 65.1242 24.7946 64.5874V53.7934C24.7946 53.2566 25.0078 52.7418 25.3874 52.3622C25.767 51.9826 26.2818 51.7694 26.8186 51.7694C27.3554 51.7694 27.8702 51.9826 28.2498 52.3622C28.6294 52.7418 28.8426 53.2566 28.8426 53.7934V64.5874ZM34.2426 64.5874C34.2426 65.1242 34.0294 65.639 33.6498 66.0186C33.2702 66.3981 32.7554 66.6114 32.2186 66.6114C31.6818 66.6114 31.167 66.3981 30.7874 66.0186C30.4078 65.639 30.1946 65.1242 30.1946 64.5874V53.7934C30.1946 53.2566 30.4078 52.7418 30.7874 52.3622C31.167 51.9826 31.6818 51.7694 32.2186 51.7694C32.7554 51.7694 33.2702 51.9826 33.6498 52.3622C34.0294 52.7418 34.2426 53.2566 34.2426 53.7934V64.5874ZM39.6426 64.5874C39.6426 65.1242 39.4293 65.639 39.0498 66.0186C38.6702 66.3981 38.1554 66.6114 37.6186 66.6114C37.0818 66.6114 36.567 66.3981 36.1874 66.0186C35.8078 65.639 35.5946 65.1242 35.5946 64.5874V53.7934C35.5946 53.2566 35.8078 52.7418 36.1874 52.3622C36.567 51.9826 37.0818 51.7694 37.6186 51.7694C38.1554 51.7694 38.6702 51.9826 39.0498 52.3622C39.4293 52.7418 39.6426 53.2566 39.6426 53.7934V64.5874ZM29.5236 24.7874H34.9236C35.8981 24.7874 36.8631 24.9793 37.7635 25.3523C38.6638 25.7252 39.4819 26.2718 40.171 26.9609C40.8601 27.65 41.4068 28.4681 41.7797 29.3685C42.1526 30.2688 42.3446 31.2338 42.3446 32.2084C42.3446 33.1829 42.1526 34.1479 41.7797 35.0483C41.4068 35.9486 40.8601 36.7667 40.171 37.4558C39.4819 38.1449 38.6638 38.6915 37.7635 39.0645C36.8631 39.4374 35.8981 39.6294 34.9236 39.6294H34.2336V43.0024C34.2336 43.5392 34.0204 44.054 33.6408 44.4336C33.2612 44.8131 32.7464 45.0264 32.2096 45.0264C31.6728 45.0264 31.158 44.8131 30.7784 44.4336C30.3988 44.054 30.1856 43.5392 30.1856 43.0024V39.6274H28.1596C26.55 39.6255 25.0069 38.9853 23.8688 37.8472C22.7307 36.709 22.0904 35.1659 22.0886 33.5564C22.0886 33.0196 22.3018 32.5048 22.6814 32.1252C23.061 31.7456 23.5758 31.5324 24.1126 31.5324C24.6494 31.5324 25.1642 31.7456 25.5438 32.1252C25.9234 32.5048 26.1366 33.0196 26.1366 33.5564C26.1377 34.0928 26.3512 34.607 26.7306 34.9864C27.1099 35.3657 27.6241 35.5793 28.1606 35.5804H34.9066C35.8012 35.5804 36.6591 35.225 37.2917 34.5924C37.9242 33.9599 38.2796 33.1019 38.2796 32.2074C38.2796 31.3128 37.9242 30.4549 37.2917 29.8223C36.6591 29.1897 35.8012 28.8344 34.9066 28.8344H29.5066C28.5249 28.8458 27.5506 28.6623 26.6404 28.2944C25.7301 27.9266 24.9018 27.3819 24.2036 26.6917C23.5053 26.0015 22.951 25.1796 22.5726 24.2737C22.1943 23.3677 21.9995 22.3957 21.9995 21.4139C21.9995 20.4321 22.1943 19.4601 22.5726 18.5541C22.951 17.6481 23.5053 16.8263 24.2036 16.1361C24.9018 15.4459 25.7301 14.9011 26.6404 14.5333C27.5506 14.1655 28.5249 13.982 29.5066 13.9934H30.1816V10.6194C30.1816 10.0826 30.3948 9.56776 30.7744 9.18819C31.154 8.80862 31.6688 8.59538 32.2056 8.59538C32.7424 8.59538 33.2572 8.80862 33.6368 9.18819C34.0164 9.56776 34.2296 10.0826 34.2296 10.6194V13.9924H36.2536C37.8632 13.9942 39.4063 14.6344 40.5444 15.7726C41.6825 16.9107 42.3227 18.4538 42.3246 20.0634C42.3246 20.6002 42.1114 21.115 41.7318 21.4946C41.3522 21.8741 40.8374 22.0874 40.3006 22.0874C39.7638 22.0874 39.249 21.8741 38.8694 21.4946C38.4898 21.115 38.2766 20.6002 38.2766 20.0634C38.2769 19.526 38.0639 19.0106 37.6844 18.6301C37.3049 18.2497 36.7899 18.0354 36.2526 18.0344H29.5086C28.614 18.0344 27.7561 18.3897 27.1235 19.0223C26.491 19.6549 26.1356 20.5128 26.1356 21.4074C26.1356 22.302 26.491 23.1599 27.1235 23.7924C27.7561 24.425 28.614 24.7804 29.5086 24.7804L29.5236 24.7874ZM47.7376 64.5874C47.7376 65.1242 47.5243 65.639 47.1448 66.0186C46.7652 66.3981 46.2504 66.6114 45.7136 66.6114C45.1768 66.6114 44.662 66.3981 44.2824 66.0186C43.9028 65.639 43.6896 65.1242 43.6896 64.5874V53.7934C43.6896 53.2566 43.9028 52.7418 44.2824 52.3622C44.662 51.9826 45.1768 51.7694 45.7136 51.7694C46.2504 51.7694 46.7652 51.9826 47.1448 52.3622C47.5243 52.7418 47.7376 53.2566 47.7376 53.7934V64.5874ZM53.1376 64.5874C53.1376 65.1242 52.9244 65.639 52.5448 66.0186C52.1652 66.3981 51.6504 66.6114 51.1136 66.6114C50.5768 66.6114 50.062 66.3981 49.6824 66.0186C49.3028 65.639 49.0896 65.1242 49.0896 64.5874V53.7934C49.0896 53.2566 49.3028 52.7418 49.6824 52.3622C50.062 51.9826 50.5768 51.7694 51.1136 51.7694C51.6504 51.7694 52.1652 51.9826 52.5448 52.3622C52.9244 52.7418 53.1376 53.2566 53.1376 53.7934V64.5874Z" fill="#FF0000"/>
<path d="M80.7792 11.294H72.0052V7.921C72.0031 5.95417 71.2211 4.06844 69.8307 2.67731C68.4403 1.28618 66.5551 0.503176 64.5882 0.5H10.6202C8.65262 0.501853 6.76613 1.2843 5.37483 2.67561C3.98352 4.06691 3.20107 5.9534 3.19922 7.921V83.476C3.20531 83.8736 3.32768 84.2608 3.55121 84.5897C3.77475 84.9187 4.08968 85.175 4.45716 85.327C4.82464 85.4791 5.22859 85.5202 5.61919 85.4454C6.00979 85.3706 6.36994 85.1831 6.65522 84.906L10.5172 81.044L10.6172 80.944L10.7172 81.044L14.5792 84.908C14.9105 85.2385 15.3459 85.4442 15.8116 85.4903C16.2773 85.5364 16.7445 85.4201 17.1342 85.161L23.3052 81.044L24.1052 80.511L24.9052 81.044L31.0782 85.159C31.4108 85.3808 31.8015 85.4991 32.2012 85.4991C32.6009 85.4991 32.9917 85.3808 33.3242 85.159L39.5052 81.044L40.3052 80.511L41.1052 81.044L47.2782 85.159C47.6673 85.4188 48.1344 85.5357 48.6 85.4895C49.0656 85.4434 49.5007 85.2372 49.8312 84.906L53.6952 81.044L53.7952 80.944L53.8952 81.044L57.7592 84.908C58.0447 85.1845 58.4049 85.3715 58.7953 85.4459C59.1858 85.5202 59.5894 85.4788 59.9566 85.3265C60.3238 85.1743 60.6384 84.918 60.8616 84.5892C61.0849 84.2604 61.2071 83.8734 61.2132 83.476V47.722H75.3802C77.3486 47.7209 79.2361 46.9387 80.6283 45.5472C82.0204 44.1556 82.8034 42.2684 82.8052 40.3V13.317C82.8052 13.0511 82.7528 12.7878 82.6509 12.5421C82.5491 12.2965 82.3998 12.0734 82.2116 11.8855C82.0235 11.6976 81.8001 11.5486 81.5543 11.4471C81.3085 11.3456 81.0451 11.2936 80.7792 11.294ZM52.3632 76.647L48.1402 80.872L41.4262 76.394C41.0934 76.173 40.7027 76.0551 40.3032 76.0551C39.9037 76.0551 39.513 76.173 39.1802 76.394L32.2052 81.044L25.2352 76.4C24.9027 76.1782 24.5119 76.0599 24.1122 76.0599C23.7125 76.0599 23.3218 76.1782 22.9892 76.4L16.2752 80.872L12.0522 76.649C11.8642 76.4609 11.6409 76.3117 11.3952 76.21C11.1495 76.1082 10.8862 76.0558 10.6202 76.0558C10.3543 76.0558 10.0909 76.1082 9.84521 76.21C9.59951 76.3117 9.37626 76.4609 9.18822 76.649L7.24722 78.59V7.921C7.24801 7.02667 7.60364 6.16919 8.23603 5.53681C8.86841 4.90442 9.72589 4.54879 10.6202 4.548H57.9792C57.4447 5.59191 57.1667 6.74819 57.1682 7.921V78.59L55.2252 76.647C54.8454 76.268 54.3308 76.0552 53.7942 76.0552C53.2577 76.0552 52.743 76.268 52.3632 76.647ZM61.2152 43.674V7.921C61.2152 7.02642 61.5706 6.16849 62.2032 5.53593C62.8357 4.90337 63.6936 4.548 64.5882 4.548C65.4828 4.548 66.3407 4.90337 66.9733 5.53593C67.6059 6.16849 67.9612 7.02642 67.9612 7.921V40.3C67.9597 41.4728 68.2377 42.6291 68.7722 43.673L61.2152 43.674ZM78.7552 40.3C78.7552 41.1946 78.3998 42.0525 77.7673 42.6851C77.1347 43.3176 76.2768 43.673 75.3822 43.673C74.4876 43.673 73.6297 43.3176 72.9971 42.6851C72.3646 42.0525 72.0092 41.1946 72.0092 40.3V15.341H78.7552V40.3Z" fill="#FF0000"/>
</g>
<defs>
<clipPath id="clip0_86_3560">
<rect width="85" height="85" fill="white" transform="translate(0.5 0.5)"/>
</clipPath>
</defs>
</svg>
