<svg width="86" height="86" viewBox="0 0 86 86" fill="none" xmlns="http://www.w3.org/2000/svg">
<g clip-path="url(#clip0_86_3433)">
<path d="M22.9435 35.4659C30.0502 45.5346 38.8188 54.3203 48.8735 61.4469C49.6525 60.3399 50.3905 59.3039 51.1165 58.2589C54.5245 53.3529 59.5574 52.4589 64.4634 55.8929C67.9174 58.3102 71.3704 60.7289 74.8224 63.1489C78.9824 66.0819 80.1225 70.3579 77.8875 74.9249C75.1695 80.4839 70.4874 83.1709 64.5104 83.7729C57.7784 84.4509 51.4375 82.7659 45.4645 79.9049C27.365 71.4656 12.8333 56.8974 4.43945 38.7769C1.60119 33.1788 0.265916 26.9393 0.564449 20.6699C1.02145 13.9279 3.93047 8.72889 10.3865 5.99789C12.1679 5.21523 14.1634 5.06508 16.0419 5.57236C17.9205 6.07964 19.5691 7.21387 20.7145 8.7869C23.6085 12.7589 26.4315 16.7869 29.1365 20.8869C30.3346 22.7243 30.7882 24.9491 30.405 27.1089C30.0218 29.2688 28.8306 31.2017 27.0735 32.5149C25.7675 33.5189 24.3935 34.4339 22.9435 35.4659Z" fill="#FF0000"/>
<path d="M62.6554 2.07772H82.8814C85.0024 2.07772 85.4924 2.56171 85.4934 4.64571V27.8817C85.4934 29.7817 84.9934 30.2817 83.0844 30.2817C75.5364 30.2817 67.9844 30.2977 60.4394 30.2617C60.1037 30.2191 59.7637 30.295 59.478 30.4763C59.1923 30.6576 58.9788 30.9329 58.8744 31.2547C57.7354 33.7957 56.5174 36.2997 55.3554 38.8307C54.9934 39.6187 54.5204 40.2417 53.5924 40.2587C52.6084 40.2767 52.1194 39.6287 51.7404 38.8007C50.5804 36.2687 49.3644 33.7637 48.2154 31.2277C48.1257 30.9177 47.9282 30.65 47.6584 30.4729C47.3887 30.2957 47.0645 30.2208 46.7444 30.2617C45.0984 30.3317 43.4444 30.2967 41.7994 30.2777C40.4064 30.2607 39.7494 29.6477 39.7464 28.2707C39.7304 20.232 39.7304 12.193 39.7464 4.15371C39.7464 2.68071 40.4584 2.07972 42.1004 2.07772C48.9544 2.07305 55.806 2.07305 62.6554 2.07772ZM62.6314 14.4157C66.6624 14.4157 70.6934 14.4287 74.7244 14.4077C74.9638 14.4285 75.2049 14.3993 75.4323 14.3218C75.6597 14.2444 75.8685 14.1203 76.0454 13.9577C76.2222 13.7951 76.3631 13.5976 76.4594 13.3776C76.5556 13.1575 76.605 12.9199 76.6044 12.6797C76.59 12.216 76.3998 11.775 76.0725 11.4462C75.7451 11.1174 75.3051 10.9252 74.8414 10.9087C74.6588 10.8933 74.4755 10.8882 74.2924 10.8937C66.5231 10.8937 58.7541 10.8957 50.9854 10.8997C50.5835 10.8859 50.1822 10.9417 49.7994 11.0647C49.4261 11.1827 49.1091 11.4333 48.9082 11.7692C48.7074 12.1052 48.6366 12.5031 48.7094 12.8877C48.7309 13.2588 48.8819 13.6105 49.1361 13.8816C49.3903 14.1528 49.7315 14.3262 50.1004 14.3717C50.4649 14.4198 50.8331 14.4349 51.2004 14.4167C55.0124 14.4167 58.8241 14.4167 62.6354 14.4167L62.6314 14.4157ZM62.6434 21.4717H74.1874C75.7874 21.4717 76.6114 20.8657 76.6054 19.7217C76.5994 18.5777 75.7324 17.9587 74.1724 17.9467H73.9524C66.403 17.9467 58.8537 17.949 51.3044 17.9537C50.7935 17.9296 50.2822 17.9887 49.7904 18.1287C49.4152 18.2436 49.0965 18.4947 48.8968 18.8325C48.6972 19.1704 48.6311 19.5706 48.7114 19.9547C48.7354 20.3254 48.8886 20.676 49.1444 20.9453C49.4002 21.2146 49.7424 21.3857 50.1114 21.4287C50.4761 21.475 50.8442 21.4893 51.2114 21.4717C55.0241 21.4717 58.836 21.4717 62.6474 21.4717H62.6434Z" fill="#FF0000"/>
</g>
<defs>
<clipPath id="clip0_86_3433">
<rect width="85" height="85" fill="white" transform="translate(0.5 0.5)"/>
</clipPath>
</defs>
</svg>
