<svg width="86" height="86" viewBox="0 0 86 86" fill="none" xmlns="http://www.w3.org/2000/svg">
<g clip-path="url(#clip0_86_3455)">
<path d="M23.5307 23.2441H22.4647L20.4727 33.2051H25.5217L23.5307 23.2441Z" fill="#FF0000"/>
<path d="M63.8164 43.168C64.7846 45.7764 66.1648 48.2126 67.9044 50.384C69.6993 48.2215 71.1359 45.7853 72.1594 43.168H63.8164Z" fill="#FF0000"/>
<path d="M78.0292 15.6074H47.1032L53.5512 67.3514C53.6341 68.3715 53.5136 69.3979 53.1967 70.371C52.8798 71.3442 52.3728 72.2447 51.7052 73.0204L40.7852 85.5004H78.0292C80.01 85.4983 81.909 84.7105 83.3096 83.3099C84.7103 81.9093 85.498 80.0102 85.5002 78.0294V23.2444C85.5042 21.2463 84.7236 19.3265 83.3264 17.8982C81.9291 16.4699 80.0269 15.6473 78.0292 15.6074ZM78.0292 43.1664H77.3642C76.1073 47.1643 74.0677 50.8723 71.3642 54.0744C73.1932 55.7464 75.1501 57.1184 77.0941 58.6554C77.3562 58.8575 77.5754 59.1097 77.7389 59.3974C77.9023 59.6851 78.0068 60.0025 78.0462 60.331C78.0856 60.6596 78.0591 60.9927 77.9683 61.3109C77.8775 61.6291 77.7242 61.926 77.5173 62.1842C77.3104 62.4425 77.0541 62.6569 76.7634 62.815C76.4727 62.9731 76.1534 63.0716 75.8242 63.1049C75.4949 63.1381 75.1624 63.1054 74.8459 63.0087C74.5295 62.9119 74.2355 62.7531 73.9812 62.5414C71.8682 60.8734 69.8812 59.4774 67.9012 57.6574C65.9172 59.4774 64.1012 60.8734 61.9872 62.5414C61.7328 62.7531 61.4388 62.9119 61.1224 63.0087C60.8059 63.1054 60.4734 63.1381 60.1442 63.1049C59.8149 63.0716 59.4956 62.9731 59.2049 62.815C58.9142 62.6569 58.6579 62.4425 58.451 62.1842C58.2442 61.926 58.0909 61.6291 58 61.3109C57.9092 60.9927 57.8827 60.6596 57.9221 60.331C57.9615 60.0025 58.066 59.6851 58.2295 59.3974C58.3929 59.1097 58.6121 58.8575 58.8742 58.6554C60.8192 57.1184 62.6092 55.7464 64.4382 54.0744C61.7905 50.8607 59.8078 47.1529 58.6052 43.1664H57.9402C57.6089 43.1731 57.2797 43.1135 56.9717 42.9914C56.6637 42.8692 56.3832 42.6868 56.1466 42.4549C55.91 42.223 55.722 41.9462 55.5937 41.6407C55.4654 41.3352 55.3993 41.0072 55.3993 40.6759C55.3993 40.3446 55.4654 40.0166 55.5937 39.7111C55.722 39.4057 55.91 39.1289 56.1466 38.897C56.3832 38.665 56.6637 38.4827 56.9717 38.3605C57.2797 38.2383 57.6089 38.1788 57.9402 38.1854H65.4112V35.6954C65.4112 35.035 65.6735 34.4017 66.1405 33.9347C66.6074 33.4678 67.2408 33.2054 67.9012 33.2054C68.5615 33.2054 69.1949 33.4678 69.6619 33.9347C70.1288 34.4017 70.3912 35.035 70.3912 35.6954V38.1854H78.0282C78.68 38.1985 79.3008 38.4666 79.7572 38.9323C80.2136 39.3979 80.4693 40.0239 80.4693 40.6759C80.4693 41.3279 80.2136 41.954 79.7572 42.4196C79.3008 42.8852 78.68 43.1534 78.0282 43.1664H78.0292Z" fill="#FF0000"/>
<path d="M41.035 7.044C40.807 5.23826 39.9286 3.57757 38.5642 2.37296C37.1998 1.16835 35.4431 0.502455 33.623 0.5L7.971 0.5C5.99022 0.502118 4.09117 1.28992 2.69054 2.69054C1.28992 4.09117 0.502118 5.99022 0.5 7.971V63.089C0.502118 65.0698 1.28992 66.9688 2.69054 68.3695C4.09117 69.7701 5.99022 70.5579 7.971 70.56H47.242C47.968 69.73 48.577 69.21 48.603 68.126C48.61 67.853 41.069 7.314 41.035 7.044ZM31.035 48.098C30.3875 48.2275 29.715 48.0945 29.1655 47.7283C28.6161 47.362 28.2346 46.7925 28.105 46.145L26.513 38.185H19.475L17.883 46.145C17.8196 46.4664 17.6935 46.7722 17.5117 47.0448C17.3299 47.3174 17.0962 47.5514 16.8238 47.7335C16.5514 47.9156 16.2458 48.0421 15.9244 48.1058C15.603 48.1696 15.2723 48.1692 14.951 48.1049C14.6298 48.0406 14.3244 47.9135 14.0524 47.7309C13.7803 47.5483 13.547 47.3138 13.3657 47.0409C13.1845 46.768 13.0589 46.4619 12.9961 46.1404C12.9334 45.8188 12.9347 45.488 13 45.167L17.98 20.267C18.0936 19.703 18.3989 19.1956 18.844 18.8311C19.2891 18.4665 19.8466 18.2672 20.422 18.267H25.569C26.1444 18.2672 26.7019 18.4665 27.147 18.8311C27.5921 19.1956 27.8974 19.703 28.011 20.267L32.992 45.167C33.0566 45.4879 33.0572 45.8184 32.9939 46.1396C32.9306 46.4607 32.8046 46.7662 32.6231 47.0387C32.4417 47.3111 32.2082 47.545 31.9362 47.7271C31.6642 47.9093 31.359 48.036 31.038 48.1L31.035 48.098Z" fill="#FF0000"/>
<path d="M29.5977 75.5391L30.0247 78.9561C30.2009 80.2039 30.6874 81.3876 31.4397 82.3986C32.192 83.4097 33.186 84.2158 34.3307 84.7431L42.6917 75.5431L29.5977 75.5391Z" fill="#FF0000"/>
</g>
<defs>
<clipPath id="clip0_86_3455">
<rect width="85.001" height="85.001" fill="white" transform="translate(0.5 0.5)"/>
</clipPath>
</defs>
</svg>
