<svg width="86" height="87" viewBox="0 0 86 87" fill="none" xmlns="http://www.w3.org/2000/svg">
<g clip-path="url(#clip0_86_3578)">
<path d="M79.2649 27.4361L46.3649 47.1731C46.1995 47.2726 46.0626 47.4132 45.9674 47.5813C45.8723 47.7493 45.8222 47.939 45.8219 48.1321V84.8981C45.822 85.0943 45.8737 85.2871 45.9718 85.457C46.0699 85.6269 46.2111 85.768 46.381 85.8661C46.551 85.9642 46.7437 86.0159 46.94 86.0159C47.1362 86.0159 47.329 85.9642 47.4989 85.8661L80.3989 66.8741C80.5685 66.7754 80.7093 66.634 80.8074 66.464C80.9055 66.294 80.9573 66.1013 80.9579 65.9051V28.3891C80.9566 28.1919 80.9032 27.9985 80.8031 27.8286C80.703 27.6587 80.5597 27.5182 80.3878 27.4215C80.216 27.3248 80.0216 27.2752 79.8244 27.2777C79.6272 27.2803 79.4342 27.3349 79.2649 27.4361ZM6.78592 27.4361C6.61619 27.333 6.42208 27.2769 6.22351 27.2736C6.02494 27.2703 5.82907 27.3199 5.65601 27.4173C5.48294 27.5148 5.33892 27.6565 5.23874 27.828C5.13856 27.9994 5.08582 28.1945 5.08594 28.3931V65.9061C5.0865 66.1023 5.13839 66.295 5.23645 66.465C5.33451 66.635 5.47533 66.7763 5.64493 66.8751L38.5499 85.8631C38.7199 85.9614 38.9128 86.0133 39.1092 86.0134C39.3055 86.0136 39.4985 85.962 39.6686 85.8639C39.8387 85.7657 39.9799 85.6245 40.0781 85.4545C40.1763 85.2844 40.228 85.0915 40.2279 84.8951V48.1291C40.2279 47.9362 40.1779 47.7467 40.0827 47.5789C39.9875 47.4112 39.8505 47.271 39.6849 47.1721L6.78592 27.4361ZM26.8679 61.4961L25.2039 60.6041V66.2221C25.2039 66.9761 24.5909 67.2571 23.8389 66.8551L19.5849 64.5741C19.2039 64.361 18.8804 64.0586 18.6423 63.6928C18.4042 63.3269 18.2585 62.9087 18.2179 62.4741V56.8541L16.5499 55.9611C15.3799 55.3351 14.7499 53.6241 15.5189 53.1501L20.6769 49.9721C21.2209 49.6361 22.1939 50.1581 22.7369 51.0721L27.8949 59.7811C28.6649 61.0811 28.0369 62.1181 26.8669 61.4921L26.8679 61.4961Z" fill="#FF0000"/>
<path d="M55.8923 8.2748L43.5793 1.16479C43.4092 1.06706 43.2165 1.01563 43.0203 1.01562C42.8242 1.01563 42.6314 1.06706 42.4613 1.16479L9.16133 20.3968C8.99267 20.4942 8.85233 20.634 8.75417 20.8022C8.65601 20.9704 8.60343 21.1614 8.60161 21.3562C8.59979 21.5509 8.64879 21.7428 8.74379 21.9129C8.83879 22.0829 8.97651 22.2252 9.14333 22.3258L21.8543 29.9528C22.028 30.0572 22.2267 30.1123 22.4293 30.1123C22.6319 30.1123 22.8307 30.0572 23.0043 29.9528L55.9103 10.2048C56.0776 10.1045 56.2158 9.96218 56.3111 9.79201C56.4065 9.62183 56.4557 9.42969 56.4539 9.23463C56.4521 9.03958 56.3993 8.84839 56.3008 8.68002C56.2023 8.51166 56.0615 8.37196 55.8923 8.2748ZM78.1093 20.4368L72.5093 8.21579C72.4436 8.07283 72.3485 7.94533 72.2302 7.84161C72.1119 7.7379 71.9731 7.66029 71.8228 7.61386C71.6724 7.56743 71.514 7.55323 71.3578 7.57217C71.2016 7.59112 71.0512 7.64277 70.9163 7.72379L37.6123 27.7158C37.3805 27.8551 37.2072 28.0738 37.1244 28.3313C37.0417 28.5887 37.0552 28.8675 37.1623 29.1158L42.5193 41.4898C42.5824 41.6359 42.676 41.7669 42.7939 41.8739C42.9117 41.9808 43.0511 42.0614 43.2026 42.1101C43.3542 42.1587 43.5144 42.1744 43.6725 42.1561C43.8306 42.1378 43.983 42.0859 44.1193 42.0038L77.6743 21.8658C77.9102 21.7241 78.0854 21.5002 78.1664 21.2373C78.2474 20.9743 78.2285 20.6907 78.1133 20.4408L78.1093 20.4368Z" fill="#FF0000"/>
</g>
<defs>
<clipPath id="clip0_86_3578">
<rect width="85" height="86.033" fill="white" transform="translate(0.5 0.5)"/>
</clipPath>
</defs>
</svg>
