<svg width="86" height="86" viewBox="0 0 86 86" fill="none" xmlns="http://www.w3.org/2000/svg">
<g clip-path="url(#clip0_86_3447)">
<path d="M62.3798 85.4992C61.807 85.4999 61.2493 85.3154 60.7898 84.9732C58.5838 83.3332 39.2578 68.6032 39.2578 56.1132C39.2695 53.4371 40.0848 50.8263 41.5982 48.6191C43.1115 46.412 45.253 44.7105 47.7451 43.7351C50.2371 42.7597 52.9647 42.5555 55.5742 43.1489C58.1837 43.7423 60.5547 45.106 62.3798 47.0632C64.2049 45.106 66.576 43.7423 69.1854 43.1489C71.7949 42.5555 74.5225 42.7597 77.0145 43.7351C79.5066 44.7105 81.6481 46.412 83.1614 48.6191C84.6748 50.8263 85.4902 53.4371 85.5018 56.1132C85.5018 68.6062 66.1758 83.3362 63.9698 84.9762C63.51 85.3173 62.9523 85.5007 62.3798 85.4992Z" fill="#FF0000"/>
<path d="M33.3316 0.570312L16.0436 0.641313C14.939 0.644676 13.8553 0.943088 12.9047 1.50568C11.9541 2.06828 11.171 2.87462 10.6366 3.84131L1.60156 20.2063L31.5886 20.1353L33.3316 0.570312Z" fill="#FF0000"/>
<path d="M70.2519 20.064L61.1099 3.7C60.5682 2.73165 59.7785 1.9249 58.822 1.36255C57.8654 0.800192 56.7765 0.502492 55.6669 0.5L38.3789 0.57L40.1929 20.135L70.2519 20.064Z" fill="#FF0000"/>
<path d="M71.68 35.8941C68.5673 36.0232 65.5254 36.8626 62.787 38.3481C59.7816 36.7239 56.4211 35.8685 53.005 35.8581C47.5857 35.8565 42.3875 38.0061 38.5521 41.8347C34.7167 45.6633 32.5579 50.8578 32.55 56.2771C32.55 61.4711 34.72 66.6641 37.85 71.4311L6.262 71.5381H6.227C4.74297 71.5275 3.32323 70.9309 2.27712 69.8783C1.231 68.8256 0.643282 67.4021 0.642 65.9181L0.5 25.2581L33.4 25.1871H38.74L71.64 25.0801L71.68 35.8941Z" fill="#FF0000"/>
</g>
<defs>
<clipPath id="clip0_86_3447">
<rect width="85" height="85.003" fill="white" transform="translate(0.5 0.5)"/>
</clipPath>
</defs>
</svg>
