<svg width="87" height="87" viewBox="0 0 87 87" fill="none" xmlns="http://www.w3.org/2000/svg">
<path d="M51.1867 41.916L41.5117 61.056C41.5594 56.684 42.587 52.3784 44.5187 48.456C45.8576 45.5274 48.2327 43.1979 51.1867 41.916Z" fill="#FF0000"/>
<path d="M53.8751 43.2637C54.604 46.403 54.1358 49.7012 52.5621 52.5137C50.548 56.3889 47.6918 59.7642 44.2031 62.3917L53.8751 43.2637Z" fill="#FF0000"/>
<path d="M69.6638 47.0635H76.5288V44.1815C76.5265 42.286 75.7724 40.4689 74.432 39.1287C73.0916 37.7885 71.2743 37.0346 69.3788 37.0325H17.6018C15.1594 37.0374 12.738 36.5811 10.4648 35.6875V66.0665C10.4675 68.8427 11.5714 71.5044 13.5342 73.4677C15.4971 75.4309 18.1587 76.5353 20.9348 76.5385H69.3778C71.2735 76.5364 73.0909 75.7824 74.4313 74.442C75.7717 73.1015 76.5257 71.2841 76.5278 69.3885V65.2145H69.6628C68.1672 65.2129 66.7334 64.6181 65.6758 63.5605C64.6183 62.503 64.0234 61.0691 64.0218 59.5735V52.7055C64.0232 51.2095 64.618 49.7753 65.6758 48.7175C66.7336 47.6597 68.1679 47.0648 69.6638 47.0635ZM18.4188 52.8385C18.5581 52.6991 18.7235 52.5884 18.9056 52.5129C19.0876 52.4374 19.2828 52.3985 19.4798 52.3985H28.6908C29.0887 52.3985 29.4702 52.5565 29.7515 52.8378C30.0328 53.1191 30.1908 53.5007 30.1908 53.8985C30.1908 54.2963 30.0328 54.6778 29.7515 54.9592C29.4702 55.2405 29.0887 55.3985 28.6908 55.3985H19.4798C19.1827 55.399 18.892 55.3113 18.6448 55.1464C18.3976 54.9815 18.2049 54.7468 18.0912 54.4722C17.9775 54.1976 17.948 53.8955 18.0063 53.6041C18.0647 53.3127 18.2082 53.0452 18.4188 52.8355V52.8385ZM18.4188 58.8445C18.5581 58.7051 18.7235 58.5944 18.9056 58.5189C19.0876 58.4434 19.2828 58.4045 19.4798 58.4045H34.6968C35.0947 58.4045 35.4762 58.5625 35.7575 58.8438C36.0388 59.1251 36.1968 59.5067 36.1968 59.9045C36.1968 60.3023 36.0388 60.6838 35.7575 60.9651C35.4762 61.2465 35.0947 61.4045 34.6968 61.4045H19.4798C19.1827 61.405 18.892 61.3173 18.6448 61.1524C18.3976 60.9874 18.2049 60.7528 18.0912 60.4782C17.9775 60.2036 17.948 59.9015 18.0063 59.6101C18.0647 59.3187 18.2082 59.0512 18.4188 58.8415V58.8445ZM17.9788 65.9115C17.9788 65.5137 18.1369 65.1321 18.4182 64.8508C18.6995 64.5695 19.081 64.4115 19.4788 64.4115H34.6968C35.0947 64.4115 35.4762 64.5695 35.7575 64.8508C36.0388 65.1321 36.1968 65.5137 36.1968 65.9115C36.1968 66.3093 36.0388 66.6908 35.7575 66.9722C35.4762 67.2535 35.0947 67.4115 34.6968 67.4115H19.4798C19.082 67.4115 18.7005 67.2535 18.4192 66.9722C18.1379 66.6908 17.9788 66.3093 17.9788 65.9115ZM22.8098 74.6785C22.2462 74.6785 21.6952 74.5113 21.2265 74.1982C20.7578 73.885 20.3925 73.4399 20.1768 72.9191C19.9611 72.3984 19.9046 71.8253 20.0146 71.2725C20.1246 70.7196 20.396 70.2118 20.7946 69.8132C21.1932 69.4147 21.701 69.1432 22.2538 69.0333C22.8067 68.9233 23.3797 68.9797 23.9005 69.1954C24.4213 69.4111 24.8664 69.7764 25.1795 70.2451C25.4927 70.7138 25.6598 71.2648 25.6598 71.8285C25.6598 72.5844 25.3596 73.3093 24.8251 73.8438C24.2906 74.3782 23.5657 74.6785 22.8098 74.6785ZM55.2408 53.8655C53.6317 57.0163 51.499 59.8709 48.9338 62.3075L48.8508 62.3875C48.7148 62.5155 48.5798 62.6415 48.4438 62.7665C48.3772 62.8332 48.3008 62.9028 48.2148 62.9755C46.9377 64.1115 45.586 65.1609 44.1688 66.1165C44.1553 66.127 44.1409 66.1363 44.1258 66.1445C43.2898 66.7013 42.4242 67.2123 41.5328 67.6755L39.0328 72.5985C38.9078 72.8466 38.7163 73.0552 38.4797 73.2008C38.2431 73.3465 37.9707 73.4236 37.6928 73.4235H28.6848C28.287 73.4235 27.9055 73.2655 27.6242 72.9842C27.3429 72.7029 27.1848 72.3213 27.1848 71.9235C27.1848 71.5257 27.3429 71.1441 27.6242 70.8628C27.9055 70.5815 28.287 70.4235 28.6848 70.4235H35.8488C36.1267 70.4236 36.3991 70.3465 36.6357 70.2008C36.8723 70.0552 37.0638 69.8466 37.1888 69.5985L38.8348 66.3385C37.8699 59.77 38.9158 53.0633 41.8348 47.1005C42.4745 45.8193 43.2557 44.6138 44.1638 43.5065L44.1838 43.4815C44.2898 43.3535 44.3958 43.2295 44.5038 43.1075C44.6778 42.9075 44.9138 42.6545 45.1978 42.3675C46.0846 41.4526 47.0943 40.6654 48.1978 40.0285V40.0405L48.4448 39.8995C50.1224 38.9265 52.008 38.3677 53.9448 38.2695H54.7038L55.1518 38.8695C55.3518 39.1195 59.6698 45.1055 55.2368 53.8695L55.2408 53.8655ZM69.6638 47.0655H76.5288V44.1835C76.5265 42.288 75.7724 40.4709 74.432 39.1307C73.0916 37.7905 71.2743 37.0366 69.3788 37.0345H17.6018C15.1594 37.0394 12.738 36.5831 10.4648 35.6895V66.0685C10.468 68.8443 11.5721 71.5056 13.5349 73.4684C15.4978 75.4312 18.159 76.5353 20.9348 76.5385H69.3778C71.2735 76.5364 73.0909 75.7824 74.4313 74.442C75.7717 73.1015 76.5257 71.2841 76.5278 69.3885V65.2145H69.6628C68.1672 65.2129 66.7334 64.6181 65.6758 63.5605C64.6183 62.503 64.0234 61.0691 64.0218 59.5735V52.7055C64.0232 51.2095 64.618 49.7753 65.6758 48.7175C66.7336 47.6597 68.1679 47.0648 69.6638 47.0635V47.0655ZM18.4188 52.8385C18.5581 52.6991 18.7235 52.5884 18.9056 52.5129C19.0876 52.4374 19.2828 52.3985 19.4798 52.3985H28.6908C29.0887 52.3985 29.4702 52.5565 29.7515 52.8378C30.0328 53.1191 30.1908 53.5007 30.1908 53.8985C30.1908 54.2963 30.0328 54.6778 29.7515 54.9592C29.4702 55.2405 29.0887 55.3985 28.6908 55.3985H19.4798C19.1827 55.399 18.892 55.3113 18.6448 55.1464C18.3976 54.9815 18.2049 54.7468 18.0912 54.4722C17.9775 54.1976 17.948 53.8955 18.0063 53.6041C18.0647 53.3127 18.2082 53.0452 18.4188 52.8355V52.8385ZM18.4188 58.8445C18.5581 58.7051 18.7235 58.5944 18.9056 58.5189C19.0876 58.4434 19.2828 58.4045 19.4798 58.4045H34.6968C35.0947 58.4045 35.4762 58.5625 35.7575 58.8438C36.0388 59.1251 36.1968 59.5067 36.1968 59.9045C36.1968 60.3023 36.0388 60.6838 35.7575 60.9651C35.4762 61.2465 35.0947 61.4045 34.6968 61.4045H19.4798C19.1827 61.405 18.892 61.3173 18.6448 61.1524C18.3976 60.9874 18.2049 60.7528 18.0912 60.4782C17.9775 60.2036 17.948 59.9015 18.0063 59.6101C18.0647 59.3187 18.2082 59.0512 18.4188 58.8415V58.8445ZM17.9788 65.9115C17.9788 65.5137 18.1369 65.1321 18.4182 64.8508C18.6995 64.5695 19.081 64.4115 19.4788 64.4115H34.6968C35.0947 64.4115 35.4762 64.5695 35.7575 64.8508C36.0388 65.1321 36.1968 65.5137 36.1968 65.9115C36.1968 66.3093 36.0388 66.6908 35.7575 66.9722C35.4762 67.2535 35.0947 67.4115 34.6968 67.4115H19.4798C19.082 67.4115 18.7005 67.2535 18.4192 66.9722C18.1379 66.6908 17.9788 66.3093 17.9788 65.9115ZM22.8098 74.6785C22.2462 74.6785 21.6952 74.5113 21.2265 74.1982C20.7578 73.885 20.3925 73.4399 20.1768 72.9191C19.9611 72.3984 19.9046 71.8253 20.0146 71.2725C20.1246 70.7196 20.396 70.2118 20.7946 69.8132C21.1932 69.4147 21.701 69.1432 22.2538 69.0333C22.8067 68.9233 23.3797 68.9797 23.9005 69.1954C24.4213 69.4111 24.8664 69.7764 25.1795 70.2451C25.4927 70.7138 25.6598 71.2648 25.6598 71.8285C25.6598 72.5844 25.3596 73.3093 24.8251 73.8438C24.2906 74.3782 23.5657 74.6785 22.8098 74.6785ZM55.2408 53.8655C53.6317 57.0163 51.499 59.8709 48.9338 62.3075L48.8508 62.3875C48.7148 62.5155 48.5798 62.6415 48.4438 62.7665C48.3772 62.8332 48.3008 62.9028 48.2148 62.9755C46.9377 64.1115 45.586 65.1609 44.1688 66.1165C44.1553 66.127 44.1409 66.1363 44.1258 66.1445C43.2898 66.7013 42.4242 67.2123 41.5328 67.6755L39.0328 72.5985C38.9078 72.8466 38.7163 73.0552 38.4797 73.2008C38.2431 73.3465 37.9707 73.4236 37.6928 73.4235H28.6848C28.287 73.4235 27.9055 73.2655 27.6242 72.9842C27.3429 72.7029 27.1848 72.3213 27.1848 71.9235C27.1848 71.5257 27.3429 71.1441 27.6242 70.8628C27.9055 70.5815 28.287 70.4235 28.6848 70.4235H35.8488C36.1267 70.4236 36.3991 70.3465 36.6357 70.2008C36.8723 70.0552 37.0638 69.8466 37.1888 69.5985L38.8348 66.3385C37.8699 59.77 38.9158 53.0633 41.8348 47.1005C42.4745 45.8193 43.2557 44.6138 44.1638 43.5065L44.1838 43.4815C44.2898 43.3535 44.3958 43.2295 44.5038 43.1075C44.6778 42.9075 44.9138 42.6545 45.1978 42.3675C46.0846 41.4526 47.0943 40.6654 48.1978 40.0285V40.0405L48.4448 39.8995C50.1224 38.9265 52.008 38.3677 53.9448 38.2695H54.7038L55.1518 38.8695C55.3518 39.1195 59.6698 45.1055 55.2368 53.8695L55.2408 53.8655ZM69.6638 47.0655H76.5288V44.1835C76.5265 42.288 75.7724 40.4709 74.432 39.1307C73.0916 37.7905 71.2743 37.0366 69.3788 37.0345H17.6018C15.1594 37.0394 12.738 36.5831 10.4648 35.6895V66.0685C10.468 68.8443 11.5721 71.5056 13.5349 73.4684C15.4978 75.4312 18.159 76.5353 20.9348 76.5385H69.3778C71.2735 76.5364 73.0909 75.7824 74.4313 74.442C75.7717 73.1015 76.5257 71.2841 76.5278 69.3885V65.2145H69.6628C68.1672 65.2129 66.7334 64.6181 65.6758 63.5605C64.6183 62.503 64.0234 61.0691 64.0218 59.5735V52.7055C64.0232 51.2095 64.618 49.7753 65.6758 48.7175C66.7336 47.6597 68.1679 47.0648 69.6638 47.0635V47.0655ZM18.4188 52.8385C18.5581 52.6991 18.7235 52.5884 18.9056 52.5129C19.0876 52.4374 19.2828 52.3985 19.4798 52.3985H28.6908C29.0887 52.3985 29.4702 52.5565 29.7515 52.8378C30.0328 53.1191 30.1908 53.5007 30.1908 53.8985C30.1908 54.2963 30.0328 54.6778 29.7515 54.9592C29.4702 55.2405 29.0887 55.3985 28.6908 55.3985H19.4798C19.1827 55.399 18.892 55.3113 18.6448 55.1464C18.3976 54.9815 18.2049 54.7468 18.0912 54.4722C17.9775 54.1976 17.948 53.8955 18.0063 53.6041C18.0647 53.3127 18.2082 53.0452 18.4188 52.8355V52.8385ZM18.4188 58.8445C18.5581 58.7051 18.7235 58.5944 18.9056 58.5189C19.0876 58.4434 19.2828 58.4045 19.4798 58.4045H34.6968C35.0947 58.4045 35.4762 58.5625 35.7575 58.8438C36.0388 59.1251 36.1968 59.5067 36.1968 59.9045C36.1968 60.3023 36.0388 60.6838 35.7575 60.9651C35.4762 61.2465 35.0947 61.4045 34.6968 61.4045H19.4798C19.1827 61.405 18.892 61.3173 18.6448 61.1524C18.3976 60.9874 18.2049 60.7528 18.0912 60.4782C17.9775 60.2036 17.948 59.9015 18.0063 59.6101C18.0647 59.3187 18.2082 59.0512 18.4188 58.8415V58.8445ZM17.9788 65.9115C17.9788 65.5137 18.1369 65.1321 18.4182 64.8508C18.6995 64.5695 19.081 64.4115 19.4788 64.4115H34.6968C35.0947 64.4115 35.4762 64.5695 35.7575 64.8508C36.0388 65.1321 36.1968 65.5137 36.1968 65.9115C36.1968 66.3093 36.0388 66.6908 35.7575 66.9722C35.4762 67.2535 35.0947 67.4115 34.6968 67.4115H19.4798C19.082 67.4115 18.7005 67.2535 18.4192 66.9722C18.1379 66.6908 17.9788 66.3093 17.9788 65.9115ZM22.8098 74.6785C22.2462 74.6785 21.6952 74.5113 21.2265 74.1982C20.7578 73.885 20.3925 73.4399 20.1768 72.9191C19.9611 72.3984 19.9046 71.8253 20.0146 71.2725C20.1246 70.7196 20.396 70.2118 20.7946 69.8132C21.1932 69.4147 21.701 69.1432 22.2538 69.0333C22.8067 68.9233 23.3797 68.9797 23.9005 69.1954C24.4213 69.4111 24.8664 69.7764 25.1795 70.2451C25.4927 70.7138 25.6598 71.2648 25.6598 71.8285C25.6598 72.5844 25.3596 73.3093 24.8251 73.8438C24.2906 74.3782 23.5657 74.6785 22.8098 74.6785ZM55.2408 53.8655C53.6317 57.0163 51.499 59.8709 48.9338 62.3075L48.8508 62.3875C48.7148 62.5155 48.5798 62.6415 48.4438 62.7665C48.3772 62.8332 48.3008 62.9028 48.2148 62.9755C46.9377 64.1115 45.586 65.1609 44.1688 66.1165C44.1553 66.127 44.1409 66.1363 44.1258 66.1445C43.2898 66.7013 42.4242 67.2123 41.5328 67.6755L39.0328 72.5985C38.9078 72.8466 38.7163 73.0552 38.4797 73.2008C38.2431 73.3465 37.9707 73.4236 37.6928 73.4235H28.6848C28.287 73.4235 27.9055 73.2655 27.6242 72.9842C27.3429 72.7029 27.1848 72.3213 27.1848 71.9235C27.1848 71.5257 27.3429 71.1441 27.6242 70.8628C27.9055 70.5815 28.287 70.4235 28.6848 70.4235H35.8488C36.1267 70.4236 36.3991 70.3465 36.6357 70.2008C36.8723 70.0552 37.0638 69.8466 37.1888 69.5985L38.8348 66.3385C37.8699 59.77 38.9158 53.0633 41.8348 47.1005C42.4745 45.8193 43.2557 44.6138 44.1638 43.5065L44.1838 43.4815C44.2898 43.3535 44.3958 43.2295 44.5038 43.1075C44.6778 42.9075 44.9138 42.6545 45.1978 42.3675C46.0846 41.4526 47.0943 40.6654 48.1978 40.0285V40.0405L48.4448 39.8995C50.1224 38.9265 52.008 38.3677 53.9448 38.2695H54.7038L55.1518 38.8695C55.3518 39.1195 59.6698 45.1055 55.2368 53.8695L55.2408 53.8655Z" fill="#FF0000"/>
<path d="M69.3932 14.291H17.6032C16.7325 14.3061 15.9026 14.6626 15.2923 15.2837C14.6819 15.9047 14.3398 16.7407 14.3398 17.6115C14.3398 18.4823 14.6819 19.3183 15.2923 19.9394C15.9026 20.5604 16.7325 20.9169 17.6032 20.932H69.3932C70.2739 20.932 71.1185 20.5822 71.7412 19.9595C72.3639 19.3368 72.7137 18.4922 72.7137 17.6115C72.7137 16.7309 72.3639 15.8863 71.7412 15.2636C71.1185 14.6409 70.2739 14.291 69.3932 14.291Z" fill="#FF0000"/>
<path d="M82.6726 24.418C83.553 24.4177 84.3972 24.0678 85.0196 23.4452C85.642 22.8226 85.9916 21.9783 85.9916 21.098V17.612C85.9866 13.2078 84.2348 8.98536 81.1205 5.8711C78.0063 2.75683 73.7838 1.00503 69.3796 1C69.3796 1 17.3406 1.008 17.2126 1.023C12.8086 1.18239 8.64007 3.05163 5.59162 6.234C4.06457 7.81631 2.8722 9.69026 2.08579 11.7438C1.29938 13.7974 0.935062 15.9884 1.01462 18.186C1.00762 18.271 1.00462 66.068 1.00462 66.068C1.0107 71.3524 3.11263 76.4187 6.84929 80.1553C10.5859 83.892 15.6522 85.9939 20.9366 86H69.3796C73.7839 85.9952 78.0065 84.2435 81.1208 81.1292C84.2351 78.0149 85.9869 73.7923 85.9916 69.388V44.182C85.9866 39.7779 84.2348 35.5556 81.1205 32.4415C78.0062 29.3273 73.7838 27.5758 69.3796 27.571H17.6026C15.042 27.576 12.5783 26.5926 10.725 24.8257C8.87173 23.0589 7.77183 20.6449 7.65462 18.087C7.59077 16.7525 7.80095 15.419 8.27219 14.1689C8.74344 12.9187 9.46575 11.7783 10.3946 10.818C11.3514 9.81923 12.5 9.02398 13.7716 8.47994C15.0432 7.93591 16.4115 7.6543 17.7946 7.652L69.3826 7.639C72.0267 7.64191 74.5617 8.69357 76.4314 10.5632C78.301 12.4329 79.3527 14.9679 79.3556 17.612V21.1C79.3561 21.9797 79.7058 22.8231 80.3277 23.4452C80.9496 24.0673 81.793 24.4172 82.6726 24.418ZM17.6026 34.211H69.3796C72.0235 34.2136 74.5583 35.2649 76.428 37.1342C78.2976 39.0035 79.3494 41.5382 79.3526 44.182V49.882H69.6646C69.2945 49.8819 68.9279 49.9547 68.5859 50.0962C68.2439 50.2378 67.9331 50.4453 67.6713 50.707C67.4096 50.9687 67.2019 51.2794 67.0602 51.6214C66.9185 51.9633 66.8456 52.3299 66.8456 52.7V59.568C66.8447 59.9387 66.9169 60.306 67.0582 60.6488C67.1995 60.9916 67.407 61.3031 67.6689 61.5655C67.9307 61.8279 68.2418 62.0361 68.5843 62.1781C68.9268 62.3201 69.2939 62.3931 69.6646 62.393H79.3516V69.393C79.3487 72.0371 78.297 74.5721 76.4274 76.4418C74.5577 78.3114 72.0227 79.3631 69.3786 79.366H20.9366C17.4111 79.362 14.0312 77.9593 11.539 75.4657C9.0467 72.9721 7.64573 69.5915 7.64362 66.066V30.9C10.5164 33.0544 14.0117 34.2165 17.6026 34.211ZM73.2646 56.139C73.2648 56.4508 73.1725 56.7556 72.9994 57.015C72.8263 57.2743 72.5802 57.4764 72.2922 57.5958C72.0042 57.7153 71.6872 57.7465 71.3814 57.6858C71.0756 57.625 70.7947 57.4749 70.5742 57.2544C70.3537 57.0339 70.2036 56.753 70.1428 56.4472C70.0821 56.1414 70.1134 55.8244 70.2328 55.5364C70.3522 55.2484 70.5543 55.0023 70.8137 54.8292C71.073 54.6561 71.3778 54.5638 71.6896 54.564C72.1072 54.5643 72.5077 54.7303 72.803 55.0256C73.0983 55.3209 73.2644 55.7214 73.2646 56.139Z" fill="#FF0000"/>
</svg>
