<svg width="86" height="86" viewBox="0 0 86 86" fill="none" xmlns="http://www.w3.org/2000/svg">
<g clip-path="url(#clip0_86_3505)">
<path d="M43.0197 0.5C34.1885 8.49087 22.6801 12.8767 10.7706 12.79C10.7706 12.79 10.7266 48.532 10.7266 53.79C10.7266 62.363 16.5267 71.279 43.0197 85.505C68.2277 71.968 75.1697 62.363 75.1697 53.79C75.1697 47.339 75.2697 12.79 75.2697 12.79C63.3598 12.8771 51.851 8.49118 43.0197 0.5ZM32.8196 26.0591C32.8182 26.004 32.821 25.9488 32.8276 25.894C33.1084 23.4502 34.2781 21.195 36.1141 19.5579C37.9501 17.9207 40.3243 17.016 42.7842 17.016C45.2441 17.016 47.6181 17.9207 49.4541 19.5579C51.2901 21.195 52.4598 23.4502 52.7406 25.894C52.7456 25.949 52.7487 26.0041 52.7487 26.0591V32.119H49.2096V26.1481C48.9938 24.5988 48.2251 23.1799 47.0452 22.153C45.8653 21.126 44.3539 20.5604 42.7897 20.5604C41.2255 20.5604 39.714 21.126 38.5341 22.153C37.3542 23.1799 36.5855 24.5988 36.3696 26.1481V32.119H32.8256L32.8196 26.0591ZM58.4197 60.248C58.4197 60.9462 58.2822 61.6374 58.015 62.2823C57.7479 62.9273 57.3562 63.5133 56.8625 64.007C56.3689 64.5006 55.7829 64.8923 55.1379 65.1594C54.493 65.4266 53.8017 65.5641 53.1036 65.5641H32.4686C31.7705 65.5641 31.0793 65.4266 30.4343 65.1594C29.7894 64.8923 29.2032 64.5006 28.7096 64.007C28.216 63.5133 27.8244 62.9273 27.5573 62.2823C27.2901 61.6374 27.1526 60.9462 27.1526 60.248V41.157C27.1526 39.7471 27.7127 38.395 28.7096 37.3981C29.7065 36.4011 31.0587 35.8411 32.4686 35.8411H53.1096C54.5195 35.8411 55.8717 36.4011 56.8687 37.3981C57.8656 38.395 58.4257 39.7471 58.4257 41.157L58.4197 60.248Z" fill="#FF0000"/>
<path d="M42.9967 44.5353C42.1663 44.5286 41.3605 44.8175 40.7235 45.3502C40.0864 45.883 39.6595 46.6248 39.5191 47.4433C39.3787 48.2618 39.5339 49.1036 39.957 49.8182C40.3801 50.5328 41.0436 51.0737 41.8287 51.3442V55.8672C41.8241 56.0234 41.851 56.1789 41.9076 56.3246C41.9642 56.4702 42.0494 56.603 42.1583 56.7151C42.2672 56.8272 42.3974 56.9163 42.5414 56.9772C42.6853 57.038 42.8399 57.0693 42.9962 57.0693C43.1525 57.0693 43.3071 57.038 43.451 56.9772C43.595 56.9163 43.7252 56.8272 43.8341 56.7151C43.943 56.603 44.0282 56.4702 44.0848 56.3246C44.1414 56.1789 44.1682 56.0234 44.1637 55.8672V51.3442C44.9488 51.0737 45.6122 50.533 46.0353 49.8185C46.4583 49.104 46.6135 48.2623 46.4732 47.4438C46.333 46.6254 45.9064 45.8835 45.2695 45.3507C44.6326 44.8179 43.827 44.5289 42.9967 44.5353Z" fill="#FF0000"/>
</g>
<defs>
<clipPath id="clip0_86_3505">
<rect width="85" height="85.006" fill="white" transform="translate(0.5 0.5)"/>
</clipPath>
</defs>
</svg>
