<svg width="86" height="86" viewBox="0 0 86 86" fill="none" xmlns="http://www.w3.org/2000/svg">
<g clip-path="url(#clip0_86_3439)">
<path d="M85.2658 73.5149L85.2548 73.4819L81.8788 63.2229V38.1019C81.8767 36.1211 81.0889 34.222 79.6883 32.8214C78.2877 31.4208 76.3886 30.633 74.4078 30.6309H52.5998V42.8549C52.5961 46.1559 51.2831 49.3207 48.9489 51.655C46.6147 53.9892 43.4499 55.3022 40.1488 55.3059H38.3828V67.3199C38.3849 69.3006 39.1727 71.1997 40.5734 72.6003C41.974 74.0009 43.873 74.7887 45.8538 74.7909H71.1998L77.7218 79.1349C78.578 79.7139 79.5931 80.0123 80.6264 79.9888C81.6598 79.9652 82.6603 79.6208 83.4892 79.0033C84.318 78.3858 84.9344 77.5258 85.2527 76.5424C85.571 75.559 85.5756 74.501 85.2658 73.5149ZM68.3148 64.6679C68.0088 64.7833 67.6831 64.8374 67.3562 64.827C67.0294 64.8165 66.7077 64.7418 66.4097 64.6071C66.1118 64.4723 65.8432 64.2802 65.6195 64.0417C65.3958 63.8031 65.2212 63.5229 65.1058 63.2169L64.0218 60.3439H56.4418L55.3418 63.2239C55.2254 63.5294 55.0499 63.8091 54.8254 64.0469C54.6009 64.2846 54.3318 64.4759 54.0334 64.6096C53.735 64.7434 53.4132 64.8171 53.0863 64.8265C52.7594 64.8359 52.4339 64.7808 52.1283 64.6644C51.8227 64.5479 51.5431 64.3725 51.3053 64.148C51.0675 63.9235 50.8763 63.6543 50.7425 63.3559C50.6088 63.0575 50.5351 62.7357 50.5257 62.4088C50.5163 62.082 50.5714 61.7564 50.6878 61.4509L57.5458 43.4459L57.5678 43.3889C57.7844 42.854 58.1556 42.3959 58.634 42.0732C59.1123 41.7505 59.6761 41.5778 60.2531 41.5772C60.8302 41.5767 61.3943 41.7483 61.8732 42.0702C62.3522 42.392 62.7243 42.8494 62.9418 43.3839L62.9688 43.4519L69.7688 61.4579C69.8845 61.7641 69.9387 62.0901 69.9283 62.4173C69.9179 62.7445 69.8431 63.0664 69.7081 63.3647C69.5732 63.6629 69.3807 63.9316 69.1418 64.1554C68.9029 64.3792 68.6222 64.5537 68.3158 64.6689L68.3148 64.6679Z" fill="#FF0000"/>
<path d="M58.3398 55.3647H62.1398L60.2468 50.3477L58.3398 55.3647Z" fill="#FF0000"/>
<path d="M40.1501 6H11.5961C9.61478 6.00212 7.71527 6.79033 6.31456 8.1916C4.91385 9.59288 4.1264 11.4927 4.12508 13.474V38.759L0.749078 49.019L0.738078 49.053C0.419578 50.0395 0.42067 51.1013 0.741198 52.0872C1.06173 53.073 1.68533 53.9325 2.52308 54.543C3.34807 55.166 4.34832 55.5134 5.38188 55.5358C6.41545 55.5583 7.42983 55.2546 8.28108 54.668L14.8021 50.326H40.1501C42.1309 50.3239 44.0299 49.5361 45.4305 48.1355C46.8312 46.7348 47.619 44.8358 47.6211 42.855V13.474C47.6198 11.4927 46.8323 9.59288 45.4316 8.1916C44.0309 6.79033 42.1314 6.00212 40.1501 6ZM36.2661 39.226C35.7991 39.6928 35.1659 39.9551 34.5056 39.9551C33.8453 39.9551 33.212 39.6928 32.7451 39.226L31.6551 38.135C29.254 39.7033 26.3581 40.3291 23.5236 39.8924C20.6892 39.4556 18.116 37.9871 16.2984 35.7688C14.4807 33.5505 13.5467 30.7388 13.6757 27.8738C13.8047 25.0089 14.9876 22.2925 16.9973 20.2466C19.007 18.2006 21.7017 16.9693 24.5639 16.789C27.4262 16.6088 30.2541 17.4924 32.5045 19.2701C34.755 21.0478 36.2693 23.5942 36.7567 26.4204C37.2441 29.2466 36.6701 32.1532 35.1451 34.582L36.2671 35.704C36.7339 36.1713 36.996 36.8048 36.9958 37.4652C36.9956 38.1257 36.7331 38.759 36.2661 39.226Z" fill="#FF0000"/>
<path d="M25.3073 21.7764C24.3186 21.7753 23.3422 21.9952 22.4494 22.4199C21.5566 22.8446 20.77 23.4634 20.147 24.2312C19.5241 24.9989 19.0805 25.8962 18.8488 26.8573C18.6172 27.8185 18.6032 28.8192 18.8079 29.7865C19.0126 30.7537 19.4309 31.663 20.0321 32.4479C20.6333 33.2327 21.4024 33.8733 22.2829 34.3228C23.1635 34.7724 24.1334 35.0194 25.1217 35.046C26.1101 35.0726 27.0918 34.8779 27.9953 34.4764L26.9043 33.3854C26.4373 32.9183 26.1749 32.2849 26.1749 31.6244C26.1749 30.9639 26.4373 30.3304 26.9043 29.8634C27.3714 29.3963 28.0048 29.134 28.6653 29.134C29.3258 29.134 29.9593 29.3963 30.4263 29.8634L31.4593 30.8964C31.8671 29.8893 32.0212 28.7975 31.9081 27.7169C31.7949 26.6363 31.4181 25.6001 30.8106 24.6993C30.2031 23.7985 29.3836 23.0608 28.4242 22.5509C27.4648 22.0411 26.3948 21.7748 25.3083 21.7754L25.3073 21.7764Z" fill="#FF0000"/>
</g>
<defs>
<clipPath id="clip0_86_3439">
<rect width="85.005" height="85" fill="white" transform="translate(0.5 0.5)"/>
</clipPath>
</defs>
</svg>
