<svg width="86" height="86" viewBox="0 0 86 86" fill="none" xmlns="http://www.w3.org/2000/svg">
<g clip-path="url(#clip0_86_3486)">
<path d="M38.8907 85.042C41.9389 85.0381 44.8925 83.9834 47.2537 82.0556C49.6149 80.1278 51.2391 77.4448 51.8527 74.459H25.9297C26.5434 77.4445 28.1676 80.1273 30.5285 82.055C32.8894 83.9828 35.8427 85.0377 38.8907 85.042Z" fill="#FF0000"/>
<path d="M63.5816 42.8298H63.5386C59.3843 42.8323 55.2968 41.7845 51.6561 39.7838C48.0153 37.7831 44.9394 34.8945 42.7143 31.3863C40.4892 27.8782 39.1872 23.8644 38.9292 19.7182C38.6712 15.5719 39.4656 11.4277 41.2386 7.67078C40.4636 7.59678 39.6776 7.55078 38.8826 7.55078C35.6421 7.55367 32.4338 8.19488 29.441 9.43778C26.4483 10.6807 23.7297 12.5009 21.4405 14.7946C19.1513 17.0883 17.3363 19.8104 16.0992 22.8055C14.8622 25.8007 14.2272 29.0102 14.2306 32.2508V42.0878C14.2322 45.5363 13.4803 48.9434 12.0274 52.0709C10.5746 55.1984 8.45589 57.9707 5.81962 60.1938C4.92852 60.957 4.27314 61.9582 3.93012 63.0802C3.5871 64.2022 3.57063 65.3987 3.88262 66.5298C4.30295 67.8699 5.14847 69.0367 6.29118 69.8533C7.43389 70.67 8.81156 71.0921 10.2156 71.0558H67.5366C69.0064 71.0949 70.4456 70.6313 71.6162 69.7416C72.7869 68.8519 73.6188 67.5894 73.9746 66.1628C74.2076 65.0602 74.1352 63.915 73.7651 62.8506C73.3951 61.7861 72.7414 60.843 71.8746 60.1228C69.354 57.9857 67.3126 55.3408 65.8839 52.3609C64.4553 49.3811 63.6714 46.1333 63.5836 42.8298H63.5816Z" fill="#FF0000"/>
<path d="M81.1608 18.139C81.1608 21.6277 80.1263 25.038 78.1881 27.9387C76.2499 30.8394 73.4951 33.1003 70.272 34.4353C67.0489 35.7704 63.5023 36.1197 60.0806 35.4391C56.659 34.7585 53.516 33.0785 51.0492 30.6117C48.5823 28.1448 46.9024 25.0018 46.2218 21.5802C45.5411 18.1586 45.8905 14.612 47.2255 11.3888C48.5606 8.16574 50.8214 5.41091 53.7221 3.47271C56.6228 1.53451 60.0332 0.5 63.5218 0.5C65.8382 0.5 68.1319 0.956246 70.272 1.84269C72.412 2.72913 74.3566 4.02841 75.9945 5.66634C77.6324 7.30428 78.9317 9.24879 79.8181 11.3888C80.7046 13.5289 81.1608 15.8226 81.1608 18.139Z" fill="#FF0000"/>
</g>
<defs>
<clipPath id="clip0_86_3486">
<rect width="85" height="85" fill="white" transform="translate(0.5 0.5)"/>
</clipPath>
</defs>
</svg>
