<svg width="86" height="86" viewBox="0 0 86 86" fill="none" xmlns="http://www.w3.org/2000/svg">
<g clip-path="url(#clip0_86_3410)">
<path d="M43 0.5C34.5943 0.5 26.3774 2.99258 19.3883 7.66254C12.3992 12.3325 6.95186 18.9701 3.73513 26.736C0.518409 34.5018 -0.323225 43.0472 1.31665 51.2914C2.95652 59.5355 7.00426 67.1083 12.948 73.052C18.8917 78.9958 26.4645 83.0435 34.7087 84.6834C42.9529 86.3233 51.4982 85.4816 59.2641 82.2649C67.0299 79.0482 73.6675 73.6008 78.3375 66.6117C83.0074 59.6226 85.5 51.4057 85.5 43C85.5 31.7283 81.0224 20.9183 73.0521 12.948C65.0818 4.97767 54.2717 0.5 43 0.5ZM43 76.311C36.4117 76.311 29.9714 74.3573 24.4934 70.6971C19.0155 67.0368 14.7459 61.8343 12.2247 55.7476C9.70344 49.6608 9.04379 42.963 10.3291 36.5013C11.6144 30.0396 14.787 24.1042 19.4456 19.4456C24.1042 14.7869 30.0397 11.6144 36.5014 10.3291C42.9631 9.04376 49.6608 9.70341 55.7476 12.2246C61.8344 14.7459 67.0368 19.0154 70.6971 24.4934C74.3574 29.9714 76.311 36.4117 76.311 43C76.311 51.8346 72.8015 60.3074 66.5545 66.5544C60.3074 72.8015 51.8347 76.311 43 76.311Z" fill="#FF0000"/>
<path d="M44.1619 31.0843C45.7032 31.0776 47.2079 30.6144 48.4861 29.7533C49.7643 28.8921 50.7588 27.6716 51.3439 26.2457C51.9291 24.8199 52.0787 23.2527 51.7739 21.7419C51.4691 20.2311 50.7236 18.8444 49.6314 17.757C48.5392 16.6695 47.1493 15.93 45.6372 15.6318C44.1251 15.3336 42.5585 15.49 41.1352 16.0813C39.7119 16.6727 38.4957 17.6724 37.6401 18.9544C36.7846 20.2363 36.328 21.743 36.3279 23.2843C36.3279 24.3115 36.5308 25.3286 36.9249 26.2771C37.319 27.2257 37.8966 28.087 38.6245 28.8118C39.3524 29.5365 40.2163 30.1104 41.1666 30.5003C42.1168 30.8903 43.1348 31.0888 44.1619 31.0843ZM51.773 47.0003C52.0796 45.6901 52.0856 44.3276 51.7905 43.0148C51.4954 41.702 50.907 40.473 50.0693 39.4201C49.2316 38.3671 48.1663 37.5175 46.9534 36.9349C45.7405 36.3524 44.4115 36.052 43.066 36.0563H36.3099C35.7012 36.0563 35.1172 36.2976 34.6861 36.7275C34.2549 37.1573 34.0118 37.7405 34.01 38.3493C34.025 38.8463 34.2305 39.3185 34.5839 39.6683C35.1616 40.2375 35.587 40.9428 35.821 41.7193C36.055 42.4958 36.09 43.3187 35.9229 44.1123L32.402 58.4273C32.0957 59.7376 32.09 61.1003 32.3854 62.4132C32.6808 63.726 33.2695 64.955 34.1075 66.0079C34.9455 67.0608 36.0109 67.9104 37.224 68.4929C38.4371 69.0754 39.7663 69.3757 41.1119 69.3713H47.8619C48.4707 69.3713 49.0547 69.1299 49.4858 68.7001C49.9169 68.2703 50.1601 67.6871 50.1619 67.0783C50.1469 66.5819 49.9426 66.11 49.5909 65.7593C49.0122 65.1908 48.586 64.4856 48.352 63.7089C48.118 62.9321 48.0836 62.1089 48.252 61.3153L51.773 47.0003Z" fill="#FF0000"/>
</g>
<defs>
<clipPath id="clip0_86_3410">
<rect width="85.189" height="85" fill="white" transform="translate(0.5 0.5)"/>
</clipPath>
</defs>
</svg>
