<svg width="86" height="86" viewBox="0 0 86 86" fill="none" xmlns="http://www.w3.org/2000/svg">
<g clip-path="url(#clip0_86_3515)">
<path d="M47.7318 17.6941C50.8931 17.6941 53.4558 15.1314 53.4558 11.9701C53.4558 8.80882 50.8931 6.24609 47.7318 6.24609C44.5705 6.24609 42.0078 8.80882 42.0078 11.9701C42.0078 15.1314 44.5705 17.6941 47.7318 17.6941Z" fill="#FF0000"/>
<path d="M26.9791 17.6941C30.5358 17.6941 33.4191 15.1314 33.4191 11.9701C33.4191 8.80882 30.5358 6.24609 26.9791 6.24609C23.4223 6.24609 20.5391 8.80882 20.5391 11.9701C20.5391 15.1314 23.4223 17.6941 26.9791 17.6941Z" fill="#FF0000"/>
<path d="M47.0961 21.0352L45.9961 32.1972L47.3961 33.5972L48.7961 32.1972L47.6681 21.0352H47.0961Z" fill="#FF0000"/>
<path d="M15.1523 32.7528V38.6098H32.7323V32.7528C32.7294 29.8329 33.6039 26.9796 35.2423 24.5628C34.4414 23.749 33.5253 23.0573 32.5233 22.5098C32.2065 23.7703 31.4777 24.889 30.4527 25.6883C29.4277 26.4875 28.1651 26.9216 26.8653 26.9216C25.5655 26.9216 24.303 26.4875 23.278 25.6883C22.253 24.889 21.5242 23.7703 21.2073 22.5098C19.3762 23.5219 17.8492 25.0054 16.7845 26.8064C15.7198 28.6075 15.1563 30.6606 15.1523 32.7528Z" fill="#FF0000"/>
<path d="M23.9805 21.4096C24.063 22.1188 24.4032 22.7731 24.9365 23.2479C25.4698 23.7228 26.1589 23.9851 26.873 23.9851C27.587 23.9851 28.2762 23.7228 28.8095 23.2479C29.3427 22.7731 29.683 22.1188 29.7655 21.4096C27.8694 20.9104 25.8765 20.9104 23.9805 21.4096Z" fill="#FF0000"/>
<path d="M29.8047 47.4062H32.7327V64.9863H29.8047V47.4062Z" fill="#FF0000"/>
<path d="M10.7531 51.7957C10.5606 51.7957 10.3701 51.8336 10.1924 51.9073C10.0146 51.981 9.85312 52.089 9.71715 52.2252C9.58118 52.3613 9.47338 52.523 9.39993 52.7008C9.32647 52.8787 9.2888 53.0692 9.28906 53.2617V59.1237C9.28906 59.5119 9.44331 59.8843 9.71786 60.1589C9.99241 60.4334 10.3648 60.5877 10.7531 60.5877H15.1531C19.2698 60.5997 23.3116 61.6887 26.8771 63.7467V48.6387C23.3123 50.6954 19.2716 51.7837 15.1561 51.7957H10.7531Z" fill="#FF0000"/>
<path d="M35.6641 52.0742V60.3302C36.5216 60.0323 37.265 59.4748 37.7912 58.735C38.3173 57.9953 38.6 57.11 38.6 56.2022C38.6 55.2944 38.3173 54.4092 37.7912 53.6694C37.265 52.9297 36.5216 52.3721 35.6641 52.0742Z" fill="#FF0000"/>
<path d="M42.986 41.543H4.9C3.73305 41.543 2.61389 42.0065 1.78873 42.8317C0.96357 43.6569 0.5 44.776 0.5 45.943V72.311C0.5 72.8888 0.613809 73.4609 0.83493 73.9948C1.05605 74.5286 1.38015 75.0137 1.78873 75.4222C2.19731 75.8308 2.68236 76.1549 3.21619 76.376C3.75003 76.5972 4.32218 76.711 4.9 76.711H24.487L34.251 85.077C34.5042 85.2934 34.814 85.4329 35.1439 85.4789C35.4738 85.525 35.81 85.4756 36.1127 85.3367C36.4155 85.1978 36.6721 84.9751 36.8524 84.695C37.0327 84.4149 37.129 84.0891 37.13 83.756V76.709H42.992C44.159 76.709 45.2781 76.2454 46.1033 75.4202C46.9284 74.5951 47.392 73.4759 47.392 72.309V45.943C47.392 45.3647 47.278 44.792 47.0565 44.2578C46.835 43.7236 46.5104 43.2382 46.1012 42.8296C45.6919 42.4209 45.2062 42.0969 44.6716 41.8762C44.1371 41.6554 43.5643 41.5422 42.986 41.543ZM35.666 63.372V67.913H27.85L27.47 67.621C25.5282 66.1751 23.3464 65.0833 21.025 64.396V69.377C21.025 70.5449 20.5611 71.6649 19.7352 72.4907C18.9094 73.3165 17.7894 73.7805 16.6215 73.7805C15.4536 73.7805 14.3336 73.3165 13.5078 72.4907C12.6819 71.6649 12.218 70.5449 12.218 69.377V63.521H10.754C9.58705 63.521 8.46789 63.0574 7.64273 62.2322C6.81757 61.4071 6.354 60.2879 6.354 59.121V53.267C6.354 52.1 6.81757 50.9809 7.64273 50.1557C8.46789 49.3305 9.58705 48.867 10.754 48.867H15.154C19.5924 48.8597 23.9102 47.4219 27.467 44.767L27.858 44.475H35.674V49.016C37.328 49.3542 38.8144 50.2532 39.8819 51.561C40.9494 52.8689 41.5324 54.5053 41.5324 56.1935C41.5324 57.8817 40.9494 59.5181 39.8819 60.8259C38.8144 62.1338 37.328 63.0328 35.674 63.371L35.666 63.372ZM44.472 70.843C44.4704 71.619 44.1614 72.3629 43.6127 72.9116C43.0639 73.4604 42.3201 73.7694 41.544 73.771H38.594V70.843H41.522V62.043H44.45L44.472 70.843Z" fill="#FF0000"/>
<path d="M35.6641 32.7539V38.6159H59.1061V32.7539C59.1021 30.2192 58.2775 27.754 56.7558 25.727C55.234 23.7 53.0969 22.2202 50.6641 21.5089L51.8421 33.2989L47.3841 37.7519L42.9241 33.2939L44.1021 21.5039C41.6696 22.2168 39.5332 23.6979 38.0123 25.7257C36.4913 27.7535 35.6675 30.2191 35.6641 32.7539Z" fill="#FF0000"/>
<path d="M67.7709 17.6941C70.9322 17.6941 73.4949 15.1314 73.4949 11.9701C73.4949 8.80882 70.9322 6.24609 67.7709 6.24609C64.6096 6.24609 62.0469 8.80882 62.0469 11.9701C62.0469 15.1314 64.6096 17.6941 67.7709 17.6941Z" fill="#FF0000"/>
<path d="M59.5273 24.5628C61.1658 26.9796 62.0403 29.8329 62.0373 32.7528V38.6098H79.6173V32.7528C79.6123 30.6595 79.0471 28.6057 77.9804 26.8045C76.9138 25.0033 75.3845 23.5205 73.5513 22.5098C73.2306 23.7654 72.5009 24.8785 71.4774 25.6734C70.4539 26.4684 69.1948 26.8999 67.8988 26.8999C66.6029 26.8999 65.3438 26.4684 64.3203 25.6734C63.2968 24.8785 62.5671 23.7654 62.2463 22.5098C61.2438 23.0608 60.3276 23.7563 59.5273 24.5738V24.5628Z" fill="#FF0000"/>
<path d="M81.0791 0.521517H13.6891C12.5221 0.521517 11.403 0.985087 10.5778 1.81025C9.75263 2.63541 9.28906 3.75456 9.28906 4.92152V38.6155H12.2171V32.7535C12.2221 29.8234 13.1045 26.962 14.7507 24.538C16.3969 22.114 18.7313 20.2386 21.4531 19.1535C20.006 18.0259 18.9472 16.4745 18.4246 14.716C17.9019 12.9575 17.9414 11.0796 18.5376 9.34467C19.1338 7.60971 20.2569 6.10423 21.7501 5.03845C23.2433 3.97266 25.032 3.39977 26.8666 3.39977C28.7011 3.39977 30.4898 3.97266 31.983 5.03845C33.4762 6.10423 34.5993 7.60971 35.1955 9.34467C35.7917 11.0796 35.8312 12.9575 35.3086 14.716C34.7859 16.4745 33.7271 18.0259 32.2801 19.1535C34.0927 19.8674 35.7437 20.9379 37.1351 22.3015C38.5217 20.9424 40.1645 19.8724 41.9681 19.1535C40.5216 18.0255 39.4635 16.474 38.9414 14.7156C38.4193 12.9572 38.4592 11.0797 39.0556 9.34512C39.652 7.61052 40.7752 6.10543 42.2682 5.03994C43.7613 3.97444 45.5498 3.40172 47.3841 3.40172C49.2183 3.40172 51.0068 3.97444 52.4999 5.03994C53.993 6.10543 55.1161 7.61052 55.7125 9.34512C56.3089 11.0797 56.3489 12.9572 55.8267 14.7156C55.3046 16.474 54.2465 18.0255 52.8001 19.1535C54.6031 19.8736 56.2456 20.9435 57.6331 22.3015C59.0248 20.9376 60.676 19.8668 62.4891 19.1525C61.042 18.0249 59.9832 16.4735 59.4606 14.715C58.9379 12.9565 58.9774 11.0786 59.5736 9.34367C60.1698 7.60871 61.2929 6.10323 62.7861 5.03745C64.2793 3.97166 66.068 3.39877 67.9026 3.39877C69.7371 3.39877 71.5258 3.97166 73.019 5.03745C74.5122 6.10323 75.6353 7.60871 76.2315 9.34367C76.8277 11.0786 76.8672 12.9565 76.3446 14.715C75.8219 16.4735 74.7631 18.0249 73.3161 19.1525C76.0378 20.2376 78.3723 22.113 80.0184 24.537C81.6646 26.961 82.547 29.8224 82.5521 32.7525V41.5595H48.8091C49.4744 42.4215 49.9372 43.4223 50.1631 44.4875H59.6471L69.4111 52.8595C69.6642 53.0756 69.9738 53.2148 70.3035 53.2607C70.6331 53.3066 70.969 53.2573 71.2716 53.1185C71.5741 52.9798 71.8306 52.7574 72.0109 52.4776C72.1912 52.1978 72.2877 51.8723 72.2891 51.5395V44.4775H81.0961C81.6739 44.4775 82.246 44.3637 82.7799 44.1426C83.3137 43.9215 83.7988 43.5974 84.2073 43.1888C84.6159 42.7802 84.94 42.2952 85.1611 41.7613C85.3823 41.2275 85.4961 40.6553 85.4961 40.0775V4.92152C85.4961 4.34227 85.3817 3.76872 85.1595 3.23377C84.9373 2.69883 84.6117 2.21302 84.2013 1.80422C83.7909 1.39542 83.3039 1.07167 82.7681 0.851555C82.2323 0.631437 81.6583 0.519279 81.0791 0.521517ZM15.1511 21.0355H12.2171V18.1015H15.1451L15.1511 21.0355ZM18.0961 6.38352H15.1671V15.1905H12.2171V6.38352C12.2186 5.60745 12.5276 4.86362 13.0764 4.31486C13.6252 3.7661 14.369 3.4571 15.1451 3.45552H18.0951L18.0961 6.38352ZM82.5601 18.1075H79.6321V15.1735H82.5601V18.1075ZM82.5601 12.2455H79.6321V9.32852H82.5601V12.2455ZM82.5601 6.38352H79.6321V3.44952H82.5601V6.38352Z" fill="#FF0000"/>
<path d="M65.0039 21.4096C65.0864 22.1188 65.4266 22.7731 65.9599 23.2479C66.4932 23.7228 67.1824 23.9851 67.8964 23.9851C68.6105 23.9851 69.2996 23.7228 69.8329 23.2479C70.3662 22.7731 70.7064 22.1188 70.7889 21.4096C68.8929 20.9104 66.8999 20.9104 65.0039 21.4096Z" fill="#FF0000"/>
<path d="M15.1523 69.3835C15.1523 69.7718 15.3066 70.1441 15.5811 70.4187C15.8557 70.6932 16.2281 70.8475 16.6163 70.8475C17.0046 70.8475 17.377 70.6932 17.6515 70.4187C17.9261 70.1441 18.0803 69.7718 18.0803 69.3835V63.7475C17.1111 63.6013 16.1325 63.5257 15.1523 63.5215V69.3835Z" fill="#FF0000"/>
</g>
<defs>
<clipPath id="clip0_86_3515">
<rect width="85" height="85" fill="white" transform="translate(0.5 0.5)"/>
</clipPath>
</defs>
</svg>
