<svg width="86" height="86" viewBox="0 0 86 86" fill="none" xmlns="http://www.w3.org/2000/svg">
<g clip-path="url(#clip0_86_3534)">
<path d="M43.1059 0.5C41.4361 0.50235 39.8151 1.06315 38.5007 2.09314C37.1864 3.12314 36.2544 4.56315 35.8529 6.184C27.3247 7.86564 19.6448 12.4557 14.1246 19.1703C8.60443 25.8849 5.58641 34.3076 5.58594 43C5.58594 43.6604 5.84828 44.2937 6.31524 44.7607C6.78221 45.2277 7.41555 45.49 8.07594 45.49C8.73633 45.49 9.36967 45.2277 9.83663 44.7607C10.3036 44.2937 10.5659 43.6604 10.5659 43C10.5669 35.5431 13.128 28.3127 17.8209 22.5178C22.5139 16.7228 29.0541 12.7148 36.3479 11.164C36.9196 12.3726 37.8051 13.4056 38.9121 14.1552C40.0191 14.9049 41.307 15.3437 42.6414 15.4259C43.9758 15.5081 45.3078 15.2306 46.4985 14.6225C47.6891 14.0144 48.6947 13.0979 49.4104 11.9686C50.126 10.8393 50.5255 9.53866 50.567 8.20237C50.6086 6.86607 50.2908 5.54311 49.6468 4.37151C49.0028 3.19992 48.0561 2.22265 46.9056 1.54166C45.7551 0.860678 44.4429 0.500945 43.1059 0.5Z" fill="#FF0000"/>
<path d="M64.4474 38.4789C63.6336 37.9307 62.7756 37.451 61.8824 37.0448L60.5934 33.9318C60.9373 33.0131 61.2049 32.0676 61.3934 31.1048C61.4643 30.7097 61.4385 30.3032 61.3184 29.9202C61.1982 29.5371 60.9872 29.1888 60.7034 28.9048L57.2034 25.4048C56.9195 25.1209 56.5712 24.9099 56.1881 24.7897C55.805 24.6696 55.3986 24.6439 55.0034 24.7148C54.0405 24.9028 53.095 25.1703 52.1764 25.5148L49.0634 24.2258C48.6569 23.3328 48.1773 22.4749 47.6294 21.6608C47.3999 21.33 47.0936 21.0598 46.7367 20.8732C46.3798 20.6867 45.9831 20.5895 45.5804 20.5898H40.6274C40.2257 20.5897 39.8299 20.6867 39.4738 20.8727C39.1177 21.0587 38.8118 21.3281 38.5824 21.6578C38.0343 22.4717 37.5546 23.3296 37.1484 24.2228L34.0354 25.5118C33.1167 25.1679 32.1711 24.9003 31.2084 24.7118C30.8132 24.6412 30.4068 24.667 30.0238 24.7871C29.6408 24.9072 29.2924 25.1181 29.0084 25.4018L25.5084 28.9018C25.2246 29.1858 25.0136 29.5341 24.8934 29.9172C24.7733 30.3002 24.7475 30.7067 24.8184 31.1018C25.0063 32.0647 25.2739 33.0103 25.6184 33.9288L24.3294 37.0418C23.4364 37.4484 22.5784 37.928 21.7644 38.4758C21.4333 38.705 21.1627 39.0111 20.9758 39.3678C20.7889 39.7245 20.6913 40.1212 20.6914 40.5239V45.4768C20.6912 45.8786 20.7883 46.2744 20.9743 46.6305C21.1602 46.9866 21.4296 47.2924 21.7594 47.5219C22.5732 48.0701 23.4312 48.5497 24.3244 48.9558L25.6134 52.0688C25.2694 52.9876 25.0019 53.9331 24.8134 54.8958C24.7425 55.291 24.7683 55.6975 24.8884 56.0805C25.0086 56.4636 25.2196 56.8119 25.5034 57.0958L29.0034 60.5958C29.2874 60.8796 29.6357 61.0906 30.0188 61.2107C30.4018 61.3308 30.8082 61.3566 31.2034 61.2858C32.1663 61.0979 33.1118 60.8303 34.0304 60.4858L37.1434 61.7748C37.5499 62.6679 38.0296 63.5258 38.5774 64.3398C38.8068 64.6696 39.1126 64.939 39.4688 65.125C39.8249 65.311 40.2207 65.408 40.6224 65.4078H45.5754C45.9771 65.4079 46.3729 65.3108 46.729 65.1249C47.0851 64.9389 47.3909 64.6696 47.6204 64.3398C48.1686 63.526 48.6482 62.668 49.0544 61.7748L52.1674 60.4858C53.0861 60.8298 54.0317 61.0974 54.9944 61.2858C55.3896 61.3567 55.796 61.331 56.1791 61.2108C56.5621 61.0907 56.9105 60.8797 57.1944 60.5958L60.6944 57.0958C60.9783 56.8119 61.1892 56.4636 61.3094 56.0805C61.4295 55.6975 61.4553 55.291 61.3844 54.8958C61.1965 53.933 60.929 52.9874 60.5844 52.0688L61.8734 48.9558C62.7665 48.5494 63.6244 48.0698 64.4384 47.5219C64.7682 47.2924 65.0376 46.9866 65.2235 46.6305C65.4095 46.2744 65.5066 45.8786 65.5064 45.4768V40.5239C65.5076 40.1229 65.4119 39.7276 65.2275 39.3716C65.0431 39.0155 64.7755 38.7093 64.4474 38.4789ZM43.1034 52.9608C41.1333 52.9608 39.2074 52.3767 37.5694 51.2821C35.9313 50.1876 34.6546 48.6319 33.9006 46.8118C33.1467 44.9916 32.9495 42.9888 33.3338 41.0566C33.7181 39.1243 34.6669 37.3494 36.0599 35.9564C37.453 34.5633 39.2279 33.6146 41.1601 33.2302C43.0924 32.8459 45.0952 33.0431 46.9153 33.7971C48.7354 34.551 50.2912 35.8277 51.3857 37.4658C52.4802 39.1039 53.0644 41.0297 53.0644 42.9998C53.0644 44.3079 52.8068 45.6032 52.3062 46.8118C51.8056 48.0203 51.0719 49.1184 50.1469 50.0433C49.2219 50.9683 48.1238 51.702 46.9153 52.2026C45.7068 52.7032 44.4115 52.9608 43.1034 52.9608Z" fill="#FF0000"/>
<path d="M78.1337 40.5098C77.4733 40.5098 76.84 40.7721 76.373 41.2391C75.9061 41.706 75.6437 42.3394 75.6437 42.9998C75.643 50.4568 73.082 57.6875 68.389 63.4826C63.6961 69.2777 57.1557 73.2859 49.8617 74.8368C49.109 73.245 47.8181 71.9704 46.217 71.2379C44.6159 70.5054 42.8075 70.362 41.111 70.8332C39.4144 71.3043 37.9389 72.3597 36.9449 73.813C35.9508 75.2663 35.5021 77.024 35.678 78.7759C35.8539 80.5279 36.6431 82.1613 37.9062 83.388C39.1693 84.6146 40.8252 85.3556 42.5815 85.4801C44.3379 85.6046 46.0817 85.1046 47.5052 84.0684C48.9288 83.0322 49.9405 81.5264 50.3617 79.8168C58.8892 78.1341 66.5681 73.5434 72.0873 66.8287C77.6065 60.114 80.6237 51.6917 80.6237 42.9998C80.6237 42.3394 80.3614 41.706 79.8944 41.2391C79.4275 40.7721 78.7941 40.5098 78.1337 40.5098Z" fill="#FF0000"/>
</g>
<defs>
<clipPath id="clip0_86_3534">
<rect width="85" height="85" fill="white" transform="translate(0.5 0.5)"/>
</clipPath>
</defs>
</svg>
