<svg width="86" height="86" viewBox="0 0 86 86" fill="none" xmlns="http://www.w3.org/2000/svg">
<g clip-path="url(#clip0_86_3547)">
<path d="M84.7499 25.54L61.4299 1.32298C61.0575 0.936825 60.5781 0.670792 60.0535 0.559038C59.5288 0.447283 58.9826 0.494906 58.4852 0.695793C57.9878 0.896681 57.5617 1.24166 57.2618 1.68645C56.9618 2.13123 56.8017 2.65551 56.8019 3.19198V14.852H55.9019C46.6278 14.8626 37.7367 18.5513 31.179 25.1091C24.6212 31.6668 20.9325 40.558 20.9219 49.832V55.213C20.9272 55.8167 21.1381 56.4006 21.5199 56.8684C21.9016 57.3361 22.4314 57.6598 23.0219 57.786C23.2155 57.8345 23.4143 57.8587 23.6139 57.858C24.1245 57.8525 24.6239 57.7067 25.0572 57.4365C25.4906 57.1663 25.8412 56.7821 26.0709 56.326C28.5133 51.3978 32.2879 47.2528 36.9666 44.3611C41.6453 41.4694 47.0407 39.9468 52.5409 39.966H56.8029V51.626C56.8033 52.1622 56.9639 52.6861 57.264 53.1304C57.5642 53.5747 57.9903 53.9192 58.4876 54.1197C58.9849 54.3202 59.5308 54.3676 60.0552 54.2558C60.5796 54.1439 61.0587 53.8779 61.4309 53.492L84.7509 29.275C85.2343 28.7735 85.5044 28.104 85.5044 27.4075C85.5044 26.7109 85.2333 26.0415 84.7499 25.54Z" fill="#FF0000"/>
<path d="M74.879 85.5016H11.129C8.31515 85.5029 5.61569 84.3879 3.623 82.4012C1.6303 80.4145 0.507151 77.7185 0.5 74.9046L0.5 25.4496C0.506356 22.6359 1.62861 19.9397 3.62052 17.9525C5.61244 15.9652 8.31132 14.8493 11.125 14.8496H21.754C22.6806 14.8652 23.5639 15.2442 24.2137 15.905C24.8634 16.5658 25.2276 17.4554 25.2276 18.3821C25.2276 19.3088 24.8634 20.1984 24.2137 20.8592C23.5639 21.52 22.6806 21.899 21.754 21.9146H11.129C10.1909 21.9138 9.2909 22.2855 8.62673 22.948C7.96256 23.6105 7.58859 24.5095 7.587 25.4476V74.9016C7.58859 75.8397 7.96256 76.7388 8.62673 77.4012C9.2909 78.0637 10.1909 78.4354 11.129 78.4346H74.879C75.8169 78.4351 76.7167 78.0633 77.3806 77.4009C78.0446 76.7384 78.4184 75.8395 78.42 74.9016V46.6446C78.42 45.7052 78.7932 44.8043 79.4574 44.14C80.1217 43.4758 81.0226 43.1026 81.962 43.1026C82.9014 43.1026 83.8023 43.4758 84.4666 44.14C85.1308 44.8043 85.504 45.7052 85.504 46.6446V74.9036C85.4976 77.7173 84.3754 80.4135 82.3835 82.4008C80.3916 84.388 77.6927 85.5039 74.879 85.5036V85.5016Z" fill="#FF0000"/>
</g>
<defs>
<clipPath id="clip0_86_3547">
<rect width="85.004" height="85.004" fill="white" transform="translate(0.5 0.5)"/>
</clipPath>
</defs>
</svg>
