<svg width="86" height="87" viewBox="0 0 86 87" fill="none" xmlns="http://www.w3.org/2000/svg">
<g clip-path="url(#clip0_86_3426)">
<path d="M78.3319 41.9663C76.4141 44.0401 74.3659 45.9894 72.1999 47.8023C72.0758 55.5217 69.1309 62.9288 63.9208 68.6261C58.7106 74.3233 51.5955 77.9167 43.9179 78.7283V15.9203C44.0029 15.9293 44.0859 15.9483 44.1709 15.9593C44.4899 13.776 45.1197 11.6494 46.0409 9.64434C38.0396 8.44098 29.8625 9.79307 22.6745 13.508C15.4864 17.223 9.65385 23.1113 6.00752 30.3344C2.36118 37.5576 1.08702 45.7471 2.36652 53.7366C3.64601 61.7261 7.41391 69.1081 13.1335 74.8313C18.8532 80.5545 26.2329 84.3269 34.2216 85.6114C42.2103 86.8958 50.4006 85.6267 57.626 81.9849C64.8514 78.343 70.7433 72.5141 74.4627 65.3283C78.1821 58.1426 79.5393 49.9664 78.3409 41.9643L78.3319 41.9663ZM25.6179 19.5653C21.7269 26.0063 19.2469 34.9813 18.9329 45.1483H9.18488C9.55077 39.846 11.2485 34.7216 14.121 30.2497C16.9935 25.7778 20.9478 22.103 25.6179 19.5653ZM9.41088 51.6803H19.0179C19.5949 60.9543 22.0079 69.1063 25.6179 75.0803C21.2756 72.718 17.5475 69.3706 14.7329 65.3068C11.9183 61.243 10.0955 56.576 9.41088 51.6803ZM37.3809 78.1363C30.9809 75.0943 26.5059 63.4103 25.5939 51.6803H37.3809V78.1363ZM37.3809 45.1483H25.4619C25.9539 32.7223 30.5839 19.7483 37.3819 16.5173L37.3809 45.1483Z" fill="#FF0000"/>
<path d="M66.4859 0.5C65.8178 0.50018 65.1502 0.535892 64.4859 0.606995C54.7739 1.63999 47.4549 10.98 48.3009 20.707C49.4079 33.454 61.1289 42.957 65.1459 45.861C65.5311 46.141 65.9969 46.2878 66.473 46.2791C66.949 46.2705 67.4093 46.1068 67.7839 45.813C71.9519 42.556 84.7579 31.513 84.7579 18.769C84.7574 13.9239 82.8325 9.27743 79.4065 5.85144C75.9805 2.42545 71.334 0.50053 66.4889 0.5H66.4859ZM66.4859 27.3C64.7997 27.3 63.1512 26.7999 61.7491 25.8631C60.3471 24.9262 59.2543 23.5947 58.6089 22.0368C57.9636 20.4789 57.7948 18.7645 58.1238 17.1107C58.4527 15.4568 59.2648 13.9376 60.4571 12.7452C61.6495 11.5528 63.1687 10.7408 64.8226 10.4118C66.4765 10.0829 68.1908 10.2517 69.7487 10.897C71.3066 11.5423 72.6382 12.6351 73.5751 14.0372C74.5119 15.4393 75.0119 17.0877 75.0119 18.774C75.0119 19.8936 74.7914 21.0024 74.3629 22.0368C73.9345 23.0712 73.3064 24.0111 72.5147 24.8028C71.723 25.5945 70.7831 26.2225 69.7487 26.651C68.7143 27.0795 67.6056 27.3 66.4859 27.3Z" fill="#FF0000"/>
</g>
<defs>
<clipPath id="clip0_86_3426">
<rect width="85" height="85.599" fill="white" transform="translate(0.5 0.5)"/>
</clipPath>
</defs>
</svg>
