<svg xmlns="http://www.w3.org/2000/svg" width="19.993" height="20" viewBox="0 0 19.993 20">
  <g id="profile01" transform="translate(-2553.992 -189.992)">
    <path id="profile01-2" data-name="profile01" d="M19.993,10.006A10,10,0,1,0,3.245,17.369l-.009.008.325.273c.021.018.044.032.065.05.172.143.351.279.532.41l.177.126q.291.2.6.381l.134.077c.223.127.45.246.683.355l.052.023a9.909,9.909,0,0,0,2.418.765l.067.012c.263.045.529.082.8.106l.1.008c.268.022.539.036.814.036s.541-.014.808-.035l.1-.008q.4-.037.792-.1l.068-.012a9.906,9.906,0,0,0,2.383-.747l.083-.038q.337-.158.658-.34l.16-.092c.2-.115.388-.237.575-.363.067-.046.133-.094.2-.142.16-.115.316-.233.469-.357.034-.027.07-.051.1-.079l.333-.278-.01-.008a9.97,9.97,0,0,0,3.274-7.389Zm-19.266,0a9.269,9.269,0,1,1,15.417,6.93,2.746,2.746,0,0,0-.325-.2L12.741,15.2a.806.806,0,0,1-.448-.725V13.4c.071-.089.148-.187.224-.3a7.409,7.409,0,0,0,.951-1.863,1.319,1.319,0,0,0,.758-1.2V8.758A1.323,1.323,0,0,0,13.9,7.9V6.2a2.931,2.931,0,0,0-.685-2.132A4.093,4.093,0,0,0,10,2.916,4.093,4.093,0,0,0,6.773,4.067,2.932,2.932,0,0,0,6.089,6.2V7.9a1.324,1.324,0,0,0-.322.861v1.289a1.323,1.323,0,0,0,.487,1.026,6.83,6.83,0,0,0,1.124,2.322v1.052a.811.811,0,0,1-.422.712L4.08,16.725a2.615,2.615,0,0,0-.273.173,9.247,9.247,0,0,1-3.08-6.892Z" transform="translate(2553.992 189.992)" fill="#6133bd"/>
  </g>
</svg>
