<svg width="21" height="21" viewBox="0 0 21 21" fill="none" xmlns="http://www.w3.org/2000/svg">
<g clip-path="url(#clip0_86_3594)">
<path d="M10.4981 4.57401C10.0758 4.52802 9.64855 4.57147 9.24417 4.70156C8.8398 4.83164 8.46735 5.04543 8.15108 5.32901C7.8635 5.6784 7.72039 6.12453 7.75108 6.57601C7.75501 6.61456 7.75701 6.65327 7.75708 6.69201V8.39201C7.757 8.67092 7.65695 8.94056 7.47508 9.15201C7.45023 9.17958 7.43573 9.21493 7.43408 9.25201V10.541C7.434 10.5649 7.43936 10.5885 7.44975 10.6099C7.46015 10.6314 7.47531 10.6503 7.49408 10.665C7.68642 10.8224 7.82342 11.0372 7.88508 11.278C8.071 11.9659 8.38443 12.6128 8.80908 13.185C8.96154 13.3866 9.04436 13.6323 9.04508 13.885V14.937C9.045 15.292 8.94932 15.6405 8.76808 15.9458C8.58684 16.2511 8.32674 16.5019 8.01508 16.672L5.72308 17.92C5.82308 17.983 5.92308 18.045 6.02308 18.104L6.14108 18.172C6.34108 18.288 6.54608 18.393 6.74108 18.484H6.74608L6.79308 18.505C7.47201 18.8199 8.18852 19.0464 8.92508 19.179L8.98308 19.189C9.22808 19.231 9.45708 19.262 9.68308 19.282H9.71308H9.77708C10.0401 19.304 10.2771 19.314 10.4931 19.314C10.7091 19.314 10.9391 19.304 11.2051 19.282H11.2701H11.3001C11.5271 19.261 11.7611 19.23 11.9941 19.19H11.9981L12.0381 19.183H12.0541C12.779 19.0526 13.4846 18.8312 14.1541 18.524L14.1991 18.503L14.2301 18.492C14.4221 18.402 14.6181 18.301 14.8111 18.192L14.9521 18.111C15.0341 18.063 15.1111 18.011 15.1851 17.969L12.7181 16.734C12.3892 16.5709 12.1125 16.3189 11.9195 16.0066C11.7265 15.6943 11.6249 15.3341 11.6261 14.967V13.892C11.6261 13.6248 11.7179 13.3657 11.8861 13.158C11.9421 13.089 12.0021 13.009 12.0651 12.92C12.4045 12.4374 12.6738 11.9092 12.8651 11.351C12.9155 11.2048 12.9946 11.0701 13.0976 10.9547C13.2006 10.8394 13.3255 10.7456 13.4651 10.679C13.4926 10.6666 13.5159 10.6465 13.5323 10.6211C13.5486 10.5958 13.5572 10.5662 13.5571 10.536V9.24901C13.5559 9.21202 13.5417 9.17663 13.5171 9.14901C13.3351 8.93761 13.2351 8.66794 13.2351 8.38901V6.69201C13.2351 6.65327 13.2371 6.61455 13.2411 6.57601C13.2718 6.12422 13.1287 5.67776 12.8411 5.32801C12.5252 5.04509 12.1534 4.83175 11.7498 4.70185C11.3461 4.57195 10.9197 4.5284 10.4981 4.57401ZM10.4981 0.500013C12.5162 0.498715 14.4874 1.10862 16.1522 2.24943C17.817 3.39023 19.0972 5.00845 19.8244 6.89102C20.5516 8.7736 20.6916 10.8323 20.226 12.7959C19.7604 14.7596 18.711 16.5363 17.2161 17.892L17.2261 17.9L16.8931 18.178C16.8601 18.206 16.8241 18.23 16.7931 18.257C16.6411 18.381 16.4841 18.5 16.3241 18.614C16.2571 18.662 16.1921 18.714 16.1241 18.756C15.9371 18.884 15.7451 19.004 15.5491 19.12L15.3891 19.212C15.1744 19.3333 14.9551 19.4467 14.7311 19.552L14.6481 19.59C13.8885 19.9386 13.0878 20.1896 12.2651 20.337L12.1971 20.349C11.9364 20.3937 11.6724 20.427 11.4051 20.449L11.3051 20.457C11.0381 20.478 10.7701 20.493 10.4971 20.493C10.2241 20.493 9.95108 20.479 9.68308 20.457L9.58308 20.449C9.31408 20.425 9.04808 20.388 8.78308 20.343L8.71608 20.331C7.88059 20.1803 7.06793 19.9229 6.29808 19.565L6.24608 19.542C6.01308 19.432 5.78508 19.313 5.56308 19.186L5.42908 19.109C5.22575 18.9883 5.02575 18.8613 4.82908 18.728C4.76908 18.687 4.71008 18.644 4.65108 18.601C4.46908 18.47 4.29108 18.334 4.11808 18.191C4.09708 18.174 4.07408 18.159 4.05308 18.141L3.72908 17.868L3.73808 17.86C2.2516 16.4998 1.21118 14.7218 0.75342 12.7596C0.295656 10.7974 0.441943 8.7426 1.17307 6.86502C1.90421 4.98744 3.18601 3.37483 4.8502 2.23889C6.51439 1.10296 8.48317 0.496808 10.4981 0.500013ZM16.6451 17.425C18.0499 16.1786 19.0429 14.5348 19.4925 12.7114C19.9422 10.8879 19.8272 8.97093 19.163 7.21428C18.4987 5.45764 17.3164 3.94425 15.7728 2.87458C14.2291 1.80492 12.3969 1.22947 10.5189 1.22444C8.64082 1.21942 6.80557 1.78507 5.25621 2.84646C3.70685 3.90785 2.5165 5.41489 1.84284 7.16796C1.16918 8.92103 1.044 10.8374 1.48389 12.6632C1.92377 14.489 2.90796 16.1381 4.30608 17.392C4.39346 17.3288 4.48463 17.271 4.57908 17.219L7.45308 15.651C7.58087 15.5812 7.68749 15.4782 7.76175 15.3529C7.836 15.2276 7.87515 15.0846 7.87508 14.939V13.885C7.35632 13.1894 6.97485 12.4014 6.75108 11.563C6.5989 11.439 6.47624 11.2827 6.392 11.1054C6.30777 10.9281 6.26407 10.7343 6.26408 10.538V9.24901C6.26637 8.93402 6.38089 8.63016 6.58708 8.39201V6.69201C6.52434 5.91918 6.77028 5.15296 7.27108 4.56101C7.69369 4.14703 8.20101 3.82959 8.75811 3.63054C9.3152 3.43149 9.90882 3.35557 10.4981 3.40801C11.0866 3.3559 11.6795 3.43189 12.2358 3.63075C12.7922 3.82962 13.2989 4.14664 13.7211 4.56001C14.2197 5.15323 14.4631 5.91979 14.3981 6.69201V8.39201C14.6049 8.6313 14.7191 8.93675 14.7201 9.25301V10.542C14.7213 10.7935 14.6505 11.0401 14.5163 11.2527C14.382 11.4653 14.1897 11.6351 13.9621 11.742C13.7347 12.4045 13.4145 13.0314 13.0111 13.604C12.9331 13.713 12.8581 13.813 12.7871 13.904V14.979C12.7867 15.1295 12.8285 15.277 12.9077 15.405C12.9869 15.5329 13.1003 15.6362 13.2351 15.703L16.3131 17.242C16.4265 17.2954 16.5361 17.3566 16.6411 17.425H16.6451Z" fill="#FF0000"/>
</g>
<defs>
<clipPath id="clip0_86_3594">
<rect width="19.992" height="19.992" fill="white" transform="translate(0.5 0.5)"/>
</clipPath>
</defs>
</svg>
