<svg xmlns="http://www.w3.org/2000/svg" width="19.992" height="19.992" viewBox="0 0 19.992 19.992">
  <g id="profile" transform="translate(-2519 -190)">
    <path id="profile-2" data-name="profile" d="M10,4.082a3.025,3.025,0,0,0-2.347.755,1.773,1.773,0,0,0-.4,1.247,1.164,1.164,0,0,1,.006.116V7.9a1.166,1.166,0,0,1-.282.76.16.16,0,0,0-.041.1v1.289a.157.157,0,0,0,.06.124,1.166,1.166,0,0,1,.391.613,5.692,5.692,0,0,0,.924,1.907,1.166,1.166,0,0,1,.236.7v1.052a1.977,1.977,0,0,1-1.03,1.735L5.225,17.428c.1.063.2.125.3.184l.118.068c.2.116.405.221.6.312l.005,0,.047.021a8.752,8.752,0,0,0,2.132.674h0l.058.01c.245.042.474.073.7.093l.03,0,.064,0c.263.022.5.032.716.032s.446-.01.712-.032l.065,0,.03,0c.227-.021.461-.052.694-.092H11.5l.04-.007.016,0a8.75,8.75,0,0,0,2.1-.659l.045-.021L13.732,18l0,0c.192-.09.388-.191.581-.3l.141-.081c.082-.048.159-.1.233-.142L12.22,16.242a1.965,1.965,0,0,1-1.092-1.767V13.4a1.166,1.166,0,0,1,.26-.734c.056-.069.116-.149.179-.238a6.247,6.247,0,0,0,.8-1.569,1.166,1.166,0,0,1,.6-.672.156.156,0,0,0,.092-.143V8.757a.158.158,0,0,0-.04-.1,1.165,1.165,0,0,1-.282-.76V6.2a1.152,1.152,0,0,1,.006-.116,1.775,1.775,0,0,0-.4-1.248A3.024,3.024,0,0,0,10,4.082ZM10,.008A9.991,9.991,0,0,1,16.718,17.4l.01.008-.333.278c-.033.028-.069.052-.1.079-.152.124-.309.243-.469.357-.067.048-.132.1-.2.142-.187.128-.379.248-.575.364l-.16.092q-.322.182-.658.34l-.083.038a9.9,9.9,0,0,1-2.383.747l-.068.012q-.391.067-.792.1l-.1.008c-.267.021-.535.036-.808.036s-.546-.014-.814-.036l-.1-.008c-.269-.024-.535-.061-.8-.106l-.067-.012A9.907,9.907,0,0,1,5.8,19.073l-.052-.023c-.233-.11-.461-.229-.683-.356l-.134-.077q-.305-.181-.6-.381c-.06-.041-.119-.084-.178-.127-.182-.131-.36-.267-.533-.41-.021-.017-.044-.032-.065-.05l-.324-.273.009-.008A9.99,9.99,0,0,1,10,.008Zm6.147,16.925A9.268,9.268,0,1,0,3.808,16.9a2.637,2.637,0,0,1,.273-.173l2.874-1.568a.811.811,0,0,0,.422-.712V13.393a6.83,6.83,0,0,1-1.124-2.322,1.322,1.322,0,0,1-.487-1.025V8.757A1.324,1.324,0,0,1,6.089,7.9V6.2a2.932,2.932,0,0,1,.684-2.131A4.093,4.093,0,0,1,10,2.916a4.091,4.091,0,0,1,3.223,1.152A2.931,2.931,0,0,1,13.9,6.2V7.9a1.323,1.323,0,0,1,.322.861v1.289a1.319,1.319,0,0,1-.758,1.2,7.406,7.406,0,0,1-.951,1.862c-.078.109-.153.209-.224.3v1.075a.806.806,0,0,0,.448.724l3.078,1.539A2.735,2.735,0,0,1,16.143,16.933Z" transform="translate(2519 189.992)" fill="#6133bd"/>
  </g>
</svg>
