<svg width="21" height="21" viewBox="0 0 21 21" fill="none" xmlns="http://www.w3.org/2000/svg">
<g clip-path="url(#clip0_86_3597)">
<path d="M20.4922 10.5053C20.495 8.84114 20.0825 7.2026 19.292 5.73819C18.5015 4.27378 17.3581 3.02979 15.9653 2.11899C14.5725 1.20819 12.9745 0.659366 11.316 0.522274C9.6575 0.385182 7.99102 0.664153 6.46761 1.3339C4.94419 2.00365 3.612 3.043 2.59179 4.35773C1.57158 5.67247 0.895604 7.22103 0.625142 8.86305C0.35468 10.5051 0.49828 12.1886 1.04293 13.7611C1.58757 15.3336 2.51604 16.7453 3.74417 17.8683L3.73517 17.8763L4.06017 18.1493C4.08117 18.1673 4.10417 18.1813 4.12517 18.1993C4.29717 18.3423 4.47617 18.4783 4.65717 18.6093L4.83417 18.7353C5.02817 18.8686 5.22817 18.9956 5.43417 19.1163L5.56817 19.1933C5.79117 19.3203 6.01817 19.4393 6.25117 19.5483L6.30317 19.5713C7.07308 19.9288 7.88574 20.1859 8.72118 20.3363L8.78817 20.3483C9.05117 20.3933 9.31717 20.4303 9.58817 20.4543L9.68818 20.4623C9.95618 20.4843 10.2272 20.4983 10.5022 20.4983C10.7772 20.4983 11.0432 20.4843 11.3102 20.4633L11.4102 20.4553C11.6768 20.4306 11.9408 20.3973 12.2022 20.3553L12.2702 20.3433C13.0928 20.1958 13.8935 19.9448 14.6532 19.5963L14.7362 19.5583C14.9608 19.4529 15.1802 19.3396 15.3942 19.2183L15.5542 19.1263C15.7542 19.0113 15.9422 18.8893 16.1292 18.7633C16.1962 18.7173 16.2622 18.6693 16.3292 18.6213C16.4892 18.5063 16.6452 18.3883 16.7982 18.2643C16.8322 18.2373 16.8682 18.2133 16.8982 18.1853L17.2312 17.9073L17.2212 17.8993C18.2525 16.9644 19.0766 15.824 19.6404 14.5514C20.2043 13.2788 20.4955 11.9022 20.4952 10.5103L20.4922 10.5053ZM1.22617 10.5053C1.22507 8.95709 1.61178 7.43329 2.35099 6.07299C3.09021 4.71268 4.15838 3.5592 5.458 2.71785C6.75761 1.8765 8.24727 1.37408 9.79098 1.25646C11.3347 1.13884 12.8833 1.40977 14.2954 2.04451C15.7074 2.67924 16.938 3.65757 17.8748 4.89018C18.8116 6.12279 19.4247 7.57041 19.6582 9.10089C19.8916 10.6314 19.738 12.1959 19.2114 13.6518C18.6847 15.1076 17.8018 16.4084 16.6432 17.4353C16.5396 17.3612 16.431 17.2943 16.3182 17.2353L13.2402 15.6993C13.1052 15.6324 12.9917 15.529 12.9125 15.4008C12.8333 15.2727 12.7916 15.1249 12.7922 14.9743V13.8993C12.8632 13.8103 12.9402 13.7123 13.0162 13.5993C13.4197 13.0264 13.7399 12.3991 13.9672 11.7363C14.1948 11.6293 14.387 11.4595 14.5213 11.2469C14.6556 11.0343 14.7264 10.7877 14.7252 10.5363V9.25728C14.7224 8.94154 14.6067 8.63721 14.3992 8.39928V6.69928C14.462 5.92596 14.2157 5.15927 13.7142 4.56728C13.2928 4.15509 12.7874 3.83876 12.2326 3.63994C11.6777 3.44111 11.0864 3.36448 10.4992 3.41528C9.91007 3.36258 9.31653 3.43818 8.75945 3.63688C8.20236 3.83558 7.69496 4.15266 7.27217 4.56628C6.77086 5.15873 6.52489 5.92577 6.58817 6.69928V8.39928C6.38146 8.63861 6.26724 8.94403 6.26617 9.26028V10.5493C6.26608 10.7457 6.30974 10.9397 6.39398 11.1172C6.47822 11.2947 6.60092 11.4511 6.75317 11.5753C6.97694 12.4136 7.35841 13.2017 7.87717 13.8973V14.9493C7.87724 15.0949 7.83809 15.2379 7.76384 15.3632C7.68958 15.4884 7.58296 15.5914 7.45517 15.6613L4.57917 17.2243C4.48469 17.2763 4.39352 17.334 4.30617 17.3973C3.33691 16.5298 2.56159 15.4675 2.03085 14.2799C1.50012 13.0923 1.22592 11.8061 1.22617 10.5053Z" fill="#FF0000"/>
</g>
<defs>
<clipPath id="clip0_86_3597">
<rect width="19.993" height="20" fill="white" transform="translate(0.5 0.5)"/>
</clipPath>
</defs>
</svg>
