<svg width="24" height="24" viewBox="0 0 24 24" fill="none" xmlns="http://www.w3.org/2000/svg">
<g clip-path="url(#clip0_86_3600)">
<path d="M8.248 0.5H8.414C8.79292 0.510078 9.16636 0.592915 9.514 0.744L11.362 1.581C11.5289 1.65597 11.7116 1.68915 11.8942 1.67765C12.0768 1.66615 12.2538 1.61032 12.41 1.515C12.9433 1.27633 13.475 1.03533 14.005 0.792C14.3809 0.618964 14.7866 0.519831 15.2 0.5L15.388 0.5C15.8782 0.520136 16.3555 0.662402 16.7768 0.913878C17.198 1.16535 17.5497 1.51807 17.8 1.94C17.9271 2.16249 18.0319 2.39695 18.113 2.64C18.313 3.18133 18.5173 3.721 18.726 4.259C18.7887 4.42686 18.8908 4.57717 19.0238 4.69726C19.1567 4.81735 19.3166 4.90369 19.49 4.949L20.89 5.478C21.1663 5.57579 21.4339 5.69655 21.69 5.839C22.2969 6.20717 22.7504 6.78217 22.9671 7.45816C23.1837 8.13415 23.1489 8.86564 22.869 9.518L22.209 10.976C21.979 11.485 21.809 11.794 22.024 12.257C22.254 12.761 22.483 13.2657 22.711 13.771C22.8381 14.0368 22.9438 14.3124 23.027 14.595C23.174 15.2072 23.1206 15.8505 22.8747 16.4301C22.6288 17.0098 22.2034 17.4952 21.661 17.815C21.4013 17.9534 21.1315 18.0721 20.854 18.17L19.316 18.748C19.1592 18.814 19.0197 18.9151 18.9082 19.0436C18.7967 19.1721 18.7162 19.3245 18.673 19.489C18.4897 19.9697 18.308 20.4507 18.128 20.932C18.033 21.2051 17.9132 21.4688 17.77 21.72C17.5145 22.1427 17.1561 22.4938 16.7282 22.7406C16.3003 22.9873 15.8169 23.1216 15.323 23.131H15.213C14.3201 22.998 13.4605 22.6966 12.68 22.243C12.135 21.998 11.835 21.824 11.341 22.051C10.345 22.5083 9.73233 22.7867 9.503 22.886C9.16288 23.0312 8.79945 23.1142 8.43 23.131H8.22C7.61266 23.1011 7.02913 22.8855 6.54824 22.5134C6.06735 22.1412 5.71228 21.6304 5.531 21.05C5.32033 20.4987 5.11267 19.9463 4.908 19.393C4.86189 19.2503 4.78534 19.1194 4.68364 19.0092C4.58194 18.8991 4.45753 18.8123 4.319 18.755C4.093 18.663 3.58133 18.4697 2.784 18.175C2.50577 18.0793 2.23558 17.9616 1.976 17.823C1.54642 17.5787 1.18574 17.2295 0.927629 16.8081C0.669521 16.3866 0.522401 15.9067 0.5 15.413V15.17C0.512894 14.8223 0.588439 14.4798 0.723 14.159C1.00967 13.5303 1.29433 12.901 1.577 12.271C1.6517 12.1114 1.68671 11.9361 1.67905 11.7601C1.67139 11.5841 1.62128 11.4125 1.533 11.26L0.71 9.436C0.582095 9.12308 0.510983 8.78987 0.5 8.452L0.5 8.22C0.52181 7.74074 0.660851 7.27415 0.904934 6.86113C1.14902 6.4481 1.49069 6.10126 1.9 5.851C2.13073 5.71611 2.37384 5.60359 2.626 5.515L4.1 4.955C4.2688 4.91288 4.4259 4.83318 4.55958 4.72184C4.69326 4.6105 4.80005 4.4704 4.872 4.312C5.08467 3.75667 5.294 3.20133 5.5 2.646C5.59238 2.38698 5.7089 2.13722 5.848 1.9C6.10121 1.4865 6.45295 1.14221 6.87177 0.897895C7.29059 0.653584 7.76343 0.516878 8.248 0.5ZM13.048 3.294C12.6675 3.46849 12.2544 3.56056 11.8357 3.56418C11.4171 3.5678 11.0025 3.48288 10.619 3.315C9.99567 3.03167 9.37067 2.75267 8.744 2.478C8.5412 2.38898 8.31519 2.36736 8.09919 2.41632C7.88319 2.46528 7.6886 2.58224 7.544 2.75C7.42427 2.91769 7.33117 3.10288 7.268 3.299L6.758 4.648C6.66062 4.92476 6.53915 5.19246 6.395 5.448C6.01936 6.04784 5.44491 6.49664 4.772 6.716C4.28533 6.904 3.79733 7.08833 3.308 7.269C3.12099 7.32927 2.94379 7.41652 2.782 7.528C2.5903 7.68168 2.45837 7.89756 2.40907 8.13826C2.35976 8.37896 2.39617 8.62932 2.512 8.846C2.73133 9.32933 2.95 9.81267 3.168 10.296C3.29592 10.5613 3.40129 10.837 3.483 11.12C3.64988 11.8421 3.54933 12.6003 3.2 13.254C2.98667 13.7313 2.77167 14.208 2.555 14.684C2.47229 14.821 2.4193 14.9739 2.39949 15.1328C2.37968 15.2916 2.39348 15.4528 2.44 15.606C2.48701 15.7552 2.56801 15.8915 2.67664 16.0042C2.78527 16.1168 2.91855 16.2026 3.066 16.255C3.574 16.451 4.083 16.6457 4.593 16.839C4.87083 16.9385 5.14062 17.0592 5.4 17.2C6.04278 17.5888 6.51928 18.2013 6.738 18.92C6.93467 19.4373 7.13067 19.955 7.326 20.473C7.3936 20.7167 7.5473 20.9277 7.75859 21.0667C7.96988 21.2057 8.22442 21.2634 8.475 21.229C8.64499 21.2006 8.80979 21.147 8.964 21.07L10.242 20.488C10.9214 20.1032 11.7181 19.9802 12.482 20.142C12.7657 20.2214 13.0418 20.3258 13.307 20.454L14.742 21.101C14.8859 21.1729 15.0406 21.2205 15.2 21.242C15.4257 21.2596 15.651 21.2031 15.8418 21.0811C16.0325 20.9591 16.1783 20.7783 16.257 20.566C16.499 19.9393 16.738 19.3113 16.974 18.682C17.1391 18.2585 17.3982 17.878 17.7318 17.5693C18.0655 17.2606 18.4649 17.0317 18.9 16.9C19.7447 16.5747 20.2557 16.382 20.433 16.322C20.5838 16.2843 20.7246 16.2143 20.8456 16.1167C20.9666 16.0191 21.0649 15.8963 21.1336 15.7569C21.2023 15.6174 21.2398 15.4647 21.2435 15.3093C21.2472 15.1539 21.217 14.9995 21.155 14.857C20.9157 14.3323 20.6777 13.807 20.441 13.281C20.0942 12.6365 19.9879 11.8897 20.141 11.174C20.2179 10.8899 20.3206 10.6134 20.448 10.348C20.7927 9.57933 21.0147 9.09 21.114 8.88C21.1879 8.74711 21.2325 8.59999 21.245 8.44846C21.2575 8.29693 21.2376 8.14447 21.1865 8.00128C21.1353 7.85808 21.0543 7.72743 20.9487 7.61805C20.8431 7.50868 20.7153 7.42309 20.574 7.367L19.045 6.792C18.7668 6.69446 18.4964 6.57612 18.236 6.438C17.5843 6.0476 17.1021 5.4277 16.884 4.7C16.696 4.208 16.5097 3.71567 16.325 3.223C16.2713 3.05978 16.1931 2.90569 16.093 2.766C15.9454 2.58761 15.743 2.4631 15.5172 2.4119C15.2914 2.3607 15.0551 2.3857 14.845 2.483L13.048 3.294Z" fill="black"/>
<path d="M8.98356 10.8675C10.023 10.8675 10.8656 10.0249 10.8656 8.98552C10.8656 7.94612 10.023 7.10352 8.98356 7.10352C7.94416 7.10352 7.10156 7.94612 7.10156 8.98552C7.10156 10.0249 7.94416 10.8675 8.98356 10.8675Z" fill="black"/>
<path d="M15.3943 8.61441C15.707 8.19793 15.6231 7.60695 15.2068 7.29441C14.7906 6.98188 14.1996 7.06614 13.8869 7.48262L8.23337 15.0124C7.92067 15.4289 8.00462 16.0199 8.42088 16.3324C8.83714 16.645 9.42808 16.5607 9.74078 16.1442L15.3943 8.61441Z" fill="black"/>
<path d="M14.6437 16.5238C15.6831 16.5238 16.5257 15.6812 16.5257 14.6418C16.5257 13.6024 15.6831 12.7598 14.6437 12.7598C13.6043 12.7598 12.7617 13.6024 12.7617 14.6418C12.7617 15.6812 13.6043 16.5238 14.6437 16.5238Z" fill="black"/>
</g>
<defs>
<clipPath id="clip0_86_3600">
<rect width="22.628" height="22.627" fill="white" transform="translate(0.5 0.5)"/>
</clipPath>
</defs>
</svg>
