<svg width="136" height="38" viewBox="0 0 136 38" fill="none" xmlns="http://www.w3.org/2000/svg">
<g clip-path="url(#clip0_86_2)">
<path d="M135.02 2.09V0.5H121.73L13.01 0.600006V0.800018C13.02 0.91647 13.02 1.03354 13.01 1.14999C12.9872 1.60771 12.8744 2.05647 12.6781 2.47058C12.4818 2.88469 12.2058 3.25605 11.8659 3.56345C11.526 3.87084 11.1289 4.10825 10.6972 4.26208C10.2655 4.41592 9.80771 4.48316 9.35001 4.45999C8.89177 4.4387 8.44226 4.32693 8.02744 4.1311C7.61261 3.93527 7.24067 3.65926 6.93301 3.319C6.62532 2.97881 6.38801 2.58111 6.23474 2.14877C6.08148 1.71644 6.01529 1.25805 6.04001 0.800018V0.600006H0.5V37.4H6.03V36.94C6.07913 36.0149 6.49303 35.147 7.18097 34.5266C7.86891 33.9061 8.77477 33.5837 9.70001 33.63C10.6251 33.6791 11.493 34.093 12.1134 34.781C12.7339 35.4689 13.0563 36.3748 13.01 37.3V37.4L121.73 37.3H135.02V35.71C134.462 35.6767 133.935 35.4393 133.54 35.0428C133.146 34.6463 132.911 34.1185 132.88 33.56C132.847 32.9583 133.054 32.368 133.455 31.9182C133.856 31.4685 134.418 31.1958 135.02 31.16V29.89C134.463 29.8589 133.936 29.6235 133.541 29.2287C133.147 28.8339 132.911 28.3074 132.88 27.75C132.863 27.4519 132.905 27.1533 133.003 26.8713C133.101 26.5893 133.254 26.3295 133.453 26.1066C133.651 25.8837 133.892 25.7022 134.161 25.5724C134.43 25.4425 134.722 25.367 135.02 25.35V24.08C134.462 24.0467 133.935 23.8092 133.54 23.4128C133.146 23.0163 132.911 22.4885 132.88 21.93C132.847 21.3283 133.054 20.738 133.455 20.2882C133.856 19.8385 134.418 19.5658 135.02 19.53V18.26C134.463 18.2289 133.936 17.9934 133.541 17.5987C133.147 17.2039 132.911 16.6774 132.88 16.12C132.863 15.8219 132.905 15.5233 133.003 15.2413C133.101 14.9594 133.254 14.6995 133.453 14.4766C133.651 14.2537 133.892 14.0722 134.161 13.9424C134.43 13.8125 134.722 13.737 135.02 13.72V12.45C134.462 12.4167 133.935 12.1792 133.54 11.7828C133.146 11.3863 132.911 10.8586 132.88 10.3C132.847 9.69833 133.054 9.108 133.455 8.65823C133.856 8.20847 134.418 7.93584 135.02 7.89999V6.63C134.463 6.5989 133.936 6.36344 133.541 5.96866C133.147 5.57387 132.911 5.04746 132.88 4.49002C132.863 4.1919 132.905 3.89331 133.003 3.61133C133.101 3.32935 133.254 3.06947 133.453 2.84659C133.651 2.62371 133.892 2.44217 134.161 2.31235C134.43 2.18253 134.722 2.10698 135.02 2.09ZM3 8.39999C3 8.26739 3.05269 8.14022 3.14645 8.04645C3.24022 7.95268 3.36739 7.89999 3.5 7.89999C3.63261 7.89999 3.75978 7.95268 3.85355 8.04645C3.94731 8.14022 4 8.26739 4 8.39999V14.4C3.99794 14.532 3.94461 14.658 3.85129 14.7513C3.75796 14.8446 3.63197 14.8979 3.5 14.9C3.36739 14.9 3.24022 14.8473 3.14645 14.7536C3.05269 14.6598 3 14.5326 3 14.4V8.39999ZM3 18.4C3 18.2674 3.05269 18.1402 3.14645 18.0464C3.24022 17.9527 3.36739 17.9 3.5 17.9C3.63261 17.9 3.75978 17.9527 3.85355 18.0464C3.94731 18.1402 4 18.2674 4 18.4V24.4C3.99794 24.532 3.94461 24.658 3.85129 24.7513C3.75796 24.8446 3.63197 24.8979 3.5 24.9C3.36739 24.9 3.24022 24.8473 3.14645 24.7536C3.05269 24.6598 3 24.5326 3 24.4V18.4ZM5.23001 32.94C4.75148 33.4247 4.36216 33.9901 4.07999 34.61L3.62 34.9H3.5L3 34.4V28.4C3 28.2674 3.05269 28.1402 3.14645 28.0464C3.24022 27.9527 3.36739 27.9 3.5 27.9C3.63261 27.9 3.75978 27.9527 3.85355 28.0464C3.94731 28.1402 4 28.2674 4 28.4V32.83C4.15919 32.6243 4.32945 32.4273 4.51001 32.24C4.55583 32.1925 4.61062 32.1545 4.6712 32.1282C4.73179 32.1019 4.79698 32.0879 4.86301 32.087C4.92901 32.0861 4.99451 32.0983 5.05579 32.1228C5.11706 32.1473 5.17288 32.1838 5.22 32.23C5.26755 32.2758 5.30556 32.3306 5.33182 32.3912C5.35808 32.4518 5.37209 32.517 5.37302 32.583C5.37392 32.649 5.36173 32.7145 5.33719 32.7758C5.31265 32.8371 5.27623 32.8929 5.23001 32.94ZM7.66 7.22C7.62274 7.31429 7.55802 7.39521 7.47421 7.45227C7.39041 7.50933 7.29139 7.53989 7.19 7.54001C7.12768 7.54118 7.06598 7.52746 7.01001 7.5C5.66223 6.97954 4.50917 6.05363 3.70999 4.85001C3.63384 4.88058 3.55153 4.89261 3.46982 4.88513C3.3881 4.87766 3.30933 4.85089 3.23999 4.80701C3.17058 4.76306 3.11262 4.70324 3.07089 4.63248C3.02916 4.56171 3.00486 4.48201 3 4.39999V3.60001L3.5 3.10001L4.04001 3.39999C4.68971 4.85362 5.88616 5.99261 7.37 6.57001C7.43198 6.59322 7.48872 6.62851 7.53696 6.67383C7.58519 6.71915 7.62397 6.7736 7.651 6.83401C7.67801 6.89455 7.69273 6.95983 7.69427 7.02609C7.69582 7.09236 7.68416 7.15828 7.66 7.22ZM14.27 32.67C14.2234 32.7217 14.1663 32.7627 14.1024 32.7903C14.0386 32.8179 13.9695 32.8314 13.9 32.83C13.8391 32.8313 13.7786 32.8204 13.722 32.7981C13.6653 32.7758 13.6137 32.7424 13.57 32.7C12.5432 31.7539 11.2149 31.2013 9.82001 31.14C9.35473 31.1095 8.88744 31.1397 8.42999 31.23C8.29884 31.2515 8.1645 31.2206 8.05597 31.1439C7.94744 31.0671 7.87347 30.9508 7.85001 30.82C7.82663 30.6901 7.85555 30.5562 7.93048 30.4476C8.00541 30.3389 8.12027 30.2643 8.25 30.24C8.78795 30.1464 9.33464 30.1128 9.88 30.14C11.5027 30.2127 13.0472 30.8574 14.24 31.96C14.2889 32.0045 14.3285 32.0583 14.3564 32.1182C14.3844 32.1781 14.4003 32.243 14.403 32.309C14.4058 32.375 14.3954 32.4408 14.3726 32.5028C14.3498 32.5648 14.3149 32.6216 14.27 32.67ZM15.81 4.04001C15.3619 4.95138 14.7227 5.75544 13.9358 6.3974C13.1488 7.03936 12.2328 7.50411 11.25 7.76001C11.2072 7.7683 11.1636 7.77167 11.12 7.77002C11.0092 7.76882 10.9019 7.73083 10.815 7.66205C10.7282 7.59327 10.6666 7.49759 10.64 7.39001C10.6233 7.32698 10.6193 7.26121 10.6284 7.19662C10.6375 7.13204 10.6595 7.06996 10.693 7.01401C10.7266 6.95804 10.7711 6.90936 10.8238 6.87088C10.8765 6.8324 10.9364 6.80491 11 6.79001C11.88 6.56212 12.6973 6.13906 13.3915 5.55222C14.0857 4.96537 14.6389 4.22977 15.01 3.39999L15.47 3.10001H15.58C15.7126 3.10001 15.8398 3.15269 15.9336 3.24646C16.0273 3.34023 16.08 3.4674 16.08 3.60001C16.0799 3.69111 16.0547 3.78044 16.007 3.85809C15.9594 3.93575 15.8912 3.9987 15.81 4.04001ZM22.84 34.89H16.84C16.7074 34.89 16.5802 34.8373 16.4865 34.7436C16.3927 34.6498 16.34 34.5226 16.34 34.39C16.34 34.2574 16.3927 34.1302 16.4865 34.0364C16.5802 33.9427 16.7074 33.89 16.84 33.89H22.84C22.9726 33.89 23.0998 33.9427 23.1935 34.0364C23.2873 34.1302 23.34 34.2574 23.34 34.39C23.34 34.5226 23.2873 34.6498 23.1935 34.7436C23.0998 34.8373 22.9726 34.89 22.84 34.89ZM25.58 4.09H19.58C19.4474 4.09 19.3202 4.03734 19.2264 3.94357C19.1327 3.8498 19.08 3.7226 19.08 3.59C19.08 3.45739 19.1327 3.33022 19.2264 3.23645C19.3202 3.14268 19.4474 3.09 19.58 3.09H25.58C25.7126 3.09 25.8398 3.14268 25.9336 3.23645C26.0273 3.33022 26.08 3.45739 26.08 3.59C26.0779 3.72196 26.0246 3.84796 25.9313 3.94128C25.8379 4.03461 25.712 4.08793 25.58 4.09ZM32.84 34.88H26.84C26.7074 34.88 26.5802 34.8273 26.4865 34.7336C26.3927 34.6398 26.34 34.5126 26.34 34.38C26.34 34.2474 26.3927 34.1202 26.4865 34.0265C26.5802 33.9327 26.7074 33.88 26.84 33.88H32.84C32.9726 33.88 33.0998 33.9327 33.1935 34.0265C33.2873 34.1202 33.34 34.2474 33.34 34.38C33.34 34.5126 33.2873 34.6398 33.1935 34.7336C33.0998 34.8273 32.9726 34.88 32.84 34.88ZM35.58 4.08002H29.58C29.4474 4.08002 29.3202 4.02733 29.2264 3.93356C29.1327 3.8398 29.08 3.71263 29.08 3.58002C29.08 3.44741 29.1327 3.32021 29.2264 3.22644C29.3202 3.13267 29.4474 3.08002 29.58 3.08002H35.58C35.7126 3.08002 35.8398 3.13267 35.9336 3.22644C36.0273 3.32021 36.08 3.44741 36.08 3.58002C36.0779 3.71198 36.0246 3.83795 35.9313 3.93127C35.8379 4.0246 35.712 4.07795 35.58 4.08002ZM42.84 34.87L36.84 34.88C36.708 34.8779 36.5821 34.8246 36.4887 34.7313C36.3954 34.638 36.3421 34.512 36.34 34.38C36.34 34.2474 36.3927 34.1202 36.4865 34.0265C36.5802 33.9327 36.7074 33.88 36.84 33.88L42.84 33.87C42.9726 33.87 43.0998 33.9227 43.1935 34.0164C43.2873 34.1102 43.34 34.2374 43.34 34.37C43.34 34.5026 43.2873 34.6298 43.1935 34.7236C43.0998 34.8173 42.9726 34.87 42.84 34.87ZM45.58 4.07001L39.58 4.08002C39.4474 4.08002 39.3202 4.02733 39.2264 3.93356C39.1327 3.8398 39.08 3.71263 39.08 3.58002C39.08 3.44741 39.1327 3.32021 39.2264 3.22644C39.3202 3.13267 39.4474 3.08002 39.58 3.08002L45.58 3.07001C45.7126 3.07001 45.8398 3.12269 45.9336 3.21646C46.0273 3.31023 46.08 3.4374 46.08 3.57001C46.08 3.70262 46.0273 3.82979 45.9336 3.92355C45.8398 4.01732 45.7126 4.07001 45.58 4.07001ZM52.84 34.86L46.84 34.87C46.708 34.8679 46.5821 34.8146 46.4887 34.7213C46.3954 34.628 46.3421 34.502 46.34 34.37C46.34 34.2374 46.3927 34.1102 46.4865 34.0164C46.5802 33.9227 46.7074 33.87 46.84 33.87L52.84 33.86C52.9726 33.86 53.0998 33.9127 53.1935 34.0064C53.2873 34.1002 53.34 34.2274 53.34 34.36C53.34 34.4926 53.2873 34.6198 53.1935 34.7136C53.0998 34.8073 52.9726 34.86 52.84 34.86ZM55.58 4.06L49.58 4.07001C49.4474 4.07001 49.3202 4.01732 49.2264 3.92355C49.1327 3.82979 49.08 3.70262 49.08 3.57001C49.08 3.4374 49.1327 3.31023 49.2264 3.21646C49.3202 3.12269 49.4474 3.07001 49.58 3.07001L55.58 3.06C55.7126 3.06 55.8398 3.11268 55.9336 3.20645C56.0273 3.30022 56.08 3.42739 56.08 3.56C56.08 3.69261 56.0273 3.81981 55.9336 3.91357C55.8398 4.00734 55.7126 4.06 55.58 4.06ZM62.84 34.85L56.84 34.86C56.708 34.858 56.5821 34.8046 56.4887 34.7113C56.3954 34.6179 56.3421 34.492 56.34 34.36C56.34 34.2274 56.3927 34.1002 56.4865 34.0064C56.5802 33.9127 56.7074 33.86 56.84 33.86L62.84 33.85C62.9726 33.85 63.0998 33.9027 63.1936 33.9965C63.2873 34.0902 63.34 34.2174 63.34 34.35C63.34 34.4826 63.2873 34.6098 63.1936 34.7036C63.0998 34.7973 62.9726 34.85 62.84 34.85ZM65.58 4.05002L59.58 4.06C59.4474 4.06 59.3202 4.00734 59.2264 3.91357C59.1327 3.81981 59.08 3.69261 59.08 3.56C59.08 3.42739 59.1327 3.30022 59.2264 3.20645C59.3202 3.11268 59.4474 3.06 59.58 3.06L65.58 3.05002C65.712 3.05208 65.8379 3.10541 65.9313 3.19873C66.0246 3.29206 66.0779 3.41805 66.08 3.55002C66.08 3.68263 66.0273 3.8098 65.9335 3.90356C65.8398 3.99733 65.7126 4.05002 65.58 4.05002ZM72.84 34.84L66.84 34.85C66.708 34.8479 66.582 34.7946 66.4887 34.7013C66.3954 34.6079 66.3421 34.482 66.34 34.35C66.34 34.2174 66.3927 34.0902 66.4865 33.9965C66.5802 33.9027 66.7074 33.85 66.84 33.85L72.84 33.84C72.9726 33.84 73.0998 33.8927 73.1936 33.9865C73.2873 34.0802 73.34 34.2074 73.34 34.34C73.34 34.4726 73.2873 34.5998 73.1936 34.6936C73.0998 34.7873 72.9726 34.84 72.84 34.84ZM75.58 4.04001L69.58 4.05002C69.4474 4.05002 69.3202 3.99733 69.2264 3.90356C69.1327 3.8098 69.08 3.68263 69.08 3.55002C69.08 3.41741 69.1327 3.29021 69.2264 3.19644C69.3202 3.10267 69.4474 3.05002 69.58 3.05002L75.58 3.04001C75.712 3.04207 75.8379 3.0954 75.9313 3.18872C76.0246 3.28205 76.0779 3.40804 76.08 3.54001C76.08 3.67262 76.0273 3.79979 75.9335 3.89355C75.8398 3.98732 75.7126 4.04001 75.58 4.04001ZM82.84 34.83L76.84 34.84C76.7074 34.84 76.5802 34.7873 76.4865 34.6936C76.3927 34.5998 76.34 34.4726 76.34 34.34C76.34 34.2074 76.3927 34.0802 76.4865 33.9865C76.5802 33.8927 76.7074 33.84 76.84 33.84L82.84 33.83C82.9726 33.83 83.0998 33.8827 83.1936 33.9764C83.2873 34.0702 83.34 34.1974 83.34 34.33C83.34 34.4626 83.2873 34.5898 83.1936 34.6836C83.0998 34.7773 82.9726 34.83 82.84 34.83ZM85.58 4.03L79.58 4.04001C79.4474 4.04001 79.3202 3.98732 79.2264 3.89355C79.1327 3.79979 79.08 3.67262 79.08 3.54001C79.08 3.4074 79.1327 3.28023 79.2264 3.18646C79.3202 3.09269 79.4474 3.04001 79.58 3.04001L85.58 3.03C85.712 3.03206 85.8379 3.08542 85.9313 3.17874C86.0246 3.27207 86.0779 3.39803 86.08 3.53C86.08 3.66261 86.0273 3.78978 85.9335 3.88354C85.8398 3.97731 85.7126 4.03 85.58 4.03ZM92.84 34.82L86.84 34.83C86.7074 34.83 86.5802 34.7773 86.4865 34.6836C86.3927 34.5898 86.34 34.4626 86.34 34.33C86.34 34.1974 86.3927 34.0702 86.4865 33.9764C86.5802 33.8827 86.7074 33.83 86.84 33.83L92.84 33.82C92.9726 33.82 93.0998 33.8727 93.1936 33.9665C93.2873 34.0602 93.34 34.1874 93.34 34.32C93.34 34.4526 93.2873 34.5798 93.1936 34.6736C93.0998 34.7673 92.9726 34.82 92.84 34.82ZM95.58 4.02002L89.58 4.03C89.4474 4.03 89.3202 3.97731 89.2264 3.88354C89.1327 3.78978 89.08 3.66261 89.08 3.53C89.08 3.39739 89.1327 3.27022 89.2264 3.17645C89.3202 3.08268 89.4474 3.03 89.58 3.03L95.58 3.02002C95.712 3.02208 95.8379 3.07541 95.9313 3.16873C96.0246 3.26206 96.0779 3.38805 96.08 3.52002C96.08 3.65263 96.0273 3.7798 95.9335 3.87357C95.8398 3.96733 95.7126 4.02002 95.58 4.02002ZM102.84 34.81L96.84 34.82C96.7074 34.82 96.5802 34.7673 96.4865 34.6736C96.3927 34.5798 96.34 34.4526 96.34 34.32C96.34 34.1874 96.3927 34.0602 96.4865 33.9665C96.5802 33.8727 96.7074 33.82 96.84 33.82L102.84 33.81C102.973 33.81 103.1 33.8627 103.194 33.9565C103.287 34.0502 103.34 34.1774 103.34 34.31C103.34 34.4426 103.287 34.5698 103.194 34.6636C103.1 34.7573 102.973 34.81 102.84 34.81ZM105.58 4.01001L99.58 4.02002C99.4474 4.02002 99.3202 3.96733 99.2264 3.87357C99.1327 3.7798 99.08 3.65263 99.08 3.52002C99.08 3.38741 99.1327 3.26021 99.2264 3.16644C99.3202 3.07267 99.4474 3.02002 99.58 3.02002L105.58 3.01001C105.712 3.01207 105.838 3.0654 105.931 3.15872C106.025 3.25205 106.078 3.37804 106.08 3.51001C106.08 3.64262 106.027 3.76979 105.934 3.86356C105.84 3.95732 105.713 4.01001 105.58 4.01001ZM112.84 34.81H106.84C106.707 34.81 106.58 34.7573 106.486 34.6636C106.393 34.5698 106.34 34.4426 106.34 34.31C106.34 34.1774 106.393 34.0502 106.486 33.9565C106.58 33.8627 106.707 33.81 106.84 33.81H112.84C112.905 33.8091 112.97 33.8211 113.03 33.8453C113.091 33.8695 113.146 33.9054 113.192 33.951C113.238 33.9965 113.275 34.0508 113.301 34.1107C113.326 34.1706 113.34 34.235 113.34 34.3C113.341 34.3665 113.329 34.4326 113.305 34.4944C113.28 34.5562 113.244 34.6125 113.197 34.66C113.15 34.7075 113.095 34.7452 113.034 34.771C112.972 34.7967 112.906 34.81 112.84 34.81ZM115.58 4.01001H109.58C109.447 4.01001 109.32 3.95732 109.226 3.86356C109.133 3.76979 109.08 3.64262 109.08 3.51001C109.08 3.3774 109.133 3.25023 109.226 3.15646C109.32 3.0627 109.447 3.01001 109.58 3.01001H115.58C115.713 3.01001 115.84 3.0627 115.934 3.15646C116.027 3.25023 116.08 3.3774 116.08 3.51001C116.078 3.64197 116.025 3.76794 115.931 3.86127C115.838 3.95459 115.712 4.00795 115.58 4.01001ZM122.84 34.8H116.84C116.707 34.8 116.58 34.7473 116.486 34.6536C116.393 34.5598 116.34 34.4326 116.34 34.3C116.34 34.1674 116.393 34.0402 116.486 33.9464C116.58 33.8527 116.707 33.8 116.84 33.8H122.84C122.973 33.8 123.1 33.8527 123.194 33.9464C123.287 34.0402 123.34 34.1674 123.34 34.3C123.34 34.4326 123.287 34.5598 123.194 34.6536C123.1 34.7473 122.973 34.8 122.84 34.8ZM125.58 4H119.58C119.447 4 119.32 3.94731 119.226 3.85355C119.133 3.75978 119.08 3.63261 119.08 3.5C119.08 3.36739 119.133 3.24022 119.226 3.14645C119.32 3.05269 119.447 3 119.58 3H125.58C125.713 3 125.84 3.05269 125.934 3.14645C126.027 3.24022 126.08 3.36739 126.08 3.5C126.08 3.63261 126.027 3.75978 125.934 3.85355C125.84 3.94731 125.713 4 125.58 4ZM130.72 31.64C130.492 32.2091 130.377 32.817 130.38 33.43V33.7C130.39 33.8711 130.41 34.0414 130.44 34.21L129.95 34.8H126.84C126.707 34.8 126.58 34.7473 126.486 34.6536C126.393 34.5598 126.34 34.4326 126.34 34.3C126.34 34.1674 126.393 34.0402 126.486 33.9464C126.58 33.8527 126.707 33.8 126.84 33.8H129.39C129.39 33.78 129.39 33.77 129.38 33.76V33.43C129.378 32.6895 129.521 31.9558 129.8 31.27C129.824 31.2089 129.86 31.1531 129.906 31.1059C129.952 31.0587 130.007 31.021 130.067 30.995C130.127 30.969 130.192 30.9552 130.258 30.9544C130.324 30.9535 130.389 30.9656 130.45 30.99C130.511 31.0143 130.566 31.0505 130.613 31.0965C130.66 31.1426 130.697 31.1975 130.722 31.258C130.747 31.3185 130.761 31.3834 130.761 31.449C130.761 31.5146 130.747 31.5796 130.722 31.64H130.72ZM131.16 24.99C130.651 25.7689 130.38 26.6794 130.38 27.61V27.74L129.38 27.76V27.61C129.375 26.5909 129.645 25.5892 130.16 24.71C129.698 23.9246 129.43 23.0399 129.38 22.13L130.38 22.1C130.433 22.9344 130.702 23.7407 131.16 24.44V24.99ZM131.16 13.36C130.651 14.1389 130.38 15.0494 130.38 15.98V16.26C130.42 16.9106 130.59 17.5465 130.88 18.13C130.939 18.2481 130.949 18.3849 130.908 18.5104C130.867 18.636 130.778 18.7401 130.66 18.8C130.589 18.8355 130.51 18.8527 130.43 18.85C130.338 18.8496 130.247 18.8243 130.168 18.7768C130.089 18.7293 130.024 18.6613 129.98 18.58C129.631 17.8709 129.427 17.0991 129.38 16.31V15.98C129.375 14.9609 129.645 13.9593 130.16 13.08C130.13 13.03 130.1 12.97 130.07 12.92C130.037 12.8626 130.016 12.7991 130.008 12.7332C130 12.6674 130.005 12.6006 130.024 12.537C130.042 12.4729 130.074 12.4132 130.116 12.3616C130.158 12.31 130.211 12.2676 130.27 12.237C130.386 12.1762 130.521 12.163 130.646 12.2004C130.771 12.2378 130.877 12.3227 130.94 12.437C131.01 12.567 131.09 12.687 131.16 12.807V13.36ZM131.17 7.55002C130.882 7.97031 130.669 8.43715 130.54 8.92999C130.512 9.03571 130.449 9.12917 130.362 9.19601C130.276 9.26285 130.169 9.2994 130.06 9.30002C130.016 9.29904 129.972 9.29229 129.93 9.28C129.866 9.26376 129.806 9.23509 129.754 9.19562C129.701 9.15615 129.657 9.10668 129.623 9.05002C129.59 8.99329 129.568 8.93051 129.559 8.8653C129.55 8.80008 129.553 8.73372 129.57 8.67001C129.706 8.18002 129.904 7.70951 130.16 7.27002C129.696 6.48156 129.429 5.59331 129.38 4.67999C129.38 4.56999 129.37 4.46001 129.37 4.35001C129.37 4.22001 129.38 4.08999 129.39 3.95999C129.298 3.92327 129.219 3.85978 129.164 3.77774C129.109 3.6957 129.08 3.59893 129.08 3.5C129.08 3.36739 129.133 3.24022 129.226 3.14645C129.32 3.05269 129.447 3 129.58 3H129.94L130.44 3.58002C130.397 3.83455 130.374 4.09194 130.37 4.35001C130.37 4.44001 130.38 4.53 130.38 4.62C130.429 5.46915 130.701 6.29031 131.17 7V7.55002Z" fill="#ECF2F7"/>
</g>
<defs>
<clipPath id="clip0_86_2">
<rect width="134.52" height="36.9" fill="white" transform="translate(0.5 0.5)"/>
</clipPath>
</defs>
</svg>
