<svg width="52" height="51" viewBox="0 0 52 51" fill="none" xmlns="http://www.w3.org/2000/svg">
<g clip-path="url(#clip0_86_284)">
<path d="M43.6948 2.75298C43.718 2.44988 43.6749 2.14542 43.5686 1.86065C43.4622 1.57588 43.2951 1.31769 43.0788 1.10406C42.8629 0.889583 42.6027 0.724774 42.3165 0.621149C42.0304 0.517523 41.725 0.477598 41.4218 0.504083H2.84877C2.54113 0.477298 2.23138 0.518045 1.94118 0.62359C1.65097 0.729135 1.38733 0.896887 1.16878 1.11505C0.950159 1.33318 0.781923 1.59648 0.675856 1.88653C0.569788 2.17657 0.528443 2.48629 0.554762 2.794V4.14007C0.561762 4.89507 0.567771 5.675 0.538771 6.44C0.429621 7.03163 0.552972 7.64259 0.88307 8.14556C1.21317 8.64853 1.72459 9.0048 2.3108 9.14007L2.51979 9.20306V36.2031C2.46027 36.9558 2.68044 37.7042 3.1382 38.3047C3.59596 38.9053 4.25917 39.3159 5.00081 39.4581C5.52703 39.5934 6.06842 39.6606 6.61177 39.658C9.57077 39.667 12.5118 39.668 14.7518 39.668H21.5638C21.9668 39.7088 22.3703 39.5951 22.6928 39.35C22.7646 39.2711 22.8194 39.1783 22.8538 39.0773C22.8882 38.9763 22.9015 38.8693 22.8928 38.763C22.8868 38.363 22.7308 37.9011 21.5758 37.9011H6.80379C6.57079 37.9011 6.30379 37.9011 6.04579 37.8791C4.75279 37.7671 4.29378 37.2701 4.29378 35.9791V9.20306H16.3838V23.943C16.3529 24.1422 16.3892 24.3458 16.487 24.522C16.5848 24.6982 16.7385 24.8369 16.9238 24.9161C17.0348 24.965 17.1544 24.9915 17.2758 24.9941C17.4145 24.9841 17.5498 24.9465 17.6738 24.8835C17.7978 24.8205 17.908 24.7332 17.9978 24.627C18.9371 23.7023 19.8798 22.7814 20.8258 21.8641L21.4748 21.2341C21.5748 21.1341 21.6748 21.0451 21.7748 20.9481L21.9238 20.8121L22.1238 20.6251L22.4788 20.955C22.5788 21.049 22.6708 21.133 22.7608 21.22L24.3128 22.7341L26.3128 24.6871C26.3947 24.7789 26.4941 24.8535 26.6052 24.9064C26.7163 24.9593 26.8369 24.9894 26.9598 24.9951C27.0782 24.9931 27.195 24.968 27.3038 24.9211C27.4852 24.8569 27.6394 24.7327 27.7407 24.569C27.842 24.4054 27.8843 24.2121 27.8608 24.0211C27.8608 23.9071 27.8608 23.7941 27.8608 23.6821V9.18206H39.9418V20.368C39.934 20.6005 39.9541 20.8333 40.0018 21.0611C40.0431 21.2468 40.1492 21.4118 40.3012 21.5263C40.4531 21.6408 40.6408 21.6975 40.8308 21.6861H40.8518C41.0448 21.6896 41.233 21.6247 41.3827 21.5027C41.5324 21.3808 41.6342 21.2098 41.6698 21.0201C41.7078 20.8049 41.7242 20.5864 41.7188 20.368V9.83502C41.6904 9.65866 41.7261 9.47801 41.8195 9.32574C41.9129 9.17347 42.0577 9.0597 42.2278 9.00506C42.6778 8.86999 43.0676 8.58433 43.3319 8.19598C43.5963 7.80763 43.7191 7.34014 43.6798 6.872V5.78509C43.7008 4.80309 43.7038 3.76298 43.6948 2.75298ZM16.3468 7.34405H2.37581V2.294H16.3468V7.34405ZM26.0848 21.825L25.6098 21.461L25.4988 21.378C25.4113 21.3176 25.3284 21.2508 25.2508 21.178C24.9455 20.8814 24.6411 20.5841 24.3378 20.2861C23.8628 19.8191 23.3708 19.3361 22.8828 18.8691C22.6893 18.6432 22.4166 18.5 22.1208 18.469C21.9754 18.4835 21.8345 18.527 21.7063 18.5971C21.5781 18.6672 21.4654 18.7624 21.3748 18.877C20.7878 19.483 20.2088 20.12 19.6478 20.735C19.4018 21.0064 19.1551 21.276 18.9078 21.544L18.7248 21.7441L18.1958 21.344V2.27801H26.0838L26.0848 21.825ZM41.8928 7.33807H27.9128V2.28802H41.8928V7.33807Z" fill="black"/>
<path d="M38.8554 24.6133H38.8024C35.3821 24.626 32.1056 25.9915 29.6887 28.4116C27.2717 30.8318 25.9105 34.1099 25.9024 37.5303C25.896 40.9573 27.2484 44.2471 29.6632 46.6788C32.078 49.1105 35.3584 50.4858 38.7854 50.5033H38.8294C42.2595 50.4999 45.5487 49.1378 47.977 46.7151C50.4053 44.2924 51.775 41.0064 51.7864 37.5763C51.7806 34.1456 50.4174 30.8566 47.9945 28.4277C45.5717 25.9989 42.286 24.6275 38.8554 24.6133ZM38.8294 48.7533H38.7914C35.8289 48.7374 32.9934 47.5485 30.9056 45.4468C28.8178 43.3451 27.6476 40.5018 27.6514 37.5393C27.6633 34.582 28.8456 31.7498 30.9399 29.6619C33.0342 27.5739 35.8701 26.4002 38.8274 26.3973H38.8464C41.8051 26.405 44.6402 27.5848 46.731 29.6783C48.8217 31.7719 49.9977 34.6085 50.0014 37.5673C49.9977 40.5306 48.8197 43.3718 46.7256 45.4684C44.6314 47.565 41.7927 48.7462 38.8294 48.7533Z" fill="black"/>
<path d="M41.2394 43.2866C40.9085 43.3604 40.5704 43.3969 40.2314 43.3956C39.298 43.403 38.3677 43.406 37.4404 43.4047H34.6464C34.3715 43.4178 34.1024 43.3231 33.8964 43.1406C33.8275 43.0689 33.7737 42.9841 33.7384 42.8911C33.703 42.7982 33.6867 42.699 33.6904 42.5996C33.6904 42.0146 34.1904 41.7996 34.6604 41.7996H37.9894C38.7424 41.7996 39.4974 41.7996 40.2514 41.7936C40.789 41.814 41.3201 41.67 41.7738 41.3807C42.2274 41.0915 42.5821 40.6706 42.7904 40.1746C43.0208 39.6937 43.1071 39.1565 43.0388 38.6277C42.9704 38.0989 42.7505 37.6011 42.4054 37.1946C42.1951 36.905 41.9221 36.6667 41.6068 36.4973C41.2915 36.328 40.942 36.232 40.5844 36.2166C40.1364 36.2016 39.6524 36.1946 39.0614 36.1946C38.7074 36.1946 38.3534 36.1946 37.9984 36.2006C37.6434 36.2066 37.2984 36.2006 36.9424 36.2006C36.8643 36.2005 36.7875 36.2211 36.7199 36.2603C36.6522 36.2994 36.5962 36.3558 36.5574 36.4236L36.5004 36.5236C36.4509 36.6105 36.4324 36.7116 36.4478 36.8104C36.4633 36.9092 36.5117 36.9999 36.5854 37.0676C36.6604 37.1366 36.7374 37.2046 36.8144 37.2676C36.9696 37.3983 37.1178 37.5372 37.2584 37.6836C37.3353 37.7527 37.3967 37.8373 37.4382 37.932C37.4798 38.0267 37.5006 38.1293 37.4994 38.2327C37.4981 38.336 37.4748 38.4378 37.431 38.5315C37.3872 38.6251 37.3239 38.7084 37.2454 38.7756C37.174 38.8573 37.0868 38.9236 36.9889 38.9706C36.8911 39.0175 36.7848 39.044 36.6764 39.0486C36.4716 39.0402 36.2786 38.9511 36.1394 38.8007C35.1454 37.8347 34.1814 36.8746 33.2764 35.9436C33.197 35.8722 33.1337 35.7847 33.0908 35.6869C33.0479 35.5891 33.0263 35.4834 33.0274 35.3766C33.0286 35.2699 33.0525 35.1647 33.0975 35.068C33.1425 34.9713 33.2076 34.8852 33.2884 34.8156C34.2234 33.8606 35.1754 32.9066 36.1194 31.9816C36.1906 31.9043 36.2764 31.8418 36.3718 31.7977C36.4672 31.7536 36.5704 31.7288 36.6754 31.7246C36.7801 31.7286 36.8831 31.7534 36.9782 31.7975C37.0733 31.8416 37.1587 31.9042 37.2294 31.9816C37.311 32.0498 37.3767 32.135 37.4221 32.2312C37.4675 32.3274 37.4915 32.4322 37.4924 32.5386C37.4933 32.6448 37.4712 32.7501 37.4275 32.8469C37.3838 32.9438 37.3197 33.03 37.2394 33.0996C37.1013 33.2428 36.9561 33.3789 36.8044 33.5076C36.7144 33.5856 36.6184 33.6696 36.5164 33.7646C36.4538 33.822 36.4091 33.8961 36.3874 33.9781C36.3658 34.0602 36.3682 34.1469 36.3944 34.2277C36.4211 34.3081 36.4704 34.3791 36.5363 34.4323C36.6023 34.4854 36.6821 34.5185 36.7664 34.5276C36.8384 34.5346 36.8974 34.5436 36.9474 34.5496C37.0371 34.5636 37.1276 34.5717 37.2184 34.5736H40.2394C41.3365 34.5685 42.3959 34.9734 43.2099 35.709C44.0238 36.4445 44.5337 37.4576 44.6394 38.5496C44.7494 39.6171 44.4641 40.6879 43.8375 41.5591C43.2108 42.4303 42.2865 43.0414 41.2394 43.2766V43.2866Z" fill="black"/>
<path d="M41.2394 43.2866C40.9085 43.3604 40.5704 43.3969 40.2314 43.3956C39.298 43.403 38.3677 43.406 37.4404 43.4047H34.6464C34.3715 43.4178 34.1024 43.3231 33.8964 43.1406C33.8275 43.0689 33.7737 42.9841 33.7384 42.8911C33.703 42.7982 33.6867 42.699 33.6904 42.5996C33.6904 42.0146 34.1904 41.7996 34.6604 41.7996H37.9894C38.7424 41.7996 39.4974 41.7996 40.2514 41.7936C40.789 41.814 41.3201 41.67 41.7738 41.3807C42.2274 41.0915 42.5821 40.6706 42.7904 40.1746C43.0208 39.6937 43.1071 39.1565 43.0388 38.6277C42.9704 38.0989 42.7505 37.6011 42.4054 37.1946C42.1951 36.905 41.9221 36.6667 41.6068 36.4973C41.2915 36.328 40.942 36.232 40.5844 36.2166C40.1364 36.2016 39.6524 36.1946 39.0614 36.1946C38.7074 36.1946 38.3534 36.1946 37.9984 36.2006C37.6434 36.2066 37.2984 36.2006 36.9424 36.2006C36.8643 36.2005 36.7875 36.2211 36.7199 36.2603C36.6522 36.2994 36.5962 36.3558 36.5574 36.4236L36.5004 36.5236C36.4509 36.6105 36.4324 36.7116 36.4478 36.8104C36.4633 36.9092 36.5117 36.9999 36.5854 37.0676C36.6604 37.1366 36.7374 37.2046 36.8144 37.2676C36.9696 37.3983 37.1178 37.5372 37.2584 37.6836C37.3353 37.7527 37.3967 37.8373 37.4382 37.932C37.4798 38.0267 37.5006 38.1293 37.4994 38.2327C37.4981 38.336 37.4748 38.4378 37.431 38.5315C37.3872 38.6251 37.3239 38.7084 37.2454 38.7756C37.174 38.8573 37.0868 38.9236 36.9889 38.9706C36.8911 39.0175 36.7848 39.044 36.6764 39.0486C36.4716 39.0402 36.2786 38.9511 36.1394 38.8007C35.1454 37.8347 34.1814 36.8746 33.2764 35.9436C33.197 35.8722 33.1337 35.7847 33.0908 35.6869C33.0479 35.5891 33.0263 35.4834 33.0274 35.3766C33.0286 35.2699 33.0525 35.1647 33.0975 35.068C33.1425 34.9713 33.2076 34.8852 33.2884 34.8156C34.2234 33.8606 35.1754 32.9066 36.1194 31.9816C36.1906 31.9043 36.2764 31.8418 36.3718 31.7977C36.4672 31.7536 36.5704 31.7288 36.6754 31.7246C36.7801 31.7286 36.8831 31.7534 36.9782 31.7975C37.0733 31.8416 37.1587 31.9042 37.2294 31.9816C37.311 32.0498 37.3767 32.135 37.4221 32.2312C37.4675 32.3274 37.4915 32.4322 37.4924 32.5386C37.4933 32.6448 37.4712 32.7501 37.4275 32.8469C37.3838 32.9438 37.3197 33.03 37.2394 33.0996C37.1013 33.2428 36.9561 33.3789 36.8044 33.5076C36.7144 33.5856 36.6184 33.6696 36.5164 33.7646C36.4538 33.822 36.4091 33.8961 36.3874 33.9781C36.3658 34.0602 36.3682 34.1469 36.3944 34.2277C36.4211 34.3081 36.4704 34.3791 36.5363 34.4323C36.6023 34.4854 36.6821 34.5185 36.7664 34.5276C36.8384 34.5346 36.8974 34.5436 36.9474 34.5496C37.0371 34.5636 37.1276 34.5717 37.2184 34.5736H40.2394C41.3365 34.5685 42.3959 34.9734 43.2099 35.709C44.0238 36.4445 44.5337 37.4576 44.6394 38.5496C44.7494 39.6171 44.4641 40.6879 43.8375 41.5591C43.2108 42.4303 42.2865 43.0414 41.2394 43.2766V43.2866Z" fill="black"/>
</g>
<defs>
<clipPath id="clip0_86_284">
<rect width="51.286" height="50.003" fill="white" transform="translate(0.5 0.5)"/>
</clipPath>
</defs>
</svg>
