<svg width="25" height="25" viewBox="0 0 25 25" fill="none" xmlns="http://www.w3.org/2000/svg">
<g clip-path="url(#clip0_86_277)">
<path d="M13.8256 0.5H19.9606C20.1215 0.571632 20.2556 0.692326 20.3438 0.844817C20.432 0.997308 20.4697 1.17378 20.4515 1.349C20.4425 3.791 20.4515 6.234 20.4515 8.676C20.4515 9.014 20.4516 9.014 20.1296 8.902C19.0582 8.5046 17.9183 8.32486 16.7767 8.37328C15.635 8.4217 14.5144 8.69732 13.4806 9.184C11.7292 9.99067 10.2944 11.3548 9.40048 13.0633C8.50653 14.7718 8.2038 16.7283 8.53956 18.627C8.63151 19.1573 8.77381 19.6777 8.96455 20.181C9.02755 20.345 9.00856 20.439 8.80656 20.42H1.36256C0.770561 20.42 0.512555 20.159 0.512555 19.561V1.348C0.493954 1.1741 0.530364 0.998749 0.61665 0.846627C0.702936 0.694505 0.834757 0.573274 0.993557 0.5L7.12855 0.5C7.13455 0.609 7.14555 0.718 7.14555 0.826C7.14555 2.426 7.16555 4.026 7.13955 5.626C7.12855 6.332 7.66256 6.736 8.31456 6.361C8.94256 6 9.60655 5.701 10.2496 5.361C10.3187 5.31938 10.3979 5.29739 10.4786 5.29739C10.5593 5.29739 10.6384 5.31938 10.7076 5.361C11.3786 5.711 12.0545 6.052 12.7295 6.393C12.8825 6.49019 13.0657 6.5279 13.2445 6.499C13.4231 6.46125 13.5806 6.35691 13.685 6.20719C13.7894 6.05747 13.8329 5.87361 13.8066 5.693C13.8066 4.06967 13.8066 2.44633 13.8066 0.823C13.8086 0.718 13.8196 0.609 13.8256 0.5Z" fill="#FF0000"/>
<path d="M24.5031 16.3214V17.9134C24.4801 18.0354 24.4541 18.1574 24.4331 18.2804C24.204 19.7099 23.5602 21.0407 22.5816 22.1075C21.6029 23.1744 20.3325 23.9304 18.9281 24.2818C17.5236 24.6331 16.0469 24.5643 14.6812 24.0839C13.3155 23.6035 12.1209 22.7326 11.2458 21.5793C10.3706 20.426 9.85332 19.0412 9.75817 17.5966C9.66303 16.1519 9.99419 14.7112 10.7105 13.4531C11.4269 12.195 12.4969 11.175 13.7878 10.5196C15.0787 9.86419 16.5337 9.6023 17.9721 9.7664C19.1755 9.88726 20.3293 10.3088 21.3273 10.9922C22.3252 11.6756 23.1353 12.599 23.6831 13.6774C24.1142 14.5018 24.3921 15.3977 24.5031 16.3214ZM16.6381 18.8214C16.0841 18.8214 15.5301 18.8164 14.9761 18.8214C14.8812 18.8119 14.7854 18.8224 14.6948 18.8521C14.6042 18.8818 14.5208 18.9301 14.4499 18.9939C14.379 19.0576 14.3223 19.1355 14.2832 19.2225C14.2442 19.3095 14.2237 19.4037 14.2232 19.499C14.2226 19.5943 14.242 19.6888 14.28 19.7762C14.318 19.8636 14.3739 19.9422 14.444 20.0068C14.5141 20.0714 14.5969 20.1206 14.6872 20.1514C14.7774 20.1822 14.8731 20.1937 14.9681 20.1854C15.2801 20.1934 15.5921 20.1934 15.9041 20.1854C16.7691 20.1674 17.6361 20.2384 18.5041 20.1474C19.0315 20.0897 19.5293 19.8747 19.9329 19.5304C20.3365 19.186 20.6271 18.7282 20.7671 18.2164C20.9149 17.6994 20.9069 17.1503 20.7441 16.6379C20.5814 16.1254 20.2711 15.6723 19.8521 15.3354C19.2778 14.9048 18.5682 14.6944 17.8521 14.7424C17.3761 14.7504 16.9001 14.7424 16.4241 14.7424C16.3731 14.7424 16.3031 14.7624 16.2781 14.7014C16.2531 14.6404 16.3141 14.6014 16.3501 14.5664C16.4501 14.4664 16.5501 14.3664 16.6421 14.2664C16.7573 14.1364 16.8177 13.9668 16.8106 13.7932C16.8035 13.6197 16.7295 13.4556 16.6041 13.3354C16.4822 13.2162 16.3185 13.1494 16.1481 13.1494C15.9776 13.1494 15.8139 13.2162 15.6921 13.3354C15.1374 13.8727 14.5914 14.4191 14.0541 14.9744C13.9336 15.0958 13.8655 15.2596 13.8644 15.4307C13.8633 15.6017 13.9292 15.7664 14.0481 15.8894C14.5907 16.4501 15.1431 17.0011 15.7051 17.5424C15.8295 17.6589 15.9945 17.7221 16.1649 17.7185C16.3353 17.715 16.4976 17.645 16.6171 17.5234C16.7376 17.4038 16.8083 17.243 16.8148 17.0733C16.8213 16.9036 16.7631 16.7378 16.6521 16.6094C16.5721 16.5094 16.4761 16.4324 16.3931 16.3394C16.3441 16.2844 16.2421 16.2394 16.2811 16.1544C16.3121 16.0874 16.4081 16.1174 16.4751 16.1174C17.0521 16.1174 17.6301 16.1124 18.2071 16.1174C18.5524 16.1362 18.8774 16.2866 19.1152 16.5377C19.353 16.7888 19.4856 17.1215 19.4856 17.4674C19.4856 17.8132 19.353 18.1459 19.1152 18.397C18.8774 18.6482 18.5524 18.7986 18.2071 18.8174C17.6831 18.8244 17.1601 18.8174 16.6371 18.8174L16.6381 18.8214Z" fill="#FF0000"/>
<path d="M12.4224 0.5C12.4473 0.873461 12.453 1.24796 12.4394 1.622V4.454C12.4394 4.712 12.4204 4.724 12.1944 4.612C11.7544 4.393 11.3154 4.172 10.8794 3.945C10.7575 3.87565 10.6197 3.83919 10.4794 3.83919C10.3392 3.83919 10.2013 3.87565 10.0794 3.945C9.63044 4.18 9.17943 4.404 8.72343 4.634C8.59743 4.698 8.52344 4.699 8.52344 4.523C8.52744 3.197 8.5301 1.871 8.53143 0.545C8.53302 0.529665 8.53639 0.514564 8.54144 0.5L12.4224 0.5Z" fill="#FF0000"/>
</g>
<defs>
<clipPath id="clip0_86_277">
<rect width="24.001" height="24.004" fill="white" transform="translate(0.5 0.5)"/>
</clipPath>
</defs>
</svg>
