<svg width="21" height="22" viewBox="0 0 21 22" fill="none" xmlns="http://www.w3.org/2000/svg">
<g clip-path="url(#clip0_86_295)">
<path d="M10.5256 0.900391H10.8376C10.9936 1.01339 11.1616 1.11539 11.3066 1.24039C11.6346 1.52539 11.9586 1.81839 12.2756 2.11939C12.375 2.22353 12.5027 2.29614 12.643 2.32815C12.7833 2.36015 12.93 2.35015 13.0646 2.29939C13.5376 2.15139 14.0096 2.01439 14.4826 1.87339C14.5688 1.83649 14.6619 1.81848 14.7556 1.82059C14.8494 1.8227 14.9415 1.84488 15.026 1.88563C15.1104 1.92638 15.1851 1.98475 15.2451 2.05681C15.3051 2.12888 15.3489 2.21296 15.3736 2.30339C15.5606 2.76839 15.7526 3.22939 15.9326 3.69739C15.9766 3.82747 16.057 3.94221 16.1642 4.028C16.2715 4.11378 16.4011 4.16702 16.5376 4.18139C17.0256 4.25539 17.514 4.33339 18.0026 4.41539C18.1007 4.4192 18.1968 4.44431 18.2843 4.48897C18.3717 4.53363 18.4484 4.59677 18.509 4.67402C18.5696 4.75127 18.6127 4.84077 18.6352 4.93633C18.6578 5.03188 18.6593 5.1312 18.6396 5.22739C18.6006 5.71939 18.5736 6.21539 18.5346 6.70739C18.5204 6.84093 18.5444 6.97578 18.6039 7.09618C18.6634 7.21659 18.7559 7.31758 18.8706 7.38739C19.2806 7.66439 19.6826 7.94939 20.0896 8.23139C20.1761 8.27542 20.2519 8.33783 20.3117 8.41426C20.3715 8.49069 20.4138 8.57928 20.4357 8.67381C20.4577 8.76834 20.4586 8.86652 20.4386 8.96146C20.4185 9.0564 20.3779 9.1458 20.3196 9.22339C20.0856 9.64139 19.8546 10.0674 19.6046 10.4774C19.5188 10.6042 19.4729 10.7538 19.4729 10.9069C19.4729 11.06 19.5188 11.2096 19.6046 11.3364C19.8506 11.7504 20.0806 12.1724 20.3156 12.5934C20.3719 12.6704 20.4109 12.7587 20.4301 12.8521C20.4492 12.9456 20.448 13.0421 20.4266 13.135C20.4052 13.228 20.364 13.3153 20.3058 13.3909C20.2477 13.4665 20.174 13.5288 20.0896 13.5734C19.6896 13.8544 19.2896 14.1394 18.8896 14.4054C18.766 14.4778 18.6662 14.5846 18.6025 14.7129C18.5387 14.8411 18.5137 14.9852 18.5306 15.1274C18.5696 15.6274 18.5966 16.1274 18.6356 16.6274C18.648 16.7147 18.6429 16.8035 18.6207 16.8888C18.5985 16.9741 18.5595 17.0542 18.5061 17.1243C18.4528 17.1944 18.386 17.2533 18.3097 17.2974C18.2334 17.3415 18.1491 17.3701 18.0616 17.3814C17.5616 17.4634 17.0616 17.5454 16.5616 17.6194C16.4182 17.6314 16.2815 17.6852 16.1683 17.7741C16.0551 17.8629 15.9704 17.983 15.9246 18.1194C15.7526 18.5684 15.5696 19.0134 15.3896 19.4594C15.3663 19.5589 15.3209 19.6519 15.2567 19.7315C15.1926 19.811 15.1114 19.8751 15.019 19.919C14.9267 19.9629 14.8257 19.9855 14.7235 19.985C14.6213 19.9846 14.5205 19.9611 14.4286 19.9164C13.9796 19.7834 13.5286 19.6584 13.0856 19.5104C12.9417 19.4557 12.7847 19.4455 12.6349 19.4812C12.4851 19.5168 12.3495 19.5967 12.2456 19.7104C11.9256 20.0104 11.5976 20.3104 11.2656 20.6044C11.1366 20.7174 10.9806 20.8044 10.8396 20.9044H10.5276C10.3796 20.7994 10.2276 20.7044 10.0866 20.5924C9.75463 20.3034 9.42663 20.0024 9.10663 19.6984C9.00332 19.589 8.86964 19.513 8.7228 19.4802C8.57596 19.4475 8.42266 19.4593 8.28263 19.5144C7.81763 19.6634 7.34963 19.7954 6.88263 19.9324C6.7965 19.9691 6.7035 19.987 6.60989 19.9848C6.51628 19.9826 6.42422 19.9604 6.33991 19.9196C6.2556 19.8789 6.18099 19.8206 6.12108 19.7486C6.06118 19.6767 6.01738 19.5927 5.99263 19.5024C5.80163 19.0334 5.60963 18.5654 5.42663 18.0924C5.38405 17.9686 5.30707 17.8594 5.2047 17.7778C5.10233 17.6962 4.97882 17.6454 4.84863 17.6314C4.34863 17.5534 3.86063 17.4714 3.36463 17.3934C3.26627 17.3896 3.16992 17.3644 3.08237 17.3194C2.99482 17.2744 2.91818 17.2108 2.85785 17.133C2.79751 17.0552 2.75495 16.9652 2.73314 16.8692C2.71134 16.7732 2.71082 16.6736 2.73163 16.5774C2.77063 16.0934 2.79363 15.6054 2.83163 15.1164C2.84823 14.9771 2.82376 14.8359 2.76122 14.7103C2.69868 14.5847 2.60081 14.4801 2.47963 14.4094C2.06963 14.1364 1.66763 13.8474 1.26063 13.5654C1.17815 13.5209 1.10606 13.4594 1.04915 13.385C0.992238 13.3106 0.951803 13.2249 0.930527 13.1336C0.90925 13.0424 0.907618 12.9476 0.925738 12.8557C0.943858 12.7638 0.981317 12.6767 1.03563 12.6004C1.27763 12.1704 1.51563 11.7374 1.76563 11.3114C1.84395 11.1912 1.88564 11.0508 1.88564 10.9074C1.88564 10.7639 1.84395 10.6236 1.76563 10.5034C1.51563 10.0774 1.27763 9.64439 1.03563 9.21439C0.980606 9.13858 0.942403 9.05189 0.923579 8.96012C0.904754 8.86835 0.905741 8.77362 0.926473 8.68227C0.947206 8.59091 0.987206 8.50504 1.0438 8.43039C1.10039 8.35573 1.17227 8.29403 1.25463 8.24939C1.64563 7.97639 2.02763 7.69439 2.42663 7.44139C2.56893 7.36176 2.68349 7.24055 2.75498 7.094C2.82647 6.94745 2.85147 6.78255 2.82663 6.62139C2.77963 6.14139 2.76063 5.66039 2.72163 5.18039C2.71013 5.09316 2.71597 5.00452 2.73882 4.91956C2.76167 4.83459 2.80108 4.75498 2.85479 4.68529C2.9085 4.6156 2.97544 4.55721 3.05178 4.51346C3.12812 4.46972 3.21235 4.44149 3.29963 4.43039C3.79963 4.34839 4.29963 4.26639 4.79963 4.19239C4.94252 4.18022 5.07868 4.12634 5.19122 4.03745C5.30375 3.94856 5.3877 3.82858 5.43263 3.69239C5.61263 3.22739 5.79963 2.76239 5.99063 2.29839C6.01644 2.21197 6.05995 2.13187 6.11839 2.06318C6.17684 1.99449 6.24894 1.93871 6.33011 1.8994C6.41127 1.86008 6.49974 1.83809 6.58987 1.83482C6.68 1.83154 6.76982 1.84706 6.85363 1.88039C7.33363 2.02139 7.81463 2.16139 8.29063 2.31039C8.42544 2.36011 8.57179 2.36957 8.71187 2.33761C8.85196 2.30565 8.97973 2.23366 9.07963 2.13039C9.39563 1.83039 9.72063 1.53639 10.0486 1.25139C10.2016 1.11539 10.3696 1.01339 10.5256 0.900391ZM18.3256 10.9104C18.3284 9.39705 17.8822 7.9169 17.0435 6.65723C16.2048 5.39757 15.0113 4.415 13.614 3.83385C12.2166 3.25271 10.6783 3.09912 9.19372 3.39252C7.70909 3.68591 6.34486 4.4131 5.27365 5.48207C4.20244 6.55104 3.47239 7.91375 3.17589 9.39776C2.87939 10.8818 3.02976 12.4204 3.60797 13.8189C4.18619 15.2174 5.16626 16.413 6.42417 17.2544C7.68208 18.0957 9.16129 18.545 10.6746 18.5454C12.7007 18.5436 14.6436 17.7392 16.0781 16.3083C17.5125 14.8774 18.3218 12.9365 18.3286 10.9104H18.3256Z" stroke="#FF0000" stroke-width="0.8" stroke-miterlimit="10"/>
<path d="M8.43631 13.4729C7.97931 13.4649 7.74931 13.0629 7.93631 12.7509C7.99559 12.6648 8.0651 12.5862 8.14331 12.5169C9.47665 11.1775 10.8163 9.84053 12.1623 8.50586C12.2812 8.37019 12.4447 8.28152 12.6233 8.25586C12.7094 8.26726 12.7916 8.29907 12.8629 8.34864C12.9342 8.39822 12.9926 8.46412 13.0333 8.54086C13.0571 8.62994 13.0605 8.72324 13.0432 8.81381C13.0259 8.90437 12.9883 8.98985 12.9333 9.06386C12.5703 9.47786 12.1603 9.85686 11.7693 10.2469C10.7693 11.2469 9.78131 12.2389 8.77731 13.2309C8.67153 13.3221 8.55736 13.4031 8.43631 13.4729Z" fill="#FF0000"/>
<path d="M10.3473 9.47553C10.3467 9.72155 10.273 9.96185 10.1356 10.166C9.99827 10.3701 9.80338 10.5288 9.57568 10.6219C9.34798 10.7151 9.09774 10.7386 8.8567 10.6893C8.61565 10.6401 8.39466 10.5204 8.22175 10.3454C8.04884 10.1703 7.93181 9.94791 7.88549 9.70629C7.83917 9.46466 7.86566 9.21472 7.96159 8.98817C8.05753 8.76162 8.21858 8.56867 8.42434 8.43378C8.63009 8.29889 8.87126 8.22815 9.11728 8.23053C9.44244 8.24192 9.75095 8.3772 9.97962 8.60866C10.2083 8.84012 10.3398 9.15025 10.3473 9.47553ZM9.09028 8.92153C9.01871 8.92179 8.94789 8.93615 8.88187 8.96378C8.81585 8.99141 8.75591 9.03177 8.70549 9.08257C8.65507 9.13336 8.61514 9.19359 8.588 9.25981C8.56085 9.32603 8.54702 9.39696 8.54728 9.46853C8.54651 9.54276 8.56069 9.6164 8.58899 9.68503C8.61728 9.75367 8.65911 9.81591 8.71197 9.86804C8.76484 9.92016 8.82766 9.96111 8.89668 9.98844C8.96571 10.0158 9.03954 10.0289 9.11376 10.0271C9.18798 10.0253 9.26107 10.0086 9.32868 9.97788C9.39629 9.94722 9.45704 9.90325 9.50729 9.8486C9.55755 9.79396 9.59628 9.72975 9.62119 9.65981C9.6461 9.58988 9.65667 9.51564 9.65228 9.44153C9.65051 9.37017 9.63445 9.29989 9.60505 9.23484C9.57564 9.1698 9.5335 9.1113 9.48111 9.06283C9.42871 9.01435 9.36713 8.97687 9.3 8.9526C9.23287 8.92833 9.16156 8.91776 9.09028 8.92153Z" fill="#FF0000"/>
<path d="M13.1049 12.23C13.1065 12.4753 13.0351 12.7156 12.8999 12.9203C12.7647 13.125 12.5718 13.2849 12.3455 13.3797C12.1193 13.4746 11.8699 13.5001 11.6292 13.453C11.3884 13.4059 11.1671 13.2883 10.9933 13.1152C10.8195 12.9421 10.701 12.7212 10.6529 12.4806C10.6048 12.2401 10.6293 11.9907 10.7232 11.764C10.8172 11.5374 10.9763 11.3438 11.1804 11.2078C11.3846 11.0717 11.6246 10.9994 11.8699 11C12.1946 11.0064 12.5043 11.1378 12.7344 11.367C12.9645 11.5962 13.0972 11.9053 13.1049 12.23ZM12.4249 12.238C12.426 12.0936 12.3699 11.9547 12.2689 11.8514C12.1679 11.7482 12.0303 11.6891 11.8859 11.687C11.8117 11.6813 11.7372 11.6913 11.6672 11.7166C11.5972 11.7418 11.5334 11.7815 11.4799 11.8332C11.4264 11.8849 11.3845 11.9474 11.3569 12.0164C11.3293 12.0855 11.3167 12.1597 11.3199 12.234C11.3161 12.3782 11.3693 12.518 11.468 12.6232C11.5666 12.7285 11.7028 12.7905 11.8469 12.796C11.9972 12.7974 12.1419 12.7396 12.2501 12.6353C12.3582 12.5309 12.421 12.3882 12.4249 12.238Z" fill="#FF0000"/>
</g>
<defs>
<clipPath id="clip0_86_295">
<rect width="20.358" height="20.8" fill="white" transform="translate(0.5 0.5)"/>
</clipPath>
</defs>
</svg>
