<svg xmlns="http://www.w3.org/2000/svg" width="20.358" height="20.8" viewBox="0 0 20.358 20.8">
  <g id="sale" transform="translate(-0.585 -0.6)">
    <path id="Path_15137" data-name="Path 15137" d="M10.61,1h.312c.156.113.324.215.469.34.328.285.652.578.969.879a.733.733,0,0,0,.789.18c.473-.148.945-.285,1.418-.426a.656.656,0,0,1,.891.43c.187.465.379.926.559,1.394a.718.718,0,0,0,.605.484q.732.111,1.465.234a.677.677,0,0,1,.637.812c-.039.492-.066.988-.105,1.48a.708.708,0,0,0,.336.68c.41.277.812.562,1.219.844a.665.665,0,0,1,.23.992c-.234.418-.465.844-.715,1.254a.766.766,0,0,0,0,.859c.246.414.476.836.711,1.257a.665.665,0,0,1-.226.98c-.4.281-.8.566-1.2.832a.736.736,0,0,0-.359.722c.039.5.066,1,.105,1.5a.666.666,0,0,1-.574.754c-.5.082-1,.164-1.5.238a.737.737,0,0,0-.637.5c-.172.449-.355.894-.535,1.34a.681.681,0,0,1-.961.457c-.449-.133-.9-.258-1.343-.406a.768.768,0,0,0-.84.2c-.32.3-.648.6-.98.894-.129.113-.285.2-.426.3h-.312c-.148-.105-.3-.2-.441-.312-.332-.289-.66-.59-.98-.894a.754.754,0,0,0-.824-.184c-.465.149-.933.281-1.4.418a.656.656,0,0,1-.89-.43c-.191-.469-.383-.937-.566-1.41a.689.689,0,0,0-.578-.461c-.5-.078-.988-.16-1.484-.238a.674.674,0,0,1-.633-.816c.039-.484.062-.972.1-1.461a.72.72,0,0,0-.352-.707c-.41-.273-.812-.562-1.219-.844A.661.661,0,0,1,1.12,12.7c.242-.43.48-.863.73-1.289a.74.74,0,0,0,0-.808c-.25-.426-.488-.859-.73-1.289a.658.658,0,0,1,.219-.965c.391-.273.773-.555,1.172-.808a.8.8,0,0,0,.4-.82c-.047-.48-.066-.961-.105-1.441a.668.668,0,0,1,.578-.75c.5-.082,1-.164,1.5-.238a.732.732,0,0,0,.633-.5c.18-.465.367-.93.558-1.394a.65.65,0,0,1,.863-.418c.48.141.961.281,1.437.43a.741.741,0,0,0,.789-.18c.316-.3.641-.594.969-.879C10.286,1.215,10.454,1.113,10.61,1Zm7.8,10.01a7.649,7.649,0,1,0-7.651,7.635A7.661,7.661,0,0,0,18.413,11.01Z" fill="none" stroke="#6133bd" stroke-miterlimit="10" stroke-width="0.8"/>
    <path id="Path_15138" data-name="Path 15138" d="M8.521,13.572c-.457-.008-.687-.41-.5-.722a1.292,1.292,0,0,1,.207-.234q2-2.009,4.019-4.011a.756.756,0,0,1,.461-.25.545.545,0,0,1,.41.285.612.612,0,0,1-.1.523c-.363.414-.773.793-1.164,1.183-1,1-1.988,1.992-2.992,2.984A2.215,2.215,0,0,1,8.521,13.572Z" fill="#6133bd"/>
    <path id="Path_15139" data-name="Path 15139" d="M10.43,9.576A1.242,1.242,0,1,1,9.2,8.331,1.275,1.275,0,0,1,10.43,9.576ZM9.173,9.022a.545.545,0,0,0-.543.547.553.553,0,1,0,1.105-.027A.534.534,0,0,0,9.173,9.022Z" fill="#6133bd"/>
    <path id="Path_15140" data-name="Path 15140" d="M13.188,12.33A1.238,1.238,0,1,1,11.953,11.1,1.26,1.26,0,0,1,13.188,12.33Zm-.68.008a.547.547,0,0,0-.539-.551.526.526,0,0,0-.566.547.548.548,0,0,0,.527.562A.573.573,0,0,0,12.508,12.338Z" fill="#6133bd"/>
  </g>
</svg>
