<svg xmlns="http://www.w3.org/2000/svg" width="19.54" height="20.004" viewBox="0 0 19.54 20.004">
  <g id="sale02" transform="translate(0.004)">
    <path id="Subtraction_3" data-name="Subtraction 3" d="M7468,12649a8,8,0,1,1,8-8A8,8,0,0,1,7468,12649Zm.956-7.9a1.264,1.264,0,0,0-.892.382,1.207,1.207,0,0,0-.353.875,1.263,1.263,0,0,0,1.231,1.22h.022a1.237,1.237,0,0,0,.871-.377,1.209,1.209,0,0,0,.352-.864,1.251,1.251,0,0,0-1.232-1.234Zm.75-2.742a.768.768,0,0,0-.454.251c-1.121,1.106-2.252,2.24-3.346,3.337l-.081.081-.593.594-.02.02-.02.021a.92.92,0,0,0-.166.192.441.441,0,0,0-.013.451.568.568,0,0,0,.507.271l.046-.028.027-.017a1.629,1.629,0,0,0,.276-.2c.644-.638,1.28-1.273,1.929-1.924l.021-.021,1.04-1.04c.106-.106.214-.213.322-.318.268-.262.57-.558.843-.865a.61.61,0,0,0,.1-.524.534.534,0,0,0-.41-.285Zm-3.52-.022a1.242,1.242,0,0,0-.008,2.483h.016a1.241,1.241,0,0,0,0-2.482Zm2.765,4.565h-.021a.55.55,0,0,1-.527-.562.524.524,0,0,1,.548-.547h.02a.544.544,0,0,1,.538.549.571.571,0,0,1-.559.559Zm-2.754-2.769h-.012a.556.556,0,0,1-.555-.559.543.543,0,0,1,.543-.546h.013a.534.534,0,0,1,.549.517.567.567,0,0,1-.146.411.556.556,0,0,1-.389.145Z" transform="translate(-7458 -12631)" fill="#6133bd"/>
    <path id="Path_6434" data-name="Path 6434" d="M9.61,0h.312c.156.113.324.215.469.34q.492.427.969.879a.733.733,0,0,0,.789.18c.473-.148.945-.285,1.418-.426a.656.656,0,0,1,.891.43c.187.465.379.926.558,1.394a.718.718,0,0,0,.6.484q.732.111,1.465.234a.677.677,0,0,1,.637.812c-.039.492-.066.988-.1,1.48a.708.708,0,0,0,.336.68c.41.277.812.562,1.219.844a.665.665,0,0,1,.23.992c-.234.418-.465.844-.715,1.254a.766.766,0,0,0,0,.859c.246.414.476.836.711,1.257a.665.665,0,0,1-.226.98c-.4.281-.8.566-1.2.832a.736.736,0,0,0-.359.722c.039.5.066,1,.1,1.5a.666.666,0,0,1-.574.754c-.5.082-1,.164-1.5.238a.737.737,0,0,0-.636.5c-.172.449-.355.894-.535,1.34a.681.681,0,0,1-.961.457c-.449-.133-.9-.258-1.343-.406a.768.768,0,0,0-.84.2c-.32.3-.648.6-.98.894a5.162,5.162,0,0,1-.426.3H9.606c-.148-.1-.3-.2-.441-.312-.332-.289-.66-.59-.98-.894a.754.754,0,0,0-.824-.184c-.465.149-.933.281-1.4.418a.656.656,0,0,1-.89-.43c-.191-.469-.383-.937-.566-1.41a.689.689,0,0,0-.578-.461c-.5-.078-.988-.16-1.484-.238a.674.674,0,0,1-.633-.816c.039-.484.062-.972.1-1.461a.72.72,0,0,0-.351-.707c-.41-.273-.812-.562-1.219-.844A.661.661,0,0,1,.12,11.7c.242-.43.48-.863.73-1.289a.74.74,0,0,0,0-.808C.6,9.174.366,8.74.124,8.311a.658.658,0,0,1,.219-.965c.391-.273.773-.555,1.172-.808a.8.8,0,0,0,.4-.82c-.047-.48-.066-.961-.105-1.441a.668.668,0,0,1,.578-.75c.5-.082,1-.164,1.5-.238a.732.732,0,0,0,.633-.5q.27-.7.558-1.394A.65.65,0,0,1,5.943.972c.48.141.961.281,1.437.43a.741.741,0,0,0,.789-.18c.316-.3.641-.594.969-.879C9.286.215,9.454.113,9.61,0Zm7.8,10.01a7.649,7.649,0,1,0-7.651,7.635A7.649,7.649,0,0,0,17.41,10.01Z" fill="#6133bd"/>
  </g>
</svg>
