<svg width="21" height="21" viewBox="0 0 21 21" fill="none" xmlns="http://www.w3.org/2000/svg">
<g clip-path="url(#clip0_86_301)">
<path d="M10.5039 18.5002C8.92161 18.5002 7.37512 18.0306 6.05953 17.1516C4.74393 16.2725 3.71825 15.0235 3.11275 13.5617C2.50725 12.0999 2.34899 10.4915 2.65767 8.93965C2.96635 7.3878 3.7283 5.96179 4.84712 4.84297C5.96594 3.72415 7.39147 2.96219 8.94332 2.65351C10.4952 2.34483 12.1036 2.50407 13.5654 3.10957C15.0272 3.71507 16.2767 4.74026 17.1557 6.05586C18.0348 7.37145 18.5039 8.91794 18.5039 10.5002C18.5039 12.6219 17.6609 14.6571 16.1606 16.1574C14.6603 17.6577 12.6256 18.5002 10.5039 18.5002ZM11.4599 10.5998C11.2934 10.6016 11.1286 10.6368 10.9755 10.7023C10.8225 10.7679 10.684 10.8633 10.5678 10.9826C10.4532 11.0973 10.3629 11.2336 10.3022 11.384C10.2416 11.5343 10.2119 11.6955 10.2148 11.8576C10.2257 12.1796 10.359 12.4853 10.5878 12.7121C10.8167 12.9389 11.1237 13.0694 11.4458 13.0773H11.4677C11.6306 13.0749 11.7914 13.0405 11.9409 12.9758C12.0903 12.9111 12.2256 12.8175 12.3388 12.7004C12.4518 12.5869 12.5411 12.4522 12.6015 12.3039C12.6619 12.1556 12.6924 11.9963 12.6909 11.8361C12.6865 11.5106 12.5552 11.1994 12.3252 10.9689C12.0951 10.7385 11.7845 10.6067 11.4589 10.6018L11.4599 10.5998ZM12.2099 7.85859C12.0341 7.88707 11.8735 7.97577 11.7558 8.10957C10.6348 9.21557 9.50362 10.3495 8.40962 11.4465L8.32906 11.5275L7.7358 12.1213L7.71578 12.1408L7.69576 12.1623C7.63182 12.2183 7.57594 12.2823 7.52974 12.3537C7.48717 12.4207 7.46367 12.4989 7.46138 12.5783C7.45909 12.6577 7.4784 12.7355 7.51705 12.8049C7.56981 12.8911 7.64423 12.9623 7.73335 13.01C7.82248 13.0576 7.92291 13.0804 8.02388 13.0764L8.06978 13.048L8.09664 13.0314C8.19538 12.9746 8.28825 12.9074 8.373 12.8312C9.017 12.1932 9.65271 11.5584 10.3017 10.9074L10.3227 10.8859L11.3627 9.8459C11.4687 9.7399 11.577 9.63351 11.685 9.52851C11.953 9.26651 12.2548 8.97028 12.5278 8.66328C12.5831 8.58922 12.6208 8.50308 12.6381 8.4123C12.6555 8.32153 12.652 8.22808 12.6279 8.13886C12.5879 8.06155 12.5299 7.99518 12.4585 7.9455C12.387 7.89583 12.3041 7.86421 12.2177 7.85371L12.2099 7.85859ZM8.6899 7.83613C8.36666 7.8442 8.0591 7.97807 7.83296 8.20918C7.60683 8.44028 7.48 8.7501 7.47896 9.07343C7.47792 9.39677 7.60295 9.70806 7.82759 9.94062C8.05223 10.1732 8.35891 10.3094 8.68209 10.3195H8.69771C9.02684 10.3195 9.34242 10.188 9.57515 9.95527C9.80788 9.72254 9.93892 9.40745 9.93892 9.07832C9.93892 8.74918 9.80788 8.43312 9.57515 8.20039C9.34242 7.96765 9.02684 7.83711 8.69771 7.83711L8.6899 7.83613ZM11.455 12.4016H11.434C11.2901 12.3956 11.1542 12.3328 11.0556 12.2277C10.9571 12.1226 10.9034 11.9831 10.9067 11.8391C10.9034 11.7663 10.9155 11.6941 10.9419 11.6262C10.9682 11.5583 11.0084 11.496 11.06 11.4445C11.1116 11.3931 11.1737 11.3536 11.2417 11.3273C11.3096 11.3011 11.3823 11.2888 11.455 11.2922H11.4751C11.6192 11.2938 11.7565 11.3523 11.8574 11.4553C11.9582 11.5582 12.014 11.6969 12.0127 11.841C12.0096 11.9883 11.9498 12.1284 11.8457 12.2326C11.7415 12.3368 11.6014 12.3975 11.4541 12.4006L11.455 12.4016ZM8.70064 9.63203H8.68892C8.61574 9.6319 8.54308 9.61725 8.47554 9.58906C8.408 9.56087 8.34693 9.5199 8.29537 9.46797C8.2438 9.41603 8.20295 9.35406 8.17525 9.28632C8.14755 9.21859 8.13335 9.14662 8.13375 9.07343C8.13335 9.00187 8.14716 8.93068 8.17427 8.86445C8.20138 8.79822 8.24149 8.73843 8.29195 8.68769C8.34241 8.63695 8.40214 8.59603 8.46822 8.56855C8.53429 8.54108 8.60515 8.52753 8.67671 8.52754H8.6899C8.8312 8.5235 8.96833 8.57515 9.07125 8.67207C9.17416 8.76898 9.23428 8.90284 9.23873 9.04414C9.24273 9.11889 9.23205 9.19332 9.20699 9.26386C9.18193 9.33441 9.14299 9.39979 9.09273 9.45527C8.98665 9.55202 8.84758 9.60351 8.70406 9.5998L8.70064 9.63203Z" fill="#FF0000"/>
<path d="M10.1138 0.5H10.4258C10.5818 0.613 10.7498 0.715 10.8948 0.84C11.2228 1.12467 11.5458 1.41767 11.8638 1.719C11.9631 1.82314 12.0909 1.89575 12.2312 1.92775C12.3715 1.95976 12.5181 1.94976 12.6528 1.899C13.1258 1.751 13.5978 1.614 14.0708 1.473C14.157 1.43609 14.25 1.41809 14.3438 1.4202C14.4375 1.42231 14.5297 1.44449 14.6141 1.48524C14.6986 1.52599 14.7733 1.58436 14.8332 1.65642C14.8932 1.72849 14.937 1.81257 14.9618 1.903C15.1488 2.368 15.3408 2.829 15.5198 3.297C15.5634 3.42638 15.643 3.54062 15.7493 3.62635C15.8556 3.71208 15.9841 3.76572 16.1198 3.781C16.6078 3.855 17.0961 3.933 17.5848 4.015C17.6829 4.01881 17.779 4.04392 17.8664 4.08858C17.9538 4.13324 18.0305 4.19638 18.0911 4.27363C18.1517 4.35088 18.1948 4.44038 18.2174 4.53593C18.2399 4.63149 18.2414 4.73081 18.2218 4.827C18.1828 5.319 18.1558 5.815 18.1218 6.307C18.1075 6.44054 18.1315 6.57539 18.191 6.69579C18.2505 6.81619 18.343 6.91719 18.4578 6.987C18.8678 7.264 19.2698 7.549 19.6768 7.831C19.7632 7.87503 19.839 7.93744 19.8988 8.01387C19.9586 8.0903 20.001 8.17889 20.0229 8.27342C20.0448 8.36795 20.0458 8.46613 20.0257 8.56107C20.0056 8.65601 19.965 8.74541 19.9068 8.823C19.6728 9.241 19.4418 9.667 19.1918 10.077C19.1059 10.2038 19.06 10.3534 19.06 10.5065C19.06 10.6596 19.1059 10.8092 19.1918 10.936C19.4378 11.35 19.6678 11.772 19.9028 12.193C19.959 12.27 19.9981 12.3583 20.0172 12.4517C20.0364 12.5452 20.0352 12.6417 20.0137 12.7347C19.9923 12.8276 19.9511 12.9149 19.893 12.9905C19.8348 13.0661 19.7611 13.1284 19.6768 13.173C19.2768 13.454 18.8768 13.739 18.4768 14.005C18.3532 14.0774 18.2534 14.1842 18.1896 14.3125C18.1258 14.4407 18.1009 14.5848 18.1178 14.727C18.1568 15.227 18.1838 15.727 18.2178 16.227C18.2301 16.3143 18.2251 16.4031 18.2028 16.4884C18.1806 16.5737 18.1417 16.6538 18.0883 16.7239C18.0349 16.794 17.9681 16.8529 17.8918 16.897C17.8155 16.9412 17.7312 16.9697 17.6438 16.981C17.1438 17.063 16.6438 17.145 16.1438 17.219C16.0005 17.2312 15.864 17.2851 15.751 17.3739C15.638 17.4628 15.5535 17.5827 15.5078 17.719C15.3358 18.168 15.1528 18.613 14.9728 19.059C14.9494 19.1585 14.904 19.2515 14.8399 19.3311C14.7757 19.4106 14.6945 19.4747 14.6022 19.5186C14.5099 19.5625 14.4089 19.5851 14.3067 19.5846C14.2045 19.5842 14.1037 19.5607 14.0118 19.516C13.5628 19.383 13.1118 19.258 12.6688 19.11C12.5248 19.0553 12.3678 19.0451 12.218 19.0808C12.0682 19.1164 11.9326 19.1963 11.8288 19.31C11.5088 19.61 11.1808 19.91 10.8488 20.204C10.7119 20.3111 10.5697 20.4112 10.4228 20.504H10.1098C9.96177 20.404 9.80977 20.304 9.66877 20.192C9.33677 19.903 9.00877 19.602 8.68877 19.298C8.58545 19.1886 8.45178 19.1126 8.30494 19.0799C8.15809 19.0471 8.0048 19.059 7.86477 19.114C7.39977 19.263 6.93177 19.395 6.46477 19.532C6.37864 19.5687 6.28564 19.5866 6.19203 19.5844C6.09842 19.5822 6.00636 19.56 5.92205 19.5193C5.83774 19.4785 5.76312 19.4202 5.70322 19.3482C5.64332 19.2763 5.59952 19.1923 5.57477 19.102C5.38377 18.633 5.19177 18.165 5.00877 17.692C4.96619 17.5682 4.8892 17.4591 4.78684 17.3774C4.68447 17.2958 4.56096 17.245 4.43077 17.231C3.93077 17.153 3.44277 17.071 2.94677 16.993C2.8484 16.9892 2.75206 16.964 2.66451 16.919C2.57695 16.874 2.50032 16.8104 2.43998 16.7326C2.37965 16.6548 2.33708 16.5648 2.31528 16.4688C2.29347 16.3728 2.29296 16.2732 2.31377 16.177C2.35277 15.693 2.37577 15.205 2.41377 14.716C2.43046 14.5768 2.40614 14.4357 2.34378 14.3101C2.28143 14.1845 2.18376 14.0799 2.06277 14.009C1.65277 13.736 1.25077 13.447 0.843767 13.165C0.761688 13.1201 0.690075 13.0583 0.633665 12.9836C0.577255 12.909 0.537332 12.8232 0.516536 12.732C0.49574 12.6408 0.494545 12.5462 0.51303 12.4545C0.531516 12.3628 0.56926 12.276 0.623767 12.2C0.865767 11.77 1.10377 11.337 1.35377 10.911C1.43208 10.7908 1.47378 10.6505 1.47378 10.507C1.47378 10.3635 1.43208 10.2232 1.35377 10.103C1.10377 9.674 0.869767 9.24 0.627767 8.811C0.572742 8.73519 0.53454 8.6485 0.515715 8.55673C0.496891 8.46496 0.497878 8.37023 0.51861 8.27888C0.539342 8.18752 0.579342 8.10165 0.635935 8.027C0.692527 7.95234 0.764407 7.89064 0.846767 7.846C1.23777 7.573 1.61977 7.291 2.01877 7.038C2.16106 6.95837 2.27563 6.83716 2.34712 6.69061C2.41861 6.54406 2.44361 6.37916 2.41877 6.218C2.37177 5.738 2.35277 5.257 2.31377 4.777C2.30226 4.68977 2.30811 4.60113 2.33096 4.51617C2.35381 4.4312 2.39322 4.35159 2.44693 4.2819C2.50064 4.21221 2.56758 4.15382 2.64392 4.11007C2.72026 4.06633 2.80449 4.0381 2.89177 4.027C3.39177 3.945 3.89177 3.863 4.39177 3.789C4.53466 3.77683 4.67082 3.72295 4.78335 3.63406C4.89589 3.54517 4.97983 3.42518 5.02477 3.289C5.20477 2.82233 5.39077 2.35767 5.58277 1.895C5.60801 1.80801 5.65116 1.72726 5.70944 1.65793C5.76772 1.58859 5.83985 1.5322 5.9212 1.49238C6.00255 1.45255 6.09132 1.43016 6.18183 1.42665C6.27234 1.42314 6.36258 1.43859 6.44677 1.472C6.92677 1.613 7.40777 1.753 7.88377 1.902C8.01857 1.95172 8.16493 1.96118 8.30501 1.92922C8.44509 1.89726 8.57286 1.82527 8.67277 1.722C8.98877 1.422 9.31377 1.128 9.64177 0.843C9.78977 0.715 9.95777 0.613 10.1138 0.5ZM17.9138 10.51C17.9165 8.99666 17.4703 7.51651 16.6316 6.25684C15.7929 4.99718 14.5994 4.0146 13.2021 3.43346C11.8048 2.85232 10.2665 2.69873 8.78186 2.99213C7.29723 3.28552 5.933 4.01271 4.86178 5.08168C3.79057 6.15065 3.06053 7.51336 2.76403 8.99737C2.46752 10.4814 2.6179 12.02 3.19611 13.4185C3.77432 14.817 4.75439 16.0126 6.0123 16.854C7.27021 17.6953 8.74943 18.1446 10.2628 18.145C12.2893 18.1455 14.2333 17.3418 15.6678 15.9103C17.1023 14.4788 17.9101 12.5366 17.9138 10.51Z" fill="#FF0000"/>
</g>
<defs>
<clipPath id="clip0_86_301">
<rect width="19.54" height="20.004" fill="white" transform="translate(0.5 0.5)"/>
</clipPath>
</defs>
</svg>
