<svg width="15" height="15" viewBox="0 0 15 15" fill="none" xmlns="http://www.w3.org/2000/svg">
<g clip-path="url(#clip0_86_305)">
<path d="M13.926 2.115L12.686 0.993C12.362 0.682758 11.9326 0.506629 11.484 0.5H3.4C3.16551 0.499962 2.93331 0.546231 2.71675 0.636153C2.50018 0.726075 2.3035 0.857878 2.138 1.024L1.024 2.138C0.857701 2.30337 0.725781 2.50002 0.635847 2.71662C0.545913 2.93322 0.499744 3.16547 0.500001 3.4V12.1C0.500795 12.6949 0.73747 13.2652 1.15813 13.6859C1.57879 14.1065 2.1491 14.3432 2.744 14.344H6.237C6.39785 14.344 6.55212 14.2801 6.66586 14.1664C6.7796 14.0526 6.8435 13.8984 6.8435 13.7375C6.8435 13.5766 6.7796 13.4224 6.66586 13.3086C6.55212 13.1949 6.39785 13.131 6.237 13.131H2.744C2.47073 13.1305 2.20879 13.0217 2.01556 12.8284C1.82232 12.6352 1.71353 12.3733 1.713 12.1V3.517H13.283V12.1C13.2838 12.3723 13.1765 12.6338 12.9847 12.8271C12.7929 13.0204 12.5323 13.1297 12.26 13.131H10.938C10.7771 13.131 10.6229 13.1949 10.5091 13.3086C10.3954 13.4224 10.3315 13.5766 10.3315 13.7375C10.3315 13.8984 10.3954 14.0526 10.5091 14.1664C10.6229 14.2801 10.7771 14.344 10.938 14.344H12.26C12.8534 14.3435 13.4224 14.1077 13.8423 13.6884C14.2622 13.2691 14.4987 12.7004 14.5 12.107V3.43C14.4996 3.18317 14.4484 2.93906 14.3497 2.71283C14.2509 2.48661 14.1067 2.28312 13.926 2.115ZM2.568 2.3L2.993 1.874C3.09908 1.76774 3.24286 1.70771 3.393 1.707H11.483C11.6256 1.70691 11.7627 1.7617 11.866 1.86L12.339 2.3H2.568Z" fill="black"/>
<path d="M10.3604 9.24312C10.3456 9.3239 10.3148 9.40089 10.2698 9.46958C10.2248 9.53828 10.1666 9.59728 10.0984 9.64312L7.92344 11.1001C7.78671 11.1916 7.62593 11.2404 7.46144 11.2404C7.29695 11.2404 7.13616 11.1916 6.99944 11.1001L4.73944 9.62412H4.73444C4.60917 9.52944 4.52449 9.39076 4.49751 9.23607C4.47052 9.08138 4.50324 8.92221 4.58904 8.79071C4.67485 8.6592 4.80736 8.56515 4.95982 8.52755C5.11228 8.48995 5.27332 8.5116 5.41044 8.58813L5.42144 8.59412L6.83544 9.51412L6.79944 5.88613C6.79944 5.72156 6.86481 5.56373 6.98118 5.44737C7.09754 5.331 7.25537 5.26562 7.41994 5.26562C7.5845 5.26562 7.74233 5.331 7.8587 5.44737C7.97506 5.56373 8.04044 5.72156 8.04044 5.88613L8.07344 9.51312L8.95144 8.92013H8.94144L9.40044 8.61012C9.49522 8.54634 9.60573 8.50989 9.71986 8.50477C9.834 8.49966 9.94733 8.52607 10.0474 8.58113H10.0574C10.1702 8.64569 10.2598 8.74403 10.3136 8.86228C10.3675 8.98053 10.3828 9.1127 10.3574 9.24012L10.3604 9.24312Z" fill="black"/>
</g>
<defs>
<clipPath id="clip0_86_305">
<rect width="14" height="13.847" fill="white" transform="translate(0.5 0.5)"/>
</clipPath>
</defs>
</svg>
