<svg width="14" height="14" viewBox="0 0 14 14" fill="none" xmlns="http://www.w3.org/2000/svg">
<g clip-path="url(#clip0_86_308)">
<path d="M13.2974 13.281C13.2308 13.3498 13.1511 13.4045 13.063 13.4418C12.9748 13.4791 12.8801 13.4984 12.7844 13.4984C12.6887 13.4984 12.5939 13.4791 12.5058 13.4418C12.4177 13.4045 12.338 13.3498 12.2714 13.281L10.4434 11.444C9.2271 12.4232 7.68161 12.8987 6.12524 12.7726C4.56886 12.6465 3.12011 11.9283 2.07738 10.766C1.0314 9.60026 0.46798 8.0803 0.501407 6.51444C0.534833 4.94857 1.1626 3.45405 2.25738 2.334C3.34932 1.21796 4.82764 0.563116 6.3879 0.504329C7.94816 0.445543 9.47156 0.987288 10.6444 2.018C11.8197 3.05319 12.5573 4.49667 12.7075 6.05566C12.8578 7.61465 12.4094 9.17242 11.4534 10.413L13.2814 12.25C13.4183 12.3856 13.4967 12.5695 13.4997 12.7622C13.5027 12.955 13.4301 13.1412 13.2974 13.281ZM6.72338 2.113C5.6758 2.11171 4.66018 2.47371 3.84957 3.1373C3.03896 3.80089 2.48353 4.72502 2.27791 5.75223C2.07228 6.77944 2.2292 7.84616 2.72191 8.77065C3.21462 9.69513 4.01264 10.4202 4.98 10.8222C5.94736 11.2243 7.0242 11.2785 8.02704 10.9756C9.02988 10.6727 9.89667 10.0314 10.4797 9.16111C11.0628 8.29076 11.326 7.24519 11.2245 6.20252C11.1231 5.15986 10.6633 4.18463 9.92338 3.443C9.07527 2.59289 7.92421 2.11447 6.72338 2.113Z" fill="#FF0000"/>
</g>
<defs>
<clipPath id="clip0_86_308">
<rect width="13" height="12.998" fill="white" transform="translate(0.5 0.5)"/>
</clipPath>
</defs>
</svg>
