<svg width="20" height="20" viewBox="0 0 20 20" fill="none" xmlns="http://www.w3.org/2000/svg">
<g clip-path="url(#clip0_86_323)">
<path d="M18.5549 10.2428C18.5569 8.79323 18.1973 7.36608 17.5085 6.09062C16.8198 4.81516 15.8237 3.73169 14.6105 2.93835C13.3974 2.14502 12.0054 1.66689 10.5608 1.54729C9.11622 1.42769 7.66461 1.67039 6.33748 2.2534C5.01035 2.83642 3.84965 3.74133 2.96052 4.88615C2.07139 6.03098 1.48194 7.37954 1.24555 8.80968C1.00916 10.2398 1.13331 11.7063 1.60675 13.0764C2.0802 14.4464 2.88797 15.6767 3.9569 16.6558L3.9489 16.6628L4.2329 16.9008C4.2509 16.9158 4.2709 16.9288 4.2899 16.9438C4.4399 17.0678 4.5959 17.1868 4.7539 17.3008L4.9089 17.4108C5.07823 17.5274 5.25157 17.6381 5.4289 17.7428L5.5449 17.8098C5.7389 17.9208 5.9379 18.0248 6.1449 18.1188L6.1899 18.1388C6.86076 18.4504 7.5689 18.6746 8.2969 18.8058L8.3549 18.8168C8.5839 18.8568 8.8159 18.8878 9.0549 18.9098L9.1309 18.9218C9.3649 18.9408 9.6009 18.9538 9.8409 18.9538C10.0809 18.9538 10.3119 18.9418 10.5409 18.9228L10.6309 18.9158C10.8636 18.8944 11.0936 18.8641 11.3209 18.8248L11.3799 18.8138C12.0969 18.6853 12.7948 18.4665 13.4569 18.1628L13.5299 18.1298C13.7252 18.0378 13.9166 17.9378 14.1039 17.8298L14.2429 17.7498C14.4129 17.6498 14.5809 17.5438 14.7429 17.4328C14.8019 17.3928 14.8589 17.3508 14.9169 17.3088C15.0559 17.2088 15.1929 17.1088 15.3259 16.9978C15.3549 16.9738 15.3869 16.9538 15.4159 16.9288L15.7059 16.6868L15.6969 16.6798C16.5956 15.8649 17.3138 14.8709 17.8051 13.7618C18.2965 12.6526 18.5502 11.4529 18.5499 10.2398L18.5549 10.2428ZM1.7629 10.2428C1.76162 8.89323 2.09843 7.56487 2.74257 6.37898C3.38671 5.19309 4.31766 4.18745 5.45041 3.45388C6.58317 2.72031 7.88164 2.2822 9.22727 2.17953C10.5729 2.07686 11.9228 2.31291 13.1537 2.86613C14.3847 3.41935 15.4574 4.27211 16.274 5.34655C17.0906 6.42099 17.6251 7.68288 17.8285 9.01699C18.032 10.3511 17.8981 11.7149 17.4389 12.984C16.9797 14.253 16.21 15.3868 15.1999 16.2818C15.1093 16.2186 15.0144 16.1618 14.9159 16.1118L12.2309 14.7718C12.1133 14.7137 12.0144 14.6237 11.9454 14.5122C11.8765 14.4006 11.8403 14.2719 11.8409 14.1408V13.2028C11.9029 13.1258 11.9699 13.0398 12.0409 12.9448C12.3927 12.4454 12.6718 11.8986 12.8699 11.3208C13.0675 11.2279 13.2347 11.0807 13.3517 10.8964C13.4688 10.712 13.5309 10.4981 13.5309 10.2798V9.15577C13.5299 8.88022 13.4302 8.61416 13.2499 8.40577V6.92677C13.3038 6.25243 13.088 5.58425 12.6499 5.06877C12.2817 4.70943 11.8401 4.43401 11.3554 4.2614C10.8707 4.08879 10.3544 4.02308 9.8419 4.06877C9.32926 4.02293 8.81277 4.08857 8.3279 4.26118C7.84302 4.4338 7.40125 4.7093 7.0329 5.06877C6.59435 5.58369 6.37786 6.25149 6.4309 6.92577V8.40377C6.2507 8.61221 6.15103 8.87824 6.1499 9.15377V10.2778C6.14972 10.4489 6.18769 10.618 6.26103 10.7726C6.33437 10.9273 6.44125 11.0636 6.5739 11.1718C6.76871 11.9025 7.10097 12.5894 7.5529 13.1958V14.1128C7.55282 14.2396 7.51862 14.3641 7.45387 14.4732C7.38912 14.5823 7.29622 14.6719 7.1849 14.7328L4.6849 16.0988C4.60254 16.1442 4.52306 16.1946 4.4469 16.2498C3.60216 15.4936 2.92647 14.5677 2.46397 13.5326C2.00147 12.4975 1.76258 11.3765 1.7629 10.2428Z" fill="#FF0000"/>
</g>
<defs>
<clipPath id="clip0_86_323">
<rect width="19" height="19" fill="white" transform="translate(0.5 0.5)"/>
</clipPath>
</defs>
</svg>
