<svg width="20" height="20" viewBox="0 0 20 20" fill="none" xmlns="http://www.w3.org/2000/svg">
<g clip-path="url(#clip0_86_311)">
<path d="M14.3103 1.5294C13.5091 1.53621 12.7188 1.71541 11.993 2.05482C11.2673 2.39423 10.6231 2.88589 10.1043 3.4964C9.58541 2.88589 8.94123 2.39423 8.21548 2.05482C7.48973 1.71541 6.69942 1.53621 5.89825 1.5294C5.2191 1.52509 4.5459 1.65626 3.91805 1.91523C3.29019 2.17421 2.72029 2.5558 2.24168 3.03767C1.76306 3.51954 1.38535 4.09202 1.13064 4.72162C0.875929 5.35122 0.749331 6.02529 0.758253 6.7044C0.758253 10.2614 3.93625 13.1594 8.75025 17.5634L10.1053 18.7964L11.4583 17.5544C16.2723 13.1604 19.4503 10.2614 19.4503 6.7044C19.4592 6.02529 19.3326 5.35122 19.0779 4.72162C18.8232 4.09202 18.4454 3.51954 17.9668 3.03767C17.4882 2.5558 16.9183 2.17421 16.2905 1.91523C15.6626 1.65626 14.9894 1.52509 14.3103 1.5294Z" fill="#FF0000"/>
</g>
<defs>
<clipPath id="clip0_86_311">
<rect width="19" height="19" fill="white" transform="translate(0.5 0.5)"/>
</clipPath>
</defs>
</svg>
