<svg width="20" height="20" viewBox="0 0 20 20" fill="none" xmlns="http://www.w3.org/2000/svg">
<g clip-path="url(#clip0_86_319)">
<path d="M17.6604 13.4525C17.6607 13.6806 17.6159 13.9066 17.5288 14.1174C17.4417 14.3283 17.3138 14.5199 17.1526 14.6813C16.9914 14.8427 16.7999 14.9708 16.5892 15.0582C16.3784 15.1455 16.1525 15.1905 15.9244 15.1905H4.36938C4.13823 15.196 3.90829 15.1553 3.69312 15.0707C3.47794 14.9861 3.28184 14.8593 3.11639 14.6978C2.95095 14.5362 2.8195 14.3433 2.72974 14.1302C2.63997 13.9171 2.59375 13.6882 2.59375 13.457C2.59375 13.2258 2.63997 12.9969 2.72974 12.7838C2.8195 12.5707 2.95095 12.3778 3.11639 12.2162C3.28184 12.0547 3.47794 11.9279 3.69312 11.8433C3.90829 11.7587 4.13823 11.7179 4.36938 11.7235V7.05049C4.36938 5.51781 4.97824 4.0479 6.06201 2.96413C7.14578 1.88035 8.61569 1.27148 10.1484 1.27148C11.6811 1.27148 13.151 1.88035 14.2347 2.96413C15.3185 4.0479 15.9274 5.51781 15.9274 7.05049V11.7185C16.3869 11.7193 16.8274 11.9023 17.1523 12.2273C17.4771 12.5524 17.6599 12.9929 17.6604 13.4525ZM7.54736 16.0525H12.7474C12.7474 16.7421 12.4734 17.4034 11.9858 17.891C11.4982 18.3786 10.837 18.6525 10.1474 18.6525C9.45784 18.6525 8.79649 18.3786 8.3089 17.891C7.8213 17.4034 7.54736 16.7421 7.54736 16.0525Z" fill="#FF0000"/>
</g>
<defs>
<clipPath id="clip0_86_319">
<rect width="19" height="19" fill="white" transform="translate(0.5 0.5)"/>
</clipPath>
</defs>
</svg>
