<svg width="20" height="20" viewBox="0 0 20 20" fill="none" xmlns="http://www.w3.org/2000/svg">
<g clip-path="url(#clip0_86_315)">
<path d="M19.2472 9.0012L10.4652 1.6842C10.3529 1.59284 10.2125 1.54297 10.0677 1.54297C9.92291 1.54297 9.78254 1.59284 9.67021 1.6842L0.888211 9.0012C0.762084 9.10743 0.682633 9.25889 0.666928 9.42305C0.651222 9.58721 0.700516 9.75097 0.804211 9.8792C0.912928 10.0014 1.06386 10.078 1.22671 10.0936C1.38956 10.1092 1.55228 10.0626 1.6822 9.9632L3.3762 8.5632V16.2572C3.40709 16.9586 3.71514 17.619 4.23265 18.0934C4.75016 18.5677 5.43482 18.8173 6.13621 18.7872H13.9772C14.6786 18.8173 15.3633 18.5677 15.8808 18.0934C16.3983 17.619 16.7063 16.9586 16.7372 16.2572V8.5632L18.4312 9.9632C18.5416 10.0602 18.6843 10.1123 18.8312 10.1092C18.9234 10.1087 19.0143 10.0878 19.0975 10.0481C19.1806 10.0083 19.254 9.95063 19.3122 9.8792C19.3697 9.8194 19.414 9.74821 19.4423 9.67022C19.4705 9.59223 19.4821 9.50917 19.4763 9.42642C19.4704 9.34367 19.4473 9.26307 19.4084 9.18983C19.3694 9.11658 19.3155 9.05232 19.2502 9.0012H19.2472ZM8.60521 17.4892V13.0982C8.60371 13.0155 8.61892 12.9333 8.6499 12.8565C8.68088 12.7798 8.72701 12.71 8.78553 12.6515C8.84406 12.593 8.91376 12.5469 8.99051 12.5159C9.06725 12.4849 9.14946 12.4697 9.2322 12.4712H10.9052C10.988 12.4697 11.0702 12.4849 11.1469 12.5159C11.2237 12.5469 11.2934 12.593 11.3519 12.6515C11.4104 12.71 11.4565 12.7798 11.4875 12.8565C11.5185 12.9333 11.5337 13.0155 11.5322 13.0982V17.4892H8.60521Z" fill="#FF0000"/>
</g>
<defs>
<clipPath id="clip0_86_315">
<rect width="19" height="19" fill="white" transform="translate(0.5 0.5)"/>
</clipPath>
</defs>
</svg>
