<svg width="97" height="97" viewBox="0 0 97 97" fill="none" xmlns="http://www.w3.org/2000/svg">
<g clip-path="url(#clip0_86_327)">
<path d="M48.5 96.5C39.0065 96.5 29.7262 93.6849 21.8327 88.4106C13.9391 83.1363 7.78681 75.6397 4.1538 66.8688C0.520798 58.098 -0.429762 48.4468 1.42233 39.1357C3.27442 29.8246 7.84597 21.2718 14.5589 14.5589C21.2718 7.84598 29.8246 3.27442 39.1357 1.42233C48.4468 -0.429762 58.098 0.520798 66.8688 4.1538C75.6397 7.78681 83.1363 13.9391 88.4106 21.8326C93.6849 29.7262 96.5 39.0065 96.5 48.5C96.5 61.2304 91.4429 73.4394 82.4412 82.4411C73.4394 91.4429 61.2304 96.5 48.5 96.5Z" fill="#0EB0F8"/>
<path d="M71.8596 26.3076C71.5417 24.9189 70.8339 23.6499 69.8193 22.6499C68.8047 21.6499 67.5257 20.9604 66.1326 20.6626C65.363 20.5355 64.5833 20.4809 63.8036 20.4996H42.0186C40.9483 20.4322 39.8757 20.5889 38.8695 20.9597C37.8632 21.3304 36.9453 21.907 36.1746 22.6526C35.1706 23.6486 32.1429 26.6856 27.0916 31.7636C26.0444 32.8047 25.3456 34.1449 25.0916 35.5996C25.0033 36.2741 24.9672 36.9545 24.9836 37.6346C24.9742 47.9479 24.9742 58.2583 24.9836 68.5656C24.9647 69.2839 25.0193 70.0023 25.1466 70.7096C25.4654 72.0988 26.176 73.3675 27.1941 74.365C28.2122 75.3626 29.4951 76.0472 30.8906 76.3376C31.668 76.4656 32.4559 76.5198 33.2436 76.4996C43.4842 76.4903 53.7252 76.4903 63.9666 76.4996C64.6789 76.5166 65.3911 76.4623 66.0926 76.3376C67.7148 76.0071 69.1801 75.1437 70.2553 73.8848C71.3305 72.6259 71.9539 71.0436 72.0266 69.3896V28.5246C72.0456 27.7821 71.9914 27.0395 71.8646 26.3076M43.4476 70.0226H34.1926C33.9549 70.0226 33.7196 69.9758 33.5001 69.8848C33.2805 69.7938 33.081 69.6605 32.9131 69.4924C32.7451 69.3243 32.6118 69.1248 32.521 68.9052C32.4301 68.6856 32.3834 68.4502 32.3836 68.2126V63.0206H43.4476V70.0226ZM43.4476 59.3286H32.3836V52.3176H43.4476V59.3286ZM43.4476 48.6286H32.3836V43.4286C32.3849 42.9492 32.5759 42.4899 32.9149 42.1509C33.2538 41.8119 33.7132 41.6209 34.1926 41.6196H43.4476V48.6286ZM64.5996 68.2126C64.5997 68.4502 64.553 68.6856 64.4622 68.9052C64.3713 69.1248 64.2381 69.3243 64.0701 69.4924C63.9021 69.6605 63.7026 69.7938 63.4831 69.8848C63.2635 69.9758 63.0282 70.0226 62.7906 70.0226H46.9496V63.0226H64.5996V68.2126ZM64.5996 59.3286H46.9496V52.3176H64.5996V59.3286ZM64.5996 48.6286H46.9496V41.6156H62.7906C63.2699 41.6169 63.7293 41.8079 64.0683 42.1469C64.4072 42.4859 64.5982 42.9452 64.5996 43.4246V48.6286Z" fill="white"/>
</g>
<defs>
<clipPath id="clip0_86_327">
<rect width="96" height="96" fill="white" transform="translate(0.5 0.5)"/>
</clipPath>
</defs>
</svg>
