<svg width="25" height="25" viewBox="0 0 25 25" fill="none" xmlns="http://www.w3.org/2000/svg">
<g clip-path="url(#clip0_86_331)">
<path d="M0.503906 15.7044C0.768906 15.7044 1.03391 15.6944 1.30391 15.6934H7.69391C8.01691 15.6934 8.01791 15.6934 8.01791 16.0184V17.8474C8.01791 18.1164 8.00691 18.1214 7.75891 18.0044C6.94251 17.6027 6.00697 17.5152 5.13024 17.7584C4.2535 18.0016 3.49674 18.5586 3.00391 19.3234C2.77988 19.6541 2.61665 20.0222 2.52191 20.4104C2.51988 20.4452 2.51051 20.4793 2.4944 20.5103C2.47829 20.5413 2.45581 20.5686 2.42843 20.5903C2.40105 20.612 2.36938 20.6277 2.33552 20.6363C2.30165 20.645 2.26634 20.6463 2.23191 20.6404C1.99091 20.6264 1.74691 20.6404 1.50791 20.6174C1.27874 20.5907 1.06225 20.4981 0.884724 20.3508C0.7072 20.2034 0.576292 20.0077 0.507906 19.7874V19.0874L1.58291 19.0754C1.85775 19.0865 2.12655 18.9927 2.33475 18.8129C2.54294 18.6332 2.67492 18.3809 2.70391 18.1074C2.74181 17.7269 2.7495 17.344 2.72691 16.9624C2.72691 16.6304 2.60491 16.5134 2.27391 16.5104C1.68391 16.5054 1.09191 16.5054 0.503906 16.5024V15.7044Z" fill="#FF0000"/>
<path d="M0.503906 17.2044C0.939906 17.2044 1.37591 17.2044 1.81191 17.1934C1.95891 17.1934 2.02591 17.2504 2.01991 17.4014C2.01391 17.5524 2.01991 17.7294 2.01991 17.8934C2.01991 18.2264 1.87291 18.3754 1.53291 18.3824C1.19291 18.3894 0.847906 18.3824 0.504906 18.3824L0.503906 17.2044Z" fill="#FF0000"/>
<path d="M24.4446 7.54078C24.494 7.63646 24.5118 7.74533 24.4956 7.85178C24.4956 10.1264 24.4956 12.4014 24.4956 14.6768C24.4956 15.0038 24.4956 15.0058 24.1736 15.0058H9.05056C8.72756 15.0058 8.72656 15.0058 8.72656 14.6788V5.13278C8.72656 4.80778 8.72656 4.80678 9.04956 4.80678C10.3916 4.80678 11.7346 4.81278 13.0756 4.80078C13.3266 4.80078 13.4086 4.88978 13.4466 5.12578C13.5806 5.95778 13.7086 6.79278 13.8896 7.61578C14.2299 9.15113 15.1283 10.5054 16.4106 11.4158C17.2226 12.0238 18.0176 12.6568 18.8196 13.2778C19.0886 13.4858 19.1986 13.4918 19.4626 13.2908C20.3506 12.6138 21.2426 11.9418 22.1216 11.2538C23.3122 10.3312 24.1356 9.015 24.4446 7.54078ZM11.7296 11.5638H13.7186C13.7936 11.5638 13.9026 11.5948 13.9356 11.5178C13.998 11.3404 14.0046 11.1481 13.9546 10.9668C13.9256 10.8258 13.7716 10.8818 13.6716 10.8808C12.4236 10.8768 11.1752 10.8768 9.92656 10.8808C9.46256 10.8808 9.52656 10.8468 9.50456 11.2948C9.49456 11.5188 9.57856 11.5738 9.78656 11.5698C10.4356 11.5568 11.0816 11.5638 11.7296 11.5638ZM11.7536 13.1308H9.73556C9.56756 13.1308 9.48356 13.1818 9.50356 13.3588C9.5108 13.4132 9.5108 13.4684 9.50356 13.5228C9.46656 13.7648 9.57156 13.8228 9.80356 13.8228C11.0516 13.8128 12.3036 13.8228 13.5486 13.8228C14.0116 13.8228 13.9486 13.8658 13.9716 13.4118C13.9806 13.1908 13.9016 13.1298 13.6906 13.1338C13.0436 13.1418 12.3956 13.1338 11.7486 13.1338L11.7536 13.1308ZM15.8826 13.1308H15.2046C14.7046 13.1308 14.7666 13.0748 14.7516 13.5828C14.7456 13.7778 14.8256 13.8218 14.9996 13.8198C15.5066 13.8118 16.0136 13.8198 16.5206 13.8198C17.0276 13.8198 16.9626 13.8968 16.9726 13.3468C16.9726 13.1778 16.9036 13.1298 16.7486 13.1328C16.4596 13.1328 16.1716 13.1328 15.8826 13.1328V13.1308Z" fill="#FF0000"/>
<path d="M24.417 3.59762C24.317 4.16962 24.222 4.77062 24.117 5.36962C23.979 6.12162 23.889 6.88362 23.703 7.62662C23.4137 8.83098 22.7245 9.90163 21.748 10.6636C21.001 11.2546 20.236 11.8226 19.481 12.4036C19.404 12.4841 19.2994 12.5326 19.1882 12.5395C19.077 12.5463 18.9673 12.511 18.881 12.4406C18.025 11.7736 17.151 11.1286 16.323 10.4276C15.339 9.58459 14.6909 8.41582 14.497 7.13462C14.297 5.99662 14.104 4.85762 13.907 3.71862C13.8863 3.66304 13.8769 3.6039 13.8793 3.54464C13.8816 3.48539 13.8957 3.42718 13.9207 3.37342C13.9458 3.31965 13.9812 3.27139 14.025 3.23142C14.0689 3.19146 14.1202 3.1606 14.176 3.14062C15.7433 2.28396 17.3117 1.42896 18.881 0.575624C18.9652 0.525138 19.0617 0.498972 19.1599 0.500031C19.258 0.50109 19.3539 0.529333 19.437 0.581624C21.0057 1.43696 22.5753 2.29062 24.146 3.14262C24.2328 3.18094 24.3056 3.24533 24.3541 3.32687C24.4027 3.4084 24.4247 3.50303 24.417 3.59762ZM15.444 4.44762C15.449 4.50962 15.45 4.57262 15.461 4.63462C15.594 5.39562 15.731 6.15662 15.861 6.91862C16.022 7.92551 16.5663 8.83106 17.38 9.44562C17.866 9.82496 18.3533 10.2026 18.842 10.5786C19.089 10.7686 19.206 10.7726 19.449 10.5886C19.983 10.1826 20.521 9.77962 21.049 9.35862C21.7418 8.80953 22.2174 8.03244 22.391 7.16562C22.573 6.28762 22.707 5.39862 22.862 4.51462C22.8815 4.43787 22.8747 4.35681 22.8429 4.28433C22.811 4.21185 22.7558 4.15212 22.686 4.11462C22.367 3.93362 22.044 3.76062 21.722 3.58462C21.659 3.55062 21.588 3.51562 21.542 3.60562C21.4323 3.75527 21.3534 3.92523 21.31 4.10562C21.304 4.23362 21.538 4.25862 21.659 4.33962C21.7347 4.39496 21.817 4.44064 21.904 4.47562C22.11 4.54762 22.135 4.68362 22.097 4.87562C21.997 5.41262 21.897 5.95062 21.817 6.49062C21.7368 7.33032 21.354 8.11221 20.74 8.69062C20.274 9.10762 19.756 9.45862 19.265 9.84462C19.156 9.93062 19.082 9.87562 18.998 9.81062C18.585 9.48862 18.168 9.17362 17.76 8.84662C17.1131 8.33969 16.6808 7.60783 16.549 6.79662C16.449 6.22762 16.355 5.65762 16.249 5.08862C16.16 4.58862 16.16 4.59762 16.596 4.35962C17.152 4.05962 17.056 4.17662 16.796 3.65362C16.796 3.64662 16.788 3.63962 16.785 3.63262C16.742 3.53262 16.678 3.51762 16.585 3.57162C16.272 3.74762 15.954 3.91562 15.642 4.09062C15.5752 4.12138 15.5199 4.17249 15.484 4.23662C15.4481 4.30076 15.4334 4.37462 15.442 4.44762H15.444ZM19.153 7.61462C19.2219 7.60503 19.2879 7.581 19.3469 7.54413C19.4058 7.50725 19.4563 7.45835 19.495 7.40062C19.9923 6.80062 20.4923 6.20062 20.995 5.60062C21.283 5.25662 21.28 5.26462 20.951 4.97562C20.805 4.84762 20.714 4.83062 20.579 4.99962C20.156 5.52962 19.71 6.04162 19.284 6.57062C19.163 6.72062 19.084 6.72662 18.958 6.58262C18.854 6.46654 18.7441 6.35573 18.629 6.25062C18.253 5.88762 18.369 5.85062 17.943 6.26962C17.9201 6.28427 17.9012 6.30445 17.8882 6.32831C17.8751 6.35216 17.8683 6.37893 17.8683 6.40612C17.8683 6.43332 17.8751 6.46008 17.8882 6.48394C17.9012 6.50779 17.9201 6.52798 17.943 6.54262C18.261 6.85362 18.572 7.17062 18.887 7.48462C18.9206 7.52273 18.9614 7.55383 19.007 7.57614C19.0527 7.59845 19.1023 7.61153 19.153 7.61462ZM19.137 2.24862C19.0459 2.25114 18.9576 2.28035 18.883 2.33262L17.961 2.83262C17.414 3.13262 17.492 2.97762 17.761 3.53262C17.827 3.66762 17.899 3.66562 18.018 3.59862C18.336 3.41762 18.663 3.25362 18.981 3.07262C19.0319 3.03753 19.092 3.01832 19.1538 3.01743C19.2155 3.01654 19.2762 3.03401 19.328 3.06762C19.564 3.20462 19.805 3.33062 20.046 3.45862C20.553 3.72962 20.405 3.76462 20.709 3.25862C20.788 3.12562 20.757 3.05262 20.624 2.98362C20.21 2.76662 19.802 2.54062 19.391 2.31762C19.3152 2.26971 19.2267 2.24567 19.137 2.24862ZM19.5 4.27562C19.5 3.92562 19.5 3.92562 19.156 3.92562C18.812 3.92562 18.814 3.92562 18.814 4.28262C18.814 4.61462 18.814 4.61462 19.152 4.61462C19.49 4.61462 19.5 4.61562 19.5 4.27562ZM19.5 8.77562C19.5 8.42662 19.5 8.42662 19.154 8.42662C18.808 8.42662 18.813 8.42662 18.813 8.78462C18.813 9.11562 18.813 9.11562 19.151 9.11562C19.489 9.11562 19.5 9.12062 19.5 8.77562Z" fill="#FF0000"/>
<path d="M16.626 15.6924H24.144C24.5 15.6924 24.501 15.6924 24.501 16.0564C24.501 16.8614 24.494 17.6664 24.501 18.4714C24.501 18.7014 24.423 18.7844 24.201 18.7604C24.0386 18.7473 23.8753 18.7697 23.7225 18.8262C23.5697 18.8827 23.431 18.9718 23.3162 19.0874C23.2014 19.203 23.1131 19.3423 23.0577 19.4955C23.0022 19.6486 22.9808 19.8121 22.995 19.9744C22.995 20.1154 22.995 20.2554 22.995 20.3964C22.995 20.5084 23.002 20.6284 22.841 20.6314C22.68 20.6344 22.52 20.6824 22.468 20.4584C22.386 20.1083 22.2512 19.7728 22.068 19.4634C21.6997 18.834 21.1543 18.327 20.4997 18.0056C19.845 17.6842 19.1103 17.5627 18.3871 17.6563C17.6639 17.7498 16.9842 18.0542 16.4329 18.5316C15.8816 19.0089 15.4831 19.638 15.287 20.3404C15.2808 20.3865 15.2654 20.4309 15.2419 20.471C15.2183 20.5112 15.187 20.5462 15.1498 20.5741C15.1126 20.602 15.0702 20.6223 15.0251 20.6336C14.98 20.645 14.933 20.6473 14.887 20.6404C13.287 20.6317 11.687 20.6317 10.087 20.6404C10.0423 20.6487 9.99631 20.6475 9.95206 20.6369C9.90781 20.6263 9.86627 20.6066 9.8301 20.579C9.79393 20.5514 9.76394 20.5165 9.74205 20.4766C9.72017 20.4368 9.70687 20.3927 9.70302 20.3474C9.56099 19.7916 9.28062 19.2807 8.88802 18.8624C8.83405 18.807 8.79194 18.7412 8.76426 18.669C8.73658 18.5968 8.72391 18.5197 8.72702 18.4424C8.73402 17.6294 8.72702 16.8164 8.72702 16.0034C8.72702 15.6934 8.72702 15.6914 9.04102 15.6914L16.626 15.6924ZM16.103 17.1924H16.903C17.398 17.1864 17.343 17.2704 17.351 16.7164C17.351 16.5674 17.3 16.5054 17.151 16.5064C16.363 16.5104 15.5754 16.5104 14.788 16.5064C14.7139 16.5029 14.6401 16.5197 14.5748 16.5549C14.5094 16.5902 14.4549 16.6425 14.417 16.7064C14.264 16.9424 14.097 17.1694 13.953 17.4064C13.913 17.4813 13.8516 17.5426 13.7766 17.5825C13.7016 17.6224 13.6165 17.639 13.532 17.6304C12.464 17.6224 11.395 17.6304 10.332 17.6304C9.84502 17.6304 9.90702 17.5824 9.89302 18.0724C9.89302 18.2534 9.94502 18.3194 10.132 18.3184C11.3987 18.3124 12.662 18.3124 13.922 18.3184C14.0039 18.3232 14.0856 18.3054 14.158 18.2669C14.2305 18.2285 14.291 18.1709 14.333 18.1004C14.486 17.8644 14.651 17.6364 14.797 17.4004C14.8322 17.3313 14.8874 17.2745 14.9553 17.2372C15.0233 17.1999 15.1009 17.184 15.178 17.1914C15.478 17.2024 15.796 17.1914 16.107 17.1914L16.103 17.1924ZM20.739 16.5064C20.375 16.5064 20.375 16.5064 20.375 16.8334C20.375 17.1924 20.375 17.1924 20.704 17.1924C21.091 17.1924 21.091 17.1924 21.091 16.8674C21.091 16.5074 21.091 16.5064 20.739 16.5064ZM22.215 17.1924C22.59 17.1924 22.59 17.1924 22.59 16.8794C22.59 16.5064 22.59 16.5064 22.249 16.5064C21.874 16.5064 21.874 16.5064 21.873 16.8444C21.872 17.1824 21.873 17.1934 22.214 17.1934L22.215 17.1924Z" fill="#FF0000"/>
<path d="M3.10549 21.3669C3.10768 20.6688 3.3518 19.9929 3.79628 19.4545C4.24076 18.9161 4.85812 18.5483 5.54324 18.4139C6.22837 18.2795 6.93891 18.3867 7.55389 18.7173C8.16886 19.0478 8.65024 19.5813 8.91608 20.2269C9.18191 20.8725 9.21577 21.5903 9.01187 22.2581C8.80797 22.9258 8.37893 23.5023 7.7978 23.8893C7.21667 24.2762 6.51937 24.4498 5.82464 24.3805C5.1299 24.3112 4.48067 24.0032 3.98749 23.5089C3.70647 23.2277 3.48386 22.8937 3.33249 22.5261C3.18112 22.1584 3.10397 21.7645 3.10549 21.3669ZM6.12549 20.2669C5.90956 20.2685 5.69896 20.3341 5.52029 20.4554C5.34162 20.5766 5.20291 20.7481 5.12169 20.9482C5.04048 21.1483 5.02041 21.3679 5.06401 21.5794C5.10761 21.7909 5.21294 21.9847 5.36667 22.1364C5.5204 22.288 5.71564 22.3906 5.9277 22.4313C6.13977 22.472 6.35913 22.449 6.55808 22.365C6.75702 22.281 6.92661 22.14 7.0454 21.9597C7.1642 21.7794 7.22687 21.5679 7.22549 21.3519C7.21848 21.0643 7.09971 20.7906 6.89437 20.589C6.68903 20.3874 6.41325 20.2737 6.12549 20.2719V20.2669Z" fill="#FF0000"/>
<path d="M21.8755 21.3613C21.8702 21.9569 21.6885 22.5375 21.3535 23.0298C21.0185 23.5222 20.5451 23.9043 19.9931 24.1279C19.4411 24.3515 18.8352 24.4065 18.252 24.286C17.6688 24.1655 17.1343 23.875 16.716 23.451C16.2978 23.0271 16.0145 22.4887 15.902 21.9039C15.7894 21.319 15.8527 20.714 16.0837 20.1651C16.3147 19.6162 16.7032 19.148 17.2001 18.8197C17.697 18.4914 18.28 18.3176 18.8755 18.3203C19.2724 18.3222 19.6651 18.4024 20.0309 18.5564C20.3967 18.7103 20.7285 18.9351 21.0073 19.2176C21.286 19.5002 21.5062 19.835 21.6552 20.2029C21.8042 20.5708 21.8791 20.9644 21.8755 21.3613ZM18.8455 22.4473C19.0617 22.4485 19.2733 22.3856 19.4537 22.2665C19.634 22.1475 19.7751 21.9776 19.8589 21.7784C19.9428 21.5792 19.9657 21.3596 19.9247 21.1474C19.8838 20.9352 19.7809 20.7398 19.629 20.5861C19.477 20.4324 19.283 20.3271 19.0712 20.2837C18.8595 20.2402 18.6397 20.2605 18.4395 20.342C18.2393 20.4235 18.0678 20.5625 17.9466 20.7414C17.8254 20.9204 17.7599 21.1312 17.7585 21.3473C17.7613 21.6356 17.8761 21.9116 18.0785 22.1168C18.281 22.3221 18.5553 22.4406 18.8435 22.4473H18.8455Z" fill="#FF0000"/>
<path d="M4.74017 10.8993C5.73117 10.8993 6.72217 10.9043 7.71217 10.8993C7.92717 10.8993 8.01917 10.9453 8.01217 11.1823C7.99917 11.6293 8.01217 11.6303 7.56917 11.6303H6.93717C6.78082 11.6204 6.62414 11.6438 6.47751 11.699C6.33087 11.7542 6.19762 11.8398 6.08655 11.9503C5.97548 12.0608 5.88914 12.1936 5.83322 12.34C5.7773 12.4863 5.75309 12.6429 5.76217 12.7993C5.75551 13.448 5.75551 14.0966 5.76217 14.7453C5.76217 14.9363 5.70117 15.0093 5.50717 15.0073C4.68017 15.0003 3.85317 15.0023 3.02617 15.0073C2.85617 15.0073 2.78317 14.9633 2.81817 14.7763C2.89117 14.3933 2.95217 14.0073 3.00917 13.6213C3.00939 13.594 3.01564 13.567 3.02747 13.5423C3.03931 13.5177 3.05643 13.4959 3.07763 13.4786C3.09883 13.4613 3.12359 13.4489 3.15013 13.4423C3.17666 13.4357 3.20434 13.435 3.23117 13.4403H3.51217C3.85217 13.4403 3.85217 13.4403 3.85217 13.0903C3.85217 12.7403 3.85217 12.7543 3.52117 12.7543H2.82117C2.53117 12.7543 2.43517 12.8463 2.38717 13.1353C2.29517 13.6823 2.19717 14.2273 2.11517 14.7753C2.09117 14.9373 2.03217 15.0103 1.86417 15.0073C1.49717 15.0003 1.13117 15.0003 0.764175 15.0073C0.581175 15.0073 0.556175 14.9273 0.592175 14.7733C0.874841 13.5566 1.15484 12.339 1.43217 11.1203C1.43499 11.0859 1.44495 11.0525 1.4614 11.0222C1.47786 10.9919 1.50045 10.9654 1.52774 10.9443C1.55503 10.9232 1.58642 10.9081 1.6199 10.8998C1.65338 10.8915 1.68821 10.8903 1.72217 10.8963C2.72717 10.9043 3.73417 10.8993 4.74017 10.8993Z" fill="#FF0000"/>
<path d="M4.83326 10.1838H1.93326C1.72426 10.1838 1.67326 10.1328 1.74626 9.92982C1.90026 9.50382 2.03026 9.06982 2.17826 8.64282C2.2518 8.39284 2.40703 8.17474 2.61913 8.02337C2.83123 7.872 3.08795 7.79611 3.34826 7.80782C4.80626 7.80782 6.26426 7.80782 7.72226 7.80782C7.95026 7.80782 8.01626 7.88382 8.01226 8.10782C8.00026 8.71682 8.00226 9.32682 8.01226 9.93582C8.01226 10.1288 7.95126 10.1928 7.75826 10.1918C6.78226 10.1798 5.80826 10.1838 4.83326 10.1838Z" fill="#FF0000"/>
<path d="M8.00866 13.6625V14.7625C8.00866 14.9255 7.96465 15.0105 7.78565 15.0075C7.41965 15.0005 7.05266 15.0025 6.68566 15.0075C6.52266 15.0075 6.47065 14.9355 6.47165 14.7795C6.47165 14.1085 6.47165 13.4365 6.47165 12.7655C6.46454 12.7068 6.47053 12.6472 6.48918 12.5911C6.50783 12.535 6.53868 12.4838 6.57951 12.441C6.62034 12.3983 6.67014 12.3651 6.72533 12.3439C6.78051 12.3227 6.83971 12.314 6.89865 12.3185C7.19865 12.3095 7.49066 12.3185 7.78666 12.3185C7.94866 12.3185 8.00565 12.3845 8.00365 12.5425C8.00365 12.9135 8.00866 13.2885 8.00866 13.6625Z" fill="#FF0000"/>
<path d="M24.4918 19.9591C24.4989 20.068 24.4989 20.1772 24.4918 20.2861C24.4697 20.356 24.4331 20.4206 24.3846 20.4756C24.3361 20.5307 24.2766 20.575 24.21 20.6058C24.1433 20.6365 24.0711 20.6531 23.9977 20.6543C23.9243 20.6556 23.8515 20.6416 23.7838 20.6131C23.7188 20.5731 23.7188 20.5131 23.7188 20.4491C23.7188 20.2491 23.7098 20.0431 23.7188 19.8411C23.7311 19.7642 23.7612 19.6913 23.8066 19.6281C23.852 19.5649 23.9116 19.5132 23.9805 19.477C24.0495 19.4409 24.1259 19.4214 24.2038 19.42C24.2816 19.4186 24.3587 19.4354 24.4288 19.4691C24.4518 19.4837 24.4701 19.5046 24.4818 19.5291C24.4935 19.5537 24.498 19.5811 24.4948 19.6081V19.9591H24.4918Z" fill="#FF0000"/>
</g>
<defs>
<clipPath id="clip0_86_331">
<rect width="24.001" height="24" fill="white" transform="translate(0.5 0.5)"/>
</clipPath>
</defs>
</svg>
