<svg width="188" height="188" viewBox="0 0 188 188" fill="none" xmlns="http://www.w3.org/2000/svg">
<g clip-path="url(#clip0_86_357)">
<path d="M93.969 0.5C164.945 0.5 187.438 22.994 187.438 93.969C187.438 164.944 164.944 187.438 93.969 187.438C22.994 187.438 0.5 164.944 0.5 93.969C0.5 22.994 22.994 0.5 93.969 0.5Z" fill="white"/>
<path d="M93.9683 9.94531C157.768 9.94531 177.991 30.1653 177.991 93.9683C177.991 157.771 157.771 177.991 93.9683 177.991C30.1653 177.991 9.94531 157.771 9.94531 93.9683C9.94531 30.1653 30.1653 9.94531 93.9683 9.94531Z" fill="white" stroke="#FF0000" stroke-width="2"/>
<path d="M81.4417 42.6549C82.7937 43.5921 83.9475 44.7867 84.837 46.1705C85.7266 47.5542 86.3344 49.0999 86.6257 50.7189C86.9808 53.5963 86.8836 56.5115 86.3378 59.3589C86.5248 59.1259 86.7147 58.8919 86.9077 58.6509C91.9997 52.4389 99.4357 46.4369 107.639 45.3109C110.856 45.0809 113.523 45.5329 116.039 47.6109C118.504 49.9269 120.549 52.8109 120.791 56.3059C120.291 63.7059 113.928 70.8909 108.804 75.7809C117.248 74.4809 122.533 69.6459 127.524 63.1089C129.468 60.5661 131.585 58.1604 133.86 55.9089C134.116 55.6409 134.37 55.3729 134.635 55.0999C135.3 54.4689 135.3 54.4689 135.876 54.4689L136.164 53.6049C136.873 53.1499 137.564 52.7499 138.307 52.3639C138.523 52.2489 138.742 52.1359 138.967 52.0179C140.501 51.2368 142.09 50.5668 143.721 50.0129C143.921 49.9469 144.113 49.8779 144.321 49.8129C147.459 48.9075 150.722 48.5079 153.986 48.6289C154.576 48.6289 155.167 48.6289 155.757 48.6289C158.663 48.5581 161.566 48.8749 164.389 49.5709V50.4349C163.075 51.0349 161.761 51.6349 160.446 52.2349C160.246 52.3269 160.046 52.4159 159.846 52.5109C156.959 53.8162 154.051 55.0612 151.121 56.2459C143.35 59.4373 136.004 63.5784 129.251 68.5749L127.834 69.6059C125.006 71.6649 125.006 71.6649 122.284 73.8679C116.684 78.3899 108.31 79.8589 101.314 80.0949V79.5189C101.681 79.204 102.066 78.9098 102.466 78.6379C107.666 74.3424 111.143 68.3153 112.258 61.6629C112.419 59.5289 112.549 57.7779 111.394 55.9029C108.871 54.1579 106.319 53.9219 103.33 54.2789C98.2927 55.2089 94.4127 58.3309 90.7667 61.7349C81.8667 70.0149 81.8668 70.0149 78.8488 70.0149C79.2524 68.0903 79.787 66.1956 80.4487 64.3439C81.6297 60.9439 82.4908 57.6359 80.9388 54.2029C80.2208 53.1491 79.1455 52.3911 77.9117 52.0689C76.8465 51.8388 75.7451 51.8316 74.6769 52.0477C73.6087 52.2639 72.5968 52.6987 71.7047 53.3249C70.2551 54.7206 69.3903 56.6153 69.2858 58.6249C69.2005 60.1224 69.4166 61.6217 69.9212 63.0342C70.4259 64.4466 71.2089 65.7435 72.2238 66.8479C73.8005 68.3738 75.6196 69.6275 77.6068 70.5579C78.0388 70.7769 78.0387 70.7769 78.4827 71.0039C84.2227 73.9039 90.0287 76.4879 96.5267 76.8039C96.7657 76.8179 97.0047 76.8299 97.2497 76.8409C97.8377 76.8729 98.4218 76.9009 99.0098 76.9299V77.5059C97.9558 77.7909 96.8988 78.0699 95.8418 78.3529C95.5418 78.4339 95.2487 78.5109 94.9417 78.5949C84.9167 81.2449 75.1617 78.6499 65.5997 75.4949C65.4187 75.4349 65.2368 75.3739 65.0468 75.3139C62.8754 74.5939 60.7047 73.8672 58.5347 73.1339C56.0795 72.255 53.3995 72.2307 50.9287 73.0649C49.4099 73.7768 48.1128 74.8876 47.1758 76.2789C46.8288 77.0752 46.1896 77.708 45.3898 78.0469C44.5658 78.2139 43.7537 78.3209 42.9187 78.4099C42.6047 78.4529 42.2877 78.4939 41.9657 78.5369C41.0387 78.6549 40.1138 78.7669 39.1868 78.8739C37.9258 79.0239 36.6668 79.1819 35.4048 79.3409C32.5101 79.7009 29.6147 80.0512 26.7188 80.3919C27.0067 79.5279 27.0067 79.5279 27.7847 79.0919C28.1217 78.9389 28.4587 78.7839 28.8067 78.6279C31.8009 77.0737 34.6195 75.2023 37.2137 73.0459C40.1325 70.6212 43.3882 68.6338 46.8788 67.1459C47.1008 67.0569 47.3217 66.9699 47.5527 66.8779C53.7367 64.7179 60.5068 66.6709 66.1808 69.3839C68.8508 70.7029 71.4017 72.2319 73.9507 73.7699C73.2767 73.0899 72.5997 72.4129 71.8947 71.7699C67.7391 67.8766 65.2544 62.5239 64.9628 56.8369C64.8068 52.1739 65.7868 47.8999 68.8568 44.2709C70.4268 42.5603 72.5511 41.4599 74.8541 41.1642C77.1571 40.8684 79.4904 41.3965 81.4417 42.6549Z" fill="#FF0000"/>
<path d="M92.0993 96.5117C92.4903 96.577 92.8755 96.6733 93.2513 96.7997C93.5046 97.2469 93.6982 97.7253 93.8273 98.2227C93.9713 98.6547 93.9713 98.6547 94.1183 99.0987C94.2653 99.5427 94.2593 99.5307 94.4033 99.9687C94.5793 100.427 94.7573 100.882 94.9443 101.337C95.0853 101.691 95.0853 101.691 95.2323 102.054C95.3393 102.316 95.4453 102.578 95.5553 102.849C95.8203 103.509 96.0823 104.168 96.3473 104.83C96.4973 105.199 96.6473 105.57 96.7933 105.942C97.1446 106.82 97.495 107.698 97.8443 108.574C97.9443 108.816 98.0443 109.058 98.1383 109.308C98.3383 109.8 98.535 110.293 98.7283 110.785C99.1863 111.934 99.649 113.08 100.116 114.224C100.197 114.424 100.28 114.624 100.364 114.824C100.58 115.357 100.799 115.887 101.018 116.424C101.264 116.952 101.367 117.535 101.318 118.115C102.154 117.515 102.987 116.915 103.818 116.315C104.051 116.145 104.287 115.978 104.529 115.802C105.488 115.111 106.436 114.422 107.351 113.674C107.939 113.212 107.939 113.212 108.515 113.212V112.636C109.776 111.772 109.776 111.772 110.531 111.772V111.196C110.831 111.029 111.131 110.865 111.45 110.696C112.121 110.316 112.759 109.881 113.357 109.396C113.988 108.896 113.988 108.896 114.564 108.896V108.32H115.428C115.209 110.065 114.852 111.767 114.475 113.487C114.409 113.781 114.345 114.075 114.275 114.377C113.664 117.148 112.975 119.892 112.268 122.643C111.62 125.183 111.041 127.732 110.508 130.301C110.018 132.601 109.408 134.831 108.8 137.121H76.5473C76.1524 136.202 75.8625 135.242 75.6833 134.258C75.5606 133.505 75.3767 132.763 75.1333 132.04C74.7276 130.692 74.3938 129.323 74.1333 127.94C73.6263 125.552 73.0763 123.185 72.4683 120.82C72.2033 119.743 71.9813 118.663 71.7913 117.568C71.7288 117.139 71.5914 116.725 71.3853 116.344C70.9733 115.139 70.6649 113.901 70.4633 112.644C70.3823 112.261 70.3823 112.261 70.3023 111.866C70.2533 111.618 70.2023 111.366 70.1523 111.114C70.1093 110.889 70.0633 110.665 70.0193 110.431C69.9256 109.732 69.8921 109.027 69.9193 108.323C70.9446 108.825 71.9313 109.403 72.8713 110.051L73.8133 110.662L74.5273 111.203V111.779L75.2123 112.05C75.6673 112.221 76.1117 112.419 76.5433 112.643V113.212L77.2283 113.483C77.6833 113.654 78.1277 113.852 78.5593 114.076V114.652L79.2443 114.923C79.6993 115.094 80.1437 115.292 80.5753 115.516V116.092C80.7823 116.164 80.9903 116.236 81.2063 116.308C82.0253 116.7 82.7829 117.209 83.4553 117.82C84.6273 115.358 85.6763 112.889 86.6233 110.332C87.5043 107.956 88.3883 105.591 89.3793 103.259C90.3163 101.022 91.2033 98.7637 92.0993 96.5117Z" fill="#FFD700"/>
<path d="M70.2081 82.3371L71.8671 82.5851C73.0191 82.7577 74.1701 82.9314 75.3201 83.1061C76.7947 83.3307 78.2694 83.5524 79.7441 83.7711C80.8814 83.9411 82.0201 84.1121 83.1601 84.2841C83.7011 84.3651 84.2461 84.4481 84.7901 84.5291C85.5471 84.6411 86.3081 84.7571 87.0651 84.8751C87.2871 84.9071 87.5111 84.9381 87.7391 84.9751C87.9491 85.0071 88.1571 85.0411 88.3701 85.0751C88.5491 85.1041 88.7301 85.1301 88.9111 85.1591C89.6966 85.349 90.4711 85.582 91.2311 85.8571V92.1931C90.5571 92.3171 90.5571 92.3171 89.8721 92.4461C83.6451 93.6461 78.8211 95.4841 73.9511 99.6811L73.3611 100.181C67.7681 105.362 65.9481 112.539 65.3111 119.837H56.9591C56.4769 118.616 56.1874 117.328 56.1011 116.018C56.0551 115.551 56.0011 115.085 55.9571 114.618C55.9341 114.382 55.9081 114.146 55.8821 113.904C55.7671 112.864 55.6261 111.827 55.4761 110.791C55.4471 110.591 55.4181 110.391 55.3901 110.191C55.3321 109.785 55.2721 109.376 55.2111 108.967C55.1111 108.313 55.0241 107.659 54.9291 107.003C54.6624 105.148 54.3957 103.293 54.1291 101.436C53.9617 100.29 53.7951 99.1427 53.6291 97.9941C53.5691 97.5621 53.5051 97.1301 53.4421 96.6941C52.8421 92.5841 52.3711 89.0561 54.8711 85.4701C59.0101 80.4221 64.4561 81.4561 70.2081 82.3371Z" fill="#FF0000"/>
<path d="M120.755 123.264L121.7 123.27C122.037 123.27 122.374 123.27 122.722 123.27C123.07 123.27 123.43 123.27 123.796 123.276C124.332 123.276 124.332 123.276 124.876 123.276L127.523 123.29C127.788 123.934 127.839 124.647 127.667 125.323C127.63 125.559 127.589 125.795 127.549 126.04C127.509 126.285 127.46 126.558 127.414 126.823C127.368 127.088 127.322 127.37 127.273 127.652C127.12 128.559 126.965 129.466 126.809 130.374C126.702 131.005 126.593 131.635 126.486 132.274C126.261 133.598 126.033 134.923 125.803 136.248C125.512 137.938 125.224 139.631 124.939 141.326C124.717 142.633 124.494 143.939 124.271 145.243C124.162 145.865 124.058 146.49 123.951 147.112C123.804 147.99 123.651 148.866 123.499 149.741C123.456 149.994 123.415 150.251 123.372 150.513C123.019 153.55 121.523 156.339 119.187 158.313C114.755 161.138 107.249 158.826 102.52 157.993C101.783 157.869 101.048 157.742 100.314 157.619C98.5336 157.319 96.7536 157.008 94.9766 156.697V146.912L97.1716 146.572C104.217 145.469 110.547 141.645 114.801 135.922C117.141 132.485 118.753 128.605 119.536 124.522C119.81 123.307 119.81 123.307 120.755 123.264Z" fill="#FF0000"/>
<path d="M94.9781 86.1445C95.4961 86.1905 96.0121 86.2625 96.5271 86.3445L97.6271 86.5115C97.8401 86.5435 98.0531 86.5745 98.2751 86.6115C99.4391 86.7865 100.602 86.9565 101.768 87.1295L103.81 87.4295C105.51 87.6825 107.21 87.9295 108.919 88.1695C109.896 88.3075 110.872 88.4475 111.848 88.5895C112.614 88.7015 113.377 88.8115 114.148 88.9205C115.398 89.0992 116.646 89.2815 117.892 89.4675C118.392 89.5395 118.897 89.6145 119.401 89.6865C123.707 90.2975 127.281 90.9505 130.069 94.6055C133.133 99.3235 131.169 105.092 130.269 110.262C130.137 111.037 130.001 111.809 129.869 112.583L129.61 114.069C129.328 115.699 129.059 117.332 128.804 118.969C128.686 119.548 128.686 119.548 128.398 119.836C127.779 119.862 127.162 119.868 126.543 119.865C126.166 119.865 125.791 119.865 125.402 119.865L124.202 119.856H123.002C122.017 119.856 121.032 119.851 120.047 119.842C120.018 119.496 119.989 119.151 119.961 118.797C119.278 111.073 116.574 104.002 110.543 98.8175C105.98 95.2211 100.475 93.0204 94.6901 92.4805C94.6814 91.4805 94.6757 90.4782 94.6731 89.4735C94.6731 89.1885 94.6671 88.9035 94.6641 88.6065C94.6641 88.3355 94.6641 88.0625 94.6641 87.7825C94.6641 87.5315 94.6641 87.2825 94.6641 87.0195C94.6901 86.4325 94.6901 86.4325 94.9781 86.1445Z" fill="#FF0000"/>
<path d="M58.546 123.264L59.491 123.27C59.998 123.27 59.998 123.27 60.513 123.27L61.587 123.278C62.123 123.278 62.123 123.278 62.667 123.278L65.314 123.296C65.398 123.587 65.478 123.875 65.565 124.172C65.617 124.356 65.665 124.541 65.723 124.731C65.879 125.272 66.028 125.814 66.181 126.355C67.3925 130.744 69.5546 134.812 72.514 138.273C72.693 138.486 72.871 138.699 73.058 138.915C77.505 143.751 84.241 146.351 90.658 146.915C90.946 147.203 90.946 147.203 90.978 148.03C90.978 148.571 90.978 148.571 90.978 149.122C90.978 149.315 90.978 149.505 90.978 149.704C90.978 150.317 90.972 150.931 90.969 151.544C90.969 151.959 90.969 152.373 90.969 152.788C90.969 153.807 90.9643 154.826 90.955 155.844C88.38 155.671 85.855 155.344 83.303 154.944C82.908 154.884 82.517 154.82 82.122 154.76L79.651 154.364C78.608 154.197 77.566 154.039 76.523 153.877C75.711 153.753 74.899 153.624 74.086 153.497C73.5187 153.407 72.952 153.32 72.386 153.235C68.486 152.604 64.786 151.513 62.231 148.31C60.9267 146.379 60.1038 144.164 59.831 141.85C59.753 141.297 59.753 141.297 59.673 140.73C59.618 140.33 59.564 139.93 59.512 139.53C59.46 139.13 59.397 138.703 59.339 138.289C59.2183 137.422 59.0993 136.557 58.982 135.694C58.832 134.588 58.6803 133.482 58.527 132.376C58.409 131.52 58.291 130.667 58.173 129.816C58.118 129.407 58.061 128.998 58.006 128.592C57.925 128.022 57.848 127.449 57.77 126.878C57.727 126.555 57.684 126.23 57.638 125.896C57.5414 125.129 57.508 124.356 57.538 123.584C57.826 123.296 57.826 123.296 58.546 123.264Z" fill="#FF0000"/>
<path d="M104.195 114.945C104.48 115.089 104.48 115.089 104.771 115.233C104.486 115.377 104.486 115.377 104.195 115.521V114.945Z" fill="#FFD700"/>
</g>
<defs>
<clipPath id="clip0_86_357">
<rect width="186.938" height="186.938" fill="white" transform="translate(0.5 0.5)"/>
</clipPath>
</defs>
</svg>
