<svg width="252" height="204" viewBox="0 0 252 204" fill="none" xmlns="http://www.w3.org/2000/svg">
<g clip-path="url(#clip0_86_346)">
<path d="M94.8116 22.323C96.8605 23.7433 98.609 25.5538 99.957 27.6509C101.305 29.748 102.226 32.0904 102.668 34.544C103.445 38.961 102.821 43.238 102.232 47.638C102.516 47.284 102.804 46.931 103.096 46.564C110.812 37.15 122.085 28.054 134.512 26.347C139.387 25.998 143.429 26.683 147.239 29.826C150.975 33.335 154.074 37.708 154.439 43.003C153.68 54.224 144.039 65.103 136.274 72.516C149.074 70.539 157.08 63.216 164.644 53.316C167.589 49.4627 170.797 45.8171 174.244 42.405C174.632 41.999 175.017 41.593 175.418 41.179C176.426 40.223 176.426 40.223 177.299 40.223L177.735 38.914C178.809 38.224 179.852 37.614 180.982 37.033C181.309 36.858 181.641 36.688 181.982 36.509C184.311 35.3271 186.722 34.3138 189.196 33.477C189.496 33.377 189.79 33.272 190.096 33.167C194.853 31.796 199.799 31.1917 204.747 31.377C205.642 31.377 206.536 31.377 207.431 31.377C211.835 31.2676 216.234 31.7455 220.512 32.798V34.108C218.522 35.02 216.53 35.9293 214.537 36.836C214.237 36.976 213.93 37.111 213.62 37.255C209.251 39.2363 204.847 41.1247 200.408 42.92C188.631 47.7566 177.498 54.0327 167.264 61.605C166.548 62.124 165.832 62.648 165.117 63.168C160.831 66.289 160.831 66.289 156.706 69.628C148.226 76.48 135.529 78.706 124.928 79.064V78.191C125.484 77.7134 126.067 77.2674 126.674 76.855C134.094 71.185 140.257 60.422 141.514 51.13C141.758 47.896 141.955 45.242 140.205 42.401C136.382 39.756 132.515 39.401 127.984 39.939C120.35 41.349 114.471 46.08 108.946 51.239C95.4616 63.787 95.4616 63.787 90.8846 63.787C91.4971 60.8704 92.308 57.9991 93.3116 55.193C95.1016 50.043 96.4066 45.028 94.0536 39.825C92.9366 37.966 91.4086 37.372 89.4666 36.591C87.8526 36.2415 86.1836 36.2299 84.5648 36.5569C82.9461 36.8839 81.4125 37.5424 80.0606 38.491C77.8638 40.6058 76.5532 43.4768 76.3946 46.522C76.2654 48.7912 76.5929 51.0633 77.3576 53.2038C78.1223 55.3442 79.3087 57.3094 80.8466 58.983C83.236 61.2952 85.9924 63.195 89.0036 64.605C89.6586 64.937 89.6586 64.937 90.3306 65.282C99.0306 69.673 107.831 73.592 117.675 74.068C118.037 74.09 118.399 74.107 118.775 74.125C119.665 74.173 120.551 74.217 121.442 74.26V75.133C119.842 75.565 118.242 75.988 116.642 76.416C116.192 76.538 115.742 76.656 115.28 76.783C100.087 80.798 85.3036 76.866 70.8136 72.078C70.5386 71.986 70.2636 71.895 69.9756 71.803C66.685 70.7117 63.3956 69.6117 60.1076 68.503C56.5416 67.351 52.1156 66.954 48.5806 68.403C46.4546 69.542 44.1026 71.135 42.8936 73.274C42.3682 74.4809 41.3996 75.4402 40.1876 75.954C38.9396 76.207 37.7086 76.369 36.4426 76.504C35.9666 76.569 35.4866 76.631 34.9976 76.696C33.5926 76.875 32.1916 77.045 30.7856 77.207C28.8736 77.434 26.9666 77.674 25.0546 77.914C20.668 78.4593 16.28 78.9903 11.8906 79.507C12.3266 78.198 12.3266 78.198 13.5056 77.539C14.0166 77.308 14.5266 77.072 15.0546 76.839C19.7246 74.609 23.7186 71.532 27.7946 68.38C32.3726 64.845 37.0086 61.541 42.4416 59.433C42.7776 59.298 43.1136 59.167 43.4626 59.027C52.8336 55.754 63.0946 58.713 71.6926 62.827C75.7386 64.827 79.6056 67.144 83.4686 69.474C82.4476 68.444 81.4216 67.418 80.3526 66.436C74.0551 60.5358 70.2896 52.4243 69.8476 43.806C69.6116 36.74 71.0956 30.263 75.7476 24.763C80.9406 19.29 88.2846 18.517 94.8116 22.323Z" fill="white"/>
<path d="M110.961 103.939C111.553 104.038 112.137 104.184 112.707 104.375C113.09 105.053 113.384 105.778 113.58 106.531C113.798 107.186 113.798 107.186 114.021 107.858C114.235 108.513 114.235 108.513 114.453 109.176C114.719 109.87 114.99 110.56 115.274 111.249C115.488 111.786 115.488 111.786 115.71 112.336C115.871 112.736 116.033 113.13 116.199 113.536C116.599 114.536 116.999 115.536 117.399 116.536C117.626 117.095 117.849 117.658 118.075 118.221C118.608 119.555 119.139 120.884 119.668 122.21C119.816 122.577 119.968 122.943 120.113 123.323C120.414 124.07 120.712 124.816 121.008 125.562C121.702 127.304 122.402 129.041 123.108 130.773C123.23 131.073 123.357 131.373 123.483 131.685C123.81 132.492 124.142 133.296 124.474 134.103C124.844 134.904 124.999 135.787 124.924 136.665C126.19 135.757 127.455 134.848 128.717 133.937C129.071 133.679 129.428 133.426 129.795 133.16C131.248 132.113 132.684 131.069 134.072 129.935C134.962 129.245 134.962 129.245 135.835 129.245V128.372C137.747 127.063 137.747 127.063 138.89 127.063V126.19C139.348 125.937 139.807 125.69 140.282 125.426C141.297 124.853 142.264 124.196 143.171 123.462C144.127 122.698 144.127 122.698 145 122.698V121.825H146.309C145.977 124.47 145.436 127.049 144.864 129.655C144.764 130.1 144.664 130.545 144.564 131.004C143.639 135.204 142.596 139.362 141.522 143.53C140.54 147.38 139.663 151.242 138.855 155.135C138.113 158.627 137.192 162 136.267 165.47H87.3926C86.7944 164.081 86.355 162.628 86.0826 161.139C85.8965 159.998 85.6176 158.874 85.2486 157.778C84.634 155.735 84.1282 153.66 83.7336 151.563C82.9656 147.945 82.1336 144.357 81.2106 140.774C80.8106 139.142 80.4726 137.505 80.1846 135.846C80.0899 135.197 79.8818 134.569 79.5696 133.991C78.9441 132.164 78.4757 130.286 78.1696 128.378C78.0476 127.798 78.0476 127.798 77.9256 127.2C77.8516 126.825 77.7776 126.449 77.6986 126.061C77.6336 125.721 77.5636 125.38 77.4986 125.027C77.3577 123.969 77.3082 122.9 77.3506 121.832C78.9046 122.594 80.4 123.469 81.8246 124.451L83.2516 125.376C83.6096 125.647 83.9676 125.917 84.3336 126.197V127.07L85.3726 127.48C86.0618 127.74 86.7349 128.041 87.3886 128.38V129.253L88.4276 129.663C89.1168 129.923 89.7899 130.224 90.4436 130.563V131.439L91.4826 131.849C92.1718 132.11 92.8449 132.41 93.4986 132.749V133.622C93.8126 133.731 94.1266 133.84 94.4546 133.949C95.697 134.543 96.8463 135.315 97.8666 136.239C99.6426 132.507 101.232 128.767 102.667 124.891C104.003 121.291 105.342 117.707 106.844 114.172C108.26 110.774 109.604 107.352 110.961 103.939Z" fill="white"/>
<path d="M77.7851 82.4546C78.6231 82.5816 79.4611 82.7036 80.2991 82.8296C82.0451 83.0916 83.7894 83.3549 85.5321 83.6196C87.7668 83.9603 90.0001 84.2963 92.2321 84.6276C93.9561 84.8849 95.6814 85.1439 97.4081 85.4046C98.2291 85.5266 99.0531 85.6536 99.8781 85.7756C101.026 85.9456 102.178 86.1206 103.326 86.2996C103.662 86.3476 104.003 86.3996 104.347 86.4476C104.666 86.4956 104.98 86.5476 105.303 86.5956C105.574 86.6396 105.849 86.6786 106.124 86.7226C107.318 87.0141 108.495 87.3713 109.65 87.7926V97.3926C108.629 97.5806 108.629 97.5806 107.59 97.7766C98.1541 99.6006 90.8431 102.377 83.4631 108.741L82.5681 109.505C74.0921 117.357 71.3341 128.233 70.3681 139.293H57.7121C56.9815 137.443 56.5429 135.49 56.4121 133.506C56.3421 132.799 56.2681 132.092 56.1941 131.385C56.1591 131.027 56.1201 130.669 56.0811 130.303C55.9061 128.727 55.6931 127.156 55.4661 125.585C55.4221 125.285 55.3791 124.985 55.3351 124.673C55.2481 124.058 55.1561 123.438 55.0641 122.818C54.9201 121.827 54.7801 120.836 54.6361 119.841C54.2361 117.03 53.8301 114.218 53.4181 111.404C53.1648 109.666 52.9144 107.928 52.6671 106.188C52.5751 105.533 52.4791 104.879 52.3831 104.224C51.4661 97.9956 50.7591 92.6486 54.5481 87.2146C60.8151 79.5566 69.0691 81.1236 77.7851 82.4546Z" fill="white"/>
<path d="M154.388 144.48C154.859 144.48 155.335 144.48 155.82 144.489C156.331 144.489 156.841 144.489 157.369 144.489C157.897 144.489 158.443 144.489 158.997 144.498C159.809 144.498 159.809 144.498 160.634 144.498C161.97 144.507 163.31 144.511 164.645 144.52C165.048 145.497 165.125 146.578 164.863 147.601C164.806 147.959 164.745 148.317 164.684 148.688C164.614 149.081 164.549 149.474 164.479 149.875C164.409 150.276 164.339 150.704 164.265 151.132C164.034 152.507 163.8 153.882 163.565 155.257C163.404 156.213 163.238 157.169 163.076 158.129C162.735 160.137 162.391 162.145 162.042 164.152C161.601 166.714 161.165 169.279 160.733 171.847C160.4 173.829 160.062 175.807 159.72 177.783C159.554 178.726 159.397 179.673 159.236 180.616C159.013 181.947 158.782 183.274 158.551 184.601C158.486 184.985 158.424 185.374 158.359 185.771C157.495 190.629 155.859 194.417 152.017 197.599C145.3 201.881 133.926 198.376 126.759 197.115C125.642 196.927 124.529 196.735 123.416 196.548C120.716 196.094 118.021 195.623 115.328 195.148V180.318L118.654 179.803C129.164 178.009 139.128 172.436 145.37 163.663C148.916 158.455 151.357 152.576 152.542 146.387C152.956 144.545 152.956 144.545 154.388 144.48Z" fill="white"/>
<path d="M115.327 88.2285C116.113 88.2985 116.894 88.4075 117.676 88.5285L119.347 88.7825C119.67 88.8305 119.993 88.8825 120.329 88.9305C122.088 89.2015 123.851 89.4585 125.614 89.7205L128.708 90.1785C131.287 90.5625 133.867 90.9425 136.451 91.3005C137.93 91.5098 139.41 91.7222 140.89 91.9375C142.051 92.1075 143.208 92.2735 144.369 92.4375C146.263 92.7082 148.154 92.9845 150.043 93.2665C150.807 93.3755 151.566 93.4895 152.33 93.5985C158.853 94.5285 164.272 95.5175 168.497 101.056C173.141 108.205 170.16 116.947 168.797 124.782C168.597 125.956 168.391 127.126 168.19 128.3L167.797 130.552C167.369 133.022 166.961 135.499 166.575 137.981C166.396 138.858 166.396 138.858 165.96 139.295C165.022 139.334 164.088 139.343 163.149 139.339C162.577 139.339 162.01 139.339 161.421 139.339L159.605 139.326C158.994 139.326 158.387 139.326 157.781 139.326C156.288 139.321 154.795 139.314 153.303 139.304C153.259 138.78 153.216 138.257 153.172 137.72C152.134 126.004 148.036 115.289 138.896 107.429C131.986 101.983 123.65 98.6493 114.891 97.8285C114.877 96.3098 114.869 94.7908 114.865 93.2715C114.865 92.8395 114.856 92.4075 114.852 91.9575C114.852 91.5475 114.852 91.1325 114.852 90.7095C114.852 90.3295 114.852 89.9455 114.852 89.5525C114.891 88.6645 114.891 88.6645 115.327 88.2285Z" fill="white"/>
<path d="M60.1151 144.48C60.5861 144.48 61.0621 144.48 61.5471 144.489C62.3151 144.489 62.3151 144.489 63.0961 144.493L64.7241 144.502C65.5361 144.502 65.5361 144.502 66.3611 144.502C67.6961 144.515 69.0361 144.519 70.3711 144.528C70.4981 144.969 70.6201 145.405 70.7511 145.855C70.8301 146.134 70.9081 146.414 70.9911 146.702C71.2271 147.523 71.4541 148.343 71.6851 149.164C73.5219 155.816 76.7993 161.982 81.2851 167.225C81.5561 167.548 81.8261 167.871 82.1101 168.198C88.8491 175.526 99.0581 179.467 108.782 180.318C109.218 180.754 109.218 180.754 109.266 182.007C109.266 182.828 109.266 182.828 109.266 183.661C109.266 183.953 109.266 184.241 109.266 184.543C109.266 185.473 109.257 186.402 109.253 187.332C109.253 187.96 109.253 188.589 109.253 189.217C109.248 190.763 109.241 192.306 109.231 193.848C105.331 193.586 101.497 193.084 97.6311 192.478C97.0311 192.386 96.4391 192.29 95.8421 192.199C94.5981 191.999 93.3541 191.811 92.1101 191.614C90.5301 191.361 88.9501 191.121 87.3701 190.876C86.1391 190.688 84.9081 190.492 83.6781 190.3C82.8181 190.167 81.9567 190.034 81.0941 189.9C75.1841 188.944 69.5721 187.29 65.7051 182.437C63.7289 179.511 62.4821 176.154 62.0691 172.647C61.9511 171.809 61.9511 171.809 61.8291 170.947C61.7461 170.34 61.6631 169.734 61.5851 169.127C61.4851 168.507 61.3981 167.88 61.3151 167.25C61.1317 165.941 60.9514 164.63 60.7741 163.318C60.5474 161.642 60.3174 159.966 60.0841 158.29C59.9054 156.994 59.7264 155.701 59.5471 154.41C59.4641 153.79 59.3771 153.17 59.2941 152.555C59.1721 151.691 59.0541 150.822 58.9361 149.955C58.8711 149.466 58.8051 148.973 58.7361 148.467C58.5925 147.307 58.5443 146.136 58.5921 144.967C59.0231 144.528 59.0231 144.528 60.1151 144.48Z" fill="white"/>
<path d="M129.293 131.873C129.725 132.091 129.725 132.091 130.166 132.309C129.734 132.528 129.734 132.528 129.293 132.746V131.873Z" fill="white"/>
</g>
<defs>
<clipPath id="clip0_86_346">
<rect width="251" height="203" fill="white" transform="translate(0.5 0.5)"/>
</clipPath>
</defs>
</svg>
