<svg width="59" height="29" viewBox="0 0 59 29" fill="none" xmlns="http://www.w3.org/2000/svg">
<g clip-path="url(#clip0_86_368)">
<path d="M55.5 0.5H3.5C1.84315 0.5 0.5 1.84315 0.5 3.5V25.5C0.5 27.1569 1.84315 28.5 3.5 28.5H55.5C57.1569 28.5 58.5 27.1569 58.5 25.5V3.5C58.5 1.84315 57.1569 0.5 55.5 0.5Z" fill="white"/>
<path fill-rule="evenodd" clip-rule="evenodd" d="M46.2166 15.1335C46.2166 12.6945 45.0356 10.7715 42.7786 10.7715C40.5216 10.7715 39.1406 12.6955 39.1406 15.1145C39.1406 17.9815 40.7596 19.4295 43.0836 19.4295C44.0017 19.4547 44.9106 19.2414 45.7216 18.8105V16.9105C44.9968 17.2693 44.1963 17.449 43.3876 17.4345C42.4636 17.4345 41.6446 17.1105 41.5406 15.9865H46.1986C46.1976 15.8575 46.2166 15.3625 46.2166 15.1335ZM41.5166 14.2335C41.5166 13.1565 42.1737 12.7095 42.7737 12.7095C43.3547 12.7095 43.9736 13.1575 43.9736 14.2335H41.5166Z" fill="#32325D"/>
<path fill-rule="evenodd" clip-rule="evenodd" d="M35.4621 10.7715C34.7672 10.7688 34.0981 11.0351 33.5951 11.5145L33.4711 10.9235H31.3711V22.0295L33.7521 21.5295L33.7621 18.8295C34.2388 19.2166 34.834 19.4284 35.4481 19.4295C37.1481 19.4295 38.7051 18.0585 38.7051 15.0385C38.7001 12.2765 37.1291 10.7715 35.4621 10.7715ZM34.8911 17.3345C34.6823 17.3469 34.4734 17.3133 34.2791 17.2358C34.0849 17.1584 33.9101 17.0391 33.7671 16.8865L33.7571 13.3535C33.8992 13.1959 34.0749 13.0723 34.2711 12.9916C34.4674 12.911 34.6792 12.8754 34.8911 12.8875C35.7581 12.8875 36.3591 13.8595 36.3591 15.1065C36.3591 16.3815 35.7671 17.3345 34.8911 17.3345Z" fill="#32325D"/>
<path fill-rule="evenodd" clip-rule="evenodd" d="M30.4926 7.76172L28.1016 8.26172V10.2037L30.4926 9.68972V7.76172Z" fill="#32325D"/>
<path fill-rule="evenodd" clip-rule="evenodd" d="M28.1016 10.9336H30.4926V19.2676H28.1016V10.9336Z" fill="#32325D"/>
<path fill-rule="evenodd" clip-rule="evenodd" d="M25.5381 11.6384L25.3861 10.9384H23.3281V19.2693H25.7091V13.6184C25.9268 13.3641 26.2155 13.1806 26.5382 13.0915C26.8609 13.0025 27.2028 13.0118 27.5201 13.1184V10.9284C27.1605 10.7899 26.7633 10.7843 26.4 10.9127C26.0366 11.041 25.731 11.2948 25.5381 11.6283V11.6384Z" fill="#32325D"/>
<path fill-rule="evenodd" clip-rule="evenodd" d="M20.775 8.86719L18.451 9.36719L18.442 16.9962C18.4345 17.3213 18.4934 17.6445 18.615 17.9461C18.7366 18.2477 18.9183 18.5213 19.1492 18.7503C19.3801 18.9793 19.6552 19.1589 19.9578 19.278C20.2603 19.3971 20.584 19.4533 20.909 19.4432C21.4816 19.4695 22.0523 19.362 22.576 19.1292V17.1912C22.276 17.3152 20.765 17.7542 20.765 16.3432V12.9672H22.576V10.9342H20.765L20.775 8.86719Z" fill="#32325D"/>
<path fill-rule="evenodd" clip-rule="evenodd" d="M14.3358 13.3537C14.3358 12.9827 14.6358 12.8397 15.1458 12.8397C15.9698 12.8571 16.7784 13.0659 17.5078 13.4497V11.2107C16.7559 10.9145 15.9539 10.7661 15.1458 10.7737C13.2118 10.7737 11.9258 11.7817 11.9258 13.4737C11.9258 16.1027 15.5448 15.6837 15.5448 16.8167C15.5448 17.2547 15.1638 17.3977 14.6298 17.3977C13.7159 17.3478 12.826 17.087 12.0298 16.6357V18.9027C12.8507 19.258 13.7353 19.4428 14.6298 19.4457C16.6118 19.4457 17.9728 18.4647 17.9728 16.7597C17.9628 13.9217 14.3348 14.4257 14.3348 13.3597L14.3358 13.3537Z" fill="#32325D"/>
</g>
<defs>
<clipPath id="clip0_86_368">
<rect width="58" height="28" fill="white" transform="translate(0.5 0.5)"/>
</clipPath>
</defs>
</svg>
