<svg width="186" height="35" viewBox="0 0 186 35" fill="none" xmlns="http://www.w3.org/2000/svg">
<g clip-path="url(#clip0_86_381)">
<path d="M15.3874 4.20403C15.7342 4.44533 16.0301 4.7526 16.2582 5.1083C16.4862 5.46399 16.6419 5.86114 16.7164 6.27703C16.8077 7.01703 16.7828 7.76676 16.6424 8.49903L16.7894 8.31703C18.0933 6.56684 19.9872 5.34832 22.1204 4.88703C22.5017 4.83232 22.8901 4.85646 23.2616 4.95794C23.6332 5.05943 23.9799 5.23611 24.2804 5.47703C24.9569 6.04017 25.3938 6.83958 25.5024 7.71303C25.3734 9.61303 23.7374 11.463 22.4204 12.721C23.404 12.5375 24.3393 12.1535 25.168 11.5928C25.9968 11.0321 26.7012 10.3068 27.2374 9.46203C27.7372 8.80835 28.2815 8.18988 28.8664 7.61103L29.0664 7.40303C29.2374 7.24103 29.2374 7.24103 29.3854 7.24103L29.4594 7.01903C29.6414 6.90203 29.8184 6.79903 30.0104 6.70003L30.1804 6.61103C30.5753 6.41104 30.984 6.2396 31.4034 6.09803L31.5564 6.04503C32.3636 5.81376 33.2024 5.71249 34.0414 5.74503H34.4964C35.2439 5.72673 35.9904 5.80811 36.7164 5.98703V6.20903L35.7024 6.67203L35.5464 6.74303C34.8051 7.07637 34.0577 7.3967 33.3044 7.70403C31.3061 8.52456 29.4171 9.58933 27.6804 10.874L27.3164 11.139C26.5894 11.669 26.5894 11.669 25.8894 12.239C24.2998 13.315 22.4166 13.8738 20.4974 13.839V13.683C20.5931 13.6018 20.6932 13.526 20.7974 13.456C22.1349 12.3519 23.0293 10.8024 23.3164 9.09203C23.4149 8.58753 23.3365 8.06448 23.0944 7.61103C22.4843 7.20582 21.7398 7.05577 21.0204 7.19303C19.7804 7.50486 18.6581 8.17097 17.7904 9.11003C15.5024 11.239 15.5024 11.239 14.7254 11.239C14.8278 10.7443 14.9637 10.2572 15.1324 9.78103C15.326 9.37663 15.437 8.93761 15.4586 8.48975C15.4802 8.04189 15.4122 7.59423 15.2584 7.17303C15.0739 6.90207 14.7975 6.70705 14.4804 6.62403C14.2059 6.56422 13.9219 6.56204 13.6465 6.61764C13.3711 6.67323 13.1102 6.7854 12.8804 6.94703C12.5076 7.30597 12.2853 7.79323 12.2584 8.31003C12.2373 8.6947 12.2935 9.07969 12.4237 9.44227C12.5539 9.80485 12.7554 10.1377 13.0164 10.421C13.4218 10.8134 13.8895 11.1358 14.4004 11.375L14.6254 11.49C16.0487 12.3109 17.6304 12.8192 19.2654 12.981L19.4514 12.991L19.9044 13.014V13.162L19.0894 13.38L18.8584 13.442C16.2804 14.123 13.7724 13.456 11.3134 12.642L11.1714 12.595C10.6127 12.4097 10.0547 12.2227 9.49741 12.034C8.86605 11.8079 8.17683 11.8015 7.54141 12.016C7.15094 12.199 6.81741 12.4845 6.5764 12.842C6.48733 13.0469 6.32303 13.2098 6.1174 13.297C5.9054 13.34 5.69641 13.367 5.48241 13.39L5.23741 13.423C4.99941 13.453 4.7614 13.482 4.5224 13.51C4.1984 13.549 3.8744 13.589 3.5504 13.63C2.8064 13.7227 2.06174 13.8127 1.31641 13.9C1.39041 13.678 1.39041 13.678 1.59041 13.566L1.85341 13.447C2.62333 13.0504 3.34847 12.5724 4.0164 12.021C4.76679 11.3973 5.60388 10.8859 6.5014 10.503L6.67441 10.434C8.294 10.0165 10.0126 10.2475 11.4644 11.078C12.1514 11.417 12.8074 11.81 13.4644 12.206C13.2914 12.031 13.1174 11.857 12.9354 11.691C11.8666 10.6899 11.2275 9.31352 11.1524 7.85103C11.0575 6.68547 11.4156 5.52819 12.1524 4.62003C12.556 4.18042 13.102 3.89758 13.694 3.82146C14.2859 3.74534 14.8857 3.88084 15.3874 4.20403Z" fill="#FF0000"/>
<path d="M18.1292 18.0527C18.231 18.0693 18.3313 18.0941 18.4292 18.1267C18.4943 18.2418 18.544 18.3648 18.5772 18.4927L18.6522 18.7177L18.7252 18.9417C18.7702 19.0597 18.8162 19.1767 18.8642 19.2937L18.9382 19.4777L19.0212 19.6777L19.2212 20.1877C19.2602 20.2827 19.2972 20.3777 19.3362 20.4737C19.4269 20.6997 19.5169 20.9254 19.6062 21.1507C19.6312 21.2127 19.6562 21.2747 19.6822 21.3397C19.7335 21.4664 19.7842 21.5931 19.8342 21.7197C19.9522 22.0151 20.0712 22.3097 20.1912 22.6037L20.2552 22.7587C20.3112 22.8957 20.3672 23.0317 20.4232 23.1687C20.486 23.3046 20.5122 23.4546 20.4992 23.6037L21.1432 23.1407L21.3262 23.0087C21.5732 22.8307 21.8162 22.6537 22.0522 22.4617C22.2032 22.3447 22.2032 22.3447 22.3522 22.3447V22.1997C22.6762 21.9777 22.6762 21.9777 22.8702 21.9777V21.8297L23.1062 21.6997C23.2785 21.6025 23.4424 21.4911 23.5962 21.3667C23.7582 21.2367 23.7582 21.2367 23.9062 21.2367V21.0887H24.1282C24.0722 21.5377 23.9802 21.9747 23.8832 22.4177C23.8662 22.4937 23.8502 22.5687 23.8332 22.6467C23.6762 23.3587 23.4992 24.0647 23.3172 24.7717C23.1502 25.4247 23.0022 26.0807 22.8642 26.7407C22.7382 27.3327 22.5822 27.9057 22.4252 28.4947H14.1302C14.0287 28.2585 13.9542 28.0116 13.9082 27.7587C13.8768 27.5652 13.8296 27.3746 13.7672 27.1887C13.6629 26.8419 13.5771 26.4897 13.5102 26.1337C13.3802 25.5197 13.2382 24.9107 13.0822 24.3027C13.0142 24.0257 12.9572 23.7477 12.9082 23.4667C12.8935 23.3567 12.8597 23.2501 12.8082 23.1517C12.7023 22.8417 12.623 22.5232 12.5712 22.1997C12.5502 22.0997 12.5502 22.0997 12.5302 21.9997L12.4912 21.8067C12.4802 21.7487 12.4682 21.6907 12.4572 21.6307C12.4333 21.4511 12.425 21.2698 12.4322 21.0887C12.6958 21.2178 12.9495 21.3662 13.1912 21.5327L13.4332 21.6897L13.6172 21.8287V21.9767L13.7932 22.0467C13.9101 22.091 14.0243 22.142 14.1352 22.1997V22.3527L14.3112 22.4227C14.4281 22.467 14.5423 22.518 14.6532 22.5757V22.7237L14.8292 22.7937C14.9461 22.838 15.0603 22.889 15.1712 22.9467V23.0947L15.3332 23.1507C15.5437 23.2517 15.7384 23.3827 15.9112 23.5397C16.2112 22.9067 16.4822 22.2717 16.7262 21.6137C16.9532 21.0027 17.1802 20.3947 17.4352 19.7947C17.6712 19.2127 17.8992 18.6317 18.1292 18.0527Z" fill="#FFD700"/>
<path d="M12.4994 14.4084L12.9264 14.4724L13.8144 14.6064L14.9524 14.7774L15.8304 14.9094L16.2494 14.9724L16.8344 15.0614L17.0074 15.0864L17.1694 15.1114L17.3084 15.1324C17.5116 15.1816 17.7119 15.242 17.9084 15.3134V16.9434L17.5584 17.0084C16.0461 17.2315 14.6273 17.8761 13.4644 18.8684L13.3124 18.9984C12.0059 20.3593 11.2656 22.166 11.2414 24.0524H9.09339C8.96927 23.7385 8.89472 23.4072 8.8724 23.0704C8.8604 22.9504 8.8484 22.8304 8.8354 22.7104C8.8294 22.6494 8.8224 22.5894 8.8164 22.5264C8.7864 22.2594 8.7504 21.9924 8.7164 21.7264L8.6944 21.5714C8.6794 21.4714 8.6644 21.3614 8.6484 21.2564C8.6244 21.0884 8.6004 20.9204 8.5754 20.7514C8.50873 20.2747 8.43973 19.7974 8.3684 19.3194C8.32573 19.0247 8.2834 18.7297 8.2414 18.4344C8.2254 18.3234 8.2094 18.2124 8.1934 18.1014C8.05278 17.621 8.0128 17.1167 8.07595 16.6201C8.13909 16.1235 8.30402 15.6453 8.5604 15.2154C9.6194 13.9164 11.0204 14.1824 12.4994 14.4084Z" fill="#FF0000"/>
<path d="M25.4981 24.9316H26.5581H27.2391C27.3075 25.0974 27.3205 25.2809 27.2761 25.4546C27.2661 25.5156 27.2561 25.5756 27.2461 25.6386C27.2361 25.7016 27.2231 25.7716 27.2111 25.8386C27.1991 25.9056 27.1871 25.9796 27.1751 26.0516C27.1358 26.285 27.0961 26.5183 27.0561 26.7516C27.0291 26.9136 27.0001 27.0756 26.9731 27.2386C26.9151 27.5793 26.8564 27.92 26.7971 28.2606C26.7224 28.6953 26.6484 29.1306 26.5751 29.5666C26.5178 29.9 26.4604 30.2356 26.4031 30.5736C26.3751 30.7336 26.3481 30.8946 26.3211 31.0546C26.2831 31.2806 26.2441 31.5056 26.2051 31.7306C26.1941 31.7956 26.1841 31.8616 26.1721 31.9306C26.0818 32.7122 25.697 33.4299 25.0961 33.9376C23.9561 34.6646 22.0261 34.0696 20.8101 33.8556L20.2431 33.7556C19.7851 33.6786 19.3281 33.5986 18.8711 33.5186V31.0126L19.4351 30.9256C21.2472 30.642 22.8757 29.6585 23.9701 28.1866C24.571 27.3028 24.9845 26.3054 25.1851 25.2556C25.2551 24.9426 25.2551 24.9426 25.4981 24.9316Z" fill="#FF0000"/>
<path d="M18.8689 15.3867C19.0019 15.3987 19.1349 15.4167 19.2689 15.4377L19.5529 15.4807L19.7199 15.5057C20.0199 15.5517 20.3199 15.5957 20.6199 15.6397L21.1449 15.7177C21.5829 15.7827 22.0199 15.8477 22.4589 15.9077L23.2069 16.0167L23.7969 16.1017C24.1182 16.1477 24.4392 16.1947 24.7599 16.2427L25.1479 16.2987C25.669 16.3011 26.1835 16.4153 26.6567 16.6335C27.1299 16.8518 27.5507 17.169 27.8909 17.5637C28.6789 18.7767 28.1729 20.2637 27.9409 21.5897C27.9069 21.7897 27.8719 21.9897 27.8409 22.1897L27.7739 22.5717C27.7012 22.9911 27.6322 23.4111 27.5669 23.8317C27.5369 23.9807 27.5369 23.9807 27.4669 24.0547C27.3079 24.0617 27.1489 24.0627 26.9899 24.0617H26.6899H26.3819H26.0719H25.3119C25.3049 23.9727 25.2969 23.8837 25.2899 23.7927C25.2485 22.8169 25.013 21.8591 24.5971 20.9753C24.1813 20.0916 23.5934 19.2996 22.8679 18.6457C21.6961 17.7217 20.2825 17.1557 18.7969 17.0157C18.7969 16.7577 18.7969 16.5001 18.7969 16.2427C18.7969 16.1697 18.7969 16.0957 18.7969 16.0197C18.7969 15.9437 18.7969 15.8797 18.7969 15.8077C18.7969 15.7357 18.7969 15.6777 18.7969 15.6077C18.7969 15.4607 18.7969 15.4607 18.8689 15.3867Z" fill="#FF0000"/>
<path d="M9.50045 24.9316H10.5605H11.2415C11.2625 25.0066 11.2835 25.0806 11.3055 25.1566L11.3465 25.3006C11.3865 25.4396 11.4255 25.5786 11.4645 25.7186C11.7748 26.8498 12.3307 27.8987 13.0925 28.7906C13.1385 28.8456 13.1845 28.9006 13.2325 28.9556C14.4404 30.1694 16.0497 30.9008 17.7585 31.0126C17.8325 31.0866 17.8325 31.0866 17.8405 31.2996C17.8405 31.4386 17.8405 31.4386 17.8405 31.5806C17.8405 31.6306 17.8405 31.6806 17.8405 31.7306C17.8405 31.8886 17.8405 32.0456 17.8405 32.2036C17.8405 32.3106 17.8405 32.4166 17.8405 32.5236C17.8405 32.7856 17.8405 33.0476 17.8405 33.3096C17.1785 33.2656 16.5285 33.1796 15.8725 33.0766L15.5725 33.0296L14.9275 32.9316C14.6595 32.8886 14.3915 32.8476 14.1275 32.8066L13.5005 32.7066L13.0585 32.6386C12.0577 32.5682 11.1226 32.1148 10.4475 31.3726C10.1122 30.8762 9.9006 30.3066 9.83045 29.7116L9.78745 29.4236C9.77345 29.3236 9.75945 29.2176 9.74645 29.1146L9.70245 28.7956C9.67112 28.5736 9.64045 28.3513 9.61045 28.1286C9.57179 27.844 9.53279 27.5596 9.49345 27.2756L9.40245 26.6176C9.38845 26.5126 9.37345 26.4076 9.35945 26.3026C9.33845 26.1556 9.31845 26.0086 9.29845 25.8616C9.28745 25.7776 9.27745 25.6946 9.26545 25.6086C9.24117 25.4113 9.23314 25.2123 9.24145 25.0136C9.31545 24.9396 9.31545 24.9396 9.50045 24.9316Z" fill="#FF0000"/>
<path d="M21.2383 22.793L21.3863 22.867L21.2383 22.941V22.793Z" fill="#FFD700"/>
<path d="M161.711 12.1454C161.95 12.3844 161.95 12.3844 161.981 13.0004C161.981 13.3824 161.981 13.3824 161.981 13.7724C161.981 14.0254 161.981 14.2794 161.981 14.5394C161.966 15.105 161.875 15.666 161.711 16.2074C161.84 16.2644 161.971 16.3224 162.103 16.3814C163.983 17.2634 163.983 17.2634 164.339 18.1184C164.359 18.764 164.279 19.4089 164.1 20.0294C163.45 20.4636 162.663 20.6437 161.89 20.5354C161.57 20.5354 161.57 20.5354 161.245 20.5234L160.755 20.5064C160.743 21.5731 160.734 22.6398 160.729 23.7064C160.729 24.0694 160.729 24.4304 160.719 24.7934C160.712 25.3164 160.709 25.8374 160.707 26.3604C160.707 26.6754 160.707 26.9884 160.7 27.3114C160.703 28.0232 160.886 28.7226 161.233 29.3444C161.681 29.5802 162.165 29.7416 162.666 29.8224C162.709 29.6554 162.752 29.4884 162.797 29.3154C162.857 29.0984 162.916 28.8804 162.979 28.6564C163.042 28.4324 163.096 28.2264 163.156 28.0014C163.383 27.4324 163.383 27.4324 164.1 26.9554C165.164 26.5104 166.347 26.4364 167.459 26.7454C167.914 27.0991 168.244 27.5899 168.4 28.1454C168.428 28.6571 168.351 29.1691 168.176 29.6505C168 30.1318 167.728 30.5723 167.377 30.9454C166.556 31.5391 165.587 31.8945 164.577 31.9724C164.115 31.8599 163.698 31.6099 163.382 31.2554V30.7774H162.904C162.849 30.9234 162.794 31.0714 162.737 31.2214C162.578 31.4884 162.364 31.7189 162.11 31.8978C161.856 32.0766 161.567 32.1999 161.262 32.2594C161.057 32.3354 160.851 32.4124 160.638 32.4934C159.454 32.931 158.184 33.0808 156.932 32.9304C156.632 32.7442 156.372 32.5007 156.167 32.2137C155.962 31.9268 155.816 31.6021 155.737 31.2584C155.68 30.3484 155.692 29.4374 155.692 28.5254V27.7254C155.723 25.3122 155.897 22.9029 156.215 20.5104H154.782C154.763 20.7664 154.744 21.0244 154.722 21.2864C154.691 21.6626 154.573 22.0264 154.376 22.3482C154.178 22.67 153.908 22.9407 153.587 23.1384C152.948 23.5433 152.187 23.7124 151.437 23.6164C151.437 23.8694 151.447 24.1224 151.451 24.3834C151.47 25.3274 151.48 26.2684 151.489 27.2124C151.489 27.6214 151.501 28.0274 151.508 28.4354C151.52 29.0204 151.525 29.6084 151.529 30.1964C151.529 30.3784 151.539 30.5574 151.543 30.7434C151.573 31.275 151.494 31.8071 151.311 32.3072C151.129 32.8072 150.846 33.2647 150.48 33.6514C150.046 33.9369 149.56 34.1341 149.05 34.2317C148.54 34.3294 148.016 34.3255 147.508 34.2204C146.896 33.8904 146.896 33.8904 146.419 33.1744C146.368 32.7977 146.35 32.4173 146.364 32.0374V31.3514C146.364 30.9904 146.364 30.9904 146.374 30.6204C146.374 30.3744 146.374 30.1304 146.374 29.8774C146.431 24.4614 146.431 24.4614 146.892 22.9014H145.697C145.73 23.5014 145.765 24.1034 145.802 24.7074C145.812 24.8774 145.821 25.0444 145.831 25.2184C145.872 26.0317 145.959 26.8419 146.091 27.6454C146.165 27.886 146.171 28.1428 146.106 28.3862C146.041 28.6296 145.909 28.8498 145.725 29.0214C143.164 30.9684 143.164 30.9684 141.635 30.7844C141.213 30.4186 140.883 29.959 140.672 29.4424C140.46 28.9259 140.373 28.3669 140.417 27.8104C140.417 27.5544 140.417 27.2964 140.417 27.0314C140.417 26.7664 140.417 26.4934 140.424 26.2164C140.431 25.9394 140.424 25.6714 140.424 25.3924C140.424 24.7211 140.428 24.0498 140.436 23.3784C139.891 23.8204 139.891 23.8204 139.906 24.4994C139.906 24.8994 139.906 24.8994 139.906 25.3074C139.906 25.7474 139.906 25.7474 139.896 26.1964C139.896 26.8131 139.898 27.4294 139.903 28.0454C139.867 30.5684 139.867 30.5684 139.017 31.5814C138.678 31.9344 138.26 32.2028 137.798 32.365C137.337 32.5272 136.843 32.5787 136.358 32.5154C135.817 32.4062 135.321 32.1364 134.936 31.7414C134.456 31.8014 133.978 31.8844 133.502 31.9804C131.737 32.2606 129.933 31.831 128.485 30.7854C128.038 30.3502 127.638 29.87 127.29 29.3524C127.151 29.5794 127.015 29.8064 126.872 30.0404C126.155 31.0344 126.155 31.0344 125.379 31.2634C124.551 31.4033 123.7 31.2332 122.99 30.7854C122.166 29.5471 121.73 28.0917 121.736 26.6044C121.717 26.4044 121.7 26.2124 121.681 26.0094C121.636 25.5314 121.595 25.0514 121.557 24.5734C121.402 25.1344 121.246 25.6984 121.093 26.2604C121.05 26.4184 121.007 26.5754 120.962 26.7354C120.749 27.5042 120.587 28.2863 120.477 29.0764C120.467 29.5673 120.277 30.0374 119.944 30.3974C118.93 31.0276 117.715 31.2512 116.544 31.0234C116.137 30.8072 115.804 30.4743 115.588 30.0674C115.422 29.2204 115.322 28.3619 115.288 27.4994C115.259 27.1454 115.259 27.1454 115.233 26.7874C115.188 26.2094 115.147 25.6284 115.109 25.0504C114.631 26.5011 114.289 27.9928 114.086 29.5064C114.007 29.7913 113.865 30.0546 113.67 30.276C113.474 30.4975 113.231 30.6714 112.958 30.7844C112.031 31.0752 111.052 31.1568 110.091 31.0234C109.878 30.9093 109.692 30.7509 109.546 30.5589C109.4 30.3669 109.296 30.1458 109.243 29.9104C109.12 29.1593 109.059 28.3995 109.059 27.6384C109.054 27.4758 109.049 27.3108 109.045 27.1434L109.002 25.5884C108.99 25.2344 108.98 24.8884 108.971 24.5304C108.945 23.6704 108.92 22.8088 108.897 21.9454C108.878 22.2844 108.878 22.2844 108.861 22.6314C108.815 23.4748 108.768 24.3174 108.72 25.1594C108.698 25.5254 108.679 25.8884 108.66 26.2534C108.631 26.7764 108.6 27.3024 108.569 27.8254C108.562 27.9874 108.555 28.1504 108.545 28.3174C108.565 29.1029 108.356 29.8773 107.945 30.5464C107.113 30.8896 106.197 30.9729 105.317 30.7854C104.627 30.3786 104.052 29.8033 103.645 29.1134C103.552 29.2214 103.459 29.3304 103.361 29.4434C102.939 29.8024 102.449 30.0711 101.92 30.233C101.39 30.3948 100.834 30.4464 100.284 30.3844C99.6233 30.2565 99.0335 29.8889 98.6277 29.3524C98.433 29.0527 98.2726 28.732 98.1497 28.3964C97.9967 28.5684 97.8437 28.7404 97.6867 28.9194C96.764 29.9373 95.5281 30.6183 94.1747 30.8544C93.6107 30.7854 93.6107 30.7854 93.0747 30.2164C92.5934 29.6202 92.3485 28.8677 92.3867 28.1024C92.3867 27.8924 92.3867 27.6844 92.3867 27.4694C92.3867 27.2544 92.3867 27.0154 92.3867 26.7834C92.3867 26.5514 92.3867 26.3204 92.3867 26.0834C92.396 24.3754 92.435 22.6688 92.5037 20.9634C92.5107 20.7414 92.5177 20.5194 92.5257 20.2894C92.5357 20.0814 92.5447 19.8734 92.5547 19.6614C92.5617 19.4794 92.5687 19.2984 92.5757 19.1094C92.6046 18.7468 92.719 18.3962 92.9097 18.0864C92.9817 17.9434 93.0557 17.7974 93.1297 17.6464C93.0023 17.3128 92.8422 16.9925 92.6517 16.6904C92.521 16.1612 92.4961 15.6114 92.5785 15.0726C92.6608 14.5337 92.8489 14.0164 93.1317 13.5504C93.5524 13.2751 94.0269 13.0926 94.5237 13.0152C95.0205 12.9377 95.5281 12.9672 96.0127 13.1014C96.8014 13.4569 97.4666 14.0389 97.9237 14.7734C97.9955 15.7357 97.9148 16.7033 97.6847 17.6404C97.7567 17.9604 97.8357 18.2804 97.9237 18.5964C98.1507 18.4724 98.3797 18.3504 98.6137 18.2214C98.9137 18.0634 99.2137 17.9034 99.5217 17.7464L99.9737 17.4984C100.563 17.1455 101.23 16.9413 101.916 16.9034C102.266 17.0709 102.58 17.3071 102.838 17.5981C103.095 17.8891 103.292 18.229 103.416 18.5974C103.504 19.3012 103.524 20.0118 103.476 20.7194C103.476 20.9054 103.466 21.0924 103.464 21.2854C103.452 21.7444 103.435 22.2004 103.416 22.6594C103.438 22.4824 103.457 22.3054 103.478 22.1244C103.611 20.3663 104.163 18.6656 105.088 17.1644C106.161 16.5058 107.425 16.2282 108.676 16.3764C109.149 16.4484 109.149 16.4484 109.866 16.9264C109.93 17.5618 109.93 18.2021 109.866 18.8374C110.136 18.8184 110.406 18.7964 110.685 18.7774C111.039 18.7514 111.392 18.7274 111.748 18.7034C111.925 18.6894 112.104 18.6774 112.288 18.6624C113.633 18.5714 113.633 18.5714 114.166 18.8364C114.23 18.6234 114.295 18.4134 114.36 18.1934C114.805 17.6103 115.364 17.1229 116.002 16.7604C116.641 16.3978 117.345 16.1676 118.075 16.0834C118.528 16.0348 118.986 16.077 119.423 16.2074C119.975 16.8273 120.383 17.5615 120.618 18.3574C120.671 18.2144 120.726 18.0684 120.78 17.9204C121.399 16.9004 122.634 16.5774 123.723 16.2074C124.513 16.0012 125.35 16.086 126.083 16.4464C126.453 17.1993 126.705 18.0053 126.828 18.8354C127.282 18.2988 127.704 17.7366 128.094 17.1514C129.502 15.2828 131.496 13.9405 133.758 13.3394C135.524 13.1814 136.895 13.1504 138.297 14.2954C138.798 14.8447 139.175 15.4946 139.405 16.2017C139.635 16.9088 139.71 17.6567 139.628 18.3954C139.516 19.137 139.123 19.8074 138.532 20.2684C138.019 20.3914 137.49 20.4315 136.965 20.3874C136.556 20.3874 136.556 20.3874 136.143 20.3804C135.719 20.3794 135.31 20.2269 134.989 19.9504C134.633 19.3877 134.377 18.768 134.232 18.1184C133.795 18.218 133.388 18.4204 133.045 18.7088C132.703 18.9972 132.434 19.3632 132.261 19.7764L131.898 20.4094C131.264 21.8681 131.079 23.4821 131.365 25.0464C131.706 26.0399 132.381 26.8842 133.276 27.4354C133.673 27.4762 134.073 27.4762 134.471 27.4354V25.7594C134.285 25.6854 134.098 25.6084 133.905 25.5324C133.664 25.4324 133.422 25.3274 133.172 25.2214L132.441 24.9214C131.841 24.5674 131.841 24.5674 131.567 24.1214C131.605 23.6104 131.605 23.6104 132.078 23.0004C132.812 22.415 133.642 21.9613 134.532 21.6594C134.69 21.5994 134.85 21.5404 135.012 21.4754C136.623 20.6902 138.441 20.436 140.206 20.7494L140.445 20.9884C140.462 20.7474 140.462 20.7474 140.481 20.4984C140.498 20.2854 140.517 20.0734 140.536 19.8534C140.56 19.5384 140.56 19.5384 140.586 19.2154C140.61 18.8178 140.739 18.4337 140.961 18.1024C141.027 17.9518 141.094 17.7988 141.161 17.6434C141.033 17.3098 140.873 16.9895 140.683 16.6874C140.55 16.1601 140.523 15.6118 140.602 15.0739C140.682 14.536 140.866 14.019 141.146 13.5524C141.567 13.2759 142.042 13.0924 142.54 13.0145C143.038 12.9365 143.546 12.9658 144.032 13.1004C144.82 13.4559 145.486 14.0379 145.943 14.7724C146.077 15.5655 146.033 16.3786 145.814 17.1524C145.709 17.688 145.709 18.2389 145.814 18.7744C145.85 19.0614 145.85 19.0614 145.888 19.3524C145.907 19.4984 145.926 19.6414 145.948 19.7894C146.255 19.7076 146.54 19.5591 146.783 19.3547C147.026 19.1502 147.221 18.8948 147.355 18.6064C147.541 18.0184 147.704 17.4284 147.855 16.8314C148.03 15.4689 148.712 14.2222 149.765 13.3394C150.216 13.0654 150.691 12.8312 151.184 12.6394C151.423 12.5344 151.662 12.4294 151.906 12.3194C152.268 12.2218 152.646 12.1985 153.017 12.2511C153.388 12.3037 153.745 12.431 154.066 12.6254C155.402 13.8054 155.638 15.2204 155.977 16.9254H156.455C156.455 16.7894 156.455 16.6534 156.445 16.5144C156.416 14.0254 156.416 14.0254 156.693 13.1024C157.207 12.7735 157.772 12.5313 158.365 12.3854C158.547 12.3324 158.726 12.2854 158.912 12.2304C159.811 11.9029 160.793 11.8731 161.711 12.1454ZM152.871 19.0744L153.827 19.7914L154.066 19.0744H152.871ZM97.6817 19.7914C97.4811 21.5007 97.4259 23.2239 97.5167 24.9424C97.5267 25.1044 97.5337 25.2674 97.5427 25.4344C97.5444 26.223 97.7571 26.9968 98.1587 27.6754C98.2129 25.0451 98.1331 22.4137 97.9197 19.7914H97.6817Z" fill="#070300"/>
<path d="M62.3224 16.2079C62.5824 16.3728 62.8016 16.5945 62.9634 16.8564C63.1252 17.1183 63.2254 17.4136 63.2564 17.7199C63.3134 18.0279 63.3684 18.3389 63.4264 18.6569C63.4844 18.9749 63.5414 19.2709 63.6004 19.5859C63.7464 20.4509 63.8754 21.3129 63.9944 22.1809C64.1424 21.9559 64.1424 21.9559 64.2944 21.7249C66.0474 19.1249 67.5694 17.5099 70.6844 16.6849C71.631 16.4946 72.6126 16.5878 73.5064 16.9529C73.9199 17.2567 74.2369 17.6734 74.4194 18.1529C74.6054 18.3799 74.7924 18.6049 74.9854 18.8389C75.6314 18.9054 76.2832 18.8903 76.9254 18.7939C78.7744 18.5839 78.7744 18.5839 79.2854 18.8389C79.3504 18.6259 79.4144 18.4159 79.4794 18.1959C79.9252 17.6127 80.4839 17.1253 81.1222 16.7627C81.7604 16.4002 82.4652 16.17 83.1944 16.0859C83.6472 16.0374 84.1051 16.0796 84.5414 16.2099C85.0933 16.8298 85.5014 17.5639 85.7364 18.3599C85.7894 18.2169 85.8444 18.0709 85.8984 17.9229C86.5174 16.8999 87.7524 16.5749 88.8414 16.2079C89.6313 16.0017 90.469 16.0865 91.2014 16.4469C92.1764 18.1819 92.0014 20.1719 91.9614 22.0899L91.9394 23.8029C91.9394 24.0539 91.9324 24.3029 91.9274 24.5629C91.9561 25.2876 92.0424 26.0089 92.1854 26.7199C92.4124 29.4129 92.4124 29.4129 91.9344 30.2849C91.6695 30.5882 91.346 30.8348 90.9835 31.0101C90.6209 31.1853 90.2267 31.2856 89.8244 31.3049C89.2175 31.3091 88.624 31.1265 88.1244 30.7819C87.3002 29.5434 86.8633 28.0876 86.8694 26.5999C86.8504 26.3999 86.8334 26.2079 86.8144 26.0049C86.7694 25.5269 86.7284 25.0469 86.6904 24.5689C86.5354 25.1299 86.3794 25.6939 86.2274 26.2559C86.1844 26.4139 86.1414 26.5709 86.0964 26.7309C85.8832 27.5007 85.7212 28.2837 85.6114 29.0749C85.6019 29.5657 85.4122 30.0359 85.0784 30.3959C84.0647 31.026 82.8502 31.2496 81.6784 31.0219C81.2716 30.8056 80.9387 30.4727 80.7224 30.0659C80.5568 29.2188 80.4565 28.3603 80.4224 27.4979C80.3934 27.1439 80.3934 27.1439 80.3674 26.7859C80.3224 26.2079 80.2814 25.6269 80.2434 25.0489C79.7659 26.4995 79.4234 27.9912 79.2204 29.5049C79.1421 29.7897 78.9998 30.0529 78.8043 30.2744C78.6088 30.4959 78.3654 30.6698 78.0924 30.7829C77.1662 31.0737 76.187 31.1553 75.2254 31.0219C74.995 30.9098 74.7957 30.7425 74.6453 30.5349C74.495 30.3273 74.3981 30.0858 74.3634 29.8319C74.2394 29.3569 74.1344 28.8739 74.0314 28.3939C73.9524 28.5129 73.8734 28.6309 73.7924 28.7519C72.3433 30.5981 70.2299 31.8046 67.9034 32.1139C66.8475 32.2086 65.7851 32.0285 64.8194 31.5909C64.2768 31.1467 63.8349 30.5921 63.523 29.964C63.2112 29.3359 63.0364 28.6487 63.0104 27.9479C63.0104 27.5849 63.0104 27.2189 63.0104 26.8559C63.0104 26.5839 63.0104 26.5839 63.0104 26.3039C63.0104 26.1269 63.0104 25.9499 63.0104 25.7659V25.2749C63.0489 24.7912 63.1394 24.3131 63.2804 23.8489C63.1444 23.9249 63.0084 24.0039 62.8694 24.0829C62.0126 24.419 61.0777 24.5037 60.1744 24.3269C59.7424 24.1492 59.3395 23.9075 58.9794 23.6099C58.1755 25.1251 57.6556 26.7746 57.4454 28.4769C57.1734 29.9529 57.1734 29.9529 56.5944 30.5459C55.5411 31.0035 54.3832 31.1663 53.2444 31.0169C52.9652 30.8326 52.7332 30.5852 52.5672 30.2948C52.4011 30.0044 52.3057 29.679 52.2884 29.3449C52.2644 29.0219 52.2524 28.6979 52.2504 28.3749C52.2504 28.1859 52.2504 27.9979 52.2434 27.8039C52.2364 27.6099 52.2434 27.4039 52.2434 27.1949C52.2434 26.9859 52.2434 26.7769 52.2434 26.5639C52.2434 26.1219 52.2434 25.6819 52.2434 25.2429C52.2434 24.5689 52.2334 23.8959 52.2264 23.2239C52.2264 22.7939 52.2264 22.3659 52.2264 21.9389C52.2264 21.7389 52.2264 21.5389 52.2164 21.3299C52.1574 20.5927 52.2954 19.8531 52.6164 19.1869C53.3058 18.7225 54.1418 18.5278 54.9654 18.6399L55.5034 18.6109C55.9524 18.5919 56.4034 18.5919 56.8484 18.5939L57.0874 18.8329C57.1524 18.6199 57.2164 18.4099 57.2814 18.1899C57.8528 17.4218 58.6278 16.829 59.5188 16.4787C60.4097 16.1284 61.3809 16.0346 62.3224 16.2079ZM70.2064 21.4639L68.7694 23.1359H69.4864C69.8406 22.7673 70.1606 22.3673 70.4424 21.9409L70.2064 21.4639ZM74.0294 21.9419C73.7474 22.3479 73.4688 22.7556 73.1934 23.1649C71.8592 24.8744 70.0828 26.1864 68.0564 26.9589L68.2954 27.6759C69.6042 27.6249 70.8721 27.2059 71.9534 26.4669C73.4694 25.5249 73.4694 25.5249 74.2694 25.5249V21.9419H74.0294Z" fill="#070700"/>
<path d="M172.221 13.1023C173.01 13.457 173.676 14.0383 174.133 14.7723C174.271 15.5516 174.23 16.3519 174.014 17.1133C173.898 17.695 173.85 18.2884 173.871 18.8813C173.871 19.2323 173.871 19.2323 173.871 19.5913C173.871 19.8353 173.871 20.0763 173.878 20.3273C173.885 20.5783 173.878 20.8193 173.878 21.0753C173.878 21.682 173.882 22.289 173.89 22.8963C173.9 22.6833 173.907 22.4713 173.916 22.2513C173.94 21.8313 173.94 21.8313 173.964 21.4033C173.978 21.1263 173.993 20.8493 174.007 20.5623C174.196 19.3753 174.196 19.3753 174.846 18.8353C175.483 18.7271 176.127 18.6673 176.772 18.6563L177.302 18.6343C177.918 18.6103 178.532 18.5963 179.146 18.5963C179.27 18.3793 179.392 18.1643 179.519 17.9393C180.167 17.0234 181.151 16.401 182.256 16.2083C182.967 16.0733 183.696 16.0733 184.406 16.2083C184.743 16.5243 185.007 16.9098 185.18 17.3381C185.352 17.7664 185.43 18.2271 185.406 18.6883L185.428 19.6883C185.428 19.8653 185.438 20.0423 185.442 20.2233C185.457 20.7873 185.47 21.352 185.48 21.9173C185.497 22.658 185.515 23.3986 185.533 24.1393C185.533 24.3093 185.54 24.4783 185.543 24.6533C185.555 25.5111 185.655 26.3653 185.843 27.2023C186.113 28.3033 185.942 29.4662 185.365 30.4423C185.018 30.7695 184.601 31.0136 184.146 31.156C183.691 31.2984 183.209 31.3354 182.737 31.2643C182.4 31.162 182.087 30.9918 181.817 30.7641C181.548 30.5364 181.328 30.2561 181.17 29.9403C180.794 28.9588 180.581 27.9225 180.538 26.8723C180.519 26.6723 180.5 26.4723 180.478 26.2723C180.433 25.7853 180.387 25.3003 180.344 24.8123C179.725 26.2318 179.318 27.7345 179.135 29.2723C179.108 29.5172 179.033 29.7542 178.912 29.9692C178.792 30.1843 178.63 30.373 178.435 30.5243C177.396 31.0239 176.229 31.1982 175.088 31.0243C174.477 30.5466 174.054 29.8684 173.894 29.1093L173.431 29.4153C171.147 30.8603 171.147 30.8603 169.831 30.7823C169.165 30.2576 168.726 29.4962 168.605 28.6563V28.0993C168.605 27.8893 168.605 27.6813 168.605 27.4663C168.605 27.2513 168.605 27.0123 168.605 26.7803C168.605 26.5483 168.605 26.3173 168.605 26.0803C168.615 24.3723 168.654 22.6656 168.722 20.9603C168.729 20.7383 168.736 20.5163 168.744 20.2863C168.754 20.0783 168.763 19.8703 168.773 19.6583C168.78 19.4763 168.787 19.2953 168.795 19.1063C168.824 18.7437 168.939 18.3931 169.129 18.0833C169.201 17.9403 169.275 17.7943 169.349 17.6433C169.222 17.3096 169.062 16.9894 168.871 16.6873C168.74 16.1591 168.715 15.6103 168.796 15.0722C168.877 14.5341 169.063 14.0172 169.344 13.5513C169.765 13.2765 170.239 13.0943 170.735 13.0169C171.231 12.9395 171.738 12.9686 172.221 13.1023Z" fill="#000007"/>
<path d="M46.254 12.3091L47.011 12.2871C48.525 12.1843 50.0338 12.5517 51.331 13.3391C52.597 14.6701 52.624 15.6801 52.607 17.4771C52.4602 19.084 51.7042 20.5738 50.494 21.6411C48.7502 23.171 46.4801 23.9634 44.163 23.8511C44.163 24.0181 44.17 24.1851 44.175 24.3601C44.189 25.1201 44.199 25.8821 44.208 26.6441C44.208 26.9071 44.22 27.1721 44.225 27.4441C44.23 27.7161 44.225 27.9551 44.232 28.2161C44.232 28.4501 44.239 28.6841 44.244 28.9261C44.1662 29.6101 43.8879 30.2559 43.444 30.7821C42.4635 31.3297 41.3321 31.5451 40.219 31.3961C39.414 30.8961 39.373 30.4961 39.144 29.5871C39.1082 29.0501 39.1082 28.5112 39.144 27.9741C39.156 27.6611 39.17 27.3461 39.182 27.0211C39.194 26.6961 39.213 26.3421 39.227 26.0031C39.258 25.2961 39.284 24.5891 39.311 23.8811C39.318 23.7021 39.323 23.5201 39.33 23.3361C39.373 22.0941 39.383 20.8561 39.371 19.6141C39.371 19.4491 39.371 19.2841 39.371 19.1141C39.364 18.3231 39.349 17.5351 39.333 16.7461C39.333 16.4641 39.326 16.1851 39.321 15.8951C39.314 15.5251 39.314 15.5251 39.307 15.1471C39.2964 14.7615 39.4379 14.3872 39.701 14.1051C40.2682 13.7548 40.8872 13.4963 41.535 13.3391C41.659 13.2171 41.781 13.0931 41.908 12.9661C42.88 11.9941 44.974 12.3211 46.254 12.3091ZM44.402 15.4891L44.163 20.7481C44.7146 20.7233 45.2548 20.5829 45.7487 20.3361C46.2426 20.0892 46.6791 19.7414 47.03 19.3151C47.3874 18.5702 47.4736 17.7239 47.274 16.9221C46.932 16.4847 46.4967 16.1291 45.9999 15.8812C45.5031 15.6333 44.9572 15.4994 44.402 15.4891Z" fill="#F7E900"/>
<path d="M119.18 16.9235C119.575 17.5662 119.759 18.3162 119.706 19.0685C119.706 19.2935 119.706 19.5155 119.706 19.7475C119.706 19.9795 119.696 20.2085 119.692 20.4475C119.688 20.6865 119.692 20.9185 119.692 21.1595C119.685 21.7375 119.678 22.3185 119.668 22.8965C119.713 22.7575 119.759 22.6195 119.807 22.4765C121.322 17.9765 121.322 17.9765 122.807 17.2225C123.638 16.9207 124.529 16.8179 125.407 16.9225C125.862 17.735 126.061 18.6662 125.976 19.5935C125.976 19.7585 125.983 19.9235 125.988 20.0935C126 20.6189 126.01 21.1452 126.019 21.6725C126.031 22.1955 126.041 22.7185 126.055 23.2445L126.069 24.6735C126.111 25.4403 126.204 26.2034 126.349 26.9575C126.38 27.3665 126.402 27.7725 126.409 28.1805C126.416 28.3805 126.421 28.5805 126.428 28.7805C126.372 29.3735 126.085 29.9204 125.628 30.3025C125.003 30.4793 124.342 30.4793 123.717 30.3025C121.917 28.1545 122.489 24.1315 122.522 21.4625H122.044L121.879 22.0145C121.611 22.7675 121.308 23.4595 120.969 24.1815C120.242 25.7368 119.831 27.4211 119.76 29.1365C119.655 29.5855 119.655 29.5855 118.938 30.0635C118.532 30.1117 118.123 30.1268 117.715 30.1085C117.502 30.1085 117.29 30.1085 117.07 30.1085C116.549 30.0675 116.549 30.0675 116.31 29.8285C116.098 28.1191 115.973 26.3998 115.937 24.6775C115.925 24.4125 115.916 24.1495 115.906 23.8775C115.88 23.2325 115.856 22.5895 115.832 21.9445C114.692 23.8715 113.903 25.9852 113.5 28.1875C113.244 29.5495 113.244 29.5495 112.726 30.0675C112.28 30.1118 111.831 30.1215 111.383 30.0965C111.142 30.0965 110.903 30.0895 110.657 30.0845C110.38 30.0775 110.38 30.0775 110.098 30.0675C109.917 29.4451 109.826 28.7998 109.828 28.1515C109.828 27.9655 109.828 27.7815 109.828 27.5905C109.828 27.3995 109.828 27.1905 109.828 26.9905C109.828 26.7905 109.828 26.5815 109.828 26.3695C109.828 25.9395 109.828 25.5075 109.828 25.0745C109.828 24.4105 109.828 23.7465 109.828 23.0845C109.828 22.6645 109.828 22.2435 109.828 21.8255C109.828 21.5255 109.828 21.5255 109.828 21.2255C109.835 19.8255 109.835 19.8255 110.1 19.5625C111.216 19.5295 112.329 19.5525 113.445 19.5625L113.206 23.3855C113.333 23.0515 113.459 22.7185 113.591 22.3745C113.761 21.9345 113.933 21.4955 114.102 21.0555C114.186 20.8355 114.269 20.6155 114.353 20.3885C114.527 19.7117 114.842 19.0794 115.278 18.5335C115.714 17.9875 116.26 17.5404 116.882 17.2215C117.615 16.9472 118.401 16.8452 119.18 16.9235Z" fill="#F8EA00"/>
<path d="M84.3013 16.9235C84.6959 17.5662 84.8798 18.3162 84.8273 19.0685C84.8273 19.2935 84.8273 19.5155 84.8273 19.7475C84.8273 19.9795 84.8173 20.2085 84.8133 20.4475C84.8093 20.6865 84.8133 20.9185 84.8133 21.1595C84.8063 21.7375 84.7993 22.3185 84.7893 22.8965C84.8343 22.7575 84.8803 22.6195 84.9283 22.4765C86.4433 17.9765 86.4433 17.9765 87.9283 17.2225C88.7596 16.9207 89.6501 16.8179 90.5283 16.9225C90.9833 17.735 91.1816 18.6662 91.0973 19.5935C91.0973 19.7585 91.1043 19.9235 91.1093 20.0935C91.1213 20.6189 91.1316 21.1452 91.1403 21.6725C91.1523 22.1955 91.1623 22.7185 91.1763 23.2445L91.1903 24.6735C91.232 25.4403 91.3256 26.2034 91.4703 26.9575C91.5013 27.3665 91.5233 27.7725 91.5303 28.1805C91.5373 28.3805 91.5423 28.5805 91.5493 28.7805C91.4935 29.3735 91.206 29.9204 90.7493 30.3025C90.1245 30.4793 89.463 30.4793 88.8383 30.3025C87.0383 28.1545 87.6103 24.1315 87.6433 21.4625H87.1653L87.0003 22.0145C86.7323 22.7675 86.4293 23.4595 86.0903 24.1815C85.3631 25.7368 84.9521 27.4211 84.8813 29.1365C84.7763 29.5855 84.7763 29.5855 84.0593 30.0635C83.6535 30.1117 83.2445 30.1268 82.8363 30.1085C82.6233 30.1085 82.4113 30.1085 82.1913 30.1085C81.6703 30.0675 81.6703 30.0675 81.4313 29.8285C81.2186 28.1191 81.0941 26.3998 81.0583 24.6775C81.0463 24.4125 81.0373 24.1495 81.0273 23.8775C81.0013 23.2325 80.9773 22.5895 80.9533 21.9445C79.8134 23.8715 79.0239 25.9852 78.6213 28.1875C78.3653 29.5495 78.3653 29.5495 77.8473 30.0675C77.401 30.1118 76.952 30.1215 76.5043 30.0965C76.2633 30.0965 76.0243 30.0895 75.7783 30.0845C75.5013 30.0775 75.5013 30.0775 75.2193 30.0675C75.0379 29.4451 74.947 28.7998 74.9493 28.1515C74.9493 27.9655 74.9493 27.7815 74.9493 27.5905C74.9493 27.3995 74.9493 27.1905 74.9493 26.9905C74.9493 26.7905 74.9493 26.5815 74.9493 26.3695C74.9493 25.9395 74.9493 25.5075 74.9493 25.0745C74.9493 24.4105 74.9493 23.7465 74.9493 23.0845C74.9493 22.6645 74.9493 22.2435 74.9493 21.8255C74.9493 21.5255 74.9493 21.5255 74.9493 21.2255C74.9563 19.8255 74.9563 19.8255 75.2213 19.5625C76.3373 19.5295 77.4503 19.5525 78.5663 19.5625L78.3273 23.3855C78.4543 23.0515 78.5803 22.7185 78.7123 22.3745C78.8823 21.9345 79.0543 21.4955 79.2233 21.0555C79.3073 20.8355 79.3903 20.6155 79.4743 20.3885C79.6477 19.7117 79.9628 19.0794 80.3987 18.5335C80.8347 17.9875 81.3816 17.5404 82.0033 17.2215C82.7362 16.9472 83.5225 16.8452 84.3013 16.9235Z" fill="#F8EA00"/>
<path d="M136.385 14.0561C137.451 14.528 138.303 15.3796 138.774 16.4451C138.997 17.3476 138.896 18.2998 138.487 19.1351C138.368 19.2938 138.214 19.4225 138.036 19.5109C137.859 19.5993 137.663 19.6449 137.464 19.6441L135.664 19.5511C135.071 18.3681 135.071 18.3681 134.469 17.1621C132.859 17.4851 132.288 18.2371 131.363 19.5511C130.375 21.239 130.088 23.2469 130.563 25.1441C130.996 26.4125 131.873 27.4811 133.033 28.1521C133.738 28.3172 134.46 28.3974 135.183 28.3911V24.8071C134.354 24.6881 134.354 24.6881 133.511 24.5681C133.178 24.4403 132.858 24.2802 132.555 24.0901C132.794 23.3731 132.794 23.3731 133.621 22.9461C133.965 22.7981 134.314 22.6521 134.66 22.5091C134.834 22.4331 135.006 22.3581 135.186 22.2821C136.283 21.7444 137.487 21.4594 138.708 21.4481C138.899 21.4481 139.09 21.4481 139.286 21.4481C139.432 21.4481 139.575 21.4551 139.723 21.4581C139.855 21.8442 139.936 22.246 139.962 22.6531C139.79 22.8041 139.79 22.8041 139.613 22.9531C139.061 23.5771 139.161 24.0931 139.164 24.9121C139.164 25.2181 139.164 25.5211 139.154 25.8371C139.154 26.3201 139.154 26.8021 139.154 27.2871C139.154 27.7551 139.154 28.2211 139.144 28.6871C139.144 28.9671 139.144 29.2461 139.144 29.5351C139.067 29.9351 138.908 30.315 138.677 30.6511C138.447 30.9872 138.15 31.2724 137.804 31.4891L137.565 31.7281C136.284 31.8401 136.284 31.8401 135.682 31.3981C135.574 31.2843 135.494 31.147 135.447 30.9969C135.401 30.8469 135.389 30.6882 135.414 30.5331C135.263 30.5861 135.114 30.6331 134.958 30.6911C133.252 31.2451 131.823 31.6251 130.113 30.8631C128.69 30.0371 127.653 28.6807 127.227 27.0911C126.606 24.0421 126.663 20.6381 128.402 17.9911C130.19 15.5921 133.248 13.3971 136.385 14.0561Z" fill="#F80000"/>
<path d="M183.926 16.9244C184.575 17.8 184.87 18.8872 184.754 19.9704C184.754 20.1474 184.761 20.3214 184.764 20.5034C184.776 21.0627 184.784 21.6217 184.788 22.1804C184.792 22.7391 184.803 23.2981 184.819 23.8574C184.819 24.2034 184.831 24.5574 184.833 24.8994C184.836 25.7529 184.931 26.6035 185.117 27.4364C185.309 28.29 185.176 29.1846 184.744 29.9454C184.412 30.1537 184.041 30.2928 183.653 30.3543C183.266 30.4158 182.87 30.3985 182.489 30.3034C181.796 29.9214 181.753 29.5274 181.524 28.7624C181.275 27.5553 181.153 26.3251 181.161 25.0924C181.147 24.6484 181.13 24.2034 181.116 23.7594C181.109 23.5594 181.104 23.3704 181.097 23.1694C181.104 22.7435 181.008 22.3223 180.817 21.9414C179.678 23.8684 178.888 25.9821 178.485 28.1844C178.229 29.5464 178.229 29.5464 177.711 30.0644C177.265 30.1087 176.816 30.1184 176.368 30.0934C176.127 30.0934 175.888 30.0864 175.642 30.0814C175.365 30.0744 175.365 30.0744 175.083 30.0644C174.904 29.4434 174.814 28.7999 174.816 28.1534C174.816 27.9674 174.816 27.7834 174.816 27.5924C174.816 27.4014 174.816 27.1924 174.816 26.9924C174.816 26.7924 174.816 26.5834 174.816 26.3714C174.816 25.9414 174.816 25.5094 174.816 25.0764C174.816 24.4124 174.816 23.7484 174.816 23.0864C174.816 22.6664 174.816 22.2454 174.816 21.8274C174.816 21.5274 174.816 21.5274 174.816 21.2274C174.823 19.8274 174.823 19.8274 175.088 19.5644C176.204 19.5314 177.317 19.5544 178.433 19.5644L178.194 23.3874C178.33 23.0314 178.464 22.6734 178.603 22.3074C178.783 21.8407 178.96 21.3741 179.136 20.9074C179.224 20.6734 179.313 20.4394 179.406 20.1954C179.492 19.9704 179.576 19.7464 179.664 19.5144L179.903 18.8834C179.994 18.5292 180.174 18.2042 180.426 17.9397C180.679 17.6752 180.995 17.4802 181.344 17.3734C182.13 16.9359 183.04 16.7777 183.926 16.9244Z" fill="#0000F7"/>
<path d="M72.5931 17.4011C73.2039 17.7234 73.7025 18.2234 74.0231 18.8351C74.2481 20.6701 73.4501 21.7901 72.4231 23.2211C71.2864 24.6262 69.7694 25.6746 68.0531 26.2411H67.0971C67.1724 26.928 67.4189 27.5851 67.8141 28.1521C69.2355 28.2759 70.6592 27.9408 71.8761 27.1961C72.0601 27.1051 72.2461 27.0141 72.4371 26.9191C72.8885 26.6971 73.3385 26.4707 73.7871 26.2401C73.6376 27.5505 72.9974 28.7557 71.9951 29.6131C67.9791 31.7661 67.9791 31.7661 65.9031 31.2571C65.3798 30.9953 64.9177 30.6259 64.5471 30.1729C64.1766 29.72 63.906 29.1939 63.7531 28.6291C63.545 27.3531 63.5908 26.0486 63.888 24.7904C64.1853 23.5321 64.728 22.345 65.4851 21.2971C65.7791 20.9504 66.0791 20.6071 66.3851 20.2671C66.5311 20.0951 66.6761 19.9211 66.8251 19.7411C67.5124 18.8977 68.4012 18.2412 69.4094 17.8322C70.4175 17.4232 71.5125 17.2749 72.5931 17.4011ZM70.2041 21.4631L68.7711 23.1351H69.4881C69.8423 22.7665 70.1623 22.3665 70.4441 21.9401L70.2041 21.4631Z" fill="#F6E800"/>
<path d="M153.348 13.1019C154.273 13.7888 154.888 14.8143 155.059 15.9539C155.059 16.1979 155.059 16.1979 155.059 16.4459C155.059 16.6079 155.066 16.7709 155.069 16.9379C155.014 17.4009 155.014 17.4009 154.536 18.1179C153.764 18.3607 152.951 18.4421 152.147 18.3569L151.669 17.8789L151.43 19.5509C151.602 19.5749 151.774 19.6009 151.953 19.6249C152.64 19.755 153.282 20.0586 153.819 20.5069C153.984 20.9704 153.984 21.4764 153.819 21.9399C153.414 22.3345 152.921 22.627 152.381 22.7932C151.841 22.9595 151.269 22.9947 150.713 22.8959C150.713 23.1829 150.706 23.4669 150.703 23.7609C150.688 24.8216 150.67 25.8816 150.65 26.9409C150.64 27.3969 150.636 27.8559 150.628 28.3149C150.62 28.9742 150.609 29.6336 150.595 30.2929C150.595 30.6009 150.595 30.6009 150.595 30.9139C150.595 31.1049 150.585 31.2959 150.581 31.4949C150.581 31.6622 150.578 31.8319 150.574 32.0039C150.527 32.2441 150.431 32.4719 150.291 32.6727C150.151 32.8735 149.971 33.0429 149.762 33.1699C149.395 33.2663 149.019 33.3216 148.641 33.3349C148.447 33.3489 148.256 33.3659 148.056 33.3829C147.91 33.3899 147.762 33.3999 147.612 33.4089C147.137 32.634 146.966 31.7105 147.132 30.8169C147.132 30.6309 147.142 30.4469 147.149 30.2559C147.161 29.8669 147.173 29.4749 147.187 29.0829C147.209 28.4899 147.228 27.8959 147.244 27.3029L147.28 26.1589C147.287 25.9849 147.292 25.8099 147.297 25.6289C147.345 24.3909 147.464 23.1729 147.612 21.9429C146.783 22.0619 146.783 22.0619 145.94 22.1819C145.848 21.7888 145.848 21.38 145.94 20.9869C146.36 20.5245 146.842 20.1223 147.373 19.7919H148.09C148.109 19.4919 148.128 19.2019 148.15 18.8919C148.332 17.3459 148.599 15.5229 149.677 14.3409C150.079 14.0465 150.508 13.7916 150.959 13.5799L151.585 13.2669C152.67 12.9539 152.67 12.9539 153.348 13.1019Z" fill="#F80000"/>
<path d="M108.91 17.1628C109.044 17.5637 109.095 17.9879 109.059 18.4091C109.023 18.8304 108.901 19.2398 108.7 19.6118C107.72 21.9288 107.89 24.5308 107.83 27.0058C107.823 27.2638 107.813 27.5198 107.806 27.7848C107.796 28.1308 107.796 28.1308 107.787 28.4848C107.731 29.0471 107.543 29.5882 107.238 30.0638C105.738 30.2068 105.738 30.2068 105.014 29.6148C104.534 28.632 104.237 27.57 104.137 26.4808C104.068 26.6458 103.998 26.8078 103.927 26.9808C103.127 28.7388 103.127 28.7388 102.24 29.3808C101.548 29.6355 100.802 29.7079 100.075 29.5908C98.8247 28.3748 98.8417 27.1798 98.8037 25.5168C98.7967 25.2418 98.7967 25.2418 98.7897 24.9598L98.7467 23.1988C98.7347 22.7988 98.7247 22.3988 98.7157 22.0038C98.6864 21.0252 98.6601 20.0488 98.6367 19.0748L101.504 17.6408C102.637 18.4938 102.637 18.4938 102.787 19.3638C102.764 20.5565 102.673 21.7469 102.512 22.9288C102.402 24.3478 102.443 25.7768 102.459 27.1978C103.012 26.7665 103.463 26.218 103.779 25.5917C104.095 24.9655 104.268 24.2771 104.287 23.5758C104.287 23.2218 104.299 22.8688 104.304 22.5128C104.305 20.7756 104.827 19.0788 105.804 17.6418C106.784 17.2282 107.851 17.0636 108.91 17.1628Z" fill="#FAEB00"/>
<path d="M161.231 12.8615C161.288 14.1537 161.126 15.4461 160.753 16.6845C160.92 16.7655 161.087 16.8465 161.26 16.9285L161.919 17.2535C162.134 17.3585 162.349 17.4635 162.574 17.5715C162.976 17.7544 163.333 18.0226 163.62 18.3575C163.601 18.7653 163.52 19.1679 163.38 19.5515C162.767 19.8059 162.098 19.8932 161.44 19.8045C161.177 19.8045 160.914 19.8045 160.64 19.8045L160.031 19.7945C160.015 20.9892 160.002 22.1839 159.993 23.3785C159.993 23.7785 159.983 24.1885 159.976 24.5945C159.969 25.1799 159.964 25.7652 159.962 26.3505C159.962 26.5295 159.955 26.7085 159.95 26.8955C159.915 28.0072 160.192 29.1066 160.75 30.0685C161.186 30.3343 161.676 30.4977 162.183 30.5465V31.0245C161.663 31.2245 161.14 31.4245 160.616 31.6245C160.325 31.7345 160.033 31.8465 159.734 31.9615C158.911 32.2518 158.031 32.341 157.166 32.2215C156.916 31.9965 156.718 31.7202 156.584 31.4115C156.451 31.1027 156.385 30.7688 156.392 30.4325C156.37 29.7135 156.375 28.9995 156.392 28.2795C156.392 28.0335 156.392 27.7845 156.392 27.5315C156.38 26.4596 156.478 25.3892 156.686 24.3375C156.732 23.7809 156.771 23.2235 156.805 22.6655C156.845 21.7016 156.965 20.7427 157.163 19.7985L156.236 19.8125C155.311 19.8265 155.311 19.8265 154.774 19.5595C154.748 19.1472 154.831 18.7351 155.013 18.3645C155.695 17.8122 156.528 17.4789 157.402 17.4085V13.5765C158.61 13.0571 159.918 12.8129 161.231 12.8615Z" fill="#F60000"/>
<path d="M62.0827 16.9239C62.4669 17.5871 62.6774 18.3366 62.6947 19.1029C62.6868 19.6695 62.8042 20.2309 63.0387 20.7469C63.1747 22.4309 63.1747 22.4309 62.6807 23.2559C62.3133 23.4935 61.8987 23.6486 61.4655 23.7104C61.0323 23.7722 60.5909 23.7393 60.1717 23.6139C59.5974 23.1055 59.1824 22.4418 58.9767 21.7029C57.6789 23.9175 56.8221 26.3625 56.4537 28.9029C56.458 29.1299 56.4072 29.3545 56.3056 29.5576C56.2041 29.7606 56.0549 29.9361 55.8707 30.0689C55.4244 30.1131 54.9754 30.1228 54.5277 30.0979C54.2867 30.0979 54.0477 30.0909 53.8017 30.0859C53.5247 30.0789 53.5247 30.0789 53.2427 30.0689C53.0613 29.4464 52.9704 28.8012 52.9727 28.1529C52.9727 27.9669 52.9727 27.7829 52.9727 27.5919C52.9727 27.4009 52.9727 27.1919 52.9727 26.9919C52.9727 26.7919 52.9727 26.5829 52.9727 26.3709C52.9727 25.9409 52.9727 25.5089 52.9727 25.0759C52.9727 24.4119 52.9727 23.7479 52.9727 23.0859C52.9727 22.6659 52.9727 22.2449 52.9727 21.8269C52.9727 21.5269 52.9727 21.5269 52.9727 21.2269C52.9797 19.8269 52.9797 19.8269 53.2447 19.5639C54.3607 19.5309 55.4737 19.5539 56.5897 19.5639L56.3507 23.3869C56.4607 23.0209 56.5707 22.6559 56.6847 22.2779C56.8427 21.7979 56.9977 21.3149 57.1577 20.8329C57.2267 20.5939 57.2987 20.3529 57.3727 20.1039C57.4873 19.5154 57.736 18.9612 58.0995 18.4844C58.463 18.0077 58.9315 17.6211 59.4687 17.3549C60.2795 16.9596 61.188 16.8098 62.0827 16.9239Z" fill="#F8EA00"/>
<path d="M46.254 12.3091L47.011 12.2871C48.525 12.1843 50.0338 12.5517 51.331 13.3391C52.597 14.6701 52.624 15.6801 52.607 17.4771C52.4602 19.084 51.7042 20.5738 50.494 21.6411C48.7502 23.171 46.4801 23.9634 44.163 23.8511C44.163 24.0181 44.17 24.1851 44.175 24.3601C44.189 25.1201 44.199 25.8821 44.208 26.6441C44.208 26.9071 44.22 27.1721 44.225 27.4441C44.23 27.7161 44.225 27.9551 44.232 28.2161C44.232 28.4501 44.239 28.6841 44.244 28.9261C44.1662 29.6101 43.8879 30.2559 43.444 30.7821C42.4635 31.3297 41.3321 31.5451 40.219 31.3961C39.414 30.8961 39.373 30.4961 39.144 29.5871C39.1082 29.0501 39.1082 28.5112 39.144 27.9741C39.156 27.6611 39.17 27.3461 39.182 27.0211C39.194 26.6961 39.213 26.3421 39.227 26.0031C39.258 25.2961 39.284 24.5891 39.311 23.8811C39.318 23.7021 39.323 23.5201 39.33 23.3361C39.373 22.0941 39.383 20.8561 39.371 19.6141C39.371 19.4491 39.371 19.2841 39.371 19.1141C39.364 18.3231 39.349 17.5351 39.333 16.7461C39.333 16.4641 39.326 16.1851 39.321 15.8951C39.314 15.5251 39.314 15.5251 39.307 15.1471C39.2964 14.7615 39.4379 14.3872 39.701 14.1051C40.2682 13.7548 40.8872 13.4963 41.535 13.3391C41.659 13.2171 41.781 13.0931 41.908 12.9661C42.88 11.9941 44.974 12.3211 46.254 12.3091ZM41.894 13.9361C41.3803 14.3671 40.7623 14.6554 40.102 14.7721C40.0974 16.7935 40.0934 18.8148 40.09 20.8361C40.09 21.7731 40.09 22.7111 40.083 23.6501C40.083 24.5535 40.083 25.4581 40.083 26.3641C40.083 26.7081 40.083 27.0541 40.083 27.4011V28.8481C40.083 29.1231 40.083 29.4001 40.083 29.6821C40.042 30.2821 40.042 30.2821 40.351 30.5401C40.8524 30.6335 41.3679 30.6178 41.8627 30.4941C42.3574 30.3703 42.8197 30.1415 43.218 29.8231C43.4725 29.212 43.5631 28.545 43.481 27.8881C43.481 27.5991 43.481 27.3101 43.481 27.0111C43.481 26.7121 43.481 26.4041 43.474 26.0911C43.467 25.7781 43.474 25.4791 43.474 25.1641C43.474 24.4095 43.47 23.6528 43.462 22.8941L43.94 23.1331C46.229 23.4391 48.202 22.3951 49.997 21.0331C50.6133 20.4848 51.1057 19.8115 51.4415 19.058C51.7772 18.3044 51.9485 17.488 51.944 16.6631C52.0119 15.8582 51.7954 15.0549 51.332 14.3931C49.716 13.0711 48.311 12.9921 46.299 13.0261H45.599C44.9518 12.9267 44.2913 12.9559 43.6554 13.1121C43.0195 13.2682 42.4216 13.5483 41.894 13.9361Z" fill="#050500"/>
<path d="M95.9498 18.1031L96.5278 18.1101L96.9668 18.1171C96.9668 18.3081 96.9668 18.4991 96.9668 18.6981C96.8784 22.0108 96.9599 25.3258 97.2108 28.6301C96.7948 28.8788 96.3768 29.1225 95.9568 29.3611L95.2568 29.7741C94.8976 29.9943 94.4761 30.0909 94.0568 30.0491C93.764 29.9305 93.5136 29.7267 93.3378 29.4641C93.1178 28.5774 93.0412 27.6611 93.1108 26.7501C93.1108 26.5421 93.1108 26.3371 93.1178 26.1221C93.1368 24.4811 93.1848 22.8371 93.2448 21.1961C93.2548 20.9671 93.2618 20.7401 93.2688 20.5061C93.2788 20.2931 93.2878 20.0831 93.2978 19.8661C93.3048 19.6771 93.3118 19.4911 93.3198 19.2971C93.3958 18.8361 93.3958 18.8361 93.8738 18.3581C94.5451 18.1498 95.2482 18.0634 95.9498 18.1031Z" fill="#F8E900"/>
<path d="M172.164 18.1041L172.742 18.1111L173.181 18.1181C173.181 18.3261 173.181 18.5341 173.181 18.7491C173.181 19.5371 173.174 20.3261 173.174 21.1121L173.167 22.1271C173.143 24.2968 173.229 26.4662 173.425 28.6271C170.959 30.0651 170.959 30.0651 170.264 30.0461C169.971 29.9274 169.721 29.7237 169.545 29.4611C169.325 28.5744 169.248 27.6581 169.318 26.7471C169.318 26.5391 169.318 26.3341 169.325 26.1191C169.344 24.4781 169.392 22.8341 169.452 21.1931C169.462 20.9641 169.469 20.7371 169.476 20.5031C169.486 20.2901 169.495 20.0801 169.505 19.8631C169.512 19.6741 169.519 19.4881 169.527 19.2941C169.603 18.8331 169.603 18.8331 170.081 18.3551C170.755 18.1473 171.46 18.0623 172.164 18.1041Z" fill="#0000F8"/>
<path d="M143.969 18.1041L144.547 18.1111L144.986 18.1181C144.986 18.3261 144.986 18.5341 144.986 18.7491C144.986 19.5371 144.979 20.3261 144.979 21.1121L144.972 22.1271C144.948 24.2968 145.034 26.4662 145.23 28.6271C142.764 30.0651 142.764 30.0651 142.069 30.0461C141.776 29.9274 141.525 29.7237 141.35 29.4611C141.13 28.5744 141.053 27.6581 141.123 26.7471C141.123 26.5391 141.123 26.3341 141.13 26.1191C141.149 24.4781 141.197 22.8341 141.257 21.1931C141.267 20.9641 141.274 20.7371 141.281 20.5031C141.291 20.2901 141.3 20.0801 141.31 19.8631C141.317 19.6741 141.324 19.4881 141.332 19.2941C141.408 18.8331 141.408 18.8331 141.886 18.3551C142.559 18.1473 143.265 18.0623 143.969 18.1041Z" fill="#F80000"/>
<path d="M43.6834 14.7734C45.1748 14.7855 46.6256 15.2604 47.8354 16.1324C48.2488 16.6927 48.4248 17.3933 48.3254 18.0824C48.228 18.6552 48.0116 19.2012 47.6902 19.6852C47.3688 20.1691 46.9495 20.5804 46.4594 20.8924C45.5615 21.4656 44.5088 21.7485 43.4444 21.7024C43.4084 19.3794 43.5164 17.0864 43.6834 14.7734ZM44.4004 15.4904L44.1614 20.7464C44.713 20.7209 45.253 20.5802 45.7469 20.3332C46.2407 20.0862 46.6772 19.7385 47.0284 19.3124C47.3826 18.5679 47.4668 17.7233 47.2664 16.9234C46.9251 16.4868 46.4907 16.1317 45.995 15.8838C45.4993 15.6359 44.9546 15.5016 44.4004 15.4904Z" fill="#090800"/>
<path d="M171.982 13.8185C172.541 14.1074 173.03 14.5149 173.415 15.0125C173.515 15.3216 173.542 15.6494 173.496 15.9708C173.45 16.2923 173.331 16.599 173.148 16.8675C172.412 17.4012 171.515 17.6653 170.608 17.6155C170.261 17.5365 169.956 17.328 169.757 17.0325C169.397 16.0684 169.428 15.0015 169.845 14.0605C170.506 13.7274 171.264 13.6415 171.982 13.8185Z" fill="#0000F7"/>
<path d="M143.791 13.8185C144.35 14.1074 144.839 14.5149 145.224 15.0125C145.323 15.3216 145.351 15.6494 145.305 15.9708C145.258 16.2923 145.139 16.599 144.957 16.8675C144.221 17.4012 143.324 17.6653 142.417 17.6155C142.069 17.5365 141.765 17.328 141.566 17.0325C141.205 16.0684 141.237 15.0015 141.654 14.0605C142.314 13.7274 143.072 13.6415 143.791 13.8185Z" fill="#F70000"/>
<path d="M95.7672 13.8185C96.3261 14.1074 96.8151 14.5149 97.2002 15.0125C97.2998 15.3216 97.3275 15.6494 97.2812 15.9708C97.235 16.2923 97.1159 16.599 96.9332 16.8675C96.1976 17.4012 95.3007 17.6653 94.3932 17.6155C94.0457 17.5365 93.7413 17.328 93.5422 17.0325C93.1817 16.0684 93.2133 15.0015 93.6302 14.0605C94.2908 13.7274 95.0488 13.6415 95.7672 13.8185Z" fill="#F7E800"/>
<path d="M166.968 27.437C167.288 27.5765 167.544 27.8324 167.684 28.153C167.723 28.5472 167.665 28.9451 167.514 29.3114C167.363 29.6778 167.124 30.0012 166.819 30.253C166.105 30.787 165.229 31.0563 164.339 31.015C163.861 30.537 163.861 30.537 163.812 29.969C163.82 29.752 163.825 29.537 163.832 29.314C163.839 29.091 163.839 28.877 163.844 28.655C163.844 28.488 163.856 28.321 163.861 28.148C166.022 27.274 166.022 27.274 166.968 27.437Z" fill="#0000F7"/>
<path d="M70.6848 20.0293L71.4018 20.2683C71.433 20.9031 71.3236 21.537 71.0816 22.1247C70.8396 22.7124 70.4709 23.2395 70.0018 23.6683C69.2089 24.2906 68.3058 24.7581 67.3398 25.0463C67.4478 22.8963 69.2108 21.4293 70.6848 20.0293ZM70.2068 21.4623L68.7738 23.1343H69.4908C69.845 22.7657 70.165 22.3657 70.4468 21.9393L70.2068 21.4623Z" fill="#0A0900"/>
</g>
<defs>
<clipPath id="clip0_86_381">
<rect width="185.431" height="33.796" fill="white" transform="translate(0.5 0.5)"/>
</clipPath>
</defs>
</svg>
