<svg width="21" height="21" viewBox="0 0 21 21" fill="none" xmlns="http://www.w3.org/2000/svg">
<g clip-path="url(#clip0_86_415)">
<path d="M18.7 19.4374V17.4724C18.6837 16.4144 18.2479 15.4062 17.4884 14.6694C16.729 13.9327 15.708 13.5276 14.65 13.5434H6.55C5.492 13.5276 4.47104 13.9327 3.71158 14.6694C2.95212 15.4062 2.51632 16.4144 2.5 17.4724V19.4374" stroke="#FF0000" stroke-width="0.95" stroke-linecap="round" stroke-linejoin="round"/>
<path d="M14.53 5.681C14.53 6.45848 14.2994 7.2185 13.8675 7.86495C13.4355 8.5114 12.8216 9.01524 12.1033 9.31277C11.385 9.6103 10.5946 9.68815 9.83207 9.53647C9.06953 9.38479 8.36909 9.0104 7.81933 8.46064C7.26957 7.91088 6.89518 7.21044 6.7435 6.4479C6.59183 5.68536 6.66967 4.89497 6.9672 4.17667C7.26473 3.45838 7.76857 2.84444 8.41502 2.41249C9.06147 1.98055 9.82149 1.75 10.599 1.75C11.6415 1.75 12.6414 2.16416 13.3786 2.90136C14.1158 3.63857 14.53 4.63843 14.53 5.681Z" stroke="#FF0000" stroke-width="0.95" stroke-linecap="round" stroke-linejoin="round"/>
</g>
<defs>
<clipPath id="clip0_86_415">
<rect width="20" height="20" fill="white" transform="translate(0.5 0.5)"/>
</clipPath>
</defs>
</svg>
