<svg width="97" height="97" viewBox="0 0 97 97" fill="none" xmlns="http://www.w3.org/2000/svg">
<g clip-path="url(#clip0_86_426)">
<path d="M48.5 96.5C39.0065 96.5 29.7262 93.6849 21.8326 88.4106C13.9391 83.1363 7.78681 75.6397 4.1538 66.8688C0.520798 58.098 -0.429762 48.4468 1.42233 39.1357C3.27442 29.8246 7.84598 21.2718 14.5589 14.5589C21.2718 7.84598 29.8246 3.27442 39.1357 1.42233C48.4468 -0.429762 58.098 0.520798 66.8688 4.1538C75.6397 7.78681 83.1363 13.9391 88.4106 21.8326C93.6849 29.7262 96.5 39.0065 96.5 48.5C96.5 61.2304 91.4429 73.4394 82.4411 82.4411C73.4394 91.4429 61.2304 96.5 48.5 96.5Z" fill="#FDBE17"/>
<path d="M48.2666 21.6719H48.7906C55.5954 21.7485 62.1173 24.4055 67.0383 29.106C71.9593 33.8064 74.9123 40.1998 75.3006 46.9939V50.0339C75.0033 55.2583 73.185 60.2819 70.0697 64.4864C66.9544 68.6909 62.6778 71.893 57.7663 73.6986C52.8548 75.5042 47.5225 75.8345 42.4257 74.649C37.3288 73.4634 32.6898 70.8137 29.0793 67.0259C25.4688 63.238 23.0444 58.4773 22.1045 53.3295C21.1645 48.1817 21.75 42.8714 23.7889 38.0521C25.8278 33.2327 29.2311 29.1145 33.58 26.2042C37.929 23.2939 43.0339 21.7185 48.2666 21.6719ZM43.7476 35.6719C43.326 35.4286 42.8478 35.3005 42.3611 35.3004C41.8743 35.3003 41.3961 35.4283 40.9744 35.6714C40.5527 35.9146 40.2024 36.2644 39.9586 36.6857C39.7149 37.1071 39.5862 37.5851 39.5856 38.0719V58.9399C39.5865 59.4265 39.7154 59.9044 39.9592 60.3255C40.203 60.7467 40.5533 61.0964 40.9749 61.3395C41.3965 61.5826 41.8745 61.7106 42.3612 61.7106C42.8478 61.7107 43.326 61.5828 43.7476 61.3399L61.8186 50.9099C62.2399 50.666 62.5896 50.3157 62.8327 49.894C63.0759 49.4723 63.2039 48.9941 63.2039 48.5074C63.2039 48.0206 63.0759 47.5424 62.8327 47.1207C62.5896 46.6991 62.2399 46.3487 61.8186 46.1049L43.7476 35.6719Z" fill="white"/>
</g>
<defs>
<clipPath id="clip0_86_426">
<rect width="96" height="96" fill="white" transform="translate(0.5 0.5)"/>
</clipPath>
</defs>
</svg>
