<svg width="48" height="51" viewBox="0 0 48 51" fill="none" xmlns="http://www.w3.org/2000/svg">
<g clip-path="url(#clip0_86_430)">
<path d="M17.5554 22.6392C17.9208 22.6356 18.2829 22.7091 18.618 22.8549C18.9532 23.0006 19.2538 23.2154 19.5004 23.4852C20.325 24.3286 21.15 25.1712 21.9753 26.0132C22.6803 26.7312 23.0904 26.7262 23.8074 25.9952L31.5264 18.1172C31.7706 17.8147 32.0795 17.5707 32.4303 17.4031C32.7811 17.2354 33.165 17.1484 33.5538 17.1484C33.9427 17.1484 34.3265 17.2354 34.6774 17.4031C35.0282 17.5707 35.3371 17.8147 35.5814 18.1172C35.8134 18.3505 36.0437 18.5862 36.2723 18.8242C36.5669 19.0777 36.8033 19.3918 36.9653 19.745C37.1273 20.0982 37.2111 20.4821 37.2111 20.8707C37.2111 21.2593 37.1273 21.6433 36.9653 21.9965C36.8033 22.3497 36.5669 22.6638 36.2723 22.9172C34.1743 25.0619 32.0744 27.2049 29.9724 29.3462L24.9473 34.4742C24.7028 34.7882 24.3899 35.0421 24.0324 35.2168C23.6749 35.3915 23.2822 35.4823 22.8843 35.4823C22.4864 35.4823 22.0938 35.3915 21.7363 35.2168C21.3788 35.0421 21.0659 34.7882 20.8214 34.4742C18.8047 32.4196 16.79 30.3632 14.7773 28.3052C14.4978 28.0552 14.2741 27.7493 14.1206 27.4072C13.9672 27.0651 13.8875 26.6944 13.8867 26.3195C13.886 25.9445 13.9642 25.5736 14.1163 25.2308C14.2683 24.8881 14.4909 24.5813 14.7694 24.3302C15.0834 24.0072 15.3963 23.6812 15.7203 23.3682C15.9607 23.1284 16.2473 22.9403 16.5628 22.8149C16.8783 22.6896 17.216 22.6297 17.5554 22.6392ZM17.5684 24.1863C17.3088 24.3098 17.06 24.4546 16.8243 24.6193C16.5548 24.8634 16.2984 25.1217 16.0563 25.3932C15.3823 26.0932 15.3723 26.5313 16.0383 27.2133C18.0383 29.2593 20.0383 31.3026 22.0383 33.3433C22.1289 33.484 22.2534 33.5997 22.4003 33.6799C22.5473 33.7601 22.7119 33.8021 22.8793 33.8021C23.0467 33.8021 23.2115 33.7601 23.3584 33.6799C23.5053 33.5997 23.6298 33.484 23.7203 33.3433C24.877 32.1713 26.0304 30.9959 27.1804 29.8173C29.7997 27.1426 32.4187 24.4673 35.0374 21.7913C35.7234 21.0913 35.7184 20.6412 35.0244 19.9332L34.4414 19.3402C33.7484 18.6402 33.3494 18.6402 32.6564 19.3452L24.9753 27.1792C24.7264 27.4944 24.4095 27.7494 24.0484 27.9253C23.6873 28.1011 23.2911 28.1933 22.8895 28.1949C22.4878 28.1966 22.0909 28.1076 21.7283 27.9347C21.3658 27.7618 21.0469 27.5093 20.7954 27.1962C19.9824 26.3672 19.1804 25.5262 18.3524 24.7122C18.1081 24.5135 17.8456 24.3385 17.5684 24.1892V24.1863Z" fill="black"/>
<path d="M47.2934 17.7923C47.2751 23.1695 46.182 28.4887 44.0783 33.4374C43.7683 34.136 43.364 34.3787 42.8653 34.1654C42.3583 33.9484 42.2583 33.4803 42.5413 32.7873C42.9003 31.9053 43.2723 31.0274 43.5803 30.1284C45.1232 25.5124 45.7612 20.6421 45.4593 15.7844C45.3943 14.5224 45.2403 13.2643 45.1123 12.0063C45.0333 11.2343 44.8633 11.0603 44.1023 10.9233C39.1788 10.0643 34.4343 8.38539 30.0664 5.9564C28.2114 4.9174 26.4563 3.69933 24.6663 2.53733C23.9253 2.05433 23.8384 2.04933 23.1004 2.53733C21.5124 3.58933 19.9074 4.61531 18.3064 5.64731C18.1485 5.77539 17.949 5.84075 17.746 5.83079C17.543 5.82082 17.3508 5.73627 17.2063 5.59336C17.0695 5.48166 16.977 5.32486 16.9455 5.1511C16.914 4.97733 16.9455 4.79799 17.0343 4.64536C17.144 4.47118 17.2934 4.32547 17.4704 4.22031C19.1184 3.13431 20.7773 2.06434 22.4243 0.97434C22.8624 0.653234 23.3947 0.486712 23.9376 0.500829C24.4806 0.514946 25.0035 0.708907 25.4243 1.05234C27.9903 2.94743 30.7425 4.57655 33.6383 5.9144C37.1251 7.50036 40.7951 8.64767 44.5643 9.3303C45.1414 9.39174 45.6776 9.65729 46.0764 10.079C46.4751 10.5006 46.7102 11.0507 46.7393 11.6303C46.9623 13.6823 47.1144 15.7423 47.2934 17.7923Z" fill="black"/>
<path d="M12.9778 18.8196C12.7867 18.7986 12.6085 18.7131 12.4723 18.5774C12.3362 18.4416 12.2504 18.2635 12.2288 18.0725C12.0788 17.3435 11.9068 16.6196 11.7708 15.8886C11.6281 14.8299 11.1367 13.849 10.3743 13.1007C9.61192 12.3524 8.622 11.8795 7.56084 11.7566C6.89784 11.6316 6.24285 11.4665 5.57885 11.3475C5.09185 11.2605 4.77882 11.0285 4.74382 10.5145C4.71682 10.0585 5.0248 9.78052 5.6018 9.65052C6.5628 9.43352 7.52583 9.22058 8.47783 8.96558C9.21853 8.79657 9.89672 8.42263 10.435 7.88648C10.9733 7.35033 11.3499 6.67362 11.5218 5.9336C11.7818 4.9656 12.0018 3.9855 12.2128 3.0055C12.3128 2.5235 12.5458 2.1885 13.0598 2.1875C13.5738 2.1865 13.8008 2.52059 13.9108 3.00159C14.1608 4.09659 14.4038 5.19551 14.7268 6.27051C14.8964 6.88495 15.2229 7.44482 15.6742 7.89502C16.1254 8.34522 16.686 8.67028 17.3008 8.8385C18.2418 9.1235 19.2008 9.35658 20.1628 9.56458C21.0438 9.75558 21.3888 9.98858 21.3808 10.5126C21.3728 11.0366 21.0368 11.2466 20.1388 11.4396C19.1768 11.6466 18.2168 11.8796 17.2768 12.1686C16.6709 12.3369 16.1186 12.6586 15.6733 13.1027C15.228 13.5467 14.9048 14.098 14.7348 14.7035C14.4048 15.7935 14.1698 16.9126 13.9018 18.0216C13.8805 18.2483 13.7725 18.4579 13.6003 18.6069C13.4282 18.756 13.2052 18.8328 12.9778 18.8215V18.8196ZM16.9258 10.4966C16.0142 10.2281 15.1834 9.73779 14.5077 9.06958C13.832 8.40138 13.3325 7.57614 13.0538 6.6676C12.5499 6.668 12.0511 6.76763 11.5857 6.96082C11.1203 7.15401 10.6976 7.43688 10.3415 7.79346C9.62253 8.5136 9.21904 9.48993 9.21984 10.5076C9.22063 11.5252 9.62561 12.5008 10.3458 13.2199C11.0659 13.9389 12.0422 14.3424 13.0598 14.3416C13.3354 13.4295 13.8331 12.6002 14.5082 11.9279C15.1833 11.2556 16.0147 10.7613 16.9278 10.4895L16.9258 10.4966Z" fill="black"/>
<path d="M38.7909 48.7886C38.5924 48.765 38.4081 48.6738 38.2689 48.5303C38.1298 48.3868 38.0444 48.1998 38.0269 48.0006C37.8349 47.0866 37.6282 46.1759 37.4069 45.2686C37.2412 44.4465 36.837 43.6916 36.2448 43.0979C35.6526 42.5043 34.8985 42.0982 34.0769 41.9306C33.1869 41.7116 32.2939 41.5026 31.3969 41.3196C30.9159 41.2196 30.5879 41.0076 30.5529 40.4926C30.5219 40.0356 30.8309 39.7496 31.4009 39.6206C32.3789 39.3986 33.3589 39.1835 34.3259 38.9205C35.048 38.7505 35.7091 38.384 36.2359 37.8616C36.7627 37.3392 37.1348 36.6813 37.3109 35.9606C37.5479 35.1126 37.7519 34.2526 37.9319 33.3906C38.1219 32.4776 38.3319 32.1566 38.8559 32.1486C39.3799 32.1406 39.6059 32.4796 39.8019 33.3676C40.0179 34.3456 40.2469 35.3246 40.5439 36.2796C40.7128 36.8758 41.0311 37.4191 41.4686 37.8579C41.906 38.2968 42.4482 38.6168 43.0439 38.7876C44.1159 39.1166 45.2169 39.3516 46.3089 39.6146C46.8949 39.7556 47.1849 40.0216 47.1839 40.4716C47.1829 40.9216 46.8929 41.1846 46.3049 41.3256C45.2129 41.5886 44.1119 41.8256 43.0399 42.1526C42.451 42.3181 41.914 42.6308 41.4796 43.0614C41.0452 43.492 40.7276 44.0262 40.5569 44.6135C40.2139 45.7135 39.9779 46.8546 39.7069 47.9806C39.5829 48.5086 39.2909 48.7986 38.7909 48.7886ZM42.7219 40.4636C41.8127 40.1924 40.9849 39.7001 40.3124 39.0309C39.6399 38.3617 39.1436 37.5364 38.8679 36.6286C38.3638 36.6291 37.8649 36.7289 37.3995 36.9223C36.934 37.1156 36.5112 37.3987 36.1552 37.7555C35.7992 38.1123 35.5169 38.5356 35.3245 39.0015C35.1321 39.4673 35.0333 39.9666 35.0339 40.4706C35.0344 40.9746 35.1342 41.4735 35.3276 41.939C35.5209 42.4044 35.8041 42.8272 36.1608 43.1832C36.5176 43.5393 36.941 43.8215 37.4069 44.0139C37.8727 44.2063 38.3719 44.3051 38.8759 44.3046C39.151 43.3973 39.6463 42.5723 40.3177 41.903C40.9892 41.2336 41.8158 40.7408 42.7239 40.4685L42.7219 40.4636Z" fill="black"/>
<path d="M5.65393 18.0466C5.65393 17.1466 5.63598 16.2467 5.66498 15.3467C5.68352 15.0698 5.76783 14.8013 5.91095 14.5636C5.99413 14.3978 6.13694 14.2696 6.31073 14.2047C6.48452 14.1398 6.67644 14.1429 6.84796 14.2136C7.03466 14.2651 7.19632 14.3825 7.30298 14.5442C7.40964 14.7058 7.45407 14.9007 7.42798 15.0926C7.36998 16.2476 7.22798 17.4046 7.26398 18.5556C7.3144 22.815 8.27342 27.0146 10.077 30.8736C11.3935 33.6552 13.2524 36.1457 15.5448 38.1988C17.8372 40.252 20.5167 41.8264 23.426 42.8296C23.7318 42.9281 24.0617 42.9225 24.364 42.8136C25.284 42.4626 26.183 42.0526 27.082 41.6506C27.693 41.3776 28.144 41.4656 28.382 41.9366C28.62 42.4076 28.434 42.8666 27.83 43.1366C26.838 43.5866 25.83 43.9986 24.83 44.4256C24.5252 44.5516 24.1985 44.6158 23.8688 44.6146C23.539 44.6134 23.2127 44.5468 22.9089 44.4186C19.1152 43.1056 15.6936 40.898 12.9337 37.9825C10.1739 35.0671 8.15706 31.5297 7.05396 27.6697C6.09649 24.5528 5.62427 21.3071 5.65393 18.0466Z" fill="black"/>
<path d="M0.5 17.7762C0.636 15.9762 0.75395 14.1761 0.92395 12.3871C0.963239 12.053 1.12161 11.7441 1.37 11.5171C1.49184 11.4485 1.62897 11.4118 1.7688 11.4102C1.90862 11.4086 2.04662 11.4423 2.16998 11.5081C2.28989 11.608 2.38745 11.7321 2.45636 11.8721C2.52527 12.0122 2.56395 12.1651 2.56995 12.3211C2.52195 13.4801 2.35098 14.6341 2.30298 15.7941C2.01298 22.7481 3.13398 29.3941 6.61798 35.5301C6.79798 35.8461 6.99395 36.1532 7.17395 36.4692C7.24945 36.5623 7.3041 36.6706 7.33411 36.7867C7.36412 36.9028 7.3688 37.0239 7.3479 37.142C7.327 37.2601 7.28099 37.3724 7.21295 37.4711C7.14491 37.5699 7.05645 37.6528 6.95355 37.7144C6.85066 37.776 6.73575 37.8146 6.61658 37.8279C6.4974 37.8412 6.37676 37.8288 6.26282 37.7914C6.14888 37.7541 6.04431 37.6926 5.95618 37.6113C5.86804 37.5299 5.79837 37.4307 5.75195 37.3201C4.24409 34.9077 3.06691 32.3038 2.25195 29.5782C1.13093 25.7435 0.541473 21.7731 0.5 17.7781V17.7762Z" fill="black"/>
<path d="M23.8564 50.5031C23.3764 50.3751 22.8704 50.2632 22.3774 50.1032C18.3996 48.8521 14.7168 46.8076 11.5514 44.0932C11.4426 44.0069 11.3402 43.9127 11.2454 43.8112C11.1087 43.663 11.0324 43.4689 11.0313 43.2673C11.0302 43.0656 11.1044 42.8709 11.2394 42.7211C11.3012 42.6414 11.3781 42.5746 11.4658 42.5246C11.5534 42.4746 11.6501 42.4425 11.7502 42.4299C11.8503 42.4172 11.9519 42.4244 12.0493 42.4511C12.1466 42.4778 12.2377 42.5233 12.3174 42.5851C12.6864 42.8411 13.0174 43.1542 13.3664 43.4372C16.3535 45.8493 19.796 47.6349 23.4884 48.6872C23.8033 48.7593 24.132 48.7448 24.4394 48.6452C27.3329 47.7849 30.0754 46.481 32.5693 44.7802C33.2993 44.2802 33.7904 44.2882 34.0994 44.7802C34.3994 45.2532 34.2074 45.6801 33.4994 46.1591C30.8312 47.975 27.8959 49.363 24.7994 50.2731C24.5064 50.3631 24.2014 50.4231 23.8564 50.5031Z" fill="black"/>
<path d="M42.1676 18.2336C42.1257 21.8756 41.5033 25.4877 40.3236 28.9337C40.1096 29.5617 39.7157 29.8136 39.2087 29.6546C38.7227 29.5016 38.5396 29.0357 38.7506 28.4127C40.0807 24.4833 40.6825 20.3441 40.5266 16.1986C40.5536 15.7298 40.3956 15.2692 40.0866 14.9156C40.0158 14.8435 39.9606 14.7578 39.9241 14.6636C39.8876 14.5694 39.8705 14.4687 39.8742 14.3678C39.8778 14.2668 39.902 14.1677 39.9452 14.0764C39.9884 13.9851 40.0499 13.9035 40.1256 13.8367C40.2689 13.6818 40.4672 13.5894 40.6779 13.5791C40.8886 13.5688 41.0949 13.6415 41.2526 13.7816C41.728 14.1698 42.0371 14.725 42.1166 15.3336C42.1418 15.4697 42.1583 15.6075 42.1657 15.7457C42.1677 16.5637 42.1676 17.4036 42.1676 18.2336Z" fill="black"/>
<path d="M23.9818 6.26953C24.4205 6.39398 24.8459 6.56146 25.2517 6.76953C27.5013 8.19479 29.8561 9.44673 32.2957 10.5145C32.8957 10.7725 33.1068 11.2295 32.8958 11.7035C32.8419 11.8188 32.763 11.9207 32.6648 12.0017C32.5666 12.0827 32.4516 12.1408 32.3281 12.1718C32.2047 12.2027 32.0758 12.2058 31.951 12.1807C31.8262 12.1555 31.7086 12.1028 31.6068 12.0265C29.2808 10.8112 26.9627 9.58016 24.6527 8.3335C24.4819 8.20523 24.2849 8.11626 24.0758 8.07288C23.8666 8.02949 23.6505 8.03278 23.4428 8.08252C23.342 8.11181 23.2364 8.12035 23.1322 8.10767C23.0281 8.09498 22.9276 8.06129 22.8368 8.00867C22.746 7.95604 22.6669 7.88559 22.6041 7.80151C22.5414 7.71743 22.4964 7.62151 22.4718 7.51953C22.4397 7.42 22.4277 7.31514 22.4363 7.21094C22.4449 7.10674 22.474 7.00527 22.522 6.91235C22.5699 6.81944 22.6358 6.73684 22.7157 6.66943C22.7956 6.60202 22.8881 6.55112 22.9877 6.51953C23.3143 6.41807 23.6461 6.33461 23.9818 6.26953Z" fill="black"/>
<path d="M35.9073 11.9238C36.4522 12.0967 36.9865 12.3015 37.5074 12.5369C37.588 12.5824 37.6588 12.6436 37.7156 12.7167C37.7725 12.7898 37.8143 12.8735 37.8386 12.9629C37.8628 13.0523 37.8692 13.1456 37.8571 13.2374C37.8451 13.3293 37.8149 13.4177 37.7684 13.4978C37.7113 13.6748 37.5893 13.8236 37.427 13.9143C37.2647 14.005 37.074 14.0309 36.8934 13.9868C36.3726 13.8639 35.8644 13.6928 35.3754 13.4758C35.204 13.4043 35.0662 13.2703 34.99 13.101C34.9139 12.9316 34.9051 12.7395 34.9654 12.5638C35.0774 12.1638 35.3473 11.9638 35.9073 11.9238Z" fill="black"/>
<path d="M9.45948 41.7257C9.22734 41.6381 9.00752 41.5208 8.80549 41.3768C8.49974 41.0722 8.21788 40.7446 7.96247 40.3968C7.83416 40.2308 7.77512 40.0215 7.79768 39.8129C7.82024 39.6043 7.92267 39.4125 8.08351 39.2778C8.24317 39.1423 8.44839 39.0726 8.65754 39.083C8.86669 39.0935 9.06405 39.183 9.20948 39.3337C9.52591 39.6274 9.80259 39.9613 10.0325 40.3267C10.1647 40.5936 10.1866 40.9018 10.0935 41.1847C10.0065 41.4057 9.68648 41.5457 9.45948 41.7257Z" fill="black"/>
</g>
<defs>
<clipPath id="clip0_86_430">
<rect width="46.793" height="50.002" fill="white" transform="translate(0.5 0.5)"/>
</clipPath>
</defs>
</svg>
