<svg width="25" height="25" viewBox="0 0 25 25" fill="none" xmlns="http://www.w3.org/2000/svg">
<g clip-path="url(#clip0_86_443)">
<path d="M0.5 24.4997L2.187 18.3367C0.753782 15.8482 0.269506 12.925 0.823618 10.1072C1.37773 7.2894 2.93279 4.76728 5.20159 3.0067C7.47039 1.24612 10.2996 0.366011 13.1668 0.528929C16.0339 0.691848 18.7453 1.88679 20.8 3.89305C22.8548 5.8993 24.1142 8.58134 24.3455 11.4438C24.5768 14.3062 23.7646 17.1557 22.0587 19.4659C20.3528 21.7761 17.8685 23.3909 15.0647 24.0122C12.261 24.6334 9.32709 24.2191 6.805 22.8457L0.5 24.4997ZM7.1 20.6927C9.15362 22.0268 11.6302 22.5491 14.0476 22.1578C16.4651 21.7665 18.6505 20.4897 20.1784 18.5759C21.7063 16.6621 22.4674 14.2482 22.3136 11.8041C22.1598 9.36001 21.102 7.06061 19.3462 5.35345C17.5904 3.6463 15.2622 2.65355 12.8148 2.56845C10.3673 2.48334 7.97577 3.31197 6.10562 4.89304C4.23548 6.4741 3.02056 8.69448 2.69733 11.122C2.37411 13.5495 2.96572 16.0104 4.357 18.0257L3.357 21.6737L7.1 20.6927ZM18.487 15.2287C18.413 15.1047 18.215 15.0287 17.917 14.8817C17.619 14.7347 16.159 14.0137 15.886 13.9147C15.613 13.8157 15.416 13.7657 15.217 14.0637C15.018 14.3617 14.449 15.0307 14.276 15.2287C14.103 15.4267 13.929 15.4517 13.632 15.3027C12.7556 14.9538 11.9468 14.4546 11.242 13.8277C10.5922 13.2269 10.0351 12.533 9.589 11.7687C9.416 11.4687 9.571 11.3107 9.719 11.1627C9.867 11.0147 10.019 10.8157 10.165 10.6417C10.2891 10.4926 10.3902 10.3257 10.465 10.1467C10.5046 10.0647 10.5231 9.97404 10.5187 9.88305C10.5144 9.79205 10.4873 9.70359 10.44 9.62572C10.365 9.47772 9.771 8.01472 9.524 7.41972C9.282 6.84072 9.037 6.91972 8.855 6.90972L8.285 6.89972C8.13444 6.90359 7.98632 6.93865 7.84999 7.00268C7.71367 7.06671 7.59211 7.15832 7.493 7.27172C7.15707 7.59011 6.89112 7.97495 6.71206 8.40175C6.53301 8.82855 6.44478 9.28796 6.453 9.75072C6.54885 10.8712 6.96935 11.9395 7.663 12.8247C8.93865 14.7356 10.6893 16.2818 12.743 17.3117C13.2963 17.5499 13.8618 17.7589 14.437 17.9377C15.0434 18.1217 15.6843 18.1621 16.309 18.0557C16.7227 17.9713 17.1146 17.8022 17.4598 17.559C17.805 17.3158 18.0962 17.0039 18.315 16.6427C18.5099 16.1985 18.5691 15.7068 18.487 15.2287Z" fill="black"/>
</g>
<defs>
<clipPath id="clip0_86_443">
<rect width="23.886" height="24" fill="white" transform="translate(0.5 0.5)"/>
</clipPath>
</defs>
</svg>
